<?xml version="1.0" encoding="utf-8"?>
<svg version="1.1" viewBox="0.00 0.00 209.00 209.00" xmlns="http://www.w3.org/2000/svg"><g id="offState" style="display:inline"><g fill="none" stroke-linecap="butt" stroke-width="2.00">
<path class="icon-shape" d="   M 66.25 82.09   C 68.20 79.26 69.74 76.95 69.84 73.14   Q 69.98 67.49 68.42 60.32   Q 66.96 53.60 61.11 50.90   C 57.10 49.05 48.93 49.27 45.26 53.00   C 41.52 56.81 41.58 59.64 42.69 65.46   Q 56.62 138.36 58.69 148.39   Q 60.38 156.57 66.43 160.80   Q 71.14 164.10 75.40 164.11   Q 119.07 164.24 132.23 164.12   C 137.71 164.07 143.00 161.41 145.73 156.41   Q 146.54 154.92 148.17 150.68   C 150.96 143.43 154.11 135.23 147.48 129.74   Q 142.69 125.78 136.35 126.07   Q 124.77 126.60 113.58 126.53   C 104.81 126.47 96.10 127.16 88.39 128.41   A 1.21 1.20 78.3 0 1 87.03 127.51   Q 82.81 110.04 75.90 93.12   Q 73.41 87.03 66.47 83.03   A 0.66 0.66 0.0 0 1 66.25 82.09" stroke="#d9d8da" vector-effect="non-scaling-stroke"/>
<path class="icon-shape" d="   M 155.10 75.55   A 2.85 2.85 0.0 0 0 151.40 75.35   Q 144.45 80.67 136.42 79.16   C 130.56 78.05 124.88 74.07 118.75 72.96   Q 109.29 71.25 101.06 76.65   A 2.80 2.80 0.0 0 0 99.96 79.96   L 99.98 80.03   A 2.17 2.16 67.8 0 0 102.89 81.26   Q 103.63 80.92 106.36 79.39   C 110.77 76.91 116.34 77.06 121.20 78.69   C 125.15 80.01 130.74 83.07 135.26 84.00   Q 145.95 86.19 155.05 78.89   A 2.16 2.16 0.0 0 0 155.20 75.64   L 155.10 75.55" stroke="#d9d8da" vector-effect="non-scaling-stroke"/>
<path class="icon-shape" d="   M 155.13 92.16   A 2.85 2.85 0.0 0 0 151.43 91.93   Q 144.44 97.21 136.42 95.64   C 130.56 94.49 124.90 90.47 118.77 89.32   Q 109.32 87.55 101.04 92.89   A 2.80 2.80 0.0 0 0 99.92 96.20   L 99.94 96.27   A 2.17 2.16 68.1 0 0 102.85 97.52   Q 103.59 97.19 106.33 95.67   C 110.76 93.22 116.33 93.41 121.19 95.07   C 125.13 96.42 130.70 99.52 135.22 100.48   Q 145.91 102.74 155.06 95.50   A 2.16 2.16 0.0 0 0 155.23 92.25   L 155.13 92.16" stroke="#d9d8da" vector-effect="non-scaling-stroke"/>
<path class="icon-shape" d="   M 155.16 108.17   A 2.85 2.85 0.0 0 0 151.46 107.93   Q 144.46 113.19 136.45 111.60   C 130.59 110.44 124.94 106.41 118.82 105.24   Q 109.38 103.45 101.09 108.77   A 2.80 2.80 0.0 0 0 99.96 112.08   L 99.98 112.15   A 2.17 2.16 68.3 0 0 102.88 113.40   Q 103.63 113.08 106.37 111.56   C 110.80 109.12 116.37 109.33 121.22 111.00   C 125.16 112.36 130.72 115.47 135.24 116.44   Q 145.92 118.73 155.08 111.51   A 2.16 2.16 0.0 0 0 155.26 108.26   L 155.16 108.17" stroke="#d9d8da" vector-effect="non-scaling-stroke"/>
<path class="icon-shape" d="   M 51.46 81.45   L 59.00 81.34   A 1.11 1.06 -58.4 0 0 59.53 81.20   C 64.69 78.34 65.55 74.11 64.72 68.15   C 63.83 61.78 63.51 54.40 55.24 54.61   C 51.55 54.70 47.54 55.74 46.89 59.60   Q 46.73 60.56 47.62 65.19   Q 49.58 75.42 50.60 80.76   A 0.87 0.86 -6.0 0 0 51.46 81.45" stroke="#d9d8da" vector-effect="non-scaling-stroke"/>
<path class="icon-shape" d="   M 52.10 86.55   A 0.40 0.40 0.0 0 0 51.71 87.03   Q 53.47 95.73 62.72 144.27   C 63.93 150.62 65.74 155.65 71.85 158.36   Q 74.33 159.46 81.25 159.48   Q 100.65 159.53 125.20 159.46   Q 133.84 159.43 135.71 158.76   C 142.06 156.45 143.60 149.12 145.67 143.18   C 147.34 138.42 147.33 135.38 143.13 132.62   Q 141.01 131.23 139.63 131.19   Q 115.09 130.46 92.78 132.59   Q 89.97 132.86 86.01 133.74   A 2.48 2.47 -12.7 0 1 83.06 131.88   Q 79.52 116.45 73.70 100.90   C 71.27 94.42 69.24 88.79 61.97 86.61   A 1.44 1.41 -36.1 0 0 61.56 86.55   L 52.10 86.55" stroke="#d9d8da" vector-effect="non-scaling-stroke"/>
</g>
<path class="icon-shape" d="   M 209.00 0.00   L 209.00 209.00   L 0.00 209.00   L 0.00 0.00   L 209.00 0.00   Z   M 66.25 82.09   C 68.20 79.26 69.74 76.95 69.84 73.14   Q 69.98 67.49 68.42 60.32   Q 66.96 53.60 61.11 50.90   C 57.10 49.05 48.93 49.27 45.26 53.00   C 41.52 56.81 41.58 59.64 42.69 65.46   Q 56.62 138.36 58.69 148.39   Q 60.38 156.57 66.43 160.80   Q 71.14 164.10 75.40 164.11   Q 119.07 164.24 132.23 164.12   C 137.71 164.07 143.00 161.41 145.73 156.41   Q 146.54 154.92 148.17 150.68   C 150.96 143.43 154.11 135.23 147.48 129.74   Q 142.69 125.78 136.35 126.07   Q 124.77 126.60 113.58 126.53   C 104.81 126.47 96.10 127.16 88.39 128.41   A 1.21 1.20 78.3 0 1 87.03 127.51   Q 82.81 110.04 75.90 93.12   Q 73.41 87.03 66.47 83.03   A 0.66 0.66 0.0 0 1 66.25 82.09   Z   M 155.10 75.55   A 2.85 2.85 0.0 0 0 151.40 75.35   Q 144.45 80.67 136.42 79.16   C 130.56 78.05 124.88 74.07 118.75 72.96   Q 109.29 71.25 101.06 76.65   A 2.80 2.80 0.0 0 0 99.96 79.96   L 99.98 80.03   A 2.17 2.16 67.8 0 0 102.89 81.26   Q 103.63 80.92 106.36 79.39   C 110.77 76.91 116.34 77.06 121.20 78.69   C 125.15 80.01 130.74 83.07 135.26 84.00   Q 145.95 86.19 155.05 78.89   A 2.16 2.16 0.0 0 0 155.20 75.64   L 155.10 75.55   Z   M 155.13 92.16   A 2.85 2.85 0.0 0 0 151.43 91.93   Q 144.44 97.21 136.42 95.64   C 130.56 94.49 124.90 90.47 118.77 89.32   Q 109.32 87.55 101.04 92.89   A 2.80 2.80 0.0 0 0 99.92 96.20   L 99.94 96.27   A 2.17 2.16 68.1 0 0 102.85 97.52   Q 103.59 97.19 106.33 95.67   C 110.76 93.22 116.33 93.41 121.19 95.07   C 125.13 96.42 130.70 99.52 135.22 100.48   Q 145.91 102.74 155.06 95.50   A 2.16 2.16 0.0 0 0 155.23 92.25   L 155.13 92.16   Z   M 155.16 108.17   A 2.85 2.85 0.0 0 0 151.46 107.93   Q 144.46 113.19 136.45 111.60   C 130.59 110.44 124.94 106.41 118.82 105.24   Q 109.38 103.45 101.09 108.77   A 2.80 2.80 0.0 0 0 99.96 112.08   L 99.98 112.15   A 2.17 2.16 68.3 0 0 102.88 113.40   Q 103.63 113.08 106.37 111.56   C 110.80 109.12 116.37 109.33 121.22 111.00   C 125.16 112.36 130.72 115.47 135.24 116.44   Q 145.92 118.73 155.08 111.51   A 2.16 2.16 0.0 0 0 155.26 108.26   L 155.16 108.17   Z" fill="#ffffff"/>
<path class="icon-shape" d="   M 66.47 83.03   Q 73.41 87.03 75.90 93.12   Q 82.81 110.04 87.03 127.51   A 1.21 1.20 78.3 0 0 88.39 128.41   C 96.10 127.16 104.81 126.47 113.58 126.53   Q 124.77 126.60 136.35 126.07   Q 142.69 125.78 147.48 129.74   C 154.11 135.23 150.96 143.43 148.17 150.68   Q 146.54 154.92 145.73 156.41   C 143.00 161.41 137.71 164.07 132.23 164.12   Q 119.07 164.24 75.40 164.11   Q 71.14 164.10 66.43 160.80   Q 60.38 156.57 58.69 148.39   Q 56.62 138.36 42.69 65.46   C 41.58 59.64 41.52 56.81 45.26 53.00   C 48.93 49.27 57.10 49.05 61.11 50.90   Q 66.96 53.60 68.42 60.32   Q 69.98 67.49 69.84 73.14   C 69.74 76.95 68.20 79.26 66.25 82.09   A 0.66 0.66 0.0 0 0 66.47 83.03   Z   M 51.46 81.45   L 59.00 81.34   A 1.11 1.06 -58.4 0 0 59.53 81.20   C 64.69 78.34 65.55 74.11 64.72 68.15   C 63.83 61.78 63.51 54.40 55.24 54.61   C 51.55 54.70 47.54 55.74 46.89 59.60   Q 46.73 60.56 47.62 65.19   Q 49.58 75.42 50.60 80.76   A 0.87 0.86 -6.0 0 0 51.46 81.45   Z   M 52.10 86.55   A 0.40 0.40 0.0 0 0 51.71 87.03   Q 53.47 95.73 62.72 144.27   C 63.93 150.62 65.74 155.65 71.85 158.36   Q 74.33 159.46 81.25 159.48   Q 100.65 159.53 125.20 159.46   Q 133.84 159.43 135.71 158.76   C 142.06 156.45 143.60 149.12 145.67 143.18   C 147.34 138.42 147.33 135.38 143.13 132.62   Q 141.01 131.23 139.63 131.19   Q 115.09 130.46 92.78 132.59   Q 89.97 132.86 86.01 133.74   A 2.48 2.47 -12.7 0 1 83.06 131.88   Q 79.52 116.45 73.70 100.90   C 71.27 94.42 69.24 88.79 61.97 86.61   A 1.44 1.41 -36.1 0 0 61.56 86.55   L 52.10 86.55   Z" fill="#b2b0b4"/>
<path class="icon-shape" d="   M 50.60 80.76   Q 49.58 75.42 47.62 65.19   Q 46.73 60.56 46.89 59.60   C 47.54 55.74 51.55 54.70 55.24 54.61   C 63.51 54.40 63.83 61.78 64.72 68.15   C 65.55 74.11 64.69 78.34 59.53 81.20   A 1.11 1.06 -58.4 0 1 59.00 81.34   L 51.46 81.45   A 0.87 0.86 -6.0 0 1 50.60 80.76   Z" fill="#ffffff"/>
<path class="icon-shape" d="   M 155.10 75.55   L 155.20 75.64   A 2.16 2.16 0.0 0 1 155.05 78.89   Q 145.95 86.19 135.26 84.00   C 130.74 83.07 125.15 80.01 121.20 78.69   C 116.34 77.06 110.77 76.91 106.36 79.39   Q 103.63 80.92 102.89 81.26   A 2.17 2.16 67.8 0 1 99.98 80.03   L 99.96 79.96   A 2.80 2.80 0.0 0 1 101.06 76.65   Q 109.29 71.25 118.75 72.96   C 124.88 74.07 130.56 78.05 136.42 79.16   Q 144.45 80.67 151.40 75.35   A 2.85 2.85 0.0 0 1 155.10 75.55   Z" fill="#b2b0b4"/>
<path class="icon-shape" d="   M 52.10 86.55   L 61.56 86.55   A 1.44 1.41 -36.1 0 1 61.97 86.61   C 69.24 88.79 71.27 94.42 73.70 100.90   Q 79.52 116.45 83.06 131.88   A 2.48 2.47 -12.7 0 0 86.01 133.74   Q 89.97 132.86 92.78 132.59   Q 115.09 130.46 139.63 131.19   Q 141.01 131.23 143.13 132.62   C 147.33 135.38 147.34 138.42 145.67 143.18   C 143.60 149.12 142.06 156.45 135.71 158.76   Q 133.84 159.43 125.20 159.46   Q 100.65 159.53 81.25 159.48   Q 74.33 159.46 71.85 158.36   C 65.74 155.65 63.93 150.62 62.72 144.27   Q 53.47 95.73 51.71 87.03   A 0.40 0.40 0.0 0 1 52.10 86.55   Z" fill="#ffffff"/>
<path class="icon-shape" d="   M 155.13 92.16   L 155.23 92.25   A 2.16 2.16 0.0 0 1 155.06 95.50   Q 145.91 102.74 135.22 100.48   C 130.70 99.52 125.13 96.42 121.19 95.07   C 116.33 93.41 110.76 93.22 106.33 95.67   Q 103.59 97.19 102.85 97.52   A 2.17 2.16 68.1 0 1 99.94 96.27   L 99.92 96.20   A 2.80 2.80 0.0 0 1 101.04 92.89   Q 109.32 87.55 118.77 89.32   C 124.90 90.47 130.56 94.49 136.42 95.64   Q 144.44 97.21 151.43 91.93   A 2.85 2.85 0.0 0 1 155.13 92.16   Z" fill="#b2b0b4"/>
<path class="icon-shape" d="   M 155.16 108.17   L 155.26 108.26   A 2.16 2.16 0.0 0 1 155.08 111.51   Q 145.92 118.73 135.24 116.44   C 130.72 115.47 125.16 112.36 121.22 111.00   C 116.37 109.33 110.80 109.12 106.37 111.56   Q 103.63 113.08 102.88 113.40   A 2.17 2.16 68.3 0 1 99.98 112.15   L 99.96 112.08   A 2.80 2.80 0.0 0 1 101.09 108.77   Q 109.38 103.45 118.82 105.24   C 124.94 106.41 130.59 110.44 136.45 111.60   Q 144.46 113.19 151.46 107.93   A 2.85 2.85 0.0 0 1 155.16 108.17   Z" fill="#b2b0b4"/>
</g><g id="onState" style="display:none"><g fill="none" stroke-linecap="butt" stroke-width="2.00">
<path class="icon-shape" d="   M 55.98 134.98   C 56.73 139.36 57.70 143.68 58.54 148.05   Q 60.07 156.10 65.83 160.42   Q 70.74 164.11 74.73 164.11   Q 101.10 164.11 127.21 164.19   Q 135.67 164.21 138.61 162.98   Q 144.00 160.72 146.57 154.91   Q 148.82 149.83 150.78 143.12   C 153.03 135.42 149.81 129.27 142.56 126.86   Q 139.54 125.86 136.75 125.95   Q 122.88 126.42 116.38 126.39" stroke="#808080" vector-effect="non-scaling-stroke"/>
<path class="icon-shape" d="   M 116.38 126.39   Q 123.00 120.72 126.86 113.52" stroke="#fef6f6" vector-effect="non-scaling-stroke"/>
<path class="icon-shape" d="   M 126.86 113.52   Q 132.63 116.22 137.51 116.96   Q 146.05 118.25 155.10 111.61   A 2.31 2.31 0.0 0 0 155.38 108.13   L 155.32 108.06   A 2.85 2.84 -41.1 0 0 151.55 107.81   Q 141.75 115.39 129.79 109.12" stroke="#808080" vector-effect="non-scaling-stroke"/>
<path class="icon-shape" d="   M 129.79 109.12   L 133.50 100.22" stroke="#fef6f6" vector-effect="non-scaling-stroke"/>
<path class="icon-shape" d="   M 133.50 100.22   Q 145.68 103.33 155.25 95.31   A 1.99 1.99 0.0 0 0 155.70 92.79   L 155.44 92.34   A 2.39 2.39 0.0 0 0 152.07 91.53   C 146.43 95.16 141.24 97.37 134.49 95.10" stroke="#808080" vector-effect="non-scaling-stroke"/>
<path class="icon-shape" d="   M 134.49 95.10   L 135.98 84.24" stroke="#fef6f6" vector-effect="non-scaling-stroke"/>
<path class="icon-shape" d="   M 135.98 84.24   Q 145.27 85.59 153.67 80.13   Q 155.14 79.18 155.61 78.45   C 156.76 76.64 155.17 74.94 153.50 74.63   A 1.52 1.48 35.4 0 0 152.47 74.79   Q 150.38 75.91 148.36 77.07   Q 142.47 80.45 135.55 78.89" stroke="#808080" vector-effect="non-scaling-stroke"/>
<path class="icon-shape" d="   M 135.55 78.89   C 135.21 66.26 128.86 53.35 120.47 44.58   C 102.01 25.28 72.24 21.32 49.50 35.65   C 23.36 52.12 15.39 86.05 31.03 112.52   Q 39.62 127.04 55.98 134.98" stroke="#fef6f6" vector-effect="non-scaling-stroke"/>
<path class="icon-shape" d="   M 135.55 78.89   Q 131.68 77.75 126.46 75.28   Q 117.53 71.07 107.27 73.52   Q 104.99 74.07 100.80 76.79   A 2.55 2.54 -28.8 0 0 99.87 79.99   L 99.91 80.07   A 2.26 2.25 64.2 0 0 103.00 81.15   L 107.62 78.79   A 3.97 3.77 -63.6 0 1 108.58 78.44   Q 116.59 76.64 122.22 79.01   Q 132.20 83.20 135.98 84.24" stroke="#7f7777" vector-effect="non-scaling-stroke"/>
<path class="icon-shape" d="   M 134.49 95.10   Q 131.35 93.92 124.89 91.11   Q 117.08 87.71 108.06 89.55   Q 105.10 90.15 100.65 93.15   A 2.37 2.36 -34.1 0 0 100.01 96.44   L 100.18 96.69   A 2.30 2.29 -31.6 0 0 103.21 97.41   Q 106.82 95.39 107.97 94.95   Q 114.07 92.66 121.06 95.30   Q 127.30 97.66 133.50 100.22" stroke="#7f7777" vector-effect="non-scaling-stroke"/>
<path class="icon-shape" d="   M 129.79 109.12   Q 122.90 106.07 120.32 105.42   Q 110.34 102.89 100.99 108.89   A 2.72 2.72 0.0 0 0 99.99 112.32   L 100.04 112.43   A 2.22 2.21 -27.3 0 0 103.15 113.42   Q 107.20 111.12 108.46 110.70   C 115.09 108.51 120.76 110.29 126.86 113.52" stroke="#7f7777" vector-effect="non-scaling-stroke"/>
<path class="icon-shape" d="   M 116.38 126.39   Q 102.29 126.28 88.26 128.35   A 1.07 1.06 -10.8 0 1 87.06 127.54   Q 83.76 113.47 78.44 99.54   C 75.87 92.78 73.58 86.12 66.53 83.14   A 0.60 0.60 0.0 0 1 66.21 82.35   Q 66.33 82.09 67.85 79.85   Q 69.67 77.17 69.89 73.24   Q 70.23 67.24 68.27 59.78   Q 65.52 49.37 54.50 49.74   C 48.79 49.93 43.92 52.23 42.27 57.55   Q 41.57 59.80 42.64 65.45   Q 49.25 100.20 55.98 134.98" stroke="#7f7777" vector-effect="non-scaling-stroke"/>
<path class="icon-shape" d="   M 51.31 81.31   L 59.03 81.31   A 0.96 0.93 28.9 0 0 59.51 81.18   C 66.95 76.80 65.01 70.51 63.87 62.80   C 63.34 59.21 61.73 56.09 58.43 55.09   C 54.78 53.98 46.47 54.88 46.86 60.64   Q 46.90 61.27 50.68 80.79   A 0.64 0.64 0.0 0 0 51.31 81.31" stroke="#808080" vector-effect="non-scaling-stroke"/>
<path class="icon-shape" d="   M 51.86 87.37   Q 58.10 119.53 61.59 138.21   C 63.96 150.88 65.26 159.58 79.72 159.43   Q 88.48 159.34 127.94 159.44   C 135.52 159.46 139.99 158.37 142.75 151.03   Q 145.90 142.67 146.55 140.08   C 147.81 135.11 142.88 131.26 138.37 131.19   Q 116.50 130.83 100.36 131.92   C 98.27 132.06 96.96 132.51 95.03 132.46   C 92.84 132.41 88.95 133.08 86.92 133.64   C 85.22 134.11 83.42 133.61 83.05 132.00   Q 79.48 116.55 73.65 100.93   C 71.32 94.67 69.16 88.78 62.39 86.82   Q 61.21 86.47 52.42 86.67   A 0.59 0.59 0.0 0 0 51.86 87.37" stroke="#808080" vector-effect="non-scaling-stroke"/>
</g>
<path class="icon-shape" d="   M 209.00 0.00   L 209.00 209.00   L 0.00 209.00   L 0.00 0.00   L 209.00 0.00   Z   M 55.98 134.98   C 56.73 139.36 57.70 143.68 58.54 148.05   Q 60.07 156.10 65.83 160.42   Q 70.74 164.11 74.73 164.11   Q 101.10 164.11 127.21 164.19   Q 135.67 164.21 138.61 162.98   Q 144.00 160.72 146.57 154.91   Q 148.82 149.83 150.78 143.12   C 153.03 135.42 149.81 129.27 142.56 126.86   Q 139.54 125.86 136.75 125.95   Q 122.88 126.42 116.38 126.39   Q 123.00 120.72 126.86 113.52   Q 132.63 116.22 137.51 116.96   Q 146.05 118.25 155.10 111.61   A 2.31 2.31 0.0 0 0 155.38 108.13   L 155.32 108.06   A 2.85 2.84 -41.1 0 0 151.55 107.81   Q 141.75 115.39 129.79 109.12   L 133.50 100.22   Q 145.68 103.33 155.25 95.31   A 1.99 1.99 0.0 0 0 155.70 92.79   L 155.44 92.34   A 2.39 2.39 0.0 0 0 152.07 91.53   C 146.43 95.16 141.24 97.37 134.49 95.10   L 135.98 84.24   Q 145.27 85.59 153.67 80.13   Q 155.14 79.18 155.61 78.45   C 156.76 76.64 155.17 74.94 153.50 74.63   A 1.52 1.48 35.4 0 0 152.47 74.79   Q 150.38 75.91 148.36 77.07   Q 142.47 80.45 135.55 78.89   C 135.21 66.26 128.86 53.35 120.47 44.58   C 102.01 25.28 72.24 21.32 49.50 35.65   C 23.36 52.12 15.39 86.05 31.03 112.52   Q 39.62 127.04 55.98 134.98   Z" fill="#ffffff"/>
<path class="icon-shape" d="   M 135.55 78.89   Q 131.68 77.75 126.46 75.28   Q 117.53 71.07 107.27 73.52   Q 104.99 74.07 100.80 76.79   A 2.55 2.54 -28.8 0 0 99.87 79.99   L 99.91 80.07   A 2.26 2.25 64.2 0 0 103.00 81.15   L 107.62 78.79   A 3.97 3.77 -63.6 0 1 108.58 78.44   Q 116.59 76.64 122.22 79.01   Q 132.20 83.20 135.98 84.24   L 134.49 95.10   Q 131.35 93.92 124.89 91.11   Q 117.08 87.71 108.06 89.55   Q 105.10 90.15 100.65 93.15   A 2.37 2.36 -34.1 0 0 100.01 96.44   L 100.18 96.69   A 2.30 2.29 -31.6 0 0 103.21 97.41   Q 106.82 95.39 107.97 94.95   Q 114.07 92.66 121.06 95.30   Q 127.30 97.66 133.50 100.22   L 129.79 109.12   Q 122.90 106.07 120.32 105.42   Q 110.34 102.89 100.99 108.89   A 2.72 2.72 0.0 0 0 99.99 112.32   L 100.04 112.43   A 2.22 2.21 -27.3 0 0 103.15 113.42   Q 107.20 111.12 108.46 110.70   C 115.09 108.51 120.76 110.29 126.86 113.52   Q 123.00 120.72 116.38 126.39   Q 102.29 126.28 88.26 128.35   A 1.07 1.06 -10.8 0 1 87.06 127.54   Q 83.76 113.47 78.44 99.54   C 75.87 92.78 73.58 86.12 66.53 83.14   A 0.60 0.60 0.0 0 1 66.21 82.35   Q 66.33 82.09 67.85 79.85   Q 69.67 77.17 69.89 73.24   Q 70.23 67.24 68.27 59.78   Q 65.52 49.37 54.50 49.74   C 48.79 49.93 43.92 52.23 42.27 57.55   Q 41.57 59.80 42.64 65.45   Q 49.25 100.20 55.98 134.98   Q 39.62 127.04 31.03 112.52   C 15.39 86.05 23.36 52.12 49.50 35.65   C 72.24 21.32 102.01 25.28 120.47 44.58   C 128.86 53.35 135.21 66.26 135.55 78.89   Z" fill="#fdedec"/>
<path class="icon-shape" d="   M 116.38 126.39   Q 122.88 126.42 136.75 125.95   Q 139.54 125.86 142.56 126.86   C 149.81 129.27 153.03 135.42 150.78 143.12   Q 148.82 149.83 146.57 154.91   Q 144.00 160.72 138.61 162.98   Q 135.67 164.21 127.21 164.19   Q 101.10 164.11 74.73 164.11   Q 70.74 164.11 65.83 160.42   Q 60.07 156.10 58.54 148.05   C 57.70 143.68 56.73 139.36 55.98 134.98   Q 49.25 100.20 42.64 65.45   Q 41.57 59.80 42.27 57.55   C 43.92 52.23 48.79 49.93 54.50 49.74   Q 65.52 49.37 68.27 59.78   Q 70.23 67.24 69.89 73.24   Q 69.67 77.17 67.85 79.85   Q 66.33 82.09 66.21 82.35   A 0.60 0.60 0.0 0 0 66.53 83.14   C 73.58 86.12 75.87 92.78 78.44 99.54   Q 83.76 113.47 87.06 127.54   A 1.07 1.06 -10.8 0 0 88.26 128.35   Q 102.29 126.28 116.38 126.39   Z   M 51.31 81.31   L 59.03 81.31   A 0.96 0.93 28.9 0 0 59.51 81.18   C 66.95 76.80 65.01 70.51 63.87 62.80   C 63.34 59.21 61.73 56.09 58.43 55.09   C 54.78 53.98 46.47 54.88 46.86 60.64   Q 46.90 61.27 50.68 80.79   A 0.64 0.64 0.0 0 0 51.31 81.31   Z   M 51.86 87.37   Q 58.10 119.53 61.59 138.21   C 63.96 150.88 65.26 159.58 79.72 159.43   Q 88.48 159.34 127.94 159.44   C 135.52 159.46 139.99 158.37 142.75 151.03   Q 145.90 142.67 146.55 140.08   C 147.81 135.11 142.88 131.26 138.37 131.19   Q 116.50 130.83 100.36 131.92   C 98.27 132.06 96.96 132.51 95.03 132.46   C 92.84 132.41 88.95 133.08 86.92 133.64   C 85.22 134.11 83.42 133.61 83.05 132.00   Q 79.48 116.55 73.65 100.93   C 71.32 94.67 69.16 88.78 62.39 86.82   Q 61.21 86.47 52.42 86.67   A 0.59 0.59 0.0 0 0 51.86 87.37   Z" fill="#010101"/>
<path class="icon-shape" d="   M 50.68 80.79   Q 46.90 61.27 46.86 60.64   C 46.47 54.88 54.78 53.98 58.43 55.09   C 61.73 56.09 63.34 59.21 63.87 62.80   C 65.01 70.51 66.95 76.80 59.51 81.18   A 0.96 0.93 28.9 0 1 59.03 81.31   L 51.31 81.31   A 0.64 0.64 0.0 0 1 50.68 80.79   Z" fill="#ffffff"/>
<path class="icon-shape" d="   M 135.55 78.89   Q 142.47 80.45 148.36 77.07   Q 150.38 75.91 152.47 74.79   A 1.52 1.48 35.4 0 1 153.50 74.63   C 155.17 74.94 156.76 76.64 155.61 78.45   Q 155.14 79.18 153.67 80.13   Q 145.27 85.59 135.98 84.24   Q 132.20 83.20 122.22 79.01   Q 116.59 76.64 108.58 78.44   A 3.97 3.77 -63.6 0 0 107.62 78.79   L 103.00 81.15   A 2.26 2.25 64.2 0 1 99.91 80.07   L 99.87 79.99   A 2.55 2.54 -28.8 0 1 100.80 76.79   Q 104.99 74.07 107.27 73.52   Q 117.53 71.07 126.46 75.28   Q 131.68 77.75 135.55 78.89   Z" fill="#010101"/>
<path class="icon-shape" d="   M 52.42 86.67   Q 61.21 86.47 62.39 86.82   C 69.16 88.78 71.32 94.67 73.65 100.93   Q 79.48 116.55 83.05 132.00   C 83.42 133.61 85.22 134.11 86.92 133.64   C 88.95 133.08 92.84 132.41 95.03 132.46   C 96.96 132.51 98.27 132.06 100.36 131.92   Q 116.50 130.83 138.37 131.19   C 142.88 131.26 147.81 135.11 146.55 140.08   Q 145.90 142.67 142.75 151.03   C 139.99 158.37 135.52 159.46 127.94 159.44   Q 88.48 159.34 79.72 159.43   C 65.26 159.58 63.96 150.88 61.59 138.21   Q 58.10 119.53 51.86 87.37   A 0.59 0.59 0.0 0 1 52.42 86.67   Z" fill="#ffffff"/>
<path class="icon-shape" d="   M 134.49 95.10   C 141.24 97.37 146.43 95.16 152.07 91.53   A 2.39 2.39 0.0 0 1 155.44 92.34   L 155.70 92.79   A 1.99 1.99 0.0 0 1 155.25 95.31   Q 145.68 103.33 133.50 100.22   Q 127.30 97.66 121.06 95.30   Q 114.07 92.66 107.97 94.95   Q 106.82 95.39 103.21 97.41   A 2.30 2.29 -31.6 0 1 100.18 96.69   L 100.01 96.44   A 2.37 2.36 -34.1 0 1 100.65 93.15   Q 105.10 90.15 108.06 89.55   Q 117.08 87.71 124.89 91.11   Q 131.35 93.92 134.49 95.10   Z" fill="#010101"/>
<path class="icon-shape" d="   M 129.79 109.12   Q 141.75 115.39 151.55 107.81   A 2.85 2.84 -41.1 0 1 155.32 108.06   L 155.38 108.13   A 2.31 2.31 0.0 0 1 155.10 111.61   Q 146.05 118.25 137.51 116.96   Q 132.63 116.22 126.86 113.52   C 120.76 110.29 115.09 108.51 108.46 110.70   Q 107.20 111.12 103.15 113.42   A 2.22 2.21 -27.3 0 1 100.04 112.43   L 99.99 112.32   A 2.72 2.72 0.0 0 1 100.99 108.89   Q 110.34 102.89 120.32 105.42   Q 122.90 106.07 129.79 109.12   Z" fill="#010101"/>
</g></svg>