<?xml version="1.0" encoding="UTF-8" standalone="no"?>
<!DOCTYPE svg PUBLIC "-//W3C//DTD SVG 1.1//EN" "http://www.w3.org/Graphics/SVG/1.1/DTD/svg11.dtd">
<svg xmlns="http://www.w3.org/2000/svg" version="1.1" viewBox="0.00 0.00 229.00 204.00">
<g stroke-width="2.00" fill="none" stroke-linecap="butt">
<path stroke="#808080" vector-effect="non-scaling-stroke" d="
  M 39.70 134.30
  Q 43.28 139.06 46.50 142.49
  Q 48.74 144.87 50.76 142.62
  A 1.42 1.42 0.0 0 0 51.12 141.73
  Q 51.22 139.68 49.04 138.19"
/>
<path stroke="#fef6f6" vector-effect="non-scaling-stroke" d="
  M 49.04 138.19
  C 61.30 139.29 73.69 139.48 84.28 133.29"
/>
<path stroke="#808080" vector-effect="non-scaling-stroke" d="
  M 84.28 133.29
  C 84.25 139.10 83.63 145.95 85.37 151.07
  Q 89.73 163.92 103.71 167.10
  A 5.59 5.26 -37.3 0 0 104.85 167.22
  Q 120.66 167.12 130.52 167.25
  Q 137.67 167.34 141.54 165.81
  C 150.36 162.32 155.97 154.20 156.06 144.50
  Q 156.07 144.24 156.02 88.23
  A 0.24 0.24 0.0 0 1 156.33 88.00
  L 161.23 89.53
  A 2.12 2.11 17.3 0 0 163.87 88.15
  L 163.88 88.13
  A 2.34 2.34 0.0 0 0 162.37 85.15
  L 156.56 83.29
  A 0.82 0.82 0.0 0 1 156.00 82.50
  Q 156.10 77.66 156.05 59.75
  C 156.02 49.23 148.03 40.44 137.74 38.82
  C 130.57 37.70 122.21 38.10 107.25 38.19
  Q 103.17 38.21 97.98 40.06"
/>
<path stroke="#fef6f6" vector-effect="non-scaling-stroke" d="
  M 97.98 40.06
  C 82.35 26.83 61.77 22.59 42.46 28.98
  C 13.92 38.43 -1.69 68.68 6.06 97.51
  Q 10.35 113.51 23.76 125.49
  Q 31.06 132.01 39.70 134.30"
/>
<path stroke="#7f7777" vector-effect="non-scaling-stroke" d="
  M 97.98 40.06
  Q 88.85 44.01 85.70 52.53
  Q 84.04 57.03 84.21 65.14
  Q 84.39 73.51 84.30 82.86
  A 0.80 0.79 -9.2 0 1 83.75 83.61
  L 78.37 85.39
  A 1.90 1.89 -18.4 0 0 77.17 87.78
  L 77.32 88.24
  A 2.03 2.03 0.0 0 0 79.89 89.53
  L 83.87 88.21
  A 0.31 0.31 0.0 0 1 84.28 88.51
  L 84.28 133.29"
/>
<path stroke="#7f7777" vector-effect="non-scaling-stroke" d="
  M 49.04 138.19
  C 36.08 124.03 32.19 104.05 36.85 85.53
  Q 40.36 71.58 50.35 61.60
  A 2.21 2.20 -47.7 0 0 50.20 58.35
  L 50.07 58.24
  A 2.54 2.53 -48.3 0 0 46.61 58.45
  Q 36.15 69.52 32.47 83.71
  Q 25.69 109.88 39.70 134.30"
/>
<path stroke="#7f7777" vector-effect="non-scaling-stroke" d="
  M 45.92 100.43
  C 45.91 112.22 50.14 122.70 58.55 131.20
  A 2.56 2.55 48.9 0 0 61.91 131.43
  L 62.07 131.30
  A 2.00 2.00 0.0 0 0 62.26 128.29
  C 54.64 120.74 50.54 111.26 50.55 100.43
  C 50.55 89.61 54.66 80.13 62.30 72.59
  A 2.00 2.00 0.0 0 0 62.11 69.58
  L 61.95 69.45
  A 2.56 2.55 -48.8 0 0 58.58 69.68
  C 50.17 78.17 45.92 88.64 45.92 100.43"
/>
<path stroke="#7f7777" vector-effect="non-scaling-stroke" d="
  M 61.22 100.82
  Q 61.21 111.66 68.24 120.05
  C 70.26 122.47 71.89 123.38 73.84 120.27
  A 0.82 0.81 40.0 0 0 73.75 119.27
  C 68.78 113.98 65.95 108.37 65.95 100.82
  C 65.96 93.28 68.79 87.67 73.77 82.38
  A 0.82 0.81 -39.9 0 0 73.86 81.39
  C 71.91 78.27 70.28 79.18 68.26 81.60
  Q 61.22 89.98 61.22 100.82"
/>
<path stroke="#808080" vector-effect="non-scaling-stroke" d="
  M 120.35 43.44
  Q 108.37 43.44 107.63 43.51
  A 0.75 0.74 1.8 0 0 106.96 44.13
  C 106.62 46.15 106.71 48.22 105.99 50.41
  C 103.65 57.49 97.44 61.94 89.93 62.71
  A 0.59 0.57 -3.4 0 0 89.41 63.28
  L 89.41 81.40
  A 0.37 0.37 0.0 0 0 89.90 81.75
  L 91.95 81.07
  A 0.49 0.47 85.4 0 0 92.28 80.67
  C 93.26 73.56 102.99 70.47 109.02 70.13
  Q 117.46 69.66 120.35 69.66
  Q 123.25 69.66 131.68 70.13
  C 137.72 70.47 147.45 73.55 148.43 80.66
  A 0.49 0.47 -85.4 0 0 148.76 81.06
  L 150.81 81.74
  A 0.37 0.37 0.0 0 0 151.30 81.39
  L 151.30 63.27
  A 0.59 0.57 3.4 0 0 150.78 62.70
  C 143.27 61.94 137.06 57.49 134.71 50.41
  C 133.99 48.22 134.08 46.15 133.74 44.13
  A 0.75 0.74 -1.8 0 0 133.07 43.50
  Q 132.34 43.44 120.35 43.44"
/>
<path stroke="#808080" vector-effect="non-scaling-stroke" d="
  M 93.95 49.12
  Q 90.94 52.29 89.44 57.16
  A 0.36 0.36 0.0 0 0 89.82 57.63
  Q 95.62 57.04 98.78 53.70
  Q 101.95 50.36 102.22 44.55
  A 0.36 0.36 0.0 0 0 101.73 44.19
  Q 96.96 45.95 93.95 49.12"
/>
<path stroke="#808080" vector-effect="non-scaling-stroke" d="
  M 146.73 49.20
  Q 143.76 46.02 139.02 44.24
  A 0.36 0.36 0.0 0 0 138.53 44.60
  Q 138.77 50.39 141.90 53.73
  Q 145.03 57.07 150.79 57.69
  A 0.36 0.36 0.0 0 0 151.18 57.22
  Q 149.71 52.37 146.73 49.20"
/>
<path stroke="#808080" vector-effect="non-scaling-stroke" d="
  M 115.70 95.98
  Q 126.48 95.60 131.13 96.43
  Q 135.64 97.23 140.43 97.72
  A 1.43 1.42 -81.6 0 0 141.97 96.57
  Q 143.33 89.60 143.94 83.62
  C 144.43 78.79 139.52 76.65 135.56 75.94
  Q 126.12 74.24 116.53 74.79"
/>
<path stroke="#7f7777" vector-effect="non-scaling-stroke" d="
  M 116.53 74.79
  C 110.21 74.58 101.65 75.19 97.26 80.31
  A 1.40 1.40 0.0 0 0 96.92 81.17
  Q 96.64 89.54 98.75 97.04
  A 1.01 1.01 0.0 0 0 99.84 97.77
  L 115.70 95.98"
/>
<path stroke="#fef6f6" vector-effect="non-scaling-stroke" d="
  M 116.53 74.79
  Q 117.50 85.36 115.70 95.98"
/>
<path stroke="#808080" vector-effect="non-scaling-stroke" d="
  M 120.37 158.96
  C 111.33 158.97 95.69 159.22 93.11 147.92
  Q 92.85 146.75 93.81 140.12
  Q 94.37 136.27 94.34 132.25
  Q 94.18 105.67 94.05 99.06
  A 7.59 7.58 -53.1 0 0 93.80 97.29
  Q 92.33 91.68 92.28 86.50
  A 0.29 0.29 0.0 0 0 91.90 86.23
  L 89.54 87.01
  A 0.32 0.31 -8.9 0 0 89.32 87.31
  L 89.43 146.15
  A 4.05 3.66 42.1 0 0 89.51 146.93
  Q 92.03 158.82 104.08 161.98
  A 3.60 3.39 51.0 0 0 104.93 162.09
  Q 107.94 162.16 120.38 162.14
  Q 132.82 162.12 135.83 162.05
  A 3.60 3.39 -51.2 0 0 136.68 161.93
  Q 148.72 158.74 151.20 146.84
  A 4.05 3.66 -42.2 0 0 151.28 146.06
  L 151.23 87.22
  A 0.32 0.31 8.7 0 0 151.01 86.92
  L 148.64 86.15
  A 0.29 0.29 0.0 0 0 148.27 86.42
  Q 148.23 91.60 146.78 97.22
  A 7.59 7.58 52.9 0 0 146.53 98.99
  Q 146.42 105.60 146.33 132.18
  Q 146.31 136.20 146.88 140.05
  Q 147.86 146.67 147.60 147.85
  C 145.06 159.15 129.42 158.95 120.37 158.96"
/>
<path stroke="#808080" vector-effect="non-scaling-stroke" d="
  M 120.31 136.19
  C 127.47 136.19 134.04 135.46 140.86 133.14
  A 0.92 0.91 80.8 0 0 141.48 132.27
  L 141.48 103.30
  A 0.57 0.57 0.0 0 0 141.02 102.74
  Q 130.89 100.84 120.30 100.84
  Q 109.70 100.84 99.58 102.75
  A 0.57 0.57 0.0 0 0 99.11 103.31
  L 99.13 132.28
  A 0.92 0.91 -80.8 0 0 99.75 133.15
  C 106.57 135.47 113.14 136.19 120.31 136.19"
/>
<path stroke="#808080" vector-effect="non-scaling-stroke" d="
  M 120.33 141.09
  C 113.05 141.12 106.32 140.46 99.55 138.37
  A 0.54 0.54 0.0 0 0 98.85 138.82
  Q 98.34 143.44 98.09 145.78
  C 97.43 152.06 105.96 152.88 110.01 153.71
  C 113.21 154.37 117.04 154.11 120.38 154.10
  C 123.71 154.09 127.54 154.32 130.74 153.64
  C 134.78 152.78 143.31 151.90 142.60 145.62
  Q 142.34 143.28 141.79 138.67
  A 0.54 0.54 0.0 0 0 141.09 138.22
  C 134.33 140.36 127.61 141.07 120.33 141.09"
/>
</g>
<path fill="#ffffff" d="
  M 229.00 0.00
  L 229.00 204.00
  L 0.00 204.00
  L 0.00 0.00
  L 229.00 0.00
  Z
  M 39.70 134.30
  Q 43.28 139.06 46.50 142.49
  Q 48.74 144.87 50.76 142.62
  A 1.42 1.42 0.0 0 0 51.12 141.73
  Q 51.22 139.68 49.04 138.19
  C 61.30 139.29 73.69 139.48 84.28 133.29
  C 84.25 139.10 83.63 145.95 85.37 151.07
  Q 89.73 163.92 103.71 167.10
  A 5.59 5.26 -37.3 0 0 104.85 167.22
  Q 120.66 167.12 130.52 167.25
  Q 137.67 167.34 141.54 165.81
  C 150.36 162.32 155.97 154.20 156.06 144.50
  Q 156.07 144.24 156.02 88.23
  A 0.24 0.24 0.0 0 1 156.33 88.00
  L 161.23 89.53
  A 2.12 2.11 17.3 0 0 163.87 88.15
  L 163.88 88.13
  A 2.34 2.34 0.0 0 0 162.37 85.15
  L 156.56 83.29
  A 0.82 0.82 0.0 0 1 156.00 82.50
  Q 156.10 77.66 156.05 59.75
  C 156.02 49.23 148.03 40.44 137.74 38.82
  C 130.57 37.70 122.21 38.10 107.25 38.19
  Q 103.17 38.21 97.98 40.06
  C 82.35 26.83 61.77 22.59 42.46 28.98
  C 13.92 38.43 -1.69 68.68 6.06 97.51
  Q 10.35 113.51 23.76 125.49
  Q 31.06 132.01 39.70 134.30
  Z"
/>
<path fill="#fdedec" d="
  M 97.98 40.06
  Q 88.85 44.01 85.70 52.53
  Q 84.04 57.03 84.21 65.14
  Q 84.39 73.51 84.30 82.86
  A 0.80 0.79 -9.2 0 1 83.75 83.61
  L 78.37 85.39
  A 1.90 1.89 -18.4 0 0 77.17 87.78
  L 77.32 88.24
  A 2.03 2.03 0.0 0 0 79.89 89.53
  L 83.87 88.21
  A 0.31 0.31 0.0 0 1 84.28 88.51
  L 84.28 133.29
  C 73.69 139.48 61.30 139.29 49.04 138.19
  C 36.08 124.03 32.19 104.05 36.85 85.53
  Q 40.36 71.58 50.35 61.60
  A 2.21 2.20 -47.7 0 0 50.20 58.35
  L 50.07 58.24
  A 2.54 2.53 -48.3 0 0 46.61 58.45
  Q 36.15 69.52 32.47 83.71
  Q 25.69 109.88 39.70 134.30
  Q 31.06 132.01 23.76 125.49
  Q 10.35 113.51 6.06 97.51
  C -1.69 68.68 13.92 38.43 42.46 28.98
  C 61.77 22.59 82.35 26.83 97.98 40.06
  Z
  M 45.92 100.43
  C 45.91 112.22 50.14 122.70 58.55 131.20
  A 2.56 2.55 48.9 0 0 61.91 131.43
  L 62.07 131.30
  A 2.00 2.00 0.0 0 0 62.26 128.29
  C 54.64 120.74 50.54 111.26 50.55 100.43
  C 50.55 89.61 54.66 80.13 62.30 72.59
  A 2.00 2.00 0.0 0 0 62.11 69.58
  L 61.95 69.45
  A 2.56 2.55 -48.8 0 0 58.58 69.68
  C 50.17 78.17 45.92 88.64 45.92 100.43
  Z
  M 61.22 100.82
  Q 61.21 111.66 68.24 120.05
  C 70.26 122.47 71.89 123.38 73.84 120.27
  A 0.82 0.81 40.0 0 0 73.75 119.27
  C 68.78 113.98 65.95 108.37 65.95 100.82
  C 65.96 93.28 68.79 87.67 73.77 82.38
  A 0.82 0.81 -39.9 0 0 73.86 81.39
  C 71.91 78.27 70.28 79.18 68.26 81.60
  Q 61.22 89.98 61.22 100.82
  Z"
/>
<path fill="#010101" d="
  M 84.28 133.29
  L 84.28 88.51
  A 0.31 0.31 0.0 0 0 83.87 88.21
  L 79.89 89.53
  A 2.03 2.03 0.0 0 1 77.32 88.24
  L 77.17 87.78
  A 1.90 1.89 -18.4 0 1 78.37 85.39
  L 83.75 83.61
  A 0.80 0.79 -9.2 0 0 84.30 82.86
  Q 84.39 73.51 84.21 65.14
  Q 84.04 57.03 85.70 52.53
  Q 88.85 44.01 97.98 40.06
  Q 103.17 38.21 107.25 38.19
  C 122.21 38.10 130.57 37.70 137.74 38.82
  C 148.03 40.44 156.02 49.23 156.05 59.75
  Q 156.10 77.66 156.00 82.50
  A 0.82 0.82 0.0 0 0 156.56 83.29
  L 162.37 85.15
  A 2.34 2.34 0.0 0 1 163.88 88.13
  L 163.87 88.15
  A 2.12 2.11 17.3 0 1 161.23 89.53
  L 156.33 88.00
  A 0.24 0.24 0.0 0 0 156.02 88.23
  Q 156.07 144.24 156.06 144.50
  C 155.97 154.20 150.36 162.32 141.54 165.81
  Q 137.67 167.34 130.52 167.25
  Q 120.66 167.12 104.85 167.22
  A 5.59 5.26 -37.3 0 1 103.71 167.10
  Q 89.73 163.92 85.37 151.07
  C 83.63 145.95 84.25 139.10 84.28 133.29
  Z
  M 120.35 43.44
  Q 108.37 43.44 107.63 43.51
  A 0.75 0.74 1.8 0 0 106.96 44.13
  C 106.62 46.15 106.71 48.22 105.99 50.41
  C 103.65 57.49 97.44 61.94 89.93 62.71
  A 0.59 0.57 -3.4 0 0 89.41 63.28
  L 89.41 81.40
  A 0.37 0.37 0.0 0 0 89.90 81.75
  L 91.95 81.07
  A 0.49 0.47 85.4 0 0 92.28 80.67
  C 93.26 73.56 102.99 70.47 109.02 70.13
  Q 117.46 69.66 120.35 69.66
  Q 123.25 69.66 131.68 70.13
  C 137.72 70.47 147.45 73.55 148.43 80.66
  A 0.49 0.47 -85.4 0 0 148.76 81.06
  L 150.81 81.74
  A 0.37 0.37 0.0 0 0 151.30 81.39
  L 151.30 63.27
  A 0.59 0.57 3.4 0 0 150.78 62.70
  C 143.27 61.94 137.06 57.49 134.71 50.41
  C 133.99 48.22 134.08 46.15 133.74 44.13
  A 0.75 0.74 -1.8 0 0 133.07 43.50
  Q 132.34 43.44 120.35 43.44
  Z
  M 93.95 49.12
  Q 90.94 52.29 89.44 57.16
  A 0.36 0.36 0.0 0 0 89.82 57.63
  Q 95.62 57.04 98.78 53.70
  Q 101.95 50.36 102.22 44.55
  A 0.36 0.36 0.0 0 0 101.73 44.19
  Q 96.96 45.95 93.95 49.12
  Z
  M 146.73 49.20
  Q 143.76 46.02 139.02 44.24
  A 0.36 0.36 0.0 0 0 138.53 44.60
  Q 138.77 50.39 141.90 53.73
  Q 145.03 57.07 150.79 57.69
  A 0.36 0.36 0.0 0 0 151.18 57.22
  Q 149.71 52.37 146.73 49.20
  Z
  M 115.70 95.98
  Q 126.48 95.60 131.13 96.43
  Q 135.64 97.23 140.43 97.72
  A 1.43 1.42 -81.6 0 0 141.97 96.57
  Q 143.33 89.60 143.94 83.62
  C 144.43 78.79 139.52 76.65 135.56 75.94
  Q 126.12 74.24 116.53 74.79
  C 110.21 74.58 101.65 75.19 97.26 80.31
  A 1.40 1.40 0.0 0 0 96.92 81.17
  Q 96.64 89.54 98.75 97.04
  A 1.01 1.01 0.0 0 0 99.84 97.77
  L 115.70 95.98
  Z
  M 120.37 158.96
  C 111.33 158.97 95.69 159.22 93.11 147.92
  Q 92.85 146.75 93.81 140.12
  Q 94.37 136.27 94.34 132.25
  Q 94.18 105.67 94.05 99.06
  A 7.59 7.58 -53.1 0 0 93.80 97.29
  Q 92.33 91.68 92.28 86.50
  A 0.29 0.29 0.0 0 0 91.90 86.23
  L 89.54 87.01
  A 0.32 0.31 -8.9 0 0 89.32 87.31
  L 89.43 146.15
  A 4.05 3.66 42.1 0 0 89.51 146.93
  Q 92.03 158.82 104.08 161.98
  A 3.60 3.39 51.0 0 0 104.93 162.09
  Q 107.94 162.16 120.38 162.14
  Q 132.82 162.12 135.83 162.05
  A 3.60 3.39 -51.2 0 0 136.68 161.93
  Q 148.72 158.74 151.20 146.84
  A 4.05 3.66 -42.2 0 0 151.28 146.06
  L 151.23 87.22
  A 0.32 0.31 8.7 0 0 151.01 86.92
  L 148.64 86.15
  A 0.29 0.29 0.0 0 0 148.27 86.42
  Q 148.23 91.60 146.78 97.22
  A 7.59 7.58 52.9 0 0 146.53 98.99
  Q 146.42 105.60 146.33 132.18
  Q 146.31 136.20 146.88 140.05
  Q 147.86 146.67 147.60 147.85
  C 145.06 159.15 129.42 158.95 120.37 158.96
  Z
  M 120.31 136.19
  C 127.47 136.19 134.04 135.46 140.86 133.14
  A 0.92 0.91 80.8 0 0 141.48 132.27
  L 141.48 103.30
  A 0.57 0.57 0.0 0 0 141.02 102.74
  Q 130.89 100.84 120.30 100.84
  Q 109.70 100.84 99.58 102.75
  A 0.57 0.57 0.0 0 0 99.11 103.31
  L 99.13 132.28
  A 0.92 0.91 -80.8 0 0 99.75 133.15
  C 106.57 135.47 113.14 136.19 120.31 136.19
  Z
  M 120.33 141.09
  C 113.05 141.12 106.32 140.46 99.55 138.37
  A 0.54 0.54 0.0 0 0 98.85 138.82
  Q 98.34 143.44 98.09 145.78
  C 97.43 152.06 105.96 152.88 110.01 153.71
  C 113.21 154.37 117.04 154.11 120.38 154.10
  C 123.71 154.09 127.54 154.32 130.74 153.64
  C 134.78 152.78 143.31 151.90 142.60 145.62
  Q 142.34 143.28 141.79 138.67
  A 0.54 0.54 0.0 0 0 141.09 138.22
  C 134.33 140.36 127.61 141.07 120.33 141.09
  Z"
/>
<path fill="#ffffff" d="
  M 120.35 69.66
  Q 117.46 69.66 109.02 70.13
  C 102.99 70.47 93.26 73.56 92.28 80.67
  A 0.49 0.47 85.4 0 1 91.95 81.07
  L 89.90 81.75
  A 0.37 0.37 0.0 0 1 89.41 81.40
  L 89.41 63.28
  A 0.59 0.57 -3.4 0 1 89.93 62.71
  C 97.44 61.94 103.65 57.49 105.99 50.41
  C 106.71 48.22 106.62 46.15 106.96 44.13
  A 0.75 0.74 1.8 0 1 107.63 43.51
  Q 108.37 43.44 120.35 43.44
  Q 132.34 43.44 133.07 43.50
  A 0.75 0.74 -1.8 0 1 133.74 44.13
  C 134.08 46.15 133.99 48.22 134.71 50.41
  C 137.06 57.49 143.27 61.94 150.78 62.70
  A 0.59 0.57 3.4 0 1 151.30 63.27
  L 151.30 81.39
  A 0.37 0.37 0.0 0 1 150.81 81.74
  L 148.76 81.06
  A 0.49 0.47 -85.4 0 1 148.43 80.66
  C 147.45 73.55 137.72 70.47 131.68 70.13
  Q 123.25 69.66 120.35 69.66
  Z"
/>
<path fill="#ffffff" d="
  M 98.78 53.70
  Q 95.62 57.04 89.82 57.63
  A 0.36 0.36 0.0 0 1 89.44 57.16
  Q 90.94 52.29 93.95 49.12
  Q 96.96 45.95 101.73 44.19
  A 0.36 0.36 0.0 0 1 102.22 44.55
  Q 101.95 50.36 98.78 53.70
  Z"
/>
<path fill="#ffffff" d="
  M 146.73 49.20
  Q 149.71 52.37 151.18 57.22
  A 0.36 0.36 0.0 0 1 150.79 57.69
  Q 145.03 57.07 141.90 53.73
  Q 138.77 50.39 138.53 44.60
  A 0.36 0.36 0.0 0 1 139.02 44.24
  Q 143.76 46.02 146.73 49.20
  Z"
/>
<path fill="#010101" d="
  M 49.04 138.19
  Q 51.22 139.68 51.12 141.73
  A 1.42 1.42 0.0 0 1 50.76 142.62
  Q 48.74 144.87 46.50 142.49
  Q 43.28 139.06 39.70 134.30
  Q 25.69 109.88 32.47 83.71
  Q 36.15 69.52 46.61 58.45
  A 2.54 2.53 -48.3 0 1 50.07 58.24
  L 50.20 58.35
  A 2.21 2.20 -47.7 0 1 50.35 61.60
  Q 40.36 71.58 36.85 85.53
  C 32.19 104.05 36.08 124.03 49.04 138.19
  Z"
/>
<path fill="#010101" d="
  M 50.55 100.43
  C 50.54 111.26 54.64 120.74 62.26 128.29
  A 2.00 2.00 0.0 0 1 62.07 131.30
  L 61.91 131.43
  A 2.56 2.55 48.9 0 1 58.55 131.20
  C 50.14 122.70 45.91 112.22 45.92 100.43
  C 45.92 88.64 50.17 78.17 58.58 69.68
  A 2.56 2.55 -48.8 0 1 61.95 69.45
  L 62.11 69.58
  A 2.00 2.00 0.0 0 1 62.30 72.59
  C 54.66 80.13 50.55 89.61 50.55 100.43
  Z"
/>
<path fill="#fdedec" d="
  M 116.53 74.79
  Q 117.50 85.36 115.70 95.98
  L 99.84 97.77
  A 1.01 1.01 0.0 0 1 98.75 97.04
  Q 96.64 89.54 96.92 81.17
  A 1.40 1.40 0.0 0 1 97.26 80.31
  C 101.65 75.19 110.21 74.58 116.53 74.79
  Z"
/>
<path fill="#ffffff" d="
  M 115.70 95.98
  Q 117.50 85.36 116.53 74.79
  Q 126.12 74.24 135.56 75.94
  C 139.52 76.65 144.43 78.79 143.94 83.62
  Q 143.33 89.60 141.97 96.57
  A 1.43 1.42 -81.6 0 1 140.43 97.72
  Q 135.64 97.23 131.13 96.43
  Q 126.48 95.60 115.70 95.98
  Z"
/>
<path fill="#010101" d="
  M 65.95 100.82
  C 65.95 108.37 68.78 113.98 73.75 119.27
  A 0.82 0.81 40.0 0 1 73.84 120.27
  C 71.89 123.38 70.26 122.47 68.24 120.05
  Q 61.21 111.66 61.22 100.82
  Q 61.22 89.98 68.26 81.60
  C 70.28 79.18 71.91 78.27 73.86 81.39
  A 0.82 0.81 -39.9 0 1 73.77 82.38
  C 68.79 87.67 65.96 93.28 65.95 100.82
  Z"
/>
<path fill="#ffffff" d="
  M 120.38 162.14
  Q 107.94 162.16 104.93 162.09
  A 3.60 3.39 51.0 0 1 104.08 161.98
  Q 92.03 158.82 89.51 146.93
  A 4.05 3.66 42.1 0 1 89.43 146.15
  L 89.32 87.31
  A 0.32 0.31 -8.9 0 1 89.54 87.01
  L 91.90 86.23
  A 0.29 0.29 0.0 0 1 92.28 86.50
  Q 92.33 91.68 93.80 97.29
  A 7.59 7.58 -53.1 0 1 94.05 99.06
  Q 94.18 105.67 94.34 132.25
  Q 94.37 136.27 93.81 140.12
  Q 92.85 146.75 93.11 147.92
  C 95.69 159.22 111.33 158.97 120.37 158.96
  C 129.42 158.95 145.06 159.15 147.60 147.85
  Q 147.86 146.67 146.88 140.05
  Q 146.31 136.20 146.33 132.18
  Q 146.42 105.60 146.53 98.99
  A 7.59 7.58 52.9 0 1 146.78 97.22
  Q 148.23 91.60 148.27 86.42
  A 0.29 0.29 0.0 0 1 148.64 86.15
  L 151.01 86.92
  A 0.32 0.31 8.7 0 1 151.23 87.22
  L 151.28 146.06
  A 4.05 3.66 -42.2 0 1 151.20 146.84
  Q 148.72 158.74 136.68 161.93
  A 3.60 3.39 -51.2 0 1 135.83 162.05
  Q 132.82 162.12 120.38 162.14
  Z"
/>
<path fill="#ffffff" d="
  M 120.30 100.84
  Q 130.89 100.84 141.02 102.74
  A 0.57 0.57 0.0 0 1 141.48 103.30
  L 141.48 132.27
  A 0.92 0.91 80.8 0 1 140.86 133.14
  C 134.04 135.46 127.47 136.19 120.31 136.19
  C 113.14 136.19 106.57 135.47 99.75 133.15
  A 0.92 0.91 -80.8 0 1 99.13 132.28
  L 99.11 103.31
  A 0.57 0.57 0.0 0 1 99.58 102.75
  Q 109.70 100.84 120.30 100.84
  Z"
/>
<path fill="#ffffff" d="
  M 120.38 154.10
  C 117.04 154.11 113.21 154.37 110.01 153.71
  C 105.96 152.88 97.43 152.06 98.09 145.78
  Q 98.34 143.44 98.85 138.82
  A 0.54 0.54 0.0 0 1 99.55 138.37
  C 106.32 140.46 113.05 141.12 120.33 141.09
  C 127.61 141.07 134.33 140.36 141.09 138.22
  A 0.54 0.54 0.0 0 1 141.79 138.67
  Q 142.34 143.28 142.60 145.62
  C 143.31 151.90 134.78 152.78 130.74 153.64
  C 127.54 154.32 123.71 154.09 120.38 154.10
  Z"
/>
</svg>
