<?xml version="1.0" encoding="UTF-8" standalone="no"?>
<!DOCTYPE svg PUBLIC "-//W3C//DTD SVG 1.1//EN" "http://www.w3.org/Graphics/SVG/1.1/DTD/svg11.dtd">
<svg xmlns="http://www.w3.org/2000/svg" version="1.1" viewBox="0.00 0.00 229.00 204.00">
<g stroke-width="2.00" fill="none" stroke-linecap="butt">
<path stroke="#d9d7d9" vector-effect="non-scaling-stroke" d="
  M 134.00 130.75
  Q 136.84 139.97 145.27 142.14
  C 153.89 144.36 161.64 139.52 164.14 131.04
  A 0.72 0.72 0.0 0 1 164.83 130.52
  Q 170.93 130.52 171.86 130.57
  C 175.56 130.74 179.57 129.43 179.99 125.78
  Q 181.01 116.86 178.00 107.16
  C 176.35 101.83 172.40 97.83 167.23 96.57
  Q 159.87 94.77 148.91 93.12
  Q 143.29 92.27 139.02 88.50
  Q 133.65 83.74 120.34 72.72
  Q 112.08 65.88 103.25 65.90
  Q 72.94 65.98 42.22 65.92
  Q 35.09 65.90 32.44 72.84
  C 28.61 82.90 25.67 89.25 24.46 94.85
  A 9.96 8.03 -77.5 0 0 24.24 96.24
  Q 24.23 96.39 24.30 121.22
  Q 24.32 127.97 31.53 130.47
  A 1.30 1.29 -35.9 0 0 31.92 130.53
  L 40.56 130.53
  A 0.93 0.93 0.0 0 1 41.39 131.04
  Q 41.78 131.82 42.23 133.03
  C 45.35 141.47 55.39 144.97 63.40 140.96
  Q 69.44 137.93 71.34 131.10
  A 0.84 0.83 7.7 0 1 72.15 130.49
  L 133.65 130.49
  A 0.37 0.37 0.0 0 1 134.00 130.75"
/>
<path stroke="#d9d7d9" vector-effect="non-scaling-stroke" d="
  M 55.58 111.23
  Q 55.40 96.19 55.59 87.03
  Q 55.74 79.81 62.75 79.68
  Q 72.20 79.50 99.18 79.50
  Q 105.90 79.51 109.49 80.48
  C 118.48 82.92 125.64 89.60 130.16 97.58
  Q 131.21 99.43 131.21 100.38
  A 1.56 1.55 63.2 0 1 130.91 101.30
  Q 129.90 102.70 128.73 103.26
  A 2.09 2.01 -57.0 0 1 127.83 103.47
  L 95.86 103.47
  A 0.44 0.43 -0.0 0 0 95.42 103.90
  L 95.42 125.30
  A 0.58 0.57 -0.0 0 0 96.00 125.87
  L 132.93 125.87
  A 0.76 0.75 -84.4 0 0 133.67 125.26
  C 137.23 107.68 160.92 107.93 164.51 125.23
  A 0.67 0.66 84.1 0 0 165.16 125.76
  L 173.69 125.76
  A 1.45 1.45 0.0 0 0 175.14 124.41
  Q 175.65 116.83 173.26 108.55
  Q 171.45 102.31 164.52 100.95
  Q 155.72 99.23 152.07 98.70
  C 143.81 97.50 139.66 95.92 134.11 90.87
  Q 131.33 88.34 117.25 76.51
  C 111.79 71.92 107.42 70.84 99.80 70.85
  Q 75.57 70.86 42.77 70.82
  C 39.93 70.81 38.23 71.56 37.19 74.19
  Q 33.29 84.11 29.99 92.84
  A 11.80 11.76 55.8 0 0 29.22 96.92
  Q 29.10 109.90 29.25 120.96
  C 29.32 126.00 32.70 125.72 36.66 125.78
  Q 39.16 125.82 40.42 125.62
  A 0.81 0.80 1.6 0 0 41.07 125.01
  Q 43.60 113.89 54.91 112.03
  A 0.80 0.80 0.0 0 0 55.58 111.23"
/>
<path stroke="#d9d7d9" vector-effect="non-scaling-stroke" d="
  M 124.71 98.11
  C 120.64 92.01 113.89 85.93 106.41 84.88
  Q 103.57 84.48 95.85 84.55
  A 0.62 0.62 0.0 0 0 95.23 85.17
  L 95.23 98.10
  A 0.68 0.68 0.0 0 0 95.91 98.78
  L 124.35 98.78
  A 0.43 0.43 0.0 0 0 124.71 98.11"
/>
<path stroke="#d9d7d9" vector-effect="non-scaling-stroke" d="
  M 89.80 84.78
  L 61.68 84.78
  A 0.99 0.98 90.0 0 0 60.70 85.77
  L 60.70 111.97
  A 0.73 0.73 0.0 0 0 61.19 112.66
  Q 70.07 115.74 72.08 125.21
  A 0.72 0.71 -6.0 0 0 72.78 125.77
  L 89.81 125.77
  A 0.54 0.54 0.0 0 0 90.35 125.23
  L 90.35 85.34
  A 0.56 0.55 -90.0 0 0 89.80 84.78"
/>
<path stroke="#d9d7d9" vector-effect="non-scaling-stroke" d="
  M 66.7620 125.6241
  A 10.40 10.16 -10.0 0 0 54.7557 117.4244
  A 10.40 10.16 -10.0 0 0 46.2780 129.2359
  A 10.40 10.16 -10.0 0 0 58.2843 137.4356
  A 10.40 10.16 -10.0 0 0 66.7620 125.6241"
/>
<path stroke="#d9d7d9" vector-effect="non-scaling-stroke" d="
  M 138.8033 126.6707
  A 10.34 10.16 -175.4 0 0 148.2952 137.6273
  A 10.34 10.16 -175.4 0 0 159.4167 128.3293
  A 10.34 10.16 -175.4 0 0 149.9248 117.3727
  A 10.34 10.16 -175.4 0 0 138.8033 126.6707"
/>
</g>
<path fill="#ffffff" d="
  M 229.00 0.00
  L 229.00 204.00
  L 0.00 204.00
  L 0.00 0.00
  L 229.00 0.00
  Z
  M 134.00 130.75
  Q 136.84 139.97 145.27 142.14
  C 153.89 144.36 161.64 139.52 164.14 131.04
  A 0.72 0.72 0.0 0 1 164.83 130.52
  Q 170.93 130.52 171.86 130.57
  C 175.56 130.74 179.57 129.43 179.99 125.78
  Q 181.01 116.86 178.00 107.16
  C 176.35 101.83 172.40 97.83 167.23 96.57
  Q 159.87 94.77 148.91 93.12
  Q 143.29 92.27 139.02 88.50
  Q 133.65 83.74 120.34 72.72
  Q 112.08 65.88 103.25 65.90
  Q 72.94 65.98 42.22 65.92
  Q 35.09 65.90 32.44 72.84
  C 28.61 82.90 25.67 89.25 24.46 94.85
  A 9.96 8.03 -77.5 0 0 24.24 96.24
  Q 24.23 96.39 24.30 121.22
  Q 24.32 127.97 31.53 130.47
  A 1.30 1.29 -35.9 0 0 31.92 130.53
  L 40.56 130.53
  A 0.93 0.93 0.0 0 1 41.39 131.04
  Q 41.78 131.82 42.23 133.03
  C 45.35 141.47 55.39 144.97 63.40 140.96
  Q 69.44 137.93 71.34 131.10
  A 0.84 0.83 7.7 0 1 72.15 130.49
  L 133.65 130.49
  A 0.37 0.37 0.0 0 1 134.00 130.75
  Z"
/>
<path fill="#b2afb3" d="
  M 134.00 130.75
  A 0.37 0.37 0.0 0 0 133.65 130.49
  L 72.15 130.49
  A 0.84 0.83 7.7 0 0 71.34 131.10
  Q 69.44 137.93 63.40 140.96
  C 55.39 144.97 45.35 141.47 42.23 133.03
  Q 41.78 131.82 41.39 131.04
  A 0.93 0.93 0.0 0 0 40.56 130.53
  L 31.92 130.53
  A 1.30 1.29 -35.9 0 1 31.53 130.47
  Q 24.32 127.97 24.30 121.22
  Q 24.23 96.39 24.24 96.24
  A 9.96 8.03 -77.5 0 1 24.46 94.85
  C 25.67 89.25 28.61 82.90 32.44 72.84
  Q 35.09 65.90 42.22 65.92
  Q 72.94 65.98 103.25 65.90
  Q 112.08 65.88 120.34 72.72
  Q 133.65 83.74 139.02 88.50
  Q 143.29 92.27 148.91 93.12
  Q 159.87 94.77 167.23 96.57
  C 172.40 97.83 176.35 101.83 178.00 107.16
  Q 181.01 116.86 179.99 125.78
  C 179.57 129.43 175.56 130.74 171.86 130.57
  Q 170.93 130.52 164.83 130.52
  A 0.72 0.72 0.0 0 0 164.14 131.04
  C 161.64 139.52 153.89 144.36 145.27 142.14
  Q 136.84 139.97 134.00 130.75
  Z
  M 55.58 111.23
  Q 55.40 96.19 55.59 87.03
  Q 55.74 79.81 62.75 79.68
  Q 72.20 79.50 99.18 79.50
  Q 105.90 79.51 109.49 80.48
  C 118.48 82.92 125.64 89.60 130.16 97.58
  Q 131.21 99.43 131.21 100.38
  A 1.56 1.55 63.2 0 1 130.91 101.30
  Q 129.90 102.70 128.73 103.26
  A 2.09 2.01 -57.0 0 1 127.83 103.47
  L 95.86 103.47
  A 0.44 0.43 -0.0 0 0 95.42 103.90
  L 95.42 125.30
  A 0.58 0.57 -0.0 0 0 96.00 125.87
  L 132.93 125.87
  A 0.76 0.75 -84.4 0 0 133.67 125.26
  C 137.23 107.68 160.92 107.93 164.51 125.23
  A 0.67 0.66 84.1 0 0 165.16 125.76
  L 173.69 125.76
  A 1.45 1.45 0.0 0 0 175.14 124.41
  Q 175.65 116.83 173.26 108.55
  Q 171.45 102.31 164.52 100.95
  Q 155.72 99.23 152.07 98.70
  C 143.81 97.50 139.66 95.92 134.11 90.87
  Q 131.33 88.34 117.25 76.51
  C 111.79 71.92 107.42 70.84 99.80 70.85
  Q 75.57 70.86 42.77 70.82
  C 39.93 70.81 38.23 71.56 37.19 74.19
  Q 33.29 84.11 29.99 92.84
  A 11.80 11.76 55.8 0 0 29.22 96.92
  Q 29.10 109.90 29.25 120.96
  C 29.32 126.00 32.70 125.72 36.66 125.78
  Q 39.16 125.82 40.42 125.62
  A 0.81 0.80 1.6 0 0 41.07 125.01
  Q 43.60 113.89 54.91 112.03
  A 0.80 0.80 0.0 0 0 55.58 111.23
  Z
  M 124.71 98.11
  C 120.64 92.01 113.89 85.93 106.41 84.88
  Q 103.57 84.48 95.85 84.55
  A 0.62 0.62 0.0 0 0 95.23 85.17
  L 95.23 98.10
  A 0.68 0.68 0.0 0 0 95.91 98.78
  L 124.35 98.78
  A 0.43 0.43 0.0 0 0 124.71 98.11
  Z
  M 89.80 84.78
  L 61.68 84.78
  A 0.99 0.98 90.0 0 0 60.70 85.77
  L 60.70 111.97
  A 0.73 0.73 0.0 0 0 61.19 112.66
  Q 70.07 115.74 72.08 125.21
  A 0.72 0.71 -6.0 0 0 72.78 125.77
  L 89.81 125.77
  A 0.54 0.54 0.0 0 0 90.35 125.23
  L 90.35 85.34
  A 0.56 0.55 -90.0 0 0 89.80 84.78
  Z
  M 66.7620 125.6241
  A 10.40 10.16 -10.0 0 0 54.7557 117.4244
  A 10.40 10.16 -10.0 0 0 46.2780 129.2359
  A 10.40 10.16 -10.0 0 0 58.2843 137.4356
  A 10.40 10.16 -10.0 0 0 66.7620 125.6241
  Z
  M 138.8033 126.6707
  A 10.34 10.16 -175.4 0 0 148.2952 137.6273
  A 10.34 10.16 -175.4 0 0 159.4167 128.3293
  A 10.34 10.16 -175.4 0 0 149.9248 117.3727
  A 10.34 10.16 -175.4 0 0 138.8033 126.6707
  Z"
/>
<path fill="#ffffff" d="
  M 54.91 112.03
  Q 43.60 113.89 41.07 125.01
  A 0.81 0.80 1.6 0 1 40.42 125.62
  Q 39.16 125.82 36.66 125.78
  C 32.70 125.72 29.32 126.00 29.25 120.96
  Q 29.10 109.90 29.22 96.92
  A 11.80 11.76 55.8 0 1 29.99 92.84
  Q 33.29 84.11 37.19 74.19
  C 38.23 71.56 39.93 70.81 42.77 70.82
  Q 75.57 70.86 99.80 70.85
  C 107.42 70.84 111.79 71.92 117.25 76.51
  Q 131.33 88.34 134.11 90.87
  C 139.66 95.92 143.81 97.50 152.07 98.70
  Q 155.72 99.23 164.52 100.95
  Q 171.45 102.31 173.26 108.55
  Q 175.65 116.83 175.14 124.41
  A 1.45 1.45 0.0 0 1 173.69 125.76
  L 165.16 125.76
  A 0.67 0.66 84.1 0 1 164.51 125.23
  C 160.92 107.93 137.23 107.68 133.67 125.26
  A 0.76 0.75 -84.4 0 1 132.93 125.87
  L 96.00 125.87
  A 0.58 0.57 0.0 0 1 95.42 125.30
  L 95.42 103.90
  A 0.44 0.43 -0.0 0 1 95.86 103.47
  L 127.83 103.47
  A 2.09 2.01 -57.0 0 0 128.73 103.26
  Q 129.90 102.70 130.91 101.30
  A 1.56 1.55 63.2 0 0 131.21 100.38
  Q 131.21 99.43 130.16 97.58
  C 125.64 89.60 118.48 82.92 109.49 80.48
  Q 105.90 79.51 99.18 79.50
  Q 72.20 79.50 62.75 79.68
  Q 55.74 79.81 55.59 87.03
  Q 55.40 96.19 55.58 111.23
  A 0.80 0.80 0.0 0 1 54.91 112.03
  Z"
/>
<path fill="#ffffff" d="
  M 124.71 98.11
  A 0.43 0.43 0.0 0 1 124.35 98.78
  L 95.91 98.78
  A 0.68 0.68 0.0 0 1 95.23 98.10
  L 95.23 85.17
  A 0.62 0.62 0.0 0 1 95.85 84.55
  Q 103.57 84.48 106.41 84.88
  C 113.89 85.93 120.64 92.01 124.71 98.11
  Z"
/>
<path fill="#ffffff" d="
  M 90.35 85.34
  L 90.35 125.23
  A 0.54 0.54 0.0 0 1 89.81 125.77
  L 72.78 125.77
  A 0.72 0.71 -6.0 0 1 72.08 125.21
  Q 70.07 115.74 61.19 112.66
  A 0.73 0.73 0.0 0 1 60.70 111.97
  L 60.70 85.77
  A 0.99 0.98 -90.0 0 1 61.68 84.78
  L 89.80 84.78
  A 0.56 0.55 90.0 0 1 90.35 85.34
  Z"
/>
<ellipse fill="#ffffff" cx="0.00" cy="0.00" transform="translate(56.52,127.43) rotate(-10.0)" rx="10.40" ry="10.16"/>
<ellipse fill="#ffffff" cx="0.00" cy="0.00" transform="translate(149.11,127.50) rotate(-175.4)" rx="10.34" ry="10.16"/>
</svg>
