<?xml version="1.0" encoding="UTF-8" standalone="no"?>
<!DOCTYPE svg PUBLIC "-//W3C//DTD SVG 1.1//EN" "http://www.w3.org/Graphics/SVG/1.1/DTD/svg11.dtd">
<svg xmlns="http://www.w3.org/2000/svg" version="1.1" viewBox="0.00 0.00 131.00 136.00">
<path fill="#000000" d="
  M 50.71 78.59
  Q 50.71 78.61 49.98 81.46
  Q 49.34 83.95 46.57 84.73
  A 0.58 0.58 0.0 0 0 46.15 85.38
  Q 46.55 87.73 45.21 90.46
  Q 42.22 96.53 36.22 97.26
  Q 31.90 97.78 28.68 95.70
  Q 25.18 93.45 23.99 89.84
  A 0.54 0.53 81.3 0 0 23.50 89.47
  L 14.46 89.18
  A 1.62 1.37 49.7 0 1 13.98 89.10
  C 11.07 88.19 8.17 86.87 7.30 83.90
  C 6.77 82.08 6.87 76.08 7.53 73.70
  A 3.62 3.49 -22.9 0 1 7.92 72.79
  Q 10.41 68.75 14.71 66.67
  Q 16.20 65.95 20.93 65.23
  Q 27.28 64.27 31.07 61.06
  C 37.73 55.40 40.57 52.35 47.14 50.19
  Q 49.66 49.36 55.98 49.37
  Q 70.04 49.40 71.50 49.51
  Q 79.15 50.06 83.71 54.08
  C 89.03 58.79 93.72 63.21 100.22 65.32
  A 4.08 3.74 -32.5 0 0 101.30 65.51
  Q 105.19 65.64 110.87 67.34
  Q 116.35 68.97 117.86 73.34
  A 2.93 2.83 33.7 0 1 118.03 74.12
  Q 118.67 81.58 117.97 84.00
  Q 117.01 87.30 112.47 89.26
  Q 108.90 90.80 104.32 90.56
  A 0.88 0.88 0.0 0 0 103.51 91.00
  Q 99.32 98.59 90.34 97.10
  Q 89.89 97.02 87.74 95.95
  C 83.04 93.61 80.93 88.31 81.91 83.47
  C 83.00 78.15 87.35 74.71 92.77 74.13
  A 4.23 3.97 -42.0 0 1 93.76 74.15
  Q 103.99 75.68 104.85 86.32
  A 0.63 0.63 0.0 0 0 105.43 86.90
  Q 109.36 87.24 113.21 84.77
  A 3.02 3.01 74.2 0 0 114.59 82.29
  C 114.66 79.38 115.32 74.72 113.88 73.09
  C 111.52 70.42 106.48 69.69 103.13 69.33
  Q 95.32 68.47 89.03 63.21
  Q 84.60 59.51 80.99 56.52
  C 77.75 53.84 73.95 53.27 69.39 53.26
  Q 52.25 53.22 52.24 53.22
  Q 45.25 53.45 39.90 58.16
  C 34.60 62.82 29.93 67.13 24.45 68.11
  Q 17.92 69.29 17.14 69.57
  Q 9.90 72.22 10.35 80.79
  Q 10.45 82.72 11.03 83.41
  C 13.31 86.14 18.69 86.05 22.60 85.70
  A 0.72 0.71 1.0 0 0 23.25 85.08
  Q 24.11 78.19 29.54 75.44
  C 35.54 72.40 42.32 75.05 45.16 81.16
  A 0.70 0.70 0.0 0 0 46.46 81.07
  Q 47.72 77.03 48.43 75.65
  Q 49.74 73.07 51.89 74.82
  Q 54.78 77.18 55.68 80.44
  A 0.31 0.30 44.9 0 0 56.27 80.44
  L 57.26 76.58
  A 3.38 3.37 29.5 0 0 56.35 73.32
  Q 55.80 72.78 54.01 71.52
  A 1.87 1.81 -50.2 0 1 53.80 68.73
  Q 54.47 68.06 55.65 68.61
  C 62.27 71.70 61.61 77.87 58.45 83.21
  C 57.21 85.30 53.58 85.39 53.08 82.62
  Q 52.61 80.05 51.43 78.54
  A 0.44 0.44 0.0 0 0 50.71 78.59
  Z
  M 33.0151 78.0075
  A 7.99 7.83 -102.1 0 0 27.0340 87.4613
  A 7.99 7.83 -102.1 0 0 36.3649 93.6325
  A 7.99 7.83 -102.1 0 0 42.3460 84.1787
  A 7.99 7.83 -102.1 0 0 33.0151 78.0075
  Z
  M 101.06 85.82
  A 7.90 7.90 0.0 0 0 93.16 77.92
  A 7.90 7.90 0.0 0 0 85.26 85.82
  A 7.90 7.90 0.0 0 0 93.16 93.72
  A 7.90 7.90 0.0 0 0 101.06 85.82
  Z"
/>
<path fill="#000000" d="
  M 74.68 74.77
  Q 75.03 82.80 69.48 90.01
  Q 68.94 90.71 68.48 90.82
  Q 67.87 90.96 67.22 90.57
  A 1.63 1.58 33.5 0 1 66.71 88.25
  Q 71.43 81.75 71.13 74.92
  Q 70.83 68.09 65.56 62.03
  A 1.63 1.58 -38.5 0 1 65.87 59.68
  Q 66.48 59.23 67.10 59.32
  Q 67.57 59.39 68.17 60.04
  Q 74.33 66.73 74.68 74.77
  Z"
/>
<path fill="#000000" d="
  M 61.39 87.65
  L 61.34 87.62
  A 1.57 1.56 -57.9 0 1 60.85 85.47
  Q 63.82 80.68 64.32 77.85
  C 65.33 72.23 63.25 69.87 59.55 66.34
  A 1.17 1.17 0.0 0 1 59.63 64.57
  L 60.20 64.13
  A 1.54 1.53 45.5 0 1 62.11 64.15
  C 70.31 70.86 69.43 79.33 63.64 87.22
  A 1.68 1.67 -55.6 0 1 61.39 87.65
  Z"
/>
</svg>
