<?xml version="1.0" encoding="UTF-8" standalone="no"?>
<!DOCTYPE svg PUBLIC "-//W3C//DTD SVG 1.1//EN" "http://www.w3.org/Graphics/SVG/1.1/DTD/svg11.dtd">
<svg xmlns="http://www.w3.org/2000/svg" version="1.1" viewBox="0.00 0.00 195.00 212.00">
<g stroke-width="2.00" fill="none" stroke-linecap="butt">
<path stroke="#d9d8da" vector-effect="non-scaling-stroke" d="
  M 101.83 179.52
  Q 119.63 179.56 128.00 178.44
  C 145.34 176.12 153.71 164.36 155.74 148.01
  C 159.53 117.45 158.90 85.66 155.56 55.25
  Q 154.53 45.93 150.60 38.88
  C 144.91 28.67 135.37 24.77 123.75 24.01
  Q 113.24 23.31 102.13 23.29
  Q 91.02 23.27 80.51 23.92
  C 68.88 24.64 59.33 28.51 53.60 38.69
  Q 49.64 45.73 48.57 55.04
  C 45.12 85.44 44.36 117.23 48.04 147.80
  C 50.00 164.16 58.33 175.95 75.66 178.34
  Q 84.03 179.49 101.83 179.52"
/>
<path stroke="#d9d8da" vector-effect="non-scaling-stroke" d="
  M 102.08 173.64
  Q 116.04 173.63 119.88 173.39
  Q 126.55 172.97 130.98 171.99
  C 145.56 168.76 150.14 157.77 151.44 143.94
  Q 155.22 103.81 151.16 61.93
  Q 149.83 48.16 147.06 42.96
  Q 140.85 31.31 125.47 29.89
  Q 116.72 29.09 101.98 29.10
  Q 87.24 29.11 78.49 29.92
  Q 63.11 31.36 56.92 43.02
  Q 54.16 48.23 52.85 62.00
  Q 48.84 103.88 52.68 144.01
  C 54.00 157.84 58.60 168.82 73.18 172.03
  Q 77.61 173.00 84.29 173.41
  Q 88.12 173.65 102.08 173.64"
/>
<path stroke="#d9d8da" vector-effect="non-scaling-stroke" d="
  M 101.85 162.43
  Q 114.09 162.42 118.25 162.32
  C 127.40 162.09 135.55 156.94 139.77 148.92
  Q 141.58 145.49 142.36 137.78
  Q 143.68 124.73 143.81 104.50
  Q 143.96 80.68 141.66 61.98
  C 140.39 51.57 132.54 41.46 121.73 40.42
  Q 115.03 39.78 101.70 39.80
  Q 88.37 39.82 81.68 40.47
  C 70.87 41.53 63.04 51.66 61.80 62.08
  Q 59.54 80.78 59.75 104.60
  Q 59.93 124.83 61.28 137.88
  Q 62.08 145.59 63.90 149.01
  C 68.13 157.02 76.30 162.15 85.45 162.36
  Q 89.61 162.45 101.85 162.43"
/>
<path stroke="#d9d8da" vector-effect="non-scaling-stroke" d="
  M 138.82 95.05
  Q 138.45 80.28 137.24 65.51
  Q 136.46 55.84 129.42 49.91
  Q 125.41 46.52 121.51 46.29
  Q 106.31 45.36 89.03 45.91
  Q 80.60 46.18 77.24 47.87
  Q 70.37 51.33 67.17 59.51
  A 5.64 5.51 -33.5 0 0 66.81 61.18
  L 64.98 95.01
  A 0.61 0.61 0.0 0 0 65.59 95.66
  L 138.23 95.66
  A 0.59 0.59 0.0 0 0 138.82 95.05"
/>
<path stroke="#d9d8da" vector-effect="non-scaling-stroke" d="
  M 102.05 156.53
  Q 108.47 156.53 114.87 156.47
  Q 122.66 156.41 125.67 155.06
  Q 131.96 152.24 135.74 145.96
  A 4.50 4.42 68.9 0 0 136.15 145.01
  Q 137.18 141.41 137.57 136.77
  Q 138.95 120.13 138.82 101.63
  A 0.50 0.49 89.2 0 0 138.33 101.14
  Q 102.49 101.17 102.05 101.17
  Q 101.61 101.17 65.77 101.14
  A 0.50 0.49 -89.2 0 0 65.27 101.63
  Q 65.14 120.13 66.53 136.77
  Q 66.92 141.41 67.95 145.01
  A 4.50 4.42 -68.9 0 0 68.36 145.96
  Q 72.14 152.24 78.43 155.06
  Q 81.44 156.41 89.23 156.47
  Q 95.63 156.53 102.05 156.53"
/>
<path stroke="#d9d8da" vector-effect="non-scaling-stroke" d="
  M 102.05 85.78
  C 107.89 85.86 113.54 86.49 113.83 78.77
  C 113.99 74.64 115.14 68.92 111.55 67.51
  Q 110.41 67.07 110.36 67.04
  A 0.94 0.93 13.7 0 1 109.87 66.24
  C 109.75 61.37 108.28 56.63 102.45 56.55
  C 96.62 56.47 95.02 61.16 94.77 66.03
  A 0.94 0.93 -12.2 0 1 94.26 66.82
  Q 94.21 66.85 93.06 67.26
  C 89.43 68.57 90.42 74.32 90.47 78.45
  C 90.55 86.18 96.21 85.70 102.05 85.78"
/>
<path stroke="#d9d8da" vector-effect="non-scaling-stroke" d="
  M 98.80 66.31
  L 105.98 66.29
  A 0.22 0.22 0.0 0 0 106.20 66.07
  L 106.20 65.20
  A 4.95 3.54 89.8 0 0 102.64 60.26
  L 102.10 60.26
  A 4.95 3.54 89.8 0 0 98.58 65.22
  L 98.58 66.09
  A 0.22 0.22 0.0 0 0 98.80 66.31"
/>
<path stroke="#d9d8da" vector-effect="non-scaling-stroke" d="
  M 109.09 70.64
  L 95.29 70.56
  A 0.87 0.87 0.0 0 0 94.41 71.43
  L 94.38 78.65
  A 2.97 2.12 -89.7 0 0 96.48 81.63
  L 107.78 81.69
  A 2.97 2.12 -89.7 0 0 109.92 78.73
  L 109.95 71.51
  A 0.87 0.87 0.0 0 0 109.09 70.64"
/>
<path stroke="#d9d8da" vector-effect="non-scaling-stroke" d="
  M 109.83 123.87
  C 103.93 123.92 98.12 123.54 92.76 124.27
  C 90.82 124.53 89.45 125.58 89.47 127.51
  Q 89.54 136.09 89.45 141.60
  A 1.87 1.87 0.0 0 0 89.70 142.57
  Q 91.16 145.04 93.83 145.18
  Q 97.70 145.38 110.48 145.23
  Q 113.99 145.20 115.45 141.92
  A 1.22 1.18 -33.6 0 0 115.56 141.42
  L 115.56 128.09
  A 2.17 2.10 33.2 0 0 115.35 127.17
  L 114.17 124.73
  A 1.16 1.15 34.9 0 1 114.06 124.12
  C 114.70 117.82 112.92 112.47 106.82 110.05
  A 4.25 4.06 57.6 0 0 105.73 109.78
  Q 98.51 108.98 95.61 116.07
  A 1.72 1.72 0.0 0 0 96.55 118.31
  L 96.62 118.34
  A 1.80 1.80 0.0 0 0 98.91 117.49
  Q 101.51 112.40 105.67 113.60
  C 109.72 114.77 111.03 119.47 110.57 123.21
  A 0.75 0.74 -86.5 0 1 109.83 123.87"
/>
<path stroke="#d9d8da" vector-effect="non-scaling-stroke" d="
  M 111.72 128.81
  A 0.71 0.71 0.0 0 0 111.01 128.10
  L 94.03 128.10
  A 0.71 0.71 0.0 0 0 93.32 128.81
  L 93.32 140.35
  A 0.71 0.71 0.0 0 0 94.03 141.06
  L 111.01 141.06
  A 0.71 0.71 0.0 0 0 111.72 140.35
  L 111.72 128.81"
/>
</g>
<path fill="#ffffff" d="
  M 195.00 0.00
  L 195.00 212.00
  L 0.00 212.00
  L 0.00 0.00
  L 195.00 0.00
  Z
  M 101.83 179.52
  Q 119.63 179.56 128.00 178.44
  C 145.34 176.12 153.71 164.36 155.74 148.01
  C 159.53 117.45 158.90 85.66 155.56 55.25
  Q 154.53 45.93 150.60 38.88
  C 144.91 28.67 135.37 24.77 123.75 24.01
  Q 113.24 23.31 102.13 23.29
  Q 91.02 23.27 80.51 23.92
  C 68.88 24.64 59.33 28.51 53.60 38.69
  Q 49.64 45.73 48.57 55.04
  C 45.12 85.44 44.36 117.23 48.04 147.80
  C 50.00 164.16 58.33 175.95 75.66 178.34
  Q 84.03 179.49 101.83 179.52
  Z"
/>
<path fill="#b2b0b4" d="
  M 102.13 23.29
  Q 113.24 23.31 123.75 24.01
  C 135.37 24.77 144.91 28.67 150.60 38.88
  Q 154.53 45.93 155.56 55.25
  C 158.90 85.66 159.53 117.45 155.74 148.01
  C 153.71 164.36 145.34 176.12 128.00 178.44
  Q 119.63 179.56 101.83 179.52
  Q 84.03 179.49 75.66 178.34
  C 58.33 175.95 50.00 164.16 48.04 147.80
  C 44.36 117.23 45.12 85.44 48.57 55.04
  Q 49.64 45.73 53.60 38.69
  C 59.33 28.51 68.88 24.64 80.51 23.92
  Q 91.02 23.27 102.13 23.29
  Z
  M 102.08 173.64
  Q 116.04 173.63 119.88 173.39
  Q 126.55 172.97 130.98 171.99
  C 145.56 168.76 150.14 157.77 151.44 143.94
  Q 155.22 103.81 151.16 61.93
  Q 149.83 48.16 147.06 42.96
  Q 140.85 31.31 125.47 29.89
  Q 116.72 29.09 101.98 29.10
  Q 87.24 29.11 78.49 29.92
  Q 63.11 31.36 56.92 43.02
  Q 54.16 48.23 52.85 62.00
  Q 48.84 103.88 52.68 144.01
  C 54.00 157.84 58.60 168.82 73.18 172.03
  Q 77.61 173.00 84.29 173.41
  Q 88.12 173.65 102.08 173.64
  Z"
/>
<path fill="#ffffff" d="
  M 101.98 29.10
  Q 116.72 29.09 125.47 29.89
  Q 140.85 31.31 147.06 42.96
  Q 149.83 48.16 151.16 61.93
  Q 155.22 103.81 151.44 143.94
  C 150.14 157.77 145.56 168.76 130.98 171.99
  Q 126.55 172.97 119.88 173.39
  Q 116.04 173.63 102.08 173.64
  Q 88.12 173.65 84.29 173.41
  Q 77.61 173.00 73.18 172.03
  C 58.60 168.82 54.00 157.84 52.68 144.01
  Q 48.84 103.88 52.85 62.00
  Q 54.16 48.23 56.92 43.02
  Q 63.11 31.36 78.49 29.92
  Q 87.24 29.11 101.98 29.10
  Z
  M 101.85 162.43
  Q 114.09 162.42 118.25 162.32
  C 127.40 162.09 135.55 156.94 139.77 148.92
  Q 141.58 145.49 142.36 137.78
  Q 143.68 124.73 143.81 104.50
  Q 143.96 80.68 141.66 61.98
  C 140.39 51.57 132.54 41.46 121.73 40.42
  Q 115.03 39.78 101.70 39.80
  Q 88.37 39.82 81.68 40.47
  C 70.87 41.53 63.04 51.66 61.80 62.08
  Q 59.54 80.78 59.75 104.60
  Q 59.93 124.83 61.28 137.88
  Q 62.08 145.59 63.90 149.01
  C 68.13 157.02 76.30 162.15 85.45 162.36
  Q 89.61 162.45 101.85 162.43
  Z"
/>
<path fill="#b2b0b4" d="
  M 101.70 39.80
  Q 115.03 39.78 121.73 40.42
  C 132.54 41.46 140.39 51.57 141.66 61.98
  Q 143.96 80.68 143.81 104.50
  Q 143.68 124.73 142.36 137.78
  Q 141.58 145.49 139.77 148.92
  C 135.55 156.94 127.40 162.09 118.25 162.32
  Q 114.09 162.42 101.85 162.43
  Q 89.61 162.45 85.45 162.36
  C 76.30 162.15 68.13 157.02 63.90 149.01
  Q 62.08 145.59 61.28 137.88
  Q 59.93 124.83 59.75 104.60
  Q 59.54 80.78 61.80 62.08
  C 63.04 51.66 70.87 41.53 81.68 40.47
  Q 88.37 39.82 101.70 39.80
  Z
  M 138.82 95.05
  Q 138.45 80.28 137.24 65.51
  Q 136.46 55.84 129.42 49.91
  Q 125.41 46.52 121.51 46.29
  Q 106.31 45.36 89.03 45.91
  Q 80.60 46.18 77.24 47.87
  Q 70.37 51.33 67.17 59.51
  A 5.64 5.51 -33.5 0 0 66.81 61.18
  L 64.98 95.01
  A 0.61 0.61 0.0 0 0 65.59 95.66
  L 138.23 95.66
  A 0.59 0.59 0.0 0 0 138.82 95.05
  Z
  M 102.05 156.53
  Q 108.47 156.53 114.87 156.47
  Q 122.66 156.41 125.67 155.06
  Q 131.96 152.24 135.74 145.96
  A 4.50 4.42 68.9 0 0 136.15 145.01
  Q 137.18 141.41 137.57 136.77
  Q 138.95 120.13 138.82 101.63
  A 0.50 0.49 89.2 0 0 138.33 101.14
  Q 102.49 101.17 102.05 101.17
  Q 101.61 101.17 65.77 101.14
  A 0.50 0.49 -89.2 0 0 65.27 101.63
  Q 65.14 120.13 66.53 136.77
  Q 66.92 141.41 67.95 145.01
  A 4.50 4.42 -68.9 0 0 68.36 145.96
  Q 72.14 152.24 78.43 155.06
  Q 81.44 156.41 89.23 156.47
  Q 95.63 156.53 102.05 156.53
  Z"
/>
<path fill="#ffffff" d="
  M 138.82 95.05
  A 0.59 0.59 0.0 0 1 138.23 95.66
  L 65.59 95.66
  A 0.61 0.61 0.0 0 1 64.98 95.01
  L 66.81 61.18
  A 5.64 5.51 -33.5 0 1 67.17 59.51
  Q 70.37 51.33 77.24 47.87
  Q 80.60 46.18 89.03 45.91
  Q 106.31 45.36 121.51 46.29
  Q 125.41 46.52 129.42 49.91
  Q 136.46 55.84 137.24 65.51
  Q 138.45 80.28 138.82 95.05
  Z
  M 102.05 85.78
  C 107.89 85.86 113.54 86.49 113.83 78.77
  C 113.99 74.64 115.14 68.92 111.55 67.51
  Q 110.41 67.07 110.36 67.04
  A 0.94 0.93 13.7 0 1 109.87 66.24
  C 109.75 61.37 108.28 56.63 102.45 56.55
  C 96.62 56.47 95.02 61.16 94.77 66.03
  A 0.94 0.93 -12.2 0 1 94.26 66.82
  Q 94.21 66.85 93.06 67.26
  C 89.43 68.57 90.42 74.32 90.47 78.45
  C 90.55 86.18 96.21 85.70 102.05 85.78
  Z"
/>
<path fill="#b2b0b4" d="
  M 102.45 56.55
  C 108.28 56.63 109.75 61.37 109.87 66.24
  A 0.94 0.93 13.7 0 0 110.36 67.04
  Q 110.41 67.07 111.55 67.51
  C 115.14 68.92 113.99 74.64 113.83 78.77
  C 113.54 86.49 107.89 85.86 102.05 85.78
  C 96.21 85.70 90.55 86.18 90.47 78.45
  C 90.42 74.32 89.43 68.57 93.06 67.26
  Q 94.21 66.85 94.26 66.82
  A 0.94 0.93 -12.2 0 0 94.77 66.03
  C 95.02 61.16 96.62 56.47 102.45 56.55
  Z
  M 98.80 66.31
  L 105.98 66.29
  A 0.22 0.22 0.0 0 0 106.20 66.07
  L 106.20 65.20
  A 4.95 3.54 89.8 0 0 102.64 60.26
  L 102.10 60.26
  A 4.95 3.54 89.8 0 0 98.58 65.22
  L 98.58 66.09
  A 0.22 0.22 0.0 0 0 98.80 66.31
  Z
  M 109.09 70.64
  L 95.29 70.56
  A 0.87 0.87 0.0 0 0 94.41 71.43
  L 94.38 78.65
  A 2.97 2.12 -89.7 0 0 96.48 81.63
  L 107.78 81.69
  A 2.97 2.12 -89.7 0 0 109.92 78.73
  L 109.95 71.51
  A 0.87 0.87 0.0 0 0 109.09 70.64
  Z"
/>
<path fill="#ffffff" d="
  M 98.80 66.31
  A 0.22 0.22 0.0 0 1 98.58 66.09
  L 98.58 65.22
  A 4.95 3.54 89.8 0 1 102.10 60.26
  L 102.64 60.26
  A 4.95 3.54 89.8 0 1 106.20 65.20
  L 106.20 66.07
  A 0.22 0.22 0.0 0 1 105.98 66.29
  L 98.80 66.31
  Z"
/>
<path fill="#ffffff" d="
  M 109.09 70.64
  A 0.87 0.87 0.0 0 1 109.95 71.51
  L 109.92 78.73
  A 2.97 2.12 -89.7 0 1 107.78 81.69
  L 96.48 81.63
  A 2.97 2.12 -89.7 0 1 94.38 78.65
  L 94.41 71.43
  A 0.87 0.87 0.0 0 1 95.29 70.56
  L 109.09 70.64
  Z"
/>
<path fill="#ffffff" d="
  M 102.05 101.17
  Q 102.49 101.17 138.33 101.14
  A 0.50 0.49 89.2 0 1 138.82 101.63
  Q 138.95 120.13 137.57 136.77
  Q 137.18 141.41 136.15 145.01
  A 4.50 4.42 68.9 0 1 135.74 145.96
  Q 131.96 152.24 125.67 155.06
  Q 122.66 156.41 114.87 156.47
  Q 108.47 156.53 102.05 156.53
  Q 95.63 156.53 89.23 156.47
  Q 81.44 156.41 78.43 155.06
  Q 72.14 152.24 68.36 145.96
  A 4.50 4.42 -68.9 0 1 67.95 145.01
  Q 66.92 141.41 66.53 136.77
  Q 65.14 120.13 65.27 101.63
  A 0.50 0.49 -89.2 0 1 65.77 101.14
  Q 101.61 101.17 102.05 101.17
  Z
  M 109.83 123.87
  C 103.93 123.92 98.12 123.54 92.76 124.27
  C 90.82 124.53 89.45 125.58 89.47 127.51
  Q 89.54 136.09 89.45 141.60
  A 1.87 1.87 0.0 0 0 89.70 142.57
  Q 91.16 145.04 93.83 145.18
  Q 97.70 145.38 110.48 145.23
  Q 113.99 145.20 115.45 141.92
  A 1.22 1.18 -33.6 0 0 115.56 141.42
  L 115.56 128.09
  A 2.17 2.10 33.2 0 0 115.35 127.17
  L 114.17 124.73
  A 1.16 1.15 34.9 0 1 114.06 124.12
  C 114.70 117.82 112.92 112.47 106.82 110.05
  A 4.25 4.06 57.6 0 0 105.73 109.78
  Q 98.51 108.98 95.61 116.07
  A 1.72 1.72 0.0 0 0 96.55 118.31
  L 96.62 118.34
  A 1.80 1.80 0.0 0 0 98.91 117.49
  Q 101.51 112.40 105.67 113.60
  C 109.72 114.77 111.03 119.47 110.57 123.21
  A 0.75 0.74 -86.5 0 1 109.83 123.87
  Z"
/>
<path fill="#b2b0b4" d="
  M 109.83 123.87
  A 0.75 0.74 -86.5 0 0 110.57 123.21
  C 111.03 119.47 109.72 114.77 105.67 113.60
  Q 101.51 112.40 98.91 117.49
  A 1.80 1.80 0.0 0 1 96.62 118.34
  L 96.55 118.31
  A 1.72 1.72 0.0 0 1 95.61 116.07
  Q 98.51 108.98 105.73 109.78
  A 4.25 4.06 57.6 0 1 106.82 110.05
  C 112.92 112.47 114.70 117.82 114.06 124.12
  A 1.16 1.15 34.9 0 0 114.17 124.73
  L 115.35 127.17
  A 2.17 2.10 33.2 0 1 115.56 128.09
  L 115.56 141.42
  A 1.22 1.18 -33.6 0 1 115.45 141.92
  Q 113.99 145.20 110.48 145.23
  Q 97.70 145.38 93.83 145.18
  Q 91.16 145.04 89.70 142.57
  A 1.87 1.87 0.0 0 1 89.45 141.60
  Q 89.54 136.09 89.47 127.51
  C 89.45 125.58 90.82 124.53 92.76 124.27
  C 98.12 123.54 103.93 123.92 109.83 123.87
  Z
  M 111.72 128.81
  A 0.71 0.71 0.0 0 0 111.01 128.10
  L 94.03 128.10
  A 0.71 0.71 0.0 0 0 93.32 128.81
  L 93.32 140.35
  A 0.71 0.71 0.0 0 0 94.03 141.06
  L 111.01 141.06
  A 0.71 0.71 0.0 0 0 111.72 140.35
  L 111.72 128.81
  Z"
/>
<rect fill="#ffffff" x="93.32" y="128.10" width="18.40" height="12.96" rx="0.71"/>
</svg>
