<?xml version="1.0" encoding="UTF-8" standalone="no"?>
<!DOCTYPE svg PUBLIC "-//W3C//DTD SVG 1.1//EN" "http://www.w3.org/Graphics/SVG/1.1/DTD/svg11.dtd">
<svg xmlns="http://www.w3.org/2000/svg" version="1.1" viewBox="0.00 0.00 229.00 209.00">
<g stroke-width="2.00" fill="none" stroke-linecap="butt">
<path stroke="#808080" vector-effect="non-scaling-stroke" d="
  M 34.60 32.58
  Q 33.54 32.91 29.24 33.44
  Q 21.08 34.45 20.04 43.29"
/>
<path stroke="#fef6f6" vector-effect="non-scaling-stroke" d="
  M 20.04 43.29
  Q 17.66 45.31 15.79 47.81
  C 2.79 65.25 0.35 87.46 9.61 107.01
  Q 17.59 123.87 35.59 133.32"
/>
<path stroke="#808080" vector-effect="non-scaling-stroke" d="
  M 35.59 133.32
  Q 36.62 139.12 37.78 145.23
  Q 39.34 153.45 46.24 157.88
  A 1.32 1.31 14.5 0 1 46.85 158.91
  C 47.31 165.28 44.79 173.35 52.58 176.48
  Q 54.08 177.08 58.99 177.08
  Q 125.90 177.09 129.26 177.06
  Q 136.02 177.02 138.25 171.77
  C 139.53 168.77 139.06 163.44 138.88 160.44
  A 0.63 0.63 0.0 0 1 139.33 159.80
  Q 146.12 157.75 149.78 151.93
  C 155.26 143.18 150.99 131.61 141.56 128.11
  Q 138.61 127.02 130.81 127.26
  Q 112.68 127.82 94.38 128.26"
/>
<path stroke="#fef6f6" vector-effect="non-scaling-stroke" d="
  M 94.38 128.26
  C 97.25 125.23 100.71 122.39 103.12 119.51
  Q 109.28 112.11 113.74 102.88"
/>
<path stroke="#808080" vector-effect="non-scaling-stroke" d="
  M 113.74 102.88
  Q 113.84 105.64 115.36 106.92
  C 118.66 109.69 121.84 108.63 124.82 105.81
  Q 127.70 103.09 140.48 91.25
  C 144.48 87.54 147.39 83.84 142.85 79.38
  Q 135.91 72.56 122.04 59.94
  A 2.74 2.71 75.8 0 0 121.16 59.41
  Q 116.20 57.60 113.74 62.68"
/>
<path stroke="#fef6f6" vector-effect="non-scaling-stroke" d="
  M 113.74 62.68
  Q 103.45 38.26 80.39 29.60
  Q 57.16 20.89 34.60 32.58"
/>
<path stroke="#7f7776" vector-effect="non-scaling-stroke" d="
  M 113.74 62.68
  L 113.94 71.97
  A 0.72 0.72 0.0 0 1 113.22 72.71
  Q 92.41 72.67 87.55 72.75
  Q 83.25 72.82 81.51 77.19
  A 2.81 2.79 56.1 0 0 81.31 78.23
  L 81.31 89.69
  A 2.74 2.74 0.0 0 0 81.48 90.64
  Q 83.39 95.72 88.56 95.77
  Q 97.71 95.84 113.30 95.76
  A 0.57 0.57 0.0 0 1 113.88 96.35
  L 113.74 102.88"
/>
<path stroke="#7f7776" vector-effect="non-scaling-stroke" d="
  M 94.38 128.26
  L 71.46 129.00
  A 0.81 0.80 81.3 0 1 70.66 128.41
  C 70.43 127.59 70.72 126.21 70.61 125.30
  Q 69.37 115.28 68.67 110.75
  C 66.69 98.14 61.19 86.33 54.85 74.91
  Q 53.49 72.45 53.27 70.24
  Q 52.71 64.46 51.72 50.01
  Q 51.31 44.12 50.53 42.22
  Q 46.63 32.87 34.60 32.58"
/>
<path stroke="#7f7776" vector-effect="non-scaling-stroke" d="
  M 35.59 133.32
  Q 23.25 66.37 20.22 49.00
  Q 19.92 47.32 20.04 43.29"
/>
<path stroke="#808080" vector-effect="non-scaling-stroke" d="
  M 65.39 128.26
  Q 65.36 120.55 62.88 107.89
  C 60.77 97.13 55.66 87.05 50.18 77.28
  C 49.13 75.40 48.50 73.16 48.20 71.07
  Q 47.15 63.75 47.20 58.19
  A 0.07 0.05 -58.3 0 0 47.20 58.14
  L 46.70 55.88
  A 3.09 2.99 -52.1 0 1 46.63 55.23
  C 46.73 48.10 46.75 39.98 39.09 38.40
  C 34.55 37.45 26.89 37.71 25.17 43.12
  Q 24.57 45.00 25.73 51.35
  Q 31.47 82.70 42.46 142.39
  C 43.54 148.25 44.93 151.13 49.59 154.10
  Q 51.98 155.62 59.19 155.48
  Q 63.19 155.40 131.67 155.54
  Q 136.29 155.55 138.25 154.87
  C 149.13 151.08 150.76 136.59 139.05 132.70
  Q 137.73 132.26 129.39 132.38
  Q 106.33 132.73 81.87 133.68
  C 75.47 133.92 68.31 133.64 61.51 134.37
  A 2.58 2.58 0.0 0 1 58.67 132.09
  L 58.64 131.84
  A 2.53 2.53 0.0 0 1 61.20 129.05
  L 64.53 129.11
  A 0.85 0.85 0.0 0 0 65.39 128.26"
/>
<path stroke="#808080" vector-effect="non-scaling-stroke" d="
  M 133.74 160.54
  L 51.96 160.40
  A 0.34 0.34 0.0 0 0 51.62 160.74
  L 51.61 166.65
  A 5.76 5.47 0.1 0 0 57.36 172.13
  L 128.30 172.25
  A 5.76 5.47 0.1 0 0 134.07 166.79
  L 134.08 160.88
  A 0.34 0.34 0.0 0 0 133.74 160.54"
/>
<path stroke="#808080" vector-effect="non-scaling-stroke" d="
  M 104.02 143.71
  A 3.60 3.60 0.0 0 0 100.42 140.11
  A 3.60 3.60 0.0 0 0 96.82 143.71
  A 3.60 3.60 0.0 0 0 100.42 147.31
  A 3.60 3.60 0.0 0 0 104.02 143.71"
/>
<path stroke="#808080" vector-effect="non-scaling-stroke" d="
  M 118.70 143.71
  A 3.63 3.63 0.0 0 0 115.07 140.08
  A 3.63 3.63 0.0 0 0 111.44 143.71
  A 3.63 3.63 0.0 0 0 115.07 147.34
  A 3.63 3.63 0.0 0 0 118.70 143.71"
/>
<path stroke="#808080" vector-effect="non-scaling-stroke" d="
  M 133.34 143.76
  A 3.60 3.60 0.0 0 0 129.74 140.16
  A 3.60 3.60 0.0 0 0 126.14 143.76
  A 3.60 3.60 0.0 0 0 129.74 147.36
  A 3.60 3.60 0.0 0 0 133.34 143.76"
/>
<path stroke="#7f7776" vector-effect="non-scaling-stroke" d="
  M 116.72 77.82
  L 87.37 77.79
  A 0.86 0.85 -0.0 0 0 86.51 78.64
  L 86.51 89.30
  A 1.13 1.13 0.0 0 0 87.64 90.43
  L 116.25 90.50"
/>
<path stroke="#808080" vector-effect="non-scaling-stroke" d="
  M 116.25 90.50
  Q 119.18 92.11 119.11 95.75
  Q 118.99 101.71 119.03 102.49
  A 0.72 0.72 0.0 0 0 120.24 102.98
  L 139.88 84.41
  A 0.55 0.54 -45.3 0 0 139.88 83.62
  L 119.67 64.85
  A 0.41 0.41 0.0 0 0 118.99 65.22
  Q 120.36 73.53 116.72 77.82"
/>
<path stroke="#fef6f6" vector-effect="non-scaling-stroke" d="
  M 116.25 90.50
  Q 117.25 84.41 116.72 77.82"
/>
</g>
<path fill="#ffffff" d="
  M 229.00 0.00
  L 229.00 209.00
  L 0.00 209.00
  L 0.00 0.00
  L 229.00 0.00
  Z
  M 34.60 32.58
  Q 33.54 32.91 29.24 33.44
  Q 21.08 34.45 20.04 43.29
  Q 17.66 45.31 15.79 47.81
  C 2.79 65.25 0.35 87.46 9.61 107.01
  Q 17.59 123.87 35.59 133.32
  Q 36.62 139.12 37.78 145.23
  Q 39.34 153.45 46.24 157.88
  A 1.32 1.31 14.5 0 1 46.85 158.91
  C 47.31 165.28 44.79 173.35 52.58 176.48
  Q 54.08 177.08 58.99 177.08
  Q 125.90 177.09 129.26 177.06
  Q 136.02 177.02 138.25 171.77
  C 139.53 168.77 139.06 163.44 138.88 160.44
  A 0.63 0.63 0.0 0 1 139.33 159.80
  Q 146.12 157.75 149.78 151.93
  C 155.26 143.18 150.99 131.61 141.56 128.11
  Q 138.61 127.02 130.81 127.26
  Q 112.68 127.82 94.38 128.26
  C 97.25 125.23 100.71 122.39 103.12 119.51
  Q 109.28 112.11 113.74 102.88
  Q 113.84 105.64 115.36 106.92
  C 118.66 109.69 121.84 108.63 124.82 105.81
  Q 127.70 103.09 140.48 91.25
  C 144.48 87.54 147.39 83.84 142.85 79.38
  Q 135.91 72.56 122.04 59.94
  A 2.74 2.71 75.8 0 0 121.16 59.41
  Q 116.20 57.60 113.74 62.68
  Q 103.45 38.26 80.39 29.60
  Q 57.16 20.89 34.60 32.58
  Z"
/>
<path fill="#fdedec" d="
  M 113.74 62.68
  L 113.94 71.97
  A 0.72 0.72 0.0 0 1 113.22 72.71
  Q 92.41 72.67 87.55 72.75
  Q 83.25 72.82 81.51 77.19
  A 2.81 2.79 56.1 0 0 81.31 78.23
  L 81.31 89.69
  A 2.74 2.74 0.0 0 0 81.48 90.64
  Q 83.39 95.72 88.56 95.77
  Q 97.71 95.84 113.30 95.76
  A 0.57 0.57 0.0 0 1 113.88 96.35
  L 113.74 102.88
  Q 109.28 112.11 103.12 119.51
  C 100.71 122.39 97.25 125.23 94.38 128.26
  L 71.46 129.00
  A 0.81 0.80 81.3 0 1 70.66 128.41
  C 70.43 127.59 70.72 126.21 70.61 125.30
  Q 69.37 115.28 68.67 110.75
  C 66.69 98.14 61.19 86.33 54.85 74.91
  Q 53.49 72.45 53.27 70.24
  Q 52.71 64.46 51.72 50.01
  Q 51.31 44.12 50.53 42.22
  Q 46.63 32.87 34.60 32.58
  Q 57.16 20.89 80.39 29.60
  Q 103.45 38.26 113.74 62.68
  Z"
/>
<path fill="#000000" d="
  M 94.38 128.26
  Q 112.68 127.82 130.81 127.26
  Q 138.61 127.02 141.56 128.11
  C 150.99 131.61 155.26 143.18 149.78 151.93
  Q 146.12 157.75 139.33 159.80
  A 0.63 0.63 0.0 0 0 138.88 160.44
  C 139.06 163.44 139.53 168.77 138.25 171.77
  Q 136.02 177.02 129.26 177.06
  Q 125.90 177.09 58.99 177.08
  Q 54.08 177.08 52.58 176.48
  C 44.79 173.35 47.31 165.28 46.85 158.91
  A 1.32 1.31 14.5 0 0 46.24 157.88
  Q 39.34 153.45 37.78 145.23
  Q 36.62 139.12 35.59 133.32
  Q 23.25 66.37 20.22 49.00
  Q 19.92 47.32 20.04 43.29
  Q 21.08 34.45 29.24 33.44
  Q 33.54 32.91 34.60 32.58
  Q 46.63 32.87 50.53 42.22
  Q 51.31 44.12 51.72 50.01
  Q 52.71 64.46 53.27 70.24
  Q 53.49 72.45 54.85 74.91
  C 61.19 86.33 66.69 98.14 68.67 110.75
  Q 69.37 115.28 70.61 125.30
  C 70.72 126.21 70.43 127.59 70.66 128.41
  A 0.81 0.80 81.3 0 0 71.46 129.00
  L 94.38 128.26
  Z
  M 65.39 128.26
  Q 65.36 120.55 62.88 107.89
  C 60.77 97.13 55.66 87.05 50.18 77.28
  C 49.13 75.40 48.50 73.16 48.20 71.07
  Q 47.15 63.75 47.20 58.19
  A 0.07 0.05 -58.3 0 0 47.20 58.14
  L 46.70 55.88
  A 3.09 2.99 -52.1 0 1 46.63 55.23
  C 46.73 48.10 46.75 39.98 39.09 38.40
  C 34.55 37.45 26.89 37.71 25.17 43.12
  Q 24.57 45.00 25.73 51.35
  Q 31.47 82.70 42.46 142.39
  C 43.54 148.25 44.93 151.13 49.59 154.10
  Q 51.98 155.62 59.19 155.48
  Q 63.19 155.40 131.67 155.54
  Q 136.29 155.55 138.25 154.87
  C 149.13 151.08 150.76 136.59 139.05 132.70
  Q 137.73 132.26 129.39 132.38
  Q 106.33 132.73 81.87 133.68
  C 75.47 133.92 68.31 133.64 61.51 134.37
  A 2.58 2.58 0.0 0 1 58.67 132.09
  L 58.64 131.84
  A 2.53 2.53 0.0 0 1 61.20 129.05
  L 64.53 129.11
  A 0.85 0.85 0.0 0 0 65.39 128.26
  Z
  M 133.74 160.54
  L 51.96 160.40
  A 0.34 0.34 0.0 0 0 51.62 160.74
  L 51.61 166.65
  A 5.76 5.47 0.1 0 0 57.36 172.13
  L 128.30 172.25
  A 5.76 5.47 0.1 0 0 134.07 166.79
  L 134.08 160.88
  A 0.34 0.34 0.0 0 0 133.74 160.54
  Z"
/>
<path fill="#ffffff" d="
  M 64.53 129.11
  L 61.20 129.05
  A 2.53 2.53 0.0 0 0 58.64 131.84
  L 58.67 132.09
  A 2.58 2.58 0.0 0 0 61.51 134.37
  C 68.31 133.64 75.47 133.92 81.87 133.68
  Q 106.33 132.73 129.39 132.38
  Q 137.73 132.26 139.05 132.70
  C 150.76 136.59 149.13 151.08 138.25 154.87
  Q 136.29 155.55 131.67 155.54
  Q 63.19 155.40 59.19 155.48
  Q 51.98 155.62 49.59 154.10
  C 44.93 151.13 43.54 148.25 42.46 142.39
  Q 31.47 82.70 25.73 51.35
  Q 24.57 45.00 25.17 43.12
  C 26.89 37.71 34.55 37.45 39.09 38.40
  C 46.75 39.98 46.73 48.10 46.63 55.23
  A 3.09 2.99 -52.1 0 0 46.70 55.88
  L 47.20 58.14
  A 0.07 0.05 -58.3 0 1 47.20 58.19
  Q 47.15 63.75 48.20 71.07
  C 48.50 73.16 49.13 75.40 50.18 77.28
  C 55.66 87.05 60.77 97.13 62.88 107.89
  Q 65.36 120.55 65.39 128.26
  A 0.85 0.85 0.0 0 1 64.53 129.11
  Z
  M 104.02 143.71
  A 3.60 3.60 0.0 0 0 100.42 140.11
  A 3.60 3.60 0.0 0 0 96.82 143.71
  A 3.60 3.60 0.0 0 0 100.42 147.31
  A 3.60 3.60 0.0 0 0 104.02 143.71
  Z
  M 118.70 143.71
  A 3.63 3.63 0.0 0 0 115.07 140.08
  A 3.63 3.63 0.0 0 0 111.44 143.71
  A 3.63 3.63 0.0 0 0 115.07 147.34
  A 3.63 3.63 0.0 0 0 118.70 143.71
  Z
  M 133.34 143.76
  A 3.60 3.60 0.0 0 0 129.74 140.16
  A 3.60 3.60 0.0 0 0 126.14 143.76
  A 3.60 3.60 0.0 0 0 129.74 147.36
  A 3.60 3.60 0.0 0 0 133.34 143.76
  Z"
/>
<path fill="#fdedec" d="
  M 20.04 43.29
  Q 19.92 47.32 20.22 49.00
  Q 23.25 66.37 35.59 133.32
  Q 17.59 123.87 9.61 107.01
  C 0.35 87.46 2.79 65.25 15.79 47.81
  Q 17.66 45.31 20.04 43.29
  Z"
/>
<path fill="#000000" d="
  M 113.74 102.88
  L 113.88 96.35
  A 0.57 0.57 0.0 0 0 113.30 95.76
  Q 97.71 95.84 88.56 95.77
  Q 83.39 95.72 81.48 90.64
  A 2.74 2.74 0.0 0 1 81.31 89.69
  L 81.31 78.23
  A 2.81 2.79 56.1 0 1 81.51 77.19
  Q 83.25 72.82 87.55 72.75
  Q 92.41 72.67 113.22 72.71
  A 0.72 0.72 0.0 0 0 113.94 71.97
  L 113.74 62.68
  Q 116.20 57.60 121.16 59.41
  A 2.74 2.71 75.8 0 1 122.04 59.94
  Q 135.91 72.56 142.85 79.38
  C 147.39 83.84 144.48 87.54 140.48 91.25
  Q 127.70 103.09 124.82 105.81
  C 121.84 108.63 118.66 109.69 115.36 106.92
  Q 113.84 105.64 113.74 102.88
  Z
  M 116.72 77.82
  L 87.37 77.79
  A 0.86 0.85 -0.0 0 0 86.51 78.64
  L 86.51 89.30
  A 1.13 1.13 0.0 0 0 87.64 90.43
  L 116.25 90.50
  Q 119.18 92.11 119.11 95.75
  Q 118.99 101.71 119.03 102.49
  A 0.72 0.72 0.0 0 0 120.24 102.98
  L 139.88 84.41
  A 0.55 0.54 -45.3 0 0 139.88 83.62
  L 119.67 64.85
  A 0.41 0.41 0.0 0 0 118.99 65.22
  Q 120.36 73.53 116.72 77.82
  Z"
/>
<path fill="#ffffff" d="
  M 116.25 90.50
  Q 117.25 84.41 116.72 77.82
  Q 120.36 73.53 118.99 65.22
  A 0.41 0.41 0.0 0 1 119.67 64.85
  L 139.88 83.62
  A 0.55 0.54 -45.3 0 1 139.88 84.41
  L 120.24 102.98
  A 0.72 0.72 0.0 0 1 119.03 102.49
  Q 118.99 101.71 119.11 95.75
  Q 119.18 92.11 116.25 90.50
  Z"
/>
<path fill="#fdedec" d="
  M 116.72 77.82
  Q 117.25 84.41 116.25 90.50
  L 87.64 90.43
  A 1.13 1.13 0.0 0 1 86.51 89.30
  L 86.51 78.64
  A 0.86 0.85 -0.0 0 1 87.37 77.79
  L 116.72 77.82
  Z"
/>
<circle fill="#000000" cx="100.42" cy="143.71" r="3.60"/>
<circle fill="#000000" cx="115.07" cy="143.71" r="3.63"/>
<circle fill="#000000" cx="129.74" cy="143.76" r="3.60"/>
<path fill="#ffffff" d="
  M 133.74 160.54
  A 0.34 0.34 0.0 0 1 134.08 160.88
  L 134.07 166.79
  A 5.76 5.47 0.1 0 1 128.30 172.25
  L 57.36 172.13
  A 5.76 5.47 0.1 0 1 51.61 166.65
  L 51.62 160.74
  A 0.34 0.34 0.0 0 1 51.96 160.40
  L 133.74 160.54
  Z"
/>
</svg>
