<?xml version="1.0" encoding="utf-8"?>
<svg version="1.1" viewBox="0.00 0.00 209.00 204.00" xmlns="http://www.w3.org/2000/svg"><g id="offState" style="display:inline"><g fill="none" stroke-linecap="butt" stroke-width="2.00">
<path class="icon-shape" d="   M 73.65 106.02   Q 66.69 105.76 57.09 106.10   Q 53.26 106.23 52.20 108.97   Q 36.82 148.58 35.42 152.14   C 33.57 156.84 35.25 161.07 40.77 161.06   Q 140.68 160.97 167.01 161.08   C 170.84 161.10 173.93 159.90 174.63 156.04   Q 174.88 154.69 173.55 151.20   Q 165.19 129.25 163.33 124.35   A 0.97 0.97 0.0 0 1 163.51 123.36   C 171.64 114.19 172.60 100.33 165.33 90.41   C 150.30 69.92 119.96 80.53 119.12 105.02   A 0.81 0.81 0.0 0 1 118.31 105.80   L 114.81 105.80   A 0.32 0.32 0.0 0 1 114.53 105.33   Q 119.22 96.40 124.52 85.03   Q 127.46 78.71 128.42 74.48   C 132.16 57.96 122.41 40.80 106.57 35.23   Q 92.59 30.31 80.24 35.90   C 62.59 43.90 54.79 64.20 62.61 82.14   Q 67.81 94.07 74.03 105.41   A 0.41 0.41 0.0 0 1 73.65 106.02" stroke="#d9d8da" vector-effect="non-scaling-stroke"/>
<path class="icon-shape" d="   M 94.11 128.17   Q 94.41 128.17 95.10 127.16   Q 107.25 109.17 116.65 90.29   Q 122.83 77.88 123.67 73.51   C 127.18 55.25 113.08 38.09 94.47 38.02   C 75.85 37.94 61.62 54.99 64.98 73.28   Q 65.79 77.65 71.87 90.11   Q 81.12 109.07 93.13 127.15   Q 93.80 128.17 94.11 128.17" stroke="#d9d8da" vector-effect="non-scaling-stroke"/>
<path class="icon-shape" d="   M 142.4547 84.6211   A 21.04 20.66 -96.4 0 0 124.2688 107.8329   A 21.04 20.66 -96.4 0 0 147.1453 126.4389   A 21.04 20.66 -96.4 0 0 165.3312 103.2271   A 21.04 20.66 -96.4 0 0 142.4547 84.6211" stroke="#d9d8da" vector-effect="non-scaling-stroke"/>
<path class="icon-shape" d="   M 39.47 156.39   L 87.10 156.39   A 0.75 0.74 16.2 0 0 87.73 156.05   Q 96.58 142.59 112.60 138.60   Q 118.97 137.01 128.47 136.60   A 0.75 0.74 5.9 0 0 129.15 136.05   L 131.18 128.45   A 0.88 0.88 0.0 0 0 130.83 127.50   Q 122.12 121.40 119.89 111.29   A 0.80 0.79 -5.8 0 0 119.11 110.66   L 112.33 110.66   A 1.25 1.24 -75.0 0 0 111.25 111.29   Q 106.42 119.64 98.09 132.60   Q 95.63 136.43 91.72 133.83   A 4.00 3.96 -89.8 0 1 90.58 132.67   L 76.87 111.24   A 1.29 1.29 0.0 0 0 75.78 110.64   L 57.12 110.64   A 0.86 0.85 10.4 0 0 56.32 111.19   L 39.04 155.77   A 0.46 0.46 0.0 0 0 39.47 156.39" stroke="#d9d8da" vector-effect="non-scaling-stroke"/>
<path class="icon-shape" d="   M 94.03 156.38   L 168.84 156.38   A 1.08 1.07 -10.1 0 0 169.86 154.93   L 159.58 127.50   A 0.44 0.44 0.0 0 0 158.93 127.28   Q 148.61 134.00 136.48 130.30   A 0.72 0.72 0.0 0 0 135.58 130.80   L 133.18 139.82   A 2.62 2.61 8.3 0 1 130.56 141.76   C 116.33 141.30 103.31 144.73 93.78 155.83   A 0.33 0.33 0.0 0 0 94.03 156.38" stroke="#d9d8da" vector-effect="non-scaling-stroke"/>
<path class="icon-shape" d="   M 111.10 67.77   A 16.68 16.68 0.0 0 0 94.42 51.09   A 16.68 16.68 0.0 0 0 77.74 67.77   A 16.68 16.68 0.0 0 0 94.42 84.45   A 16.68 16.68 0.0 0 0 111.10 67.77" stroke="#d9d8da" vector-effect="non-scaling-stroke"/>
<path class="icon-shape" d="   M 105.94 67.74   A 11.43 11.43 0.0 0 0 94.51 56.31   A 11.43 11.43 0.0 0 0 83.08 67.74   A 11.43 11.43 0.0 0 0 94.51 79.17   A 11.43 11.43 0.0 0 0 105.94 67.74" stroke="#d9d8da" vector-effect="non-scaling-stroke"/>
<path class="icon-shape" d="   M 142.68 109.62   A 0.65 0.65 0.0 0 1 141.76 109.62   L 136.58 104.44   A 2.12 2.11 -44.9 0 0 133.59 104.44   L 133.04 104.99   A 2.06 2.06 0.0 0 0 133.16 108.01   L 141.59 115.21   A 1.77 1.75 42.6 0 0 143.97 115.12   L 156.93 102.16   A 2.44 2.44 0.0 0 0 157.03 98.81   L 156.79 98.53   A 2.01 2.01 0.0 0 0 153.86 98.45   L 142.68 109.62" stroke="#d9d8da" vector-effect="non-scaling-stroke"/>
</g>
<path class="icon-shape" d="   M 209.00 0.00   L 209.00 204.00   L 0.00 204.00   L 0.00 0.00   L 209.00 0.00   Z   M 73.65 106.02   Q 66.69 105.76 57.09 106.10   Q 53.26 106.23 52.20 108.97   Q 36.82 148.58 35.42 152.14   C 33.57 156.84 35.25 161.07 40.77 161.06   Q 140.68 160.97 167.01 161.08   C 170.84 161.10 173.93 159.90 174.63 156.04   Q 174.88 154.69 173.55 151.20   Q 165.19 129.25 163.33 124.35   A 0.97 0.97 0.0 0 1 163.51 123.36   C 171.64 114.19 172.60 100.33 165.33 90.41   C 150.30 69.92 119.96 80.53 119.12 105.02   A 0.81 0.81 0.0 0 1 118.31 105.80   L 114.81 105.80   A 0.32 0.32 0.0 0 1 114.53 105.33   Q 119.22 96.40 124.52 85.03   Q 127.46 78.71 128.42 74.48   C 132.16 57.96 122.41 40.80 106.57 35.23   Q 92.59 30.31 80.24 35.90   C 62.59 43.90 54.79 64.20 62.61 82.14   Q 67.81 94.07 74.03 105.41   A 0.41 0.41 0.0 0 1 73.65 106.02   Z" fill="#ffffff"/>
<path class="icon-shape" d="   M 73.65 106.02   A 0.41 0.41 0.0 0 0 74.03 105.41   Q 67.81 94.07 62.61 82.14   C 54.79 64.20 62.59 43.90 80.24 35.90   Q 92.59 30.31 106.57 35.23   C 122.41 40.80 132.16 57.96 128.42 74.48   Q 127.46 78.71 124.52 85.03   Q 119.22 96.40 114.53 105.33   A 0.32 0.32 0.0 0 0 114.81 105.80   L 118.31 105.80   A 0.81 0.81 0.0 0 0 119.12 105.02   C 119.96 80.53 150.30 69.92 165.33 90.41   C 172.60 100.33 171.64 114.19 163.51 123.36   A 0.97 0.97 0.0 0 0 163.33 124.35   Q 165.19 129.25 173.55 151.20   Q 174.88 154.69 174.63 156.04   C 173.93 159.90 170.84 161.10 167.01 161.08   Q 140.68 160.97 40.77 161.06   C 35.25 161.07 33.57 156.84 35.42 152.14   Q 36.82 148.58 52.20 108.97   Q 53.26 106.23 57.09 106.10   Q 66.69 105.76 73.65 106.02   Z   M 94.11 128.17   Q 94.41 128.17 95.10 127.16   Q 107.25 109.17 116.65 90.29   Q 122.83 77.88 123.67 73.51   C 127.18 55.25 113.08 38.09 94.47 38.02   C 75.85 37.94 61.62 54.99 64.98 73.28   Q 65.79 77.65 71.87 90.11   Q 81.12 109.07 93.13 127.15   Q 93.80 128.17 94.11 128.17   Z   M 142.4547 84.6211   A 21.04 20.66 -96.4 0 0 124.2688 107.8329   A 21.04 20.66 -96.4 0 0 147.1453 126.4389   A 21.04 20.66 -96.4 0 0 165.3312 103.2271   A 21.04 20.66 -96.4 0 0 142.4547 84.6211   Z   M 39.47 156.39   L 87.10 156.39   A 0.75 0.74 16.2 0 0 87.73 156.05   Q 96.58 142.59 112.60 138.60   Q 118.97 137.01 128.47 136.60   A 0.75 0.74 5.9 0 0 129.15 136.05   L 131.18 128.45   A 0.88 0.88 0.0 0 0 130.83 127.50   Q 122.12 121.40 119.89 111.29   A 0.80 0.79 -5.8 0 0 119.11 110.66   L 112.33 110.66   A 1.25 1.24 -75.0 0 0 111.25 111.29   Q 106.42 119.64 98.09 132.60   Q 95.63 136.43 91.72 133.83   A 4.00 3.96 -89.8 0 1 90.58 132.67   L 76.87 111.24   A 1.29 1.29 0.0 0 0 75.78 110.64   L 57.12 110.64   A 0.86 0.85 10.4 0 0 56.32 111.19   L 39.04 155.77   A 0.46 0.46 0.0 0 0 39.47 156.39   Z   M 94.03 156.38   L 168.84 156.38   A 1.08 1.07 -10.1 0 0 169.86 154.93   L 159.58 127.50   A 0.44 0.44 0.0 0 0 158.93 127.28   Q 148.61 134.00 136.48 130.30   A 0.72 0.72 0.0 0 0 135.58 130.80   L 133.18 139.82   A 2.62 2.61 8.3 0 1 130.56 141.76   C 116.33 141.30 103.31 144.73 93.78 155.83   A 0.33 0.33 0.0 0 0 94.03 156.38   Z" fill="#b2b0b4"/>
<path class="icon-shape" d="   M 94.47 38.02   C 113.08 38.09 127.18 55.25 123.67 73.51   Q 122.83 77.88 116.65 90.29   Q 107.25 109.17 95.10 127.16   Q 94.41 128.17 94.11 128.17   Q 93.80 128.17 93.13 127.15   Q 81.12 109.07 71.87 90.11   Q 65.79 77.65 64.98 73.28   C 61.62 54.99 75.85 37.94 94.47 38.02   Z   M 111.10 67.77   A 16.68 16.68 0.0 0 0 94.42 51.09   A 16.68 16.68 0.0 0 0 77.74 67.77   A 16.68 16.68 0.0 0 0 94.42 84.45   A 16.68 16.68 0.0 0 0 111.10 67.77   Z" fill="#ffffff"/>
<path class="icon-shape" d="   M 111.10 67.77   A 16.68 16.68 0.0 0 1 94.42 84.45   A 16.68 16.68 0.0 0 1 77.74 67.77   A 16.68 16.68 0.0 0 1 94.42 51.09   A 16.68 16.68 0.0 0 1 111.10 67.77   Z   M 105.94 67.74   A 11.43 11.43 0.0 0 0 94.51 56.31   A 11.43 11.43 0.0 0 0 83.08 67.74   A 11.43 11.43 0.0 0 0 94.51 79.17   A 11.43 11.43 0.0 0 0 105.94 67.74   Z" fill="#b2b0b4"/>
<circle cx="94.51" cy="67.74" fill="#ffffff" r="11.43"/>
<path class="icon-shape" d="   M 142.4547 84.6211   A 21.04 20.66 -96.4 0 1 165.3312 103.2271   A 21.04 20.66 -96.4 0 1 147.1453 126.4389   A 21.04 20.66 -96.4 0 1 124.2688 107.8329   A 21.04 20.66 -96.4 0 1 142.4547 84.6211   Z   M 142.68 109.62   A 0.65 0.65 0.0 0 1 141.76 109.62   L 136.58 104.44   A 2.12 2.11 -44.9 0 0 133.59 104.44   L 133.04 104.99   A 2.06 2.06 0.0 0 0 133.16 108.01   L 141.59 115.21   A 1.77 1.75 42.6 0 0 143.97 115.12   L 156.93 102.16   A 2.44 2.44 0.0 0 0 157.03 98.81   L 156.79 98.53   A 2.01 2.01 0.0 0 0 153.86 98.45   L 142.68 109.62   Z" fill="#ffffff"/>
<path class="icon-shape" d="   M 142.68 109.62   L 153.86 98.45   A 2.01 2.01 0.0 0 1 156.79 98.53   L 157.03 98.81   A 2.44 2.44 0.0 0 1 156.93 102.16   L 143.97 115.12   A 1.77 1.75 42.6 0 1 141.59 115.21   L 133.16 108.01   A 2.06 2.06 0.0 0 1 133.04 104.99   L 133.59 104.44   A 2.12 2.11 -44.9 0 1 136.58 104.44   L 141.76 109.62   A 0.65 0.65 0.0 0 0 142.68 109.62   Z" fill="#b2b0b4"/>
<path class="icon-shape" d="   M 39.47 156.39   A 0.46 0.46 0.0 0 1 39.04 155.77   L 56.32 111.19   A 0.86 0.85 10.4 0 1 57.12 110.64   L 75.78 110.64   A 1.29 1.29 0.0 0 1 76.87 111.24   L 90.58 132.67   A 4.00 3.96 -89.8 0 0 91.72 133.83   Q 95.63 136.43 98.09 132.60   Q 106.42 119.64 111.25 111.29   A 1.25 1.24 -75.0 0 1 112.33 110.66   L 119.11 110.66   A 0.80 0.79 -5.8 0 1 119.89 111.29   Q 122.12 121.40 130.83 127.50   A 0.88 0.88 0.0 0 1 131.18 128.45   L 129.15 136.05   A 0.75 0.74 5.9 0 1 128.47 136.60   Q 118.97 137.01 112.60 138.60   Q 96.58 142.59 87.73 156.05   A 0.75 0.74 16.2 0 1 87.10 156.39   L 39.47 156.39   Z" fill="#ffffff"/>
<path class="icon-shape" d="   M 94.03 156.38   A 0.33 0.33 0.0 0 1 93.78 155.83   C 103.31 144.73 116.33 141.30 130.56 141.76   A 2.62 2.61 8.3 0 0 133.18 139.82   L 135.58 130.80   A 0.72 0.72 0.0 0 1 136.48 130.30   Q 148.61 134.00 158.93 127.28   A 0.44 0.44 0.0 0 1 159.58 127.50   L 169.86 154.93   A 1.08 1.07 -10.1 0 1 168.84 156.38   L 94.03 156.38   Z" fill="#ffffff"/>
</g><g id="onState" style="display:none"><g fill="none" stroke-linecap="butt" stroke-width="2.00">
<path class="icon-shape" d="   M 45.06 127.06   Q 40.65 138.48 36.17 149.95   Q 34.19 155.03 34.75 157.38   Q 35.63 161.07 40.77 161.07   Q 123.10 161.07 166.06 161.09   C 171.10 161.10 173.89 160.42 174.81 155.39   A 2.46 2.39 -50.7 0 0 174.70 154.11   L 163.43 124.34   A 0.96 0.95 -35.0 0 1 163.60 123.38   C 172.02 113.79 172.78 98.53 164.23 88.77   Q 153.27 76.26 136.41 80.71" stroke="#808080" vector-effect="non-scaling-stroke"/>
<path class="icon-shape" d="   M 136.41 80.71   C 134.54 68.11 131.83 58.59 125.00 48.02   Q 123.64 45.92 120.21 44.05" stroke="#fef6f6" vector-effect="non-scaling-stroke"/>
<path class="icon-shape" d="   M 120.21 44.05   L 118.69 42.42" stroke="#808080" vector-effect="non-scaling-stroke"/>
<path class="icon-shape" d="   M 118.69 42.42   Q 116.48 38.55 113.15 36.35   C 69.02 7.23 12.76 44.00 24.76 96.26   C 27.34 107.52 35.01 120.27 45.06 127.06" stroke="#fef6f6" vector-effect="non-scaling-stroke"/>
<path class="icon-shape" d="   M 118.69 42.42   C 104.90 30.33 84.46 29.38 71.06 41.79   Q 57.66 54.20 59.89 73.43   Q 60.29 76.83 61.75 80.25   Q 68.06 94.95 74.01 105.41   A 0.36 0.36 0.0 0 1 73.69 105.95   Q 66.99 105.83 57.28 106.00   Q 53.17 106.07 51.96 109.25   Q 48.58 118.14 45.06 127.06" stroke="#7f7777" vector-effect="non-scaling-stroke"/>
<path class="icon-shape" d="   M 120.21 44.05   Q 133.89 60.83 126.87 79.85   Q 126.07 82.01 120.95 92.65   Q 116.99 100.89 114.58 105.24   A 0.32 0.32 0.0 0 0 114.86 105.71   L 118.39 105.71   A 0.60 0.60 0.0 0 0 118.99 105.15   Q 120.16 87.40 136.41 80.71" stroke="#7f7777" vector-effect="non-scaling-stroke"/>
<path class="icon-shape" d="   M 94.15 128.28   Q 94.24 128.28 94.33 128.24   Q 94.36 128.23 94.45 128.10   Q 107.55 108.88 118.17 87.14   Q 123.83 75.53 124.16 69.75   C 125.11 52.84 111.73 38.16 94.45 38.10   C 77.16 38.05 63.68 52.63 64.52 69.55   Q 64.81 75.33 70.40 86.98   Q 80.87 108.79 93.84 128.10   Q 93.93 128.23 93.96 128.24   Q 94.05 128.28 94.15 128.28" stroke="#808080" vector-effect="non-scaling-stroke"/>
<path class="icon-shape" d="   M 142.7327 84.6501   A 20.98 20.61 -95.6 0 0 124.2684 107.5412   A 20.98 20.61 -95.6 0 0 146.8273 126.4099   A 20.98 20.61 -95.6 0 0 165.2916 103.5188   A 20.98 20.61 -95.6 0 0 142.7327 84.6501" stroke="#808080" vector-effect="non-scaling-stroke"/>
<path class="icon-shape" d="   M 39.73 156.31   L 86.88 156.31   A 1.14 1.11 -72.4 0 0 87.81 155.81   Q 98.42 140.19 117.78 137.52   Q 122.65 136.85 128.46 136.48   A 0.74 0.73 5.7 0 0 129.11 135.95   L 131.13 128.37   A 0.81 0.79 24.6 0 0 130.80 127.51   C 125.16 123.77 121.38 118.02 119.75 111.31   A 0.80 0.79 -6.3 0 0 118.97 110.70   L 112.26 110.70   A 1.01 1.00 15.0 0 0 111.39 111.20   Q 105.63 120.85 98.12 132.63   Q 95.72 136.39 91.85 134.01   A 4.16 4.08 0.4 0 1 90.55 132.72   L 76.68 110.98   A 0.60 0.58 -15.5 0 0 76.18 110.71   L 57.12 110.71   A 0.80 0.80 0.0 0 0 56.38 111.21   L 39.20 155.53   A 0.57 0.57 0.0 0 0 39.73 156.31" stroke="#808080" vector-effect="non-scaling-stroke"/>
<path class="icon-shape" d="   M 93.99 156.31   L 168.77 156.31   A 1.10 1.10 0.0 0 0 169.80 154.82   L 159.51 127.63   A 0.46 0.46 0.0 0 0 158.84 127.41   Q 148.32 134.11 136.51 130.33   A 0.67 0.67 0.0 0 0 135.66 130.79   L 133.28 139.74   A 2.85 2.84 -81.3 0 1 130.42 141.85   C 120.74 141.46 111.33 143.03 102.92 147.99   C 99.33 150.10 96.63 153.08 93.78 155.79   A 0.30 0.30 0.0 0 0 93.99 156.31" stroke="#808080" vector-effect="non-scaling-stroke"/>
<path class="icon-shape" d="   M 111.15 67.76   A 16.72 16.72 0.0 0 0 94.43 51.04   A 16.72 16.72 0.0 0 0 77.71 67.76   A 16.72 16.72 0.0 0 0 94.43 84.48   A 16.72 16.72 0.0 0 0 111.15 67.76" stroke="#808080" vector-effect="non-scaling-stroke"/>
<path class="icon-shape" d="   M 105.89 67.76   A 11.39 11.39 0.0 0 0 94.50 56.37   A 11.39 11.39 0.0 0 0 83.11 67.76   A 11.39 11.39 0.0 0 0 94.50 79.15   A 11.39 11.39 0.0 0 0 105.89 67.76" stroke="#7f7777" vector-effect="non-scaling-stroke"/>
<path class="icon-shape" d="   M 141.97 109.55   L 136.57 104.48   A 2.37 2.36 -48.0 0 0 133.17 104.66   L 133.08 104.76   A 2.43 2.42 41.5 0 0 133.30 108.21   Q 137.27 111.65 141.08 114.96   Q 142.85 116.49 144.63 114.68   Q 150.68 108.55 157.04 102.17   A 2.45 2.45 0.0 0 0 157.04 98.70   L 156.86 98.50   A 2.19 2.18 -43.7 0 0 153.70 98.43   L 142.59 109.54   A 0.45 0.45 0.0 0 1 141.97 109.55" stroke="#808080" vector-effect="non-scaling-stroke"/>
</g>
<path class="icon-shape" d="   M 209.00 0.00   L 209.00 204.00   L 0.00 204.00   L 0.00 0.00   L 209.00 0.00   Z   M 45.06 127.06   Q 40.65 138.48 36.17 149.95   Q 34.19 155.03 34.75 157.38   Q 35.63 161.07 40.77 161.07   Q 123.10 161.07 166.06 161.09   C 171.10 161.10 173.89 160.42 174.81 155.39   A 2.46 2.39 -50.7 0 0 174.70 154.11   L 163.43 124.34   A 0.96 0.95 -35.0 0 1 163.60 123.38   C 172.02 113.79 172.78 98.53 164.23 88.77   Q 153.27 76.26 136.41 80.71   C 134.54 68.11 131.83 58.59 125.00 48.02   Q 123.64 45.92 120.21 44.05   L 118.69 42.42   Q 116.48 38.55 113.15 36.35   C 69.02 7.23 12.76 44.00 24.76 96.26   C 27.34 107.52 35.01 120.27 45.06 127.06   Z" fill="#ffffff"/>
<path class="icon-shape" d="   M 118.69 42.42   C 104.90 30.33 84.46 29.38 71.06 41.79   Q 57.66 54.20 59.89 73.43   Q 60.29 76.83 61.75 80.25   Q 68.06 94.95 74.01 105.41   A 0.36 0.36 0.0 0 1 73.69 105.95   Q 66.99 105.83 57.28 106.00   Q 53.17 106.07 51.96 109.25   Q 48.58 118.14 45.06 127.06   C 35.01 120.27 27.34 107.52 24.76 96.26   C 12.76 44.00 69.02 7.23 113.15 36.35   Q 116.48 38.55 118.69 42.42   Z" fill="#fdedec"/>
<path class="icon-shape" d="   M 118.69 42.42   L 120.21 44.05   Q 133.89 60.83 126.87 79.85   Q 126.07 82.01 120.95 92.65   Q 116.99 100.89 114.58 105.24   A 0.32 0.32 0.0 0 0 114.86 105.71   L 118.39 105.71   A 0.60 0.60 0.0 0 0 118.99 105.15   Q 120.16 87.40 136.41 80.71   Q 153.27 76.26 164.23 88.77   C 172.78 98.53 172.02 113.79 163.60 123.38   A 0.96 0.95 -35.0 0 0 163.43 124.34   L 174.70 154.11   A 2.46 2.39 -50.7 0 1 174.81 155.39   C 173.89 160.42 171.10 161.10 166.06 161.09   Q 123.10 161.07 40.77 161.07   Q 35.63 161.07 34.75 157.38   Q 34.19 155.03 36.17 149.95   Q 40.65 138.48 45.06 127.06   Q 48.58 118.14 51.96 109.25   Q 53.17 106.07 57.28 106.00   Q 66.99 105.83 73.69 105.95   A 0.36 0.36 0.0 0 0 74.01 105.41   Q 68.06 94.95 61.75 80.25   Q 60.29 76.83 59.89 73.43   Q 57.66 54.20 71.06 41.79   C 84.46 29.38 104.90 30.33 118.69 42.42   Z   M 94.15 128.28   Q 94.24 128.28 94.33 128.24   Q 94.36 128.23 94.45 128.10   Q 107.55 108.88 118.17 87.14   Q 123.83 75.53 124.16 69.75   C 125.11 52.84 111.73 38.16 94.45 38.10   C 77.16 38.05 63.68 52.63 64.52 69.55   Q 64.81 75.33 70.40 86.98   Q 80.87 108.79 93.84 128.10   Q 93.93 128.23 93.96 128.24   Q 94.05 128.28 94.15 128.28   Z   M 142.7327 84.6501   A 20.98 20.61 -95.6 0 0 124.2684 107.5412   A 20.98 20.61 -95.6 0 0 146.8273 126.4099   A 20.98 20.61 -95.6 0 0 165.2916 103.5188   A 20.98 20.61 -95.6 0 0 142.7327 84.6501   Z   M 39.73 156.31   L 86.88 156.31   A 1.14 1.11 -72.4 0 0 87.81 155.81   Q 98.42 140.19 117.78 137.52   Q 122.65 136.85 128.46 136.48   A 0.74 0.73 5.7 0 0 129.11 135.95   L 131.13 128.37   A 0.81 0.79 24.6 0 0 130.80 127.51   C 125.16 123.77 121.38 118.02 119.75 111.31   A 0.80 0.79 -6.3 0 0 118.97 110.70   L 112.26 110.70   A 1.01 1.00 15.0 0 0 111.39 111.20   Q 105.63 120.85 98.12 132.63   Q 95.72 136.39 91.85 134.01   A 4.16 4.08 0.4 0 1 90.55 132.72   L 76.68 110.98   A 0.60 0.58 -15.5 0 0 76.18 110.71   L 57.12 110.71   A 0.80 0.80 0.0 0 0 56.38 111.21   L 39.20 155.53   A 0.57 0.57 0.0 0 0 39.73 156.31   Z   M 93.99 156.31   L 168.77 156.31   A 1.10 1.10 0.0 0 0 169.80 154.82   L 159.51 127.63   A 0.46 0.46 0.0 0 0 158.84 127.41   Q 148.32 134.11 136.51 130.33   A 0.67 0.67 0.0 0 0 135.66 130.79   L 133.28 139.74   A 2.85 2.84 -81.3 0 1 130.42 141.85   C 120.74 141.46 111.33 143.03 102.92 147.99   C 99.33 150.10 96.63 153.08 93.78 155.79   A 0.30 0.30 0.0 0 0 93.99 156.31   Z" fill="#010101"/>
<path class="icon-shape" d="   M 94.45 38.10   C 111.73 38.16 125.11 52.84 124.16 69.75   Q 123.83 75.53 118.17 87.14   Q 107.55 108.88 94.45 128.10   Q 94.36 128.23 94.33 128.24   Q 94.24 128.28 94.15 128.28   Q 94.05 128.28 93.96 128.24   Q 93.93 128.23 93.84 128.10   Q 80.87 108.79 70.40 86.98   Q 64.81 75.33 64.52 69.55   C 63.68 52.63 77.16 38.05 94.45 38.10   Z   M 111.15 67.76   A 16.72 16.72 0.0 0 0 94.43 51.04   A 16.72 16.72 0.0 0 0 77.71 67.76   A 16.72 16.72 0.0 0 0 94.43 84.48   A 16.72 16.72 0.0 0 0 111.15 67.76   Z" fill="#ffffff"/>
<path class="icon-shape" d="   M 136.41 80.71   Q 120.16 87.40 118.99 105.15   A 0.60 0.60 0.0 0 1 118.39 105.71   L 114.86 105.71   A 0.32 0.32 0.0 0 1 114.58 105.24   Q 116.99 100.89 120.95 92.65   Q 126.07 82.01 126.87 79.85   Q 133.89 60.83 120.21 44.05   Q 123.64 45.92 125.00 48.02   C 131.83 58.59 134.54 68.11 136.41 80.71   Z" fill="#fdedec"/>
<path class="icon-shape" d="   M 111.15 67.76   A 16.72 16.72 0.0 0 1 94.43 84.48   A 16.72 16.72 0.0 0 1 77.71 67.76   A 16.72 16.72 0.0 0 1 94.43 51.04   A 16.72 16.72 0.0 0 1 111.15 67.76   Z   M 105.89 67.76   A 11.39 11.39 0.0 0 0 94.50 56.37   A 11.39 11.39 0.0 0 0 83.11 67.76   A 11.39 11.39 0.0 0 0 94.50 79.15   A 11.39 11.39 0.0 0 0 105.89 67.76   Z" fill="#010101"/>
<circle cx="94.50" cy="67.76" fill="#fdedec" r="11.39"/>
<path class="icon-shape" d="   M 142.7327 84.6501   A 20.98 20.61 -95.6 0 1 165.2916 103.5188   A 20.98 20.61 -95.6 0 1 146.8273 126.4099   A 20.98 20.61 -95.6 0 1 124.2684 107.5412   A 20.98 20.61 -95.6 0 1 142.7327 84.6501   Z   M 141.97 109.55   L 136.57 104.48   A 2.37 2.36 -48.0 0 0 133.17 104.66   L 133.08 104.76   A 2.43 2.42 41.5 0 0 133.30 108.21   Q 137.27 111.65 141.08 114.96   Q 142.85 116.49 144.63 114.68   Q 150.68 108.55 157.04 102.17   A 2.45 2.45 0.0 0 0 157.04 98.70   L 156.86 98.50   A 2.19 2.18 -43.7 0 0 153.70 98.43   L 142.59 109.54   A 0.45 0.45 0.0 0 1 141.97 109.55   Z" fill="#ffffff"/>
<path class="icon-shape" d="   M 141.97 109.55   A 0.45 0.45 0.0 0 0 142.59 109.54   L 153.70 98.43   A 2.19 2.18 -43.7 0 1 156.86 98.50   L 157.04 98.70   A 2.45 2.45 0.0 0 1 157.04 102.17   Q 150.68 108.55 144.63 114.68   Q 142.85 116.49 141.08 114.96   Q 137.27 111.65 133.30 108.21   A 2.43 2.42 41.5 0 1 133.08 104.76   L 133.17 104.66   A 2.37 2.36 -48.0 0 1 136.57 104.48   L 141.97 109.55   Z" fill="#010101"/>
<path class="icon-shape" d="   M 39.20 155.53   L 56.38 111.21   A 0.80 0.80 0.0 0 1 57.12 110.71   L 76.18 110.71   A 0.60 0.58 -15.5 0 1 76.68 110.98   L 90.55 132.72   A 4.16 4.08 0.4 0 0 91.85 134.01   Q 95.72 136.39 98.12 132.63   Q 105.63 120.85 111.39 111.20   A 1.01 1.00 15.0 0 1 112.26 110.70   L 118.97 110.70   A 0.80 0.79 -6.3 0 1 119.75 111.31   C 121.38 118.02 125.16 123.77 130.80 127.51   A 0.81 0.79 24.6 0 1 131.13 128.37   L 129.11 135.95   A 0.74 0.73 5.7 0 1 128.46 136.48   Q 122.65 136.85 117.78 137.52   Q 98.42 140.19 87.81 155.81   A 1.14 1.11 -72.4 0 1 86.88 156.31   L 39.73 156.31   A 0.57 0.57 0.0 0 1 39.20 155.53   Z" fill="#ffffff"/>
<path class="icon-shape" d="   M 93.99 156.31   A 0.30 0.30 0.0 0 1 93.78 155.79   C 96.63 153.08 99.33 150.10 102.92 147.99   C 111.33 143.03 120.74 141.46 130.42 141.85   A 2.85 2.84 -81.3 0 0 133.28 139.74   L 135.66 130.79   A 0.67 0.67 0.0 0 1 136.51 130.33   Q 148.32 134.11 158.84 127.41   A 0.46 0.46 0.0 0 1 159.51 127.63   L 169.80 154.82   A 1.10 1.10 0.0 0 1 168.77 156.31   L 93.99 156.31   Z" fill="#ffffff"/>
</g></svg>