<?xml version="1.0" encoding="UTF-8" standalone="no"?>
<!DOCTYPE svg PUBLIC "-//W3C//DTD SVG 1.1//EN" "http://www.w3.org/Graphics/SVG/1.1/DTD/svg11.dtd">
<svg xmlns="http://www.w3.org/2000/svg" version="1.1" viewBox="0.00 0.00 195.00 197.00">
<g stroke-width="2.00" fill="none" stroke-linecap="butt">
<path stroke="#fef6f6" vector-effect="non-scaling-stroke" d="
  M 135.42 71.07
  C 133.10 67.80 130.83 63.93 128.62 61.20
  C 107.36 35.01 68.22 32.69 44.26 56.83
  C 24.81 76.44 22.75 107.58 38.79 129.71
  C 56.38 153.97 89.78 160.01 115.11 143.98
  C 118.48 141.84 122.15 138.61 125.66 135.90"
/>
<path stroke="#818181" vector-effect="non-scaling-stroke" d="
  M 125.66 135.90
  Q 127.76 143.76 132.96 149.29
  Q 137.82 154.47 145.63 158.66
  A 2.42 2.42 0.0 0 0 148.64 158.08
  L 148.76 157.93
  A 1.89 1.88 -54.7 0 0 148.28 155.10
  Q 145.46 153.31 142.73 151.53
  Q 130.67 143.70 129.35 130.37"
/>
<path stroke="#fef6f6" vector-effect="non-scaling-stroke" d="
  M 129.35 130.37
  Q 137.11 121.17 138.99 109.99"
/>
<path stroke="#818181" vector-effect="non-scaling-stroke" d="
  M 138.99 109.99
  L 148.33 102.87
  A 2.22 1.97 -35.0 0 0 148.99 100.12
  L 148.95 100.05
  A 2.22 2.02 58.2 0 0 146.07 99.23
  L 141.03 102.30"
/>
<path stroke="#fef6f6" vector-effect="non-scaling-stroke" d="
  M 141.03 102.30
  L 139.96 84.66"
/>
<path stroke="#818181" vector-effect="non-scaling-stroke" d="
  M 139.96 84.66
  L 179.10 84.60
  A 2.25 2.00 -48.4 0 0 179.60 84.54
  Q 186.89 82.47 184.58 75.51
  A 1.13 0.79 -80.0 0 0 184.51 75.36
  L 164.12 40.08
  A 0.94 0.49 27.5 0 0 164.05 39.98
  Q 159.25 34.29 153.73 39.56
  A 2.93 2.78 84.7 0 0 153.25 40.17
  L 135.42 71.07"
/>
<path stroke="#807878" vector-effect="non-scaling-stroke" d="
  M 139.96 84.66
  Q 131.29 83.77 133.05 75.54
  Q 133.29 74.45 135.42 71.07"
/>
<path stroke="#807878" vector-effect="non-scaling-stroke" d="
  M 141.03 102.30
  C 129.85 110.60 122.29 121.11 125.66 135.90"
/>
<path stroke="#807878" vector-effect="non-scaling-stroke" d="
  M 138.99 109.99
  Q 132.44 115.57 130.10 123.08
  Q 129.27 125.75 129.35 130.37"
/>
<path stroke="#818181" vector-effect="non-scaling-stroke" d="
  M 145.43 140.05
  Q 145.19 139.53 143.30 137.01
  Q 138.90 131.15 142.10 124.37
  Q 143.32 121.78 145.63 118.11
  A 2.27 2.27 0.0 0 0 145.02 115.06
  L 144.99 115.04
  A 2.14 2.13 -54.5 0 0 142.02 115.54
  C 138.93 119.89 135.63 126.00 136.29 131.23
  C 136.76 134.92 138.80 139.73 142.00 142.44
  C 143.52 143.72 145.00 142.64 145.49 141.08
  A 1.45 1.40 42.6 0 0 145.43 140.05"
/>
<path stroke="#818181" vector-effect="non-scaling-stroke" d="
  M 183.11 138.61
  L 183.17 120.97
  A 5.16 5.16 0.0 0 0 178.03 115.79
  L 159.58 115.72
  A 9.29 8.63 -89.8 0 0 150.92 124.98
  L 150.88 134.36
  A 9.29 8.63 -89.8 0 0 159.48 143.68
  L 177.93 143.75
  A 5.16 5.16 0.0 0 0 183.11 138.61"
/>
<path stroke="#818181" vector-effect="non-scaling-stroke" d="
  M 158.77 80.40
  Q 177.04 80.37 178.29 80.33
  A 2.45 2.43 5.7 0 0 180.60 78.46
  Q 180.78 77.70 180.06 76.46
  Q 167.70 55.18 160.28 42.49
  Q 159.60 41.32 158.71 41.32
  Q 157.81 41.32 157.14 42.50
  Q 149.76 55.21 137.46 76.53
  Q 136.75 77.77 136.93 78.53
  A 2.45 2.43 -5.9 0 0 139.24 80.39
  Q 140.49 80.42 158.77 80.40"
/>
<path stroke="#807878" vector-effect="non-scaling-stroke" d="
  M 50.06 55.53
  A 2.15 2.15 0.0 0 0 52.22 57.74
  Q 73.87 57.67 75.24 57.81
  Q 78.86 58.18 80.50 59.79
  Q 85.22 64.41 88.01 67.45
  Q 90.01 69.64 91.76 70.47
  Q 94.95 71.98 96.03 71.98
  Q 109.73 72.07 113.65 72.03
  A 2.18 2.18 0.0 0 0 115.80 69.81
  L 115.80 69.69
  A 2.29 2.29 0.0 0 0 113.47 67.45
  Q 104.78 67.59 97.02 67.42
  Q 94.65 67.37 92.97 65.76
  Q 89.43 62.35 86.11 58.87
  C 82.13 54.68 79.18 53.26 73.76 53.23
  Q 61.51 53.17 52.31 53.26
  A 2.28 2.28 0.0 0 0 50.06 55.48
  L 50.06 55.53"
/>
<path stroke="#807878" vector-effect="non-scaling-stroke" d="
  M 86.02 95.11
  Q 87.17 100.26 91.82 103.39
  C 94.51 105.19 98.62 105.01 101.71 104.91
  C 110.52 104.63 112.66 94.39 111.23 87.60
  Q 110.50 84.15 108.70 82.14
  C 105.09 78.11 101.47 78.27 96.48 78.56
  C 90.10 78.93 86.86 83.32 85.80 89.22
  A 0.91 0.91 0.0 0 1 85.08 89.95
  Q 83.80 90.20 79.95 90.56
  Q 67.89 91.70 52.62 91.22
  A 2.34 2.34 0.0 0 0 50.21 93.44
  L 50.21 93.51
  A 2.20 2.19 2.4 0 0 52.34 95.82
  Q 68.89 96.30 85.14 94.48
  A 0.81 0.81 0.0 0 1 86.02 95.11"
/>
<path stroke="#807878" vector-effect="non-scaling-stroke" d="
  M 114.33 136.94
  C 114.83 139.17 117.56 139.86 118.78 137.48
  A 1.28 1.26 -39.0 0 0 118.88 136.61
  Q 117.51 130.69 117.65 128.96
  Q 117.97 124.81 118.20 121.23
  A 1.92 1.92 0.0 0 0 116.37 119.18
  L 116.24 119.18
  A 2.14 2.14 0.0 0 0 114.02 121.00
  Q 112.71 129.64 114.33 136.94"
/>
<path stroke="#818181" vector-effect="non-scaling-stroke" d="
  M 160.5167 56.1319
  A 2.15 2.15 0.0 0 0 158.3780 53.9706
  L 158.1780 53.9696
  A 2.15 2.15 0.0 0 0 156.0168 56.1083
  L 155.9633 66.3281
  A 2.15 2.15 0.0 0 0 158.1020 68.4894
  L 158.3020 68.4904
  A 2.15 2.15 0.0 0 0 160.4632 66.3517
  L 160.5167 56.1319"
/>
<path stroke="#818181" vector-effect="non-scaling-stroke" d="
  M 158.3449 70.6000
  A 2.83 2.54 -89.9 0 0 155.8000 73.4256
  A 2.83 2.54 -89.9 0 0 158.3351 76.2600
  A 2.83 2.54 -89.9 0 0 160.8800 73.4344
  A 2.83 2.54 -89.9 0 0 158.3449 70.6000"
/>
<path stroke="#818181" vector-effect="non-scaling-stroke" d="
  M 101.22 82.91
  Q 95.35 82.18 92.72 85.02
  Q 89.58 88.42 90.47 93.59
  Q 91.23 98.06 96.49 100.36
  A 1.43 1.38 -32.0 0 0 97.06 100.48
  L 101.98 100.48
  A 1.16 1.11 31.0 0 0 102.47 100.37
  C 106.42 98.54 107.07 94.59 106.95 90.42
  C 106.85 86.86 104.59 83.33 101.22 82.91"
/>
<path stroke="#818181" vector-effect="non-scaling-stroke" d="
  M 178.52 138.33
  L 178.55 121.15
  A 1.05 1.05 0.0 0 0 177.51 120.10
  L 160.63 120.07
  A 5.42 5.31 -89.9 0 0 155.31 125.48
  L 155.29 133.92
  A 5.42 5.31 -89.9 0 0 160.59 139.35
  L 177.47 139.38
  A 1.05 1.05 0.0 0 0 178.52 138.33"
/>
</g>
<path fill="#ffffff" d="
  M 195.00 0.00
  L 195.00 197.00
  L 0.00 197.00
  L 0.00 0.00
  L 195.00 0.00
  Z
  M 135.42 71.07
  C 133.10 67.80 130.83 63.93 128.62 61.20
  C 107.36 35.01 68.22 32.69 44.26 56.83
  C 24.81 76.44 22.75 107.58 38.79 129.71
  C 56.38 153.97 89.78 160.01 115.11 143.98
  C 118.48 141.84 122.15 138.61 125.66 135.90
  Q 127.76 143.76 132.96 149.29
  Q 137.82 154.47 145.63 158.66
  A 2.42 2.42 0.0 0 0 148.64 158.08
  L 148.76 157.93
  A 1.89 1.88 -54.7 0 0 148.28 155.10
  Q 145.46 153.31 142.73 151.53
  Q 130.67 143.70 129.35 130.37
  Q 137.11 121.17 138.99 109.99
  L 148.33 102.87
  A 2.22 1.97 -35.0 0 0 148.99 100.12
  L 148.95 100.05
  A 2.22 2.02 58.2 0 0 146.07 99.23
  L 141.03 102.30
  L 139.96 84.66
  L 179.10 84.60
  A 2.25 2.00 -48.4 0 0 179.60 84.54
  Q 186.89 82.47 184.58 75.51
  A 1.13 0.79 -80.0 0 0 184.51 75.36
  L 164.12 40.08
  A 0.94 0.49 27.5 0 0 164.05 39.98
  Q 159.25 34.29 153.73 39.56
  A 2.93 2.78 84.7 0 0 153.25 40.17
  L 135.42 71.07
  Z
  M 145.43 140.05
  Q 145.19 139.53 143.30 137.01
  Q 138.90 131.15 142.10 124.37
  Q 143.32 121.78 145.63 118.11
  A 2.27 2.27 0.0 0 0 145.02 115.06
  L 144.99 115.04
  A 2.14 2.13 -54.5 0 0 142.02 115.54
  C 138.93 119.89 135.63 126.00 136.29 131.23
  C 136.76 134.92 138.80 139.73 142.00 142.44
  C 143.52 143.72 145.00 142.64 145.49 141.08
  A 1.45 1.40 42.6 0 0 145.43 140.05
  Z
  M 183.11 138.61
  L 183.17 120.97
  A 5.16 5.16 0.0 0 0 178.03 115.79
  L 159.58 115.72
  A 9.29 8.63 -89.8 0 0 150.92 124.98
  L 150.88 134.36
  A 9.29 8.63 -89.8 0 0 159.48 143.68
  L 177.93 143.75
  A 5.16 5.16 0.0 0 0 183.11 138.61
  Z"
/>
<path fill="#020303" d="
  M 139.96 84.66
  Q 131.29 83.77 133.05 75.54
  Q 133.29 74.45 135.42 71.07
  L 153.25 40.17
  A 2.93 2.78 84.7 0 1 153.73 39.56
  Q 159.25 34.29 164.05 39.98
  A 0.94 0.49 27.5 0 1 164.12 40.08
  L 184.51 75.36
  A 1.13 0.79 -80.0 0 1 184.58 75.51
  Q 186.89 82.47 179.60 84.54
  A 2.25 2.00 -48.4 0 1 179.10 84.60
  L 139.96 84.66
  Z
  M 158.77 80.40
  Q 177.04 80.37 178.29 80.33
  A 2.45 2.43 5.7 0 0 180.60 78.46
  Q 180.78 77.70 180.06 76.46
  Q 167.70 55.18 160.28 42.49
  Q 159.60 41.32 158.71 41.32
  Q 157.81 41.32 157.14 42.50
  Q 149.76 55.21 137.46 76.53
  Q 136.75 77.77 136.93 78.53
  A 2.45 2.43 -5.9 0 0 139.24 80.39
  Q 140.49 80.42 158.77 80.40
  Z"
/>
<path fill="#fdedec" d="
  M 135.42 71.07
  Q 133.29 74.45 133.05 75.54
  Q 131.29 83.77 139.96 84.66
  L 141.03 102.30
  C 129.85 110.60 122.29 121.11 125.66 135.90
  C 122.15 138.61 118.48 141.84 115.11 143.98
  C 89.78 160.01 56.38 153.97 38.79 129.71
  C 22.75 107.58 24.81 76.44 44.26 56.83
  C 68.22 32.69 107.36 35.01 128.62 61.20
  C 130.83 63.93 133.10 67.80 135.42 71.07
  Z
  M 50.06 55.53
  A 2.15 2.15 0.0 0 0 52.22 57.74
  Q 73.87 57.67 75.24 57.81
  Q 78.86 58.18 80.50 59.79
  Q 85.22 64.41 88.01 67.45
  Q 90.01 69.64 91.76 70.47
  Q 94.95 71.98 96.03 71.98
  Q 109.73 72.07 113.65 72.03
  A 2.18 2.18 0.0 0 0 115.80 69.81
  L 115.80 69.69
  A 2.29 2.29 0.0 0 0 113.47 67.45
  Q 104.78 67.59 97.02 67.42
  Q 94.65 67.37 92.97 65.76
  Q 89.43 62.35 86.11 58.87
  C 82.13 54.68 79.18 53.26 73.76 53.23
  Q 61.51 53.17 52.31 53.26
  A 2.28 2.28 0.0 0 0 50.06 55.48
  L 50.06 55.53
  Z
  M 86.02 95.11
  Q 87.17 100.26 91.82 103.39
  C 94.51 105.19 98.62 105.01 101.71 104.91
  C 110.52 104.63 112.66 94.39 111.23 87.60
  Q 110.50 84.15 108.70 82.14
  C 105.09 78.11 101.47 78.27 96.48 78.56
  C 90.10 78.93 86.86 83.32 85.80 89.22
  A 0.91 0.91 0.0 0 1 85.08 89.95
  Q 83.80 90.20 79.95 90.56
  Q 67.89 91.70 52.62 91.22
  A 2.34 2.34 0.0 0 0 50.21 93.44
  L 50.21 93.51
  A 2.20 2.19 2.4 0 0 52.34 95.82
  Q 68.89 96.30 85.14 94.48
  A 0.81 0.81 0.0 0 1 86.02 95.11
  Z
  M 114.33 136.94
  C 114.83 139.17 117.56 139.86 118.78 137.48
  A 1.28 1.26 -39.0 0 0 118.88 136.61
  Q 117.51 130.69 117.65 128.96
  Q 117.97 124.81 118.20 121.23
  A 1.92 1.92 0.0 0 0 116.37 119.18
  L 116.24 119.18
  A 2.14 2.14 0.0 0 0 114.02 121.00
  Q 112.71 129.64 114.33 136.94
  Z"
/>
<path fill="#ffffff" d="
  M 158.71 41.32
  Q 159.60 41.32 160.28 42.49
  Q 167.70 55.18 180.06 76.46
  Q 180.78 77.70 180.60 78.46
  A 2.45 2.43 5.7 0 1 178.29 80.33
  Q 177.04 80.37 158.77 80.40
  Q 140.49 80.42 139.24 80.39
  A 2.45 2.43 -5.9 0 1 136.93 78.53
  Q 136.75 77.77 137.46 76.53
  Q 149.76 55.21 157.14 42.50
  Q 157.81 41.32 158.71 41.32
  Z
  M 160.5167 56.1319
  A 2.15 2.15 0.0 0 0 158.3780 53.9706
  L 158.1780 53.9696
  A 2.15 2.15 0.0 0 0 156.0168 56.1083
  L 155.9633 66.3281
  A 2.15 2.15 0.0 0 0 158.1020 68.4894
  L 158.3020 68.4904
  A 2.15 2.15 0.0 0 0 160.4632 66.3517
  L 160.5167 56.1319
  Z
  M 158.3449 70.6000
  A 2.83 2.54 -89.9 0 0 155.8000 73.4256
  A 2.83 2.54 -89.9 0 0 158.3351 76.2600
  A 2.83 2.54 -89.9 0 0 160.8800 73.4344
  A 2.83 2.54 -89.9 0 0 158.3449 70.6000
  Z"
/>
<path fill="#020303" d="
  M 50.06 55.53
  L 50.06 55.48
  A 2.28 2.28 0.0 0 1 52.31 53.26
  Q 61.51 53.17 73.76 53.23
  C 79.18 53.26 82.13 54.68 86.11 58.87
  Q 89.43 62.35 92.97 65.76
  Q 94.65 67.37 97.02 67.42
  Q 104.78 67.59 113.47 67.45
  A 2.29 2.29 0.0 0 1 115.80 69.69
  L 115.80 69.81
  A 2.18 2.18 0.0 0 1 113.65 72.03
  Q 109.73 72.07 96.03 71.98
  Q 94.95 71.98 91.76 70.47
  Q 90.01 69.64 88.01 67.45
  Q 85.22 64.41 80.50 59.79
  Q 78.86 58.18 75.24 57.81
  Q 73.87 57.67 52.22 57.74
  A 2.15 2.15 0.0 0 1 50.06 55.53
  Z"
/>
<rect fill="#020303" x="-2.25" y="-7.26" transform="translate(158.24,61.23) rotate(0.3)" width="4.50" height="14.52" rx="2.15"/>
<ellipse fill="#020303" cx="0.00" cy="0.00" transform="translate(158.34,73.43) rotate(-89.9)" rx="2.83" ry="2.54"/>
<path fill="#020303" d="
  M 86.02 95.11
  A 0.81 0.81 0.0 0 0 85.14 94.48
  Q 68.89 96.30 52.34 95.82
  A 2.20 2.19 2.4 0 1 50.21 93.51
  L 50.21 93.44
  A 2.34 2.34 0.0 0 1 52.62 91.22
  Q 67.89 91.70 79.95 90.56
  Q 83.80 90.20 85.08 89.95
  A 0.91 0.91 0.0 0 0 85.80 89.22
  C 86.86 83.32 90.10 78.93 96.48 78.56
  C 101.47 78.27 105.09 78.11 108.70 82.14
  Q 110.50 84.15 111.23 87.60
  C 112.66 94.39 110.52 104.63 101.71 104.91
  C 98.62 105.01 94.51 105.19 91.82 103.39
  Q 87.17 100.26 86.02 95.11
  Z
  M 101.22 82.91
  Q 95.35 82.18 92.72 85.02
  Q 89.58 88.42 90.47 93.59
  Q 91.23 98.06 96.49 100.36
  A 1.43 1.38 -32.0 0 0 97.06 100.48
  L 101.98 100.48
  A 1.16 1.11 31.0 0 0 102.47 100.37
  C 106.42 98.54 107.07 94.59 106.95 90.42
  C 106.85 86.86 104.59 83.33 101.22 82.91
  Z"
/>
<path fill="#ffffff" d="
  M 101.22 82.91
  C 104.59 83.33 106.85 86.86 106.95 90.42
  C 107.07 94.59 106.42 98.54 102.47 100.37
  A 1.16 1.11 31.0 0 1 101.98 100.48
  L 97.06 100.48
  A 1.43 1.38 -32.0 0 1 96.49 100.36
  Q 91.23 98.06 90.47 93.59
  Q 89.58 88.42 92.72 85.02
  Q 95.35 82.18 101.22 82.91
  Z"
/>
<path fill="#020303" d="
  M 138.99 109.99
  Q 132.44 115.57 130.10 123.08
  Q 129.27 125.75 129.35 130.37
  Q 130.67 143.70 142.73 151.53
  Q 145.46 153.31 148.28 155.10
  A 1.89 1.88 -54.7 0 1 148.76 157.93
  L 148.64 158.08
  A 2.42 2.42 0.0 0 1 145.63 158.66
  Q 137.82 154.47 132.96 149.29
  Q 127.76 143.76 125.66 135.90
  C 122.29 121.11 129.85 110.60 141.03 102.30
  L 146.07 99.23
  A 2.22 2.02 58.2 0 1 148.95 100.05
  L 148.99 100.12
  A 2.22 1.97 -35.0 0 1 148.33 102.87
  L 138.99 109.99
  Z"
/>
<path fill="#fdedec" d="
  M 138.99 109.99
  Q 137.11 121.17 129.35 130.37
  Q 129.27 125.75 130.10 123.08
  Q 132.44 115.57 138.99 109.99
  Z"
/>
<path fill="#020303" d="
  M 145.49 141.08
  C 145.00 142.64 143.52 143.72 142.00 142.44
  C 138.80 139.73 136.76 134.92 136.29 131.23
  C 135.63 126.00 138.93 119.89 142.02 115.54
  A 2.14 2.13 -54.5 0 1 144.99 115.04
  L 145.02 115.06
  A 2.27 2.27 0.0 0 1 145.63 118.11
  Q 143.32 121.78 142.10 124.37
  Q 138.90 131.15 143.30 137.01
  Q 145.19 139.53 145.43 140.05
  A 1.45 1.40 42.6 0 1 145.49 141.08
  Z"
/>
<path fill="#020303" d="
  M 183.11 138.61
  A 5.16 5.16 0.0 0 1 177.93 143.75
  L 159.48 143.68
  A 9.29 8.63 -89.8 0 1 150.88 134.36
  L 150.92 124.98
  A 9.29 8.63 -89.8 0 1 159.58 115.72
  L 178.03 115.79
  A 5.16 5.16 0.0 0 1 183.17 120.97
  L 183.11 138.61
  Z
  M 178.52 138.33
  L 178.55 121.15
  A 1.05 1.05 0.0 0 0 177.51 120.10
  L 160.63 120.07
  A 5.42 5.31 -89.9 0 0 155.31 125.48
  L 155.29 133.92
  A 5.42 5.31 -89.9 0 0 160.59 139.35
  L 177.47 139.38
  A 1.05 1.05 0.0 0 0 178.52 138.33
  Z"
/>
<path fill="#020303" d="
  M 118.78 137.48
  C 117.56 139.86 114.83 139.17 114.33 136.94
  Q 112.71 129.64 114.02 121.00
  A 2.14 2.14 0.0 0 1 116.24 119.18
  L 116.37 119.18
  A 1.92 1.92 0.0 0 1 118.20 121.23
  Q 117.97 124.81 117.65 128.96
  Q 117.51 130.69 118.88 136.61
  A 1.28 1.26 -39.0 0 1 118.78 137.48
  Z"
/>
<path fill="#ffffff" d="
  M 178.52 138.33
  A 1.05 1.05 0.0 0 1 177.47 139.38
  L 160.59 139.35
  A 5.42 5.31 -89.9 0 1 155.29 133.92
  L 155.31 125.48
  A 5.42 5.31 -89.9 0 1 160.63 120.07
  L 177.51 120.10
  A 1.05 1.05 0.0 0 1 178.55 121.15
  L 178.52 138.33
  Z"
/>
</svg>
