<?xml version="1.0" encoding="utf-8"?>
<svg version="1.1" viewBox="0.00 0.00 229.00 209.00" xmlns="http://www.w3.org/2000/svg"><g id="offState" style="display:inline"><g fill="none" stroke-linecap="butt" stroke-width="2.00">
<path class="icon-shape" d="   M 139.02 159.78   Q 147.76 157.39 151.07 149.04   C 154.36 140.76 149.73 131.09 141.44 128.17   Q 138.25 127.05 129.92 127.33   Q 105.48 128.15 80.75 128.60   Q 77.36 128.66 71.10 129.05   A 0.39 0.39 0.0 0 1 70.69 128.68   Q 70.17 120.32 68.60 110.68   C 66.44 97.43 60.84 86.11 54.47 74.29   Q 53.53 72.55 53.27 70.25   Q 52.50 63.42 51.74 50.51   Q 51.40 44.78 50.25 41.99   C 46.60 33.07 37.48 31.76 28.82 33.68   C 21.05 35.40 19.00 41.86 20.27 49.00   Q 24.70 73.88 37.81 144.96   Q 39.37 153.41 46.40 157.89   A 1.09 1.08 16.1 0 1 46.91 158.81   C 46.89 164.94 45.29 173.34 52.52 176.44   Q 54.02 177.08 59.07 177.08   Q 121.10 177.08 129.00 177.06   Q 135.71 177.03 138.12 171.84   C 139.56 168.73 139.00 164.09 138.84 160.02   A 0.24 0.23 -9.1 0 1 139.02 159.78" stroke="#d9d8da" vector-effect="non-scaling-stroke"/>
<path class="icon-shape" d="   M 113.83 96.33   Q 114.04 98.24 113.83 102.26   C 113.60 106.48 116.40 108.92 120.49 108.32   Q 122.35 108.05 124.64 105.90   Q 129.84 101.00 141.68 90.03   C 146.74 85.35 145.82 82.08 140.78 77.38   Q 125.07 62.76 122.25 60.18   A 2.56 2.46 75.5 0 0 121.44 59.68   C 116.55 57.80 113.77 60.42 113.84 65.37   Q 113.89 68.38 113.91 72.11   A 0.63 0.63 0.0 0 1 113.28 72.75   Q 97.75 72.67 87.29 72.82   Q 83.08 72.88 81.41 77.70   A 0.82 0.75 56.6 0 0 81.37 77.95   L 81.37 89.64   A 2.74 2.66 -55.4 0 0 81.52 90.53   Q 83.36 95.68 88.78 95.72   Q 100.18 95.79 113.10 95.68   A 0.73 0.72 86.5 0 1 113.83 96.33" stroke="#d9d8da" vector-effect="non-scaling-stroke"/>
<path class="icon-shape" d="   M 64.73 129.09   A 0.74 0.74 0.0 0 0 65.47 128.33   Q 65.15 116.57 61.94 103.76   C 59.59 94.37 54.69 85.69 49.64 76.05   A 8.09 7.98 24.1 0 1 49.04 74.51   C 47.51 68.90 47.55 62.51 46.94 56.43   C 46.22 49.18 47.78 38.85 37.49 38.08   C 30.66 37.56 23.47 38.87 25.09 47.87   Q 31.36 82.61 42.41 142.35   C 43.50 148.23 45.01 151.41 49.69 154.21   Q 51.96 155.57 59.06 155.57   Q 119.37 155.54 131.90 155.62   Q 136.52 155.65 138.95 154.68   C 151.64 149.59 148.99 132.03 135.01 132.22   Q 106.66 132.63 87.22 133.47   C 77.94 133.87 69.66 133.45 61.55 134.33   A 2.65 2.65 0.0 0 1 58.64 132.08   L 58.61 131.86   A 2.50 2.50 0.0 0 1 61.11 129.05   L 64.73 129.09" stroke="#d9d8da" vector-effect="non-scaling-stroke"/>
<path class="icon-shape" d="   M 133.64 160.48   L 52.08 160.34   A 0.51 0.51 0.0 0 0 51.57 160.85   L 51.56 166.46   A 5.80 5.72 0.1 0 0 57.35 172.19   L 128.33 172.31   A 5.80 5.72 0.1 0 0 134.14 166.60   L 134.15 160.99   A 0.51 0.51 0.0 0 0 133.64 160.48" stroke="#d9d8da" vector-effect="non-scaling-stroke"/>
<path class="icon-shape" d="   M 103.97 143.72   A 3.56 3.56 0.0 0 0 100.41 140.16   A 3.56 3.56 0.0 0 0 96.85 143.72   A 3.56 3.56 0.0 0 0 100.41 147.28   A 3.56 3.56 0.0 0 0 103.97 143.72" stroke="#d9d8da" vector-effect="non-scaling-stroke"/>
<path class="icon-shape" d="   M 118.63 143.72   A 3.58 3.58 0.0 0 0 115.05 140.14   A 3.58 3.58 0.0 0 0 111.47 143.72   A 3.58 3.58 0.0 0 0 115.05 147.30   A 3.58 3.58 0.0 0 0 118.63 143.72" stroke="#d9d8da" vector-effect="non-scaling-stroke"/>
<path class="icon-shape" d="   M 133.32 143.76   A 3.57 3.57 0.0 0 0 129.75 140.19   A 3.57 3.57 0.0 0 0 126.18 143.76   A 3.57 3.57 0.0 0 0 129.75 147.33   A 3.57 3.57 0.0 0 0 133.32 143.76" stroke="#d9d8da" vector-effect="non-scaling-stroke"/>
<path class="icon-shape" d="   M 118.89 65.16   Q 119.12 69.12 119.02 73.00   Q 118.91 77.81 114.26 77.80   Q 111.33 77.79 87.68 77.78   A 1.21 1.20 -0.0 0 0 86.47 78.98   L 86.47 89.22   A 1.33 1.32 0.0 0 0 87.80 90.54   Q 112.91 90.54 113.03 90.54   C 116.18 90.52 118.54 91.11 118.90 94.15   Q 119.15 96.17 119.03 102.44   A 0.75 0.75 0.0 0 0 120.29 103.01   L 139.68 84.73   A 0.96 0.95 -45.2 0 0 139.68 83.34   L 119.71 64.78   A 0.49 0.49 0.0 0 0 118.89 65.16" stroke="#d9d8da" vector-effect="non-scaling-stroke"/>
</g>
<path class="icon-shape" d="   M 229.00 0.00   L 229.00 209.00   L 0.00 209.00   L 0.00 0.00   L 229.00 0.00   Z   M 139.02 159.78   Q 147.76 157.39 151.07 149.04   C 154.36 140.76 149.73 131.09 141.44 128.17   Q 138.25 127.05 129.92 127.33   Q 105.48 128.15 80.75 128.60   Q 77.36 128.66 71.10 129.05   A 0.39 0.39 0.0 0 1 70.69 128.68   Q 70.17 120.32 68.60 110.68   C 66.44 97.43 60.84 86.11 54.47 74.29   Q 53.53 72.55 53.27 70.25   Q 52.50 63.42 51.74 50.51   Q 51.40 44.78 50.25 41.99   C 46.60 33.07 37.48 31.76 28.82 33.68   C 21.05 35.40 19.00 41.86 20.27 49.00   Q 24.70 73.88 37.81 144.96   Q 39.37 153.41 46.40 157.89   A 1.09 1.08 16.1 0 1 46.91 158.81   C 46.89 164.94 45.29 173.34 52.52 176.44   Q 54.02 177.08 59.07 177.08   Q 121.10 177.08 129.00 177.06   Q 135.71 177.03 138.12 171.84   C 139.56 168.73 139.00 164.09 138.84 160.02   A 0.24 0.23 -9.1 0 1 139.02 159.78   Z   M 113.83 96.33   Q 114.04 98.24 113.83 102.26   C 113.60 106.48 116.40 108.92 120.49 108.32   Q 122.35 108.05 124.64 105.90   Q 129.84 101.00 141.68 90.03   C 146.74 85.35 145.82 82.08 140.78 77.38   Q 125.07 62.76 122.25 60.18   A 2.56 2.46 75.5 0 0 121.44 59.68   C 116.55 57.80 113.77 60.42 113.84 65.37   Q 113.89 68.38 113.91 72.11   A 0.63 0.63 0.0 0 1 113.28 72.75   Q 97.75 72.67 87.29 72.82   Q 83.08 72.88 81.41 77.70   A 0.82 0.75 56.6 0 0 81.37 77.95   L 81.37 89.64   A 2.74 2.66 -55.4 0 0 81.52 90.53   Q 83.36 95.68 88.78 95.72   Q 100.18 95.79 113.10 95.68   A 0.73 0.72 86.5 0 1 113.83 96.33   Z" fill="#ffffff"/>
<path class="icon-shape" d="   M 139.02 159.78   A 0.24 0.23 -9.1 0 0 138.84 160.02   C 139.00 164.09 139.56 168.73 138.12 171.84   Q 135.71 177.03 129.00 177.06   Q 121.10 177.08 59.07 177.08   Q 54.02 177.08 52.52 176.44   C 45.29 173.34 46.89 164.94 46.91 158.81   A 1.09 1.08 16.1 0 0 46.40 157.89   Q 39.37 153.41 37.81 144.96   Q 24.70 73.88 20.27 49.00   C 19.00 41.86 21.05 35.40 28.82 33.68   C 37.48 31.76 46.60 33.07 50.25 41.99   Q 51.40 44.78 51.74 50.51   Q 52.50 63.42 53.27 70.25   Q 53.53 72.55 54.47 74.29   C 60.84 86.11 66.44 97.43 68.60 110.68   Q 70.17 120.32 70.69 128.68   A 0.39 0.39 0.0 0 0 71.10 129.05   Q 77.36 128.66 80.75 128.60   Q 105.48 128.15 129.92 127.33   Q 138.25 127.05 141.44 128.17   C 149.73 131.09 154.36 140.76 151.07 149.04   Q 147.76 157.39 139.02 159.78   Z   M 64.73 129.09   A 0.74 0.74 0.0 0 0 65.47 128.33   Q 65.15 116.57 61.94 103.76   C 59.59 94.37 54.69 85.69 49.64 76.05   A 8.09 7.98 24.1 0 1 49.04 74.51   C 47.51 68.90 47.55 62.51 46.94 56.43   C 46.22 49.18 47.78 38.85 37.49 38.08   C 30.66 37.56 23.47 38.87 25.09 47.87   Q 31.36 82.61 42.41 142.35   C 43.50 148.23 45.01 151.41 49.69 154.21   Q 51.96 155.57 59.06 155.57   Q 119.37 155.54 131.90 155.62   Q 136.52 155.65 138.95 154.68   C 151.64 149.59 148.99 132.03 135.01 132.22   Q 106.66 132.63 87.22 133.47   C 77.94 133.87 69.66 133.45 61.55 134.33   A 2.65 2.65 0.0 0 1 58.64 132.08   L 58.61 131.86   A 2.50 2.50 0.0 0 1 61.11 129.05   L 64.73 129.09   Z   M 133.64 160.48   L 52.08 160.34   A 0.51 0.51 0.0 0 0 51.57 160.85   L 51.56 166.46   A 5.80 5.72 0.1 0 0 57.35 172.19   L 128.33 172.31   A 5.80 5.72 0.1 0 0 134.14 166.60   L 134.15 160.99   A 0.51 0.51 0.0 0 0 133.64 160.48   Z" fill="#b2b0b4"/>
<path class="icon-shape" d="   M 64.73 129.09   L 61.11 129.05   A 2.50 2.50 0.0 0 0 58.61 131.86   L 58.64 132.08   A 2.65 2.65 0.0 0 0 61.55 134.33   C 69.66 133.45 77.94 133.87 87.22 133.47   Q 106.66 132.63 135.01 132.22   C 148.99 132.03 151.64 149.59 138.95 154.68   Q 136.52 155.65 131.90 155.62   Q 119.37 155.54 59.06 155.57   Q 51.96 155.57 49.69 154.21   C 45.01 151.41 43.50 148.23 42.41 142.35   Q 31.36 82.61 25.09 47.87   C 23.47 38.87 30.66 37.56 37.49 38.08   C 47.78 38.85 46.22 49.18 46.94 56.43   C 47.55 62.51 47.51 68.90 49.04 74.51   A 8.09 7.98 24.1 0 0 49.64 76.05   C 54.69 85.69 59.59 94.37 61.94 103.76   Q 65.15 116.57 65.47 128.33   A 0.74 0.74 0.0 0 1 64.73 129.09   Z   M 103.97 143.72   A 3.56 3.56 0.0 0 0 100.41 140.16   A 3.56 3.56 0.0 0 0 96.85 143.72   A 3.56 3.56 0.0 0 0 100.41 147.28   A 3.56 3.56 0.0 0 0 103.97 143.72   Z   M 118.63 143.72   A 3.58 3.58 0.0 0 0 115.05 140.14   A 3.58 3.58 0.0 0 0 111.47 143.72   A 3.58 3.58 0.0 0 0 115.05 147.30   A 3.58 3.58 0.0 0 0 118.63 143.72   Z   M 133.32 143.76   A 3.57 3.57 0.0 0 0 129.75 140.19   A 3.57 3.57 0.0 0 0 126.18 143.76   A 3.57 3.57 0.0 0 0 129.75 147.33   A 3.57 3.57 0.0 0 0 133.32 143.76   Z" fill="#ffffff"/>
<path class="icon-shape" d="   M 113.10 95.68   Q 100.18 95.79 88.78 95.72   Q 83.36 95.68 81.52 90.53   A 2.74 2.66 -55.4 0 1 81.37 89.64   L 81.37 77.95   A 0.82 0.75 56.6 0 1 81.41 77.70   Q 83.08 72.88 87.29 72.82   Q 97.75 72.67 113.28 72.75   A 0.63 0.63 0.0 0 0 113.91 72.11   Q 113.89 68.38 113.84 65.37   C 113.77 60.42 116.55 57.80 121.44 59.68   A 2.56 2.46 75.5 0 1 122.25 60.18   Q 125.07 62.76 140.78 77.38   C 145.82 82.08 146.74 85.35 141.68 90.03   Q 129.84 101.00 124.64 105.90   Q 122.35 108.05 120.49 108.32   C 116.40 108.92 113.60 106.48 113.83 102.26   Q 114.04 98.24 113.83 96.33   A 0.73 0.72 86.5 0 0 113.10 95.68   Z   M 118.89 65.16   Q 119.12 69.12 119.02 73.00   Q 118.91 77.81 114.26 77.80   Q 111.33 77.79 87.68 77.78   A 1.21 1.20 -0.0 0 0 86.47 78.98   L 86.47 89.22   A 1.33 1.32 0.0 0 0 87.80 90.54   Q 112.91 90.54 113.03 90.54   C 116.18 90.52 118.54 91.11 118.90 94.15   Q 119.15 96.17 119.03 102.44   A 0.75 0.75 0.0 0 0 120.29 103.01   L 139.68 84.73   A 0.96 0.95 -45.2 0 0 139.68 83.34   L 119.71 64.78   A 0.49 0.49 0.0 0 0 118.89 65.16   Z" fill="#b2b0b4"/>
<path class="icon-shape" d="   M 118.89 65.16   A 0.49 0.49 0.0 0 1 119.71 64.78   L 139.68 83.34   A 0.96 0.95 -45.2 0 1 139.68 84.73   L 120.29 103.01   A 0.75 0.75 0.0 0 1 119.03 102.44   Q 119.15 96.17 118.90 94.15   C 118.54 91.11 116.18 90.52 113.03 90.54   Q 112.91 90.54 87.80 90.54   A 1.33 1.32 -0.0 0 1 86.47 89.22   L 86.47 78.98   A 1.21 1.20 0.0 0 1 87.68 77.78   Q 111.33 77.79 114.26 77.80   Q 118.91 77.81 119.02 73.00   Q 119.12 69.12 118.89 65.16   Z" fill="#ffffff"/>
<circle cx="100.41" cy="143.72" fill="#b2b0b4" r="3.56"/>
<circle cx="115.05" cy="143.72" fill="#b2b0b4" r="3.58"/>
<circle cx="129.75" cy="143.76" fill="#b2b0b4" r="3.57"/>
<path class="icon-shape" d="   M 133.64 160.48   A 0.51 0.51 0.0 0 1 134.15 160.99   L 134.14 166.60   A 5.80 5.72 0.1 0 1 128.33 172.31   L 57.35 172.19   A 5.80 5.72 0.1 0 1 51.56 166.46   L 51.57 160.85   A 0.51 0.51 0.0 0 1 52.08 160.34   L 133.64 160.48   Z" fill="#ffffff"/>
</g><g id="onState" style="display:none"><g fill="none" stroke-linecap="butt" stroke-width="2.00">
<path class="icon-shape" d="   M 34.60 32.58   Q 33.54 32.91 29.24 33.44   Q 21.08 34.45 20.04 43.29" stroke="#808080" vector-effect="non-scaling-stroke"/>
<path class="icon-shape" d="   M 20.04 43.29   Q 17.66 45.31 15.79 47.81   C 2.79 65.25 0.35 87.46 9.61 107.01   Q 17.59 123.87 35.59 133.32" stroke="#fef6f6" vector-effect="non-scaling-stroke"/>
<path class="icon-shape" d="   M 35.59 133.32   Q 36.62 139.12 37.78 145.23   Q 39.34 153.45 46.24 157.88   A 1.32 1.31 14.5 0 1 46.85 158.91   C 47.31 165.28 44.79 173.35 52.58 176.48   Q 54.08 177.08 58.99 177.08   Q 125.90 177.09 129.26 177.06   Q 136.02 177.02 138.25 171.77   C 139.53 168.77 139.06 163.44 138.88 160.44   A 0.63 0.63 0.0 0 1 139.33 159.80   Q 146.12 157.75 149.78 151.93   C 155.26 143.18 150.99 131.61 141.56 128.11   Q 138.61 127.02 130.81 127.26   Q 112.68 127.82 94.38 128.26" stroke="#808080" vector-effect="non-scaling-stroke"/>
<path class="icon-shape" d="   M 94.38 128.26   C 97.25 125.23 100.71 122.39 103.12 119.51   Q 109.28 112.11 113.74 102.88" stroke="#fef6f6" vector-effect="non-scaling-stroke"/>
<path class="icon-shape" d="   M 113.74 102.88   Q 113.84 105.64 115.36 106.92   C 118.66 109.69 121.84 108.63 124.82 105.81   Q 127.70 103.09 140.48 91.25   C 144.48 87.54 147.39 83.84 142.85 79.38   Q 135.91 72.56 122.04 59.94   A 2.74 2.71 75.8 0 0 121.16 59.41   Q 116.20 57.60 113.74 62.68" stroke="#808080" vector-effect="non-scaling-stroke"/>
<path class="icon-shape" d="   M 113.74 62.68   Q 103.45 38.26 80.39 29.60   Q 57.16 20.89 34.60 32.58" stroke="#fef6f6" vector-effect="non-scaling-stroke"/>
<path class="icon-shape" d="   M 113.74 62.68   L 113.94 71.97   A 0.72 0.72 0.0 0 1 113.22 72.71   Q 92.41 72.67 87.55 72.75   Q 83.25 72.82 81.51 77.19   A 2.81 2.79 56.1 0 0 81.31 78.23   L 81.31 89.69   A 2.74 2.74 0.0 0 0 81.48 90.64   Q 83.39 95.72 88.56 95.77   Q 97.71 95.84 113.30 95.76   A 0.57 0.57 0.0 0 1 113.88 96.35   L 113.74 102.88" stroke="#7f7776" vector-effect="non-scaling-stroke"/>
<path class="icon-shape" d="   M 94.38 128.26   L 71.46 129.00   A 0.81 0.80 81.3 0 1 70.66 128.41   C 70.43 127.59 70.72 126.21 70.61 125.30   Q 69.37 115.28 68.67 110.75   C 66.69 98.14 61.19 86.33 54.85 74.91   Q 53.49 72.45 53.27 70.24   Q 52.71 64.46 51.72 50.01   Q 51.31 44.12 50.53 42.22   Q 46.63 32.87 34.60 32.58" stroke="#7f7776" vector-effect="non-scaling-stroke"/>
<path class="icon-shape" d="   M 35.59 133.32   Q 23.25 66.37 20.22 49.00   Q 19.92 47.32 20.04 43.29" stroke="#7f7776" vector-effect="non-scaling-stroke"/>
<path class="icon-shape" d="   M 65.39 128.26   Q 65.36 120.55 62.88 107.89   C 60.77 97.13 55.66 87.05 50.18 77.28   C 49.13 75.40 48.50 73.16 48.20 71.07   Q 47.15 63.75 47.20 58.19   A 0.07 0.05 -58.3 0 0 47.20 58.14   L 46.70 55.88   A 3.09 2.99 -52.1 0 1 46.63 55.23   C 46.73 48.10 46.75 39.98 39.09 38.40   C 34.55 37.45 26.89 37.71 25.17 43.12   Q 24.57 45.00 25.73 51.35   Q 31.47 82.70 42.46 142.39   C 43.54 148.25 44.93 151.13 49.59 154.10   Q 51.98 155.62 59.19 155.48   Q 63.19 155.40 131.67 155.54   Q 136.29 155.55 138.25 154.87   C 149.13 151.08 150.76 136.59 139.05 132.70   Q 137.73 132.26 129.39 132.38   Q 106.33 132.73 81.87 133.68   C 75.47 133.92 68.31 133.64 61.51 134.37   A 2.58 2.58 0.0 0 1 58.67 132.09   L 58.64 131.84   A 2.53 2.53 0.0 0 1 61.20 129.05   L 64.53 129.11   A 0.85 0.85 0.0 0 0 65.39 128.26" stroke="#808080" vector-effect="non-scaling-stroke"/>
<path class="icon-shape" d="   M 133.74 160.54   L 51.96 160.40   A 0.34 0.34 0.0 0 0 51.62 160.74   L 51.61 166.65   A 5.76 5.47 0.1 0 0 57.36 172.13   L 128.30 172.25   A 5.76 5.47 0.1 0 0 134.07 166.79   L 134.08 160.88   A 0.34 0.34 0.0 0 0 133.74 160.54" stroke="#808080" vector-effect="non-scaling-stroke"/>
<path class="icon-shape" d="   M 104.02 143.71   A 3.60 3.60 0.0 0 0 100.42 140.11   A 3.60 3.60 0.0 0 0 96.82 143.71   A 3.60 3.60 0.0 0 0 100.42 147.31   A 3.60 3.60 0.0 0 0 104.02 143.71" stroke="#808080" vector-effect="non-scaling-stroke"/>
<path class="icon-shape" d="   M 118.70 143.71   A 3.63 3.63 0.0 0 0 115.07 140.08   A 3.63 3.63 0.0 0 0 111.44 143.71   A 3.63 3.63 0.0 0 0 115.07 147.34   A 3.63 3.63 0.0 0 0 118.70 143.71" stroke="#808080" vector-effect="non-scaling-stroke"/>
<path class="icon-shape" d="   M 133.34 143.76   A 3.60 3.60 0.0 0 0 129.74 140.16   A 3.60 3.60 0.0 0 0 126.14 143.76   A 3.60 3.60 0.0 0 0 129.74 147.36   A 3.60 3.60 0.0 0 0 133.34 143.76" stroke="#808080" vector-effect="non-scaling-stroke"/>
<path class="icon-shape" d="   M 116.72 77.82   L 87.37 77.79   A 0.86 0.85 -0.0 0 0 86.51 78.64   L 86.51 89.30   A 1.13 1.13 0.0 0 0 87.64 90.43   L 116.25 90.50" stroke="#7f7776" vector-effect="non-scaling-stroke"/>
<path class="icon-shape" d="   M 116.25 90.50   Q 119.18 92.11 119.11 95.75   Q 118.99 101.71 119.03 102.49   A 0.72 0.72 0.0 0 0 120.24 102.98   L 139.88 84.41   A 0.55 0.54 -45.3 0 0 139.88 83.62   L 119.67 64.85   A 0.41 0.41 0.0 0 0 118.99 65.22   Q 120.36 73.53 116.72 77.82" stroke="#808080" vector-effect="non-scaling-stroke"/>
<path class="icon-shape" d="   M 116.25 90.50   Q 117.25 84.41 116.72 77.82" stroke="#fef6f6" vector-effect="non-scaling-stroke"/>
</g>
<path class="icon-shape" d="   M 229.00 0.00   L 229.00 209.00   L 0.00 209.00   L 0.00 0.00   L 229.00 0.00   Z   M 34.60 32.58   Q 33.54 32.91 29.24 33.44   Q 21.08 34.45 20.04 43.29   Q 17.66 45.31 15.79 47.81   C 2.79 65.25 0.35 87.46 9.61 107.01   Q 17.59 123.87 35.59 133.32   Q 36.62 139.12 37.78 145.23   Q 39.34 153.45 46.24 157.88   A 1.32 1.31 14.5 0 1 46.85 158.91   C 47.31 165.28 44.79 173.35 52.58 176.48   Q 54.08 177.08 58.99 177.08   Q 125.90 177.09 129.26 177.06   Q 136.02 177.02 138.25 171.77   C 139.53 168.77 139.06 163.44 138.88 160.44   A 0.63 0.63 0.0 0 1 139.33 159.80   Q 146.12 157.75 149.78 151.93   C 155.26 143.18 150.99 131.61 141.56 128.11   Q 138.61 127.02 130.81 127.26   Q 112.68 127.82 94.38 128.26   C 97.25 125.23 100.71 122.39 103.12 119.51   Q 109.28 112.11 113.74 102.88   Q 113.84 105.64 115.36 106.92   C 118.66 109.69 121.84 108.63 124.82 105.81   Q 127.70 103.09 140.48 91.25   C 144.48 87.54 147.39 83.84 142.85 79.38   Q 135.91 72.56 122.04 59.94   A 2.74 2.71 75.8 0 0 121.16 59.41   Q 116.20 57.60 113.74 62.68   Q 103.45 38.26 80.39 29.60   Q 57.16 20.89 34.60 32.58   Z" fill="#ffffff"/>
<path class="icon-shape" d="   M 113.74 62.68   L 113.94 71.97   A 0.72 0.72 0.0 0 1 113.22 72.71   Q 92.41 72.67 87.55 72.75   Q 83.25 72.82 81.51 77.19   A 2.81 2.79 56.1 0 0 81.31 78.23   L 81.31 89.69   A 2.74 2.74 0.0 0 0 81.48 90.64   Q 83.39 95.72 88.56 95.77   Q 97.71 95.84 113.30 95.76   A 0.57 0.57 0.0 0 1 113.88 96.35   L 113.74 102.88   Q 109.28 112.11 103.12 119.51   C 100.71 122.39 97.25 125.23 94.38 128.26   L 71.46 129.00   A 0.81 0.80 81.3 0 1 70.66 128.41   C 70.43 127.59 70.72 126.21 70.61 125.30   Q 69.37 115.28 68.67 110.75   C 66.69 98.14 61.19 86.33 54.85 74.91   Q 53.49 72.45 53.27 70.24   Q 52.71 64.46 51.72 50.01   Q 51.31 44.12 50.53 42.22   Q 46.63 32.87 34.60 32.58   Q 57.16 20.89 80.39 29.60   Q 103.45 38.26 113.74 62.68   Z" fill="#fdedec"/>
<path class="icon-shape" d="   M 94.38 128.26   Q 112.68 127.82 130.81 127.26   Q 138.61 127.02 141.56 128.11   C 150.99 131.61 155.26 143.18 149.78 151.93   Q 146.12 157.75 139.33 159.80   A 0.63 0.63 0.0 0 0 138.88 160.44   C 139.06 163.44 139.53 168.77 138.25 171.77   Q 136.02 177.02 129.26 177.06   Q 125.90 177.09 58.99 177.08   Q 54.08 177.08 52.58 176.48   C 44.79 173.35 47.31 165.28 46.85 158.91   A 1.32 1.31 14.5 0 0 46.24 157.88   Q 39.34 153.45 37.78 145.23   Q 36.62 139.12 35.59 133.32   Q 23.25 66.37 20.22 49.00   Q 19.92 47.32 20.04 43.29   Q 21.08 34.45 29.24 33.44   Q 33.54 32.91 34.60 32.58   Q 46.63 32.87 50.53 42.22   Q 51.31 44.12 51.72 50.01   Q 52.71 64.46 53.27 70.24   Q 53.49 72.45 54.85 74.91   C 61.19 86.33 66.69 98.14 68.67 110.75   Q 69.37 115.28 70.61 125.30   C 70.72 126.21 70.43 127.59 70.66 128.41   A 0.81 0.80 81.3 0 0 71.46 129.00   L 94.38 128.26   Z   M 65.39 128.26   Q 65.36 120.55 62.88 107.89   C 60.77 97.13 55.66 87.05 50.18 77.28   C 49.13 75.40 48.50 73.16 48.20 71.07   Q 47.15 63.75 47.20 58.19   A 0.07 0.05 -58.3 0 0 47.20 58.14   L 46.70 55.88   A 3.09 2.99 -52.1 0 1 46.63 55.23   C 46.73 48.10 46.75 39.98 39.09 38.40   C 34.55 37.45 26.89 37.71 25.17 43.12   Q 24.57 45.00 25.73 51.35   Q 31.47 82.70 42.46 142.39   C 43.54 148.25 44.93 151.13 49.59 154.10   Q 51.98 155.62 59.19 155.48   Q 63.19 155.40 131.67 155.54   Q 136.29 155.55 138.25 154.87   C 149.13 151.08 150.76 136.59 139.05 132.70   Q 137.73 132.26 129.39 132.38   Q 106.33 132.73 81.87 133.68   C 75.47 133.92 68.31 133.64 61.51 134.37   A 2.58 2.58 0.0 0 1 58.67 132.09   L 58.64 131.84   A 2.53 2.53 0.0 0 1 61.20 129.05   L 64.53 129.11   A 0.85 0.85 0.0 0 0 65.39 128.26   Z   M 133.74 160.54   L 51.96 160.40   A 0.34 0.34 0.0 0 0 51.62 160.74   L 51.61 166.65   A 5.76 5.47 0.1 0 0 57.36 172.13   L 128.30 172.25   A 5.76 5.47 0.1 0 0 134.07 166.79   L 134.08 160.88   A 0.34 0.34 0.0 0 0 133.74 160.54   Z" fill="#000000"/>
<path class="icon-shape" d="   M 64.53 129.11   L 61.20 129.05   A 2.53 2.53 0.0 0 0 58.64 131.84   L 58.67 132.09   A 2.58 2.58 0.0 0 0 61.51 134.37   C 68.31 133.64 75.47 133.92 81.87 133.68   Q 106.33 132.73 129.39 132.38   Q 137.73 132.26 139.05 132.70   C 150.76 136.59 149.13 151.08 138.25 154.87   Q 136.29 155.55 131.67 155.54   Q 63.19 155.40 59.19 155.48   Q 51.98 155.62 49.59 154.10   C 44.93 151.13 43.54 148.25 42.46 142.39   Q 31.47 82.70 25.73 51.35   Q 24.57 45.00 25.17 43.12   C 26.89 37.71 34.55 37.45 39.09 38.40   C 46.75 39.98 46.73 48.10 46.63 55.23   A 3.09 2.99 -52.1 0 0 46.70 55.88   L 47.20 58.14   A 0.07 0.05 -58.3 0 1 47.20 58.19   Q 47.15 63.75 48.20 71.07   C 48.50 73.16 49.13 75.40 50.18 77.28   C 55.66 87.05 60.77 97.13 62.88 107.89   Q 65.36 120.55 65.39 128.26   A 0.85 0.85 0.0 0 1 64.53 129.11   Z   M 104.02 143.71   A 3.60 3.60 0.0 0 0 100.42 140.11   A 3.60 3.60 0.0 0 0 96.82 143.71   A 3.60 3.60 0.0 0 0 100.42 147.31   A 3.60 3.60 0.0 0 0 104.02 143.71   Z   M 118.70 143.71   A 3.63 3.63 0.0 0 0 115.07 140.08   A 3.63 3.63 0.0 0 0 111.44 143.71   A 3.63 3.63 0.0 0 0 115.07 147.34   A 3.63 3.63 0.0 0 0 118.70 143.71   Z   M 133.34 143.76   A 3.60 3.60 0.0 0 0 129.74 140.16   A 3.60 3.60 0.0 0 0 126.14 143.76   A 3.60 3.60 0.0 0 0 129.74 147.36   A 3.60 3.60 0.0 0 0 133.34 143.76   Z" fill="#ffffff"/>
<path class="icon-shape" d="   M 20.04 43.29   Q 19.92 47.32 20.22 49.00   Q 23.25 66.37 35.59 133.32   Q 17.59 123.87 9.61 107.01   C 0.35 87.46 2.79 65.25 15.79 47.81   Q 17.66 45.31 20.04 43.29   Z" fill="#fdedec"/>
<path class="icon-shape" d="   M 113.74 102.88   L 113.88 96.35   A 0.57 0.57 0.0 0 0 113.30 95.76   Q 97.71 95.84 88.56 95.77   Q 83.39 95.72 81.48 90.64   A 2.74 2.74 0.0 0 1 81.31 89.69   L 81.31 78.23   A 2.81 2.79 56.1 0 1 81.51 77.19   Q 83.25 72.82 87.55 72.75   Q 92.41 72.67 113.22 72.71   A 0.72 0.72 0.0 0 0 113.94 71.97   L 113.74 62.68   Q 116.20 57.60 121.16 59.41   A 2.74 2.71 75.8 0 1 122.04 59.94   Q 135.91 72.56 142.85 79.38   C 147.39 83.84 144.48 87.54 140.48 91.25   Q 127.70 103.09 124.82 105.81   C 121.84 108.63 118.66 109.69 115.36 106.92   Q 113.84 105.64 113.74 102.88   Z   M 116.72 77.82   L 87.37 77.79   A 0.86 0.85 -0.0 0 0 86.51 78.64   L 86.51 89.30   A 1.13 1.13 0.0 0 0 87.64 90.43   L 116.25 90.50   Q 119.18 92.11 119.11 95.75   Q 118.99 101.71 119.03 102.49   A 0.72 0.72 0.0 0 0 120.24 102.98   L 139.88 84.41   A 0.55 0.54 -45.3 0 0 139.88 83.62   L 119.67 64.85   A 0.41 0.41 0.0 0 0 118.99 65.22   Q 120.36 73.53 116.72 77.82   Z" fill="#000000"/>
<path class="icon-shape" d="   M 116.25 90.50   Q 117.25 84.41 116.72 77.82   Q 120.36 73.53 118.99 65.22   A 0.41 0.41 0.0 0 1 119.67 64.85   L 139.88 83.62   A 0.55 0.54 -45.3 0 1 139.88 84.41   L 120.24 102.98   A 0.72 0.72 0.0 0 1 119.03 102.49   Q 118.99 101.71 119.11 95.75   Q 119.18 92.11 116.25 90.50   Z" fill="#ffffff"/>
<path class="icon-shape" d="   M 116.72 77.82   Q 117.25 84.41 116.25 90.50   L 87.64 90.43   A 1.13 1.13 0.0 0 1 86.51 89.30   L 86.51 78.64   A 0.86 0.85 -0.0 0 1 87.37 77.79   L 116.72 77.82   Z" fill="#fdedec"/>
<circle cx="100.42" cy="143.71" fill="#000000" r="3.60"/>
<circle cx="115.07" cy="143.71" fill="#000000" r="3.63"/>
<circle cx="129.74" cy="143.76" fill="#000000" r="3.60"/>
<path class="icon-shape" d="   M 133.74 160.54   A 0.34 0.34 0.0 0 1 134.08 160.88   L 134.07 166.79   A 5.76 5.47 0.1 0 1 128.30 172.25   L 57.36 172.13   A 5.76 5.47 0.1 0 1 51.61 166.65   L 51.62 160.74   A 0.34 0.34 0.0 0 1 51.96 160.40   L 133.74 160.54   Z" fill="#ffffff"/>
</g></svg>