<?xml version="1.0" encoding="UTF-8" standalone="no"?>
<!DOCTYPE svg PUBLIC "-//W3C//DTD SVG 1.1//EN" "http://www.w3.org/Graphics/SVG/1.1/DTD/svg11.dtd">
<svg xmlns="http://www.w3.org/2000/svg" version="1.1" viewBox="0.00 0.00 209.00 209.00">
<g stroke-width="2.00" fill="none" stroke-linecap="butt">
<path stroke="#d9d8da" vector-effect="non-scaling-stroke" d="
  M 66.25 82.09
  C 68.20 79.26 69.74 76.95 69.84 73.14
  Q 69.98 67.49 68.42 60.32
  Q 66.96 53.60 61.11 50.90
  C 57.10 49.05 48.93 49.27 45.26 53.00
  C 41.52 56.81 41.58 59.64 42.69 65.46
  Q 56.62 138.36 58.69 148.39
  Q 60.38 156.57 66.43 160.80
  Q 71.14 164.10 75.40 164.11
  Q 119.07 164.24 132.23 164.12
  C 137.71 164.07 143.00 161.41 145.73 156.41
  Q 146.54 154.92 148.17 150.68
  C 150.96 143.43 154.11 135.23 147.48 129.74
  Q 142.69 125.78 136.35 126.07
  Q 124.77 126.60 113.58 126.53
  C 104.81 126.47 96.10 127.16 88.39 128.41
  A 1.21 1.20 78.3 0 1 87.03 127.51
  Q 82.81 110.04 75.90 93.12
  Q 73.41 87.03 66.47 83.03
  A 0.66 0.66 0.0 0 1 66.25 82.09"
/>
<path stroke="#d9d8da" vector-effect="non-scaling-stroke" d="
  M 155.10 75.55
  A 2.85 2.85 0.0 0 0 151.40 75.35
  Q 144.45 80.67 136.42 79.16
  C 130.56 78.05 124.88 74.07 118.75 72.96
  Q 109.29 71.25 101.06 76.65
  A 2.80 2.80 0.0 0 0 99.96 79.96
  L 99.98 80.03
  A 2.17 2.16 67.8 0 0 102.89 81.26
  Q 103.63 80.92 106.36 79.39
  C 110.77 76.91 116.34 77.06 121.20 78.69
  C 125.15 80.01 130.74 83.07 135.26 84.00
  Q 145.95 86.19 155.05 78.89
  A 2.16 2.16 0.0 0 0 155.20 75.64
  L 155.10 75.55"
/>
<path stroke="#d9d8da" vector-effect="non-scaling-stroke" d="
  M 155.13 92.16
  A 2.85 2.85 0.0 0 0 151.43 91.93
  Q 144.44 97.21 136.42 95.64
  C 130.56 94.49 124.90 90.47 118.77 89.32
  Q 109.32 87.55 101.04 92.89
  A 2.80 2.80 0.0 0 0 99.92 96.20
  L 99.94 96.27
  A 2.17 2.16 68.1 0 0 102.85 97.52
  Q 103.59 97.19 106.33 95.67
  C 110.76 93.22 116.33 93.41 121.19 95.07
  C 125.13 96.42 130.70 99.52 135.22 100.48
  Q 145.91 102.74 155.06 95.50
  A 2.16 2.16 0.0 0 0 155.23 92.25
  L 155.13 92.16"
/>
<path stroke="#d9d8da" vector-effect="non-scaling-stroke" d="
  M 155.16 108.17
  A 2.85 2.85 0.0 0 0 151.46 107.93
  Q 144.46 113.19 136.45 111.60
  C 130.59 110.44 124.94 106.41 118.82 105.24
  Q 109.38 103.45 101.09 108.77
  A 2.80 2.80 0.0 0 0 99.96 112.08
  L 99.98 112.15
  A 2.17 2.16 68.3 0 0 102.88 113.40
  Q 103.63 113.08 106.37 111.56
  C 110.80 109.12 116.37 109.33 121.22 111.00
  C 125.16 112.36 130.72 115.47 135.24 116.44
  Q 145.92 118.73 155.08 111.51
  A 2.16 2.16 0.0 0 0 155.26 108.26
  L 155.16 108.17"
/>
<path stroke="#d9d8da" vector-effect="non-scaling-stroke" d="
  M 51.46 81.45
  L 59.00 81.34
  A 1.11 1.06 -58.4 0 0 59.53 81.20
  C 64.69 78.34 65.55 74.11 64.72 68.15
  C 63.83 61.78 63.51 54.40 55.24 54.61
  C 51.55 54.70 47.54 55.74 46.89 59.60
  Q 46.73 60.56 47.62 65.19
  Q 49.58 75.42 50.60 80.76
  A 0.87 0.86 -6.0 0 0 51.46 81.45"
/>
<path stroke="#d9d8da" vector-effect="non-scaling-stroke" d="
  M 52.10 86.55
  A 0.40 0.40 0.0 0 0 51.71 87.03
  Q 53.47 95.73 62.72 144.27
  C 63.93 150.62 65.74 155.65 71.85 158.36
  Q 74.33 159.46 81.25 159.48
  Q 100.65 159.53 125.20 159.46
  Q 133.84 159.43 135.71 158.76
  C 142.06 156.45 143.60 149.12 145.67 143.18
  C 147.34 138.42 147.33 135.38 143.13 132.62
  Q 141.01 131.23 139.63 131.19
  Q 115.09 130.46 92.78 132.59
  Q 89.97 132.86 86.01 133.74
  A 2.48 2.47 -12.7 0 1 83.06 131.88
  Q 79.52 116.45 73.70 100.90
  C 71.27 94.42 69.24 88.79 61.97 86.61
  A 1.44 1.41 -36.1 0 0 61.56 86.55
  L 52.10 86.55"
/>
</g>
<path fill="#ffffff" d="
  M 209.00 0.00
  L 209.00 209.00
  L 0.00 209.00
  L 0.00 0.00
  L 209.00 0.00
  Z
  M 66.25 82.09
  C 68.20 79.26 69.74 76.95 69.84 73.14
  Q 69.98 67.49 68.42 60.32
  Q 66.96 53.60 61.11 50.90
  C 57.10 49.05 48.93 49.27 45.26 53.00
  C 41.52 56.81 41.58 59.64 42.69 65.46
  Q 56.62 138.36 58.69 148.39
  Q 60.38 156.57 66.43 160.80
  Q 71.14 164.10 75.40 164.11
  Q 119.07 164.24 132.23 164.12
  C 137.71 164.07 143.00 161.41 145.73 156.41
  Q 146.54 154.92 148.17 150.68
  C 150.96 143.43 154.11 135.23 147.48 129.74
  Q 142.69 125.78 136.35 126.07
  Q 124.77 126.60 113.58 126.53
  C 104.81 126.47 96.10 127.16 88.39 128.41
  A 1.21 1.20 78.3 0 1 87.03 127.51
  Q 82.81 110.04 75.90 93.12
  Q 73.41 87.03 66.47 83.03
  A 0.66 0.66 0.0 0 1 66.25 82.09
  Z
  M 155.10 75.55
  A 2.85 2.85 0.0 0 0 151.40 75.35
  Q 144.45 80.67 136.42 79.16
  C 130.56 78.05 124.88 74.07 118.75 72.96
  Q 109.29 71.25 101.06 76.65
  A 2.80 2.80 0.0 0 0 99.96 79.96
  L 99.98 80.03
  A 2.17 2.16 67.8 0 0 102.89 81.26
  Q 103.63 80.92 106.36 79.39
  C 110.77 76.91 116.34 77.06 121.20 78.69
  C 125.15 80.01 130.74 83.07 135.26 84.00
  Q 145.95 86.19 155.05 78.89
  A 2.16 2.16 0.0 0 0 155.20 75.64
  L 155.10 75.55
  Z
  M 155.13 92.16
  A 2.85 2.85 0.0 0 0 151.43 91.93
  Q 144.44 97.21 136.42 95.64
  C 130.56 94.49 124.90 90.47 118.77 89.32
  Q 109.32 87.55 101.04 92.89
  A 2.80 2.80 0.0 0 0 99.92 96.20
  L 99.94 96.27
  A 2.17 2.16 68.1 0 0 102.85 97.52
  Q 103.59 97.19 106.33 95.67
  C 110.76 93.22 116.33 93.41 121.19 95.07
  C 125.13 96.42 130.70 99.52 135.22 100.48
  Q 145.91 102.74 155.06 95.50
  A 2.16 2.16 0.0 0 0 155.23 92.25
  L 155.13 92.16
  Z
  M 155.16 108.17
  A 2.85 2.85 0.0 0 0 151.46 107.93
  Q 144.46 113.19 136.45 111.60
  C 130.59 110.44 124.94 106.41 118.82 105.24
  Q 109.38 103.45 101.09 108.77
  A 2.80 2.80 0.0 0 0 99.96 112.08
  L 99.98 112.15
  A 2.17 2.16 68.3 0 0 102.88 113.40
  Q 103.63 113.08 106.37 111.56
  C 110.80 109.12 116.37 109.33 121.22 111.00
  C 125.16 112.36 130.72 115.47 135.24 116.44
  Q 145.92 118.73 155.08 111.51
  A 2.16 2.16 0.0 0 0 155.26 108.26
  L 155.16 108.17
  Z"
/>
<path fill="#b2b0b4" d="
  M 66.47 83.03
  Q 73.41 87.03 75.90 93.12
  Q 82.81 110.04 87.03 127.51
  A 1.21 1.20 78.3 0 0 88.39 128.41
  C 96.10 127.16 104.81 126.47 113.58 126.53
  Q 124.77 126.60 136.35 126.07
  Q 142.69 125.78 147.48 129.74
  C 154.11 135.23 150.96 143.43 148.17 150.68
  Q 146.54 154.92 145.73 156.41
  C 143.00 161.41 137.71 164.07 132.23 164.12
  Q 119.07 164.24 75.40 164.11
  Q 71.14 164.10 66.43 160.80
  Q 60.38 156.57 58.69 148.39
  Q 56.62 138.36 42.69 65.46
  C 41.58 59.64 41.52 56.81 45.26 53.00
  C 48.93 49.27 57.10 49.05 61.11 50.90
  Q 66.96 53.60 68.42 60.32
  Q 69.98 67.49 69.84 73.14
  C 69.74 76.95 68.20 79.26 66.25 82.09
  A 0.66 0.66 0.0 0 0 66.47 83.03
  Z
  M 51.46 81.45
  L 59.00 81.34
  A 1.11 1.06 -58.4 0 0 59.53 81.20
  C 64.69 78.34 65.55 74.11 64.72 68.15
  C 63.83 61.78 63.51 54.40 55.24 54.61
  C 51.55 54.70 47.54 55.74 46.89 59.60
  Q 46.73 60.56 47.62 65.19
  Q 49.58 75.42 50.60 80.76
  A 0.87 0.86 -6.0 0 0 51.46 81.45
  Z
  M 52.10 86.55
  A 0.40 0.40 0.0 0 0 51.71 87.03
  Q 53.47 95.73 62.72 144.27
  C 63.93 150.62 65.74 155.65 71.85 158.36
  Q 74.33 159.46 81.25 159.48
  Q 100.65 159.53 125.20 159.46
  Q 133.84 159.43 135.71 158.76
  C 142.06 156.45 143.60 149.12 145.67 143.18
  C 147.34 138.42 147.33 135.38 143.13 132.62
  Q 141.01 131.23 139.63 131.19
  Q 115.09 130.46 92.78 132.59
  Q 89.97 132.86 86.01 133.74
  A 2.48 2.47 -12.7 0 1 83.06 131.88
  Q 79.52 116.45 73.70 100.90
  C 71.27 94.42 69.24 88.79 61.97 86.61
  A 1.44 1.41 -36.1 0 0 61.56 86.55
  L 52.10 86.55
  Z"
/>
<path fill="#ffffff" d="
  M 50.60 80.76
  Q 49.58 75.42 47.62 65.19
  Q 46.73 60.56 46.89 59.60
  C 47.54 55.74 51.55 54.70 55.24 54.61
  C 63.51 54.40 63.83 61.78 64.72 68.15
  C 65.55 74.11 64.69 78.34 59.53 81.20
  A 1.11 1.06 -58.4 0 1 59.00 81.34
  L 51.46 81.45
  A 0.87 0.86 -6.0 0 1 50.60 80.76
  Z"
/>
<path fill="#b2b0b4" d="
  M 155.10 75.55
  L 155.20 75.64
  A 2.16 2.16 0.0 0 1 155.05 78.89
  Q 145.95 86.19 135.26 84.00
  C 130.74 83.07 125.15 80.01 121.20 78.69
  C 116.34 77.06 110.77 76.91 106.36 79.39
  Q 103.63 80.92 102.89 81.26
  A 2.17 2.16 67.8 0 1 99.98 80.03
  L 99.96 79.96
  A 2.80 2.80 0.0 0 1 101.06 76.65
  Q 109.29 71.25 118.75 72.96
  C 124.88 74.07 130.56 78.05 136.42 79.16
  Q 144.45 80.67 151.40 75.35
  A 2.85 2.85 0.0 0 1 155.10 75.55
  Z"
/>
<path fill="#ffffff" d="
  M 52.10 86.55
  L 61.56 86.55
  A 1.44 1.41 -36.1 0 1 61.97 86.61
  C 69.24 88.79 71.27 94.42 73.70 100.90
  Q 79.52 116.45 83.06 131.88
  A 2.48 2.47 -12.7 0 0 86.01 133.74
  Q 89.97 132.86 92.78 132.59
  Q 115.09 130.46 139.63 131.19
  Q 141.01 131.23 143.13 132.62
  C 147.33 135.38 147.34 138.42 145.67 143.18
  C 143.60 149.12 142.06 156.45 135.71 158.76
  Q 133.84 159.43 125.20 159.46
  Q 100.65 159.53 81.25 159.48
  Q 74.33 159.46 71.85 158.36
  C 65.74 155.65 63.93 150.62 62.72 144.27
  Q 53.47 95.73 51.71 87.03
  A 0.40 0.40 0.0 0 1 52.10 86.55
  Z"
/>
<path fill="#b2b0b4" d="
  M 155.13 92.16
  L 155.23 92.25
  A 2.16 2.16 0.0 0 1 155.06 95.50
  Q 145.91 102.74 135.22 100.48
  C 130.70 99.52 125.13 96.42 121.19 95.07
  C 116.33 93.41 110.76 93.22 106.33 95.67
  Q 103.59 97.19 102.85 97.52
  A 2.17 2.16 68.1 0 1 99.94 96.27
  L 99.92 96.20
  A 2.80 2.80 0.0 0 1 101.04 92.89
  Q 109.32 87.55 118.77 89.32
  C 124.90 90.47 130.56 94.49 136.42 95.64
  Q 144.44 97.21 151.43 91.93
  A 2.85 2.85 0.0 0 1 155.13 92.16
  Z"
/>
<path fill="#b2b0b4" d="
  M 155.16 108.17
  L 155.26 108.26
  A 2.16 2.16 0.0 0 1 155.08 111.51
  Q 145.92 118.73 135.24 116.44
  C 130.72 115.47 125.16 112.36 121.22 111.00
  C 116.37 109.33 110.80 109.12 106.37 111.56
  Q 103.63 113.08 102.88 113.40
  A 2.17 2.16 68.3 0 1 99.98 112.15
  L 99.96 112.08
  A 2.80 2.80 0.0 0 1 101.09 108.77
  Q 109.38 103.45 118.82 105.24
  C 124.94 106.41 130.59 110.44 136.45 111.60
  Q 144.46 113.19 151.46 107.93
  A 2.85 2.85 0.0 0 1 155.16 108.17
  Z"
/>
</svg>
