<?xml version="1.0" encoding="UTF-8" standalone="no"?>
<!DOCTYPE svg PUBLIC "-//W3C//DTD SVG 1.1//EN" "http://www.w3.org/Graphics/SVG/1.1/DTD/svg11.dtd">
<svg xmlns="http://www.w3.org/2000/svg" version="1.1" viewBox="0.00 0.00 127.00 136.00">
<rect fill="#000000" x="-1.65" y="-10.34" transform="translate(80.09,31.95) rotate(-0.3)" width="3.30" height="20.68" rx="1.62"/>
<rect fill="#000000" x="11.34" y="21.58" width="3.28" height="19.94" rx="1.60"/>
<path fill="#000000" d="
  M 33.15 62.91
  A 0.47 0.46 -78.3 0 0 32.56 63.30
  Q 32.03 67.50 30.41 70.60
  A 2.83 2.80 -9.7 0 1 29.93 71.27
  Q 28.09 73.23 24.71 72.15
  C 21.84 71.23 19.10 69.76 19.65 66.18
  Q 20.33 61.75 21.97 58.46
  A 2.11 2.06 -33.4 0 0 22.19 57.45
  C 22.10 54.65 23.35 51.10 24.51 46.54
  A 1.88 1.86 69.2 0 1 24.78 45.93
  Q 26.32 43.75 28.40 43.97
  A 0.93 0.92 -73.5 0 0 29.33 43.46
  Q 30.76 40.49 33.64 35.92
  C 36.81 30.90 40.88 31.25 46.48 32.94
  Q 50.88 34.28 62.57 37.43
  Q 68.30 38.98 69.94 44.47
  C 70.92 47.74 69.77 51.85 69.83 54.90
  A 0.76 0.75 12.0 0 0 70.27 55.57
  Q 73.28 56.98 72.87 59.42
  Q 72.27 63.04 69.93 69.43
  Q 68.26 73.99 68.06 74.81
  C 66.47 81.28 64.98 83.35 58.15 81.04
  Q 55.12 80.02 54.50 76.54
  A 1.54 1.52 -41.6 0 1 54.55 75.79
  L 56.47 70.00
  A 0.49 0.48 17.2 0 0 56.14 69.38
  L 33.15 62.91
  Z
  M 49.49 49.42
  Q 57.03 51.54 65.84 54.08
  A 0.54 0.54 0.0 0 0 66.53 53.57
  C 66.62 48.65 68.27 42.02 61.47 40.81
  Q 60.77 40.68 52.60 38.38
  Q 44.43 36.07 43.77 35.81
  C 37.34 33.29 35.28 39.81 32.78 44.05
  A 0.54 0.54 0.0 0 0 33.11 44.84
  Q 41.94 47.29 49.49 49.42
  Z
  M 69.54 59.89
  A 1.43 1.43 0.0 0 0 68.55 58.12
  L 29.17 47.04
  A 1.43 1.43 0.0 0 0 27.40 48.03
  L 25.25 55.69
  A 1.43 1.43 0.0 0 0 26.24 57.46
  L 65.62 68.54
  A 1.43 1.43 0.0 0 0 67.39 67.55
  L 69.54 59.89
  Z
  M 29.6022 62.8226
  A 0.92 0.92 0.0 0 0 28.9537 61.6948
  L 25.3235 60.7153
  A 0.92 0.92 0.0 0 0 24.1956 61.3638
  L 22.6378 67.1374
  A 0.92 0.92 0.0 0 0 23.2863 68.2652
  L 26.9165 69.2447
  A 0.92 0.92 0.0 0 0 28.0444 68.5962
  L 29.6022 62.8226
  Z
  M 59.20 78.02
  L 61.88 78.77
  A 1.78 1.78 0.0 0 0 64.07 77.54
  L 65.33 73.05
  A 1.11 1.10 -74.3 0 0 64.57 71.68
  L 60.60 70.56
  A 1.18 1.18 0.0 0 0 59.14 71.38
  L 57.92 75.73
  A 1.86 1.85 15.9 0 0 59.20 78.02
  Z"
/>
<path fill="#000000" d="
  M 115.04 82.54
  L 78.64 83.07
  A 4.59 4.59 0.0 0 1 74.56 76.24
  L 92.63 43.93
  A 4.59 4.59 0.0 0 1 100.61 43.88
  L 118.95 75.65
  A 4.59 4.59 0.0 0 1 115.04 82.54
  Z
  M 114.58 79.09
  A 1.04 1.04 0.0 0 0 115.60 78.03
  L 115.58 76.95
  A 1.04 1.04 0.0 0 0 115.45 76.45
  L 97.52 45.39
  A 1.04 1.04 0.0 0 0 95.71 45.40
  L 77.44 78.08
  A 1.04 1.04 0.0 0 0 78.36 79.62
  L 114.58 79.09
  Z"
/>
<rect fill="#000000" x="11.38" y="47.27" width="3.26" height="19.20" rx="1.58"/>
<ellipse fill="#000000" cx="0.00" cy="0.00" transform="translate(80.18,50.89) rotate(-90.6)" rx="3.09" ry="1.83"/>
<rect fill="#000000" x="-1.69" y="-6.70" transform="translate(96.30,62.89) rotate(-1.3)" width="3.38" height="13.40" rx="1.63"/>
<ellipse fill="#000000" cx="0.00" cy="0.00" transform="translate(96.76,74.02) rotate(-161.5)" rx="2.10" ry="1.92"/>
<rect fill="#000000" x="-1.62" y="-9.66" transform="translate(13.01,82.14) rotate(-0.2)" width="3.24" height="19.32" rx="1.58"/>
<path fill="#000000" d="
  M 44.22 93.14
  Q 40.84 97.86 35.77 100.56
  A 1.82 1.81 76.5 0 1 33.11 98.92
  Q 33.13 98.17 34.08 97.57
  Q 38.97 94.54 41.42 91.13
  Q 43.86 87.72 45.16 82.12
  Q 45.42 81.03 46.13 80.77
  A 1.82 1.81 -5.2 0 1 48.53 82.76
  Q 47.60 88.43 44.22 93.14
  Z"
/>
<ellipse fill="#000000" cx="0.00" cy="0.00" transform="translate(80.28,89.15) rotate(-89.3)" rx="2.55" ry="1.76"/>
<rect fill="#000000" x="-1.83" y="-6.35" transform="translate(52.48,94.43) rotate(6.4)" width="3.66" height="12.70" rx="1.66"/>
<rect fill="#000000" x="78.63" y="97.47" width="3.26" height="19.42" rx="1.59"/>
<rect fill="#000000" x="-1.60" y="-9.28" transform="translate(13.02,107.18) rotate(-0.1)" width="3.20" height="18.56" rx="1.57"/>
</svg>
