<?xml version="1.0" encoding="UTF-8" standalone="no"?>
<!DOCTYPE svg PUBLIC "-//W3C//DTD SVG 1.1//EN" "http://www.w3.org/Graphics/SVG/1.1/DTD/svg11.dtd">
<svg xmlns="http://www.w3.org/2000/svg" version="1.1" viewBox="0.00 0.00 195.00 197.00">
<g stroke-width="2.00" fill="none" stroke-linecap="butt">
<path stroke="#fef6f6" vector-effect="non-scaling-stroke" d="
  M 0.00 77.64
  Q 4.23 112.89 36.88 126.73"
/>
<path stroke="#808080" vector-effect="non-scaling-stroke" d="
  M 36.88 126.73
  L 36.87 155.53
  A 3.44 3.19 38.8 0 0 37.01 156.48
  C 39.39 164.47 47.24 162.32 53.42 162.64
  C 56.84 162.81 60.20 161.65 61.97 158.71
  C 63.38 156.37 63.15 153.52 62.97 150.76
  A 0.60 0.60 0.0 0 1 63.57 150.12
  L 140.88 150.12
  A 0.55 0.55 0.0 0 1 141.43 150.68
  L 141.34 155.21
  A 1.68 1.56 42.9 0 0 141.37 155.61
  C 143.16 164.16 151.16 162.73 158.46 162.66
  C 162.12 162.62 164.37 161.65 166.42 158.94
  Q 167.61 157.38 167.60 152.33
  Q 167.52 118.56 167.59 110.74
  C 167.63 106.69 164.96 102.16 162.41 99.17
  A 0.34 0.33 -20.0 0 1 162.67 98.62
  L 169.90 98.62
  A 0.76 0.75 34.1 0 0 170.17 98.57
  Q 176.15 96.41 175.97 91.14
  Q 175.81 86.38 170.76 84.84
  A 1.60 1.41 -32.7 0 0 170.30 84.77
  L 160.44 84.77
  A 0.65 0.65 0.0 0 0 159.98 84.96
  L 156.38 88.55
  A 0.52 0.51 -32.5 0 1 155.53 88.37
  Q 153.08 81.65 149.22 72.71
  C 146.39 66.14 142.09 60.32 134.69 59.00
  A 0.54 0.53 14.1 0 1 134.27 58.31
  Q 135.29 55.07 134.82 52.50
  Q 133.49 45.28 131.20 37.26
  Q 129.89 32.68 126.49 30.69
  Q 124.59 29.58 118.37 29.55
  Q 104.46 29.49 91.57 29.27"
/>
<path stroke="#fef6f6" vector-effect="non-scaling-stroke" d="
  M 91.57 29.27
  Q 75.00 16.61 55.64 17.05
  C 25.84 17.71 2.74 40.03 0.00 69.53"
/>
<path stroke="#7f7776" vector-effect="non-scaling-stroke" d="
  M 91.57 29.27
  C 87.34 29.52 81.64 29.03 78.42 30.52
  Q 75.11 32.06 73.84 35.80
  Q 71.49 42.66 69.66 52.74
  Q 69.11 55.73 70.30 58.29
  A 0.49 0.49 0.0 0 1 69.93 58.97
  C 61.55 60.34 57.33 67.47 54.29 74.84
  Q 49.90 85.49 48.93 88.35
  A 0.50 0.50 0.0 0 1 48.11 88.54
  L 44.43 84.86
  A 0.83 0.79 -23.9 0 0 43.79 84.63
  C 38.32 85.17 30.03 82.50 28.48 90.47
  A 3.43 3.39 48.0 0 0 28.43 91.54
  Q 29.02 97.18 34.74 98.58
  A 1.15 1.03 -36.7 0 0 35.07 98.61
  L 41.72 98.54
  A 0.39 0.39 0.0 0 1 42.02 99.18
  Q 38.69 103.13 37.12 108.03
  A 4.60 4.37 -37.8 0 0 36.92 109.35
  L 36.88 126.73"
/>
<path stroke="#808080" vector-effect="non-scaling-stroke" d="
  M 74.26 56.16
  L 76.11 58.01
  A 0.61 0.60 68.1 0 0 76.55 58.20
  L 127.35 58.20
  A 1.33 1.31 28.7 0 0 128.05 58.00
  Q 130.63 56.46 130.19 53.51
  Q 129.53 49.09 126.74 38.75
  Q 125.58 34.47 121.01 34.46
  Q 105.12 34.44 84.75 34.46
  Q 84.21 34.46 80.94 34.82
  A 1.71 1.67 -67.9 0 0 80.05 35.21
  Q 78.40 36.62 77.81 38.81
  Q 76.34 44.26 73.99 55.27
  A 0.96 0.96 0.0 0 0 74.26 56.16"
/>
<path stroke="#808080" vector-effect="non-scaling-stroke" d="
  M 110.00 91.91
  L 151.02 91.94
  A 0.56 0.55 79.6 0 0 151.53 91.19
  Q 146.41 77.56 143.93 72.17
  C 142.49 69.05 139.50 65.69 136.33 64.28
  Q 135.05 63.71 131.61 63.69
  Q 122.09 63.63 112.34 63.69"
/>
<path stroke="#7f7776" vector-effect="non-scaling-stroke" d="
  M 112.34 63.69
  Q 92.49 63.62 72.36 63.65
  C 69.92 63.65 67.93 64.07 66.22 65.49
  Q 61.76 69.19 59.35 75.10
  Q 58.17 77.99 52.71 91.10
  A 0.59 0.58 11.4 0 0 53.25 91.91
  L 110.00 91.91"
/>
<path stroke="#fef6f6" vector-effect="non-scaling-stroke" d="
  M 112.34 63.69
  Q 114.20 78.25 110.00 91.91"
/>
<path stroke="#808080" vector-effect="non-scaling-stroke" d="
  M 43.29 90.00
  A 0.73 0.70 -17.3 0 0 42.71 89.71
  L 34.99 89.71
  A 1.59 1.59 0.0 0 0 33.40 91.30
  L 33.40 91.58
  A 2.38 2.37 -0.0 0 0 35.78 93.95
  L 46.04 93.95
  A 0.09 0.09 0.0 0 0 46.11 93.81
  L 43.29 90.00"
/>
<path stroke="#808080" vector-effect="non-scaling-stroke" d="
  M 161.37 89.96
  L 158.55 93.78
  A 0.09 0.09 0.0 0 0 158.62 93.92
  L 168.91 93.90
  A 2.39 2.38 -0.1 0 0 171.30 91.52
  L 171.30 91.24
  A 1.59 1.59 0.0 0 0 169.70 89.65
  L 161.95 89.66
  A 0.73 0.70 17.2 0 0 161.37 89.96"
/>
<path stroke="#808080" vector-effect="non-scaling-stroke" d="
  M 41.66 129.29
  Q 41.80 142.73 41.76 155.26
  Q 41.75 157.56 44.21 157.57
  Q 48.89 157.59 54.83 157.62
  Q 57.25 157.63 57.84 156.10
  A 1.16 1.10 57.4 0 0 57.92 155.68
  L 57.92 147.92
  A 2.66 2.65 -0.0 0 1 60.58 145.27
  Q 139.70 145.26 143.48 145.27
  Q 145.18 145.27 146.20 147.55
  A 2.28 2.21 -58.1 0 1 146.40 148.48
  Q 146.45 151.39 146.41 154.42
  C 146.37 156.89 147.58 157.66 149.73 157.62
  Q 154.22 157.54 159.56 157.62
  Q 162.06 157.65 162.86 155.57
  A 0.91 0.79 59.5 0 0 162.92 155.25
  L 162.92 129.04
  A 0.50 0.49 -1.1 0 0 162.40 128.55
  Q 150.31 129.22 147.50 129.46
  Q 138.54 130.23 135.39 122.72
  A 1.13 1.11 -57.0 0 1 135.30 122.28
  L 135.30 118.44
  A 1.59 1.54 -34.6 0 1 135.42 117.84
  Q 137.82 112.00 144.15 110.92
  Q 146.12 110.58 162.00 108.71
  A 0.47 0.47 0.0 0 0 162.39 108.08
  C 160.76 103.53 157.78 100.66 153.93 97.18
  A 1.37 1.36 65.7 0 0 153.02 96.83
  L 50.90 96.83
  A 1.02 1.00 23.2 0 0 50.21 97.10
  Q 45.00 101.73 42.02 108.27
  A 0.38 0.38 0.0 0 0 42.33 108.81
  Q 47.62 109.24 57.75 110.68
  C 62.84 111.41 67.60 112.99 69.27 118.15
  C 70.69 122.55 68.15 126.78 64.14 128.66
  Q 62.35 129.50 58.21 129.50
  C 52.07 129.49 47.44 128.73 42.17 128.77
  A 0.51 0.51 0.0 0 0 41.66 129.29"
/>
<path stroke="#808080" vector-effect="non-scaling-stroke" d="
  M 41.94 114.47
  L 41.22 123.06
  A 0.27 0.27 0.0 0 0 41.47 123.35
  L 53.70 124.38
  A 10.35 3.65 4.8 0 0 64.32 121.60
  L 64.48 119.75
  A 10.35 3.65 4.8 0 0 54.47 115.25
  L 42.23 114.22
  A 0.27 0.27 0.0 0 0 41.94 114.47"
/>
<path stroke="#808080" vector-effect="non-scaling-stroke" d="
  M 163.30 122.96
  L 162.61 114.39
  A 0.28 0.28 0.0 0 0 162.31 114.13
  L 148.21 115.26
  A 8.70 4.26 -4.6 0 0 139.88 120.21
  L 139.93 120.85
  A 8.70 4.26 -4.6 0 0 148.95 124.39
  L 163.04 123.26
  A 0.28 0.28 0.0 0 0 163.30 122.96"
/>
<path stroke="#808080" vector-effect="non-scaling-stroke" d="
  M 125.52 117.73
  A 2.56 2.56 0.0 0 0 122.96 115.17
  L 82.80 115.17
  A 2.56 2.56 0.0 0 0 80.24 117.73
  L 80.24 117.83
  A 2.56 2.56 0.0 0 0 82.80 120.39
  L 122.96 120.39
  A 2.56 2.56 0.0 0 0 125.52 117.83
  L 125.52 117.73"
/>
</g>
<path fill="#ffffff" d="
  M 195.00 0.00
  L 195.00 197.00
  L 0.00 197.00
  L 0.00 77.64
  Q 4.23 112.89 36.88 126.73
  L 36.87 155.53
  A 3.44 3.19 38.8 0 0 37.01 156.48
  C 39.39 164.47 47.24 162.32 53.42 162.64
  C 56.84 162.81 60.20 161.65 61.97 158.71
  C 63.38 156.37 63.15 153.52 62.97 150.76
  A 0.60 0.60 0.0 0 1 63.57 150.12
  L 140.88 150.12
  A 0.55 0.55 0.0 0 1 141.43 150.68
  L 141.34 155.21
  A 1.68 1.56 42.9 0 0 141.37 155.61
  C 143.16 164.16 151.16 162.73 158.46 162.66
  C 162.12 162.62 164.37 161.65 166.42 158.94
  Q 167.61 157.38 167.60 152.33
  Q 167.52 118.56 167.59 110.74
  C 167.63 106.69 164.96 102.16 162.41 99.17
  A 0.34 0.33 -20.0 0 1 162.67 98.62
  L 169.90 98.62
  A 0.76 0.75 34.1 0 0 170.17 98.57
  Q 176.15 96.41 175.97 91.14
  Q 175.81 86.38 170.76 84.84
  A 1.60 1.41 -32.7 0 0 170.30 84.77
  L 160.44 84.77
  A 0.65 0.65 0.0 0 0 159.98 84.96
  L 156.38 88.55
  A 0.52 0.51 -32.5 0 1 155.53 88.37
  Q 153.08 81.65 149.22 72.71
  C 146.39 66.14 142.09 60.32 134.69 59.00
  A 0.54 0.53 14.1 0 1 134.27 58.31
  Q 135.29 55.07 134.82 52.50
  Q 133.49 45.28 131.20 37.26
  Q 129.89 32.68 126.49 30.69
  Q 124.59 29.58 118.37 29.55
  Q 104.46 29.49 91.57 29.27
  Q 75.00 16.61 55.64 17.05
  C 25.84 17.71 2.74 40.03 0.00 69.53
  L 0.00 0.00
  L 195.00 0.00
  Z"
/>
<path fill="#fdedec" d="
  M 91.57 29.27
  C 87.34 29.52 81.64 29.03 78.42 30.52
  Q 75.11 32.06 73.84 35.80
  Q 71.49 42.66 69.66 52.74
  Q 69.11 55.73 70.30 58.29
  A 0.49 0.49 0.0 0 1 69.93 58.97
  C 61.55 60.34 57.33 67.47 54.29 74.84
  Q 49.90 85.49 48.93 88.35
  A 0.50 0.50 0.0 0 1 48.11 88.54
  L 44.43 84.86
  A 0.83 0.79 -23.9 0 0 43.79 84.63
  C 38.32 85.17 30.03 82.50 28.48 90.47
  A 3.43 3.39 48.0 0 0 28.43 91.54
  Q 29.02 97.18 34.74 98.58
  A 1.15 1.03 -36.7 0 0 35.07 98.61
  L 41.72 98.54
  A 0.39 0.39 0.0 0 1 42.02 99.18
  Q 38.69 103.13 37.12 108.03
  A 4.60 4.37 -37.8 0 0 36.92 109.35
  L 36.88 126.73
  Q 4.23 112.89 0.00 77.64
  L 0.00 69.53
  C 2.74 40.03 25.84 17.71 55.64 17.05
  Q 75.00 16.61 91.57 29.27
  Z"
/>
<path fill="#000000" d="
  M 91.57 29.27
  Q 104.46 29.49 118.37 29.55
  Q 124.59 29.58 126.49 30.69
  Q 129.89 32.68 131.20 37.26
  Q 133.49 45.28 134.82 52.50
  Q 135.29 55.07 134.27 58.31
  A 0.54 0.53 14.1 0 0 134.69 59.00
  C 142.09 60.32 146.39 66.14 149.22 72.71
  Q 153.08 81.65 155.53 88.37
  A 0.52 0.51 -32.5 0 0 156.38 88.55
  L 159.98 84.96
  A 0.65 0.65 0.0 0 1 160.44 84.77
  L 170.30 84.77
  A 1.60 1.41 -32.7 0 1 170.76 84.84
  Q 175.81 86.38 175.97 91.14
  Q 176.15 96.41 170.17 98.57
  A 0.76 0.75 34.1 0 1 169.90 98.62
  L 162.67 98.62
  A 0.34 0.33 -20.0 0 0 162.41 99.17
  C 164.96 102.16 167.63 106.69 167.59 110.74
  Q 167.52 118.56 167.60 152.33
  Q 167.61 157.38 166.42 158.94
  C 164.37 161.65 162.12 162.62 158.46 162.66
  C 151.16 162.73 143.16 164.16 141.37 155.61
  A 1.68 1.56 42.9 0 1 141.34 155.21
  L 141.43 150.68
  A 0.55 0.55 0.0 0 0 140.88 150.12
  L 63.57 150.12
  A 0.60 0.60 0.0 0 0 62.97 150.76
  C 63.15 153.52 63.38 156.37 61.97 158.71
  C 60.20 161.65 56.84 162.81 53.42 162.64
  C 47.24 162.32 39.39 164.47 37.01 156.48
  A 3.44 3.19 38.8 0 1 36.87 155.53
  L 36.88 126.73
  L 36.92 109.35
  A 4.60 4.37 -37.8 0 1 37.12 108.03
  Q 38.69 103.13 42.02 99.18
  A 0.39 0.39 0.0 0 0 41.72 98.54
  L 35.07 98.61
  A 1.15 1.03 -36.7 0 1 34.74 98.58
  Q 29.02 97.18 28.43 91.54
  A 3.43 3.39 48.0 0 1 28.48 90.47
  C 30.03 82.50 38.32 85.17 43.79 84.63
  A 0.83 0.79 -23.9 0 1 44.43 84.86
  L 48.11 88.54
  A 0.50 0.50 0.0 0 0 48.93 88.35
  Q 49.90 85.49 54.29 74.84
  C 57.33 67.47 61.55 60.34 69.93 58.97
  A 0.49 0.49 0.0 0 0 70.30 58.29
  Q 69.11 55.73 69.66 52.74
  Q 71.49 42.66 73.84 35.80
  Q 75.11 32.06 78.42 30.52
  C 81.64 29.03 87.34 29.52 91.57 29.27
  Z
  M 74.26 56.16
  L 76.11 58.01
  A 0.61 0.60 68.1 0 0 76.55 58.20
  L 127.35 58.20
  A 1.33 1.31 28.7 0 0 128.05 58.00
  Q 130.63 56.46 130.19 53.51
  Q 129.53 49.09 126.74 38.75
  Q 125.58 34.47 121.01 34.46
  Q 105.12 34.44 84.75 34.46
  Q 84.21 34.46 80.94 34.82
  A 1.71 1.67 -67.9 0 0 80.05 35.21
  Q 78.40 36.62 77.81 38.81
  Q 76.34 44.26 73.99 55.27
  A 0.96 0.96 0.0 0 0 74.26 56.16
  Z
  M 110.00 91.91
  L 151.02 91.94
  A 0.56 0.55 79.6 0 0 151.53 91.19
  Q 146.41 77.56 143.93 72.17
  C 142.49 69.05 139.50 65.69 136.33 64.28
  Q 135.05 63.71 131.61 63.69
  Q 122.09 63.63 112.34 63.69
  Q 92.49 63.62 72.36 63.65
  C 69.92 63.65 67.93 64.07 66.22 65.49
  Q 61.76 69.19 59.35 75.10
  Q 58.17 77.99 52.71 91.10
  A 0.59 0.58 11.4 0 0 53.25 91.91
  L 110.00 91.91
  Z
  M 43.29 90.00
  A 0.73 0.70 -17.3 0 0 42.71 89.71
  L 34.99 89.71
  A 1.59 1.59 0.0 0 0 33.40 91.30
  L 33.40 91.58
  A 2.38 2.37 -0.0 0 0 35.78 93.95
  L 46.04 93.95
  A 0.09 0.09 0.0 0 0 46.11 93.81
  L 43.29 90.00
  Z
  M 161.37 89.96
  L 158.55 93.78
  A 0.09 0.09 0.0 0 0 158.62 93.92
  L 168.91 93.90
  A 2.39 2.38 -0.1 0 0 171.30 91.52
  L 171.30 91.24
  A 1.59 1.59 0.0 0 0 169.70 89.65
  L 161.95 89.66
  A 0.73 0.70 17.2 0 0 161.37 89.96
  Z
  M 41.66 129.29
  Q 41.80 142.73 41.76 155.26
  Q 41.75 157.56 44.21 157.57
  Q 48.89 157.59 54.83 157.62
  Q 57.25 157.63 57.84 156.10
  A 1.16 1.10 57.4 0 0 57.92 155.68
  L 57.92 147.92
  A 2.66 2.65 -0.0 0 1 60.58 145.27
  Q 139.70 145.26 143.48 145.27
  Q 145.18 145.27 146.20 147.55
  A 2.28 2.21 -58.1 0 1 146.40 148.48
  Q 146.45 151.39 146.41 154.42
  C 146.37 156.89 147.58 157.66 149.73 157.62
  Q 154.22 157.54 159.56 157.62
  Q 162.06 157.65 162.86 155.57
  A 0.91 0.79 59.5 0 0 162.92 155.25
  L 162.92 129.04
  A 0.50 0.49 -1.1 0 0 162.40 128.55
  Q 150.31 129.22 147.50 129.46
  Q 138.54 130.23 135.39 122.72
  A 1.13 1.11 -57.0 0 1 135.30 122.28
  L 135.30 118.44
  A 1.59 1.54 -34.6 0 1 135.42 117.84
  Q 137.82 112.00 144.15 110.92
  Q 146.12 110.58 162.00 108.71
  A 0.47 0.47 0.0 0 0 162.39 108.08
  C 160.76 103.53 157.78 100.66 153.93 97.18
  A 1.37 1.36 65.7 0 0 153.02 96.83
  L 50.90 96.83
  A 1.02 1.00 23.2 0 0 50.21 97.10
  Q 45.00 101.73 42.02 108.27
  A 0.38 0.38 0.0 0 0 42.33 108.81
  Q 47.62 109.24 57.75 110.68
  C 62.84 111.41 67.60 112.99 69.27 118.15
  C 70.69 122.55 68.15 126.78 64.14 128.66
  Q 62.35 129.50 58.21 129.50
  C 52.07 129.49 47.44 128.73 42.17 128.77
  A 0.51 0.51 0.0 0 0 41.66 129.29
  Z
  M 41.94 114.47
  L 41.22 123.06
  A 0.27 0.27 0.0 0 0 41.47 123.35
  L 53.70 124.38
  A 10.35 3.65 4.8 0 0 64.32 121.60
  L 64.48 119.75
  A 10.35 3.65 4.8 0 0 54.47 115.25
  L 42.23 114.22
  A 0.27 0.27 0.0 0 0 41.94 114.47
  Z
  M 163.30 122.96
  L 162.61 114.39
  A 0.28 0.28 0.0 0 0 162.31 114.13
  L 148.21 115.26
  A 8.70 4.26 -4.6 0 0 139.88 120.21
  L 139.93 120.85
  A 8.70 4.26 -4.6 0 0 148.95 124.39
  L 163.04 123.26
  A 0.28 0.28 0.0 0 0 163.30 122.96
  Z"
/>
<path fill="#ffffff" d="
  M 73.99 55.27
  Q 76.34 44.26 77.81 38.81
  Q 78.40 36.62 80.05 35.21
  A 1.71 1.67 -67.9 0 1 80.94 34.82
  Q 84.21 34.46 84.75 34.46
  Q 105.12 34.44 121.01 34.46
  Q 125.58 34.47 126.74 38.75
  Q 129.53 49.09 130.19 53.51
  Q 130.63 56.46 128.05 58.00
  A 1.33 1.31 28.7 0 1 127.35 58.20
  L 76.55 58.20
  A 0.61 0.60 68.1 0 1 76.11 58.01
  L 74.26 56.16
  A 0.96 0.96 0.0 0 1 73.99 55.27
  Z"
/>
<path fill="#fdedec" d="
  M 112.34 63.69
  Q 114.20 78.25 110.00 91.91
  L 53.25 91.91
  A 0.59 0.58 11.4 0 1 52.71 91.10
  Q 58.17 77.99 59.35 75.10
  Q 61.76 69.19 66.22 65.49
  C 67.93 64.07 69.92 63.65 72.36 63.65
  Q 92.49 63.62 112.34 63.69
  Z"
/>
<path fill="#ffffff" d="
  M 110.00 91.91
  Q 114.20 78.25 112.34 63.69
  Q 122.09 63.63 131.61 63.69
  Q 135.05 63.71 136.33 64.28
  C 139.50 65.69 142.49 69.05 143.93 72.17
  Q 146.41 77.56 151.53 91.19
  A 0.56 0.55 79.6 0 1 151.02 91.94
  L 110.00 91.91
  Z"
/>
<path fill="#ffffff" d="
  M 46.04 93.95
  L 35.78 93.95
  A 2.38 2.37 0.0 0 1 33.40 91.58
  L 33.40 91.30
  A 1.59 1.59 0.0 0 1 34.99 89.71
  L 42.71 89.71
  A 0.73 0.70 -17.3 0 1 43.29 90.00
  L 46.11 93.81
  A 0.09 0.09 0.0 0 1 46.04 93.95
  Z"
/>
<path fill="#ffffff" d="
  M 161.37 89.96
  A 0.73 0.70 17.2 0 1 161.95 89.66
  L 169.70 89.65
  A 1.59 1.59 0.0 0 1 171.30 91.24
  L 171.30 91.52
  A 2.39 2.38 -0.1 0 1 168.91 93.90
  L 158.62 93.92
  A 0.09 0.09 0.0 0 1 158.55 93.78
  L 161.37 89.96
  Z"
/>
<path fill="#ffffff" d="
  M 42.17 128.77
  C 47.44 128.73 52.07 129.49 58.21 129.50
  Q 62.35 129.50 64.14 128.66
  C 68.15 126.78 70.69 122.55 69.27 118.15
  C 67.60 112.99 62.84 111.41 57.75 110.68
  Q 47.62 109.24 42.33 108.81
  A 0.38 0.38 0.0 0 1 42.02 108.27
  Q 45.00 101.73 50.21 97.10
  A 1.02 1.00 23.2 0 1 50.90 96.83
  L 153.02 96.83
  A 1.37 1.36 65.7 0 1 153.93 97.18
  C 157.78 100.66 160.76 103.53 162.39 108.08
  A 0.47 0.47 0.0 0 1 162.00 108.71
  Q 146.12 110.58 144.15 110.92
  Q 137.82 112.00 135.42 117.84
  A 1.59 1.54 -34.6 0 0 135.30 118.44
  L 135.30 122.28
  A 1.13 1.11 -57.0 0 0 135.39 122.72
  Q 138.54 130.23 147.50 129.46
  Q 150.31 129.22 162.40 128.55
  A 0.50 0.49 -1.1 0 1 162.92 129.04
  L 162.92 155.25
  A 0.91 0.79 59.5 0 1 162.86 155.57
  Q 162.06 157.65 159.56 157.62
  Q 154.22 157.54 149.73 157.62
  C 147.58 157.66 146.37 156.89 146.41 154.42
  Q 146.45 151.39 146.40 148.48
  A 2.28 2.21 -58.1 0 0 146.20 147.55
  Q 145.18 145.27 143.48 145.27
  Q 139.70 145.26 60.58 145.27
  A 2.66 2.65 0.0 0 0 57.92 147.92
  L 57.92 155.68
  A 1.16 1.10 57.4 0 1 57.84 156.10
  Q 57.25 157.63 54.83 157.62
  Q 48.89 157.59 44.21 157.57
  Q 41.75 157.56 41.76 155.26
  Q 41.80 142.73 41.66 129.29
  A 0.51 0.51 0.0 0 1 42.17 128.77
  Z
  M 125.52 117.73
  A 2.56 2.56 0.0 0 0 122.96 115.17
  L 82.80 115.17
  A 2.56 2.56 0.0 0 0 80.24 117.73
  L 80.24 117.83
  A 2.56 2.56 0.0 0 0 82.80 120.39
  L 122.96 120.39
  A 2.56 2.56 0.0 0 0 125.52 117.83
  L 125.52 117.73
  Z"
/>
<path fill="#ffffff" d="
  M 41.94 114.47
  A 0.27 0.27 0.0 0 1 42.23 114.22
  L 54.47 115.25
  A 10.35 3.65 4.8 0 1 64.48 119.75
  L 64.32 121.60
  A 10.35 3.65 4.8 0 1 53.70 124.38
  L 41.47 123.35
  A 0.27 0.27 0.0 0 1 41.22 123.06
  L 41.94 114.47
  Z"
/>
<path fill="#ffffff" d="
  M 163.30 122.96
  A 0.28 0.28 0.0 0 1 163.04 123.26
  L 148.95 124.39
  A 8.70 4.26 -4.6 0 1 139.93 120.85
  L 139.88 120.21
  A 8.70 4.26 -4.6 0 1 148.21 115.26
  L 162.31 114.13
  A 0.28 0.28 0.0 0 1 162.61 114.39
  L 163.30 122.96
  Z"
/>
<rect fill="#000000" x="80.24" y="115.17" width="45.28" height="5.22" rx="2.56"/>
</svg>
