<?xml version="1.0" encoding="UTF-8" standalone="no"?>
<!DOCTYPE svg PUBLIC "-//W3C//DTD SVG 1.1//EN" "http://www.w3.org/Graphics/SVG/1.1/DTD/svg11.dtd">
<svg xmlns="http://www.w3.org/2000/svg" version="1.1" viewBox="0.00 0.00 129.00 134.00">
<path fill="#000000" d="
  M 54.68 56.34
  Q 53.78 56.37 52.42 57.08
  A 1.64 1.64 0.0 0 1 50.10 56.13
  L 49.93 55.62
  A 1.40 1.40 0.0 0 1 50.83 53.86
  L 54.85 52.56
  A 0.68 0.67 81.1 0 0 55.31 51.92
  Q 55.32 39.30 55.27 37.93
  Q 55.06 31.61 56.65 28.34
  C 59.66 22.12 66.34 18.18 73.24 18.21
  Q 89.01 18.26 90.76 18.22
  C 100.47 18.05 109.09 24.89 109.20 35.02
  Q 109.36 49.32 109.17 51.53
  A 0.79 0.78 -78.8 0 0 109.71 52.34
  L 114.08 53.76
  A 1.59 1.59 0.0 0 1 115.00 56.01
  L 114.74 56.51
  A 1.36 1.36 0.0 0 1 113.11 57.18
  L 109.85 56.13
  A 0.47 0.46 9.1 0 0 109.24 56.57
  Q 109.20 89.93 109.26 91.97
  Q 109.54 101.27 107.95 104.85
  Q 105.10 111.25 98.52 114.15
  Q 95.09 115.67 89.07 115.43
  Q 87.56 115.38 70.82 115.41
  A 4.03 3.70 -36.1 0 1 69.94 115.31
  Q 58.14 112.48 55.39 100.72
  A 3.52 3.51 38.6 0 1 55.30 99.93
  L 55.30 56.95
  A 0.61 0.61 0.0 0 0 54.68 56.34
  Z
  M 82.35 42.22
  C 89.47 42.22 95.37 42.08 101.08 46.25
  A 3.32 3.26 0.5 0 1 101.79 46.96
  Q 102.93 48.46 103.35 50.10
  A 1.22 1.18 53.9 0 0 105.54 50.48
  Q 105.73 50.16 105.59 49.51
  Q 105.48 49.00 105.48 48.50
  Q 105.59 41.48 105.48 37.51
  A 0.70 0.70 0.0 0 0 104.89 36.84
  Q 92.89 34.95 92.36 22.80
  A 0.37 0.36 -1.5 0 0 91.98 22.45
  Q 89.48 22.53 82.37 22.53
  Q 75.25 22.52 72.75 22.44
  A 0.37 0.36 1.6 0 0 72.37 22.79
  Q 71.83 34.94 59.82 36.81
  A 0.70 0.70 0.0 0 0 59.23 37.48
  Q 59.12 41.45 59.22 48.47
  Q 59.22 48.97 59.11 49.48
  Q 58.97 50.13 59.16 50.45
  A 1.22 1.18 -53.9 0 0 61.35 50.07
  Q 61.77 48.43 62.91 46.93
  A 3.32 3.26 -0.4 0 1 63.62 46.22
  C 69.34 42.06 75.24 42.21 82.35 42.22
  Z
  M 68.6947 23.8002
  A 6.39 2.41 -46.3 0 0 62.5376 26.7550
  A 6.39 2.41 -46.3 0 0 59.8653 33.0398
  A 6.39 2.41 -46.3 0 0 66.0224 30.0850
  A 6.39 2.41 -46.3 0 0 68.6947 23.8002
  Z
  M 98.54 30.29
  Q 100.70 32.58 104.94 33.24
  A 0.42 0.42 0.0 0 0 105.40 32.72
  Q 104.39 29.13 102.21 26.82
  Q 100.04 24.51 96.52 23.29
  A 0.42 0.42 0.0 0 0 95.97 23.72
  Q 96.38 27.99 98.54 30.29
  Z
  M 82.32 61.64
  C 86.70 61.64 92.48 62.38 97.51 63.04
  A 0.86 0.86 0.0 0 0 98.46 62.38
  Q 99.57 57.39 99.90 52.45
  C 100.35 45.77 86.62 46.00 82.34 46.00
  C 78.07 45.99 64.34 45.72 64.76 52.41
  Q 65.08 57.34 66.18 62.33
  A 0.86 0.86 0.0 0 0 67.13 63.00
  C 72.16 62.35 77.94 61.63 82.32 61.64
  Z
  M 82.37 109.06
  Q 77.44 109.07 72.03 108.40
  Q 68.69 107.98 65.84 106.18
  C 59.60 102.23 62.84 95.97 62.85 90.48
  Q 62.88 79.48 62.66 67.17
  C 62.58 62.74 61.52 59.07 61.31 55.19
  A 0.51 0.50 88.2 0 0 60.81 54.71
  L 59.84 54.71
  A 0.73 0.73 0.0 0 0 59.11 55.45
  Q 59.24 91.39 59.16 94.23
  Q 58.97 101.19 60.56 104.09
  Q 63.48 109.46 69.72 111.19
  A 4.45 3.96 50.3 0 0 70.68 111.34
  Q 72.41 111.38 82.38 111.36
  Q 92.35 111.34 94.07 111.29
  A 4.45 3.96 -50.5 0 0 95.03 111.14
  Q 101.26 109.39 104.17 104.01
  Q 105.74 101.11 105.53 94.15
  Q 105.44 91.31 105.44 55.37
  A 0.73 0.73 0.0 0 0 104.71 54.63
  L 103.74 54.63
  A 0.51 0.50 -88.4 0 0 103.24 55.11
  C 103.04 58.99 102.00 62.67 101.93 67.10
  Q 101.76 79.41 101.83 90.41
  C 101.86 95.90 105.12 102.15 98.89 106.12
  Q 96.05 107.93 92.71 108.36
  Q 87.31 109.05 82.37 109.06
  Z
  M 95.16 65.89
  L 69.58 65.89
  A 3.16 3.16 0.0 0 0 66.42 69.05
  L 66.42 87.63
  A 11.23 4.22 0.0 0 0 77.65 91.85
  L 87.09 91.85
  A 11.23 4.22 -0.0 0 0 98.32 87.63
  L 98.32 69.05
  A 3.16 3.16 0.0 0 0 95.16 65.89
  Z
  M 82.38 95.71
  Q 77.29 95.72 74.01 95.33
  Q 68.66 94.69 67.58 93.72
  A 0.75 0.75 0.0 0 0 66.34 94.21
  L 65.81 99.59
  A 3.38 3.37 16.8 0 0 67.59 102.90
  Q 71.26 104.84 74.11 104.77
  Q 74.49 104.76 75.05 105.05
  C 76.16 105.62 79.21 105.45 82.41 105.44
  C 85.62 105.43 88.67 105.58 89.77 105.00
  Q 90.33 104.71 90.71 104.71
  Q 93.56 104.76 97.22 102.80
  A 3.38 3.37 -17.2 0 0 98.97 99.48
  L 98.41 94.10
  A 0.75 0.75 0.0 0 0 97.16 93.62
  Q 96.09 94.60 90.74 95.27
  Q 87.47 95.69 82.38 95.71
  Z"
/>
<path fill="#000000" d="
  M 18.36 65.29
  Q 18.36 65.40 18.36 65.47
  C 19.23 76.88 21.76 86.06 30.01 94.46
  A 1.77 1.76 -43.3 0 1 29.93 97.02
  L 29.84 97.10
  A 1.86 1.86 0.0 0 1 27.26 97.00
  Q 16.61 85.99 15.14 70.23
  Q 15.06 69.44 15.06 65.29
  Q 15.06 61.14 15.13 60.35
  Q 16.59 44.59 27.24 33.57
  A 1.86 1.86 0.0 0 1 29.82 33.47
  L 29.91 33.55
  A 1.77 1.76 43.2 0 1 29.99 36.11
  C 21.74 44.51 19.22 53.69 18.36 65.10
  Q 18.36 65.17 18.36 65.29
  Z"
/>
<path fill="#000000" d="
  M 30.20 65.17
  C 30.19 73.23 33.12 80.43 38.83 85.90
  A 1.64 1.63 46.6 0 1 38.77 88.32
  L 38.65 88.42
  A 1.90 1.89 47.1 0 1 36.07 88.32
  Q 28.89 81.16 26.97 71.20
  Q 26.52 68.85 26.53 65.17
  Q 26.53 61.49 26.99 59.14
  Q 28.94 49.18 36.14 42.05
  A 1.90 1.89 -46.9 0 1 38.72 41.95
  L 38.84 42.06
  A 1.64 1.63 -46.4 0 1 38.90 44.47
  C 33.17 49.93 30.22 57.12 30.20 65.17
  Z"
/>
<path fill="#000000" d="
  M 41.68 65.47
  Q 41.67 73.02 47.18 78.86
  A 1.49 1.49 0.0 0 1 46.72 81.23
  Q 45.06 81.98 44.08 80.91
  Q 38.03 74.26 38.04 65.47
  Q 38.05 56.67 44.11 50.04
  Q 45.09 48.96 46.75 49.72
  A 1.49 1.49 0.0 0 1 47.21 52.09
  Q 41.69 57.92 41.68 65.47
  Z"
/>
</svg>
