<?xml version="1.0" encoding="utf-8"?>
<svg version="1.1" viewBox="0.00 0.00 229.00 212.00" xmlns="http://www.w3.org/2000/svg"><g id="offState" style="display:inline"><g fill="none" stroke-linecap="butt" stroke-width="2.00">
<path class="icon-shape" d="   M 68.70 99.28   A 0.32 0.32 0.0 0 1 68.87 99.56   Q 69.03 136.71 68.80 156.24   Q 68.75 160.40 70.79 162.81   Q 72.21 164.50 78.92 171.73   C 81.11 174.09 83.42 175.14 85.83 172.53   Q 89.87 168.16 94.80 163.17   A 5.25 4.96 -10.3 0 0 95.72 161.92   Q 97.90 157.77 96.50 151.55   A 1.46 1.36 23.1 0 0 96.27 151.03   L 91.61 144.49   A 2.60 2.59 -45.7 0 1 91.58 141.52   L 96.67 134.00   A 3.46 3.46 0.0 0 0 96.80 130.32   L 91.93 121.87   A 0.96 0.96 0.0 0 1 92.14 120.66   C 94.67 118.51 96.82 116.63 96.90 113.43   Q 97.06 107.20 96.81 100.08   A 0.98 0.96 -13.3 0 1 97.38 99.17   C 118.91 89.38 127.49 62.67 113.32 43.17   Q 100.49 25.51 78.45 27.37   C 62.31 28.73 48.65 42.48 46.24 57.84   C 43.39 75.92 52.13 91.47 68.70 99.28" stroke="#d9d8da" vector-effect="non-scaling-stroke"/>
<path class="icon-shape" d="   M 83.42 167.44   L 91.29 159.20   A 1.44 1.38 -18.5 0 0 91.64 158.53   Q 92.47 154.55 90.57 151.93   Q 86.13 145.83 85.59 145.03   A 3.01 3.00 44.1 0 1 85.53 141.58   L 91.72 132.44   A 0.86 0.86 0.0 0 0 91.73 131.49   Q 89.37 127.88 86.36 122.64   C 84.56 119.51 88.93 116.79 90.87 114.85   A 3.21 3.20 67.7 0 0 91.82 112.57   L 91.82 98.21   A 3.41 3.41 0.0 0 1 93.93 95.06   C 118.94 84.73 122.91 52.29 99.97 37.22   C 84.34 26.95 64.31 32.79 55.12 48.27   Q 49.63 57.52 51.00 68.60   C 52.57 81.27 60.44 89.71 72.09 95.04   A 3.26 3.26 0.0 0 1 73.99 98.00   L 73.99 157.19   A 4.37 4.37 0.0 0 0 75.27 160.28   L 82.45 167.45   A 0.68 0.68 0.0 0 0 83.42 167.44" stroke="#d9d8da" vector-effect="non-scaling-stroke"/>
<path class="icon-shape" d="   M 94.9931 49.4999   A 12.53 12.17 -13.9 0 0 79.9064 40.6964   A 12.53 12.17 -13.9 0 0 70.6669 55.5201   A 12.53 12.17 -13.9 0 0 85.7536 64.3236   A 12.53 12.17 -13.9 0 0 94.9931 49.4999" stroke="#d9d8da" vector-effect="non-scaling-stroke"/>
<path class="icon-shape" d="   M 90.0551 51.0495   A 7.34 6.92 -11.0 0 0 81.5296 45.6571   A 7.34 6.92 -11.0 0 0 75.6449 53.8505   A 7.34 6.92 -11.0 0 0 84.1704 59.2429   A 7.34 6.92 -11.0 0 0 90.0551 51.0495" stroke="#d9d8da" vector-effect="non-scaling-stroke"/>
</g>
<path class="icon-shape" d="   M 229.00 0.00   L 229.00 212.00   L 0.00 212.00   L 0.00 0.00   L 229.00 0.00   Z   M 68.70 99.28   A 0.32 0.32 0.0 0 1 68.87 99.56   Q 69.03 136.71 68.80 156.24   Q 68.75 160.40 70.79 162.81   Q 72.21 164.50 78.92 171.73   C 81.11 174.09 83.42 175.14 85.83 172.53   Q 89.87 168.16 94.80 163.17   A 5.25 4.96 -10.3 0 0 95.72 161.92   Q 97.90 157.77 96.50 151.55   A 1.46 1.36 23.1 0 0 96.27 151.03   L 91.61 144.49   A 2.60 2.59 -45.7 0 1 91.58 141.52   L 96.67 134.00   A 3.46 3.46 0.0 0 0 96.80 130.32   L 91.93 121.87   A 0.96 0.96 0.0 0 1 92.14 120.66   C 94.67 118.51 96.82 116.63 96.90 113.43   Q 97.06 107.20 96.81 100.08   A 0.98 0.96 -13.3 0 1 97.38 99.17   C 118.91 89.38 127.49 62.67 113.32 43.17   Q 100.49 25.51 78.45 27.37   C 62.31 28.73 48.65 42.48 46.24 57.84   C 43.39 75.92 52.13 91.47 68.70 99.28   Z" fill="#ffffff"/>
<path class="icon-shape" d="   M 68.70 99.28   C 52.13 91.47 43.39 75.92 46.24 57.84   C 48.65 42.48 62.31 28.73 78.45 27.37   Q 100.49 25.51 113.32 43.17   C 127.49 62.67 118.91 89.38 97.38 99.17   A 0.98 0.96 -13.3 0 0 96.81 100.08   Q 97.06 107.20 96.90 113.43   C 96.82 116.63 94.67 118.51 92.14 120.66   A 0.96 0.96 0.0 0 0 91.93 121.87   L 96.80 130.32   A 3.46 3.46 0.0 0 1 96.67 134.00   L 91.58 141.52   A 2.60 2.59 -45.7 0 0 91.61 144.49   L 96.27 151.03   A 1.46 1.36 23.1 0 1 96.50 151.55   Q 97.90 157.77 95.72 161.92   A 5.25 4.96 -10.3 0 1 94.80 163.17   Q 89.87 168.16 85.83 172.53   C 83.42 175.14 81.11 174.09 78.92 171.73   Q 72.21 164.50 70.79 162.81   Q 68.75 160.40 68.80 156.24   Q 69.03 136.71 68.87 99.56   A 0.32 0.32 0.0 0 0 68.70 99.28   Z   M 83.42 167.44   L 91.29 159.20   A 1.44 1.38 -18.5 0 0 91.64 158.53   Q 92.47 154.55 90.57 151.93   Q 86.13 145.83 85.59 145.03   A 3.01 3.00 44.1 0 1 85.53 141.58   L 91.72 132.44   A 0.86 0.86 0.0 0 0 91.73 131.49   Q 89.37 127.88 86.36 122.64   C 84.56 119.51 88.93 116.79 90.87 114.85   A 3.21 3.20 67.7 0 0 91.82 112.57   L 91.82 98.21   A 3.41 3.41 0.0 0 1 93.93 95.06   C 118.94 84.73 122.91 52.29 99.97 37.22   C 84.34 26.95 64.31 32.79 55.12 48.27   Q 49.63 57.52 51.00 68.60   C 52.57 81.27 60.44 89.71 72.09 95.04   A 3.26 3.26 0.0 0 1 73.99 98.00   L 73.99 157.19   A 4.37 4.37 0.0 0 0 75.27 160.28   L 82.45 167.45   A 0.68 0.68 0.0 0 0 83.42 167.44   Z" fill="#b3b0b4"/>
<path class="icon-shape" d="   M 83.42 167.44   A 0.68 0.68 0.0 0 1 82.45 167.45   L 75.27 160.28   A 4.37 4.37 0.0 0 1 73.99 157.19   L 73.99 98.00   A 3.26 3.26 0.0 0 0 72.09 95.04   C 60.44 89.71 52.57 81.27 51.00 68.60   Q 49.63 57.52 55.12 48.27   C 64.31 32.79 84.34 26.95 99.97 37.22   C 122.91 52.29 118.94 84.73 93.93 95.06   A 3.41 3.41 0.0 0 0 91.82 98.21   L 91.82 112.57   A 3.21 3.20 67.7 0 1 90.87 114.85   C 88.93 116.79 84.56 119.51 86.36 122.64   Q 89.37 127.88 91.73 131.49   A 0.86 0.86 0.0 0 1 91.72 132.44   L 85.53 141.58   A 3.01 3.00 44.1 0 0 85.59 145.03   Q 86.13 145.83 90.57 151.93   Q 92.47 154.55 91.64 158.53   A 1.44 1.38 -18.5 0 1 91.29 159.20   L 83.42 167.44   Z   M 94.9931 49.4999   A 12.53 12.17 -13.9 0 0 79.9064 40.6964   A 12.53 12.17 -13.9 0 0 70.6669 55.5201   A 12.53 12.17 -13.9 0 0 85.7536 64.3236   A 12.53 12.17 -13.9 0 0 94.9931 49.4999   Z" fill="#ffffff"/>
<path class="icon-shape" d="   M 94.9931 49.4999   A 12.53 12.17 -13.9 0 1 85.7536 64.3236   A 12.53 12.17 -13.9 0 1 70.6669 55.5201   A 12.53 12.17 -13.9 0 1 79.9064 40.6964   A 12.53 12.17 -13.9 0 1 94.9931 49.4999   Z   M 90.0551 51.0495   A 7.34 6.92 -11.0 0 0 81.5296 45.6571   A 7.34 6.92 -11.0 0 0 75.6449 53.8505   A 7.34 6.92 -11.0 0 0 84.1704 59.2429   A 7.34 6.92 -11.0 0 0 90.0551 51.0495   Z" fill="#b3b0b4"/>
<ellipse cx="0.00" cy="0.00" fill="#ffffff" rx="7.34" ry="6.92" transform="translate(82.85,52.45) rotate(-11.0)"/>
</g><g id="onState" style="display:none"><g fill="none" stroke-linecap="butt" stroke-width="2.00">
<path class="icon-shape" d="   M 0.00 83.79   C 3.78 118.83 34.26 141.51 68.95 134.68" stroke="#fef6f6" vector-effect="non-scaling-stroke"/>
<path class="icon-shape" d="   M 68.95 134.68   L 68.94 159.32   A 2.67 2.44 36.4 0 0 69.13 160.28   Q 69.83 161.98 71.37 163.64   Q 75.86 168.48 78.86 171.79   C 82.88 176.24 84.99 173.54 88.34 169.99   Q 94.30 163.70 94.86 163.11   C 97.24 160.62 97.26 156.50 96.91 153.16   C 96.60 150.20 92.70 146.09 91.14 143.67   A 1.04 1.03 -46.4 0 1 91.12 142.59   Q 91.47 142.02 96.12 134.85   Q 98.25 131.57 96.19 128.59   Q 94.25 125.78 92.45 122.79" stroke="#808080" vector-effect="non-scaling-stroke"/>
<path class="icon-shape" d="   M 92.45 122.79   C 102.59 114.74 110.79 101.56 111.71 88.40" stroke="#fef6f6" vector-effect="non-scaling-stroke"/>
<path class="icon-shape" d="   M 111.71 88.40   C 121.43 76.04 123.11 60.02 115.48 46.34   Q 111.39 39.00 104.81 34.19   Q 92.83 25.43 77.20 27.23" stroke="#808080" vector-effect="non-scaling-stroke"/>
<path class="icon-shape" d="   M 77.20 27.23   Q 59.64 20.44 42.91 24.65   C 18.96 30.66 2.82 50.36 0.00 75.09" stroke="#fef6f6" vector-effect="non-scaling-stroke"/>
<path class="icon-shape" d="   M 77.20 27.23   Q 67.23 29.16 60.46 34.45   C 49.84 42.74 44.59 54.80 45.89 68.40   C 47.28 82.84 55.57 92.55 68.50 99.32   A 0.86 0.84 14.0 0 1 68.96 100.07   L 68.95 134.68" stroke="#7f7777" vector-effect="non-scaling-stroke"/>
<path class="icon-shape" d="   M 111.71 88.40   Q 107.51 93.42 101.97 96.66   Q 101.19 97.11 97.27 99.46   A 0.89 0.88 -16.7 0 0 96.84 100.25   Q 97.11 107.02 96.87 113.72   C 96.76 116.93 94.40 118.87 92.29 120.64   Q 91.71 121.13 91.78 121.75   Q 91.86 122.33 92.45 122.79" stroke="#7f7777" vector-effect="non-scaling-stroke"/>
<path class="icon-shape" d="   M 83.36 167.53   L 91.29 159.16   A 1.35 1.34 -18.3 0 0 91.65 158.45   Q 92.38 154.37 90.68 152.08   Q 86.35 146.23 85.01 144.16   A 1.67 1.67 0.0 0 1 85.02 142.31   L 91.76 132.34   A 0.59 0.59 0.0 0 0 91.78 131.71   Q 89.14 127.24 86.60 123.26   Q 84.98 120.70 86.61 119.01   Q 88.27 117.28 91.27 114.44   A 1.67 1.65 68.6 0 0 91.79 113.23   L 91.79 98.40   A 3.79 3.78 78.7 0 1 94.11 94.91   C 105.30 90.25 113.71 80.10 114.93 67.98   C 117.11 46.11 97.25 28.41 76.05 32.91   Q 65.61 35.13 58.30 43.90   C 43.74 61.35 50.99 85.84 71.37 94.65   Q 74.01 95.79 74.01 97.77   Q 74.08 135.93 73.93 156.76   Q 73.92 158.46 75.32 159.99   Q 81.37 166.61 82.51 167.58   A 0.62 0.62 0.0 0 0 83.36 167.53" stroke="#808080" vector-effect="non-scaling-stroke"/>
<path class="icon-shape" d="   M 94.8982 48.9481   A 12.58 12.22 -16.4 0 0 79.3798 40.7772   A 12.58 12.22 -16.4 0 0 70.7618 56.0519   A 12.58 12.22 -16.4 0 0 86.2802 64.2228   A 12.58 12.22 -16.4 0 0 94.8982 48.9481" stroke="#808080" vector-effect="non-scaling-stroke"/>
<path class="icon-shape" d="   M 90.0061 51.0690   A 7.29 6.86 -11.0 0 0 81.5411 45.7260   A 7.29 6.86 -11.0 0 0 75.6939 53.8510   A 7.29 6.86 -11.0 0 0 84.1589 59.1940   A 7.29 6.86 -11.0 0 0 90.0061 51.0690" stroke="#7f7777" vector-effect="non-scaling-stroke"/>
</g>
<path class="icon-shape" d="   M 229.00 0.00   L 229.00 212.00   L 0.00 212.00   L 0.00 83.79   C 3.78 118.83 34.26 141.51 68.95 134.68   L 68.94 159.32   A 2.67 2.44 36.4 0 0 69.13 160.28   Q 69.83 161.98 71.37 163.64   Q 75.86 168.48 78.86 171.79   C 82.88 176.24 84.99 173.54 88.34 169.99   Q 94.30 163.70 94.86 163.11   C 97.24 160.62 97.26 156.50 96.91 153.16   C 96.60 150.20 92.70 146.09 91.14 143.67   A 1.04 1.03 -46.4 0 1 91.12 142.59   Q 91.47 142.02 96.12 134.85   Q 98.25 131.57 96.19 128.59   Q 94.25 125.78 92.45 122.79   C 102.59 114.74 110.79 101.56 111.71 88.40   C 121.43 76.04 123.11 60.02 115.48 46.34   Q 111.39 39.00 104.81 34.19   Q 92.83 25.43 77.20 27.23   Q 59.64 20.44 42.91 24.65   C 18.96 30.66 2.82 50.36 0.00 75.09   L 0.00 0.00   L 229.00 0.00   Z" fill="#ffffff"/>
<path class="icon-shape" d="   M 77.20 27.23   Q 67.23 29.16 60.46 34.45   C 49.84 42.74 44.59 54.80 45.89 68.40   C 47.28 82.84 55.57 92.55 68.50 99.32   A 0.86 0.84 14.0 0 1 68.96 100.07   L 68.95 134.68   C 34.26 141.51 3.78 118.83 0.00 83.79   L 0.00 75.09   C 2.82 50.36 18.96 30.66 42.91 24.65   Q 59.64 20.44 77.20 27.23   Z" fill="#fdedec"/>
<path class="icon-shape" d="   M 111.71 88.40   Q 107.51 93.42 101.97 96.66   Q 101.19 97.11 97.27 99.46   A 0.89 0.88 -16.7 0 0 96.84 100.25   Q 97.11 107.02 96.87 113.72   C 96.76 116.93 94.40 118.87 92.29 120.64   Q 91.71 121.13 91.78 121.75   Q 91.86 122.33 92.45 122.79   Q 94.25 125.78 96.19 128.59   Q 98.25 131.57 96.12 134.85   Q 91.47 142.02 91.12 142.59   A 1.04 1.03 -46.4 0 0 91.14 143.67   C 92.70 146.09 96.60 150.20 96.91 153.16   C 97.26 156.50 97.24 160.62 94.86 163.11   Q 94.30 163.70 88.34 169.99   C 84.99 173.54 82.88 176.24 78.86 171.79   Q 75.86 168.48 71.37 163.64   Q 69.83 161.98 69.13 160.28   A 2.67 2.44 36.4 0 1 68.94 159.32   L 68.95 134.68   L 68.96 100.07   A 0.86 0.84 14.0 0 0 68.50 99.32   C 55.57 92.55 47.28 82.84 45.89 68.40   C 44.59 54.80 49.84 42.74 60.46 34.45   Q 67.23 29.16 77.20 27.23   Q 92.83 25.43 104.81 34.19   Q 111.39 39.00 115.48 46.34   C 123.11 60.02 121.43 76.04 111.71 88.40   Z   M 83.36 167.53   L 91.29 159.16   A 1.35 1.34 -18.3 0 0 91.65 158.45   Q 92.38 154.37 90.68 152.08   Q 86.35 146.23 85.01 144.16   A 1.67 1.67 0.0 0 1 85.02 142.31   L 91.76 132.34   A 0.59 0.59 0.0 0 0 91.78 131.71   Q 89.14 127.24 86.60 123.26   Q 84.98 120.70 86.61 119.01   Q 88.27 117.28 91.27 114.44   A 1.67 1.65 68.6 0 0 91.79 113.23   L 91.79 98.40   A 3.79 3.78 78.7 0 1 94.11 94.91   C 105.30 90.25 113.71 80.10 114.93 67.98   C 117.11 46.11 97.25 28.41 76.05 32.91   Q 65.61 35.13 58.30 43.90   C 43.74 61.35 50.99 85.84 71.37 94.65   Q 74.01 95.79 74.01 97.77   Q 74.08 135.93 73.93 156.76   Q 73.92 158.46 75.32 159.99   Q 81.37 166.61 82.51 167.58   A 0.62 0.62 0.0 0 0 83.36 167.53   Z" fill="#010101"/>
<path class="icon-shape" d="   M 82.51 167.58   Q 81.37 166.61 75.32 159.99   Q 73.92 158.46 73.93 156.76   Q 74.08 135.93 74.01 97.77   Q 74.01 95.79 71.37 94.65   C 50.99 85.84 43.74 61.35 58.30 43.90   Q 65.61 35.13 76.05 32.91   C 97.25 28.41 117.11 46.11 114.93 67.98   C 113.71 80.10 105.30 90.25 94.11 94.91   A 3.79 3.78 78.7 0 0 91.79 98.40   L 91.79 113.23   A 1.67 1.65 68.6 0 1 91.27 114.44   Q 88.27 117.28 86.61 119.01   Q 84.98 120.70 86.60 123.26   Q 89.14 127.24 91.78 131.71   A 0.59 0.59 0.0 0 1 91.76 132.34   L 85.02 142.31   A 1.67 1.67 0.0 0 0 85.01 144.16   Q 86.35 146.23 90.68 152.08   Q 92.38 154.37 91.65 158.45   A 1.35 1.34 -18.3 0 1 91.29 159.16   L 83.36 167.53   A 0.62 0.62 0.0 0 1 82.51 167.58   Z   M 94.8982 48.9481   A 12.58 12.22 -16.4 0 0 79.3798 40.7772   A 12.58 12.22 -16.4 0 0 70.7618 56.0519   A 12.58 12.22 -16.4 0 0 86.2802 64.2228   A 12.58 12.22 -16.4 0 0 94.8982 48.9481   Z" fill="#ffffff"/>
<path class="icon-shape" d="   M 94.8982 48.9481   A 12.58 12.22 -16.4 0 1 86.2802 64.2228   A 12.58 12.22 -16.4 0 1 70.7618 56.0519   A 12.58 12.22 -16.4 0 1 79.3798 40.7772   A 12.58 12.22 -16.4 0 1 94.8982 48.9481   Z   M 90.0061 51.0690   A 7.29 6.86 -11.0 0 0 81.5411 45.7260   A 7.29 6.86 -11.0 0 0 75.6939 53.8510   A 7.29 6.86 -11.0 0 0 84.1589 59.1940   A 7.29 6.86 -11.0 0 0 90.0061 51.0690   Z" fill="#010101"/>
<ellipse cx="0.00" cy="0.00" fill="#fdedec" rx="7.29" ry="6.86" transform="translate(82.85,52.46) rotate(-11.0)"/>
<path class="icon-shape" d="   M 111.71 88.40   C 110.79 101.56 102.59 114.74 92.45 122.79   Q 91.86 122.33 91.78 121.75   Q 91.71 121.13 92.29 120.64   C 94.40 118.87 96.76 116.93 96.87 113.72   Q 97.11 107.02 96.84 100.25   A 0.89 0.88 -16.7 0 1 97.27 99.46   Q 101.19 97.11 101.97 96.66   Q 107.51 93.42 111.71 88.40   Z" fill="#fdedec"/>
</g></svg>