<?xml version="1.0" encoding="UTF-8" standalone="no"?>
<!DOCTYPE svg PUBLIC "-//W3C//DTD SVG 1.1//EN" "http://www.w3.org/Graphics/SVG/1.1/DTD/svg11.dtd">
<svg xmlns="http://www.w3.org/2000/svg" version="1.1" viewBox="0.00 0.00 209.00 204.00">
<g stroke-width="2.00" fill="none" stroke-linecap="butt">
<path stroke="#d9d8da" vector-effect="non-scaling-stroke" d="
  M 73.65 106.02
  Q 66.69 105.76 57.09 106.10
  Q 53.26 106.23 52.20 108.97
  Q 36.82 148.58 35.42 152.14
  C 33.57 156.84 35.25 161.07 40.77 161.06
  Q 140.68 160.97 167.01 161.08
  C 170.84 161.10 173.93 159.90 174.63 156.04
  Q 174.88 154.69 173.55 151.20
  Q 165.19 129.25 163.33 124.35
  A 0.97 0.97 0.0 0 1 163.51 123.36
  C 171.64 114.19 172.60 100.33 165.33 90.41
  C 150.30 69.92 119.96 80.53 119.12 105.02
  A 0.81 0.81 0.0 0 1 118.31 105.80
  L 114.81 105.80
  A 0.32 0.32 0.0 0 1 114.53 105.33
  Q 119.22 96.40 124.52 85.03
  Q 127.46 78.71 128.42 74.48
  C 132.16 57.96 122.41 40.80 106.57 35.23
  Q 92.59 30.31 80.24 35.90
  C 62.59 43.90 54.79 64.20 62.61 82.14
  Q 67.81 94.07 74.03 105.41
  A 0.41 0.41 0.0 0 1 73.65 106.02"
/>
<path stroke="#d9d8da" vector-effect="non-scaling-stroke" d="
  M 94.11 128.17
  Q 94.41 128.17 95.10 127.16
  Q 107.25 109.17 116.65 90.29
  Q 122.83 77.88 123.67 73.51
  C 127.18 55.25 113.08 38.09 94.47 38.02
  C 75.85 37.94 61.62 54.99 64.98 73.28
  Q 65.79 77.65 71.87 90.11
  Q 81.12 109.07 93.13 127.15
  Q 93.80 128.17 94.11 128.17"
/>
<path stroke="#d9d8da" vector-effect="non-scaling-stroke" d="
  M 142.4547 84.6211
  A 21.04 20.66 -96.4 0 0 124.2688 107.8329
  A 21.04 20.66 -96.4 0 0 147.1453 126.4389
  A 21.04 20.66 -96.4 0 0 165.3312 103.2271
  A 21.04 20.66 -96.4 0 0 142.4547 84.6211"
/>
<path stroke="#d9d8da" vector-effect="non-scaling-stroke" d="
  M 39.47 156.39
  L 87.10 156.39
  A 0.75 0.74 16.2 0 0 87.73 156.05
  Q 96.58 142.59 112.60 138.60
  Q 118.97 137.01 128.47 136.60
  A 0.75 0.74 5.9 0 0 129.15 136.05
  L 131.18 128.45
  A 0.88 0.88 0.0 0 0 130.83 127.50
  Q 122.12 121.40 119.89 111.29
  A 0.80 0.79 -5.8 0 0 119.11 110.66
  L 112.33 110.66
  A 1.25 1.24 -75.0 0 0 111.25 111.29
  Q 106.42 119.64 98.09 132.60
  Q 95.63 136.43 91.72 133.83
  A 4.00 3.96 -89.8 0 1 90.58 132.67
  L 76.87 111.24
  A 1.29 1.29 0.0 0 0 75.78 110.64
  L 57.12 110.64
  A 0.86 0.85 10.4 0 0 56.32 111.19
  L 39.04 155.77
  A 0.46 0.46 0.0 0 0 39.47 156.39"
/>
<path stroke="#d9d8da" vector-effect="non-scaling-stroke" d="
  M 94.03 156.38
  L 168.84 156.38
  A 1.08 1.07 -10.1 0 0 169.86 154.93
  L 159.58 127.50
  A 0.44 0.44 0.0 0 0 158.93 127.28
  Q 148.61 134.00 136.48 130.30
  A 0.72 0.72 0.0 0 0 135.58 130.80
  L 133.18 139.82
  A 2.62 2.61 8.3 0 1 130.56 141.76
  C 116.33 141.30 103.31 144.73 93.78 155.83
  A 0.33 0.33 0.0 0 0 94.03 156.38"
/>
<path stroke="#d9d8da" vector-effect="non-scaling-stroke" d="
  M 111.10 67.77
  A 16.68 16.68 0.0 0 0 94.42 51.09
  A 16.68 16.68 0.0 0 0 77.74 67.77
  A 16.68 16.68 0.0 0 0 94.42 84.45
  A 16.68 16.68 0.0 0 0 111.10 67.77"
/>
<path stroke="#d9d8da" vector-effect="non-scaling-stroke" d="
  M 105.94 67.74
  A 11.43 11.43 0.0 0 0 94.51 56.31
  A 11.43 11.43 0.0 0 0 83.08 67.74
  A 11.43 11.43 0.0 0 0 94.51 79.17
  A 11.43 11.43 0.0 0 0 105.94 67.74"
/>
<path stroke="#d9d8da" vector-effect="non-scaling-stroke" d="
  M 142.68 109.62
  A 0.65 0.65 0.0 0 1 141.76 109.62
  L 136.58 104.44
  A 2.12 2.11 -44.9 0 0 133.59 104.44
  L 133.04 104.99
  A 2.06 2.06 0.0 0 0 133.16 108.01
  L 141.59 115.21
  A 1.77 1.75 42.6 0 0 143.97 115.12
  L 156.93 102.16
  A 2.44 2.44 0.0 0 0 157.03 98.81
  L 156.79 98.53
  A 2.01 2.01 0.0 0 0 153.86 98.45
  L 142.68 109.62"
/>
</g>
<path fill="#ffffff" d="
  M 209.00 0.00
  L 209.00 204.00
  L 0.00 204.00
  L 0.00 0.00
  L 209.00 0.00
  Z
  M 73.65 106.02
  Q 66.69 105.76 57.09 106.10
  Q 53.26 106.23 52.20 108.97
  Q 36.82 148.58 35.42 152.14
  C 33.57 156.84 35.25 161.07 40.77 161.06
  Q 140.68 160.97 167.01 161.08
  C 170.84 161.10 173.93 159.90 174.63 156.04
  Q 174.88 154.69 173.55 151.20
  Q 165.19 129.25 163.33 124.35
  A 0.97 0.97 0.0 0 1 163.51 123.36
  C 171.64 114.19 172.60 100.33 165.33 90.41
  C 150.30 69.92 119.96 80.53 119.12 105.02
  A 0.81 0.81 0.0 0 1 118.31 105.80
  L 114.81 105.80
  A 0.32 0.32 0.0 0 1 114.53 105.33
  Q 119.22 96.40 124.52 85.03
  Q 127.46 78.71 128.42 74.48
  C 132.16 57.96 122.41 40.80 106.57 35.23
  Q 92.59 30.31 80.24 35.90
  C 62.59 43.90 54.79 64.20 62.61 82.14
  Q 67.81 94.07 74.03 105.41
  A 0.41 0.41 0.0 0 1 73.65 106.02
  Z"
/>
<path fill="#b2b0b4" d="
  M 73.65 106.02
  A 0.41 0.41 0.0 0 0 74.03 105.41
  Q 67.81 94.07 62.61 82.14
  C 54.79 64.20 62.59 43.90 80.24 35.90
  Q 92.59 30.31 106.57 35.23
  C 122.41 40.80 132.16 57.96 128.42 74.48
  Q 127.46 78.71 124.52 85.03
  Q 119.22 96.40 114.53 105.33
  A 0.32 0.32 0.0 0 0 114.81 105.80
  L 118.31 105.80
  A 0.81 0.81 0.0 0 0 119.12 105.02
  C 119.96 80.53 150.30 69.92 165.33 90.41
  C 172.60 100.33 171.64 114.19 163.51 123.36
  A 0.97 0.97 0.0 0 0 163.33 124.35
  Q 165.19 129.25 173.55 151.20
  Q 174.88 154.69 174.63 156.04
  C 173.93 159.90 170.84 161.10 167.01 161.08
  Q 140.68 160.97 40.77 161.06
  C 35.25 161.07 33.57 156.84 35.42 152.14
  Q 36.82 148.58 52.20 108.97
  Q 53.26 106.23 57.09 106.10
  Q 66.69 105.76 73.65 106.02
  Z
  M 94.11 128.17
  Q 94.41 128.17 95.10 127.16
  Q 107.25 109.17 116.65 90.29
  Q 122.83 77.88 123.67 73.51
  C 127.18 55.25 113.08 38.09 94.47 38.02
  C 75.85 37.94 61.62 54.99 64.98 73.28
  Q 65.79 77.65 71.87 90.11
  Q 81.12 109.07 93.13 127.15
  Q 93.80 128.17 94.11 128.17
  Z
  M 142.4547 84.6211
  A 21.04 20.66 -96.4 0 0 124.2688 107.8329
  A 21.04 20.66 -96.4 0 0 147.1453 126.4389
  A 21.04 20.66 -96.4 0 0 165.3312 103.2271
  A 21.04 20.66 -96.4 0 0 142.4547 84.6211
  Z
  M 39.47 156.39
  L 87.10 156.39
  A 0.75 0.74 16.2 0 0 87.73 156.05
  Q 96.58 142.59 112.60 138.60
  Q 118.97 137.01 128.47 136.60
  A 0.75 0.74 5.9 0 0 129.15 136.05
  L 131.18 128.45
  A 0.88 0.88 0.0 0 0 130.83 127.50
  Q 122.12 121.40 119.89 111.29
  A 0.80 0.79 -5.8 0 0 119.11 110.66
  L 112.33 110.66
  A 1.25 1.24 -75.0 0 0 111.25 111.29
  Q 106.42 119.64 98.09 132.60
  Q 95.63 136.43 91.72 133.83
  A 4.00 3.96 -89.8 0 1 90.58 132.67
  L 76.87 111.24
  A 1.29 1.29 0.0 0 0 75.78 110.64
  L 57.12 110.64
  A 0.86 0.85 10.4 0 0 56.32 111.19
  L 39.04 155.77
  A 0.46 0.46 0.0 0 0 39.47 156.39
  Z
  M 94.03 156.38
  L 168.84 156.38
  A 1.08 1.07 -10.1 0 0 169.86 154.93
  L 159.58 127.50
  A 0.44 0.44 0.0 0 0 158.93 127.28
  Q 148.61 134.00 136.48 130.30
  A 0.72 0.72 0.0 0 0 135.58 130.80
  L 133.18 139.82
  A 2.62 2.61 8.3 0 1 130.56 141.76
  C 116.33 141.30 103.31 144.73 93.78 155.83
  A 0.33 0.33 0.0 0 0 94.03 156.38
  Z"
/>
<path fill="#ffffff" d="
  M 94.47 38.02
  C 113.08 38.09 127.18 55.25 123.67 73.51
  Q 122.83 77.88 116.65 90.29
  Q 107.25 109.17 95.10 127.16
  Q 94.41 128.17 94.11 128.17
  Q 93.80 128.17 93.13 127.15
  Q 81.12 109.07 71.87 90.11
  Q 65.79 77.65 64.98 73.28
  C 61.62 54.99 75.85 37.94 94.47 38.02
  Z
  M 111.10 67.77
  A 16.68 16.68 0.0 0 0 94.42 51.09
  A 16.68 16.68 0.0 0 0 77.74 67.77
  A 16.68 16.68 0.0 0 0 94.42 84.45
  A 16.68 16.68 0.0 0 0 111.10 67.77
  Z"
/>
<path fill="#b2b0b4" d="
  M 111.10 67.77
  A 16.68 16.68 0.0 0 1 94.42 84.45
  A 16.68 16.68 0.0 0 1 77.74 67.77
  A 16.68 16.68 0.0 0 1 94.42 51.09
  A 16.68 16.68 0.0 0 1 111.10 67.77
  Z
  M 105.94 67.74
  A 11.43 11.43 0.0 0 0 94.51 56.31
  A 11.43 11.43 0.0 0 0 83.08 67.74
  A 11.43 11.43 0.0 0 0 94.51 79.17
  A 11.43 11.43 0.0 0 0 105.94 67.74
  Z"
/>
<circle fill="#ffffff" cx="94.51" cy="67.74" r="11.43"/>
<path fill="#ffffff" d="
  M 142.4547 84.6211
  A 21.04 20.66 -96.4 0 1 165.3312 103.2271
  A 21.04 20.66 -96.4 0 1 147.1453 126.4389
  A 21.04 20.66 -96.4 0 1 124.2688 107.8329
  A 21.04 20.66 -96.4 0 1 142.4547 84.6211
  Z
  M 142.68 109.62
  A 0.65 0.65 0.0 0 1 141.76 109.62
  L 136.58 104.44
  A 2.12 2.11 -44.9 0 0 133.59 104.44
  L 133.04 104.99
  A 2.06 2.06 0.0 0 0 133.16 108.01
  L 141.59 115.21
  A 1.77 1.75 42.6 0 0 143.97 115.12
  L 156.93 102.16
  A 2.44 2.44 0.0 0 0 157.03 98.81
  L 156.79 98.53
  A 2.01 2.01 0.0 0 0 153.86 98.45
  L 142.68 109.62
  Z"
/>
<path fill="#b2b0b4" d="
  M 142.68 109.62
  L 153.86 98.45
  A 2.01 2.01 0.0 0 1 156.79 98.53
  L 157.03 98.81
  A 2.44 2.44 0.0 0 1 156.93 102.16
  L 143.97 115.12
  A 1.77 1.75 42.6 0 1 141.59 115.21
  L 133.16 108.01
  A 2.06 2.06 0.0 0 1 133.04 104.99
  L 133.59 104.44
  A 2.12 2.11 -44.9 0 1 136.58 104.44
  L 141.76 109.62
  A 0.65 0.65 0.0 0 0 142.68 109.62
  Z"
/>
<path fill="#ffffff" d="
  M 39.47 156.39
  A 0.46 0.46 0.0 0 1 39.04 155.77
  L 56.32 111.19
  A 0.86 0.85 10.4 0 1 57.12 110.64
  L 75.78 110.64
  A 1.29 1.29 0.0 0 1 76.87 111.24
  L 90.58 132.67
  A 4.00 3.96 -89.8 0 0 91.72 133.83
  Q 95.63 136.43 98.09 132.60
  Q 106.42 119.64 111.25 111.29
  A 1.25 1.24 -75.0 0 1 112.33 110.66
  L 119.11 110.66
  A 0.80 0.79 -5.8 0 1 119.89 111.29
  Q 122.12 121.40 130.83 127.50
  A 0.88 0.88 0.0 0 1 131.18 128.45
  L 129.15 136.05
  A 0.75 0.74 5.9 0 1 128.47 136.60
  Q 118.97 137.01 112.60 138.60
  Q 96.58 142.59 87.73 156.05
  A 0.75 0.74 16.2 0 1 87.10 156.39
  L 39.47 156.39
  Z"
/>
<path fill="#ffffff" d="
  M 94.03 156.38
  A 0.33 0.33 0.0 0 1 93.78 155.83
  C 103.31 144.73 116.33 141.30 130.56 141.76
  A 2.62 2.61 8.3 0 0 133.18 139.82
  L 135.58 130.80
  A 0.72 0.72 0.0 0 1 136.48 130.30
  Q 148.61 134.00 158.93 127.28
  A 0.44 0.44 0.0 0 1 159.58 127.50
  L 169.86 154.93
  A 1.08 1.07 -10.1 0 1 168.84 156.38
  L 94.03 156.38
  Z"
/>
</svg>
