<?xml version="1.0" encoding="UTF-8" standalone="no"?>
<!DOCTYPE svg PUBLIC "-//W3C//DTD SVG 1.1//EN" "http://www.w3.org/Graphics/SVG/1.1/DTD/svg11.dtd">
<svg xmlns="http://www.w3.org/2000/svg" version="1.1" viewBox="0.00 0.00 209.00 197.00">
<g stroke-width="2.00" fill="none" stroke-linecap="butt">
<path stroke="#dad8da" vector-effect="non-scaling-stroke" d="
  M 64.9710 39.8164
  A 2.03 2.03 0.0 0 0 62.9374 37.7899
  L 62.8374 37.7901
  A 2.03 2.03 0.0 0 0 60.8110 39.8236
  L 60.8490 61.6236
  A 2.03 2.03 0.0 0 0 62.8826 63.6501
  L 62.9826 63.6499
  A 2.03 2.03 0.0 0 0 65.0090 61.6164
  L 64.9710 39.8164"
/>
<path stroke="#dad8da" vector-effect="non-scaling-stroke" d="
  M 154.3405 39.8494
  A 2.01 2.01 0.0 0 0 152.3200 37.8500
  L 152.2400 37.8504
  A 2.01 2.01 0.0 0 0 150.2406 39.8709
  L 150.3595 62.5706
  A 2.01 2.01 0.0 0 0 152.3800 64.5700
  L 152.4600 64.5696
  A 2.01 2.01 0.0 0 0 154.4594 62.5491
  L 154.3405 39.8494"
/>
<path stroke="#dad8da" vector-effect="non-scaling-stroke" d="
  M 120.99 101.61
  Q 120.15 104.82 119.16 107.45
  Q 117.56 111.71 120.40 114.76
  C 121.71 116.16 124.56 116.81 126.62 117.40
  C 134.47 119.65 135.51 110.93 137.13 104.42
  A 3.94 3.91 68.4 0 1 137.59 103.35
  L 138.31 102.21
  A 6.24 6.00 70.5 0 0 138.99 100.71
  Q 139.50 99.08 142.03 90.36
  C 143.24 86.17 142.88 84.48 139.05 82.64
  A 0.76 0.75 13.3 0 1 138.61 81.94
  C 138.63 77.52 139.92 71.38 138.61 67.45
  C 136.55 61.31 132.67 59.48 126.25 57.91
  Q 125.67 57.77 103.43 51.54
  Q 95.74 49.39 91.12 55.65
  Q 88.91 58.65 84.64 66.73
  A 1.17 1.17 0.0 0 1 83.86 67.33
  C 82.89 67.53 81.68 67.25 80.89 67.80
  Q 78.72 69.31 78.43 70.48
  C 76.65 77.76 75.29 81.78 75.24 84.69
  Q 75.21 86.03 74.32 88.01
  Q 73.34 90.19 72.07 96.05
  C 70.83 101.80 75.08 103.42 79.63 104.75
  C 86.93 106.89 88.01 97.25 89.07 92.48
  A 0.41 0.40 13.7 0 1 89.57 92.18
  L 120.48 100.73
  A 0.73 0.73 0.0 0 1 120.99 101.61"
/>
<path stroke="#dad8da" vector-effect="non-scaling-stroke" d="
  M 178.23 65.01
  C 175.30 62.75 171.64 63.09 169.70 66.46
  Q 166.14 72.65 145.55 109.52
  C 142.55 114.90 146.52 119.19 151.99 119.14
  Q 174.99 118.91 197.03 118.39
  Q 200.34 118.31 201.37 117.67
  C 204.23 115.87 205.12 111.91 203.50 108.96
  Q 194.66 92.90 178.97 65.86
  A 3.00 2.90 -87.1 0 0 178.23 65.01"
/>
<path stroke="#dad8da" vector-effect="non-scaling-stroke" d="
  M 65.00 73.72
  A 1.99 1.99 0.0 0 0 63.01 71.73
  L 62.91 71.73
  A 1.99 1.99 0.0 0 0 60.92 73.72
  L 60.92 94.96
  A 1.99 1.99 0.0 0 0 62.91 96.95
  L 63.01 96.95
  A 1.99 1.99 0.0 0 0 65.00 94.96
  L 65.00 73.72"
/>
<path stroke="#dad8da" vector-effect="non-scaling-stroke" d="
  M 152.4894 72.4801
  A 3.94 2.22 -90.3 0 0 150.2900 76.4316
  A 3.94 2.22 -90.3 0 0 152.5306 80.3599
  A 3.94 2.22 -90.3 0 0 154.7300 76.4084
  A 3.94 2.22 -90.3 0 0 152.4894 72.4801"
/>
<path stroke="#dad8da" vector-effect="non-scaling-stroke" d="
  M 64.9812 107.2665
  A 1.98 1.98 0.0 0 0 62.9977 105.2899
  L 62.8977 105.2901
  A 1.98 1.98 0.0 0 0 60.9212 107.2736
  L 60.9588 128.8535
  A 1.98 1.98 0.0 0 0 62.9423 130.8301
  L 63.0423 130.8299
  A 1.98 1.98 0.0 0 0 65.0188 128.8464
  L 64.9812 107.2665"
/>
<path stroke="#dad8da" vector-effect="non-scaling-stroke" d="
  M 100.88 130.12
  Q 97.48 134.84 91.42 138.46
  C 90.15 139.22 89.55 139.85 90.05 141.31
  A 2.13 2.08 66.9 0 0 93.01 142.54
  Q 99.90 138.90 104.40 132.66
  Q 108.90 126.42 110.17 118.74
  A 2.13 2.08 4.7 0 0 108.07 116.31
  C 106.53 116.30 106.12 117.07 105.80 118.52
  Q 104.28 125.41 100.88 130.12"
/>
<path stroke="#dad8da" vector-effect="non-scaling-stroke" d="
  M 152.7324 124.1608
  A 3.19 2.07 -88.7 0 0 150.5905 127.3030
  A 3.19 2.07 -88.7 0 0 152.5876 130.5392
  A 3.19 2.07 -88.7 0 0 154.7295 127.3970
  A 3.19 2.07 -88.7 0 0 152.7324 124.1608"
/>
<path stroke="#dad8da" vector-effect="non-scaling-stroke" d="
  M 113.89 142.66
  L 114.03 142.70
  A 2.32 2.31 -75.3 0 0 116.85 141.05
  Q 118.62 134.39 118.06 127.88
  A 1.95 1.95 0.0 0 0 115.82 126.12
  L 115.79 126.12
  A 2.35 2.34 -6.3 0 0 113.81 128.59
  Q 114.23 135.46 112.50 139.93
  A 2.05 2.05 0.0 0 0 113.89 142.66"
/>
<path stroke="#dad8da" vector-effect="non-scaling-stroke" d="
  M 154.5509 140.4867
  A 1.86 1.86 0.0 0 0 152.6876 138.6299
  L 152.5876 138.6301
  A 1.86 1.86 0.0 0 0 150.7309 140.4934
  L 150.7691 162.3933
  A 1.86 1.86 0.0 0 0 152.6324 164.2501
  L 152.7324 164.2499
  A 1.86 1.86 0.0 0 0 154.5891 162.3866
  L 154.5509 140.4867"
/>
<path stroke="#dad8da" vector-effect="non-scaling-stroke" d="
  M 64.9745 141.1630
  A 1.97 1.97 0.0 0 0 62.9976 139.1999
  L 62.8776 139.2003
  A 1.97 1.97 0.0 0 0 60.9145 141.1771
  L 60.9855 161.5370
  A 1.97 1.97 0.0 0 0 62.9624 163.5001
  L 63.0824 163.4997
  A 1.97 1.97 0.0 0 0 65.0455 161.5229
  L 64.9745 141.1630"
/>
<path stroke="#dad8da" vector-effect="non-scaling-stroke" d="
  M 111.52 74.61
  Q 122.12 77.60 133.54 80.85
  A 0.70 0.70 0.0 0 0 134.43 80.23
  Q 134.67 76.83 134.75 72.11
  C 134.81 68.15 133.38 64.37 129.70 63.32
  Q 122.69 61.32 115.82 59.38
  Q 108.95 57.44 101.92 55.48
  C 98.24 54.46 95.05 56.93 93.03 60.34
  Q 90.63 64.41 89.06 67.43
  A 0.70 0.70 0.0 0 0 89.49 68.42
  Q 100.93 71.62 111.52 74.61"
/>
<path stroke="#dad8da" vector-effect="non-scaling-stroke" d="
  M 138.3371 88.3323
  A 1.93 1.93 0.0 0 0 137.0014 85.9521
  L 84.4769 71.1881
  A 1.93 1.93 0.0 0 0 82.0967 72.5239
  L 79.2229 82.7477
  A 1.93 1.93 0.0 0 0 80.5586 85.1279
  L 133.0831 99.8919
  A 1.93 1.93 0.0 0 0 135.4633 98.5561
  L 138.3371 88.3323"
/>
<path stroke="#dad8da" vector-effect="non-scaling-stroke" d="
  M 84.9957 92.5122
  A 1.49 1.49 0.0 0 0 83.9421 90.6873
  L 79.6148 89.5278
  A 1.49 1.49 0.0 0 0 77.7899 90.5814
  L 75.8643 97.7678
  A 1.49 1.49 0.0 0 0 76.9179 99.5927
  L 81.2452 100.7522
  A 1.49 1.49 0.0 0 0 83.0701 99.6986
  L 84.9957 92.5122"
/>
<path stroke="#dad8da" vector-effect="non-scaling-stroke" d="
  M 131.92 104.15
  L 126.28 102.48
  A 1.29 1.29 0.0 0 0 124.68 103.35
  L 122.86 109.46
  A 2.53 2.41 -73.5 0 0 124.46 112.57
  L 127.95 113.61
  A 2.53 2.41 -73.5 0 0 130.98 111.87
  L 132.79 105.75
  A 1.29 1.29 0.0 0 0 131.92 104.15"
/>
<path stroke="#dad8da" vector-effect="non-scaling-stroke" d="
  M 148.81 112.52
  A 1.33 1.32 14.6 0 0 149.97 114.49
  Q 162.80 114.51 196.75 114.29
  Q 198.53 114.28 199.38 113.41
  A 1.99 1.98 52.6 0 0 199.69 111.05
  Q 187.88 90.04 175.49 68.55
  A 1.17 1.17 0.0 0 0 173.45 68.56
  L 148.81 112.52"
/>
<path stroke="#dad8da" vector-effect="non-scaling-stroke" d="
  M 176.1751 85.5394
  A 2.17 2.17 0.0 0 0 173.9750 83.3999
  L 173.8350 83.4018
  A 2.17 2.17 0.0 0 0 171.6956 85.6019
  L 171.8849 99.1606
  A 2.17 2.17 0.0 0 0 174.0850 101.3001
  L 174.2250 101.2982
  A 2.17 2.17 0.0 0 0 176.3644 99.0981
  L 176.1751 85.5394"
/>
<path stroke="#dad8da" vector-effect="non-scaling-stroke" d="
  M 177.27 107.21
  A 2.65 2.65 0.0 0 0 174.62 104.56
  A 2.65 2.65 0.0 0 0 171.97 107.21
  A 2.65 2.65 0.0 0 0 174.62 109.86
  A 2.65 2.65 0.0 0 0 177.27 107.21"
/>
</g>
<path fill="#ffffff" d="
  M 209.00 0.00
  L 209.00 197.00
  L 0.00 197.00
  L 0.00 0.00
  L 209.00 0.00
  Z
  M 64.9710 39.8164
  A 2.03 2.03 0.0 0 0 62.9374 37.7899
  L 62.8374 37.7901
  A 2.03 2.03 0.0 0 0 60.8110 39.8236
  L 60.8490 61.6236
  A 2.03 2.03 0.0 0 0 62.8826 63.6501
  L 62.9826 63.6499
  A 2.03 2.03 0.0 0 0 65.0090 61.6164
  L 64.9710 39.8164
  Z
  M 154.3405 39.8494
  A 2.01 2.01 0.0 0 0 152.3200 37.8500
  L 152.2400 37.8504
  A 2.01 2.01 0.0 0 0 150.2406 39.8709
  L 150.3595 62.5706
  A 2.01 2.01 0.0 0 0 152.3800 64.5700
  L 152.4600 64.5696
  A 2.01 2.01 0.0 0 0 154.4594 62.5491
  L 154.3405 39.8494
  Z
  M 120.99 101.61
  Q 120.15 104.82 119.16 107.45
  Q 117.56 111.71 120.40 114.76
  C 121.71 116.16 124.56 116.81 126.62 117.40
  C 134.47 119.65 135.51 110.93 137.13 104.42
  A 3.94 3.91 68.4 0 1 137.59 103.35
  L 138.31 102.21
  A 6.24 6.00 70.5 0 0 138.99 100.71
  Q 139.50 99.08 142.03 90.36
  C 143.24 86.17 142.88 84.48 139.05 82.64
  A 0.76 0.75 13.3 0 1 138.61 81.94
  C 138.63 77.52 139.92 71.38 138.61 67.45
  C 136.55 61.31 132.67 59.48 126.25 57.91
  Q 125.67 57.77 103.43 51.54
  Q 95.74 49.39 91.12 55.65
  Q 88.91 58.65 84.64 66.73
  A 1.17 1.17 0.0 0 1 83.86 67.33
  C 82.89 67.53 81.68 67.25 80.89 67.80
  Q 78.72 69.31 78.43 70.48
  C 76.65 77.76 75.29 81.78 75.24 84.69
  Q 75.21 86.03 74.32 88.01
  Q 73.34 90.19 72.07 96.05
  C 70.83 101.80 75.08 103.42 79.63 104.75
  C 86.93 106.89 88.01 97.25 89.07 92.48
  A 0.41 0.40 13.7 0 1 89.57 92.18
  L 120.48 100.73
  A 0.73 0.73 0.0 0 1 120.99 101.61
  Z
  M 178.23 65.01
  C 175.30 62.75 171.64 63.09 169.70 66.46
  Q 166.14 72.65 145.55 109.52
  C 142.55 114.90 146.52 119.19 151.99 119.14
  Q 174.99 118.91 197.03 118.39
  Q 200.34 118.31 201.37 117.67
  C 204.23 115.87 205.12 111.91 203.50 108.96
  Q 194.66 92.90 178.97 65.86
  A 3.00 2.90 -87.1 0 0 178.23 65.01
  Z
  M 65.00 73.72
  A 1.99 1.99 0.0 0 0 63.01 71.73
  L 62.91 71.73
  A 1.99 1.99 0.0 0 0 60.92 73.72
  L 60.92 94.96
  A 1.99 1.99 0.0 0 0 62.91 96.95
  L 63.01 96.95
  A 1.99 1.99 0.0 0 0 65.00 94.96
  L 65.00 73.72
  Z
  M 152.4894 72.4801
  A 3.94 2.22 -90.3 0 0 150.2900 76.4316
  A 3.94 2.22 -90.3 0 0 152.5306 80.3599
  A 3.94 2.22 -90.3 0 0 154.7300 76.4084
  A 3.94 2.22 -90.3 0 0 152.4894 72.4801
  Z
  M 64.9812 107.2665
  A 1.98 1.98 0.0 0 0 62.9977 105.2899
  L 62.8977 105.2901
  A 1.98 1.98 0.0 0 0 60.9212 107.2736
  L 60.9588 128.8535
  A 1.98 1.98 0.0 0 0 62.9423 130.8301
  L 63.0423 130.8299
  A 1.98 1.98 0.0 0 0 65.0188 128.8464
  L 64.9812 107.2665
  Z
  M 100.88 130.12
  Q 97.48 134.84 91.42 138.46
  C 90.15 139.22 89.55 139.85 90.05 141.31
  A 2.13 2.08 66.9 0 0 93.01 142.54
  Q 99.90 138.90 104.40 132.66
  Q 108.90 126.42 110.17 118.74
  A 2.13 2.08 4.7 0 0 108.07 116.31
  C 106.53 116.30 106.12 117.07 105.80 118.52
  Q 104.28 125.41 100.88 130.12
  Z
  M 152.7324 124.1608
  A 3.19 2.07 -88.7 0 0 150.5905 127.3030
  A 3.19 2.07 -88.7 0 0 152.5876 130.5392
  A 3.19 2.07 -88.7 0 0 154.7295 127.3970
  A 3.19 2.07 -88.7 0 0 152.7324 124.1608
  Z
  M 113.89 142.66
  L 114.03 142.70
  A 2.32 2.31 -75.3 0 0 116.85 141.05
  Q 118.62 134.39 118.06 127.88
  A 1.95 1.95 0.0 0 0 115.82 126.12
  L 115.79 126.12
  A 2.35 2.34 -6.3 0 0 113.81 128.59
  Q 114.23 135.46 112.50 139.93
  A 2.05 2.05 0.0 0 0 113.89 142.66
  Z
  M 154.5509 140.4867
  A 1.86 1.86 0.0 0 0 152.6876 138.6299
  L 152.5876 138.6301
  A 1.86 1.86 0.0 0 0 150.7309 140.4934
  L 150.7691 162.3933
  A 1.86 1.86 0.0 0 0 152.6324 164.2501
  L 152.7324 164.2499
  A 1.86 1.86 0.0 0 0 154.5891 162.3866
  L 154.5509 140.4867
  Z
  M 64.9745 141.1630
  A 1.97 1.97 0.0 0 0 62.9976 139.1999
  L 62.8776 139.2003
  A 1.97 1.97 0.0 0 0 60.9145 141.1771
  L 60.9855 161.5370
  A 1.97 1.97 0.0 0 0 62.9624 163.5001
  L 63.0824 163.4997
  A 1.97 1.97 0.0 0 0 65.0455 161.5229
  L 64.9745 141.1630
  Z"
/>
<rect fill="#b4b1b4" x="-2.08" y="-12.93" transform="translate(62.91,50.72) rotate(-0.1)" width="4.16" height="25.86" rx="2.03"/>
<rect fill="#b4b1b4" x="-2.05" y="-13.36" transform="translate(152.35,51.21) rotate(-0.3)" width="4.10" height="26.72" rx="2.01"/>
<path fill="#b4b1b4" d="
  M 120.48 100.73
  L 89.57 92.18
  A 0.41 0.40 13.7 0 0 89.07 92.48
  C 88.01 97.25 86.93 106.89 79.63 104.75
  C 75.08 103.42 70.83 101.80 72.07 96.05
  Q 73.34 90.19 74.32 88.01
  Q 75.21 86.03 75.24 84.69
  C 75.29 81.78 76.65 77.76 78.43 70.48
  Q 78.72 69.31 80.89 67.80
  C 81.68 67.25 82.89 67.53 83.86 67.33
  A 1.17 1.17 0.0 0 0 84.64 66.73
  Q 88.91 58.65 91.12 55.65
  Q 95.74 49.39 103.43 51.54
  Q 125.67 57.77 126.25 57.91
  C 132.67 59.48 136.55 61.31 138.61 67.45
  C 139.92 71.38 138.63 77.52 138.61 81.94
  A 0.76 0.75 13.3 0 0 139.05 82.64
  C 142.88 84.48 143.24 86.17 142.03 90.36
  Q 139.50 99.08 138.99 100.71
  A 6.24 6.00 70.5 0 1 138.31 102.21
  L 137.59 103.35
  A 3.94 3.91 68.4 0 0 137.13 104.42
  C 135.51 110.93 134.47 119.65 126.62 117.40
  C 124.56 116.81 121.71 116.16 120.40 114.76
  Q 117.56 111.71 119.16 107.45
  Q 120.15 104.82 120.99 101.61
  A 0.73 0.73 0.0 0 0 120.48 100.73
  Z
  M 111.52 74.61
  Q 122.12 77.60 133.54 80.85
  A 0.70 0.70 0.0 0 0 134.43 80.23
  Q 134.67 76.83 134.75 72.11
  C 134.81 68.15 133.38 64.37 129.70 63.32
  Q 122.69 61.32 115.82 59.38
  Q 108.95 57.44 101.92 55.48
  C 98.24 54.46 95.05 56.93 93.03 60.34
  Q 90.63 64.41 89.06 67.43
  A 0.70 0.70 0.0 0 0 89.49 68.42
  Q 100.93 71.62 111.52 74.61
  Z
  M 138.3371 88.3323
  A 1.93 1.93 0.0 0 0 137.0014 85.9521
  L 84.4769 71.1881
  A 1.93 1.93 0.0 0 0 82.0967 72.5239
  L 79.2229 82.7477
  A 1.93 1.93 0.0 0 0 80.5586 85.1279
  L 133.0831 99.8919
  A 1.93 1.93 0.0 0 0 135.4633 98.5561
  L 138.3371 88.3323
  Z
  M 84.9957 92.5122
  A 1.49 1.49 0.0 0 0 83.9421 90.6873
  L 79.6148 89.5278
  A 1.49 1.49 0.0 0 0 77.7899 90.5814
  L 75.8643 97.7678
  A 1.49 1.49 0.0 0 0 76.9179 99.5927
  L 81.2452 100.7522
  A 1.49 1.49 0.0 0 0 83.0701 99.6986
  L 84.9957 92.5122
  Z
  M 131.92 104.15
  L 126.28 102.48
  A 1.29 1.29 0.0 0 0 124.68 103.35
  L 122.86 109.46
  A 2.53 2.41 -73.5 0 0 124.46 112.57
  L 127.95 113.61
  A 2.53 2.41 -73.5 0 0 130.98 111.87
  L 132.79 105.75
  A 1.29 1.29 0.0 0 0 131.92 104.15
  Z"
/>
<path fill="#ffffff" d="
  M 115.82 59.38
  Q 122.69 61.32 129.70 63.32
  C 133.38 64.37 134.81 68.15 134.75 72.11
  Q 134.67 76.83 134.43 80.23
  A 0.70 0.70 0.0 0 1 133.54 80.85
  Q 122.12 77.60 111.52 74.61
  Q 100.93 71.62 89.49 68.42
  A 0.70 0.70 0.0 0 1 89.06 67.43
  Q 90.63 64.41 93.03 60.34
  C 95.05 56.93 98.24 54.46 101.92 55.48
  Q 108.95 57.44 115.82 59.38
  Z"
/>
<path fill="#b4b1b4" d="
  M 169.70 66.46
  C 171.64 63.09 175.30 62.75 178.23 65.01
  A 3.00 2.90 -87.1 0 1 178.97 65.86
  Q 194.66 92.90 203.50 108.96
  C 205.12 111.91 204.23 115.87 201.37 117.67
  Q 200.34 118.31 197.03 118.39
  Q 174.99 118.91 151.99 119.14
  C 146.52 119.19 142.55 114.90 145.55 109.52
  Q 166.14 72.65 169.70 66.46
  Z
  M 148.81 112.52
  A 1.33 1.32 14.6 0 0 149.97 114.49
  Q 162.80 114.51 196.75 114.29
  Q 198.53 114.28 199.38 113.41
  A 1.99 1.98 52.6 0 0 199.69 111.05
  Q 187.88 90.04 175.49 68.55
  A 1.17 1.17 0.0 0 0 173.45 68.56
  L 148.81 112.52
  Z"
/>
<path fill="#ffffff" d="
  M 148.81 112.52
  L 173.45 68.56
  A 1.17 1.17 0.0 0 1 175.49 68.55
  Q 187.88 90.04 199.69 111.05
  A 1.99 1.98 52.6 0 1 199.38 113.41
  Q 198.53 114.28 196.75 114.29
  Q 162.80 114.51 149.97 114.49
  A 1.33 1.32 14.6 0 1 148.81 112.52
  Z
  M 176.1751 85.5394
  A 2.17 2.17 0.0 0 0 173.9750 83.3999
  L 173.8350 83.4018
  A 2.17 2.17 0.0 0 0 171.6956 85.6019
  L 171.8849 99.1606
  A 2.17 2.17 0.0 0 0 174.0850 101.3001
  L 174.2250 101.2982
  A 2.17 2.17 0.0 0 0 176.3644 99.0981
  L 176.1751 85.5394
  Z
  M 177.27 107.21
  A 2.65 2.65 0.0 0 0 174.62 104.56
  A 2.65 2.65 0.0 0 0 171.97 107.21
  A 2.65 2.65 0.0 0 0 174.62 109.86
  A 2.65 2.65 0.0 0 0 177.27 107.21
  Z"
/>
<rect fill="#ffffff" x="-29.21" y="-7.24" transform="translate(108.78,85.54) rotate(15.7)" width="58.42" height="14.48" rx="1.93"/>
<rect fill="#b4b1b4" x="60.92" y="71.73" width="4.08" height="25.22" rx="1.99"/>
<ellipse fill="#b4b1b4" cx="0.00" cy="0.00" transform="translate(152.51,76.42) rotate(-90.3)" rx="3.94" ry="2.22"/>
<rect fill="#b4b1b4" x="-2.24" y="-8.95" transform="translate(174.03,92.35) rotate(-0.8)" width="4.48" height="17.90" rx="2.17"/>
<rect fill="#ffffff" x="-3.73" y="-5.21" transform="translate(80.43,95.14) rotate(15.0)" width="7.46" height="10.42" rx="1.49"/>
<path fill="#ffffff" d="
  M 131.92 104.15
  A 1.29 1.29 0.0 0 1 132.79 105.75
  L 130.98 111.87
  A 2.53 2.41 -73.5 0 1 127.95 113.61
  L 124.46 112.57
  A 2.53 2.41 -73.5 0 1 122.86 109.46
  L 124.68 103.35
  A 1.29 1.29 0.0 0 1 126.28 102.48
  L 131.92 104.15
  Z"
/>
<circle fill="#b4b1b4" cx="174.62" cy="107.21" r="2.65"/>
<rect fill="#b4b1b4" x="-2.03" y="-12.77" transform="translate(62.97,118.06) rotate(-0.1)" width="4.06" height="25.54" rx="1.98"/>
<path fill="#b4b1b4" d="
  M 104.40 132.66
  Q 99.90 138.90 93.01 142.54
  A 2.13 2.08 66.9 0 1 90.05 141.31
  C 89.55 139.85 90.15 139.22 91.42 138.46
  Q 97.48 134.84 100.88 130.12
  Q 104.28 125.41 105.80 118.52
  C 106.12 117.07 106.53 116.30 108.07 116.31
  A 2.13 2.08 4.7 0 1 110.17 118.74
  Q 108.90 126.42 104.40 132.66
  Z"
/>
<ellipse fill="#b4b1b4" cx="0.00" cy="0.00" transform="translate(152.66,127.35) rotate(-88.7)" rx="3.19" ry="2.07"/>
<path fill="#b4b1b4" d="
  M 112.50 139.93
  Q 114.23 135.46 113.81 128.59
  A 2.35 2.34 -6.3 0 1 115.79 126.12
  L 115.82 126.12
  A 1.95 1.95 0.0 0 1 118.06 127.88
  Q 118.62 134.39 116.85 141.05
  A 2.32 2.31 -75.3 0 1 114.03 142.70
  L 113.89 142.66
  A 2.05 2.05 0.0 0 1 112.50 139.93
  Z"
/>
<rect fill="#b4b1b4" x="-1.91" y="-12.81" transform="translate(152.66,151.44) rotate(-0.1)" width="3.82" height="25.62" rx="1.86"/>
<rect fill="#b4b1b4" x="-2.03" y="-12.15" transform="translate(62.98,151.35) rotate(-0.2)" width="4.06" height="24.30" rx="1.97"/>
</svg>
