<svg width="254" height="177" version="1.1" xmlns="http://www.w3.org/2000/svg" desc="Created with imagetracer.js version 1.2.6" ><path fill="rgb(52,52,52)" stroke="rgb(52,52,52)" stroke-width="1" opacity="0.9333333333333333" d="M 27 56 L 29.5 57 L 222.5 57 L 225 56 L 225.5 58 L 227 57.5 L 227.5 59 L 228.5 58 L 232 61.5 L 231.5 63 L 233 63.5 L 232 66 L 234 66.5 L 234 116.5 L 232 119.5 L 232.5 121 L 231 121.5 L 232 122.5 L 227.5 127 L 225.5 128 L 223.5 127 Q 222.5 130 217.5 129 L 215.5 129 L 30.5 129 L 27.5 127 L 26 127.5 L 25.5 126 L 24 126.5 L 22.5 124 L 21 124.5 L 21.5 123 L 19 121.5 L 20 119 Q 17 120.3 18 116.5 L 19 115.5 L 19 103.5 L 19 101.5 L 19 92.5 L 18 91.5 L 19 89.5 L 19 87.5 L 19 67.5 L 18 65 L 20 64.5 L 19.5 63 L 21 62.5 L 20 61.5 L 23.5 58 L 25 58.5 L 25.5 57 L 27 57.5 L 27 56 Z M 30 64 L 28 68 L 26 69 L 26 117 L 28 116 L 28 118 L 31 119 L 221 119 L 222 120 L 224 117 Q 223 114 226 115 L 226 70 L 224 69 L 223 66 L 221 66 L 221 64 L 30 64 Z " /><path fill="rgb(52,52,52)" stroke="rgb(52,52,52)" stroke-width="1" opacity="0.9333333333333333" d="M 43.5 78 Q 53.3 76.3 55 82.5 Q 57.6 88.4 56 98.5 L 52.5 105 Q 49.3 107.3 42.5 106 L 38 100.5 L 38 84.5 L 41 79 L 43.5 78 Z M 47 87 L 46 97 L 48 97 L 48 89 L 47 87 Z " /><path fill="rgb(52,52,52)" stroke="rgb(52,52,52)" stroke-width="1" opacity="0.9333333333333333" d="M 70.5 78 Q 79.3 76.3 81 81.5 Q 84.1 86.9 83 96.5 Q 82.1 103.1 77.5 106 Q 70.7 106.9 68 105 Q 63.2 99.6 65 86.5 L 66 82.5 L 70.5 78 Z M 73 87 L 73 97 L 75 97 L 75 88 L 73 87 Z " /><path fill="rgb(52,52,52)" stroke="rgb(52,52,52)" stroke-width="1" opacity="0.9333333333333333" d="M 96.5 78 L 100.5 79 L 103 78 L 105.5 82 L 107 82.5 L 106 85 L 108 85.5 L 107 88.5 L 107 90.5 L 108 99.5 L 106 99.5 L 107 101.5 L 105 102.5 Q 107.3 103.8 104.5 105 L 103 104.5 L 102.5 106 L 97.5 105 L 95.5 106 L 92 102.5 L 93 101.5 L 91 98.5 L 92 97.5 L 92 86.5 L 91.5 85 Q 93.8 85.8 93 83.5 L 92.5 82 L 95 80.5 L 94.5 79 L 96.5 78 Z M 100 87 Q 100 90 97 89 L 97 95 L 99 95 L 100 98 L 100 96 L 102 96 Q 103 88 100 89 L 100 87 Z " /><path fill="rgb(52,52,52)" stroke="rgb(52,52,52)" stroke-width="1" opacity="0.9333333333333333" d="M 124 78 L 126.5 79 L 130 78 L 130.5 80 Q 132.3 77.3 134 81.5 L 133.5 83 Q 135.8 82.3 135 84.5 L 134.5 86 L 136 86.5 L 136 97.5 Q 134.8 103.3 130.5 106 L 128.5 105 L 125.5 106 Q 122.2 107.1 123 104.5 L 120 103.5 Q 117.3 101.2 118 95.5 L 119 93.5 L 118 90.5 L 119 88.5 L 118 84.5 L 120.5 81 Q 122.8 81.8 122 79.5 L 124 79.5 L 124 78 Z M 127 87 L 125 92 L 127 98 L 129 97 L 128 96 L 129 88 L 127 87 Z " /><path fill="rgb(52,52,52)" stroke="rgb(52,52,52)" stroke-width="1" opacity="0.9333333333333333" d="M 149.5 78 Q 156.5 76.5 156 79.5 Q 158 77.8 160 81.5 Q 163.1 86.9 162 96.5 Q 158.5 98 161 99.5 Q 161.8 101.8 159.5 101 L 158.5 104 L 157 104 L 156.5 106 L 149 106 Q 150.1 103.3 147.5 104 Q 142.1 98.9 144 86.5 L 145 83 L 147 82.5 L 146 81.5 L 149.5 78 Z M 152 87 L 152 97 L 155 97 Q 153 95 154 91 L 154 89 Q 155 86 152 87 Z " /><path fill="rgb(52,52,52)" stroke="rgb(52,52,52)" stroke-width="1" opacity="0.9333333333333333" d="M 176 78 L 179.5 79 L 182.5 78 L 182.5 80 L 187 82.5 L 186 84.5 L 188 85 Q 186.3 88.5 187 95.5 L 188 99 Q 185.3 97.9 186 100.5 L 186.5 102 L 185 102.5 Q 187.3 103.8 184.5 105 L 183 104.5 L 182.5 106 L 179.5 105 L 175.5 106 L 172 102.5 L 173 101.5 Q 173.8 99.3 171.5 100 L 172 98.5 L 171 95.5 L 172 93.5 L 171 90.5 L 172 86.5 L 171 84.5 L 173 84.5 L 172 82.5 L 174 81.5 Q 171.8 80.3 174.5 79 L 176 79.5 L 176 78 Z M 180 87 Q 180 90 177 89 Q 176 95 179 98 L 180 98 L 180 87 Z " /><path fill="rgb(52,52,52)" stroke="rgb(52,52,52)" stroke-width="1" opacity="0.9333333333333333" d="M 203.5 78 L 207.5 79 L 209 78.5 L 209.5 80 Q 211.3 77.3 213 81.5 L 212.5 83 L 214 83.5 L 213 86.5 L 215 90.5 L 214 93.5 L 215 95.5 L 213 99.5 L 213.5 101 L 212 101.5 L 213 102.5 L 209.5 106 Q 208.3 103.8 203.5 105 L 202 105.5 L 201.5 104 Q 200.3 106.3 199 103.5 L 199.5 102 L 198 101.5 L 199 99.5 Q 195.5 98 198 96.5 L 198 87.5 L 197 86.5 L 199 86 L 198 82.5 L 201 81 L 201.5 79 L 203 79.5 L 203.5 78 Z M 205 87 Q 206 89 205 97 L 205 98 L 207 97 Q 209 98 208 95 L 208 93 Q 211 85 205 87 Z " /><path fill="rgb(0,0,0)" stroke="rgb(0,0,0)" stroke-width="1" opacity="0" d="M 0 0 L 254 0 L 254 177 L 0 177 L 0 0 Z M 27 56 L 27 58 L 26 57 L 25 59 Q 24 61 23 59 Q 20 60 22 62 L 20 63 L 20 65 L 18 65 L 19 68 L 19 88 L 19 90 L 18 92 L 19 93 L 19 102 L 19 104 L 19 116 L 18 117 L 18 119 Q 21 118 20 121 L 20 123 L 22 123 L 24 127 L 26 126 L 26 128 L 28 127 L 31 129 L 216 129 L 218 129 Q 223 130 224 127 L 226 128 L 228 127 L 232 123 L 231 122 L 233 121 L 232 120 L 234 117 L 234 67 L 232 66 L 233 64 L 232 63 Q 229 62 231 61 Q 230 58 229 60 L 227 58 L 226 58 L 225 56 L 223 57 L 30 57 L 27 56 Z " /><path fill="rgb(0,0,0)" stroke="rgb(0,0,0)" stroke-width="1" opacity="0" d="M 30 64 L 220.5 64 L 221 66 L 222.5 66 L 224 69 L 226 69.5 L 226 115 Q 223.3 113.9 224 116.5 L 224.5 118 Q 223.3 115.8 222 118.5 L 221.5 120 L 220.5 119 L 30.5 119 L 29 119.5 L 29.5 118 Q 27.3 118.8 28 116.5 L 26 116.5 L 26 68.5 L 27.5 68 L 28.5 65 L 30 65.5 L 30 64 Z M 44 78 L 41 79 L 38 85 L 38 101 L 43 106 Q 49 107 53 105 L 56 99 Q 58 88 55 83 Q 53 76 44 78 Z M 71 78 L 66 83 L 65 87 Q 63 100 68 105 Q 71 107 78 106 Q 82 103 83 97 Q 84 87 81 82 Q 79 76 71 78 Z M 97 78 L 95 79 L 95 81 L 93 82 L 93 84 Q 94 86 92 85 L 92 87 L 92 98 L 91 99 L 93 102 L 93 104 L 96 106 L 98 105 L 103 106 L 103 105 L 107 102 L 106 100 L 108 100 L 107 91 L 107 89 L 108 86 L 106 85 L 107 83 L 106 82 L 103 78 L 101 79 L 97 78 Z M 124 78 L 124 80 L 122 80 Q 123 82 121 81 L 118 85 L 119 89 L 118 91 L 119 94 L 118 100 L 120 99 L 119 101 L 120 104 L 123 105 Q 122 107 126 106 L 129 105 L 131 106 Q 135 103 136 98 L 136 87 L 135 86 L 135 85 Q 136 82 134 83 L 134 82 Q 132 77 131 80 L 130 78 L 127 79 L 124 78 Z M 150 78 L 150 80 L 149 79 Q 144 81 147 83 L 145 83 L 144 87 Q 142 99 148 104 Q 150 103 149 106 L 157 106 L 157 104 L 159 104 L 160 101 Q 162 102 161 100 Q 158 98 162 97 Q 163 87 160 82 Q 158 78 156 80 Q 157 77 150 78 Z M 176 78 L 176 80 L 172 83 L 173 85 L 171 85 L 172 87 L 171 91 L 172 94 L 171 96 L 172 99 L 172 100 Q 174 99 173 102 L 173 104 Q 174 106 176 104 L 176 106 L 180 105 L 183 106 L 183 105 L 187 102 L 186 101 Q 185 98 188 99 L 187 96 Q 186 88 188 85 L 186 85 L 187 83 L 186 83 L 186 82 L 183 80 L 183 78 L 180 79 L 176 78 Z M 204 78 L 203 80 L 201 80 Q 202 82 200 81 L 200 83 L 199 86 L 197 87 L 198 88 L 198 97 Q 195 98 199 100 L 198 102 L 200 102 L 203 106 Q 204 104 209 105 L 214 101 L 213 100 L 215 96 L 214 94 L 215 91 L 213 87 L 214 84 L 213 83 Q 210 82 212 81 Q 211 78 210 80 L 209 79 L 208 79 L 204 78 Z " /><path fill="rgb(0,0,0)" stroke="rgb(0,0,0)" stroke-width="1" opacity="0" d="M 46.5 87 L 48 88.5 L 48 97 L 46 96.5 L 46.5 87 Z " /><path fill="rgb(0,0,0)" stroke="rgb(0,0,0)" stroke-width="1" opacity="0" d="M 73 87 L 75 87.5 L 75 97 L 73 96.5 L 73 87 Z " /><path fill="rgb(0,0,0)" stroke="rgb(0,0,0)" stroke-width="1" opacity="0" d="M 99.5 87 L 100 89 Q 103.5 87.9 102 95.5 L 100 95.5 L 99.5 98 L 99 95 L 97 95 L 97 89 Q 99.8 90 99.5 87 Z " /><path fill="rgb(0,0,0)" stroke="rgb(0,0,0)" stroke-width="1" opacity="0" d="M 126.5 87 L 129 87.5 L 128 95.5 L 128.5 97 L 126.5 98 L 125 91.5 L 126.5 87 Z " /><path fill="rgb(0,0,0)" stroke="rgb(0,0,0)" stroke-width="1" opacity="0" d="M 152 87 Q 154.7 85.9 154 88.5 L 154 90.5 Q 152.8 95.3 155 96.5 L 152 97 L 152 87 Z " /><path fill="rgb(0,0,0)" stroke="rgb(0,0,0)" stroke-width="1" opacity="0" d="M 179.5 87 L 180 97.5 L 179 97.5 Q 175.8 95 177 89 Q 179.8 90 179.5 87 Z " /><path fill="rgb(0,0,0)" stroke="rgb(0,0,0)" stroke-width="1" opacity="0" d="M 204.5 87 Q 210.6 85.2 208 92.5 L 208 94.5 Q 209.1 97.8 206.5 97 L 204.5 98 L 205 96.5 Q 205.7 89 204.5 87 Z " /></svg>