<svg width="264" height="227" version="1.1" xmlns="http://www.w3.org/2000/svg" desc="Created with imagetracer.js version 1.2.6" ><path fill="rgb(5,5,5)" stroke="rgb(5,5,5)" stroke-width="1" opacity="0.6705882352941176" d="M 52.5 71 L 79 71.5 L 52.5 72 L 52.5 71 Z " /><path fill="rgb(5,5,5)" stroke="rgb(5,5,5)" stroke-width="1" opacity="0.6705882352941176" d="M 179.5 71 L 213 71.5 L 179.5 72 L 179.5 71 Z " /><path fill="rgb(5,5,5)" stroke="rgb(5,5,5)" stroke-width="1" opacity="0.6705882352941176" d="M 37.5 72 L 46 72.5 L 37.5 73 L 37.5 72 Z " /><path fill="rgb(5,5,5)" stroke="rgb(5,5,5)" stroke-width="1" opacity="0.6705882352941176" d="M 86.5 72 L 94 72.5 L 86.5 73 L 86.5 72 Z " /><path fill="rgb(5,5,5)" stroke="rgb(5,5,5)" stroke-width="1" opacity="0.6705882352941176" d="M 168.5 72 L 174 72.5 L 168.5 73 L 168.5 72 Z " /><path fill="rgb(5,5,5)" stroke="rgb(5,5,5)" stroke-width="1" opacity="0.6705882352941176" d="M 218.5 72 L 227 72.5 L 218.5 73 L 218.5 72 Z " /><path fill="rgb(5,5,5)" stroke="rgb(5,5,5)" stroke-width="1" opacity="0.6705882352941176" d="M 27.5 73 L 33 73.5 L 27.5 74 L 27.5 73 Z " /><path fill="rgb(5,5,5)" stroke="rgb(5,5,5)" stroke-width="1" opacity="0.6705882352941176" d="M 96.5 73 L 100 73.5 L 96.5 74 L 96.5 73 Z " /><path fill="rgb(5,5,5)" stroke="rgb(5,5,5)" stroke-width="1" opacity="0.6705882352941176" d="M 162.5 73 L 165 73.5 L 162.5 74 L 162.5 73 Z " /><path fill="rgb(5,5,5)" stroke="rgb(5,5,5)" stroke-width="1" opacity="0.6705882352941176" d="M 230.5 73 L 237 73.5 L 230.5 74 L 230.5 73 Z " /><path fill="rgb(5,5,5)" stroke="rgb(5,5,5)" stroke-width="1" opacity="0.6705882352941176" d="M 19.5 74 L 25 74.5 L 19.5 75 L 19.5 74 Z " /><path fill="rgb(5,5,5)" stroke="rgb(5,5,5)" stroke-width="1" opacity="0.6705882352941176" d="M 102.5 74 L 106 74.5 L 102.5 75 L 102.5 74 Z " /><path fill="rgb(5,5,5)" stroke="rgb(5,5,5)" stroke-width="1" opacity="0.6705882352941176" d="M 157.5 74 L 160 74.5 L 157.5 75 L 157.5 74 Z " /><path fill="rgb(5,5,5)" stroke="rgb(5,5,5)" stroke-width="1" opacity="0.6705882352941176" d="M 239.5 74 L 245 74.5 L 239.5 75 L 239.5 74 Z " /><path fill="rgb(5,5,5)" stroke="rgb(5,5,5)" stroke-width="1" opacity="0.6705882352941176" d="M 14.5 75 L 16 75.5 L 14 77.5 L 13.5 87 L 13 76.5 L 14.5 75 Z " /><path fill="rgb(5,5,5)" stroke="rgb(5,5,5)" stroke-width="1" opacity="0.6705882352941176" d="M 107.5 75 L 110 75.5 L 107.5 76 L 107.5 75 Z " /><path fill="rgb(5,5,5)" stroke="rgb(5,5,5)" stroke-width="1" opacity="0.6705882352941176" d="M 246.5 75 Q 250.5 74.5 251 77.5 L 251 93.5 L 249.5 95 L 248 94.5 L 250 94 L 250 77.5 L 248.5 76 Q 245.5 76.5 246.5 75 Z " /><path fill="rgb(5,5,5)" stroke="rgb(5,5,5)" stroke-width="1" opacity="0.6705882352941176" d="M 115.5 77 L 118 77.5 L 115.5 78 L 115.5 77 Z " /><path fill="rgb(5,5,5)" stroke="rgb(5,5,5)" stroke-width="1" opacity="0.6705882352941176" d="M 145.5 77 L 148 77.5 L 145.5 78 L 145.5 77 Z " /><path fill="rgb(5,5,5)" stroke="rgb(5,5,5)" stroke-width="1" opacity="0.6705882352941176" d="M 120.5 78 L 123 78.5 L 120.5 79 L 120.5 78 Z " /><path fill="rgb(5,5,5)" stroke="rgb(5,5,5)" stroke-width="1" opacity="0.6705882352941176" d="M 140.5 78 L 144 78.5 L 140.5 79 L 140.5 78 Z " /><path fill="rgb(5,5,5)" stroke="rgb(5,5,5)" stroke-width="1" opacity="0.6705882352941176" d="M 129.5 79 L 136 79.5 L 129.5 80 L 129.5 79 Z " /><path fill="rgb(5,5,5)" stroke="rgb(5,5,5)" stroke-width="1" opacity="0.6705882352941176" d="M 67.5 80 L 71 80.5 L 67.5 81 L 67.5 80 Z " /><path fill="rgb(5,5,5)" stroke="rgb(5,5,5)" stroke-width="1" opacity="0.6705882352941176" d="M 72.5 80 L 79 80.5 L 72.5 81 L 72.5 80 Z " /><path fill="rgb(5,5,5)" stroke="rgb(5,5,5)" stroke-width="1" opacity="0.6705882352941176" d="M 186.5 80 L 203 80.5 L 186.5 81 L 186.5 80 Z " /><path fill="rgb(5,5,5)" stroke="rgb(5,5,5)" stroke-width="1" opacity="0.6705882352941176" d="M 47.5 81 L 54 81.5 L 47.5 82 L 47.5 81 Z " /><path fill="rgb(5,5,5)" stroke="rgb(5,5,5)" stroke-width="1" opacity="0.6705882352941176" d="M 87.5 81 L 92 81.5 L 87.5 82 L 87.5 81 Z " /><path fill="rgb(5,5,5)" stroke="rgb(5,5,5)" stroke-width="1" opacity="0.6705882352941176" d="M 169.5 81 L 177 81.5 L 169.5 82 L 169.5 81 Z " /><path fill="rgb(5,5,5)" stroke="rgb(5,5,5)" stroke-width="1" opacity="0.6705882352941176" d="M 211.5 81 L 218 81.5 L 211.5 82 L 211.5 81 Z " /><path fill="rgb(5,5,5)" stroke="rgb(5,5,5)" stroke-width="1" opacity="0.6705882352941176" d="M 96.5 82 L 101 82.5 L 96.5 83 L 96.5 82 Z " /><path fill="rgb(5,5,5)" stroke="rgb(5,5,5)" stroke-width="1" opacity="0.6705882352941176" d="M 163.5 82 L 166 82.5 L 163.5 83 L 163.5 82 Z " /><path fill="rgb(5,5,5)" stroke="rgb(5,5,5)" stroke-width="1" opacity="0.6705882352941176" d="M 223.5 83 L 227 85.5 L 224.5 84 L 223.5 83 Z " /><path fill="rgb(5,5,5)" stroke="rgb(5,5,5)" stroke-width="1" opacity="0.6705882352941176" d="M 105.5 84 L 108 85.5 L 106.5 85 L 105.5 84 Z " /><path fill="rgb(5,5,5)" stroke="rgb(5,5,5)" stroke-width="1" opacity="0.6705882352941176" d="M 37.5 85 L 34.5 89 L 37.5 85 Z " /><path fill="rgb(5,5,5)" stroke="rgb(5,5,5)" stroke-width="1" opacity="0.6705882352941176" d="M 109.5 86 L 112.5 90 L 109.5 86 Z " /><path fill="rgb(5,5,5)" stroke="rgb(5,5,5)" stroke-width="1" opacity="0.6705882352941176" d="M 153.5 86 L 151.5 89 L 153.5 86 Z " /><path fill="rgb(5,5,5)" stroke="rgb(5,5,5)" stroke-width="1" opacity="0.6705882352941176" d="M 13.5 88 Q 13 93 16 94.5 L 13 92.5 L 13.5 88 Z " /><path fill="rgb(5,5,5)" stroke="rgb(5,5,5)" stroke-width="1" opacity="0.6705882352941176" d="M 229.5 88 L 232 92.5 L 231 92.5 L 229.5 88 Z " /><path fill="rgb(5,5,5)" stroke="rgb(5,5,5)" stroke-width="1" opacity="0.6705882352941176" d="M 33.5 90 L 34 91.5 L 32.5 95 L 32 92.5 L 33.5 90 Z " /><path fill="rgb(5,5,5)" stroke="rgb(5,5,5)" stroke-width="1" opacity="0.6705882352941176" d="M 150.5 90 L 150 91.5 L 149.5 93 L 149 91.5 L 150.5 90 Z " /><path fill="rgb(5,5,5)" stroke="rgb(5,5,5)" stroke-width="1" opacity="0.6705882352941176" d="M 148.5 94 L 149 103.5 L 148 103.5 L 148.5 94 Z " /><path fill="rgb(5,5,5)" stroke="rgb(5,5,5)" stroke-width="1" opacity="0.6705882352941176" d="M 232.5 95 L 233 109.5 L 232 109.5 L 232.5 95 Z " /><path fill="rgb(5,5,5)" stroke="rgb(5,5,5)" stroke-width="1" opacity="0.6705882352941176" d="M 246.5 95 L 245.5 97 L 246.5 95 Z " /><path fill="rgb(5,5,5)" stroke="rgb(5,5,5)" stroke-width="1" opacity="0.6705882352941176" d="M 31.5 97 L 32 107.5 L 31 107.5 L 31.5 97 Z " /><path fill="rgb(5,5,5)" stroke="rgb(5,5,5)" stroke-width="1" opacity="0.6705882352941176" d="M 128.5 100 L 132 100.5 L 128.5 101 L 128.5 100 Z " /><path fill="rgb(5,5,5)" stroke="rgb(5,5,5)" stroke-width="1" opacity="0.6705882352941176" d="M 126.5 101 L 125.5 103 L 126.5 101 Z " /><path fill="rgb(5,5,5)" stroke="rgb(5,5,5)" stroke-width="1" opacity="0.6705882352941176" d="M 242.5 101 L 243 106.5 L 242 106.5 L 242.5 101 Z " /><path fill="rgb(5,5,5)" stroke="rgb(5,5,5)" stroke-width="1" opacity="0.6705882352941176" d="M 21.5 102 L 22 105.5 L 21 105.5 L 21.5 102 Z " /><path fill="rgb(5,5,5)" stroke="rgb(5,5,5)" stroke-width="1" opacity="0.6705882352941176" d="M 114.5 103 L 115 106.5 L 114 106.5 L 114.5 103 Z " /><path fill="rgb(5,5,5)" stroke="rgb(5,5,5)" stroke-width="1" opacity="0.6705882352941176" d="M 140.5 106 L 141 108.5 L 140 108.5 L 140.5 106 Z " /><path fill="rgb(5,5,5)" stroke="rgb(5,5,5)" stroke-width="1" opacity="0.6705882352941176" d="M 149.5 106 L 150 108.5 L 149 108.5 L 149.5 106 Z " /><path fill="rgb(5,5,5)" stroke="rgb(5,5,5)" stroke-width="1" opacity="0.6705882352941176" d="M 241.5 108 L 242 111.5 L 241 111.5 L 241.5 108 Z " /><path fill="rgb(5,5,5)" stroke="rgb(5,5,5)" stroke-width="1" opacity="0.6705882352941176" d="M 22.5 109 L 23 112.5 L 22 112.5 L 22.5 109 Z " /><path fill="rgb(5,5,5)" stroke="rgb(5,5,5)" stroke-width="1" opacity="0.6705882352941176" d="M 113.5 109 L 114 111.5 L 113 111.5 L 113.5 109 Z " /><path fill="rgb(5,5,5)" stroke="rgb(5,5,5)" stroke-width="1" opacity="0.6705882352941176" d="M 150.5 110 L 151 112.5 L 150 112.5 L 150.5 110 Z " /><path fill="rgb(5,5,5)" stroke="rgb(5,5,5)" stroke-width="1" opacity="0.6705882352941176" d="M 32.5 111 L 33 115.5 L 32 115.5 L 32.5 111 Z " /><path fill="rgb(5,5,5)" stroke="rgb(5,5,5)" stroke-width="1" opacity="0.6705882352941176" d="M 231.5 113 L 232 116.5 L 231 116.5 L 231.5 113 Z " /><path fill="rgb(5,5,5)" stroke="rgb(5,5,5)" stroke-width="1" opacity="0.6705882352941176" d="M 23.5 114 L 24 116.5 L 23 116.5 L 23.5 114 Z " /><path fill="rgb(5,5,5)" stroke="rgb(5,5,5)" stroke-width="1" opacity="0.6705882352941176" d="M 151.5 114 L 152 116.5 L 151 116.5 L 151.5 114 Z " /><path fill="rgb(5,5,5)" stroke="rgb(5,5,5)" stroke-width="1" opacity="0.6705882352941176" d="M 240.5 114 L 241 116.5 L 240 116.5 L 240.5 114 Z " /><path fill="rgb(5,5,5)" stroke="rgb(5,5,5)" stroke-width="1" opacity="0.6705882352941176" d="M 230.5 119 L 231 121.5 L 230 121.5 L 230.5 119 Z " /><path fill="rgb(5,5,5)" stroke="rgb(5,5,5)" stroke-width="1" opacity="0.6705882352941176" d="M 239.5 119 L 240 121.5 L 239 121.5 L 239.5 119 Z " /><path fill="rgb(5,5,5)" stroke="rgb(5,5,5)" stroke-width="1" opacity="0.6705882352941176" d="M 119.5 121 L 120 122.5 L 118.5 125 L 118 123.5 L 119.5 121 Z " /><path fill="rgb(5,5,5)" stroke="rgb(5,5,5)" stroke-width="1" opacity="0.6705882352941176" d="M 238.5 123 L 239 125.5 L 238 125.5 L 238.5 123 Z " /><path fill="rgb(5,5,5)" stroke="rgb(5,5,5)" stroke-width="1" opacity="0.6705882352941176" d="M 155.5 126 L 157 128.5 L 155 127.5 L 155.5 126 Z " /><path fill="rgb(5,5,5)" stroke="rgb(5,5,5)" stroke-width="1" opacity="0.6705882352941176" d="M 147.5 129 L 151 135.5 L 149 134.5 L 147.5 129 Z " /><path fill="rgb(5,5,5)" stroke="rgb(5,5,5)" stroke-width="1" opacity="0.6705882352941176" d="M 115.5 131 L 116 132.5 L 113.5 136 L 114 134.5 L 115.5 131 Z " /><path fill="rgb(5,5,5)" stroke="rgb(5,5,5)" stroke-width="1" opacity="0.6705882352941176" d="M 226.5 131 L 227 132.5 L 225 133.5 L 226.5 131 Z " /><path fill="rgb(5,5,5)" stroke="rgb(5,5,5)" stroke-width="1" opacity="0.6705882352941176" d="M 105.5 132 L 104.5 134 L 105.5 132 Z " /><path fill="rgb(5,5,5)" stroke="rgb(5,5,5)" stroke-width="1" opacity="0.6705882352941176" d="M 29.5 134 L 33 140.5 L 31 139.5 L 29.5 134 Z " /><path fill="rgb(5,5,5)" stroke="rgb(5,5,5)" stroke-width="1" opacity="0.6705882352941176" d="M 39.5 135 L 40.5 137 L 39.5 135 Z " /><path fill="rgb(5,5,5)" stroke="rgb(5,5,5)" stroke-width="1" opacity="0.6705882352941176" d="M 103.5 135 L 102.5 137 L 103.5 135 Z " /><path fill="rgb(5,5,5)" stroke="rgb(5,5,5)" stroke-width="1" opacity="0.6705882352941176" d="M 160.5 135 L 162.5 138 L 160.5 135 Z " /><path fill="rgb(5,5,5)" stroke="rgb(5,5,5)" stroke-width="1" opacity="0.6705882352941176" d="M 112.5 137 L 111.5 139 L 112.5 137 Z " /><path fill="rgb(5,5,5)" stroke="rgb(5,5,5)" stroke-width="1" opacity="0.6705882352941176" d="M 151.5 137 L 155 141.5 L 152 139.5 L 151.5 137 Z " /><path fill="rgb(5,5,5)" stroke="rgb(5,5,5)" stroke-width="1" opacity="0.6705882352941176" d="M 223.5 137 L 222.5 139 L 223.5 137 Z " /><path fill="rgb(5,5,5)" stroke="rgb(5,5,5)" stroke-width="1" opacity="0.6705882352941176" d="M 233.5 137 L 234 138.5 L 232 139.5 L 233.5 137 Z " /><path fill="rgb(5,5,5)" stroke="rgb(5,5,5)" stroke-width="1" opacity="0.6705882352941176" d="M 41.5 138 L 46.5 144 L 41.5 138 Z " /><path fill="rgb(5,5,5)" stroke="rgb(5,5,5)" stroke-width="1" opacity="0.6705882352941176" d="M 110.5 140 L 109.5 142 L 110.5 140 Z " /><path fill="rgb(5,5,5)" stroke="rgb(5,5,5)" stroke-width="1" opacity="0.6705882352941176" d="M 166.5 141 L 168.5 144 L 166.5 141 Z " /><path fill="rgb(5,5,5)" stroke="rgb(5,5,5)" stroke-width="1" opacity="0.6705882352941176" d="M 96.5 142 L 95.5 144 L 96.5 142 Z " /><path fill="rgb(5,5,5)" stroke="rgb(5,5,5)" stroke-width="1" opacity="0.6705882352941176" d="M 155.5 143 L 157.5 146 L 155.5 143 Z " /><path fill="rgb(5,5,5)" stroke="rgb(5,5,5)" stroke-width="1" opacity="0.6705882352941176" d="M 107.5 144 L 106.5 146 L 107.5 144 Z " /><path fill="rgb(5,5,5)" stroke="rgb(5,5,5)" stroke-width="1" opacity="0.6705882352941176" d="M 216.5 144 L 215.5 146 L 216.5 144 Z " /><path fill="rgb(5,5,5)" stroke="rgb(5,5,5)" stroke-width="1" opacity="0.6705882352941176" d="M 229.5 144 L 223.5 151 L 229.5 144 Z " /><path fill="rgb(5,5,5)" stroke="rgb(5,5,5)" stroke-width="1" opacity="0.6705882352941176" d="M 35.5 145 L 39.5 150 L 35.5 145 Z " /><path fill="rgb(5,5,5)" stroke="rgb(5,5,5)" stroke-width="1" opacity="0.6705882352941176" d="M 88.5 146 L 90 146.5 L 85.5 148 L 85.5 147 L 88.5 146 Z " /><path fill="rgb(5,5,5)" stroke="rgb(5,5,5)" stroke-width="1" opacity="0.6705882352941176" d="M 160.5 147 L 162.5 150 L 160.5 147 Z " /><path fill="rgb(5,5,5)" stroke="rgb(5,5,5)" stroke-width="1" opacity="0.6705882352941176" d="M 81.5 148 L 84 148.5 L 81.5 149 L 81.5 148 Z " /><path fill="rgb(5,5,5)" stroke="rgb(5,5,5)" stroke-width="1" opacity="0.6705882352941176" d="M 102.5 148 L 101.5 150 L 102.5 148 Z " /><path fill="rgb(5,5,5)" stroke="rgb(5,5,5)" stroke-width="1" opacity="0.6705882352941176" d="M 181.5 148 L 184 148.5 L 181.5 149 L 181.5 148 Z " /><path fill="rgb(5,5,5)" stroke="rgb(5,5,5)" stroke-width="1" opacity="0.6705882352941176" d="M 205.5 148 L 209 148.5 L 205.5 149 L 205.5 148 Z " /><path fill="rgb(5,5,5)" stroke="rgb(5,5,5)" stroke-width="1" opacity="0.6705882352941176" d="M 61.5 149 L 79 149.5 L 61.5 150 L 61.5 149 Z " /><path fill="rgb(5,5,5)" stroke="rgb(5,5,5)" stroke-width="1" opacity="0.6705882352941176" d="M 187.5 149 L 203 149.5 L 187.5 150 L 187.5 149 Z " /><path fill="rgb(5,5,5)" stroke="rgb(5,5,5)" stroke-width="1" opacity="0.6705882352941176" d="M 41.5 150 L 42.5 152 L 41.5 150 Z " /><path fill="rgb(5,5,5)" stroke="rgb(5,5,5)" stroke-width="1" opacity="0.6705882352941176" d="M 99.5 150 L 98.5 152 L 96.5 153 L 97.5 151 L 99.5 150 Z " /><path fill="rgb(5,5,5)" stroke="rgb(5,5,5)" stroke-width="1" opacity="0.6705882352941176" d="M 164.5 150 L 169 152.5 L 167.5 153 L 164.5 150 Z " /><path fill="rgb(5,5,5)" stroke="rgb(5,5,5)" stroke-width="1" opacity="0.6705882352941176" d="M 221.5 151 L 220.5 153 L 215.5 155 L 215.5 154 L 221.5 151 Z " /><path fill="rgb(5,5,5)" stroke="rgb(5,5,5)" stroke-width="1" opacity="0.6705882352941176" d="M 44.5 152 L 49 154.5 L 47.5 155 L 44.5 152 Z " /><path fill="rgb(5,5,5)" stroke="rgb(5,5,5)" stroke-width="1" opacity="0.6705882352941176" d="M 87.5 155 L 90 155.5 L 87.5 156 L 87.5 155 Z " /><path fill="rgb(5,5,5)" stroke="rgb(5,5,5)" stroke-width="1" opacity="0.6705882352941176" d="M 175.5 155 L 182 156.5 L 178.5 157 L 175.5 156 L 175.5 155 Z " /><path fill="rgb(5,5,5)" stroke="rgb(5,5,5)" stroke-width="1" opacity="0.6705882352941176" d="M 211.5 155 L 214 155.5 L 211.5 156 L 211.5 155 Z " /><path fill="rgb(5,5,5)" stroke="rgb(5,5,5)" stroke-width="1" opacity="0.6705882352941176" d="M 54.5 156 L 57 156.5 L 54.5 157 L 54.5 156 Z " /><path fill="rgb(5,5,5)" stroke="rgb(5,5,5)" stroke-width="1" opacity="0.6705882352941176" d="M 83.5 156 L 86 156.5 L 83.5 157 L 83.5 156 Z " /><path fill="rgb(5,5,5)" stroke="rgb(5,5,5)" stroke-width="1" opacity="0.6705882352941176" d="M 58.5 157 L 66 157.5 L 58.5 158 L 58.5 157 Z " /><path fill="rgb(5,5,5)" stroke="rgb(5,5,5)" stroke-width="1" opacity="0.6705882352941176" d="M 75.5 157 L 81 157.5 L 75.5 158 L 75.5 157 Z " /><path fill="rgb(5,5,5)" stroke="rgb(5,5,5)" stroke-width="1" opacity="0.6705882352941176" d="M 184.5 157 L 191 157.5 L 184.5 158 L 184.5 157 Z " /><path fill="rgb(5,5,5)" stroke="rgb(5,5,5)" stroke-width="1" opacity="0.6705882352941176" d="M 199.5 157 L 206 157.5 L 199.5 158 L 199.5 157 Z " /><path fill="rgb(0,0,0)" stroke="rgb(0,0,0)" stroke-width="1" opacity="0" d="M 0 0 L 264 0 L 264 227 L 0 227 L 0 0 Z M 47 71 L 46 72 L 34 72 L 33 73 L 15 75 L 13 77 L 13 94 L 19 97 L 20 99 L 21 110 L 26 130 Q 30 140 36 148 L 47 155 L 65 159 L 84 158 Q 95 156 103 150 Q 112 143 117 132 L 125 105 L 130 101 L 137 102 L 140 107 L 146 130 L 153 142 Q 160 150 171 155 L 190 159 L 200 159 L 201 158 L 212 157 L 225 151 Q 232 145 236 136 L 242 115 L 244 99 L 249 96 L 251 94 L 251 77 L 248 74 L 239 74 L 238 73 L 220 72 L 219 71 L 174 71 L 135 79 L 122 78 L 108 74 L 103 74 L 97 72 L 87 72 L 86 71 L 47 71 Z " /><path fill="rgb(0,0,0)" stroke="rgb(0,0,0)" stroke-width="1" opacity="0" d="M 62.5 81 L 100.5 83 Q 108.9 85.2 113 91.5 L 115 99.5 L 111 118.5 L 108 126.5 Q 103.9 135.9 96.5 142 Q 84.7 150.7 62.5 149 L 53.5 147 L 43 139.5 L 35 123.5 L 33 115.5 L 32 97.5 L 34 90.5 L 37.5 86 L 47.5 82 L 61.5 82 L 62.5 81 Z " /><path fill="rgb(0,0,0)" stroke="rgb(0,0,0)" stroke-width="1" opacity="0" d="M 185.5 81 L 217.5 82 Q 225.3 83.2 229 88.5 Q 234.3 95.7 232 110.5 L 227 129.5 Q 223.5 138.5 216.5 144 L 202.5 149 L 185.5 149 L 170.5 144 L 162 136.5 Q 154.4 126.6 151 112.5 Q 151.6 106.4 149 103.5 L 149 94.5 L 155.5 86 L 168.5 82 L 184.5 82 L 185.5 81 Z " /><path fill="rgb(65,65,65)" stroke="rgb(65,65,65)" stroke-width="1" opacity="0.9882352941176471" d="M 46.5 71 L 50.5 73 L 51.5 72 L 79.5 72 L 80.5 73 L 100.5 74 L 102 73.5 L 101.5 75 L 114.5 77 L 116 76.5 L 115.5 78 L 123.5 79 L 127.5 78 L 127.5 79 L 124 79.5 L 139.5 80 L 145 78.5 L 143 77.5 L 144.5 77 L 148.5 78 L 148.5 77 L 147 76.5 L 148.5 76 L 152.5 77 L 161 74.5 L 160.5 73 Q 161.8 75.3 166.5 74 L 166.5 72 L 167.5 73 L 177.5 73 L 178.5 72 L 212.5 72 L 213.5 73 L 227.5 73 L 230.5 72 L 230.5 73 L 228 73.5 L 244.5 75 L 249.5 77 L 251 76.5 L 250 77.5 L 250 92.5 L 248.5 94 L 246 95.5 L 246.5 97 L 244.5 96 L 244.5 98 L 243 97.5 L 244 100.5 L 242 100.5 L 241 112.5 L 242 114.5 L 241 114.5 L 240.5 113 L 240 117.5 L 240.5 119 L 239 118.5 L 240 123.5 L 239 123.5 L 238.5 122 L 237 128.5 L 237.5 130 L 236 129.5 L 234 136.5 L 234.5 138 L 233 137.5 L 234 139.5 L 231 140.5 L 232 142.5 L 229 143.5 L 230 145.5 L 224.5 151 L 223.5 150 L 221 151.5 L 221.5 153 L 219.5 152 L 219.5 154 L 217.5 153 L 217.5 155 L 214.5 154 L 214.5 155 L 216 155.5 L 214.5 156 L 211.5 155 L 211.5 157 L 206.5 156 L 205.5 157 L 183.5 157 L 181.5 158 L 181.5 157 L 183 156.5 L 169.5 153 L 168 153.5 L 168.5 152 L 166.5 153 L 165.5 150 L 164 150.5 L 164.5 152 L 163.5 149 L 161.5 150 Q 158.7 148.8 161 147.5 L 155.5 142 Q 154.3 144.3 153 141.5 L 154 139.5 L 151 138.5 L 152 136.5 L 149.5 133 L 148 133.5 L 149 131.5 L 147 131.5 L 148 128.5 L 147 128.5 L 146.5 130 L 146 128.5 L 147 126.5 L 145 126.5 L 146 123.5 L 144 123.5 L 145 120.5 L 143 120.5 L 144 116.5 L 142.5 113 L 141 113.5 L 142 109.5 L 140 109.5 L 141 105.5 L 139 105.5 L 140 103.5 L 137 102.5 L 137.5 101 L 135.5 102 L 135.5 100 L 127.5 100 L 126 101.5 Q 128.3 102.7 125.5 104 L 124 103.5 L 125 105.5 L 123 105.5 L 124 109.5 L 122 109.5 L 123 113.5 L 121 113.5 L 120 119.5 L 120.5 121 L 119 120.5 L 120 123.5 L 118 123.5 L 119 126.5 L 117 126.5 L 118 128.5 L 116 128.5 L 115 132.5 L 115.5 134 Q 114.3 131.8 113 134.5 L 112 137.5 L 112.5 139 L 111 138.5 L 110 140.5 Q 112.3 141.8 109.5 143 L 108.5 142 L 103 147.5 Q 105.3 148.8 102.5 150 L 100.5 149 L 99.5 152 L 97.5 151 L 97.5 153 L 95.5 152 L 95.5 154 L 92.5 153 L 80.5 157 L 59.5 157 L 50.5 155 L 49 155.5 L 49.5 154 L 46.5 155 L 46.5 153 L 44.5 154 L 43.5 151 L 42 151.5 L 42.5 153 L 40.5 149 L 38.5 150 L 36 147.5 L 36 145.5 L 34.5 143 L 33 143.5 L 34 141.5 L 31 140.5 L 32 138.5 L 30 138.5 L 31 136.5 L 29 136.5 L 30 134.5 L 28 134.5 L 29 131.5 L 27 131.5 L 28 128.5 L 23.5 113 L 22.5 115 L 22 113.5 Q 24.3 112.3 23 107.5 L 21.5 101 L 20.5 103 L 20 101.5 L 21 97.5 Q 20.5 94.5 16.5 95 L 15 95.5 Q 17.5 94 14 92.5 L 14 77.5 L 15.5 76 L 36 73.5 L 33 72.5 L 35.5 72 L 36.5 73 L 48.5 73 L 48.5 72 Q 45.5 72.5 46.5 71 Z M 56 80 L 55 81 L 47 81 L 47 83 L 43 82 L 43 84 L 40 83 Q 37 84 39 86 L 38 85 Q 33 87 36 89 L 33 90 L 34 93 L 33 92 L 31 96 L 32 110 L 32 108 L 33 108 L 32 117 L 34 116 L 33 118 L 35 128 L 37 128 L 36 130 L 38 129 L 37 131 L 38 135 L 41 136 L 40 138 L 42 137 Q 44 138 42 140 L 46 143 L 47 142 L 49 146 L 51 145 L 51 147 L 53 146 L 53 148 L 56 147 L 57 148 L 55 149 L 60 150 L 80 150 L 79 149 L 79 148 L 81 149 L 85 149 L 84 148 L 84 147 L 86 148 L 91 147 L 91 145 L 93 146 L 93 144 L 95 145 Q 97 144 95 143 L 97 143 L 103 138 L 102 136 L 105 135 L 104 133 L 107 132 L 106 130 L 108 130 L 107 128 L 109 128 L 110 126 L 109 123 L 111 123 L 110 120 L 112 120 L 111 117 L 112 115 L 112 117 L 113 117 L 112 113 L 113 111 L 114 113 L 115 109 Q 117 103 114 102 L 115 100 L 115 102 L 116 102 L 116 95 L 115 97 L 114 97 L 115 93 L 113 93 L 114 91 Q 113 88 112 90 Q 107 88 109 85 L 107 86 L 107 84 L 105 85 L 105 83 L 102 84 L 102 83 L 96 81 L 85 81 L 84 80 L 56 80 Z M 179 80 L 178 81 L 167 81 L 159 83 L 159 85 L 157 84 L 157 86 L 155 85 Q 152 86 154 88 L 150 90 L 151 92 L 149 92 L 150 94 L 148 94 Q 146 104 150 110 L 150 109 L 151 109 L 150 114 L 152 113 L 151 115 L 152 120 L 154 120 L 153 123 L 155 122 L 154 124 L 155 128 L 157 128 L 156 130 L 158 130 L 157 132 L 160 133 L 159 132 L 158 134 L 162 136 L 161 138 L 167 142 L 169 142 L 168 144 L 174 147 L 177 146 L 177 148 L 180 147 L 181 148 L 180 148 L 180 149 L 185 148 L 185 150 L 206 150 L 212 148 L 212 146 L 214 147 L 214 145 L 216 146 L 216 144 L 218 145 Q 222 143 219 142 Q 221 143 223 140 L 222 138 L 225 137 L 224 135 L 226 135 L 225 133 L 227 133 L 226 131 L 228 131 L 229 129 L 228 126 L 229 124 L 230 126 L 231 123 L 230 118 L 232 118 Q 235 109 233 95 L 231 95 L 232 92 L 230 92 L 231 90 L 230 90 L 230 89 L 227 84 L 225 85 L 225 83 L 223 84 L 223 83 L 211 80 L 179 80 Z " /><path fill="rgb(65,65,65)" stroke="rgb(65,65,65)" stroke-width="1" opacity="0.9882352941176471" d="M 82.5 71 L 86 71.5 L 82.5 72 L 82.5 71 Z " /><path fill="rgb(65,65,65)" stroke="rgb(65,65,65)" stroke-width="1" opacity="0.9882352941176471" d="M 173.5 71 L 177 71.5 L 173.5 72 L 173.5 71 Z " /><path fill="rgb(65,65,65)" stroke="rgb(65,65,65)" stroke-width="1" opacity="0.9882352941176471" d="M 215.5 71 L 219 71.5 L 215.5 72 L 215.5 71 Z " /><path fill="rgb(65,65,65)" stroke="rgb(65,65,65)" stroke-width="1" opacity="0.9882352941176471" d="M 94.5 72 L 97 72.5 L 94.5 73 L 94.5 72 Z " /><path fill="rgb(65,65,65)" stroke="rgb(65,65,65)" stroke-width="1" opacity="0.9882352941176471" d="M 135.5 78 L 139 78.5 L 135.5 79 L 135.5 78 Z " /><path fill="rgb(65,65,65)" stroke="rgb(65,65,65)" stroke-width="1" opacity="0.9882352941176471" d="M 57.5 81 L 62 81.5 L 57.5 82 L 57.5 81 Z " /><path fill="rgb(65,65,65)" stroke="rgb(65,65,65)" stroke-width="1" opacity="0.9882352941176471" d="M 77.5 81 L 83 81.5 L 77.5 82 L 77.5 81 Z " /><path fill="rgb(65,65,65)" stroke="rgb(65,65,65)" stroke-width="1" opacity="0.9882352941176471" d="M 180.5 81 L 185 81.5 L 180.5 82 L 180.5 81 Z " /><path fill="rgb(65,65,65)" stroke="rgb(65,65,65)" stroke-width="1" opacity="0.9882352941176471" d="M 203.5 81 L 209 81.5 L 203.5 82 L 203.5 81 Z " /><path fill="rgb(65,65,65)" stroke="rgb(65,65,65)" stroke-width="1" opacity="0.9882352941176471" d="M 242.5 107 L 243 109.5 L 242 109.5 L 242.5 107 Z " /><path fill="rgb(65,65,65)" stroke="rgb(65,65,65)" stroke-width="1" opacity="0.9882352941176471" d="M 64.5 158 L 76 158.5 L 64.5 159 L 64.5 158 Z " /><path fill="rgb(65,65,65)" stroke="rgb(65,65,65)" stroke-width="1" opacity="0.9882352941176471" d="M 189.5 158 L 194 158.5 L 189.5 159 L 189.5 158 Z " /><path fill="rgb(65,65,65)" stroke="rgb(65,65,65)" stroke-width="1" opacity="0.9882352941176471" d="M 195.5 158 L 200 158.5 L 195.5 159 L 195.5 158 Z " /><path fill="rgb(32,32,32)" stroke="rgb(32,32,32)" stroke-width="1" opacity="0.9137254901960784" d="M 49.5 71 L 52 71.5 L 48.5 73 L 46 72.5 L 49.5 71 Z " /><path fill="rgb(32,32,32)" stroke="rgb(32,32,32)" stroke-width="1" opacity="0.9137254901960784" d="M 79.5 71 L 86 72.5 L 80.5 73 L 79.5 71 Z " /><path fill="rgb(32,32,32)" stroke="rgb(32,32,32)" stroke-width="1" opacity="0.9137254901960784" d="M 177.5 71 L 179 71.5 Q 178.3 73.8 174.5 73 L 174.5 72 L 177.5 71 Z " /><path fill="rgb(32,32,32)" stroke="rgb(32,32,32)" stroke-width="1" opacity="0.9137254901960784" d="M 213 71 L 218 72.5 L 213 73 L 213 71 Z " /><path fill="rgb(32,32,32)" stroke="rgb(32,32,32)" stroke-width="1" opacity="0.9137254901960784" d="M 36.5 72 L 35.5 74 L 33 73.5 L 36.5 72 Z " /><path fill="rgb(32,32,32)" stroke="rgb(32,32,32)" stroke-width="1" opacity="0.9137254901960784" d="M 167.5 72 L 166.5 74 L 165 73.5 L 167.5 72 Z " /><path fill="rgb(32,32,32)" stroke="rgb(32,32,32)" stroke-width="1" opacity="0.9137254901960784" d="M 227.5 72 L 230 73.5 L 228.5 74 L 227.5 72 Z " /><path fill="rgb(32,32,32)" stroke="rgb(32,32,32)" stroke-width="1" opacity="0.9137254901960784" d="M 26.5 73 L 27 75 L 25 74.5 L 26.5 73 Z " /><path fill="rgb(32,32,32)" stroke="rgb(32,32,32)" stroke-width="1" opacity="0.9137254901960784" d="M 93.5 73 L 96 73.5 L 93.5 74 L 93.5 73 Z " /><path fill="rgb(32,32,32)" stroke="rgb(32,32,32)" stroke-width="1" opacity="0.9137254901960784" d="M 100.5 73 L 101.5 75 L 100.5 73 Z " /><path fill="rgb(32,32,32)" stroke="rgb(32,32,32)" stroke-width="1" opacity="0.9137254901960784" d="M 161.5 73 L 160.5 75 L 161.5 73 Z " /><path fill="rgb(32,32,32)" stroke="rgb(32,32,32)" stroke-width="1" opacity="0.9137254901960784" d="M 237.5 73 L 238.5 75 Q 235.7 75.7 237.5 73 Z " /><path fill="rgb(32,32,32)" stroke="rgb(32,32,32)" stroke-width="1" opacity="0.9137254901960784" d="M 18.5 74 L 19 76 L 16 75.5 L 18.5 74 Z " /><path fill="rgb(32,32,32)" stroke="rgb(32,32,32)" stroke-width="1" opacity="0.9137254901960784" d="M 156.5 74 L 157 76 L 155 75.5 L 156.5 74 Z " /><path fill="rgb(32,32,32)" stroke="rgb(32,32,32)" stroke-width="1" opacity="0.9137254901960784" d="M 110.5 75 L 111.5 77 Q 108.7 77.7 110.5 75 Z " /><path fill="rgb(32,32,32)" stroke="rgb(32,32,32)" stroke-width="1" opacity="0.9137254901960784" d="M 152.5 75 L 153 77 L 151 76.5 L 152.5 75 Z " /><path fill="rgb(32,32,32)" stroke="rgb(32,32,32)" stroke-width="1" opacity="0.9137254901960784" d="M 118.5 77 L 119.5 79 Q 116.7 79.7 118.5 77 Z " /><path fill="rgb(32,32,32)" stroke="rgb(32,32,32)" stroke-width="1" opacity="0.9137254901960784" d="M 123.5 78 L 129 79.5 L 124.5 80 L 123.5 78 Z " /><path fill="rgb(32,32,32)" stroke="rgb(32,32,32)" stroke-width="1" opacity="0.9137254901960784" d="M 139.5 78 L 140 80 L 136 79.5 L 139.5 78 Z " /><path fill="rgb(32,32,32)" stroke="rgb(32,32,32)" stroke-width="1" opacity="0.9137254901960784" d="M 55.5 80 L 61 80.5 L 54.5 82 L 55.5 80 Z " /><path fill="rgb(32,32,32)" stroke="rgb(32,32,32)" stroke-width="1" opacity="0.9137254901960784" d="M 79.5 80 L 87 81.5 L 83.5 82 L 79.5 81 L 79.5 80 Z " /><path fill="rgb(32,32,32)" stroke="rgb(32,32,32)" stroke-width="1" opacity="0.9137254901960784" d="M 178.5 80 L 186 80.5 L 177.5 82 L 178.5 80 Z " /><path fill="rgb(32,32,32)" stroke="rgb(32,32,32)" stroke-width="1" opacity="0.9137254901960784" d="M 206.5 80 Q 212.3 78.3 211 82 L 206.5 81 L 206.5 80 Z " /><path fill="rgb(32,32,32)" stroke="rgb(32,32,32)" stroke-width="1" opacity="0.9137254901960784" d="M 46.5 81 L 45.5 83 L 46.5 81 Z " /><path fill="rgb(32,32,32)" stroke="rgb(32,32,32)" stroke-width="1" opacity="0.9137254901960784" d="M 92.5 81 Q 96.9 79.5 96 82.5 L 94.5 82 Q 91.5 82.5 92.5 81 Z " /><path fill="rgb(32,32,32)" stroke="rgb(32,32,32)" stroke-width="1" opacity="0.9137254901960784" d="M 166 81 L 169 81.5 L 166.5 83 L 166 81 Z " /><path fill="rgb(32,32,32)" stroke="rgb(32,32,32)" stroke-width="1" opacity="0.9137254901960784" d="M 218.5 81 Q 220.8 80.3 220 82.5 L 218.5 81 Z " /><path fill="rgb(32,32,32)" stroke="rgb(32,32,32)" stroke-width="1" opacity="0.9137254901960784" d="M 42.5 82 L 41.5 84 L 42.5 82 Z " /><path fill="rgb(32,32,32)" stroke="rgb(32,32,32)" stroke-width="1" opacity="0.9137254901960784" d="M 161 82 L 163 82.5 L 161 83.5 L 161 82 Z " /><path fill="rgb(32,32,32)" stroke="rgb(32,32,32)" stroke-width="1" opacity="0.9137254901960784" d="M 39.5 83 L 40 85 L 38 84.5 L 39.5 83 Z " /><path fill="rgb(32,32,32)" stroke="rgb(32,32,32)" stroke-width="1" opacity="0.9137254901960784" d="M 226.5 84 L 229.5 88 L 227 86.5 L 226.5 84 Z " /><path fill="rgb(32,32,32)" stroke="rgb(32,32,32)" stroke-width="1" opacity="0.9137254901960784" d="M 13.5 93 L 14.5 95 L 13.5 93 Z " /><path fill="rgb(32,32,32)" stroke="rgb(32,32,32)" stroke-width="1" opacity="0.9137254901960784" d="M 231.5 93 L 232.5 95 L 231.5 93 Z " /><path fill="rgb(32,32,32)" stroke="rgb(32,32,32)" stroke-width="1" opacity="0.9137254901960784" d="M 18.5 95 L 20.5 98 L 18 96.5 L 18.5 95 Z " /><path fill="rgb(32,32,32)" stroke="rgb(32,32,32)" stroke-width="1" opacity="0.9137254901960784" d="M 31 95 L 33 95.5 L 31 96.5 L 31 95 Z " /><path fill="rgb(32,32,32)" stroke="rgb(32,32,32)" stroke-width="1" opacity="0.9137254901960784" d="M 244.5 96 L 243.5 98 L 244.5 96 Z " /><path fill="rgb(32,32,32)" stroke="rgb(32,32,32)" stroke-width="1" opacity="0.9137254901960784" d="M 115.5 99 L 116 101.5 L 114 102.5 L 115.5 99 Z " /><path fill="rgb(32,32,32)" stroke="rgb(32,32,32)" stroke-width="1" opacity="0.9137254901960784" d="M 243.5 99 L 242.5 101 L 243.5 99 Z " /><path fill="rgb(32,32,32)" stroke="rgb(32,32,32)" stroke-width="1" opacity="0.9137254901960784" d="M 20.5 100 L 21.5 102 L 20.5 100 Z " /><path fill="rgb(32,32,32)" stroke="rgb(32,32,32)" stroke-width="1" opacity="0.9137254901960784" d="M 137.5 101 L 141 105.5 L 139 104.5 L 137.5 101 Z " /><path fill="rgb(32,32,32)" stroke="rgb(32,32,32)" stroke-width="1" opacity="0.9137254901960784" d="M 148.5 104 L 149.5 106 Q 146.7 106.7 148.5 104 Z " /><path fill="rgb(32,32,32)" stroke="rgb(32,32,32)" stroke-width="1" opacity="0.9137254901960784" d="M 21.5 106 L 23 108.5 L 21 107.5 L 21.5 106 Z " /><path fill="rgb(32,32,32)" stroke="rgb(32,32,32)" stroke-width="1" opacity="0.9137254901960784" d="M 114.5 107 L 115 109 L 113 108.5 L 114.5 107 Z " /><path fill="rgb(32,32,32)" stroke="rgb(32,32,32)" stroke-width="1" opacity="0.9137254901960784" d="M 31.5 108 L 33 110.5 L 31 109.5 L 31.5 108 Z " /><path fill="rgb(32,32,32)" stroke="rgb(32,32,32)" stroke-width="1" opacity="0.9137254901960784" d="M 123.5 108 L 122.5 110 L 123.5 108 Z " /><path fill="rgb(32,32,32)" stroke="rgb(32,32,32)" stroke-width="1" opacity="0.9137254901960784" d="M 232.5 110 L 233 113 L 231 112.5 L 232.5 110 Z " /><path fill="rgb(32,32,32)" stroke="rgb(32,32,32)" stroke-width="1" opacity="0.9137254901960784" d="M 122.5 112 L 121.5 114 L 122.5 112 Z " /><path fill="rgb(32,32,32)" stroke="rgb(32,32,32)" stroke-width="1" opacity="0.9137254901960784" d="M 141.5 112 L 142.5 114 L 141.5 112 Z " /><path fill="rgb(32,32,32)" stroke="rgb(32,32,32)" stroke-width="1" opacity="0.9137254901960784" d="M 241.5 112 L 240.5 114 L 241.5 112 Z " /><path fill="rgb(32,32,32)" stroke="rgb(32,32,32)" stroke-width="1" opacity="0.9137254901960784" d="M 32.5 116 L 33.5 118 L 32.5 116 Z " /><path fill="rgb(32,32,32)" stroke="rgb(32,32,32)" stroke-width="1" opacity="0.9137254901960784" d="M 142.5 116 Q 144.8 115.3 144 117.5 L 142.5 116 Z " /><path fill="rgb(32,32,32)" stroke="rgb(32,32,32)" stroke-width="1" opacity="0.9137254901960784" d="M 23.5 117 Q 25.8 116.3 25 118.5 L 23.5 117 Z " /><path fill="rgb(32,32,32)" stroke="rgb(32,32,32)" stroke-width="1" opacity="0.9137254901960784" d="M 231.5 117 L 230.5 119 L 231.5 117 Z " /><path fill="rgb(32,32,32)" stroke="rgb(32,32,32)" stroke-width="1" opacity="0.9137254901960784" d="M 240.5 117 L 239.5 119 L 240.5 117 Z " /><path fill="rgb(32,32,32)" stroke="rgb(32,32,32)" stroke-width="1" opacity="0.9137254901960784" d="M 120.5 119 L 119.5 121 L 120.5 119 Z " /><path fill="rgb(32,32,32)" stroke="rgb(32,32,32)" stroke-width="1" opacity="0.9137254901960784" d="M 143.5 119 L 144.5 121 L 143.5 119 Z " /><path fill="rgb(32,32,32)" stroke="rgb(32,32,32)" stroke-width="1" opacity="0.9137254901960784" d="M 33.5 120 L 34.5 122 Q 31.7 122.7 33.5 120 Z " /><path fill="rgb(32,32,32)" stroke="rgb(32,32,32)" stroke-width="1" opacity="0.9137254901960784" d="M 24.5 121 Q 26.8 120.3 26 122.5 L 24.5 121 Z " /><path fill="rgb(32,32,32)" stroke="rgb(32,32,32)" stroke-width="1" opacity="0.9137254901960784" d="M 235 131 L 237 131.5 L 235 132.5 L 235 131 Z " /><path fill="rgb(32,32,32)" stroke="rgb(32,32,32)" stroke-width="1" opacity="0.9137254901960784" d="M 158.5 133 Q 160.8 132.3 160 134.5 L 158.5 133 Z " /><path fill="rgb(32,32,32)" stroke="rgb(32,32,32)" stroke-width="1" opacity="0.9137254901960784" d="M 101.5 137 L 103 137.5 L 97 142.5 L 101.5 137 Z " /><path fill="rgb(32,32,32)" stroke="rgb(32,32,32)" stroke-width="1" opacity="0.9137254901960784" d="M 161.5 137 L 166 140.5 L 165.5 142 L 161.5 137 Z " /><path fill="rgb(32,32,32)" stroke="rgb(32,32,32)" stroke-width="1" opacity="0.9137254901960784" d="M 221.5 139 L 223 139.5 L 217 144.5 L 218.5 142 Q 220.8 142.8 220 140.5 L 221.5 139 Z " /><path fill="rgb(32,32,32)" stroke="rgb(32,32,32)" stroke-width="1" opacity="0.9137254901960784" d="M 108.5 142 L 109 144 L 106 145.5 L 104.5 148 L 103 147.5 L 105 147 L 108.5 142 Z " /><path fill="rgb(32,32,32)" stroke="rgb(32,32,32)" stroke-width="1" opacity="0.9137254901960784" d="M 155.5 142 L 160 147.5 L 158 146.5 L 155.5 142 Z " /><path fill="rgb(32,32,32)" stroke="rgb(32,32,32)" stroke-width="1" opacity="0.9137254901960784" d="M 230.5 142 L 231 144 L 229 143.5 L 230.5 142 Z " /><path fill="rgb(32,32,32)" stroke="rgb(32,32,32)" stroke-width="1" opacity="0.9137254901960784" d="M 34.5 143 L 35.5 145 Q 32.7 145.7 34.5 143 Z " /><path fill="rgb(32,32,32)" stroke="rgb(32,32,32)" stroke-width="1" opacity="0.9137254901960784" d="M 47.5 144 Q 49.8 143.3 49 145.5 L 47.5 144 Z " /><path fill="rgb(32,32,32)" stroke="rgb(32,32,32)" stroke-width="1" opacity="0.9137254901960784" d="M 212.5 146 L 211.5 148 L 212.5 146 Z " /><path fill="rgb(32,32,32)" stroke="rgb(32,32,32)" stroke-width="1" opacity="0.9137254901960784" d="M 59.5 148 L 60.5 150 Q 57.7 150.7 59.5 148 Z " /><path fill="rgb(32,32,32)" stroke="rgb(32,32,32)" stroke-width="1" opacity="0.9137254901960784" d="M 80.5 148 L 79.5 150 L 80.5 148 Z " /><path fill="rgb(32,32,32)" stroke="rgb(32,32,32)" stroke-width="1" opacity="0.9137254901960784" d="M 184.5 149 L 187 149.5 L 184.5 150 L 184.5 149 Z " /><path fill="rgb(32,32,32)" stroke="rgb(32,32,32)" stroke-width="1" opacity="0.9137254901960784" d="M 203.5 149 L 206 149.5 L 203.5 150 L 203.5 149 Z " /><path fill="rgb(32,32,32)" stroke="rgb(32,32,32)" stroke-width="1" opacity="0.9137254901960784" d="M 52.5 155 Q 54.8 154.3 54 156.5 L 52.5 155 Z " /><path fill="rgb(32,32,32)" stroke="rgb(32,32,32)" stroke-width="1" opacity="0.9137254901960784" d="M 81 156 L 83 156.5 L 81 157.5 L 81 156 Z " /><path fill="rgb(32,32,32)" stroke="rgb(32,32,32)" stroke-width="1" opacity="0.9137254901960784" d="M 182.5 156 L 183.5 158 L 182.5 156 Z " /><path fill="rgb(32,32,32)" stroke="rgb(32,32,32)" stroke-width="1" opacity="0.9137254901960784" d="M 206 156 L 208 156.5 L 206 157.5 L 206 156 Z " /><path fill="rgb(32,32,32)" stroke="rgb(32,32,32)" stroke-width="1" opacity="0.9137254901960784" d="M 66.5 157 L 75 157.5 L 66.5 158 L 66.5 157 Z " /><path fill="rgb(32,32,32)" stroke="rgb(32,32,32)" stroke-width="1" opacity="0.9137254901960784" d="M 191.5 157 L 199 157.5 L 194.5 159 L 191.5 158 L 191.5 157 Z " /></svg>