<svg width="238" height="199" version="1.1" xmlns="http://www.w3.org/2000/svg" desc="Created with imagetracer.js version 1.2.6" ><path fill="rgb(0,0,0)" stroke="rgb(0,0,0)" stroke-width="1" opacity="0" d="M 0 0 L 238 0 L 238 199 L 0 199 L 0 0 Z M 172 22 L 59 92 Q 52 94 54 105 L 27 124 L 22 130 L 22 148 L 23 150 L 33 158 L 58 174 Q 63 175 66 172 L 96 151 L 102 154 L 110 154 L 121 147 L 207 84 L 214 76 L 214 50 L 212 46 L 180 22 L 172 22 Z " /><path fill="rgb(0,0,0)" stroke="rgb(0,0,0)" stroke-width="1" opacity="0" d="M 174.5 31 L 204 51.5 L 202.5 54 L 102.5 127 L 70.5 105 L 64 102 L 65.5 99 L 174.5 31 Z " /><path fill="rgb(0,0,0)" stroke="rgb(0,0,0)" stroke-width="1" opacity="0" d="M 203.5 64 L 205 69.5 L 204 74 L 109.5 143 Q 106.8 141.8 108 136.5 L 111.5 132 L 203.5 64 Z " /><path fill="rgb(0,0,0)" stroke="rgb(0,0,0)" stroke-width="1" opacity="0" d="M 61.5 111 L 86 127.5 L 83.5 131 L 58.5 148 L 35 132 L 36.5 129 L 61.5 111 Z M 58 126 Q 55 127 56 133 L 58 132 L 58 134 Q 64 135 65 132 L 64 128 Q 65 124 60 126 L 58 126 Z " /><path fill="rgb(0,0,0)" stroke="rgb(0,0,0)" stroke-width="1" opacity="0" d="M 89.5 138 L 90 143.5 L 66.5 160 L 63 161 Q 62 155.4 66.5 154 L 89.5 138 Z " /><path fill="rgb(0,0,0)" stroke="rgb(0,0,0)" stroke-width="1" opacity="0" d="M 31 141 L 54 156 L 54 160 L 52.5 160 L 32 146 L 31 141 Z " /><path fill="rgb(64,64,64)" stroke="rgb(64,64,64)" stroke-width="1" opacity="0.9764705882352941" d="M 171.5 22 Q 172.8 24.3 177.5 23 L 179.5 22 L 180.5 25 L 182.5 24 L 183.5 27 L 185.5 26 L 187.5 30 L 189.5 29 L 190.5 32 L 192.5 31 L 193.5 34 L 195.5 33 L 196.5 36 L 198.5 37 L 200 36.5 Q 197.7 37.8 200.5 39 L 202.5 38 L 203.5 41 L 205.5 42 Q 206.7 39.8 208 42.5 L 207.5 44 L 209.5 43 Q 213.8 44.7 211 46.5 L 211.5 48 L 213 47.5 L 212 51.5 L 213 51.5 L 213.5 49 L 214 60.5 L 214 62.5 L 213 64.5 L 214 66.5 Q 211.8 67.8 213 72.5 L 214 75.5 L 213 75.5 L 212.5 73 L 212 76.5 L 212.5 78 L 211 77.5 L 209.5 80 L 207 81.5 Q 209.3 82.8 206.5 84 L 204.5 83 L 203.5 86 L 201.5 86 L 200 86.5 Q 202.3 87.8 199.5 89 L 197.5 89 L 196 89.5 Q 198.3 90.8 195.5 92 L 193.5 91 L 192.5 94 L 190.5 94 L 189 94.5 Q 191.3 95.8 188.5 97 L 186.5 96 L 185.5 99 L 183.5 99 L 182 99.5 Q 184.3 100.8 181.5 102 L 179.5 102 L 178 102.5 Q 180.3 103.8 177.5 105 L 175.5 104 L 173.5 108 L 171.5 108 L 170 108.5 Q 172.3 109.8 169.5 111 L 167.5 110 L 166.5 113 L 164.5 113 L 163 113.5 Q 165.3 114.8 162.5 116 L 160.5 116 L 159 116.5 Q 161.3 117.8 158.5 119 L 156.5 118 Q 158.2 120 154.5 122 L 152.5 121 L 151.5 124 L 149.5 124 L 148 124.5 Q 150.2 125.8 147.5 127 L 145.5 127 L 144 127.5 Q 146.3 128.8 143.5 130 L 141.5 129 L 139.5 133 L 137.5 133 L 136 133.5 Q 138.3 134.8 135.5 136 L 133.5 135 L 132.5 138 L 130.5 138 L 129 138.5 Q 131.3 139.8 128.5 141 L 126.5 141 L 125 141.5 Q 127.3 142.8 124.5 144 L 122.5 143 L 120.5 147 L 118.5 146 L 117.5 149 L 115.5 148 L 114.5 151 L 112.5 151 L 111 151.5 L 111.5 153 L 109.5 152 L 109.5 154 Q 108 151.5 102.5 153 L 101 153.5 L 101.5 152 L 99.5 153 L 99.5 151 L 95.5 150 L 93 151.5 Q 95.3 152.8 92.5 154 L 90.5 153 L 89.5 156 L 87.5 155 L 86.5 158 L 84.5 157 L 83.5 160 L 81.5 159 L 80.5 162 L 78.5 162 L 77 162.5 L 77.5 164 L 75.5 163 L 74.5 166 L 72.5 165 L 71.5 168 L 69.5 168 L 68 168.5 L 68.5 170 L 66.5 169 L 65.5 172 L 63.5 171 L 63.5 173 Q 61.8 170.3 55.5 172 L 54 172.5 Q 56.3 171.3 53.5 170 L 51.5 171 L 50.5 168 L 48.5 169 L 47.5 166 L 45.5 165 L 44 165.5 L 44.5 164 L 42.5 163 L 41 163.5 Q 43.3 162.3 40.5 161 L 38.5 162 L 37.5 159 L 35.5 160 L 34.5 157 L 32.5 158 L 31.5 155 L 29.5 154 Q 28.3 156.3 27 153.5 L 28 152.5 L 24.5 149 L 23 149.5 L 24 146.5 L 23 146.5 L 22.5 148 L 22 146.5 L 23 145.5 L 23 130.5 L 22.5 129 L 24 129.5 L 23 127.5 Q 25 129.2 27 125.5 L 26.5 124 L 28.5 124 L 30 123.5 L 29.5 122 L 31.5 122 L 33 121.5 Q 30.7 120.3 33.5 119 L 35.5 120 L 36.5 117 L 38.5 117 L 40 116.5 L 39.5 115 L 41.5 115 L 43 114.5 Q 40.8 113.3 43.5 112 L 45.5 113 L 46.5 110 L 48.5 110 L 50 109.5 L 49.5 108 L 51.5 108 L 53 107.5 Q 50.8 106.3 53.5 105 L 55 105.5 L 55 97.5 L 54 96.5 Q 56.5 98.3 59 93.5 L 58.5 92 L 60.5 92 L 62 91.5 L 61.5 90 L 63.5 91 L 64.5 88 L 66.5 89 L 66.5 87 L 68.5 88 L 69.5 85 L 71.5 86 L 72.5 83 L 74.5 84 L 74.5 82 L 76.5 83 L 77.5 80 L 79.5 81 L 80.5 78 L 82.5 79 L 82.5 77 L 84.5 77 L 86 76.5 L 85.5 75 L 87.5 75 L 89 74.5 L 88.5 73 L 90.5 74 L 90.5 72 L 92.5 72 L 94 71.5 L 93.5 70 L 95.5 70 L 97 69.5 L 96.5 68 L 98.5 69 L 99.5 66 L 101.5 67 L 101.5 65 L 103.5 66 L 104.5 63 L 106.5 64 L 107.5 61 L 109.5 62 L 109.5 60 L 111.5 61 L 112.5 58 L 114.5 59 L 114.5 57 L 116.5 57 L 118 56.5 L 117.5 55 L 119.5 56 L 120.5 53 L 122.5 54 L 122.5 52 L 124.5 52 L 126 51.5 L 125.5 50 L 127.5 51 L 127.5 49 L 129.5 49 L 131 48.5 L 130.5 47 L 132.5 48 L 133.5 45 L 135.5 46 L 135.5 44 L 137.5 44 L 139 43.5 L 138.5 42 L 140.5 43 L 141.5 40 L 143.5 41 L 143.5 39 L 145.5 40 L 146.5 37 L 148.5 38 L 148.5 36 L 150.5 37 L 151.5 34 L 153.5 35 L 153.5 33 L 155.5 34 L 156.5 31 L 158.5 32 L 159.5 29 L 161.5 30 L 161.5 28 L 163.5 28 L 165 27.5 L 164.5 26 L 166.5 27 L 167.5 24 L 169.5 25 L 169.5 23 L 171.5 24 L 171.5 22 Z M 175 30 L 173 31 L 173 33 L 171 32 L 170 35 L 168 34 L 168 36 L 167 35 L 165 36 L 165 38 L 163 37 L 162 40 L 160 39 L 160 41 L 159 40 L 157 41 L 157 43 L 155 42 L 154 45 L 152 44 L 152 46 L 151 45 L 149 46 L 149 48 L 147 47 L 146 50 L 144 49 L 144 51 L 142 50 L 141 53 L 139 52 L 139 54 L 137 53 L 136 56 L 134 55 L 134 57 L 133 56 L 131 57 L 131 59 L 129 58 L 128 61 L 126 60 L 126 62 L 125 61 L 123 62 L 123 64 L 121 63 L 121 65 L 119 64 L 118 67 L 116 66 L 115 69 L 113 68 L 113 70 L 112 69 L 110 70 L 110 72 L 108 71 L 107 74 L 105 73 L 105 75 L 103 74 L 102 77 L 100 76 L 100 78 L 99 77 L 97 78 L 97 80 L 95 79 L 94 82 L 92 81 L 91 84 L 89 83 L 89 85 L 88 84 L 86 85 L 86 87 L 85 86 L 83 87 L 83 89 L 81 88 L 80 91 L 78 90 L 78 92 L 77 91 L 75 92 L 75 94 L 73 93 L 72 96 L 70 95 L 70 97 L 69 96 L 67 97 L 67 99 L 65 98 Q 66 100 63 102 Q 64 104 66 102 L 65 104 L 67 104 L 69 104 L 69 106 L 71 105 L 72 108 L 74 107 L 75 110 L 77 109 L 78 112 L 80 111 L 79 113 L 81 113 L 83 113 L 82 115 L 84 115 L 86 115 L 85 117 L 87 117 L 89 117 L 89 119 L 91 118 Q 93 119 91 121 L 93 121 L 95 121 L 95 123 L 97 122 Q 99 123 97 125 L 99 125 L 102 127 Q 101 129 104 128 L 104 126 L 106 127 L 108 123 L 110 124 L 109 123 Q 110 120 112 122 L 114 121 L 115 118 L 117 119 L 119 115 L 121 116 L 122 113 L 124 114 L 126 110 L 128 111 Q 130 110 128 109 L 130 109 L 132 108 L 133 105 L 135 106 Q 133 104 137 102 L 139 103 Q 141 102 139 101 L 141 101 L 143 100 L 142 99 Q 143 96 145 98 L 147 97 L 146 96 Q 147 93 149 95 L 151 94 L 150 93 Q 151 90 153 92 L 153 91 Q 154 88 156 90 L 158 89 Q 160 88 158 87 L 160 87 L 162 86 L 161 85 Q 162 82 164 84 L 166 83 L 165 82 Q 166 79 168 81 L 170 80 L 169 79 Q 170 76 172 78 L 174 77 L 175 74 L 177 75 L 179 71 L 181 72 L 183 68 L 185 69 Q 183 67 187 65 L 189 66 L 188 65 Q 189 62 191 64 L 193 63 L 192 62 Q 193 59 195 61 L 197 60 L 196 59 Q 197 56 199 58 L 201 57 L 202 54 L 204 55 L 205 53 Q 201 51 204 50 L 203 49 L 201 49 L 200 46 L 198 47 L 197 44 L 195 45 Q 192 44 194 43 L 193 42 L 191 42 L 190 39 L 188 40 L 187 37 L 185 38 L 184 35 L 182 36 L 180 32 L 178 33 L 178 32 L 175 30 Z M 204 63 L 202 64 Q 199 65 201 67 Q 200 69 199 67 L 197 68 L 197 70 Q 196 72 195 70 L 193 71 L 192 74 L 190 73 Q 187 74 189 76 L 188 75 L 186 76 Q 187 78 184 80 L 182 79 L 182 81 Q 181 83 180 81 L 178 82 L 177 85 L 175 84 Q 172 85 174 87 Q 173 89 172 87 L 170 88 L 169 91 L 167 90 L 165 94 L 163 93 L 161 97 L 159 96 L 159 98 Q 158 100 157 98 L 155 99 L 155 101 Q 154 103 153 101 L 151 102 L 150 105 L 148 104 L 146 108 L 144 107 Q 141 108 143 110 L 142 109 L 140 110 L 140 112 Q 139 114 138 112 L 136 113 L 135 116 L 133 115 L 131 119 L 129 118 Q 126 119 128 121 L 127 120 L 125 121 L 125 123 Q 124 125 123 123 L 121 124 L 121 126 Q 120 128 119 126 L 118 128 Q 117 130 116 128 L 114 129 L 114 131 Q 113 133 112 131 L 110 132 L 110 134 L 109 136 L 108 134 L 107 143 L 109 142 L 110 144 L 112 143 L 111 142 L 113 142 L 115 141 L 116 138 L 118 139 Q 120 138 118 137 L 120 137 L 122 136 L 121 135 Q 122 132 124 134 L 126 133 L 127 130 L 129 131 L 131 127 L 133 128 Q 135 127 133 126 L 135 126 L 137 125 L 136 124 Q 137 121 139 123 L 141 122 L 140 121 Q 141 118 143 120 L 145 119 L 146 116 L 148 117 L 150 113 L 152 114 L 154 110 L 156 111 L 155 110 Q 156 107 158 109 L 160 108 L 161 105 L 163 106 L 165 102 L 167 103 L 169 99 L 171 100 L 170 99 Q 171 96 173 98 L 175 97 L 174 96 Q 175 93 177 95 L 179 94 L 180 91 L 182 92 L 184 88 L 186 89 Q 188 88 186 87 L 188 87 L 190 86 L 189 85 Q 190 82 192 84 L 194 83 L 195 80 L 197 81 L 199 77 L 201 78 Q 203 77 201 76 Q 202 73 204 75 Q 206 74 204 73 L 205 70 L 205 72 L 206 72 L 206 64 L 205 66 L 204 63 Z M 62 110 L 60 111 L 58 115 L 56 114 Q 53 115 55 117 L 54 116 L 52 117 L 51 120 L 49 119 L 48 122 L 46 121 Q 43 122 45 124 L 44 123 L 42 124 L 41 127 L 39 126 L 38 129 L 36 128 L 36 130 L 35 132 L 35 133 L 37 132 L 38 135 L 40 134 Q 42 135 40 137 L 42 137 L 44 137 L 45 140 L 47 139 L 48 142 L 50 141 Q 52 142 50 144 L 52 144 L 54 144 L 55 147 L 57 146 L 61 149 L 60 148 Q 61 145 63 147 L 65 146 L 64 145 L 66 145 L 68 144 L 69 141 L 71 142 Q 73 141 71 140 Q 72 137 74 139 L 76 136 L 78 137 Q 80 136 78 135 L 80 135 L 82 134 L 81 133 Q 82 130 84 132 L 86 128 L 86 125 L 84 126 L 83 123 L 81 124 L 80 121 L 78 122 L 77 119 L 75 120 L 74 117 L 72 118 L 72 117 L 71 116 L 69 116 L 68 113 L 66 114 L 65 111 L 63 112 L 63 111 L 62 110 Z M 90 138 L 88 140 L 86 139 Q 83 140 85 142 L 84 141 L 82 142 L 81 145 L 79 144 L 79 146 Q 78 148 77 146 L 75 147 L 74 150 L 72 149 L 71 152 L 69 151 Q 66 152 68 154 L 67 153 L 65 154 L 65 156 L 62 157 Q 60 162 65 161 L 67 161 L 69 160 L 70 157 L 72 158 L 73 155 L 75 156 L 76 153 L 78 154 Q 80 153 78 152 L 80 152 L 82 149 L 84 150 Q 86 149 84 148 L 86 148 L 88 147 L 87 146 Q 89 147 91 144 Q 92 137 90 138 Z M 33 140 L 32 141 Q 28 140 30 145 L 32 144 L 31 146 Q 32 148 34 146 L 33 148 L 35 148 L 37 148 L 38 151 L 40 150 Q 42 151 40 153 L 42 153 L 44 153 L 45 156 L 47 155 L 48 158 L 50 157 Q 52 158 50 160 L 52 160 L 54 160 Q 57 161 55 157 Q 54 154 53 156 L 51 152 L 49 153 Q 46 152 48 151 L 47 150 L 45 150 L 44 147 L 42 148 L 41 145 L 39 146 L 37 142 L 35 143 Q 32 142 34 141 L 33 140 Z " /><path fill="rgb(64,64,64)" stroke="rgb(64,64,64)" stroke-width="1" opacity="0.9764705882352941" d="M 56.5 127 L 58.5 127 Q 62.3 126.3 63 128.5 L 62 132.5 L 62.5 134 L 58.5 133 Q 57.3 135.3 56 132.5 L 57 128.5 L 56.5 127 Z " /><path fill="rgb(64,64,64)" stroke="rgb(64,64,64)" stroke-width="1" opacity="0.9764705882352941" d="M 64.5 128 L 65 131.5 L 64 131.5 L 64.5 128 Z " /><path fill="rgb(64,64,64)" stroke="rgb(64,64,64)" stroke-width="1" opacity="0.9764705882352941" d="M 57.5 173 L 62 173.5 L 57.5 174 L 57.5 173 Z " /><path fill="rgb(1,1,1)" stroke="rgb(1,1,1)" stroke-width="1" opacity="0.7490196078431373" d="M 173.5 22 L 178 22.5 L 173.5 23 L 173.5 22 Z " /><path fill="rgb(1,1,1)" stroke="rgb(1,1,1)" stroke-width="1" opacity="0.7490196078431373" d="M 184.5 26 L 185.5 28 L 184.5 26 Z " /><path fill="rgb(1,1,1)" stroke="rgb(1,1,1)" stroke-width="1" opacity="0.7490196078431373" d="M 188.5 29 L 189.5 31 L 188.5 29 Z " /><path fill="rgb(1,1,1)" stroke="rgb(1,1,1)" stroke-width="1" opacity="0.7490196078431373" d="M 172.5 31 L 171.5 33 L 172.5 31 Z " /><path fill="rgb(1,1,1)" stroke="rgb(1,1,1)" stroke-width="1" opacity="0.7490196078431373" d="M 177.5 31 L 178.5 33 L 177.5 31 Z " /><path fill="rgb(1,1,1)" stroke="rgb(1,1,1)" stroke-width="1" opacity="0.7490196078431373" d="M 191.5 31 L 192.5 33 L 191.5 31 Z " /><path fill="rgb(1,1,1)" stroke="rgb(1,1,1)" stroke-width="1" opacity="0.7490196078431373" d="M 152.5 34 L 151.5 36 L 152.5 34 Z " /><path fill="rgb(1,1,1)" stroke="rgb(1,1,1)" stroke-width="1" opacity="0.7490196078431373" d="M 181.5 34 L 182.5 36 L 181.5 34 Z " /><path fill="rgb(1,1,1)" stroke="rgb(1,1,1)" stroke-width="1" opacity="0.7490196078431373" d="M 164.5 36 L 163.5 38 L 164.5 36 Z " /><path fill="rgb(1,1,1)" stroke="rgb(1,1,1)" stroke-width="1" opacity="0.7490196078431373" d="M 184.5 36 L 185.5 38 L 184.5 36 Z " /><path fill="rgb(1,1,1)" stroke="rgb(1,1,1)" stroke-width="1" opacity="0.7490196078431373" d="M 147.5 37 L 146.5 39 L 147.5 37 Z " /><path fill="rgb(1,1,1)" stroke="rgb(1,1,1)" stroke-width="1" opacity="0.7490196078431373" d="M 161.5 38 L 160.5 40 L 161.5 38 Z " /><path fill="rgb(1,1,1)" stroke="rgb(1,1,1)" stroke-width="1" opacity="0.7490196078431373" d="M 187.5 38 L 188.5 40 L 187.5 38 Z " /><path fill="rgb(1,1,1)" stroke="rgb(1,1,1)" stroke-width="1" opacity="0.7490196078431373" d="M 201.5 38 L 202.5 40 L 201.5 38 Z " /><path fill="rgb(1,1,1)" stroke="rgb(1,1,1)" stroke-width="1" opacity="0.7490196078431373" d="M 144.5 39 L 143.5 41 L 144.5 39 Z " /><path fill="rgb(1,1,1)" stroke="rgb(1,1,1)" stroke-width="1" opacity="0.7490196078431373" d="M 204.5 40 L 205.5 42 L 204.5 40 Z " /><path fill="rgb(1,1,1)" stroke="rgb(1,1,1)" stroke-width="1" opacity="0.7490196078431373" d="M 156.5 41 L 155.5 43 L 156.5 41 Z " /><path fill="rgb(1,1,1)" stroke="rgb(1,1,1)" stroke-width="1" opacity="0.7490196078431373" d="M 208.5 43 L 211.5 47 L 208.5 43 Z " /><path fill="rgb(1,1,1)" stroke="rgb(1,1,1)" stroke-width="1" opacity="0.7490196078431373" d="M 148.5 46 L 147.5 48 L 148.5 46 Z " /><path fill="rgb(1,1,1)" stroke="rgb(1,1,1)" stroke-width="1" opacity="0.7490196078431373" d="M 140.5 51 L 139.5 53 L 140.5 51 Z " /><path fill="rgb(1,1,1)" stroke="rgb(1,1,1)" stroke-width="1" opacity="0.7490196078431373" d="M 123.5 52 L 122.5 54 L 120.5 55 L 121.5 53 L 123.5 52 Z " /><path fill="rgb(1,1,1)" stroke="rgb(1,1,1)" stroke-width="1" opacity="0.7490196078431373" d="M 135.5 54 L 134.5 56 L 135.5 54 Z " /><path fill="rgb(1,1,1)" stroke="rgb(1,1,1)" stroke-width="1" opacity="0.7490196078431373" d="M 202.5 54 L 201.5 56 L 202.5 54 Z " /><path fill="rgb(1,1,1)" stroke="rgb(1,1,1)" stroke-width="1" opacity="0.7490196078431373" d="M 118.5 55 L 117.5 57 L 118.5 55 Z " /><path fill="rgb(1,1,1)" stroke="rgb(1,1,1)" stroke-width="1" opacity="0.7490196078431373" d="M 130.5 57 L 129.5 59 L 130.5 57 Z " /><path fill="rgb(1,1,1)" stroke="rgb(1,1,1)" stroke-width="1" opacity="0.7490196078431373" d="M 198.5 57 L 197.5 59 L 198.5 57 Z " /><path fill="rgb(1,1,1)" stroke="rgb(1,1,1)" stroke-width="1" opacity="0.7490196078431373" d="M 113.5 58 L 112.5 60 L 113.5 58 Z " /><path fill="rgb(1,1,1)" stroke="rgb(1,1,1)" stroke-width="1" opacity="0.7490196078431373" d="M 194.5 60 L 193.5 62 L 194.5 60 Z " /><path fill="rgb(1,1,1)" stroke="rgb(1,1,1)" stroke-width="1" opacity="0.7490196078431373" d="M 122.5 62 L 121.5 64 L 122.5 62 Z " /><path fill="rgb(1,1,1)" stroke="rgb(1,1,1)" stroke-width="1" opacity="0.7490196078431373" d="M 190.5 63 L 189.5 65 L 190.5 63 Z " /><path fill="rgb(1,1,1)" stroke="rgb(1,1,1)" stroke-width="1" opacity="0.7490196078431373" d="M 199.5 66 L 198.5 68 L 199.5 66 Z " /><path fill="rgb(1,1,1)" stroke="rgb(1,1,1)" stroke-width="1" opacity="0.7490196078431373" d="M 97.5 68 L 96.5 70 L 97.5 68 Z " /><path fill="rgb(1,1,1)" stroke="rgb(1,1,1)" stroke-width="1" opacity="0.7490196078431373" d="M 183.5 68 L 182.5 70 L 183.5 68 Z " /><path fill="rgb(1,1,1)" stroke="rgb(1,1,1)" stroke-width="1" opacity="0.7490196078431373" d="M 195.5 69 L 194.5 71 L 195.5 69 Z " /><path fill="rgb(1,1,1)" stroke="rgb(1,1,1)" stroke-width="1" opacity="0.7490196078431373" d="M 109.5 70 L 108.5 72 L 109.5 70 Z " /><path fill="rgb(1,1,1)" stroke="rgb(1,1,1)" stroke-width="1" opacity="0.7490196078431373" d="M 179.5 71 L 178.5 73 L 179.5 71 Z " /><path fill="rgb(1,1,1)" stroke="rgb(1,1,1)" stroke-width="1" opacity="0.7490196078431373" d="M 191.5 72 L 190.5 74 L 191.5 72 Z " /><path fill="rgb(1,1,1)" stroke="rgb(1,1,1)" stroke-width="1" opacity="0.7490196078431373" d="M 89.5 73 L 88.5 75 L 89.5 73 Z " /><path fill="rgb(1,1,1)" stroke="rgb(1,1,1)" stroke-width="1" opacity="0.7490196078431373" d="M 175.5 74 L 174.5 76 L 175.5 74 Z " /><path fill="rgb(1,1,1)" stroke="rgb(1,1,1)" stroke-width="1" opacity="0.7490196078431373" d="M 188.5 74 L 186.5 77 L 188.5 74 Z " /><path fill="rgb(1,1,1)" stroke="rgb(1,1,1)" stroke-width="1" opacity="0.7490196078431373" d="M 203.5 74 L 202.5 76 L 203.5 74 Z " /><path fill="rgb(1,1,1)" stroke="rgb(1,1,1)" stroke-width="1" opacity="0.7490196078431373" d="M 101.5 75 L 100.5 77 L 101.5 75 Z " /><path fill="rgb(1,1,1)" stroke="rgb(1,1,1)" stroke-width="1" opacity="0.7490196078431373" d="M 98.5 77 L 97.5 79 L 98.5 77 Z " /><path fill="rgb(1,1,1)" stroke="rgb(1,1,1)" stroke-width="1" opacity="0.7490196078431373" d="M 171.5 77 L 170.5 79 L 171.5 77 Z " /><path fill="rgb(1,1,1)" stroke="rgb(1,1,1)" stroke-width="1" opacity="0.7490196078431373" d="M 184.5 77 L 183.5 79 L 184.5 77 Z " /><path fill="rgb(1,1,1)" stroke="rgb(1,1,1)" stroke-width="1" opacity="0.7490196078431373" d="M 81.5 78 L 80.5 80 L 81.5 78 Z " /><path fill="rgb(1,1,1)" stroke="rgb(1,1,1)" stroke-width="1" opacity="0.7490196078431373" d="M 93.5 80 L 92.5 82 L 93.5 80 Z " /><path fill="rgb(1,1,1)" stroke="rgb(1,1,1)" stroke-width="1" opacity="0.7490196078431373" d="M 167.5 80 L 166.5 82 L 167.5 80 Z " /><path fill="rgb(1,1,1)" stroke="rgb(1,1,1)" stroke-width="1" opacity="0.7490196078431373" d="M 195.5 80 L 194.5 82 L 195.5 80 Z " /><path fill="rgb(1,1,1)" stroke="rgb(1,1,1)" stroke-width="1" opacity="0.7490196078431373" d="M 90.5 82 L 89.5 84 L 90.5 82 Z " /><path fill="rgb(1,1,1)" stroke="rgb(1,1,1)" stroke-width="1" opacity="0.7490196078431373" d="M 206.5 82 L 205.5 84 L 206.5 82 Z " /><path fill="rgb(1,1,1)" stroke="rgb(1,1,1)" stroke-width="1" opacity="0.7490196078431373" d="M 163.5 83 L 162.5 85 L 163.5 83 Z " /><path fill="rgb(1,1,1)" stroke="rgb(1,1,1)" stroke-width="1" opacity="0.7490196078431373" d="M 176.5 83 L 175.5 85 L 176.5 83 Z " /><path fill="rgb(1,1,1)" stroke="rgb(1,1,1)" stroke-width="1" opacity="0.7490196078431373" d="M 191.5 83 L 190.5 85 L 191.5 83 Z " /><path fill="rgb(1,1,1)" stroke="rgb(1,1,1)" stroke-width="1" opacity="0.7490196078431373" d="M 70.5 85 L 69.5 87 L 70.5 85 Z " /><path fill="rgb(1,1,1)" stroke="rgb(1,1,1)" stroke-width="1" opacity="0.7490196078431373" d="M 160.5 85 L 159.5 87 L 160.5 85 Z " /><path fill="rgb(1,1,1)" stroke="rgb(1,1,1)" stroke-width="1" opacity="0.7490196078431373" d="M 172.5 86 L 170.5 89 L 172.5 86 Z " /><path fill="rgb(1,1,1)" stroke="rgb(1,1,1)" stroke-width="1" opacity="0.7490196078431373" d="M 79.5 89 L 78.5 91 L 79.5 89 Z " /><path fill="rgb(1,1,1)" stroke="rgb(1,1,1)" stroke-width="1" opacity="0.7490196078431373" d="M 168.5 89 L 167.5 91 L 168.5 89 Z " /><path fill="rgb(1,1,1)" stroke="rgb(1,1,1)" stroke-width="1" opacity="0.7490196078431373" d="M 196.5 89 L 194.5 92 L 196.5 89 Z " /><path fill="rgb(1,1,1)" stroke="rgb(1,1,1)" stroke-width="1" opacity="0.7490196078431373" d="M 152.5 91 L 151.5 93 L 152.5 91 Z " /><path fill="rgb(1,1,1)" stroke="rgb(1,1,1)" stroke-width="1" opacity="0.7490196078431373" d="M 180.5 91 L 179.5 93 L 180.5 91 Z " /><path fill="rgb(1,1,1)" stroke="rgb(1,1,1)" stroke-width="1" opacity="0.7490196078431373" d="M 164.5 92 L 163.5 94 L 164.5 92 Z " /><path fill="rgb(1,1,1)" stroke="rgb(1,1,1)" stroke-width="1" opacity="0.7490196078431373" d="M 148.5 94 L 147.5 96 L 148.5 94 Z " /><path fill="rgb(1,1,1)" stroke="rgb(1,1,1)" stroke-width="1" opacity="0.7490196078431373" d="M 176.5 94 L 175.5 96 L 176.5 94 Z " /><path fill="rgb(1,1,1)" stroke="rgb(1,1,1)" stroke-width="1" opacity="0.7490196078431373" d="M 160.5 95 L 159.5 97 L 160.5 95 Z " /><path fill="rgb(1,1,1)" stroke="rgb(1,1,1)" stroke-width="1" opacity="0.7490196078431373" d="M 188.5 95 L 187.5 97 L 188.5 95 Z " /><path fill="rgb(1,1,1)" stroke="rgb(1,1,1)" stroke-width="1" opacity="0.7490196078431373" d="M 144.5 97 L 143.5 99 L 144.5 97 Z " /><path fill="rgb(1,1,1)" stroke="rgb(1,1,1)" stroke-width="1" opacity="0.7490196078431373" d="M 172.5 97 L 171.5 99 L 172.5 97 Z " /><path fill="rgb(1,1,1)" stroke="rgb(1,1,1)" stroke-width="1" opacity="0.7490196078431373" d="M 140.5 100 L 139.5 102 L 140.5 100 Z " /><path fill="rgb(1,1,1)" stroke="rgb(1,1,1)" stroke-width="1" opacity="0.7490196078431373" d="M 152.5 101 L 151.5 103 L 152.5 101 Z " /><path fill="rgb(1,1,1)" stroke="rgb(1,1,1)" stroke-width="1" opacity="0.7490196078431373" d="M 180.5 101 L 179.5 103 L 180.5 101 Z " /><path fill="rgb(1,1,1)" stroke="rgb(1,1,1)" stroke-width="1" opacity="0.7490196078431373" d="M 137.5 102 L 136.5 104 L 137.5 102 Z " /><path fill="rgb(1,1,1)" stroke="rgb(1,1,1)" stroke-width="1" opacity="0.7490196078431373" d="M 165.5 102 L 164.5 104 L 165.5 102 Z " /><path fill="rgb(1,1,1)" stroke="rgb(1,1,1)" stroke-width="1" opacity="0.7490196078431373" d="M 149.5 103 L 148.5 105 L 149.5 103 Z " /><path fill="rgb(1,1,1)" stroke="rgb(1,1,1)" stroke-width="1" opacity="0.7490196078431373" d="M 177.5 103 L 176.5 105 L 177.5 103 Z " /><path fill="rgb(1,1,1)" stroke="rgb(1,1,1)" stroke-width="1" opacity="0.7490196078431373" d="M 161.5 105 L 160.5 107 L 161.5 105 Z " /><path fill="rgb(1,1,1)" stroke="rgb(1,1,1)" stroke-width="1" opacity="0.7490196078431373" d="M 145.5 106 L 144.5 108 L 145.5 106 Z " /><path fill="rgb(1,1,1)" stroke="rgb(1,1,1)" stroke-width="1" opacity="0.7490196078431373" d="M 157.5 108 L 156.5 110 L 157.5 108 Z " /><path fill="rgb(1,1,1)" stroke="rgb(1,1,1)" stroke-width="1" opacity="0.7490196078431373" d="M 75.5 109 L 76.5 111 L 75.5 109 Z " /><path fill="rgb(1,1,1)" stroke="rgb(1,1,1)" stroke-width="1" opacity="0.7490196078431373" d="M 169.5 109 L 168.5 111 L 169.5 109 Z " /><path fill="rgb(1,1,1)" stroke="rgb(1,1,1)" stroke-width="1" opacity="0.7490196078431373" d="M 47.5 110 L 46.5 112 L 47.5 110 Z " /><path fill="rgb(1,1,1)" stroke="rgb(1,1,1)" stroke-width="1" opacity="0.7490196078431373" d="M 126.5 110 L 125.5 112 L 126.5 110 Z " /><path fill="rgb(1,1,1)" stroke="rgb(1,1,1)" stroke-width="1" opacity="0.7490196078431373" d="M 78.5 111 L 79.5 113 L 78.5 111 Z " /><path fill="rgb(1,1,1)" stroke="rgb(1,1,1)" stroke-width="1" opacity="0.7490196078431373" d="M 138.5 111 L 137.5 113 L 138.5 111 Z " /><path fill="rgb(1,1,1)" stroke="rgb(1,1,1)" stroke-width="1" opacity="0.7490196078431373" d="M 44.5 112 L 43.5 114 L 44.5 112 Z " /><path fill="rgb(1,1,1)" stroke="rgb(1,1,1)" stroke-width="1" opacity="0.7490196078431373" d="M 57.5 113 L 56.5 115 L 57.5 113 Z " /><path fill="rgb(1,1,1)" stroke="rgb(1,1,1)" stroke-width="1" opacity="0.7490196078431373" d="M 122.5 113 L 121.5 115 L 122.5 113 Z " /><path fill="rgb(1,1,1)" stroke="rgb(1,1,1)" stroke-width="1" opacity="0.7490196078431373" d="M 150.5 113 L 149.5 115 L 150.5 113 Z " /><path fill="rgb(1,1,1)" stroke="rgb(1,1,1)" stroke-width="1" opacity="0.7490196078431373" d="M 134.5 114 L 133.5 116 L 134.5 114 Z " /><path fill="rgb(1,1,1)" stroke="rgb(1,1,1)" stroke-width="1" opacity="0.7490196078431373" d="M 162.5 114 L 161.5 116 L 162.5 114 Z " /><path fill="rgb(1,1,1)" stroke="rgb(1,1,1)" stroke-width="1" opacity="0.7490196078431373" d="M 54.5 115 L 53.5 117 L 54.5 115 Z " /><path fill="rgb(1,1,1)" stroke="rgb(1,1,1)" stroke-width="1" opacity="0.7490196078431373" d="M 118.5 116 L 117.5 118 L 118.5 116 Z " /><path fill="rgb(1,1,1)" stroke="rgb(1,1,1)" stroke-width="1" opacity="0.7490196078431373" d="M 37.5 117 L 36.5 119 L 37.5 117 Z " /><path fill="rgb(1,1,1)" stroke="rgb(1,1,1)" stroke-width="1" opacity="0.7490196078431373" d="M 50.5 118 L 49.5 120 L 50.5 118 Z " /><path fill="rgb(1,1,1)" stroke="rgb(1,1,1)" stroke-width="1" opacity="0.7490196078431373" d="M 74.5 118 L 75.5 120 L 74.5 118 Z " /><path fill="rgb(1,1,1)" stroke="rgb(1,1,1)" stroke-width="1" opacity="0.7490196078431373" d="M 89.5 118 L 90.5 120 L 89.5 118 Z " /><path fill="rgb(1,1,1)" stroke="rgb(1,1,1)" stroke-width="1" opacity="0.7490196078431373" d="M 126.5 120 L 125.5 122 L 126.5 120 Z " /><path fill="rgb(1,1,1)" stroke="rgb(1,1,1)" stroke-width="1" opacity="0.7490196078431373" d="M 111.5 121 L 110.5 123 L 111.5 121 Z " /><path fill="rgb(1,1,1)" stroke="rgb(1,1,1)" stroke-width="1" opacity="0.7490196078431373" d="M 139.5 121 L 138.5 123 L 139.5 121 Z " /><path fill="rgb(1,1,1)" stroke="rgb(1,1,1)" stroke-width="1" opacity="0.7490196078431373" d="M 80.5 122 L 81.5 124 L 80.5 122 Z " /><path fill="rgb(1,1,1)" stroke="rgb(1,1,1)" stroke-width="1" opacity="0.7490196078431373" d="M 123.5 122 L 122.5 124 L 123.5 122 Z " /><path fill="rgb(1,1,1)" stroke="rgb(1,1,1)" stroke-width="1" opacity="0.7490196078431373" d="M 151.5 122 L 149.5 125 L 151.5 122 Z " /><path fill="rgb(1,1,1)" stroke="rgb(1,1,1)" stroke-width="1" opacity="0.7490196078431373" d="M 135.5 124 L 134.5 126 L 135.5 124 Z " /><path fill="rgb(1,1,1)" stroke="rgb(1,1,1)" stroke-width="1" opacity="0.7490196078431373" d="M 99.5 125 L 100.5 127 L 99.5 125 Z " /><path fill="rgb(1,1,1)" stroke="rgb(1,1,1)" stroke-width="1" opacity="0.7490196078431373" d="M 119.5 125 L 118.5 127 L 119.5 125 Z " /><path fill="rgb(1,1,1)" stroke="rgb(1,1,1)" stroke-width="1" opacity="0.7490196078431373" d="M 147.5 125 L 146.5 127 L 147.5 125 Z " /><path fill="rgb(1,1,1)" stroke="rgb(1,1,1)" stroke-width="1" opacity="0.7490196078431373" d="M 57.5 127 L 57 128.5 L 56.5 132 L 56 128.5 L 57.5 127 Z " /><path fill="rgb(1,1,1)" stroke="rgb(1,1,1)" stroke-width="1" opacity="0.7490196078431373" d="M 131.5 127 L 130.5 129 L 131.5 127 Z " /><path fill="rgb(1,1,1)" stroke="rgb(1,1,1)" stroke-width="1" opacity="0.7490196078431373" d="M 143.5 128 L 142.5 130 L 143.5 128 Z " /><path fill="rgb(1,1,1)" stroke="rgb(1,1,1)" stroke-width="1" opacity="0.7490196078431373" d="M 112.5 130 L 111.5 132 L 112.5 130 Z " /><path fill="rgb(1,1,1)" stroke="rgb(1,1,1)" stroke-width="1" opacity="0.7490196078431373" d="M 127.5 130 L 126.5 132 L 127.5 130 Z " /><path fill="rgb(1,1,1)" stroke="rgb(1,1,1)" stroke-width="1" opacity="0.7490196078431373" d="M 22.5 131 L 23 134.5 L 22 134.5 L 22.5 131 Z " /><path fill="rgb(1,1,1)" stroke="rgb(1,1,1)" stroke-width="1" opacity="0.7490196078431373" d="M 83.5 131 L 82.5 133 L 83.5 131 Z " /><path fill="rgb(1,1,1)" stroke="rgb(1,1,1)" stroke-width="1" opacity="0.7490196078431373" d="M 139.5 131 L 138.5 133 L 139.5 131 Z " /><path fill="rgb(1,1,1)" stroke="rgb(1,1,1)" stroke-width="1" opacity="0.7490196078431373" d="M 35.5 132 L 36.5 134 L 35.5 132 Z " /><path fill="rgb(1,1,1)" stroke="rgb(1,1,1)" stroke-width="1" opacity="0.7490196078431373" d="M 58.5 133 L 61 133.5 L 58.5 134 L 58.5 133 Z " /><path fill="rgb(1,1,1)" stroke="rgb(1,1,1)" stroke-width="1" opacity="0.7490196078431373" d="M 123.5 133 L 122.5 135 L 123.5 133 Z " /><path fill="rgb(1,1,1)" stroke="rgb(1,1,1)" stroke-width="1" opacity="0.7490196078431373" d="M 38.5 134 L 39.5 136 L 38.5 134 Z " /><path fill="rgb(1,1,1)" stroke="rgb(1,1,1)" stroke-width="1" opacity="0.7490196078431373" d="M 135.5 134 L 134.5 136 L 135.5 134 Z " /><path fill="rgb(1,1,1)" stroke="rgb(1,1,1)" stroke-width="1" opacity="0.7490196078431373" d="M 120.5 135 L 119.5 137 L 120.5 135 Z " /><path fill="rgb(1,1,1)" stroke="rgb(1,1,1)" stroke-width="1" opacity="0.7490196078431373" d="M 132.5 136 L 130.5 139 L 132.5 136 Z " /><path fill="rgb(1,1,1)" stroke="rgb(1,1,1)" stroke-width="1" opacity="0.7490196078431373" d="M 116.5 138 L 115.5 140 L 116.5 138 Z " /><path fill="rgb(1,1,1)" stroke="rgb(1,1,1)" stroke-width="1" opacity="0.7490196078431373" d="M 48.5 141 L 49.5 143 L 48.5 141 Z " /><path fill="rgb(1,1,1)" stroke="rgb(1,1,1)" stroke-width="1" opacity="0.7490196078431373" d="M 69.5 141 L 68.5 143 L 69.5 141 Z " /><path fill="rgb(1,1,1)" stroke="rgb(1,1,1)" stroke-width="1" opacity="0.7490196078431373" d="M 80.5 143 L 79.5 145 L 80.5 143 Z " /><path fill="rgb(1,1,1)" stroke="rgb(1,1,1)" stroke-width="1" opacity="0.7490196078431373" d="M 77.5 145 L 76.5 147 L 77.5 145 Z " /><path fill="rgb(1,1,1)" stroke="rgb(1,1,1)" stroke-width="1" opacity="0.7490196078431373" d="M 41.5 146 L 42.5 148 L 41.5 146 Z " /><path fill="rgb(1,1,1)" stroke="rgb(1,1,1)" stroke-width="1" opacity="0.7490196078431373" d="M 55.5 146 L 56.5 148 L 55.5 146 Z " /><path fill="rgb(1,1,1)" stroke="rgb(1,1,1)" stroke-width="1" opacity="0.7490196078431373" d="M 117.5 147 L 116.5 149 L 117.5 147 Z " /><path fill="rgb(1,1,1)" stroke="rgb(1,1,1)" stroke-width="1" opacity="0.7490196078431373" d="M 45.5 149 L 46.5 151 L 45.5 149 Z " /><path fill="rgb(1,1,1)" stroke="rgb(1,1,1)" stroke-width="1" opacity="0.7490196078431373" d="M 82.5 149 L 81.5 151 L 82.5 149 Z " /><path fill="rgb(1,1,1)" stroke="rgb(1,1,1)" stroke-width="1" opacity="0.7490196078431373" d="M 70.5 150 L 69.5 152 L 70.5 150 Z " /><path fill="rgb(1,1,1)" stroke="rgb(1,1,1)" stroke-width="1" opacity="0.7490196078431373" d="M 25.5 151 L 26.5 153 L 25.5 151 Z " /><path fill="rgb(1,1,1)" stroke="rgb(1,1,1)" stroke-width="1" opacity="0.7490196078431373" d="M 92.5 152 L 91.5 154 L 92.5 152 Z " /><path fill="rgb(1,1,1)" stroke="rgb(1,1,1)" stroke-width="1" opacity="0.7490196078431373" d="M 76.5 153 L 75.5 155 L 76.5 153 Z " /><path fill="rgb(1,1,1)" stroke="rgb(1,1,1)" stroke-width="1" opacity="0.7490196078431373" d="M 103.5 153 L 109 153.5 L 103.5 154 L 103.5 153 Z " /><path fill="rgb(1,1,1)" stroke="rgb(1,1,1)" stroke-width="1" opacity="0.7490196078431373" d="M 52.5 154 L 53.5 156 L 52.5 154 Z " /><path fill="rgb(1,1,1)" stroke="rgb(1,1,1)" stroke-width="1" opacity="0.7490196078431373" d="M 89.5 154 L 88.5 156 L 89.5 154 Z " /><path fill="rgb(1,1,1)" stroke="rgb(1,1,1)" stroke-width="1" opacity="0.7490196078431373" d="M 45.5 155 L 46.5 157 L 45.5 155 Z " /><path fill="rgb(1,1,1)" stroke="rgb(1,1,1)" stroke-width="1" opacity="0.7490196078431373" d="M 73.5 155 L 72.5 157 L 73.5 155 Z " /><path fill="rgb(1,1,1)" stroke="rgb(1,1,1)" stroke-width="1" opacity="0.7490196078431373" d="M 86.5 156 L 85.5 158 L 86.5 156 Z " /><path fill="rgb(1,1,1)" stroke="rgb(1,1,1)" stroke-width="1" opacity="0.7490196078431373" d="M 35.5 158 L 36.5 160 L 35.5 158 Z " /><path fill="rgb(1,1,1)" stroke="rgb(1,1,1)" stroke-width="1" opacity="0.7490196078431373" d="M 80.5 160 L 79.5 162 L 80.5 160 Z " /><path fill="rgb(1,1,1)" stroke="rgb(1,1,1)" stroke-width="1" opacity="0.7490196078431373" d="M 41.5 162 L 42.5 164 L 41.5 162 Z " /><path fill="rgb(1,1,1)" stroke="rgb(1,1,1)" stroke-width="1" opacity="0.7490196078431373" d="M 74.5 164 L 73.5 166 L 74.5 164 Z " /><path fill="rgb(1,1,1)" stroke="rgb(1,1,1)" stroke-width="1" opacity="0.7490196078431373" d="M 48.5 167 L 49.5 169 L 48.5 167 Z " /><path fill="rgb(1,1,1)" stroke="rgb(1,1,1)" stroke-width="1" opacity="0.7490196078431373" d="M 51.5 169 L 52.5 171 L 51.5 169 Z " /><path fill="rgb(15,15,15)" stroke="rgb(15,15,15)" stroke-width="1" opacity="0.8862745098039215" d="M 172.5 22 L 171.5 24 L 172.5 22 Z " /><path fill="rgb(15,15,15)" stroke="rgb(15,15,15)" stroke-width="1" opacity="0.8862745098039215" d="M 182.5 25 L 183.5 27 L 182.5 25 Z " /><path fill="rgb(15,15,15)" stroke="rgb(15,15,15)" stroke-width="1" opacity="0.8862745098039215" d="M 186.5 28 Q 188.8 27.3 188 29.5 L 186.5 28 Z " /><path fill="rgb(15,15,15)" stroke="rgb(15,15,15)" stroke-width="1" opacity="0.8862745098039215" d="M 158.5 30 L 159 32 L 155.5 34 L 155 32 L 158.5 30 Z " /><path fill="rgb(15,15,15)" stroke="rgb(15,15,15)" stroke-width="1" opacity="0.8862745098039215" d="M 174.5 30 L 177 31.5 L 175.5 31 L 173.5 32 L 174.5 30 Z " /><path fill="rgb(15,15,15)" stroke="rgb(15,15,15)" stroke-width="1" opacity="0.8862745098039215" d="M 170.5 32 L 171 34 L 167.5 35 L 167.5 34 L 170.5 32 Z " /><path fill="rgb(15,15,15)" stroke="rgb(15,15,15)" stroke-width="1" opacity="0.8862745098039215" d="M 179.5 32 L 180.5 34 Q 177.7 34.7 179.5 32 Z " /><path fill="rgb(15,15,15)" stroke="rgb(15,15,15)" stroke-width="1" opacity="0.8862745098039215" d="M 199.5 37 Q 201.8 36.3 201 38.5 L 199.5 37 Z " /><path fill="rgb(15,15,15)" stroke="rgb(15,15,15)" stroke-width="1" opacity="0.8862745098039215" d="M 189.5 39 L 190.5 41 Q 187.7 41.7 189.5 39 Z " /><path fill="rgb(15,15,15)" stroke="rgb(15,15,15)" stroke-width="1" opacity="0.8862745098039215" d="M 206.5 42 L 207.5 44 L 206.5 42 Z " /><path fill="rgb(15,15,15)" stroke="rgb(15,15,15)" stroke-width="1" opacity="0.8862745098039215" d="M 195.5 44 L 198 45.5 L 196.5 45 L 195.5 44 Z " /><path fill="rgb(15,15,15)" stroke="rgb(15,15,15)" stroke-width="1" opacity="0.8862745098039215" d="M 134.5 45 L 136 45.5 L 131.5 48 L 131.5 47 L 134.5 45 Z " /><path fill="rgb(15,15,15)" stroke="rgb(15,15,15)" stroke-width="1" opacity="0.8862745098039215" d="M 199.5 46 L 200.5 48 Q 197.7 48.7 199.5 46 Z " /><path fill="rgb(15,15,15)" stroke="rgb(15,15,15)" stroke-width="1" opacity="0.8862745098039215" d="M 202.5 49 L 205 50.5 L 203.5 50 L 202.5 49 Z " /><path fill="rgb(15,15,15)" stroke="rgb(15,15,15)" stroke-width="1" opacity="0.8862745098039215" d="M 204.5 52 L 205 53.5 L 203 54.5 L 204.5 52 Z " /><path fill="rgb(15,15,15)" stroke="rgb(15,15,15)" stroke-width="1" opacity="0.8862745098039215" d="M 128.5 58 L 126.5 61 L 125 60.5 L 128.5 58 Z " /><path fill="rgb(15,15,15)" stroke="rgb(15,15,15)" stroke-width="1" opacity="0.8862745098039215" d="M 201.5 64 L 202 66 L 200 65.5 L 201.5 64 Z " /><path fill="rgb(15,15,15)" stroke="rgb(15,15,15)" stroke-width="1" opacity="0.8862745098039215" d="M 205.5 64 L 206 71.5 L 205 71.5 L 205.5 64 Z " /><path fill="rgb(15,15,15)" stroke="rgb(15,15,15)" stroke-width="1" opacity="0.8862745098039215" d="M 185.5 67 L 184.5 69 L 185.5 67 Z " /><path fill="rgb(15,15,15)" stroke="rgb(15,15,15)" stroke-width="1" opacity="0.8862745098039215" d="M 213.5 67 L 214 72.5 L 212.5 75 L 212 73.5 L 213.5 67 Z " /><path fill="rgb(15,15,15)" stroke="rgb(15,15,15)" stroke-width="1" opacity="0.8862745098039215" d="M 180 70 L 182 70.5 L 180 71.5 L 180 70 Z " /><path fill="rgb(15,15,15)" stroke="rgb(15,15,15)" stroke-width="1" opacity="0.8862745098039215" d="M 176 73 L 178 73.5 L 176 74.5 L 176 73 Z " /><path fill="rgb(15,15,15)" stroke="rgb(15,15,15)" stroke-width="1" opacity="0.8862745098039215" d="M 200.5 76 L 202 76.5 L 199.5 78 L 200.5 76 Z " /><path fill="rgb(15,15,15)" stroke="rgb(15,15,15)" stroke-width="1" opacity="0.8862745098039215" d="M 211.5 77 L 212 78.5 L 210 79.5 L 211.5 77 Z " /><path fill="rgb(15,15,15)" stroke="rgb(15,15,15)" stroke-width="1" opacity="0.8862745098039215" d="M 181.5 79 L 183 79.5 L 180.5 81 L 181.5 79 Z " /><path fill="rgb(15,15,15)" stroke="rgb(15,15,15)" stroke-width="1" opacity="0.8862745098039215" d="M 196 79 L 198 79.5 L 196 80.5 L 196 79 Z " /><path fill="rgb(15,15,15)" stroke="rgb(15,15,15)" stroke-width="1" opacity="0.8862745098039215" d="M 78.5 80 L 80 80.5 L 76.5 83 L 76 81 L 78.5 80 Z " /><path fill="rgb(15,15,15)" stroke="rgb(15,15,15)" stroke-width="1" opacity="0.8862745098039215" d="M 208.5 80 L 209 82 L 207 81.5 L 208.5 80 Z " /><path fill="rgb(15,15,15)" stroke="rgb(15,15,15)" stroke-width="1" opacity="0.8862745098039215" d="M 204.5 83 L 205 85 L 203 84.5 L 204.5 83 Z " /><path fill="rgb(15,15,15)" stroke="rgb(15,15,15)" stroke-width="1" opacity="0.8862745098039215" d="M 174.5 84 L 175 86 L 173 85.5 L 174.5 84 Z " /><path fill="rgb(15,15,15)" stroke="rgb(15,15,15)" stroke-width="1" opacity="0.8862745098039215" d="M 68.5 86 L 69 88 L 65.5 89 L 65.5 88 L 68.5 86 Z " /><path fill="rgb(15,15,15)" stroke="rgb(15,15,15)" stroke-width="1" opacity="0.8862745098039215" d="M 157.5 87 L 159 87.5 L 156.5 89 L 157.5 87 Z " /><path fill="rgb(15,15,15)" stroke="rgb(15,15,15)" stroke-width="1" opacity="0.8862745098039215" d="M 185 87 L 187 87.5 L 185 88.5 L 185 87 Z " /><path fill="rgb(15,15,15)" stroke="rgb(15,15,15)" stroke-width="1" opacity="0.8862745098039215" d="M 198.5 88 L 197.5 90 L 198.5 88 Z " /><path fill="rgb(15,15,15)" stroke="rgb(15,15,15)" stroke-width="1" opacity="0.8862745098039215" d="M 183.5 89 L 181.5 92 L 181 90 L 183.5 89 Z " /><path fill="rgb(15,15,15)" stroke="rgb(15,15,15)" stroke-width="1" opacity="0.8862745098039215" d="M 166.5 90 L 167 92 L 165 91.5 L 166.5 90 Z " /><path fill="rgb(15,15,15)" stroke="rgb(15,15,15)" stroke-width="1" opacity="0.8862745098039215" d="M 193.5 91 L 192.5 93 L 193.5 91 Z " /><path fill="rgb(15,15,15)" stroke="rgb(15,15,15)" stroke-width="1" opacity="0.8862745098039215" d="M 57.5 93 L 59 93.5 L 55.5 96 L 57.5 93 Z " /><path fill="rgb(15,15,15)" stroke="rgb(15,15,15)" stroke-width="1" opacity="0.8862745098039215" d="M 162.5 93 L 163 95 L 161 94.5 L 162.5 93 Z " /><path fill="rgb(15,15,15)" stroke="rgb(15,15,15)" stroke-width="1" opacity="0.8862745098039215" d="M 158.5 96 L 157.5 98 L 158.5 96 Z " /><path fill="rgb(15,15,15)" stroke="rgb(15,15,15)" stroke-width="1" opacity="0.8862745098039215" d="M 186.5 96 L 187 98 L 184.5 99 L 186.5 96 Z " /><path fill="rgb(15,15,15)" stroke="rgb(15,15,15)" stroke-width="1" opacity="0.8862745098039215" d="M 64.5 98 L 63.5 100 L 64.5 98 Z " /><path fill="rgb(15,15,15)" stroke="rgb(15,15,15)" stroke-width="1" opacity="0.8862745098039215" d="M 154.5 99 L 156 99.5 L 153.5 101 L 154.5 99 Z " /><path fill="rgb(15,15,15)" stroke="rgb(15,15,15)" stroke-width="1" opacity="0.8862745098039215" d="M 182.5 99 L 181.5 101 L 182.5 99 Z " /><path fill="rgb(15,15,15)" stroke="rgb(15,15,15)" stroke-width="1" opacity="0.8862745098039215" d="M 54.5 100 L 55 105.5 L 54 105.5 L 54.5 100 Z " /><path fill="rgb(15,15,15)" stroke="rgb(15,15,15)" stroke-width="1" opacity="0.8862745098039215" d="M 166 101 L 168 101.5 L 166 102.5 L 166 101 Z " /><path fill="rgb(15,15,15)" stroke="rgb(15,15,15)" stroke-width="1" opacity="0.8862745098039215" d="M 135.5 104 L 134.5 106 L 135.5 104 Z " /><path fill="rgb(15,15,15)" stroke="rgb(15,15,15)" stroke-width="1" opacity="0.8862745098039215" d="M 147.5 104 L 148 106 L 146 105.5 L 147.5 104 Z " /><path fill="rgb(15,15,15)" stroke="rgb(15,15,15)" stroke-width="1" opacity="0.8862745098039215" d="M 162 104 L 164 104.5 L 162 105.5 L 162 104 Z " /><path fill="rgb(15,15,15)" stroke="rgb(15,15,15)" stroke-width="1" opacity="0.8862745098039215" d="M 175.5 104 L 176 106 L 174 105.5 L 175.5 104 Z " /><path fill="rgb(15,15,15)" stroke="rgb(15,15,15)" stroke-width="1" opacity="0.8862745098039215" d="M 68.5 105 L 75 109.5 L 72.5 108 Q 67.8 107.2 68.5 105 Z " /><path fill="rgb(15,15,15)" stroke="rgb(15,15,15)" stroke-width="1" opacity="0.8862745098039215" d="M 132.5 106 L 131.5 108 L 129.5 109 L 130.5 107 L 132.5 106 Z " /><path fill="rgb(15,15,15)" stroke="rgb(15,15,15)" stroke-width="1" opacity="0.8862745098039215" d="M 143.5 107 L 144 109 L 142 108.5 L 143.5 107 Z " /><path fill="rgb(15,15,15)" stroke="rgb(15,15,15)" stroke-width="1" opacity="0.8862745098039215" d="M 172.5 107 L 171.5 109 L 170 108.5 L 172.5 107 Z " /><path fill="rgb(15,15,15)" stroke="rgb(15,15,15)" stroke-width="1" opacity="0.8862745098039215" d="M 61.5 110 L 63 110.5 L 58.5 113 L 59.5 111 L 61.5 110 Z " /><path fill="rgb(15,15,15)" stroke="rgb(15,15,15)" stroke-width="1" opacity="0.8862745098039215" d="M 167.5 110 L 166.5 112 L 167.5 110 Z " /><path fill="rgb(15,15,15)" stroke="rgb(15,15,15)" stroke-width="1" opacity="0.8862745098039215" d="M 64.5 111 L 65.5 113 Q 62.7 113.7 64.5 111 Z " /><path fill="rgb(15,15,15)" stroke="rgb(15,15,15)" stroke-width="1" opacity="0.8862745098039215" d="M 123 112 L 125 112.5 L 123 113.5 L 123 112 Z " /><path fill="rgb(15,15,15)" stroke="rgb(15,15,15)" stroke-width="1" opacity="0.8862745098039215" d="M 151 112 L 153 112.5 L 151 113.5 L 151 112 Z " /><path fill="rgb(15,15,15)" stroke="rgb(15,15,15)" stroke-width="1" opacity="0.8862745098039215" d="M 67.5 113 L 68.5 115 Q 65.7 115.7 67.5 113 Z " /><path fill="rgb(15,15,15)" stroke="rgb(15,15,15)" stroke-width="1" opacity="0.8862745098039215" d="M 132.5 115 L 133 117 L 130.5 118 L 132.5 115 Z " /><path fill="rgb(15,15,15)" stroke="rgb(15,15,15)" stroke-width="1" opacity="0.8862745098039215" d="M 147.5 115 L 149 115.5 L 146.5 117 L 147.5 115 Z " /><path fill="rgb(15,15,15)" stroke="rgb(15,15,15)" stroke-width="1" opacity="0.8862745098039215" d="M 35.5 118 L 36 120 L 34 119.5 L 35.5 118 Z " /><path fill="rgb(15,15,15)" stroke="rgb(15,15,15)" stroke-width="1" opacity="0.8862745098039215" d="M 128.5 118 L 129 120 L 127 119.5 L 128.5 118 Z " /><path fill="rgb(15,15,15)" stroke="rgb(15,15,15)" stroke-width="1" opacity="0.8862745098039215" d="M 156.5 118 L 158 118.5 L 155.5 120 L 156.5 118 Z " /><path fill="rgb(15,15,15)" stroke="rgb(15,15,15)" stroke-width="1" opacity="0.8862745098039215" d="M 48.5 119 L 47.5 121 L 48.5 119 Z " /><path fill="rgb(15,15,15)" stroke="rgb(15,15,15)" stroke-width="1" opacity="0.8862745098039215" d="M 76.5 119 L 77.5 121 L 76.5 119 Z " /><path fill="rgb(15,15,15)" stroke="rgb(15,15,15)" stroke-width="1" opacity="0.8862745098039215" d="M 114.5 119 L 113.5 121 L 112 120.5 L 114.5 119 Z " /><path fill="rgb(15,15,15)" stroke="rgb(15,15,15)" stroke-width="1" opacity="0.8862745098039215" d="M 141.5 120 L 140.5 122 L 141.5 120 Z " /><path fill="rgb(15,15,15)" stroke="rgb(15,15,15)" stroke-width="1" opacity="0.8862745098039215" d="M 31.5 121 L 33 121.5 L 28.5 124 L 28.5 123 L 31.5 121 Z " /><path fill="rgb(15,15,15)" stroke="rgb(15,15,15)" stroke-width="1" opacity="0.8862745098039215" d="M 45.5 121 L 46 123 L 44 122.5 L 45.5 121 Z " /><path fill="rgb(15,15,15)" stroke="rgb(15,15,15)" stroke-width="1" opacity="0.8862745098039215" d="M 137.5 123 L 136.5 125 L 137.5 123 Z " /><path fill="rgb(15,15,15)" stroke="rgb(15,15,15)" stroke-width="1" opacity="0.8862745098039215" d="M 25.5 125 L 27 125.5 L 24 127.5 L 25.5 125 Z " /><path fill="rgb(15,15,15)" stroke="rgb(15,15,15)" stroke-width="1" opacity="0.8862745098039215" d="M 105 125 L 107 125.5 L 105 126.5 L 105 125 Z " /><path fill="rgb(15,15,15)" stroke="rgb(15,15,15)" stroke-width="1" opacity="0.8862745098039215" d="M 38.5 126 L 40 126.5 L 37.5 128 L 38.5 126 Z " /><path fill="rgb(15,15,15)" stroke="rgb(15,15,15)" stroke-width="1" opacity="0.8862745098039215" d="M 62.5 126 Q 64.8 126.8 64 130.5 L 63 130.5 L 62.5 126 Z " /><path fill="rgb(15,15,15)" stroke="rgb(15,15,15)" stroke-width="1" opacity="0.8862745098039215" d="M 132 126 L 134 126.5 L 132 127.5 L 132 126 Z " /><path fill="rgb(15,15,15)" stroke="rgb(15,15,15)" stroke-width="1" opacity="0.8862745098039215" d="M 35.5 128 L 34.5 130 L 35.5 128 Z " /><path fill="rgb(15,15,15)" stroke="rgb(15,15,15)" stroke-width="1" opacity="0.8862745098039215" d="M 23.5 129 L 22.5 131 L 23.5 129 Z " /><path fill="rgb(15,15,15)" stroke="rgb(15,15,15)" stroke-width="1" opacity="0.8862745098039215" d="M 128 129 L 130 129.5 L 128 130.5 L 128 129 Z " /><path fill="rgb(15,15,15)" stroke="rgb(15,15,15)" stroke-width="1" opacity="0.8862745098039215" d="M 141.5 129 L 142 131 L 140 130.5 L 141.5 129 Z " /><path fill="rgb(15,15,15)" stroke="rgb(15,15,15)" stroke-width="1" opacity="0.8862745098039215" d="M 62.5 132 L 64 132.5 L 61.5 134 L 62.5 132 Z " /><path fill="rgb(15,15,15)" stroke="rgb(15,15,15)" stroke-width="1" opacity="0.8862745098039215" d="M 109.5 132 L 111 132.5 L 108 134.5 L 107.5 143 L 107 134.5 L 109.5 132 Z " /><path fill="rgb(15,15,15)" stroke="rgb(15,15,15)" stroke-width="1" opacity="0.8862745098039215" d="M 77.5 135 L 79 135.5 L 76.5 137 L 77.5 135 Z " /><path fill="rgb(15,15,15)" stroke="rgb(15,15,15)" stroke-width="1" opacity="0.8862745098039215" d="M 117 137 L 119 137.5 L 117 138.5 L 117 137 Z " /><path fill="rgb(15,15,15)" stroke="rgb(15,15,15)" stroke-width="1" opacity="0.8862745098039215" d="M 43.5 138 L 46 139.5 L 44.5 140 L 43.5 138 Z " /><path fill="rgb(15,15,15)" stroke="rgb(15,15,15)" stroke-width="1" opacity="0.8862745098039215" d="M 129.5 138 L 128.5 140 L 129.5 138 Z " /><path fill="rgb(15,15,15)" stroke="rgb(15,15,15)" stroke-width="1" opacity="0.8862745098039215" d="M 85.5 139 L 87 139.5 L 84.5 141 L 85.5 139 Z " /><path fill="rgb(15,15,15)" stroke="rgb(15,15,15)" stroke-width="1" opacity="0.8862745098039215" d="M 32.5 140 L 35 141.5 L 33.5 141 L 32.5 140 Z " /><path fill="rgb(15,15,15)" stroke="rgb(15,15,15)" stroke-width="1" opacity="0.8862745098039215" d="M 70 140 L 72 140.5 L 70 141.5 L 70 140 Z " /><path fill="rgb(15,15,15)" stroke="rgb(15,15,15)" stroke-width="1" opacity="0.8862745098039215" d="M 125.5 141 L 127 141.5 L 121.5 145 L 122.5 143 L 125.5 141 Z " /><path fill="rgb(15,15,15)" stroke="rgb(15,15,15)" stroke-width="1" opacity="0.8862745098039215" d="M 36.5 142 L 37.5 144 Q 34.7 144.7 36.5 142 Z " /><path fill="rgb(15,15,15)" stroke="rgb(15,15,15)" stroke-width="1" opacity="0.8862745098039215" d="M 90.5 142 L 91 143.5 L 89 144.5 L 90.5 142 Z " /><path fill="rgb(15,15,15)" stroke="rgb(15,15,15)" stroke-width="1" opacity="0.8862745098039215" d="M 110.5 142 L 112 142.5 L 109.5 144 L 110.5 142 Z " /><path fill="rgb(15,15,15)" stroke="rgb(15,15,15)" stroke-width="1" opacity="0.8862745098039215" d="M 22.5 144 L 24 148.5 L 23 148.5 L 22.5 144 Z " /><path fill="rgb(15,15,15)" stroke="rgb(15,15,15)" stroke-width="1" opacity="0.8862745098039215" d="M 30.5 144 L 31.5 146 L 30.5 144 Z " /><path fill="rgb(15,15,15)" stroke="rgb(15,15,15)" stroke-width="1" opacity="0.8862745098039215" d="M 39.5 145 Q 41.8 144.3 41 146.5 L 39.5 145 Z " /><path fill="rgb(15,15,15)" stroke="rgb(15,15,15)" stroke-width="1" opacity="0.8862745098039215" d="M 53.5 145 Q 55.8 144.3 55 146.5 L 53.5 145 Z " /><path fill="rgb(15,15,15)" stroke="rgb(15,15,15)" stroke-width="1" opacity="0.8862745098039215" d="M 43.5 147 L 44.5 149 Q 41.7 149.7 43.5 147 Z " /><path fill="rgb(15,15,15)" stroke="rgb(15,15,15)" stroke-width="1" opacity="0.8862745098039215" d="M 61.5 147 L 60.5 149 L 59 148.5 L 61.5 147 Z " /><path fill="rgb(15,15,15)" stroke="rgb(15,15,15)" stroke-width="1" opacity="0.8862745098039215" d="M 83 148 L 85 148.5 L 83 149.5 L 83 148 Z " /><path fill="rgb(15,15,15)" stroke="rgb(15,15,15)" stroke-width="1" opacity="0.8862745098039215" d="M 115.5 148 L 116 150 L 114 149.5 L 115.5 148 Z " /><path fill="rgb(15,15,15)" stroke="rgb(15,15,15)" stroke-width="1" opacity="0.8862745098039215" d="M 36.5 149 L 39 150.5 L 37.5 151 L 36.5 149 Z " /><path fill="rgb(15,15,15)" stroke="rgb(15,15,15)" stroke-width="1" opacity="0.8862745098039215" d="M 24.5 150 L 29 153.5 L 25.5 151 L 24.5 150 Z " /><path fill="rgb(15,15,15)" stroke="rgb(15,15,15)" stroke-width="1" opacity="0.8862745098039215" d="M 47.5 150 L 48.5 152 L 47.5 150 Z " /><path fill="rgb(15,15,15)" stroke="rgb(15,15,15)" stroke-width="1" opacity="0.8862745098039215" d="M 68.5 151 L 69 153 L 67 152.5 L 68.5 151 Z " /><path fill="rgb(15,15,15)" stroke="rgb(15,15,15)" stroke-width="1" opacity="0.8862745098039215" d="M 79.5 151 L 77.5 154 L 77 152 L 79.5 151 Z " /><path fill="rgb(15,15,15)" stroke="rgb(15,15,15)" stroke-width="1" opacity="0.8862745098039215" d="M 50.5 152 L 51.5 154 Q 48.7 154.7 50.5 152 Z " /><path fill="rgb(15,15,15)" stroke="rgb(15,15,15)" stroke-width="1" opacity="0.8862745098039215" d="M 101.5 152 L 102.5 154 L 101.5 152 Z " /><path fill="rgb(15,15,15)" stroke="rgb(15,15,15)" stroke-width="1" opacity="0.8862745098039215" d="M 43.5 154 L 44.5 156 L 43.5 154 Z " /><path fill="rgb(15,15,15)" stroke="rgb(15,15,15)" stroke-width="1" opacity="0.8862745098039215" d="M 64.5 154 L 66 154.5 L 63 156.5 L 62.5 161 L 62 156.5 L 64.5 154 Z " /><path fill="rgb(15,15,15)" stroke="rgb(15,15,15)" stroke-width="1" opacity="0.8862745098039215" d="M 54.5 156 L 55 159.5 L 54 159.5 L 54.5 156 Z " /><path fill="rgb(15,15,15)" stroke="rgb(15,15,15)" stroke-width="1" opacity="0.8862745098039215" d="M 84.5 157 L 83.5 159 L 84.5 157 Z " /><path fill="rgb(15,15,15)" stroke="rgb(15,15,15)" stroke-width="1" opacity="0.8862745098039215" d="M 49.5 158 L 52 159.5 L 50.5 160 L 49.5 158 Z " /><path fill="rgb(15,15,15)" stroke="rgb(15,15,15)" stroke-width="1" opacity="0.8862745098039215" d="M 37.5 159 L 38.5 161 Q 35.7 161.7 37.5 159 Z " /><path fill="rgb(15,15,15)" stroke="rgb(15,15,15)" stroke-width="1" opacity="0.8862745098039215" d="M 72.5 165 L 73 167 L 71 166.5 L 72.5 165 Z " /><path fill="rgb(15,15,15)" stroke="rgb(15,15,15)" stroke-width="1" opacity="0.8862745098039215" d="M 66.5 169 L 67 171 L 65 170.5 L 66.5 169 Z " /><path fill="rgb(15,15,15)" stroke="rgb(15,15,15)" stroke-width="1" opacity="0.8862745098039215" d="M 63.5 171 L 62.5 173 L 63.5 171 Z " /><path fill="rgb(15,15,15)" stroke="rgb(15,15,15)" stroke-width="1" opacity="0.8862745098039215" d="M 57.5 172 L 61 172.5 L 57.5 173 L 57.5 172 Z " /></svg>