<svg width="254" height="199" version="1.1" xmlns="http://www.w3.org/2000/svg" desc="Created with imagetracer.js version 1.2.6" ><path fill="rgb(51,51,51)" stroke="rgb(51,51,51)" stroke-width="1" opacity="0.9254901960784314" d="M 91 22 L 96.5 23 L 98.5 23 Q 104 24.5 105.5 22 L 106.5 23 L 118.5 23 L 120.5 22 L 124.5 23 L 128.5 23 L 154.5 23 L 155.5 22 L 156.5 23 L 179.5 23 L 182 22 L 182.5 24 Q 183.7 21.7 185 24.5 L 184.5 26 L 186 26.5 L 185 27.5 L 185 159.5 L 186 162 L 184 162.5 L 184.5 164 L 183 164.5 Q 185.8 166.3 181.5 168 L 180 167.5 L 179.5 169 L 177 168 Q 178.1 170.7 175.5 170 L 174.5 169 L 71.5 169 L 70 169.5 Q 70.8 167.3 68.5 168 L 67 168.5 L 67.5 167 L 65.5 166 L 64 166.5 L 64.5 165 L 62 163.5 L 63 156.5 L 63 154.5 L 62 152.5 L 62 150.5 L 63 148.5 L 62 147.5 L 62 139.5 L 63 137.5 Q 60.5 136 62 130.5 L 63 125.5 L 62 120.5 L 63 118.5 L 63 116.5 L 62 111.5 L 62 109.5 Q 60.7 104.8 63 103.5 Q 60.7 102.2 62 97.5 L 62 95.5 L 63 92.5 L 63 90.5 L 62 87.5 L 63 84.5 L 62 82.5 L 62 80.5 L 63 78.5 L 62 75.5 L 62 73.5 L 63 70.5 L 62 67.5 L 63 60.5 L 62 58.5 L 63 55.5 L 62 50.5 L 64 49.5 L 63 48.5 L 68.5 43 Q 70.8 43.8 70 41.5 L 74 38.5 L 76 35.5 L 80 33 L 84.5 27 L 87 25.5 L 88.5 23 L 91 24 L 91 22 Z M 126 32 L 125 33 L 118 33 L 118 49 L 117 50 L 118 52 L 117 55 L 119 57 L 120 56 L 130 56 L 131 55 L 132 55 L 132 34 L 126 32 Z M 147 32 L 141 33 L 140 36 L 140 54 L 141 56 L 154 56 L 155 55 L 156 55 L 156 34 L 147 32 Z M 97 33 L 94 34 L 94 41 L 95 42 L 94 44 L 94 55 L 100 56 L 105 57 L 109 54 L 108 51 L 109 49 L 109 38 L 108 37 L 109 35 Q 105 31 97 33 Z M 165 33 L 165 35 L 163 35 L 163 49 L 164 50 L 163 53 L 166 57 L 167 56 L 175 56 L 176 57 Q 175 54 178 55 L 177 49 L 178 48 L 178 34 L 176 33 L 165 33 Z M 84 40 L 84 42 Q 82 46 81 43 Q 78 44 80 46 L 79 45 L 71 53 L 71 55 L 71 159 L 73 160 Q 75 159 74 162 L 76 161 L 79 162 L 82 161 L 84 162 L 86 162 L 88 161 L 90 162 L 99 161 L 102 162 L 104 161 Q 108 160 110 162 L 113 161 L 119 162 L 121 162 L 123 161 L 125 161 L 127 162 L 130 161 L 132 162 L 134 162 L 139 161 L 143 161 L 155 162 L 159 162 L 162 161 L 165 162 L 170 161 L 173 162 L 178 158 L 177 155 L 178 152 L 177 149 L 178 146 L 178 144 L 178 130 L 177 129 Q 180 125 178 118 L 178 116 L 177 112 L 178 110 L 177 105 L 178 100 Q 175 98 177 92 L 177 90 L 178 83 L 178 81 L 178 71 L 177 70 L 178 68 L 173 64 L 171 64 L 154 64 L 153 65 L 152 64 L 124 64 L 122 64 L 117 65 L 115 64 Q 108 62 107 65 L 105 64 L 91 64 L 89 65 Q 84 63 87 62 L 86 57 L 87 55 L 87 42 L 84 40 Z " /><path fill="rgb(0,0,0)" stroke="rgb(0,0,0)" stroke-width="1" opacity="0" d="M 0 0 L 254 0 L 254 199 L 0 199 L 0 0 Z M 91 22 Q 92 25 90 24 L 88 24 L 87 26 L 85 27 L 80 33 L 76 36 L 74 39 L 70 42 Q 71 44 69 43 L 64 48 L 65 49 L 62 51 L 63 56 L 62 59 L 63 61 L 62 68 L 63 71 L 62 74 L 62 76 L 63 79 L 62 81 L 62 83 L 63 85 L 62 88 L 63 91 L 63 93 L 62 96 L 62 98 Q 61 102 63 104 Q 61 105 62 110 L 62 112 L 63 117 L 63 119 L 62 121 L 63 126 L 62 131 Q 61 136 63 138 L 62 140 L 62 148 L 63 149 L 62 151 L 62 153 L 63 155 L 63 157 L 62 164 L 69 168 Q 71 167 70 170 L 72 169 L 175 169 L 176 170 Q 178 171 177 168 L 180 169 L 180 168 Q 181 165 183 167 Q 185 166 183 165 L 185 164 L 184 163 L 186 162 L 185 160 L 185 28 L 186 27 L 185 26 L 182 22 L 180 23 L 157 23 L 156 22 L 155 23 L 129 23 L 125 23 L 121 22 L 119 23 L 107 23 L 106 22 Q 104 25 99 23 L 97 23 L 91 22 Z " /><path fill="rgb(0,0,0)" stroke="rgb(0,0,0)" stroke-width="1" opacity="0" d="M 125.5 32 L 132 34 L 132 54.5 L 130.5 55 L 129.5 56 L 119.5 56 L 118.5 57 L 117 54.5 L 118 51.5 L 117 49.5 L 118 48.5 L 118 33 L 124.5 33 L 125.5 32 Z " /><path fill="rgb(0,0,0)" stroke="rgb(0,0,0)" stroke-width="1" opacity="0" d="M 146.5 32 L 156 34 L 156 54.5 L 154.5 55 L 153.5 56 L 141 56 L 140 53.5 L 140 35.5 L 141 33 L 146.5 32 Z " /><path fill="rgb(0,0,0)" stroke="rgb(0,0,0)" stroke-width="1" opacity="0" d="M 96.5 33 Q 105.4 31.1 109 34.5 L 108 36.5 L 109 37.5 L 109 48.5 L 108 50.5 L 109 53.5 L 104.5 57 L 99.5 56 L 94 55 L 94 43.5 L 95 41.5 L 94 40.5 L 94 34 L 96.5 33 Z " /><path fill="rgb(0,0,0)" stroke="rgb(0,0,0)" stroke-width="1" opacity="0" d="M 165 33 L 175.5 33 L 178 34 L 178 47.5 L 177 48.5 L 178 55 Q 175.3 53.9 176 56.5 L 174.5 56 L 166.5 56 L 165.5 57 L 164.5 54 L 163 54.5 L 164 51.5 Q 161.3 45.3 163 34.5 L 165 34.5 L 165 33 Z " /><path fill="rgb(0,0,0)" stroke="rgb(0,0,0)" stroke-width="1" opacity="0" d="M 83.5 40 L 87 41.5 L 87 54.5 L 86 56.5 L 87 61.5 L 89 63.5 L 88.5 65 L 90.5 64 L 104.5 64 L 106.5 65 Q 108.3 62.3 114.5 64 L 116.5 65 L 121.5 64 L 123.5 64 L 151.5 64 L 152.5 65 L 153.5 64 L 170.5 64 L 172.5 64 L 178 67.5 L 177 69.5 L 178 70.5 L 178 80.5 L 178 82.5 L 177 89.5 L 177 91.5 Q 175.3 97.8 178 99.5 L 177 104.5 L 178 109.5 L 177 111.5 L 178 115.5 L 178 117.5 Q 179.5 125 177 128.5 L 178 129.5 L 178 143.5 L 178 145.5 L 177 148.5 L 178 151.5 L 177 154.5 L 178 158 L 176 158.5 Q 178.3 159.8 175.5 161 L 171.5 161 L 168.5 162 L 164.5 162 L 161.5 161 L 158.5 162 L 154.5 162 L 142.5 161 L 138.5 161 L 133.5 162 L 131.5 162 L 129.5 161 L 126.5 162 L 124.5 161 L 122.5 161 L 120.5 162 L 118.5 162 L 112.5 161 L 109.5 162 Q 108.3 159.8 103.5 161 L 101.5 162 L 98.5 161 L 89.5 162 L 87.5 161 L 85.5 162 L 83.5 162 L 81.5 161 L 78.5 162 L 75.5 161 L 74 161.5 Q 74.8 159.3 72.5 160 L 71 158.5 L 71 54.5 L 71 52.5 L 83.5 40 Z " /></svg>