<?xml version="1.0" encoding="UTF-8" standalone="no"?>
<!DOCTYPE svg PUBLIC "-//W3C//DTD SVG 1.1//EN" "http://www.w3.org/Graphics/SVG/1.1/DTD/svg11.dtd">
<svg xmlns="http://www.w3.org/2000/svg" version="1.1" viewBox="0.00 0.00 195.00 197.00">
<g stroke-width="2.00" fill="none" stroke-linecap="butt">
<path stroke="#dad9da" vector-effect="non-scaling-stroke" d="
  M 133.41 74.70
  A 6.49 6.49 0.0 0 0 139.03 84.43
  L 178.57 84.43
  A 6.49 6.49 0.0 0 0 184.19 74.70
  L 164.42 40.46
  A 6.49 6.49 0.0 0 0 153.18 40.46
  L 133.41 74.70"
/>
<path stroke="#dad9da" vector-effect="non-scaling-stroke" d="
  M 113.63 67.60
  Q 109.11 67.56 98.52 67.59
  Q 94.85 67.60 92.74 65.68
  Q 91.76 64.79 84.45 57.32
  Q 80.73 53.51 75.30 53.40
  Q 66.43 53.22 52.27 53.32
  A 2.20 2.20 0.0 0 0 50.08 55.48
  L 50.08 55.53
  A 2.13 2.12 0.5 0 0 52.21 57.69
  Q 62.24 57.67 72.25 57.65
  C 77.03 57.64 79.37 58.27 82.59 61.71
  C 87.17 66.61 91.00 71.63 96.58 71.94
  Q 100.43 72.15 113.55 72.01
  A 2.16 2.15 -89.4 0 0 115.68 69.91
  L 115.68 69.73
  A 2.06 2.06 0.0 0 0 113.63 67.60"
/>
<path stroke="#dad9da" vector-effect="non-scaling-stroke" d="
  M 86.03 95.12
  C 87.31 99.87 90.98 104.41 96.10 104.75
  C 103.39 105.24 108.94 104.89 110.86 96.59
  Q 112.05 91.46 111.14 87.38
  C 110.20 83.20 107.14 79.41 103.09 78.78
  Q 99.90 78.28 93.97 78.91
  A 4.01 3.94 27.7 0 0 92.52 79.35
  Q 88.07 81.74 86.67 86.42
  Q 85.78 89.37 85.71 89.53
  A 0.94 0.93 9.1 0 1 84.94 90.08
  Q 71.08 91.39 69.74 91.35
  Q 56.55 90.99 52.77 91.02
  A 2.69 2.68 2.9 0 0 50.11 93.42
  L 50.10 93.52
  A 2.24 2.24 0.0 0 0 52.29 96.00
  C 63.68 96.17 72.56 95.54 85.10 94.46
  A 0.89 0.89 0.0 0 1 86.03 95.12"
/>
<path stroke="#dad9da" vector-effect="non-scaling-stroke" d="
  M 148.77 157.78
  A 2.00 2.00 0.0 0 0 148.08 154.93
  C 136.30 148.38 126.72 138.51 129.98 123.70
  C 131.99 114.54 141.00 107.36 148.58 102.64
  A 1.58 1.58 0.0 0 0 149.11 100.51
  L 148.87 100.10
  A 2.17 2.17 0.0 0 0 145.91 99.30
  Q 135.30 105.36 129.30 114.30
  C 121.99 125.18 124.18 139.52 132.71 148.87
  Q 137.84 154.49 145.71 158.59
  A 2.35 2.34 30.7 0 0 148.75 157.82
  L 148.77 157.78"
/>
<path stroke="#dad9da" vector-effect="non-scaling-stroke" d="
  M 144.84 115.08
  A 2.08 2.08 0.0 0 0 141.97 115.67
  C 137.39 122.55 134.09 129.26 138.19 137.10
  C 139.18 139.00 142.21 144.99 144.87 142.18
  A 2.13 1.91 -44.6 0 0 145.04 139.44
  C 137.86 131.46 141.01 125.90 145.58 117.96
  A 2.12 2.12 0.0 0 0 144.90 115.12
  L 144.84 115.08"
/>
<path stroke="#dad9da" vector-effect="non-scaling-stroke" d="
  M 183.15 138.27
  L 183.15 121.17
  A 5.39 5.39 0.0 0 0 177.76 115.78
  L 159.36 115.78
  A 9.74 8.45 -90.0 0 0 150.91 125.52
  L 150.91 133.92
  A 9.74 8.45 90.0 0 0 159.36 143.66
  L 177.76 143.66
  A 5.39 5.39 0.0 0 0 183.15 138.27"
/>
<path stroke="#dad9da" vector-effect="non-scaling-stroke" d="
  M 113.53 129.16
  Q 113.66 133.61 114.43 137.02
  A 2.49 2.21 83.2 0 0 116.61 138.96
  Q 118.06 138.97 118.64 137.48
  A 1.58 1.55 50.4 0 0 118.72 136.59
  C 118.23 134.07 117.66 131.41 117.59 129.04
  C 117.52 126.67 117.93 123.98 118.27 121.44
  A 1.58 1.55 -53.8 0 0 118.14 120.55
  Q 117.48 119.10 116.03 119.20
  A 2.49 2.21 -86.5 0 0 113.96 121.27
  Q 113.40 124.71 113.53 129.16"
/>
<path stroke="#dad9da" vector-effect="non-scaling-stroke" d="
  M 158.77 80.50
  Q 175.71 80.48 178.00 80.40
  C 179.65 80.34 181.46 78.80 180.47 77.08
  Q 170.03 58.94 160.15 42.13
  Q 159.59 41.17 158.72 41.17
  Q 157.85 41.17 157.30 42.13
  Q 147.46 58.97 137.07 77.14
  C 136.08 78.86 137.90 80.40 139.54 80.45
  Q 141.83 80.52 158.77 80.50"
/>
<path stroke="#dad9da" vector-effect="non-scaling-stroke" d="
  M 160.4391 56.0138
  A 1.98 1.98 0.0 0 0 158.4626 54.0304
  L 158.0226 54.0296
  A 1.98 1.98 0.0 0 0 156.0391 56.0062
  L 156.0209 66.4462
  A 1.98 1.98 0.0 0 0 157.9974 68.4296
  L 158.4374 68.4304
  A 1.98 1.98 0.0 0 0 160.4209 66.4538
  L 160.4391 56.0138"
/>
<path stroke="#dad9da" vector-effect="non-scaling-stroke" d="
  M 158.3783 70.6704
  A 2.77 2.46 -89.0 0 0 155.8704 73.3971
  A 2.77 2.46 -89.0 0 0 158.2817 76.2096
  A 2.77 2.46 -89.0 0 0 160.7896 73.4829
  A 2.77 2.46 -89.0 0 0 158.3783 70.6704"
/>
<path stroke="#dad9da" vector-effect="non-scaling-stroke" d="
  M 102.75 100.33
  C 106.43 98.48 107.06 94.48 107.01 90.72
  C 106.94 85.03 102.98 81.88 97.28 82.84
  Q 91.76 83.77 90.61 88.79
  Q 88.77 96.84 96.24 100.29
  A 2.94 2.89 58.0 0 0 97.24 100.53
  Q 101.96 100.73 102.75 100.33"
/>
<path stroke="#dad9da" vector-effect="non-scaling-stroke" d="
  M 178.58 138.40
  L 178.62 121.06
  A 1.04 1.04 0.0 0 0 177.58 120.02
  L 160.86 119.99
  A 5.88 5.64 -89.9 0 0 155.21 125.86
  L 155.19 133.52
  A 5.88 5.64 -89.9 0 0 160.82 139.41
  L 177.54 139.44
  A 1.04 1.04 0.0 0 0 178.58 138.40"
/>
</g>
<path fill="#ffffff" d="
  M 195.00 0.00
  L 195.00 197.00
  L 0.00 197.00
  L 0.00 0.00
  L 195.00 0.00
  Z
  M 133.41 74.70
  A 6.49 6.49 0.0 0 0 139.03 84.43
  L 178.57 84.43
  A 6.49 6.49 0.0 0 0 184.19 74.70
  L 164.42 40.46
  A 6.49 6.49 0.0 0 0 153.18 40.46
  L 133.41 74.70
  Z
  M 113.63 67.60
  Q 109.11 67.56 98.52 67.59
  Q 94.85 67.60 92.74 65.68
  Q 91.76 64.79 84.45 57.32
  Q 80.73 53.51 75.30 53.40
  Q 66.43 53.22 52.27 53.32
  A 2.20 2.20 0.0 0 0 50.08 55.48
  L 50.08 55.53
  A 2.13 2.12 0.5 0 0 52.21 57.69
  Q 62.24 57.67 72.25 57.65
  C 77.03 57.64 79.37 58.27 82.59 61.71
  C 87.17 66.61 91.00 71.63 96.58 71.94
  Q 100.43 72.15 113.55 72.01
  A 2.16 2.15 -89.4 0 0 115.68 69.91
  L 115.68 69.73
  A 2.06 2.06 0.0 0 0 113.63 67.60
  Z
  M 86.03 95.12
  C 87.31 99.87 90.98 104.41 96.10 104.75
  C 103.39 105.24 108.94 104.89 110.86 96.59
  Q 112.05 91.46 111.14 87.38
  C 110.20 83.20 107.14 79.41 103.09 78.78
  Q 99.90 78.28 93.97 78.91
  A 4.01 3.94 27.7 0 0 92.52 79.35
  Q 88.07 81.74 86.67 86.42
  Q 85.78 89.37 85.71 89.53
  A 0.94 0.93 9.1 0 1 84.94 90.08
  Q 71.08 91.39 69.74 91.35
  Q 56.55 90.99 52.77 91.02
  A 2.69 2.68 2.9 0 0 50.11 93.42
  L 50.10 93.52
  A 2.24 2.24 0.0 0 0 52.29 96.00
  C 63.68 96.17 72.56 95.54 85.10 94.46
  A 0.89 0.89 0.0 0 1 86.03 95.12
  Z
  M 148.77 157.78
  A 2.00 2.00 0.0 0 0 148.08 154.93
  C 136.30 148.38 126.72 138.51 129.98 123.70
  C 131.99 114.54 141.00 107.36 148.58 102.64
  A 1.58 1.58 0.0 0 0 149.11 100.51
  L 148.87 100.10
  A 2.17 2.17 0.0 0 0 145.91 99.30
  Q 135.30 105.36 129.30 114.30
  C 121.99 125.18 124.18 139.52 132.71 148.87
  Q 137.84 154.49 145.71 158.59
  A 2.35 2.34 30.7 0 0 148.75 157.82
  L 148.77 157.78
  Z
  M 144.84 115.08
  A 2.08 2.08 0.0 0 0 141.97 115.67
  C 137.39 122.55 134.09 129.26 138.19 137.10
  C 139.18 139.00 142.21 144.99 144.87 142.18
  A 2.13 1.91 -44.6 0 0 145.04 139.44
  C 137.86 131.46 141.01 125.90 145.58 117.96
  A 2.12 2.12 0.0 0 0 144.90 115.12
  L 144.84 115.08
  Z
  M 183.15 138.27
  L 183.15 121.17
  A 5.39 5.39 0.0 0 0 177.76 115.78
  L 159.36 115.78
  A 9.74 8.45 -90.0 0 0 150.91 125.52
  L 150.91 133.92
  A 9.74 8.45 90.0 0 0 159.36 143.66
  L 177.76 143.66
  A 5.39 5.39 0.0 0 0 183.15 138.27
  Z
  M 113.53 129.16
  Q 113.66 133.61 114.43 137.02
  A 2.49 2.21 83.2 0 0 116.61 138.96
  Q 118.06 138.97 118.64 137.48
  A 1.58 1.55 50.4 0 0 118.72 136.59
  C 118.23 134.07 117.66 131.41 117.59 129.04
  C 117.52 126.67 117.93 123.98 118.27 121.44
  A 1.58 1.55 -53.8 0 0 118.14 120.55
  Q 117.48 119.10 116.03 119.20
  A 2.49 2.21 -86.5 0 0 113.96 121.27
  Q 113.40 124.71 113.53 129.16
  Z"
/>
<path fill="#b4b2b5" d="
  M 133.41 74.70
  L 153.18 40.46
  A 6.49 6.49 0.0 0 1 164.42 40.46
  L 184.19 74.70
  A 6.49 6.49 0.0 0 1 178.57 84.43
  L 139.03 84.43
  A 6.49 6.49 0.0 0 1 133.41 74.70
  Z
  M 158.77 80.50
  Q 175.71 80.48 178.00 80.40
  C 179.65 80.34 181.46 78.80 180.47 77.08
  Q 170.03 58.94 160.15 42.13
  Q 159.59 41.17 158.72 41.17
  Q 157.85 41.17 157.30 42.13
  Q 147.46 58.97 137.07 77.14
  C 136.08 78.86 137.90 80.40 139.54 80.45
  Q 141.83 80.52 158.77 80.50
  Z"
/>
<path fill="#ffffff" d="
  M 158.72 41.17
  Q 159.59 41.17 160.15 42.13
  Q 170.03 58.94 180.47 77.08
  C 181.46 78.80 179.65 80.34 178.00 80.40
  Q 175.71 80.48 158.77 80.50
  Q 141.83 80.52 139.54 80.45
  C 137.90 80.40 136.08 78.86 137.07 77.14
  Q 147.46 58.97 157.30 42.13
  Q 157.85 41.17 158.72 41.17
  Z
  M 160.4391 56.0138
  A 1.98 1.98 0.0 0 0 158.4626 54.0304
  L 158.0226 54.0296
  A 1.98 1.98 0.0 0 0 156.0391 56.0062
  L 156.0209 66.4462
  A 1.98 1.98 0.0 0 0 157.9974 68.4296
  L 158.4374 68.4304
  A 1.98 1.98 0.0 0 0 160.4209 66.4538
  L 160.4391 56.0138
  Z
  M 158.3783 70.6704
  A 2.77 2.46 -89.0 0 0 155.8704 73.3971
  A 2.77 2.46 -89.0 0 0 158.2817 76.2096
  A 2.77 2.46 -89.0 0 0 160.7896 73.4829
  A 2.77 2.46 -89.0 0 0 158.3783 70.6704
  Z"
/>
<path fill="#b4b2b5" d="
  M 113.63 67.60
  A 2.06 2.06 0.0 0 1 115.68 69.73
  L 115.68 69.91
  A 2.16 2.15 -89.4 0 1 113.55 72.01
  Q 100.43 72.15 96.58 71.94
  C 91.00 71.63 87.17 66.61 82.59 61.71
  C 79.37 58.27 77.03 57.64 72.25 57.65
  Q 62.24 57.67 52.21 57.69
  A 2.13 2.12 0.5 0 1 50.08 55.53
  L 50.08 55.48
  A 2.20 2.20 0.0 0 1 52.27 53.32
  Q 66.43 53.22 75.30 53.40
  Q 80.73 53.51 84.45 57.32
  Q 91.76 64.79 92.74 65.68
  Q 94.85 67.60 98.52 67.59
  Q 109.11 67.56 113.63 67.60
  Z"
/>
<rect fill="#b4b2b5" x="-2.20" y="-7.20" transform="translate(158.23,61.23) rotate(0.1)" width="4.40" height="14.40" rx="1.98"/>
<ellipse fill="#b4b2b5" cx="0.00" cy="0.00" transform="translate(158.33,73.44) rotate(-89.0)" rx="2.77" ry="2.46"/>
<path fill="#b4b2b5" d="
  M 85.10 94.46
  C 72.56 95.54 63.68 96.17 52.29 96.00
  A 2.24 2.24 0.0 0 1 50.10 93.52
  L 50.11 93.42
  A 2.69 2.68 2.9 0 1 52.77 91.02
  Q 56.55 90.99 69.74 91.35
  Q 71.08 91.39 84.94 90.08
  A 0.94 0.93 9.1 0 0 85.71 89.53
  Q 85.78 89.37 86.67 86.42
  Q 88.07 81.74 92.52 79.35
  A 4.01 3.94 27.7 0 1 93.97 78.91
  Q 99.90 78.28 103.09 78.78
  C 107.14 79.41 110.20 83.20 111.14 87.38
  Q 112.05 91.46 110.86 96.59
  C 108.94 104.89 103.39 105.24 96.10 104.75
  C 90.98 104.41 87.31 99.87 86.03 95.12
  A 0.89 0.89 0.0 0 0 85.10 94.46
  Z
  M 102.75 100.33
  C 106.43 98.48 107.06 94.48 107.01 90.72
  C 106.94 85.03 102.98 81.88 97.28 82.84
  Q 91.76 83.77 90.61 88.79
  Q 88.77 96.84 96.24 100.29
  A 2.94 2.89 58.0 0 0 97.24 100.53
  Q 101.96 100.73 102.75 100.33
  Z"
/>
<path fill="#ffffff" d="
  M 102.75 100.33
  Q 101.96 100.73 97.24 100.53
  A 2.94 2.89 58.0 0 1 96.24 100.29
  Q 88.77 96.84 90.61 88.79
  Q 91.76 83.77 97.28 82.84
  C 102.98 81.88 106.94 85.03 107.01 90.72
  C 107.06 94.48 106.43 98.48 102.75 100.33
  Z"
/>
<path fill="#b4b2b5" d="
  M 148.77 157.78
  L 148.75 157.82
  A 2.35 2.34 30.7 0 1 145.71 158.59
  Q 137.84 154.49 132.71 148.87
  C 124.18 139.52 121.99 125.18 129.30 114.30
  Q 135.30 105.36 145.91 99.30
  A 2.17 2.17 0.0 0 1 148.87 100.10
  L 149.11 100.51
  A 1.58 1.58 0.0 0 1 148.58 102.64
  C 141.00 107.36 131.99 114.54 129.98 123.70
  C 126.72 138.51 136.30 148.38 148.08 154.93
  A 2.00 2.00 0.0 0 1 148.77 157.78
  Z"
/>
<path fill="#b4b2b5" d="
  M 144.84 115.08
  L 144.90 115.12
  A 2.12 2.12 0.0 0 1 145.58 117.96
  C 141.01 125.90 137.86 131.46 145.04 139.44
  A 2.13 1.91 -44.6 0 1 144.87 142.18
  C 142.21 144.99 139.18 139.00 138.19 137.10
  C 134.09 129.26 137.39 122.55 141.97 115.67
  A 2.08 2.08 0.0 0 1 144.84 115.08
  Z"
/>
<path fill="#b4b2b5" d="
  M 183.15 138.27
  A 5.39 5.39 0.0 0 1 177.76 143.66
  L 159.36 143.66
  A 9.74 8.45 -90.0 0 1 150.91 133.92
  L 150.91 125.52
  A 9.74 8.45 -90.0 0 1 159.36 115.78
  L 177.76 115.78
  A 5.39 5.39 0.0 0 1 183.15 121.17
  L 183.15 138.27
  Z
  M 178.58 138.40
  L 178.62 121.06
  A 1.04 1.04 0.0 0 0 177.58 120.02
  L 160.86 119.99
  A 5.88 5.64 -89.9 0 0 155.21 125.86
  L 155.19 133.52
  A 5.88 5.64 -89.9 0 0 160.82 139.41
  L 177.54 139.44
  A 1.04 1.04 0.0 0 0 178.58 138.40
  Z"
/>
<path fill="#b4b2b5" d="
  M 117.59 129.04
  C 117.66 131.41 118.23 134.07 118.72 136.59
  A 1.58 1.55 50.4 0 1 118.64 137.48
  Q 118.06 138.97 116.61 138.96
  A 2.49 2.21 83.2 0 1 114.43 137.02
  Q 113.66 133.61 113.53 129.16
  Q 113.40 124.71 113.96 121.27
  A 2.49 2.21 -86.5 0 1 116.03 119.20
  Q 117.48 119.10 118.14 120.55
  A 1.58 1.55 -53.8 0 1 118.27 121.44
  C 117.93 123.98 117.52 126.67 117.59 129.04
  Z"
/>
<path fill="#ffffff" d="
  M 178.58 138.40
  A 1.04 1.04 0.0 0 1 177.54 139.44
  L 160.82 139.41
  A 5.88 5.64 -89.9 0 1 155.19 133.52
  L 155.21 125.86
  A 5.88 5.64 -89.9 0 1 160.86 119.99
  L 177.58 120.02
  A 1.04 1.04 0.0 0 1 178.62 121.06
  L 178.58 138.40
  Z"
/>
</svg>
