<?xml version="1.0" encoding="UTF-8" standalone="no"?>
<!DOCTYPE svg PUBLIC "-//W3C//DTD SVG 1.1//EN" "http://www.w3.org/Graphics/SVG/1.1/DTD/svg11.dtd">
<svg xmlns="http://www.w3.org/2000/svg" version="1.1" viewBox="0.00 0.00 123.00 136.00">
<path fill="#000000" d="
  M 110.1089 90.9200
  A 15.06 15.06 0.0 0 1 94.9965 105.9274
  L 27.6169 105.6922
  A 15.06 15.06 0.0 0 1 12.6095 90.5797
  L 12.7511 50.0400
  A 15.06 15.06 0.0 0 1 27.8635 35.0326
  L 95.2431 35.2678
  A 15.06 15.06 0.0 0 1 110.2505 50.3803
  L 110.1089 90.9200
  Z
  M 105.30 49.86
  A 9.80 9.80 0.0 0 0 95.50 40.06
  L 27.50 40.06
  A 9.80 9.80 0.0 0 0 17.70 49.86
  L 17.70 91.00
  A 9.80 9.80 0.0 0 0 27.50 100.80
  L 95.50 100.80
  A 9.80 9.80 0.0 0 0 105.30 91.00
  L 105.30 49.86
  Z"
/>
<path fill="#000000" d="
  M 55.24 81.35
  Q 56.83 82.48 57.18 83.24
  A 2.14 2.00 -26.8 0 1 56.20 85.91
  Q 53.54 87.32 51.06 87.64
  Q 48.33 87.99 45.65 86.88
  Q 38.30 83.84 35.58 77.65
  Q 32.31 70.23 35.89 63.12
  Q 39.06 56.81 46.52 54.45
  A 3.51 3.23 -51.2 0 1 47.51 54.30
  C 52.53 54.25 55.74 53.50 58.52 56.30
  A 1.06 1.05 -61.2 0 1 58.80 57.28
  C 58.33 59.32 56.98 60.18 54.70 59.51
  Q 50.40 58.26 45.75 59.87
  A 3.15 3.07 17.4 0 0 44.90 60.30
  Q 37.59 65.47 39.14 73.00
  Q 40.19 78.05 44.43 80.81
  Q 48.60 83.54 53.91 82.05
  A 1.01 0.97 6.4 0 0 54.51 81.59
  L 54.58 81.49
  A 0.46 0.45 32.7 0 1 55.24 81.35
  Z"
/>
<path fill="#000000" d="
  M 67.45 85.50
  Q 59.29 80.45 58.95 71.75
  C 58.66 64.40 61.91 58.62 68.46 55.56
  Q 72.05 53.89 76.34 54.21
  Q 85.00 54.85 89.30 62.49
  Q 91.95 67.18 91.25 72.89
  Q 90.55 78.57 86.73 82.48
  Q 81.72 87.62 73.77 87.72
  A 1.51 1.40 -33.3 0 1 73.29 87.64
  L 68.01 85.77
  A 3.36 2.67 -12.8 0 1 67.45 85.50
  Z
  M 86.05 66.88
  Q 82.53 57.77 72.55 59.07
  A 3.52 3.33 -58.7 0 0 71.60 59.33
  Q 62.36 63.23 64.01 73.70
  A 3.34 2.98 32.3 0 0 64.25 74.54
  Q 68.07 83.52 77.70 82.32
  A 3.61 3.50 29.2 0 0 78.53 82.10
  Q 84.01 79.90 85.98 74.63
  A 2.80 2.60 59.5 0 0 86.14 73.90
  Q 86.50 68.06 86.05 66.88
  Z"
/>
</svg>
