<?xml version="1.0" encoding="UTF-8" standalone="no"?>
<!DOCTYPE svg PUBLIC "-//W3C//DTD SVG 1.1//EN" "http://www.w3.org/Graphics/SVG/1.1/DTD/svg11.dtd">
<svg xmlns="http://www.w3.org/2000/svg" version="1.1" viewBox="0.00 0.00 128.00 136.00">
<path fill="#000000" d="
  M 100.69 63.69
  A 0.50 0.50 0.0 0 0 101.55 63.84
  C 104.56 60.15 106.32 60.84 111.25 60.94
  C 118.56 61.07 117.60 70.80 111.52 70.83
  Q 108.88 70.85 107.62 70.85
  A 0.55 0.55 0.0 0 0 107.21 71.75
  C 110.64 75.80 111.84 79.67 111.84 85.43
  Q 111.80 107.81 111.75 109.34
  Q 111.64 113.31 107.55 115.44
  A 2.09 2.07 -58.1 0 1 106.62 115.66
  L 97.94 115.66
  A 1.21 1.20 56.5 0 1 97.46 115.56
  Q 92.26 113.19 93.28 107.52
  A 0.54 0.54 0.0 0 0 92.75 106.89
  L 34.37 106.89
  A 0.59 0.59 0.0 0 0 33.79 107.58
  Q 34.68 113.09 29.86 115.48
  A 1.84 1.76 30.8 0 1 29.07 115.66
  L 20.91 115.66
  A 2.45 2.44 -34.5 0 1 20.04 115.50
  C 16.86 114.29 15.56 111.68 15.60 108.18
  Q 15.68 100.24 15.59 84.35
  C 15.55 78.80 16.93 74.96 20.28 71.10
  A 0.29 0.28 20.1 0 0 20.06 70.63
  L 14.42 70.63
  A 1.29 1.28 63.0 0 1 13.66 70.38
  Q 10.97 68.45 10.79 67.28
  C 9.58 59.52 16.87 60.75 22.20 61.06
  A 1.65 1.63 68.6 0 1 23.28 61.54
  L 25.04 63.30
  A 0.62 0.62 0.0 0 0 26.06 63.07
  Q 27.90 58.05 31.48 49.27
  Q 32.94 45.71 36.66 45.48
  A 0.85 0.84 4.6 0 0 37.43 44.83
  Q 38.89 38.72 40.89 28.87
  Q 42.36 21.67 49.75 21.70
  Q 66.10 21.75 77.02 21.66
  Q 84.70 21.60 85.93 28.30
  Q 87.26 35.60 88.42 40.35
  C 88.73 41.63 88.72 43.66 89.41 44.87
  A 1.12 1.11 -9.0 0 0 90.16 45.41
  Q 93.74 46.12 95.27 49.76
  Q 98.24 56.81 100.69 63.69
  Z
  M 63.43 45.37
  Q 85.67 45.35 85.80 45.34
  A 0.26 0.25 -10.0 0 0 86.02 45.03
  L 82.24 28.01
  A 3.33 3.33 0.0 0 0 79.03 25.40
  Q 78.41 25.37 63.41 25.38
  Q 48.42 25.39 47.79 25.42
  A 3.33 3.33 0.0 0 0 44.59 28.03
  L 40.83 45.06
  A 0.26 0.25 9.9 0 0 41.05 45.37
  Q 41.18 45.38 63.43 45.37
  Z
  M 28.80 65.13
  A 0.33 0.33 0.0 0 0 29.11 65.58
  L 97.43 65.58
  A 0.33 0.33 0.0 0 0 97.74 65.13
  L 91.37 49.13
  A 0.33 0.33 0.0 0 0 91.07 48.92
  L 35.48 48.92
  A 0.33 0.33 0.0 0 0 35.18 49.13
  L 28.80 65.13
  Z
  M 13.80 65.34
  L 13.80 65.80
  A 1.61 1.60 -0.0 0 0 15.41 67.40
  L 23.34 67.40
  A 0.61 0.61 0.0 0 0 23.71 66.31
  L 21.29 64.47
  A 0.34 0.29 -23.0 0 0 21.10 64.41
  L 14.73 64.41
  A 0.93 0.93 0.0 0 0 13.80 65.34
  Z
  M 113.21 66.79
  L 113.07 64.71
  A 0.51 0.51 0.0 0 0 112.53 64.24
  L 107.98 64.52
  A 4.77 0.76 -3.6 0 0 103.27 65.58
  L 103.37 67.16
  A 4.77 0.76 -3.6 0 0 108.18 67.62
  L 112.73 67.33
  A 0.51 0.51 0.0 0 0 113.21 66.79
  Z
  M 108.21 110.37
  L 108.21 80.63
  A 1.87 1.81 -55.4 0 0 108.11 80.03
  Q 105.95 73.97 100.12 69.68
  A 1.83 1.81 62.8 0 0 99.05 69.33
  L 27.47 69.33
  A 2.05 2.01 -64.0 0 0 26.20 69.78
  Q 20.88 74.10 19.32 79.75
  A 3.47 3.10 55.9 0 0 19.20 80.64
  L 19.20 110.06
  A 1.67 1.67 0.0 0 0 20.87 111.73
  L 29.31 111.73
  A 1.18 1.18 0.0 0 0 30.49 110.55
  L 30.49 105.21
  A 2.02 2.02 0.0 0 1 32.51 103.19
  L 94.52 103.19
  A 2.27 2.27 0.0 0 1 96.79 105.46
  L 96.79 110.48
  A 1.21 1.21 0.0 0 0 98.00 111.69
  L 106.90 111.69
  A 1.32 1.31 -90.0 0 0 108.21 110.37
  Z"
/>
<path fill="#000000" d="
  M 74.43 32.08
  L 63.56 42.95
  A 0.77 0.77 0.0 0 1 62.54 43.02
  L 54.24 36.72
  A 0.77 0.77 0.0 0 1 54.09 35.64
  L 55.16 34.23
  A 0.77 0.77 0.0 0 1 56.24 34.08
  L 62.20 38.61
  A 0.77 0.77 0.0 0 0 63.22 38.54
  L 71.87 29.89
  A 0.77 0.77 0.0 0 1 72.89 29.82
  L 74.35 30.93
  A 0.77 0.77 0.0 0 1 74.43 32.08
  Z"
/>
<path fill="#000000" d="
  M 35.88 81.36
  C 39.49 82.26 40.19 84.37 40.71 87.84
  A 1.23 1.19 54.9 0 1 40.59 88.61
  Q 39.48 90.72 37.49 90.77
  Q 30.30 90.96 24.97 90.70
  A 2.98 2.97 -1.7 0 1 22.15 88.05
  L 21.52 82.33
  A 1.17 0.99 51.5 0 1 21.53 82.00
  C 21.92 79.92 23.50 79.13 25.75 79.52
  Q 34.54 81.02 35.88 81.36
  Z
  M 25.59 87.14
  A 0.27 0.27 0.0 0 0 25.86 87.38
  L 36.39 87.38
  A 0.47 0.47 0.0 0 0 36.86 86.87
  Q 36.76 85.49 35.80 85.05
  Q 33.28 83.88 25.52 83.11
  A 0.31 0.31 0.0 0 0 25.19 83.45
  L 25.59 87.14
  Z"
/>
<path fill="#000000" d="
  M 86.42 86.03
  L 87.27 83.90
  A 3.48 3.48 0.0 0 1 89.75 81.79
  L 100.91 79.31
  A 3.48 3.48 0.0 0 1 105.14 82.71
  L 105.14 87.32
  A 3.48 3.48 0.0 0 1 101.66 90.80
  L 89.65 90.80
  A 3.48 3.48 0.0 0 1 86.42 86.03
  Z
  M 101.69 86.90
  L 101.35 83.38
  A 0.20 0.20 0.0 0 0 101.14 83.20
  L 100.96 83.22
  A 11.28 1.34 -5.5 0 0 89.86 85.63
  L 89.98 86.89
  A 11.28 1.34 -5.5 0 0 101.33 87.14
  L 101.51 87.12
  A 0.20 0.20 0.0 0 0 101.69 86.90
  Z"
/>
<rect fill="#000000" x="45.47" y="80.90" width="35.74" height="3.64" rx="1.79"/>
</svg>
