<?xml version="1.0" encoding="UTF-8" standalone="no"?>
<!DOCTYPE svg PUBLIC "-//W3C//DTD SVG 1.1//EN" "http://www.w3.org/Graphics/SVG/1.1/DTD/svg11.dtd">
<svg xmlns="http://www.w3.org/2000/svg" version="1.1" viewBox="0.00 0.00 209.00 186.00">
<g stroke-width="2.00" fill="none" stroke-linecap="butt">
<path stroke="#dad9da" vector-effect="non-scaling-stroke" d="
  M 181.08 61.36
  A 15.06 15.06 0.0 0 0 166.02 46.30
  L 98.88 46.30
  A 15.06 15.06 0.0 0 0 83.82 61.36
  L 83.82 101.58
  A 15.06 15.06 0.0 0 0 98.88 116.64
  L 166.02 116.64
  A 15.06 15.06 0.0 0 0 181.08 101.58
  L 181.08 61.36"
/>
<path stroke="#dad9da" vector-effect="non-scaling-stroke" d="
  M 176.3613 61.1030
  A 9.83 9.83 0.0 0 0 166.5657 51.2388
  L 98.6261 51.0016
  A 9.83 9.83 0.0 0 0 88.7618 60.7972
  L 88.6187 101.7970
  A 9.83 9.83 0.0 0 0 98.4143 111.6612
  L 166.3539 111.8984
  A 9.83 9.83 0.0 0 0 176.2182 102.1028
  L 176.3613 61.1030"
/>
<path stroke="#dad9da" vector-effect="non-scaling-stroke" d="
  M 124.93 92.79
  Q 120.13 94.99 115.22 91.52
  C 108.75 86.96 108.15 78.24 114.03 72.80
  Q 118.54 68.63 126.60 70.67
  A 2.27 2.27 0.0 0 0 129.40 68.81
  L 129.42 68.63
  A 2.53 2.52 8.9 0 0 127.31 65.75
  Q 120.17 64.65 116.82 65.76
  C 106.39 69.24 101.78 80.79 107.32 90.21
  C 111.29 96.97 119.80 101.16 127.29 96.87
  A 2.13 2.12 -29.9 0 0 128.08 93.97
  L 127.95 93.75
  A 2.35 2.35 0.0 0 0 124.93 92.79"
/>
<path stroke="#dad9da" vector-effect="non-scaling-stroke" d="
  M 145.6064 65.1182
  A 16.67 16.35 -91.8 0 0 129.7881 82.2936
  A 16.67 16.35 -91.8 0 0 146.6536 98.4418
  A 16.67 16.35 -91.8 0 0 162.4719 81.2664
  A 16.67 16.35 -91.8 0 0 145.6064 65.1182"
/>
<path stroke="#dad9da" vector-effect="non-scaling-stroke" d="
  M 146.3263 69.8015
  A 11.86 11.35 -89.1 0 0 134.7914 81.4817
  A 11.86 11.35 -89.1 0 0 145.9537 93.5185
  A 11.86 11.35 -89.1 0 0 157.4886 81.8383
  A 11.86 11.35 -89.1 0 0 146.3263 69.8015"
/>
</g>
<path fill="#ffffff" d="
  M 209.00 0.00
  L 209.00 186.00
  L 0.00 186.00
  L 0.00 0.00
  L 209.00 0.00
  Z
  M 181.08 61.36
  A 15.06 15.06 0.0 0 0 166.02 46.30
  L 98.88 46.30
  A 15.06 15.06 0.0 0 0 83.82 61.36
  L 83.82 101.58
  A 15.06 15.06 0.0 0 0 98.88 116.64
  L 166.02 116.64
  A 15.06 15.06 0.0 0 0 181.08 101.58
  L 181.08 61.36
  Z"
/>
<path fill="#b4b2b5" d="
  M 181.08 101.58
  A 15.06 15.06 0.0 0 1 166.02 116.64
  L 98.88 116.64
  A 15.06 15.06 0.0 0 1 83.82 101.58
  L 83.82 61.36
  A 15.06 15.06 0.0 0 1 98.88 46.30
  L 166.02 46.30
  A 15.06 15.06 0.0 0 1 181.08 61.36
  L 181.08 101.58
  Z
  M 176.3613 61.1030
  A 9.83 9.83 0.0 0 0 166.5657 51.2388
  L 98.6261 51.0016
  A 9.83 9.83 0.0 0 0 88.7618 60.7972
  L 88.6187 101.7970
  A 9.83 9.83 0.0 0 0 98.4143 111.6612
  L 166.3539 111.8984
  A 9.83 9.83 0.0 0 0 176.2182 102.1028
  L 176.3613 61.1030
  Z"
/>
<path fill="#ffffff" d="
  M 176.2182 102.1028
  A 9.83 9.83 0.0 0 1 166.3539 111.8984
  L 98.4143 111.6612
  A 9.83 9.83 0.0 0 1 88.6187 101.7970
  L 88.7618 60.7972
  A 9.83 9.83 0.0 0 1 98.6261 51.0016
  L 166.5657 51.2388
  A 9.83 9.83 0.0 0 1 176.3613 61.1030
  L 176.2182 102.1028
  Z
  M 124.93 92.79
  Q 120.13 94.99 115.22 91.52
  C 108.75 86.96 108.15 78.24 114.03 72.80
  Q 118.54 68.63 126.60 70.67
  A 2.27 2.27 0.0 0 0 129.40 68.81
  L 129.42 68.63
  A 2.53 2.52 8.9 0 0 127.31 65.75
  Q 120.17 64.65 116.82 65.76
  C 106.39 69.24 101.78 80.79 107.32 90.21
  C 111.29 96.97 119.80 101.16 127.29 96.87
  A 2.13 2.12 -29.9 0 0 128.08 93.97
  L 127.95 93.75
  A 2.35 2.35 0.0 0 0 124.93 92.79
  Z
  M 145.6064 65.1182
  A 16.67 16.35 -91.8 0 0 129.7881 82.2936
  A 16.67 16.35 -91.8 0 0 146.6536 98.4418
  A 16.67 16.35 -91.8 0 0 162.4719 81.2664
  A 16.67 16.35 -91.8 0 0 145.6064 65.1182
  Z"
/>
<path fill="#b4b2b5" d="
  M 124.93 92.79
  A 2.35 2.35 0.0 0 1 127.95 93.75
  L 128.08 93.97
  A 2.13 2.12 -29.9 0 1 127.29 96.87
  C 119.80 101.16 111.29 96.97 107.32 90.21
  C 101.78 80.79 106.39 69.24 116.82 65.76
  Q 120.17 64.65 127.31 65.75
  A 2.53 2.52 8.9 0 1 129.42 68.63
  L 129.40 68.81
  A 2.27 2.27 0.0 0 1 126.60 70.67
  Q 118.54 68.63 114.03 72.80
  C 108.15 78.24 108.75 86.96 115.22 91.52
  Q 120.13 94.99 124.93 92.79
  Z"
/>
<path fill="#b4b2b5" d="
  M 145.6064 65.1182
  A 16.67 16.35 -91.8 0 1 162.4719 81.2664
  A 16.67 16.35 -91.8 0 1 146.6536 98.4418
  A 16.67 16.35 -91.8 0 1 129.7881 82.2936
  A 16.67 16.35 -91.8 0 1 145.6064 65.1182
  Z
  M 146.3263 69.8015
  A 11.86 11.35 -89.1 0 0 134.7914 81.4817
  A 11.86 11.35 -89.1 0 0 145.9537 93.5185
  A 11.86 11.35 -89.1 0 0 157.4886 81.8383
  A 11.86 11.35 -89.1 0 0 146.3263 69.8015
  Z"
/>
<ellipse fill="#ffffff" cx="0.00" cy="0.00" transform="translate(146.14,81.66) rotate(-89.1)" rx="11.86" ry="11.35"/>
</svg>
