<?xml version="1.0" encoding="UTF-8" standalone="no"?>
<!DOCTYPE svg PUBLIC "-//W3C//DTD SVG 1.1//EN" "http://www.w3.org/Graphics/SVG/1.1/DTD/svg11.dtd">
<svg xmlns="http://www.w3.org/2000/svg" version="1.1" viewBox="0.00 0.00 209.00 197.00">
<g stroke-width="2.00" fill="none" stroke-linecap="butt">
<path stroke="#808080" vector-effect="non-scaling-stroke" d="
  M 39.25 113.13
  Q 39.02 131.67 39.21 150.51
  Q 39.28 156.88 40.74 159.16
  Q 42.99 162.69 48.48 162.70
  Q 49.42 162.70 58.18 162.59
  A 2.29 2.22 -52.2 0 0 58.81 162.50
  C 64.71 160.88 65.50 156.41 65.04 151.06
  A 0.61 0.61 0.0 0 1 65.65 150.40
  L 149.65 150.40
  A 0.59 0.58 -85.3 0 1 150.22 151.08
  Q 148.64 160.35 156.60 162.51
  A 4.37 4.27 51.4 0 0 157.90 162.67
  C 165.00 162.53 176.12 164.82 176.40 154.10
  Q 176.45 152.23 176.51 119.68
  Q 176.52 112.78 175.17 109.18
  Q 173.27 104.07 169.72 100.06
  A 0.60 0.60 0.0 0 1 170.15 99.06
  Q 170.18 99.06 176.28 98.94
  C 184.58 98.77 185.77 86.12 177.35 85.09
  C 175.41 84.86 169.32 84.89 166.90 85.10
  A 2.27 2.21 -67.3 0 0 165.61 85.65
  L 161.57 89.22
  A 0.49 0.49 0.0 0 1 160.79 89.02
  Q 157.36 79.90 154.58 72.89
  C 152.58 67.87 150.97 63.52 145.65 62.88
  A 1.60 1.60 0.0 0 1 144.28 61.61
  Q 142.14 51.02 140.17 41.97
  C 138.98 36.54 138.48 31.32 132.45 29.54
  Q 130.58 28.99 126.47 28.99
  Q 119.84 28.99 114.01 28.78"
/>
<path stroke="#fef6f6" vector-effect="non-scaling-stroke" d="
  M 114.01 28.78
  Q 93.66 13.98 70.68 17.78
  C 35.09 23.65 15.09 58.64 26.24 92.48
  Q 29.90 103.58 39.25 113.13"
/>
<path stroke="#7f7776" vector-effect="non-scaling-stroke" d="
  M 114.01 28.78
  Q 100.04 29.05 87.26 28.98
  Q 79.60 28.94 76.35 35.51
  A 2.79 2.37 -30.9 0 0 76.17 36.04
  L 70.29 62.36
  A 0.59 0.58 -84.7 0 1 69.75 62.82
  Q 63.96 63.13 61.90 68.21
  Q 56.48 81.56 53.96 88.33
  A 0.69 0.69 0.0 0 1 52.83 88.58
  L 49.84 85.59
  A 1.74 1.74 0.0 0 0 48.61 85.08
  L 36.76 85.08
  A 1.62 1.55 28.6 0 0 35.95 85.30
  C 29.87 88.92 31.08 96.51 37.67 98.66
  A 1.06 0.96 -33.7 0 0 38.07 98.72
  L 45.76 98.58
  A 0.33 0.33 0.0 0 1 46.01 99.13
  Q 40.94 104.92 39.25 113.13"
/>
<path stroke="#808080" vector-effect="non-scaling-stroke" d="
  M 107.48 62.69
  Q 137.85 62.69 139.45 62.64
  A 0.30 0.30 0.0 0 0 139.74 62.28
  Q 137.70 53.29 134.61 38.65
  C 133.80 34.80 131.48 34.09 127.65 34.03
  Q 126.56 34.02 107.47 34.02
  Q 88.39 34.02 87.30 34.04
  C 83.47 34.09 81.15 34.81 80.34 38.66
  Q 77.25 53.30 75.21 62.29
  A 0.30 0.30 0.0 0 0 75.50 62.65
  Q 77.11 62.69 107.48 62.69"
/>
<path stroke="#808080" vector-effect="non-scaling-stroke" d="
  M 133.22 91.74
  L 156.47 91.75
  A 0.39 0.39 0.0 0 0 156.83 91.21
  Q 152.83 81.26 148.81 71.21
  Q 147.33 67.49 143.52 67.55
  Q 139.77 67.60 135.89 67.57"
/>
<path stroke="#7f7776" vector-effect="non-scaling-stroke" d="
  M 135.89 67.57
  Q 104.72 67.59 73.38 67.53
  C 69.89 67.52 67.39 67.18 66.10 70.38
  Q 61.85 80.88 57.69 91.30
  A 0.32 0.32 0.0 0 0 57.99 91.74
  L 133.22 91.74"
/>
<path stroke="#fef6f6" vector-effect="non-scaling-stroke" d="
  M 135.89 67.57
  Q 136.47 79.81 133.22 91.74"
/>
<path stroke="#808080" vector-effect="non-scaling-stroke" d="
  M 51.04 93.33
  L 48.14 90.42
  A 2.17 2.16 -22.0 0 0 46.60 89.77
  L 38.41 89.73
  A 1.80 1.80 0.0 0 0 36.64 91.84
  L 36.67 91.98
  A 2.68 2.67 85.5 0 0 39.33 94.26
  L 50.68 94.22
  A 0.52 0.52 0.0 0 0 51.04 93.33"
/>
<path stroke="#808080" vector-effect="non-scaling-stroke" d="
  M 163.84 93.43
  A 0.53 0.53 0.0 0 0 164.21 94.34
  L 175.82 94.41
  A 2.75 2.74 -85.4 0 0 178.55 92.08
  L 178.58 91.94
  A 1.84 1.84 0.0 0 0 176.77 89.78
  L 168.39 89.80
  A 2.22 2.21 22.2 0 0 166.81 90.46
  L 163.84 93.43"
/>
<path stroke="#808080" vector-effect="non-scaling-stroke" d="
  M 46.43 157.52
  L 58.17 157.52
  A 2.23 2.23 0.0 0 0 60.40 155.29
  L 60.40 148.28
  A 3.00 3.00 0.0 0 1 63.40 145.28
  L 151.98 145.28
  A 1.59 1.58 55.5 0 1 152.56 145.39
  C 156.23 146.82 155.28 151.17 155.36 155.60
  A 1.97 1.97 0.0 0 0 157.33 157.53
  L 169.12 157.53
  A 2.34 2.33 -90.0 0 0 171.45 155.19
  L 171.45 113.71
  A 3.08 2.91 -55.4 0 0 171.31 112.80
  C 169.02 105.50 165.45 102.04 159.80 97.21
  A 1.56 1.56 0.0 0 0 158.78 96.83
  L 55.65 96.83
  A 1.44 1.36 25.2 0 0 54.80 97.11
  Q 47.08 102.89 44.42 111.79
  A 3.52 3.42 -37.1 0 0 44.26 112.83
  L 44.26 155.35
  A 2.17 2.17 0.0 0 0 46.43 157.52"
/>
<path stroke="#808080" vector-effect="non-scaling-stroke" d="
  M 106.86 53.13
  A 0.50 0.49 -48.7 0 1 106.21 53.18
  L 97.95 47.04
  A 2.27 2.27 0.0 0 0 94.81 47.47
  L 94.63 47.71
  A 2.26 2.26 0.0 0 0 95.06 50.96
  Q 101.71 55.79 104.73 58.29
  Q 106.90 60.08 108.61 58.36
  Q 118.89 48.00 122.81 44.24
  A 1.76 1.76 0.0 0 0 122.83 41.72
  L 121.88 40.76
  A 1.88 1.87 44.9 0 0 119.23 40.76
  L 106.86 53.13"
/>
<path stroke="#808080" vector-effect="non-scaling-stroke" d="
  M 52.77 111.33
  C 50.58 110.96 49.48 111.87 48.06 113.44
  A 2.15 2.14 63.7 0 0 47.51 115.09
  L 48.38 123.89
  A 2.55 2.43 -63.1 0 0 48.65 124.79
  Q 50.08 127.43 53.50 127.59
  Q 63.42 128.05 70.98 127.55
  Q 73.23 127.40 74.80 124.44
  A 1.81 1.77 -38.0 0 0 74.96 123.23
  C 73.46 116.17 72.52 114.73 64.71 113.38
  Q 58.73 112.34 52.77 111.33"
/>
<path stroke="#808080" vector-effect="non-scaling-stroke" d="
  M 140.66 125.58
  Q 142.08 127.61 144.76 127.71
  Q 156.48 128.14 162.14 127.51
  Q 165.15 127.17 166.88 124.00
  A 2.15 2.14 -29.6 0 0 167.14 123.06
  C 167.27 118.09 168.33 110.08 161.32 111.43
  C 158.34 112.01 155.39 112.54 149.11 113.54
  Q 139.22 115.10 140.19 124.32
  A 2.67 2.65 24.8 0 0 140.66 125.58"
/>
<path stroke="#808080" vector-effect="non-scaling-stroke" d="
  M 132.87 115.98
  A 2.54 2.54 0.0 0 0 130.33 113.44
  L 84.37 113.44
  A 2.54 2.54 0.0 0 0 81.83 115.98
  L 81.83 116.06
  A 2.54 2.54 0.0 0 0 84.37 118.60
  L 130.33 118.60
  A 2.54 2.54 0.0 0 0 132.87 116.06
  L 132.87 115.98"
/>
<path stroke="#808080" vector-effect="non-scaling-stroke" d="
  M 52.75 116.96
  L 53.27 122.31
  A 0.42 0.41 -3.0 0 0 53.69 122.68
  L 69.21 122.68
  A 0.49 0.49 0.0 0 0 69.69 122.11
  Q 69.23 119.43 66.86 118.88
  Q 60.20 117.35 53.13 116.58
  A 0.34 0.34 0.0 0 0 52.75 116.96"
/>
<path stroke="#808080" vector-effect="non-scaling-stroke" d="
  M 162.20 116.93
  A 0.35 0.35 0.0 0 0 161.81 116.54
  Q 154.65 117.33 147.91 118.88
  Q 145.50 119.44 145.04 122.16
  A 0.49 0.49 0.0 0 0 145.53 122.73
  L 161.25 122.72
  A 0.43 0.42 3.0 0 0 161.67 122.35
  L 162.20 116.93"
/>
</g>
<path fill="#ffffff" d="
  M 209.00 0.00
  L 209.00 197.00
  L 0.00 197.00
  L 0.00 0.00
  L 209.00 0.00
  Z
  M 39.25 113.13
  Q 39.02 131.67 39.21 150.51
  Q 39.28 156.88 40.74 159.16
  Q 42.99 162.69 48.48 162.70
  Q 49.42 162.70 58.18 162.59
  A 2.29 2.22 -52.2 0 0 58.81 162.50
  C 64.71 160.88 65.50 156.41 65.04 151.06
  A 0.61 0.61 0.0 0 1 65.65 150.40
  L 149.65 150.40
  A 0.59 0.58 -85.3 0 1 150.22 151.08
  Q 148.64 160.35 156.60 162.51
  A 4.37 4.27 51.4 0 0 157.90 162.67
  C 165.00 162.53 176.12 164.82 176.40 154.10
  Q 176.45 152.23 176.51 119.68
  Q 176.52 112.78 175.17 109.18
  Q 173.27 104.07 169.72 100.06
  A 0.60 0.60 0.0 0 1 170.15 99.06
  Q 170.18 99.06 176.28 98.94
  C 184.58 98.77 185.77 86.12 177.35 85.09
  C 175.41 84.86 169.32 84.89 166.90 85.10
  A 2.27 2.21 -67.3 0 0 165.61 85.65
  L 161.57 89.22
  A 0.49 0.49 0.0 0 1 160.79 89.02
  Q 157.36 79.90 154.58 72.89
  C 152.58 67.87 150.97 63.52 145.65 62.88
  A 1.60 1.60 0.0 0 1 144.28 61.61
  Q 142.14 51.02 140.17 41.97
  C 138.98 36.54 138.48 31.32 132.45 29.54
  Q 130.58 28.99 126.47 28.99
  Q 119.84 28.99 114.01 28.78
  Q 93.66 13.98 70.68 17.78
  C 35.09 23.65 15.09 58.64 26.24 92.48
  Q 29.90 103.58 39.25 113.13
  Z"
/>
<path fill="#fdedec" d="
  M 114.01 28.78
  Q 100.04 29.05 87.26 28.98
  Q 79.60 28.94 76.35 35.51
  A 2.79 2.37 -30.9 0 0 76.17 36.04
  L 70.29 62.36
  A 0.59 0.58 -84.7 0 1 69.75 62.82
  Q 63.96 63.13 61.90 68.21
  Q 56.48 81.56 53.96 88.33
  A 0.69 0.69 0.0 0 1 52.83 88.58
  L 49.84 85.59
  A 1.74 1.74 0.0 0 0 48.61 85.08
  L 36.76 85.08
  A 1.62 1.55 28.6 0 0 35.95 85.30
  C 29.87 88.92 31.08 96.51 37.67 98.66
  A 1.06 0.96 -33.7 0 0 38.07 98.72
  L 45.76 98.58
  A 0.33 0.33 0.0 0 1 46.01 99.13
  Q 40.94 104.92 39.25 113.13
  Q 29.90 103.58 26.24 92.48
  C 15.09 58.64 35.09 23.65 70.68 17.78
  Q 93.66 13.98 114.01 28.78
  Z"
/>
<path fill="#000000" d="
  M 114.01 28.78
  Q 119.84 28.99 126.47 28.99
  Q 130.58 28.99 132.45 29.54
  C 138.48 31.32 138.98 36.54 140.17 41.97
  Q 142.14 51.02 144.28 61.61
  A 1.60 1.60 0.0 0 0 145.65 62.88
  C 150.97 63.52 152.58 67.87 154.58 72.89
  Q 157.36 79.90 160.79 89.02
  A 0.49 0.49 0.0 0 0 161.57 89.22
  L 165.61 85.65
  A 2.27 2.21 -67.3 0 1 166.90 85.10
  C 169.32 84.89 175.41 84.86 177.35 85.09
  C 185.77 86.12 184.58 98.77 176.28 98.94
  Q 170.18 99.06 170.15 99.06
  A 0.60 0.60 0.0 0 0 169.72 100.06
  Q 173.27 104.07 175.17 109.18
  Q 176.52 112.78 176.51 119.68
  Q 176.45 152.23 176.40 154.10
  C 176.12 164.82 165.00 162.53 157.90 162.67
  A 4.37 4.27 51.4 0 1 156.60 162.51
  Q 148.64 160.35 150.22 151.08
  A 0.59 0.58 -85.3 0 0 149.65 150.40
  L 65.65 150.40
  A 0.61 0.61 0.0 0 0 65.04 151.06
  C 65.50 156.41 64.71 160.88 58.81 162.50
  A 2.29 2.22 -52.2 0 1 58.18 162.59
  Q 49.42 162.70 48.48 162.70
  Q 42.99 162.69 40.74 159.16
  Q 39.28 156.88 39.21 150.51
  Q 39.02 131.67 39.25 113.13
  Q 40.94 104.92 46.01 99.13
  A 0.33 0.33 0.0 0 0 45.76 98.58
  L 38.07 98.72
  A 1.06 0.96 -33.7 0 1 37.67 98.66
  C 31.08 96.51 29.87 88.92 35.95 85.30
  A 1.62 1.55 28.6 0 1 36.76 85.08
  L 48.61 85.08
  A 1.74 1.74 0.0 0 1 49.84 85.59
  L 52.83 88.58
  A 0.69 0.69 0.0 0 0 53.96 88.33
  Q 56.48 81.56 61.90 68.21
  Q 63.96 63.13 69.75 62.82
  A 0.59 0.58 -84.7 0 0 70.29 62.36
  L 76.17 36.04
  A 2.79 2.37 -30.9 0 1 76.35 35.51
  Q 79.60 28.94 87.26 28.98
  Q 100.04 29.05 114.01 28.78
  Z
  M 107.48 62.69
  Q 137.85 62.69 139.45 62.64
  A 0.30 0.30 0.0 0 0 139.74 62.28
  Q 137.70 53.29 134.61 38.65
  C 133.80 34.80 131.48 34.09 127.65 34.03
  Q 126.56 34.02 107.47 34.02
  Q 88.39 34.02 87.30 34.04
  C 83.47 34.09 81.15 34.81 80.34 38.66
  Q 77.25 53.30 75.21 62.29
  A 0.30 0.30 0.0 0 0 75.50 62.65
  Q 77.11 62.69 107.48 62.69
  Z
  M 133.22 91.74
  L 156.47 91.75
  A 0.39 0.39 0.0 0 0 156.83 91.21
  Q 152.83 81.26 148.81 71.21
  Q 147.33 67.49 143.52 67.55
  Q 139.77 67.60 135.89 67.57
  Q 104.72 67.59 73.38 67.53
  C 69.89 67.52 67.39 67.18 66.10 70.38
  Q 61.85 80.88 57.69 91.30
  A 0.32 0.32 0.0 0 0 57.99 91.74
  L 133.22 91.74
  Z
  M 51.04 93.33
  L 48.14 90.42
  A 2.17 2.16 -22.0 0 0 46.60 89.77
  L 38.41 89.73
  A 1.80 1.80 0.0 0 0 36.64 91.84
  L 36.67 91.98
  A 2.68 2.67 85.5 0 0 39.33 94.26
  L 50.68 94.22
  A 0.52 0.52 0.0 0 0 51.04 93.33
  Z
  M 163.84 93.43
  A 0.53 0.53 0.0 0 0 164.21 94.34
  L 175.82 94.41
  A 2.75 2.74 -85.4 0 0 178.55 92.08
  L 178.58 91.94
  A 1.84 1.84 0.0 0 0 176.77 89.78
  L 168.39 89.80
  A 2.22 2.21 22.2 0 0 166.81 90.46
  L 163.84 93.43
  Z
  M 46.43 157.52
  L 58.17 157.52
  A 2.23 2.23 0.0 0 0 60.40 155.29
  L 60.40 148.28
  A 3.00 3.00 0.0 0 1 63.40 145.28
  L 151.98 145.28
  A 1.59 1.58 55.5 0 1 152.56 145.39
  C 156.23 146.82 155.28 151.17 155.36 155.60
  A 1.97 1.97 0.0 0 0 157.33 157.53
  L 169.12 157.53
  A 2.34 2.33 -90.0 0 0 171.45 155.19
  L 171.45 113.71
  A 3.08 2.91 -55.4 0 0 171.31 112.80
  C 169.02 105.50 165.45 102.04 159.80 97.21
  A 1.56 1.56 0.0 0 0 158.78 96.83
  L 55.65 96.83
  A 1.44 1.36 25.2 0 0 54.80 97.11
  Q 47.08 102.89 44.42 111.79
  A 3.52 3.42 -37.1 0 0 44.26 112.83
  L 44.26 155.35
  A 2.17 2.17 0.0 0 0 46.43 157.52
  Z"
/>
<path fill="#ffffff" d="
  M 107.47 34.02
  Q 126.56 34.02 127.65 34.03
  C 131.48 34.09 133.80 34.80 134.61 38.65
  Q 137.70 53.29 139.74 62.28
  A 0.30 0.30 0.0 0 1 139.45 62.64
  Q 137.85 62.69 107.48 62.69
  Q 77.11 62.69 75.50 62.65
  A 0.30 0.30 0.0 0 1 75.21 62.29
  Q 77.25 53.30 80.34 38.66
  C 81.15 34.81 83.47 34.09 87.30 34.04
  Q 88.39 34.02 107.47 34.02
  Z
  M 106.86 53.13
  A 0.50 0.49 -48.7 0 1 106.21 53.18
  L 97.95 47.04
  A 2.27 2.27 0.0 0 0 94.81 47.47
  L 94.63 47.71
  A 2.26 2.26 0.0 0 0 95.06 50.96
  Q 101.71 55.79 104.73 58.29
  Q 106.90 60.08 108.61 58.36
  Q 118.89 48.00 122.81 44.24
  A 1.76 1.76 0.0 0 0 122.83 41.72
  L 121.88 40.76
  A 1.88 1.87 44.9 0 0 119.23 40.76
  L 106.86 53.13
  Z"
/>
<path fill="#000000" d="
  M 106.86 53.13
  L 119.23 40.76
  A 1.88 1.87 44.9 0 1 121.88 40.76
  L 122.83 41.72
  A 1.76 1.76 0.0 0 1 122.81 44.24
  Q 118.89 48.00 108.61 58.36
  Q 106.90 60.08 104.73 58.29
  Q 101.71 55.79 95.06 50.96
  A 2.26 2.26 0.0 0 1 94.63 47.71
  L 94.81 47.47
  A 2.27 2.27 0.0 0 1 97.95 47.04
  L 106.21 53.18
  A 0.50 0.49 -48.7 0 0 106.86 53.13
  Z"
/>
<path fill="#fdedec" d="
  M 135.89 67.57
  Q 136.47 79.81 133.22 91.74
  L 57.99 91.74
  A 0.32 0.32 0.0 0 1 57.69 91.30
  Q 61.85 80.88 66.10 70.38
  C 67.39 67.18 69.89 67.52 73.38 67.53
  Q 104.72 67.59 135.89 67.57
  Z"
/>
<path fill="#ffffff" d="
  M 133.22 91.74
  Q 136.47 79.81 135.89 67.57
  Q 139.77 67.60 143.52 67.55
  Q 147.33 67.49 148.81 71.21
  Q 152.83 81.26 156.83 91.21
  A 0.39 0.39 0.0 0 1 156.47 91.75
  L 133.22 91.74
  Z"
/>
<path fill="#ffffff" d="
  M 51.04 93.33
  A 0.52 0.52 0.0 0 1 50.68 94.22
  L 39.33 94.26
  A 2.68 2.67 85.5 0 1 36.67 91.98
  L 36.64 91.84
  A 1.80 1.80 0.0 0 1 38.41 89.73
  L 46.60 89.77
  A 2.17 2.16 -22.0 0 1 48.14 90.42
  L 51.04 93.33
  Z"
/>
<path fill="#ffffff" d="
  M 163.84 93.43
  L 166.81 90.46
  A 2.22 2.21 22.2 0 1 168.39 89.80
  L 176.77 89.78
  A 1.84 1.84 0.0 0 1 178.58 91.94
  L 178.55 92.08
  A 2.75 2.74 -85.4 0 1 175.82 94.41
  L 164.21 94.34
  A 0.53 0.53 0.0 0 1 163.84 93.43
  Z"
/>
<path fill="#ffffff" d="
  M 46.43 157.52
  A 2.17 2.17 0.0 0 1 44.26 155.35
  L 44.26 112.83
  A 3.52 3.42 -37.1 0 1 44.42 111.79
  Q 47.08 102.89 54.80 97.11
  A 1.44 1.36 25.2 0 1 55.65 96.83
  L 158.78 96.83
  A 1.56 1.56 0.0 0 1 159.80 97.21
  C 165.45 102.04 169.02 105.50 171.31 112.80
  A 3.08 2.91 -55.4 0 1 171.45 113.71
  L 171.45 155.19
  A 2.34 2.33 90.0 0 1 169.12 157.53
  L 157.33 157.53
  A 1.97 1.97 0.0 0 1 155.36 155.60
  C 155.28 151.17 156.23 146.82 152.56 145.39
  A 1.59 1.58 55.5 0 0 151.98 145.28
  L 63.40 145.28
  A 3.00 3.00 0.0 0 0 60.40 148.28
  L 60.40 155.29
  A 2.23 2.23 0.0 0 1 58.17 157.52
  L 46.43 157.52
  Z
  M 52.77 111.33
  C 50.58 110.96 49.48 111.87 48.06 113.44
  A 2.15 2.14 63.7 0 0 47.51 115.09
  L 48.38 123.89
  A 2.55 2.43 -63.1 0 0 48.65 124.79
  Q 50.08 127.43 53.50 127.59
  Q 63.42 128.05 70.98 127.55
  Q 73.23 127.40 74.80 124.44
  A 1.81 1.77 -38.0 0 0 74.96 123.23
  C 73.46 116.17 72.52 114.73 64.71 113.38
  Q 58.73 112.34 52.77 111.33
  Z
  M 140.66 125.58
  Q 142.08 127.61 144.76 127.71
  Q 156.48 128.14 162.14 127.51
  Q 165.15 127.17 166.88 124.00
  A 2.15 2.14 -29.6 0 0 167.14 123.06
  C 167.27 118.09 168.33 110.08 161.32 111.43
  C 158.34 112.01 155.39 112.54 149.11 113.54
  Q 139.22 115.10 140.19 124.32
  A 2.67 2.65 24.8 0 0 140.66 125.58
  Z
  M 132.87 115.98
  A 2.54 2.54 0.0 0 0 130.33 113.44
  L 84.37 113.44
  A 2.54 2.54 0.0 0 0 81.83 115.98
  L 81.83 116.06
  A 2.54 2.54 0.0 0 0 84.37 118.60
  L 130.33 118.60
  A 2.54 2.54 0.0 0 0 132.87 116.06
  L 132.87 115.98
  Z"
/>
<path fill="#000000" d="
  M 48.06 113.44
  C 49.48 111.87 50.58 110.96 52.77 111.33
  Q 58.73 112.34 64.71 113.38
  C 72.52 114.73 73.46 116.17 74.96 123.23
  A 1.81 1.77 -38.0 0 1 74.80 124.44
  Q 73.23 127.40 70.98 127.55
  Q 63.42 128.05 53.50 127.59
  Q 50.08 127.43 48.65 124.79
  A 2.55 2.43 -63.1 0 1 48.38 123.89
  L 47.51 115.09
  A 2.15 2.14 63.7 0 1 48.06 113.44
  Z
  M 52.75 116.96
  L 53.27 122.31
  A 0.42 0.41 -3.0 0 0 53.69 122.68
  L 69.21 122.68
  A 0.49 0.49 0.0 0 0 69.69 122.11
  Q 69.23 119.43 66.86 118.88
  Q 60.20 117.35 53.13 116.58
  A 0.34 0.34 0.0 0 0 52.75 116.96
  Z"
/>
<path fill="#000000" d="
  M 140.19 124.32
  Q 139.22 115.10 149.11 113.54
  C 155.39 112.54 158.34 112.01 161.32 111.43
  C 168.33 110.08 167.27 118.09 167.14 123.06
  A 2.15 2.14 -29.6 0 1 166.88 124.00
  Q 165.15 127.17 162.14 127.51
  Q 156.48 128.14 144.76 127.71
  Q 142.08 127.61 140.66 125.58
  A 2.67 2.65 24.8 0 1 140.19 124.32
  Z
  M 162.20 116.93
  A 0.35 0.35 0.0 0 0 161.81 116.54
  Q 154.65 117.33 147.91 118.88
  Q 145.50 119.44 145.04 122.16
  A 0.49 0.49 0.0 0 0 145.53 122.73
  L 161.25 122.72
  A 0.43 0.42 3.0 0 0 161.67 122.35
  L 162.20 116.93
  Z"
/>
<rect fill="#000000" x="81.83" y="113.44" width="51.04" height="5.16" rx="2.54"/>
<path fill="#ffffff" d="
  M 53.13 116.58
  Q 60.20 117.35 66.86 118.88
  Q 69.23 119.43 69.69 122.11
  A 0.49 0.49 0.0 0 1 69.21 122.68
  L 53.69 122.68
  A 0.42 0.41 -3.0 0 1 53.27 122.31
  L 52.75 116.96
  A 0.34 0.34 0.0 0 1 53.13 116.58
  Z"
/>
<path fill="#ffffff" d="
  M 162.20 116.93
  L 161.67 122.35
  A 0.43 0.42 3.0 0 1 161.25 122.72
  L 145.53 122.73
  A 0.49 0.49 0.0 0 1 145.04 122.16
  Q 145.50 119.44 147.91 118.88
  Q 154.65 117.33 161.81 116.54
  A 0.35 0.35 0.0 0 1 162.20 116.93
  Z"
/>
</svg>
