<?xml version="1.0" encoding="UTF-8" standalone="no"?>
<!DOCTYPE svg PUBLIC "-//W3C//DTD SVG 1.1//EN" "http://www.w3.org/Graphics/SVG/1.1/DTD/svg11.dtd">
<svg xmlns="http://www.w3.org/2000/svg" version="1.1" viewBox="0.00 0.00 209.00 197.00">
<g stroke-width="2.00" fill="none" stroke-linecap="butt">
<path stroke="#d9d8da" vector-effect="non-scaling-stroke" d="
  M 170.10 99.04
  Q 174.83 98.92 175.76 98.92
  C 183.79 98.92 185.95 88.15 178.44 85.19
  A 1.15 1.11 54.2 0 0 178.05 85.12
  L 166.80 85.05
  A 1.64 1.61 -67.1 0 0 165.65 85.53
  L 161.74 89.44
  A 0.56 0.56 0.0 0 1 160.82 89.24
  Q 156.92 78.95 153.02 69.25
  Q 150.89 63.95 145.52 62.86
  A 1.68 1.67 -0.2 0 1 144.22 61.58
  Q 143.05 56.05 139.60 39.47
  C 138.32 33.30 135.83 29.35 129.46 29.10
  Q 120.34 28.74 87.53 29.02
  Q 81.00 29.07 77.68 33.42
  C 75.90 35.74 75.15 40.12 74.56 43.04
  Q 72.43 53.69 70.39 62.31
  A 0.70 0.69 -85.4 0 1 69.77 62.84
  Q 63.89 63.25 61.78 68.56
  Q 54.17 87.73 54.01 88.34
  A 0.70 0.70 0.0 0 1 52.84 88.67
  L 49.75 85.61
  A 1.40 1.34 67.8 0 0 48.88 85.22
  Q 45.33 84.97 39.18 85.02
  Q 32.80 85.07 32.10 91.23
  C 31.80 93.86 33.30 96.11 35.33 97.64
  C 37.30 99.13 43.02 98.68 45.54 98.40
  A 0.52 0.52 0.0 0 1 45.99 99.25
  Q 42.38 103.47 40.45 108.70
  Q 39.17 112.14 39.20 119.46
  Q 39.27 140.71 39.22 151.80
  C 39.20 155.93 40.03 159.82 43.73 161.76
  C 46.45 163.20 55.60 162.54 58.12 162.50
  A 2.84 2.67 35.5 0 0 58.86 162.40
  C 64.85 160.74 65.15 156.27 65.10 150.90
  A 0.62 0.62 0.0 0 1 65.72 150.27
  L 149.65 150.27
  A 0.67 0.66 5.0 0 1 150.31 151.05
  Q 148.71 159.86 156.13 162.33
  A 4.32 4.11 -34.7 0 0 157.54 162.55
  Q 158.68 162.54 168.48 162.50
  C 174.89 162.48 176.52 156.64 176.44 151.25
  Q 176.31 143.49 176.45 120.44
  Q 176.49 113.12 175.22 109.57
  Q 173.36 104.34 169.65 100.05
  A 0.61 0.61 0.0 0 1 170.10 99.04"
/>
<path stroke="#d9d8da" vector-effect="non-scaling-stroke" d="
  M 107.49 62.69
  Q 127.40 62.69 139.29 62.71
  A 0.49 0.48 83.7 0 0 139.76 62.12
  Q 138.04 54.32 134.69 38.81
  Q 133.64 33.94 129.24 33.95
  Q 118.26 33.96 107.49 33.96
  Q 96.73 33.96 85.74 33.95
  Q 81.34 33.94 80.29 38.81
  Q 76.94 54.32 75.22 62.12
  A 0.49 0.48 -83.7 0 0 75.69 62.71
  Q 87.59 62.69 107.49 62.69"
/>
<path stroke="#d9d8da" vector-effect="non-scaling-stroke" d="
  M 107.26 91.73
  Q 120.42 91.73 156.56 91.80
  A 0.37 0.37 0.0 0 0 156.90 91.29
  Q 149.86 73.58 148.64 70.69
  Q 147.24 67.40 144.00 67.42
  Q 137.46 67.48 107.26 67.48
  Q 77.06 67.48 70.53 67.42
  Q 67.29 67.39 65.89 70.68
  Q 64.67 73.57 57.62 91.28
  A 0.37 0.37 0.0 0 0 57.96 91.79
  Q 94.11 91.73 107.26 91.73"
/>
<path stroke="#d9d8da" vector-effect="non-scaling-stroke" d="
  M 50.71 94.30
  A 0.56 0.56 0.0 0 0 51.11 93.34
  L 48.22 90.42
  A 2.45 2.43 67.3 0 0 46.48 89.69
  L 38.39 89.66
  A 1.83 1.83 0.0 0 0 36.59 91.83
  L 36.62 92.06
  A 2.83 2.83 0.0 0 0 39.40 94.34
  L 50.71 94.30"
/>
<path stroke="#d9d8da" vector-effect="non-scaling-stroke" d="
  M 164.23 94.40
  L 175.77 94.49
  A 2.89 2.88 5.8 0 0 178.61 92.18
  L 178.65 91.95
  A 1.87 1.86 -84.5 0 0 176.82 89.73
  L 168.57 89.72
  A 2.50 2.47 -67.1 0 0 166.79 90.45
  L 163.83 93.42
  A 0.57 0.57 0.0 0 0 164.23 94.40"
/>
<path stroke="#d9d8da" vector-effect="non-scaling-stroke" d="
  M 60.60 148.05
  A 2.68 2.68 0.0 0 1 63.28 145.39
  L 152.39 145.39
  A 0.12 0.06 -16.8 0 1 152.44 145.40
  Q 154.87 146.26 155.06 148.28
  Q 155.18 149.57 155.26 155.62
  A 1.98 1.98 0.0 0 0 157.19 157.58
  Q 161.90 157.71 168.33 157.60
  C 170.05 157.57 171.60 156.76 171.59 155.00
  Q 171.48 135.57 171.59 118.32
  Q 171.63 112.64 170.40 109.86
  C 168.02 104.50 164.92 101.82 160.56 97.67
  A 3.19 3.18 -23.2 0 0 158.37 96.80
  L 55.60 96.80
  A 1.41 1.38 26.0 0 0 54.76 97.08
  Q 47.31 102.72 44.48 111.37
  A 5.71 5.45 -37.3 0 0 44.21 113.08
  L 44.21 154.96
  A 2.64 2.64 0.0 0 0 46.82 157.60
  Q 53.57 157.68 57.58 157.63
  Q 60.24 157.59 60.37 155.06
  Q 60.57 151.19 60.60 148.05"
/>
<path stroke="#d9d8da" vector-effect="non-scaling-stroke" d="
  M 105.93 53.12
  L 97.94 47.08
  A 2.23 2.23 0.0 0 0 94.78 47.55
  L 94.65 47.73
  A 2.27 2.26 -53.4 0 0 95.12 50.95
  Q 101.40 55.49 104.77 58.23
  Q 106.99 60.05 108.84 58.09
  Q 114.98 51.59 122.62 44.38
  A 2.00 1.99 -44.2 0 0 122.66 41.52
  L 122.14 41.01
  A 2.13 2.12 -44.9 0 0 119.13 41.01
  L 107.10 53.04
  A 0.89 0.89 0.0 0 1 105.93 53.12"
/>
<path stroke="#d9d8da" vector-effect="non-scaling-stroke" d="
  M 47.72 114.81
  C 47.93 119.95 47.42 126.95 52.35 127.40
  C 56.37 127.77 62.00 127.50 68.93 127.66
  C 71.70 127.72 75.31 126.23 74.81 122.97
  C 74.14 118.60 73.26 115.41 68.49 114.27
  Q 62.12 112.75 52.25 111.38
  Q 49.69 111.02 47.98 113.80
  A 1.85 1.78 60.6 0 0 47.72 114.81"
/>
<path stroke="#d9d8da" vector-effect="non-scaling-stroke" d="
  M 163.07 111.35
  Q 155.05 112.32 147.14 114.11
  Q 143.31 114.97 142.01 116.91
  C 139.82 120.18 138.38 127.16 144.24 127.55
  Q 150.90 128.01 159.96 127.68
  C 168.49 127.37 167.54 121.48 166.87 114.70
  Q 166.67 112.69 164.31 111.55
  A 2.26 2.24 -35.7 0 0 163.07 111.35"
/>
<path stroke="#d9d8da" vector-effect="non-scaling-stroke" d="
  M 132.86 115.98
  A 2.47 2.47 0.0 0 0 130.39 113.51
  L 84.33 113.51
  A 2.47 2.47 0.0 0 0 81.86 115.98
  L 81.86 116.06
  A 2.47 2.47 0.0 0 0 84.33 118.53
  L 130.39 118.53
  A 2.47 2.47 0.0 0 0 132.86 116.06
  L 132.86 115.98"
/>
<path stroke="#d9d8da" vector-effect="non-scaling-stroke" d="
  M 52.95 117.05
  L 52.95 121.92
  A 0.86 0.85 -0.0 0 0 53.81 122.77
  L 69.21 122.77
  A 0.57 0.56 -4.0 0 0 69.77 122.13
  C 69.53 120.39 68.40 119.14 66.47 118.72
  Q 59.68 117.24 53.50 116.56
  A 0.50 0.49 3.1 0 0 52.95 117.05"
/>
<path stroke="#d9d8da" vector-effect="non-scaling-stroke" d="
  M 162.00 117.05
  A 0.50 0.50 0.0 0 0 161.44 116.55
  Q 155.20 117.23 148.33 118.71
  C 146.38 119.13 145.24 120.39 144.99 122.15
  A 0.57 0.57 0.0 0 0 145.56 122.80
  L 161.12 122.82
  A 0.87 0.86 0.1 0 0 161.99 121.97
  L 162.00 117.05"
/>
</g>
<path fill="#ffffff" d="
  M 209.00 0.00
  L 209.00 197.00
  L 0.00 197.00
  L 0.00 0.00
  L 209.00 0.00
  Z
  M 170.10 99.04
  Q 174.83 98.92 175.76 98.92
  C 183.79 98.92 185.95 88.15 178.44 85.19
  A 1.15 1.11 54.2 0 0 178.05 85.12
  L 166.80 85.05
  A 1.64 1.61 -67.1 0 0 165.65 85.53
  L 161.74 89.44
  A 0.56 0.56 0.0 0 1 160.82 89.24
  Q 156.92 78.95 153.02 69.25
  Q 150.89 63.95 145.52 62.86
  A 1.68 1.67 -0.2 0 1 144.22 61.58
  Q 143.05 56.05 139.60 39.47
  C 138.32 33.30 135.83 29.35 129.46 29.10
  Q 120.34 28.74 87.53 29.02
  Q 81.00 29.07 77.68 33.42
  C 75.90 35.74 75.15 40.12 74.56 43.04
  Q 72.43 53.69 70.39 62.31
  A 0.70 0.69 -85.4 0 1 69.77 62.84
  Q 63.89 63.25 61.78 68.56
  Q 54.17 87.73 54.01 88.34
  A 0.70 0.70 0.0 0 1 52.84 88.67
  L 49.75 85.61
  A 1.40 1.34 67.8 0 0 48.88 85.22
  Q 45.33 84.97 39.18 85.02
  Q 32.80 85.07 32.10 91.23
  C 31.80 93.86 33.30 96.11 35.33 97.64
  C 37.30 99.13 43.02 98.68 45.54 98.40
  A 0.52 0.52 0.0 0 1 45.99 99.25
  Q 42.38 103.47 40.45 108.70
  Q 39.17 112.14 39.20 119.46
  Q 39.27 140.71 39.22 151.80
  C 39.20 155.93 40.03 159.82 43.73 161.76
  C 46.45 163.20 55.60 162.54 58.12 162.50
  A 2.84 2.67 35.5 0 0 58.86 162.40
  C 64.85 160.74 65.15 156.27 65.10 150.90
  A 0.62 0.62 0.0 0 1 65.72 150.27
  L 149.65 150.27
  A 0.67 0.66 5.0 0 1 150.31 151.05
  Q 148.71 159.86 156.13 162.33
  A 4.32 4.11 -34.7 0 0 157.54 162.55
  Q 158.68 162.54 168.48 162.50
  C 174.89 162.48 176.52 156.64 176.44 151.25
  Q 176.31 143.49 176.45 120.44
  Q 176.49 113.12 175.22 109.57
  Q 173.36 104.34 169.65 100.05
  A 0.61 0.61 0.0 0 1 170.10 99.04
  Z"
/>
<path fill="#b2b0b4" d="
  M 170.10 99.04
  A 0.61 0.61 0.0 0 0 169.65 100.05
  Q 173.36 104.34 175.22 109.57
  Q 176.49 113.12 176.45 120.44
  Q 176.31 143.49 176.44 151.25
  C 176.52 156.64 174.89 162.48 168.48 162.50
  Q 158.68 162.54 157.54 162.55
  A 4.32 4.11 -34.7 0 1 156.13 162.33
  Q 148.71 159.86 150.31 151.05
  A 0.67 0.66 5.0 0 0 149.65 150.27
  L 65.72 150.27
  A 0.62 0.62 0.0 0 0 65.10 150.90
  C 65.15 156.27 64.85 160.74 58.86 162.40
  A 2.84 2.67 35.5 0 1 58.12 162.50
  C 55.60 162.54 46.45 163.20 43.73 161.76
  C 40.03 159.82 39.20 155.93 39.22 151.80
  Q 39.27 140.71 39.20 119.46
  Q 39.17 112.14 40.45 108.70
  Q 42.38 103.47 45.99 99.25
  A 0.52 0.52 0.0 0 0 45.54 98.40
  C 43.02 98.68 37.30 99.13 35.33 97.64
  C 33.30 96.11 31.80 93.86 32.10 91.23
  Q 32.80 85.07 39.18 85.02
  Q 45.33 84.97 48.88 85.22
  A 1.40 1.34 67.8 0 1 49.75 85.61
  L 52.84 88.67
  A 0.70 0.70 0.0 0 0 54.01 88.34
  Q 54.17 87.73 61.78 68.56
  Q 63.89 63.25 69.77 62.84
  A 0.70 0.69 -85.4 0 0 70.39 62.31
  Q 72.43 53.69 74.56 43.04
  C 75.15 40.12 75.90 35.74 77.68 33.42
  Q 81.00 29.07 87.53 29.02
  Q 120.34 28.74 129.46 29.10
  C 135.83 29.35 138.32 33.30 139.60 39.47
  Q 143.05 56.05 144.22 61.58
  A 1.68 1.67 -0.2 0 0 145.52 62.86
  Q 150.89 63.95 153.02 69.25
  Q 156.92 78.95 160.82 89.24
  A 0.56 0.56 0.0 0 0 161.74 89.44
  L 165.65 85.53
  A 1.64 1.61 -67.1 0 1 166.80 85.05
  L 178.05 85.12
  A 1.15 1.11 54.2 0 1 178.44 85.19
  C 185.95 88.15 183.79 98.92 175.76 98.92
  Q 174.83 98.92 170.10 99.04
  Z
  M 107.49 62.69
  Q 127.40 62.69 139.29 62.71
  A 0.49 0.48 83.7 0 0 139.76 62.12
  Q 138.04 54.32 134.69 38.81
  Q 133.64 33.94 129.24 33.95
  Q 118.26 33.96 107.49 33.96
  Q 96.73 33.96 85.74 33.95
  Q 81.34 33.94 80.29 38.81
  Q 76.94 54.32 75.22 62.12
  A 0.49 0.48 -83.7 0 0 75.69 62.71
  Q 87.59 62.69 107.49 62.69
  Z
  M 107.26 91.73
  Q 120.42 91.73 156.56 91.80
  A 0.37 0.37 0.0 0 0 156.90 91.29
  Q 149.86 73.58 148.64 70.69
  Q 147.24 67.40 144.00 67.42
  Q 137.46 67.48 107.26 67.48
  Q 77.06 67.48 70.53 67.42
  Q 67.29 67.39 65.89 70.68
  Q 64.67 73.57 57.62 91.28
  A 0.37 0.37 0.0 0 0 57.96 91.79
  Q 94.11 91.73 107.26 91.73
  Z
  M 50.71 94.30
  A 0.56 0.56 0.0 0 0 51.11 93.34
  L 48.22 90.42
  A 2.45 2.43 67.3 0 0 46.48 89.69
  L 38.39 89.66
  A 1.83 1.83 0.0 0 0 36.59 91.83
  L 36.62 92.06
  A 2.83 2.83 0.0 0 0 39.40 94.34
  L 50.71 94.30
  Z
  M 164.23 94.40
  L 175.77 94.49
  A 2.89 2.88 5.8 0 0 178.61 92.18
  L 178.65 91.95
  A 1.87 1.86 -84.5 0 0 176.82 89.73
  L 168.57 89.72
  A 2.50 2.47 -67.1 0 0 166.79 90.45
  L 163.83 93.42
  A 0.57 0.57 0.0 0 0 164.23 94.40
  Z
  M 60.60 148.05
  A 2.68 2.68 0.0 0 1 63.28 145.39
  L 152.39 145.39
  A 0.12 0.06 -16.8 0 1 152.44 145.40
  Q 154.87 146.26 155.06 148.28
  Q 155.18 149.57 155.26 155.62
  A 1.98 1.98 0.0 0 0 157.19 157.58
  Q 161.90 157.71 168.33 157.60
  C 170.05 157.57 171.60 156.76 171.59 155.00
  Q 171.48 135.57 171.59 118.32
  Q 171.63 112.64 170.40 109.86
  C 168.02 104.50 164.92 101.82 160.56 97.67
  A 3.19 3.18 -23.2 0 0 158.37 96.80
  L 55.60 96.80
  A 1.41 1.38 26.0 0 0 54.76 97.08
  Q 47.31 102.72 44.48 111.37
  A 5.71 5.45 -37.3 0 0 44.21 113.08
  L 44.21 154.96
  A 2.64 2.64 0.0 0 0 46.82 157.60
  Q 53.57 157.68 57.58 157.63
  Q 60.24 157.59 60.37 155.06
  Q 60.57 151.19 60.60 148.05
  Z"
/>
<path fill="#ffffff" d="
  M 107.49 33.96
  Q 118.26 33.96 129.24 33.95
  Q 133.64 33.94 134.69 38.81
  Q 138.04 54.32 139.76 62.12
  A 0.49 0.48 83.7 0 1 139.29 62.71
  Q 127.40 62.69 107.49 62.69
  Q 87.59 62.69 75.69 62.71
  A 0.49 0.48 -83.7 0 1 75.22 62.12
  Q 76.94 54.32 80.29 38.81
  Q 81.34 33.94 85.74 33.95
  Q 96.73 33.96 107.49 33.96
  Z
  M 105.93 53.12
  L 97.94 47.08
  A 2.23 2.23 0.0 0 0 94.78 47.55
  L 94.65 47.73
  A 2.27 2.26 -53.4 0 0 95.12 50.95
  Q 101.40 55.49 104.77 58.23
  Q 106.99 60.05 108.84 58.09
  Q 114.98 51.59 122.62 44.38
  A 2.00 1.99 -44.2 0 0 122.66 41.52
  L 122.14 41.01
  A 2.13 2.12 -44.9 0 0 119.13 41.01
  L 107.10 53.04
  A 0.89 0.89 0.0 0 1 105.93 53.12
  Z"
/>
<path fill="#b2b0b4" d="
  M 105.93 53.12
  A 0.89 0.89 0.0 0 0 107.10 53.04
  L 119.13 41.01
  A 2.13 2.12 -44.9 0 1 122.14 41.01
  L 122.66 41.52
  A 2.00 1.99 -44.2 0 1 122.62 44.38
  Q 114.98 51.59 108.84 58.09
  Q 106.99 60.05 104.77 58.23
  Q 101.40 55.49 95.12 50.95
  A 2.27 2.26 -53.4 0 1 94.65 47.73
  L 94.78 47.55
  A 2.23 2.23 0.0 0 1 97.94 47.08
  L 105.93 53.12
  Z"
/>
<path fill="#ffffff" d="
  M 107.26 67.48
  Q 137.46 67.48 144.00 67.42
  Q 147.24 67.40 148.64 70.69
  Q 149.86 73.58 156.90 91.29
  A 0.37 0.37 0.0 0 1 156.56 91.80
  Q 120.42 91.73 107.26 91.73
  Q 94.11 91.73 57.96 91.79
  A 0.37 0.37 0.0 0 1 57.62 91.28
  Q 64.67 73.57 65.89 70.68
  Q 67.29 67.39 70.53 67.42
  Q 77.06 67.48 107.26 67.48
  Z"
/>
<path fill="#ffffff" d="
  M 50.71 94.30
  L 39.40 94.34
  A 2.83 2.83 0.0 0 1 36.62 92.06
  L 36.59 91.83
  A 1.83 1.83 0.0 0 1 38.39 89.66
  L 46.48 89.69
  A 2.45 2.43 67.3 0 1 48.22 90.42
  L 51.11 93.34
  A 0.56 0.56 0.0 0 1 50.71 94.30
  Z"
/>
<path fill="#ffffff" d="
  M 164.23 94.40
  A 0.57 0.57 0.0 0 1 163.83 93.42
  L 166.79 90.45
  A 2.50 2.47 -67.1 0 1 168.57 89.72
  L 176.82 89.73
  A 1.87 1.86 -84.5 0 1 178.65 91.95
  L 178.61 92.18
  A 2.89 2.88 5.8 0 1 175.77 94.49
  L 164.23 94.40
  Z"
/>
<path fill="#ffffff" d="
  M 60.60 148.05
  Q 60.57 151.19 60.37 155.06
  Q 60.24 157.59 57.58 157.63
  Q 53.57 157.68 46.82 157.60
  A 2.64 2.64 0.0 0 1 44.21 154.96
  L 44.21 113.08
  A 5.71 5.45 -37.3 0 1 44.48 111.37
  Q 47.31 102.72 54.76 97.08
  A 1.41 1.38 26.0 0 1 55.60 96.80
  L 158.37 96.80
  A 3.19 3.18 -23.2 0 1 160.56 97.67
  C 164.92 101.82 168.02 104.50 170.40 109.86
  Q 171.63 112.64 171.59 118.32
  Q 171.48 135.57 171.59 155.00
  C 171.60 156.76 170.05 157.57 168.33 157.60
  Q 161.90 157.71 157.19 157.58
  A 1.98 1.98 0.0 0 1 155.26 155.62
  Q 155.18 149.57 155.06 148.28
  Q 154.87 146.26 152.44 145.40
  A 0.12 0.06 -16.8 0 0 152.39 145.39
  L 63.28 145.39
  A 2.68 2.68 0.0 0 0 60.60 148.05
  Z
  M 47.72 114.81
  C 47.93 119.95 47.42 126.95 52.35 127.40
  C 56.37 127.77 62.00 127.50 68.93 127.66
  C 71.70 127.72 75.31 126.23 74.81 122.97
  C 74.14 118.60 73.26 115.41 68.49 114.27
  Q 62.12 112.75 52.25 111.38
  Q 49.69 111.02 47.98 113.80
  A 1.85 1.78 60.6 0 0 47.72 114.81
  Z
  M 163.07 111.35
  Q 155.05 112.32 147.14 114.11
  Q 143.31 114.97 142.01 116.91
  C 139.82 120.18 138.38 127.16 144.24 127.55
  Q 150.90 128.01 159.96 127.68
  C 168.49 127.37 167.54 121.48 166.87 114.70
  Q 166.67 112.69 164.31 111.55
  A 2.26 2.24 -35.7 0 0 163.07 111.35
  Z
  M 132.86 115.98
  A 2.47 2.47 0.0 0 0 130.39 113.51
  L 84.33 113.51
  A 2.47 2.47 0.0 0 0 81.86 115.98
  L 81.86 116.06
  A 2.47 2.47 0.0 0 0 84.33 118.53
  L 130.39 118.53
  A 2.47 2.47 0.0 0 0 132.86 116.06
  L 132.86 115.98
  Z"
/>
<path fill="#b2b0b4" d="
  M 47.98 113.80
  Q 49.69 111.02 52.25 111.38
  Q 62.12 112.75 68.49 114.27
  C 73.26 115.41 74.14 118.60 74.81 122.97
  C 75.31 126.23 71.70 127.72 68.93 127.66
  C 62.00 127.50 56.37 127.77 52.35 127.40
  C 47.42 126.95 47.93 119.95 47.72 114.81
  A 1.85 1.78 60.6 0 1 47.98 113.80
  Z
  M 52.95 117.05
  L 52.95 121.92
  A 0.86 0.85 -0.0 0 0 53.81 122.77
  L 69.21 122.77
  A 0.57 0.56 -4.0 0 0 69.77 122.13
  C 69.53 120.39 68.40 119.14 66.47 118.72
  Q 59.68 117.24 53.50 116.56
  A 0.50 0.49 3.1 0 0 52.95 117.05
  Z"
/>
<path fill="#b2b0b4" d="
  M 164.31 111.55
  Q 166.67 112.69 166.87 114.70
  C 167.54 121.48 168.49 127.37 159.96 127.68
  Q 150.90 128.01 144.24 127.55
  C 138.38 127.16 139.82 120.18 142.01 116.91
  Q 143.31 114.97 147.14 114.11
  Q 155.05 112.32 163.07 111.35
  A 2.26 2.24 -35.7 0 1 164.31 111.55
  Z
  M 162.00 117.05
  A 0.50 0.50 0.0 0 0 161.44 116.55
  Q 155.20 117.23 148.33 118.71
  C 146.38 119.13 145.24 120.39 144.99 122.15
  A 0.57 0.57 0.0 0 0 145.56 122.80
  L 161.12 122.82
  A 0.87 0.86 0.1 0 0 161.99 121.97
  L 162.00 117.05
  Z"
/>
<rect fill="#b2b0b4" x="81.86" y="113.51" width="51.00" height="5.02" rx="2.47"/>
<path fill="#ffffff" d="
  M 52.95 117.05
  A 0.50 0.49 3.1 0 1 53.50 116.56
  Q 59.68 117.24 66.47 118.72
  C 68.40 119.14 69.53 120.39 69.77 122.13
  A 0.57 0.56 -4.0 0 1 69.21 122.77
  L 53.81 122.77
  A 0.86 0.85 -0.0 0 1 52.95 121.92
  L 52.95 117.05
  Z"
/>
<path fill="#ffffff" d="
  M 162.00 117.05
  L 161.99 121.97
  A 0.87 0.86 0.1 0 1 161.12 122.82
  L 145.56 122.80
  A 0.57 0.57 0.0 0 1 144.99 122.15
  C 145.24 120.39 146.38 119.13 148.33 118.71
  Q 155.20 117.23 161.44 116.55
  A 0.50 0.50 0.0 0 1 162.00 117.05
  Z"
/>
</svg>
