<?xml version="1.0" encoding="UTF-8" standalone="no"?>
<!DOCTYPE svg PUBLIC "-//W3C//DTD SVG 1.1//EN" "http://www.w3.org/Graphics/SVG/1.1/DTD/svg11.dtd">
<svg xmlns="http://www.w3.org/2000/svg" version="1.1" viewBox="0.00 0.00 127.00 136.00">
<path fill="#000000" d="
  M 63.56 33.07
  Q 80.13 33.07 83.25 33.13
  Q 88.38 33.22 92.45 35.83
  Q 96.13 38.17 104.84 45.05
  C 111.81 50.55 116.64 54.22 114.42 62.48
  Q 114.10 63.69 108.49 86.35
  Q 106.13 95.89 104.12 98.20
  C 99.79 103.16 96.09 103.92 88.74 103.96
  Q 87.53 103.97 63.55 103.96
  Q 39.57 103.96 38.36 103.95
  C 31.01 103.91 27.31 103.15 22.98 98.19
  Q 20.97 95.88 18.61 86.34
  Q 13.01 63.68 12.69 62.47
  C 10.47 54.21 15.30 50.54 22.27 45.04
  Q 30.99 38.16 34.67 35.82
  Q 38.74 33.21 43.86 33.12
  Q 46.99 33.07 63.56 33.07
  Z
  M 63.55 100.04
  Q 90.10 100.03 90.54 100.04
  Q 96.56 100.16 100.44 96.39
  Q 102.48 94.40 104.33 86.58
  Q 106.40 77.86 110.47 61.99
  C 112.15 55.42 108.69 53.08 103.37 48.96
  Q 97.66 44.54 93.18 41.05
  Q 87.98 36.99 81.75 36.96
  Q 72.66 36.92 63.54 36.92
  Q 54.42 36.92 45.33 36.97
  Q 39.10 37.00 33.90 41.06
  Q 29.42 44.55 23.72 48.98
  C 18.40 53.10 14.94 55.44 16.62 62.01
  Q 20.70 77.88 22.77 86.60
  Q 24.62 94.41 26.66 96.40
  Q 30.55 100.17 36.56 100.05
  Q 37.01 100.04 63.55 100.04
  Z"
/>
<path fill="#000000" d="
  M 39.51 66.62
  Q 44.78 66.62 44.83 66.61
  A 0.67 0.67 0.0 0 0 45.42 65.97
  Q 45.50 63.57 45.37 57.46
  Q 45.33 55.57 45.96 54.88
  C 47.39 53.32 49.92 54.35 49.91 56.38
  Q 49.89 58.64 49.89 68.66
  Q 49.89 78.68 49.90 80.94
  C 49.91 82.96 47.38 83.99 45.95 82.43
  Q 45.32 81.74 45.36 79.85
  Q 45.49 73.74 45.41 71.34
  A 0.67 0.67 0.0 0 0 44.83 70.70
  Q 44.78 70.70 39.51 70.70
  Q 34.24 70.70 34.19 70.70
  A 0.67 0.67 0.0 0 0 33.61 71.34
  Q 33.53 73.74 33.66 79.85
  Q 33.70 81.74 33.07 82.43
  C 31.64 83.99 29.11 82.96 29.12 80.93
  Q 29.14 78.68 29.14 68.65
  Q 29.14 58.63 29.13 56.38
  C 29.12 54.35 31.65 53.32 33.08 54.88
  Q 33.71 55.57 33.66 57.46
  Q 33.53 63.57 33.61 65.97
  A 0.67 0.67 0.0 0 0 34.19 66.61
  Q 34.25 66.61 39.51 66.62
  Z"
/>
<path fill="#000000" d="
  M 65.04 79.53
  C 68.53 79.52 70.85 77.51 70.76 73.92
  Q 70.73 72.77 70.70 56.68
  A 2.27 2.27 0.0 0 1 72.94 54.41
  L 73.00 54.41
  A 2.28 2.28 0.0 0 1 75.32 56.72
  Q 75.28 60.01 75.36 71.77
  C 75.41 78.74 72.55 83.56 65.05 83.57
  C 57.55 83.58 54.67 78.76 54.70 71.80
  Q 54.75 60.04 54.71 56.75
  A 2.28 2.28 0.0 0 1 57.02 54.43
  L 57.08 54.43
  A 2.27 2.27 0.0 0 1 59.33 56.69
  Q 59.34 72.78 59.31 73.93
  C 59.23 77.52 61.55 79.53 65.04 79.53
  Z"
/>
<path fill="#000000" d="
  M 80.23 56.66
  A 2.09 2.09 0.0 0 1 82.33 54.58
  L 89.97 54.62
  A 10.57 10.42 0.3 0 1 100.49 65.09
  L 100.45 72.73
  A 10.57 10.42 0.3 0 1 89.83 83.10
  L 82.19 83.06
  A 2.09 2.09 0.0 0 1 80.11 80.96
  L 80.23 56.66
  Z
  M 84.46 58.95
  L 84.46 78.73
  A 0.37 0.37 0.0 0 0 84.83 79.10
  L 89.57 79.10
  A 6.39 6.30 0.0 0 0 95.96 72.80
  L 95.96 64.88
  A 6.39 6.30 -0.0 0 0 89.57 58.58
  L 84.83 58.58
  A 0.37 0.37 0.0 0 0 84.46 58.95
  Z"
/>
</svg>
