<?xml version="1.0" encoding="UTF-8" standalone="no"?>
<!DOCTYPE svg PUBLIC "-//W3C//DTD SVG 1.1//EN" "http://www.w3.org/Graphics/SVG/1.1/DTD/svg11.dtd">
<svg xmlns="http://www.w3.org/2000/svg" version="1.1" viewBox="0.00 0.00 229.00 197.00">
<g stroke-width="2.00" fill="none" stroke-linecap="butt">
<path stroke="#fef6f6" vector-effect="non-scaling-stroke" d="
  M 0.00 76.86
  Q 2.76 106.60 27.85 122.35"
/>
<path stroke="#808080" vector-effect="non-scaling-stroke" d="
  M 27.85 122.35
  Q 27.90 137.73 27.87 153.25
  Q 27.86 159.69 34.14 161.75
  A 3.50 3.38 53.6 0 0 35.14 161.92
  Q 45.28 162.09 47.23 161.80
  C 51.16 161.23 54.22 157.81 54.08 153.63
  Q 54.06 153.30 53.92 149.90
  A 0.77 0.77 0.0 0 1 54.69 149.10
  L 139.91 149.10
  A 0.74 0.74 0.0 0 1 140.65 149.84
  L 140.65 155.41
  A 1.61 1.44 -58.5 0 0 140.75 155.96
  C 143.48 163.26 149.62 161.98 157.49 161.94
  C 161.19 161.92 163.70 161.05 165.70 158.28
  Q 166.84 156.70 166.83 151.52
  Q 166.80 109.57 166.79 109.26
  A 3.01 2.78 -56.8 0 0 166.65 108.43
  Q 164.70 102.44 160.43 98.39
  A 0.33 0.32 -22.8 0 1 160.66 97.83
  C 164.44 97.88 168.24 98.42 170.72 97.04
  C 175.37 94.44 176.24 87.69 171.73 84.88
  C 169.17 83.29 163.69 83.97 159.14 83.97
  A 2.15 2.14 -67.0 0 0 157.60 84.60
  L 153.80 88.40
  A 0.53 0.53 0.0 0 1 152.93 88.23
  Q 149.01 78.55 145.46 69.02
  Q 143.16 62.82 137.82 60.43
  A 2.51 2.38 -31.3 0 0 136.80 60.21
  L 111.11 60.20"
/>
<path stroke="#fef6f6" vector-effect="non-scaling-stroke" d="
  M 111.11 60.20
  Q 110.08 54.05 107.13 48.28"
/>
<path stroke="#808080" vector-effect="non-scaling-stroke" d="
  M 107.13 48.28
  L 128.48 48.29
  A 2.10 2.10 0.0 0 1 130.28 49.34
  L 132.48 53.15
  A 1.44 1.44 0.0 0 0 134.33 53.74
  C 137.05 52.50 135.94 50.03 135.04 47.81
  Q 133.86 44.91 130.76 43.84
  A 2.95 2.87 53.4 0 0 129.84 43.69
  L 104.42 43.65"
/>
<path stroke="#fef6f6" vector-effect="non-scaling-stroke" d="
  M 104.42 43.65
  Q 93.72 27.06 76.65 20.72
  C 40.23 7.20 3.31 31.95 0.00 70.03"
/>
<path stroke="#7f7776" vector-effect="non-scaling-stroke" d="
  M 104.42 43.65
  L 64.16 43.67
  A 2.84 2.69 33.4 0 0 63.20 43.84
  Q 59.66 45.13 58.54 48.85
  C 58.03 50.52 57.48 51.70 58.61 53.02
  A 2.09 1.69 44.2 0 0 61.58 53.29
  Q 62.69 51.75 63.00 50.19
  A 2.38 2.38 0.0 0 1 65.33 48.29
  L 107.13 48.28"
/>
<path stroke="#7f7776" vector-effect="non-scaling-stroke" d="
  M 111.11 60.20
  L 58.41 60.21
  A 3.07 2.98 -51.6 0 0 57.64 60.31
  Q 52.44 61.66 50.67 65.79
  Q 46.33 75.91 41.80 87.94
  A 0.82 0.82 0.0 0 1 40.45 88.23
  L 36.60 84.38
  A 1.19 1.16 -22.0 0 0 35.77 84.04
  Q 31.86 84.03 27.97 83.89
  Q 22.04 83.69 20.42 89.28
  A 3.33 3.31 -39.1 0 0 20.30 90.42
  Q 20.75 96.15 26.15 97.84
  A 1.17 1.05 -33.9 0 0 26.57 97.90
  L 33.86 97.83
  A 0.35 0.35 0.0 0 1 34.11 98.43
  Q 28.31 104.17 28.08 112.75
  Q 27.95 117.48 27.85 122.35"
/>
<path stroke="#808080" vector-effect="non-scaling-stroke" d="
  M 110.72 90.79
  L 147.67 90.78
  A 0.74 0.73 -10.4 0 0 148.36 89.79
  Q 144.04 78.56 140.66 69.89
  Q 139.59 67.16 137.43 65.77
  Q 135.77 64.70 132.37 64.72
  Q 122.32 64.77 112.28 64.74"
/>
<path stroke="#7f7776" vector-effect="non-scaling-stroke" d="
  M 112.28 64.74
  Q 87.08 64.68 61.84 64.76
  C 58.08 64.77 55.73 65.35 54.37 68.87
  Q 51.26 76.90 45.81 90.34
  A 0.33 0.32 -79.0 0 0 46.11 90.79
  L 110.72 90.79"
/>
<path stroke="#fef6f6" vector-effect="non-scaling-stroke" d="
  M 112.28 64.74
  C 113.63 73.75 112.62 81.71 110.72 90.79"
/>
<path stroke="#808080" vector-effect="non-scaling-stroke" d="
  M 38.55 93.36
  A 0.34 0.34 0.0 0 0 38.79 92.78
  L 35.06 89.05
  A 1.67 1.66 67.4 0 0 33.88 88.56
  L 26.84 88.56
  A 1.80 1.80 0.0 0 0 25.10 90.80
  L 25.18 91.11
  A 2.98 2.98 0.0 0 0 28.07 93.36
  L 38.55 93.36"
/>
<path stroke="#808080" vector-effect="non-scaling-stroke" d="
  M 156.02 93.37
  L 166.83 93.42
  A 3.08 3.07 -82.6 0 0 169.82 91.11
  L 169.91 90.79
  A 1.85 1.85 0.0 0 0 168.12 88.47
  L 160.86 88.44
  A 1.73 1.72 -67.1 0 0 159.64 88.94
  L 155.78 92.77
  A 0.35 0.35 0.0 0 0 156.02 93.37"
/>
<path stroke="#808080" vector-effect="non-scaling-stroke" d="
  M 97.55 144.16
  Q 138.45 144.20 142.74 144.23
  Q 144.07 144.24 145.70 146.57
  A 1.33 1.31 -63.0 0 1 145.94 147.33
  L 145.94 154.58
  A 2.35 2.34 -88.0 0 0 148.12 156.92
  Q 152.71 157.24 158.53 157.06
  C 161.23 156.97 162.21 155.71 162.12 153.06
  Q 162.07 151.78 162.14 110.83
  A 3.80 3.53 -55.0 0 0 162.00 109.82
  C 160.31 104.17 156.14 99.97 151.21 95.97
  A 1.56 1.52 -24.3 0 0 150.29 95.64
  Q 148.35 95.59 97.59 95.55
  Q 46.82 95.51 44.88 95.55
  A 1.56 1.52 24.4 0 0 43.96 95.89
  C 39.03 99.88 34.85 104.07 33.15 109.72
  A 3.80 3.53 55.1 0 0 33.01 110.73
  Q 33.01 151.68 32.96 152.96
  C 32.87 155.61 33.85 156.87 36.55 156.96
  Q 42.37 157.15 46.96 156.84
  A 2.35 2.34 88.1 0 0 49.14 154.50
  L 49.15 147.25
  A 1.33 1.31 63.1 0 1 49.39 146.49
  Q 51.03 144.17 52.36 144.15
  Q 56.64 144.13 97.55 144.16"
/>
<path stroke="#808080" vector-effect="non-scaling-stroke" d="
  M 63.73 119.05
  C 62.81 115.26 61.19 111.34 56.88 110.57
  Q 50.65 109.44 43.62 108.80
  C 37.47 108.22 37.02 112.87 36.75 117.72
  C 36.46 122.92 39.31 125.97 44.44 126.13
  Q 49.46 126.29 59.40 126.08
  C 63.11 126.01 64.51 122.31 63.73 119.05"
/>
<path stroke="#808080" vector-effect="non-scaling-stroke" d="
  M 130.87 119.27
  C 130.12 122.55 131.57 126.26 135.30 126.29
  Q 145.30 126.39 150.35 126.17
  C 155.50 125.95 158.34 122.85 157.99 117.63
  C 157.66 112.75 157.16 108.08 150.98 108.73
  Q 143.92 109.46 137.66 110.66
  C 133.34 111.48 131.75 115.44 130.87 119.27"
/>
<path stroke="#808080" vector-effect="non-scaling-stroke" d="
  M 121.10 113.28
  L 73.62 113.20
  A 2.83 2.83 0.0 0 0 70.79 116.02
  L 70.79 116.96
  A 10.69 8.00 -89.9 0 0 78.77 127.67
  L 115.91 127.73
  A 10.69 8.00 -89.9 0 0 123.93 117.06
  L 123.93 116.12
  A 2.83 2.83 0.0 0 0 121.10 113.28"
/>
<path stroke="#808080" vector-effect="non-scaling-stroke" d="
  M 41.68 115.00
  L 41.68 118.77
  A 2.20 2.19 90.0 0 0 43.87 120.97
  L 57.45 120.97
  A 1.43 1.43 0.0 0 0 58.69 118.82
  L 57.45 116.67
  A 2.98 2.97 -10.5 0 0 55.33 115.22
  L 43.54 113.39
  A 1.63 1.61 -85.6 0 0 41.68 115.00"
/>
<path stroke="#808080" vector-effect="non-scaling-stroke" d="
  M 136.19 120.95
  L 150.92 120.95
  A 1.96 1.96 0.0 0 0 152.88 118.99
  L 152.88 114.66
  A 1.21 1.20 -4.1 0 0 151.50 113.47
  L 139.09 115.22
  A 2.09 2.08 10.9 0 0 137.56 116.25
  L 135.52 119.78
  A 0.78 0.78 0.0 0 0 136.19 120.95"
/>
<path stroke="#808080" vector-effect="non-scaling-stroke" d="
  M 97.34 122.88
  Q 115.53 122.88 115.86 122.82
  A 2.14 2.11 27.1 0 0 116.36 122.66
  Q 118.26 121.77 118.73 118.84
  A 0.43 0.43 0.0 0 0 118.30 118.34
  Q 115.69 118.42 97.34 118.42
  Q 78.99 118.42 76.38 118.34
  A 0.43 0.43 0.0 0 0 75.94 118.84
  Q 76.41 121.77 78.31 122.66
  A 2.14 2.11 -27.1 0 0 78.82 122.82
  Q 79.14 122.88 97.34 122.88"
/>
</g>
<path fill="#ffffff" d="
  M 229.00 0.00
  L 229.00 197.00
  L 0.00 197.00
  L 0.00 76.86
  Q 2.76 106.60 27.85 122.35
  Q 27.90 137.73 27.87 153.25
  Q 27.86 159.69 34.14 161.75
  A 3.50 3.38 53.6 0 0 35.14 161.92
  Q 45.28 162.09 47.23 161.80
  C 51.16 161.23 54.22 157.81 54.08 153.63
  Q 54.06 153.30 53.92 149.90
  A 0.77 0.77 0.0 0 1 54.69 149.10
  L 139.91 149.10
  A 0.74 0.74 0.0 0 1 140.65 149.84
  L 140.65 155.41
  A 1.61 1.44 -58.5 0 0 140.75 155.96
  C 143.48 163.26 149.62 161.98 157.49 161.94
  C 161.19 161.92 163.70 161.05 165.70 158.28
  Q 166.84 156.70 166.83 151.52
  Q 166.80 109.57 166.79 109.26
  A 3.01 2.78 -56.8 0 0 166.65 108.43
  Q 164.70 102.44 160.43 98.39
  A 0.33 0.32 -22.8 0 1 160.66 97.83
  C 164.44 97.88 168.24 98.42 170.72 97.04
  C 175.37 94.44 176.24 87.69 171.73 84.88
  C 169.17 83.29 163.69 83.97 159.14 83.97
  A 2.15 2.14 -67.0 0 0 157.60 84.60
  L 153.80 88.40
  A 0.53 0.53 0.0 0 1 152.93 88.23
  Q 149.01 78.55 145.46 69.02
  Q 143.16 62.82 137.82 60.43
  A 2.51 2.38 -31.3 0 0 136.80 60.21
  L 111.11 60.20
  Q 110.08 54.05 107.13 48.28
  L 128.48 48.29
  A 2.10 2.10 0.0 0 1 130.28 49.34
  L 132.48 53.15
  A 1.44 1.44 0.0 0 0 134.33 53.74
  C 137.05 52.50 135.94 50.03 135.04 47.81
  Q 133.86 44.91 130.76 43.84
  A 2.95 2.87 53.4 0 0 129.84 43.69
  L 104.42 43.65
  Q 93.72 27.06 76.65 20.72
  C 40.23 7.20 3.31 31.95 0.00 70.03
  L 0.00 0.00
  L 229.00 0.00
  Z"
/>
<path fill="#fdedec" d="
  M 104.42 43.65
  L 64.16 43.67
  A 2.84 2.69 33.4 0 0 63.20 43.84
  Q 59.66 45.13 58.54 48.85
  C 58.03 50.52 57.48 51.70 58.61 53.02
  A 2.09 1.69 44.2 0 0 61.58 53.29
  Q 62.69 51.75 63.00 50.19
  A 2.38 2.38 0.0 0 1 65.33 48.29
  L 107.13 48.28
  Q 110.08 54.05 111.11 60.20
  L 58.41 60.21
  A 3.07 2.98 -51.6 0 0 57.64 60.31
  Q 52.44 61.66 50.67 65.79
  Q 46.33 75.91 41.80 87.94
  A 0.82 0.82 0.0 0 1 40.45 88.23
  L 36.60 84.38
  A 1.19 1.16 -22.0 0 0 35.77 84.04
  Q 31.86 84.03 27.97 83.89
  Q 22.04 83.69 20.42 89.28
  A 3.33 3.31 -39.1 0 0 20.30 90.42
  Q 20.75 96.15 26.15 97.84
  A 1.17 1.05 -33.9 0 0 26.57 97.90
  L 33.86 97.83
  A 0.35 0.35 0.0 0 1 34.11 98.43
  Q 28.31 104.17 28.08 112.75
  Q 27.95 117.48 27.85 122.35
  Q 2.76 106.60 0.00 76.86
  L 0.00 70.03
  C 3.31 31.95 40.23 7.20 76.65 20.72
  Q 93.72 27.06 104.42 43.65
  Z"
/>
<path fill="#000000" d="
  M 104.42 43.65
  L 129.84 43.69
  A 2.95 2.87 53.4 0 1 130.76 43.84
  Q 133.86 44.91 135.04 47.81
  C 135.94 50.03 137.05 52.50 134.33 53.74
  A 1.44 1.44 0.0 0 1 132.48 53.15
  L 130.28 49.34
  A 2.10 2.10 0.0 0 0 128.48 48.29
  L 107.13 48.28
  L 65.33 48.29
  A 2.38 2.38 0.0 0 0 63.00 50.19
  Q 62.69 51.75 61.58 53.29
  A 2.09 1.69 44.2 0 1 58.61 53.02
  C 57.48 51.70 58.03 50.52 58.54 48.85
  Q 59.66 45.13 63.20 43.84
  A 2.84 2.69 33.4 0 1 64.16 43.67
  L 104.42 43.65
  Z"
/>
<path fill="#000000" d="
  M 111.11 60.20
  L 136.80 60.21
  A 2.51 2.38 -31.3 0 1 137.82 60.43
  Q 143.16 62.82 145.46 69.02
  Q 149.01 78.55 152.93 88.23
  A 0.53 0.53 0.0 0 0 153.80 88.40
  L 157.60 84.60
  A 2.15 2.14 -67.0 0 1 159.14 83.97
  C 163.69 83.97 169.17 83.29 171.73 84.88
  C 176.24 87.69 175.37 94.44 170.72 97.04
  C 168.24 98.42 164.44 97.88 160.66 97.83
  A 0.33 0.32 -22.8 0 0 160.43 98.39
  Q 164.70 102.44 166.65 108.43
  A 3.01 2.78 -56.8 0 1 166.79 109.26
  Q 166.80 109.57 166.83 151.52
  Q 166.84 156.70 165.70 158.28
  C 163.70 161.05 161.19 161.92 157.49 161.94
  C 149.62 161.98 143.48 163.26 140.75 155.96
  A 1.61 1.44 -58.5 0 1 140.65 155.41
  L 140.65 149.84
  A 0.74 0.74 0.0 0 0 139.91 149.10
  L 54.69 149.10
  A 0.77 0.77 0.0 0 0 53.92 149.90
  Q 54.06 153.30 54.08 153.63
  C 54.22 157.81 51.16 161.23 47.23 161.80
  Q 45.28 162.09 35.14 161.92
  A 3.50 3.38 53.6 0 1 34.14 161.75
  Q 27.86 159.69 27.87 153.25
  Q 27.90 137.73 27.85 122.35
  Q 27.95 117.48 28.08 112.75
  Q 28.31 104.17 34.11 98.43
  A 0.35 0.35 0.0 0 0 33.86 97.83
  L 26.57 97.90
  A 1.17 1.05 -33.9 0 1 26.15 97.84
  Q 20.75 96.15 20.30 90.42
  A 3.33 3.31 -39.1 0 1 20.42 89.28
  Q 22.04 83.69 27.97 83.89
  Q 31.86 84.03 35.77 84.04
  A 1.19 1.16 -22.0 0 1 36.60 84.38
  L 40.45 88.23
  A 0.82 0.82 0.0 0 0 41.80 87.94
  Q 46.33 75.91 50.67 65.79
  Q 52.44 61.66 57.64 60.31
  A 3.07 2.98 -51.6 0 1 58.41 60.21
  L 111.11 60.20
  Z
  M 110.72 90.79
  L 147.67 90.78
  A 0.74 0.73 -10.4 0 0 148.36 89.79
  Q 144.04 78.56 140.66 69.89
  Q 139.59 67.16 137.43 65.77
  Q 135.77 64.70 132.37 64.72
  Q 122.32 64.77 112.28 64.74
  Q 87.08 64.68 61.84 64.76
  C 58.08 64.77 55.73 65.35 54.37 68.87
  Q 51.26 76.90 45.81 90.34
  A 0.33 0.32 -79.0 0 0 46.11 90.79
  L 110.72 90.79
  Z
  M 38.55 93.36
  A 0.34 0.34 0.0 0 0 38.79 92.78
  L 35.06 89.05
  A 1.67 1.66 67.4 0 0 33.88 88.56
  L 26.84 88.56
  A 1.80 1.80 0.0 0 0 25.10 90.80
  L 25.18 91.11
  A 2.98 2.98 0.0 0 0 28.07 93.36
  L 38.55 93.36
  Z
  M 156.02 93.37
  L 166.83 93.42
  A 3.08 3.07 -82.6 0 0 169.82 91.11
  L 169.91 90.79
  A 1.85 1.85 0.0 0 0 168.12 88.47
  L 160.86 88.44
  A 1.73 1.72 -67.1 0 0 159.64 88.94
  L 155.78 92.77
  A 0.35 0.35 0.0 0 0 156.02 93.37
  Z
  M 97.55 144.16
  Q 138.45 144.20 142.74 144.23
  Q 144.07 144.24 145.70 146.57
  A 1.33 1.31 -63.0 0 1 145.94 147.33
  L 145.94 154.58
  A 2.35 2.34 -88.0 0 0 148.12 156.92
  Q 152.71 157.24 158.53 157.06
  C 161.23 156.97 162.21 155.71 162.12 153.06
  Q 162.07 151.78 162.14 110.83
  A 3.80 3.53 -55.0 0 0 162.00 109.82
  C 160.31 104.17 156.14 99.97 151.21 95.97
  A 1.56 1.52 -24.3 0 0 150.29 95.64
  Q 148.35 95.59 97.59 95.55
  Q 46.82 95.51 44.88 95.55
  A 1.56 1.52 24.4 0 0 43.96 95.89
  C 39.03 99.88 34.85 104.07 33.15 109.72
  A 3.80 3.53 55.1 0 0 33.01 110.73
  Q 33.01 151.68 32.96 152.96
  C 32.87 155.61 33.85 156.87 36.55 156.96
  Q 42.37 157.15 46.96 156.84
  A 2.35 2.34 88.1 0 0 49.14 154.50
  L 49.15 147.25
  A 1.33 1.31 63.1 0 1 49.39 146.49
  Q 51.03 144.17 52.36 144.15
  Q 56.64 144.13 97.55 144.16
  Z"
/>
<path fill="#fdedec" d="
  M 112.28 64.74
  C 113.63 73.75 112.62 81.71 110.72 90.79
  L 46.11 90.79
  A 0.33 0.32 -79.0 0 1 45.81 90.34
  Q 51.26 76.90 54.37 68.87
  C 55.73 65.35 58.08 64.77 61.84 64.76
  Q 87.08 64.68 112.28 64.74
  Z"
/>
<path fill="#ffffff" d="
  M 110.72 90.79
  C 112.62 81.71 113.63 73.75 112.28 64.74
  Q 122.32 64.77 132.37 64.72
  Q 135.77 64.70 137.43 65.77
  Q 139.59 67.16 140.66 69.89
  Q 144.04 78.56 148.36 89.79
  A 0.74 0.73 -10.4 0 1 147.67 90.78
  L 110.72 90.79
  Z"
/>
<path fill="#ffffff" d="
  M 38.55 93.36
  L 28.07 93.36
  A 2.98 2.98 0.0 0 1 25.18 91.11
  L 25.10 90.80
  A 1.80 1.80 0.0 0 1 26.84 88.56
  L 33.88 88.56
  A 1.67 1.66 67.4 0 1 35.06 89.05
  L 38.79 92.78
  A 0.34 0.34 0.0 0 1 38.55 93.36
  Z"
/>
<path fill="#ffffff" d="
  M 156.02 93.37
  A 0.35 0.35 0.0 0 1 155.78 92.77
  L 159.64 88.94
  A 1.73 1.72 -67.1 0 1 160.86 88.44
  L 168.12 88.47
  A 1.85 1.85 0.0 0 1 169.91 90.79
  L 169.82 91.11
  A 3.08 3.07 -82.6 0 1 166.83 93.42
  L 156.02 93.37
  Z"
/>
<path fill="#ffffff" d="
  M 97.59 95.55
  Q 148.35 95.59 150.29 95.64
  A 1.56 1.52 -24.3 0 1 151.21 95.97
  C 156.14 99.97 160.31 104.17 162.00 109.82
  A 3.80 3.53 -55.0 0 1 162.14 110.83
  Q 162.07 151.78 162.12 153.06
  C 162.21 155.71 161.23 156.97 158.53 157.06
  Q 152.71 157.24 148.12 156.92
  A 2.35 2.34 -88.0 0 1 145.94 154.58
  L 145.94 147.33
  A 1.33 1.31 -63.0 0 0 145.70 146.57
  Q 144.07 144.24 142.74 144.23
  Q 138.45 144.20 97.55 144.16
  Q 56.64 144.13 52.36 144.15
  Q 51.03 144.17 49.39 146.49
  A 1.33 1.31 63.1 0 0 49.15 147.25
  L 49.14 154.50
  A 2.35 2.34 88.1 0 1 46.96 156.84
  Q 42.37 157.15 36.55 156.96
  C 33.85 156.87 32.87 155.61 32.96 152.96
  Q 33.01 151.68 33.01 110.73
  A 3.80 3.53 55.1 0 1 33.15 109.72
  C 34.85 104.07 39.03 99.88 43.96 95.89
  A 1.56 1.52 24.4 0 1 44.88 95.55
  Q 46.82 95.51 97.59 95.55
  Z
  M 63.73 119.05
  C 62.81 115.26 61.19 111.34 56.88 110.57
  Q 50.65 109.44 43.62 108.80
  C 37.47 108.22 37.02 112.87 36.75 117.72
  C 36.46 122.92 39.31 125.97 44.44 126.13
  Q 49.46 126.29 59.40 126.08
  C 63.11 126.01 64.51 122.31 63.73 119.05
  Z
  M 130.87 119.27
  C 130.12 122.55 131.57 126.26 135.30 126.29
  Q 145.30 126.39 150.35 126.17
  C 155.50 125.95 158.34 122.85 157.99 117.63
  C 157.66 112.75 157.16 108.08 150.98 108.73
  Q 143.92 109.46 137.66 110.66
  C 133.34 111.48 131.75 115.44 130.87 119.27
  Z
  M 121.10 113.28
  L 73.62 113.20
  A 2.83 2.83 0.0 0 0 70.79 116.02
  L 70.79 116.96
  A 10.69 8.00 -89.9 0 0 78.77 127.67
  L 115.91 127.73
  A 10.69 8.00 -89.9 0 0 123.93 117.06
  L 123.93 116.12
  A 2.83 2.83 0.0 0 0 121.10 113.28
  Z"
/>
<path fill="#000000" d="
  M 63.73 119.05
  C 64.51 122.31 63.11 126.01 59.40 126.08
  Q 49.46 126.29 44.44 126.13
  C 39.31 125.97 36.46 122.92 36.75 117.72
  C 37.02 112.87 37.47 108.22 43.62 108.80
  Q 50.65 109.44 56.88 110.57
  C 61.19 111.34 62.81 115.26 63.73 119.05
  Z
  M 41.68 115.00
  L 41.68 118.77
  A 2.20 2.19 90.0 0 0 43.87 120.97
  L 57.45 120.97
  A 1.43 1.43 0.0 0 0 58.69 118.82
  L 57.45 116.67
  A 2.98 2.97 -10.5 0 0 55.33 115.22
  L 43.54 113.39
  A 1.63 1.61 -85.6 0 0 41.68 115.00
  Z"
/>
<path fill="#000000" d="
  M 135.30 126.29
  C 131.57 126.26 130.12 122.55 130.87 119.27
  C 131.75 115.44 133.34 111.48 137.66 110.66
  Q 143.92 109.46 150.98 108.73
  C 157.16 108.08 157.66 112.75 157.99 117.63
  C 158.34 122.85 155.50 125.95 150.35 126.17
  Q 145.30 126.39 135.30 126.29
  Z
  M 136.19 120.95
  L 150.92 120.95
  A 1.96 1.96 0.0 0 0 152.88 118.99
  L 152.88 114.66
  A 1.21 1.20 -4.1 0 0 151.50 113.47
  L 139.09 115.22
  A 2.09 2.08 10.9 0 0 137.56 116.25
  L 135.52 119.78
  A 0.78 0.78 0.0 0 0 136.19 120.95
  Z"
/>
<path fill="#000000" d="
  M 121.10 113.28
  A 2.83 2.83 0.0 0 1 123.93 116.12
  L 123.93 117.06
  A 10.69 8.00 -89.9 0 1 115.91 127.73
  L 78.77 127.67
  A 10.69 8.00 -89.9 0 1 70.79 116.96
  L 70.79 116.02
  A 2.83 2.83 0.0 0 1 73.62 113.20
  L 121.10 113.28
  Z
  M 97.34 122.88
  Q 115.53 122.88 115.86 122.82
  A 2.14 2.11 27.1 0 0 116.36 122.66
  Q 118.26 121.77 118.73 118.84
  A 0.43 0.43 0.0 0 0 118.30 118.34
  Q 115.69 118.42 97.34 118.42
  Q 78.99 118.42 76.38 118.34
  A 0.43 0.43 0.0 0 0 75.94 118.84
  Q 76.41 121.77 78.31 122.66
  A 2.14 2.11 -27.1 0 0 78.82 122.82
  Q 79.14 122.88 97.34 122.88
  Z"
/>
<path fill="#ffffff" d="
  M 41.68 115.00
  A 1.63 1.61 -85.6 0 1 43.54 113.39
  L 55.33 115.22
  A 2.98 2.97 -10.5 0 1 57.45 116.67
  L 58.69 118.82
  A 1.43 1.43 0.0 0 1 57.45 120.97
  L 43.87 120.97
  A 2.20 2.19 90.0 0 1 41.68 118.77
  L 41.68 115.00
  Z"
/>
<path fill="#ffffff" d="
  M 136.19 120.95
  A 0.78 0.78 0.0 0 1 135.52 119.78
  L 137.56 116.25
  A 2.09 2.08 10.9 0 1 139.09 115.22
  L 151.50 113.47
  A 1.21 1.20 -4.1 0 1 152.88 114.66
  L 152.88 118.99
  A 1.96 1.96 0.0 0 1 150.92 120.95
  L 136.19 120.95
  Z"
/>
<path fill="#ffffff" d="
  M 97.34 118.42
  Q 115.69 118.42 118.30 118.34
  A 0.43 0.43 0.0 0 1 118.73 118.84
  Q 118.26 121.77 116.36 122.66
  A 2.14 2.11 27.1 0 1 115.86 122.82
  Q 115.53 122.88 97.34 122.88
  Q 79.14 122.88 78.82 122.82
  A 2.14 2.11 -27.1 0 1 78.31 122.66
  Q 76.41 121.77 75.94 118.84
  A 0.43 0.43 0.0 0 1 76.38 118.34
  Q 78.99 118.42 97.34 118.42
  Z"
/>
</svg>
