<?xml version="1.0" encoding="UTF-8" standalone="no"?>
<!DOCTYPE svg PUBLIC "-//W3C//DTD SVG 1.1//EN" "http://www.w3.org/Graphics/SVG/1.1/DTD/svg11.dtd">
<svg xmlns="http://www.w3.org/2000/svg" version="1.1" viewBox="0.00 0.00 229.00 197.00">
<g stroke-width="2.00" fill="none" stroke-linecap="butt">
<path stroke="#fef6f6" vector-effect="non-scaling-stroke" d="
  M 125.78 48.76
  Q 122.20 45.76 116.73 43.78
  Q 108.46 40.78 100.43 40.48"
/>
<path stroke="#818182" vector-effect="non-scaling-stroke" d="
  M 100.43 40.48
  Q 93.68 38.74 84.43 42.00"
/>
<path stroke="#fef6f6" vector-effect="non-scaling-stroke" d="
  M 84.43 42.00
  Q 63.27 45.60 50.57 63.57
  C 33.72 87.40 37.36 121.90 60.75 140.24
  Q 84.64 158.97 114.56 150.11
  Q 118.11 149.06 121.99 146.58"
/>
<path stroke="#818182" vector-effect="non-scaling-stroke" d="
  M 121.99 146.58
  Q 130.33 146.67 138.75 146.70
  Q 141.92 146.70 142.44 143.72
  Q 142.69 142.35 142.57 137.77
  C 142.51 135.75 141.63 134.63 139.82 133.99"
/>
<path stroke="#fef6f6" vector-effect="non-scaling-stroke" d="
  M 139.82 133.99
  Q 142.74 128.86 145.91 123.91
  Q 147.23 121.85 148.27 118.40"
/>
<path stroke="#818182" vector-effect="non-scaling-stroke" d="
  M 148.27 118.40
  C 157.39 119.33 158.21 113.64 156.24 106.56
  C 153.03 95.01 149.13 83.01 144.27 66.71
  Q 143.59 64.42 140.97 62.87"
/>
<path stroke="#fef6f6" vector-effect="non-scaling-stroke" d="
  M 140.97 62.87
  Q 141.71 62.82 140.93 61.85
  Q 136.81 56.73 132.07 51.85"
/>
<path stroke="#818182" vector-effect="non-scaling-stroke" d="
  M 132.07 51.85
  L 193.45 39.89
  A 1.81 1.81 0.0 0 0 194.92 38.11
  L 194.92 37.60
  A 1.92 1.92 0.0 0 0 192.64 35.72
  L 125.78 48.76"
/>
<path stroke="#807878" vector-effect="non-scaling-stroke" d="
  M 132.07 51.85
  L 117.45 54.70
  A 2.12 2.11 -11.3 0 1 114.97 53.05
  L 114.97 53.01
  A 2.08 2.07 78.7 0 1 116.60 50.55
  L 125.78 48.76"
/>
<path stroke="#807878" vector-effect="non-scaling-stroke" d="
  M 140.97 62.87
  Q 121.47 62.71 101.79 62.82
  C 97.65 62.85 94.10 62.45 92.70 67.18
  Q 82.15 102.76 80.28 109.02
  Q 78.07 116.42 84.68 118.34
  A 1.62 1.61 53.3 0 0 85.15 118.41
  L 107.66 118.41
  A 0.54 0.53 -0.0 0 1 108.20 118.94
  L 108.20 133.66
  A 0.53 0.52 1.1 0 1 107.65 134.18
  Q 100.89 133.91 97.72 133.99
  Q 95.49 134.04 94.45 136.12
  A 2.19 2.08 -33.3 0 0 94.23 137.06
  L 94.23 143.88
  A 2.56 2.55 -89.9 0 0 96.77 146.44
  L 121.99 146.58"
/>
<path stroke="#807878" vector-effect="non-scaling-stroke" d="
  M 100.43 40.48
  C 101.34 42.41 101.21 44.21 98.91 44.48
  Q 95.56 44.88 91.68 44.87
  A 3.53 3.36 35.1 0 0 90.67 45.02
  C 80.98 47.97 73.88 57.42 74.15 67.92
  A 2.05 2.04 90.0 0 1 72.06 70.02
  L 71.98 70.02
  A 2.25 2.24 89.5 0 1 69.78 67.86
  Q 69.31 55.58 78.47 47.47
  Q 81.28 44.97 84.43 42.00"
/>
<path stroke="#807878" vector-effect="non-scaling-stroke" d="
  M 148.27 118.40
  L 129.11 118.41
  A 0.40 0.40 0.0 0 0 128.71 118.81
  L 128.71 133.69
  A 0.41 0.41 0.0 0 0 129.13 134.10
  L 139.82 133.99"
/>
<path stroke="#818182" vector-effect="non-scaling-stroke" d="
  M 169.97 141.87
  Q 183.70 144.44 193.75 146.37
  A 2.11 2.08 4.1 0 0 196.26 144.22
  Q 196.19 142.81 194.47 142.38
  Q 192.89 141.99 170.72 137.84
  Q 148.56 133.69 146.94 133.49
  Q 145.18 133.27 144.61 134.56
  A 2.11 2.08 17.1 0 0 146.17 137.47
  Q 156.24 139.30 169.97 141.87"
/>
<path stroke="#807878" vector-effect="non-scaling-stroke" d="
  M 85.73 55.74
  Q 80.39 60.83 80.28 68.34
  A 2.23 2.15 81.3 0 0 83.13 70.51
  Q 83.80 70.28 84.50 69.13
  A 1.70 1.62 -28.8 0 0 84.75 68.33
  Q 85.08 62.69 88.89 59.06
  Q 92.70 55.43 98.35 55.37
  A 1.70 1.62 -58.5 0 0 99.16 55.15
  Q 100.34 54.51 100.60 53.85
  A 2.23 2.15 11.4 0 0 98.57 50.91
  Q 91.06 50.65 85.73 55.74"
/>
<path stroke="#818182" vector-effect="non-scaling-stroke" d="
  M 84.06 111.15
  A 2.40 2.40 0.0 0 0 86.36 114.23
  L 150.78 114.23
  A 2.40 2.40 0.0 0 0 153.08 111.15
  L 140.45 68.57
  A 2.40 2.40 0.0 0 0 138.15 66.85
  L 98.97 66.85
  A 2.40 2.40 0.0 0 0 96.67 68.57
  L 84.06 111.15"
/>
<path stroke="#818182" vector-effect="non-scaling-stroke" d="
  M 124.4771 118.8995
  A 0.27 0.27 0.0 0 0 124.2067 118.6300
  L 112.7267 118.6500
  A 0.27 0.27 0.0 0 0 112.4571 118.9205
  L 112.4829 133.6605
  A 0.27 0.27 0.0 0 0 112.7533 133.9300
  L 124.2333 133.9100
  A 0.27 0.27 0.0 0 0 124.5029 133.6395
  L 124.4771 118.8995"
/>
<path stroke="#818182" vector-effect="non-scaling-stroke" d="
  M 138.02 138.78
  A 0.30 0.30 0.0 0 0 137.72 138.48
  L 98.92 138.48
  A 0.30 0.30 0.0 0 0 98.62 138.78
  L 98.62 141.94
  A 0.30 0.30 0.0 0 0 98.92 142.24
  L 137.72 142.24
  A 0.30 0.30 0.0 0 0 138.02 141.94
  L 138.02 138.78"
/>
<path stroke="#818182" vector-effect="non-scaling-stroke" d="
  M 134.7916 83.2665
  A 7.35 7.35 0.0 0 0 127.4673 75.8909
  L 109.8274 75.8293
  A 7.35 7.35 0.0 0 0 102.4518 83.1536
  L 102.4084 95.5735
  A 7.35 7.35 0.0 0 0 109.7327 102.9491
  L 127.3726 103.0107
  A 7.35 7.35 0.0 0 0 134.7482 95.6864
  L 134.7916 83.2665"
/>
<path stroke="#807878" vector-effect="non-scaling-stroke" d="
  M 130.1602 83.7996
  A 3.47 3.47 0.0 0 0 126.6841 80.3357
  L 110.2841 80.3643
  A 3.47 3.47 0.0 0 0 106.8202 83.8404
  L 106.8398 95.1004
  A 3.47 3.47 0.0 0 0 110.3159 98.5643
  L 126.7159 98.5357
  A 3.47 3.47 0.0 0 0 130.1798 95.0596
  L 130.1602 83.7996"
/>
</g>
<path fill="#ffffff" d="
  M 229.00 0.00
  L 229.00 197.00
  L 0.00 197.00
  L 0.00 0.00
  L 229.00 0.00
  Z
  M 125.78 48.76
  Q 122.20 45.76 116.73 43.78
  Q 108.46 40.78 100.43 40.48
  Q 93.68 38.74 84.43 42.00
  Q 63.27 45.60 50.57 63.57
  C 33.72 87.40 37.36 121.90 60.75 140.24
  Q 84.64 158.97 114.56 150.11
  Q 118.11 149.06 121.99 146.58
  Q 130.33 146.67 138.75 146.70
  Q 141.92 146.70 142.44 143.72
  Q 142.69 142.35 142.57 137.77
  C 142.51 135.75 141.63 134.63 139.82 133.99
  Q 142.74 128.86 145.91 123.91
  Q 147.23 121.85 148.27 118.40
  C 157.39 119.33 158.21 113.64 156.24 106.56
  C 153.03 95.01 149.13 83.01 144.27 66.71
  Q 143.59 64.42 140.97 62.87
  Q 141.71 62.82 140.93 61.85
  Q 136.81 56.73 132.07 51.85
  L 193.45 39.89
  A 1.81 1.81 0.0 0 0 194.92 38.11
  L 194.92 37.60
  A 1.92 1.92 0.0 0 0 192.64 35.72
  L 125.78 48.76
  Z
  M 169.97 141.87
  Q 183.70 144.44 193.75 146.37
  A 2.11 2.08 4.1 0 0 196.26 144.22
  Q 196.19 142.81 194.47 142.38
  Q 192.89 141.99 170.72 137.84
  Q 148.56 133.69 146.94 133.49
  Q 145.18 133.27 144.61 134.56
  A 2.11 2.08 17.1 0 0 146.17 137.47
  Q 156.24 139.30 169.97 141.87
  Z"
/>
<path fill="#030304" d="
  M 132.07 51.85
  L 117.45 54.70
  A 2.12 2.11 -11.3 0 1 114.97 53.05
  L 114.97 53.01
  A 2.08 2.07 78.7 0 1 116.60 50.55
  L 125.78 48.76
  L 192.64 35.72
  A 1.92 1.92 0.0 0 1 194.92 37.60
  L 194.92 38.11
  A 1.81 1.81 0.0 0 1 193.45 39.89
  L 132.07 51.85
  Z"
/>
<path fill="#030304" d="
  M 100.43 40.48
  C 101.34 42.41 101.21 44.21 98.91 44.48
  Q 95.56 44.88 91.68 44.87
  A 3.53 3.36 35.1 0 0 90.67 45.02
  C 80.98 47.97 73.88 57.42 74.15 67.92
  A 2.05 2.04 90.0 0 1 72.06 70.02
  L 71.98 70.02
  A 2.25 2.24 89.5 0 1 69.78 67.86
  Q 69.31 55.58 78.47 47.47
  Q 81.28 44.97 84.43 42.00
  Q 93.68 38.74 100.43 40.48
  Z"
/>
<path fill="#fdedec" d="
  M 125.78 48.76
  L 116.60 50.55
  A 2.08 2.07 78.7 0 0 114.97 53.01
  L 114.97 53.05
  A 2.12 2.11 -11.3 0 0 117.45 54.70
  L 132.07 51.85
  Q 136.81 56.73 140.93 61.85
  Q 141.71 62.82 140.97 62.87
  Q 121.47 62.71 101.79 62.82
  C 97.65 62.85 94.10 62.45 92.70 67.18
  Q 82.15 102.76 80.28 109.02
  Q 78.07 116.42 84.68 118.34
  A 1.62 1.61 53.3 0 0 85.15 118.41
  L 107.66 118.41
  A 0.54 0.53 -0.0 0 1 108.20 118.94
  L 108.20 133.66
  A 0.53 0.52 1.1 0 1 107.65 134.18
  Q 100.89 133.91 97.72 133.99
  Q 95.49 134.04 94.45 136.12
  A 2.19 2.08 -33.3 0 0 94.23 137.06
  L 94.23 143.88
  A 2.56 2.55 -89.9 0 0 96.77 146.44
  L 121.99 146.58
  Q 118.11 149.06 114.56 150.11
  Q 84.64 158.97 60.75 140.24
  C 37.36 121.90 33.72 87.40 50.57 63.57
  Q 63.27 45.60 84.43 42.00
  Q 81.28 44.97 78.47 47.47
  Q 69.31 55.58 69.78 67.86
  A 2.25 2.24 89.5 0 0 71.98 70.02
  L 72.06 70.02
  A 2.05 2.04 90.0 0 0 74.15 67.92
  C 73.88 57.42 80.98 47.97 90.67 45.02
  A 3.53 3.36 35.1 0 1 91.68 44.87
  Q 95.56 44.88 98.91 44.48
  C 101.21 44.21 101.34 42.41 100.43 40.48
  Q 108.46 40.78 116.73 43.78
  Q 122.20 45.76 125.78 48.76
  Z
  M 85.73 55.74
  Q 80.39 60.83 80.28 68.34
  A 2.23 2.15 81.3 0 0 83.13 70.51
  Q 83.80 70.28 84.50 69.13
  A 1.70 1.62 -28.8 0 0 84.75 68.33
  Q 85.08 62.69 88.89 59.06
  Q 92.70 55.43 98.35 55.37
  A 1.70 1.62 -58.5 0 0 99.16 55.15
  Q 100.34 54.51 100.60 53.85
  A 2.23 2.15 11.4 0 0 98.57 50.91
  Q 91.06 50.65 85.73 55.74
  Z"
/>
<path fill="#030304" d="
  M 88.89 59.06
  Q 85.08 62.69 84.75 68.33
  A 1.70 1.62 -28.8 0 1 84.50 69.13
  Q 83.80 70.28 83.13 70.51
  A 2.23 2.15 81.3 0 1 80.28 68.34
  Q 80.39 60.83 85.73 55.74
  Q 91.06 50.65 98.57 50.91
  A 2.23 2.15 11.4 0 1 100.60 53.85
  Q 100.34 54.51 99.16 55.15
  A 1.70 1.62 -58.5 0 1 98.35 55.37
  Q 92.70 55.43 88.89 59.06
  Z"
/>
<path fill="#030304" d="
  M 140.97 62.87
  Q 143.59 64.42 144.27 66.71
  C 149.13 83.01 153.03 95.01 156.24 106.56
  C 158.21 113.64 157.39 119.33 148.27 118.40
  L 129.11 118.41
  A 0.40 0.40 0.0 0 0 128.71 118.81
  L 128.71 133.69
  A 0.41 0.41 0.0 0 0 129.13 134.10
  L 139.82 133.99
  C 141.63 134.63 142.51 135.75 142.57 137.77
  Q 142.69 142.35 142.44 143.72
  Q 141.92 146.70 138.75 146.70
  Q 130.33 146.67 121.99 146.58
  L 96.77 146.44
  A 2.56 2.55 -89.9 0 1 94.23 143.88
  L 94.23 137.06
  A 2.19 2.08 -33.3 0 1 94.45 136.12
  Q 95.49 134.04 97.72 133.99
  Q 100.89 133.91 107.65 134.18
  A 0.53 0.52 1.1 0 0 108.20 133.66
  L 108.20 118.94
  A 0.54 0.53 0.0 0 0 107.66 118.41
  L 85.15 118.41
  A 1.62 1.61 53.3 0 1 84.68 118.34
  Q 78.07 116.42 80.28 109.02
  Q 82.15 102.76 92.70 67.18
  C 94.10 62.45 97.65 62.85 101.79 62.82
  Q 121.47 62.71 140.97 62.87
  Z
  M 84.06 111.15
  A 2.40 2.40 0.0 0 0 86.36 114.23
  L 150.78 114.23
  A 2.40 2.40 0.0 0 0 153.08 111.15
  L 140.45 68.57
  A 2.40 2.40 0.0 0 0 138.15 66.85
  L 98.97 66.85
  A 2.40 2.40 0.0 0 0 96.67 68.57
  L 84.06 111.15
  Z
  M 124.4771 118.8995
  A 0.27 0.27 0.0 0 0 124.2067 118.6300
  L 112.7267 118.6500
  A 0.27 0.27 0.0 0 0 112.4571 118.9205
  L 112.4829 133.6605
  A 0.27 0.27 0.0 0 0 112.7533 133.9300
  L 124.2333 133.9100
  A 0.27 0.27 0.0 0 0 124.5029 133.6395
  L 124.4771 118.8995
  Z
  M 138.02 138.78
  A 0.30 0.30 0.0 0 0 137.72 138.48
  L 98.92 138.48
  A 0.30 0.30 0.0 0 0 98.62 138.78
  L 98.62 141.94
  A 0.30 0.30 0.0 0 0 98.92 142.24
  L 137.72 142.24
  A 0.30 0.30 0.0 0 0 138.02 141.94
  L 138.02 138.78
  Z"
/>
<path fill="#ffffff" d="
  M 84.06 111.15
  L 96.67 68.57
  A 2.40 2.40 0.0 0 1 98.97 66.85
  L 138.15 66.85
  A 2.40 2.40 0.0 0 1 140.45 68.57
  L 153.08 111.15
  A 2.40 2.40 0.0 0 1 150.78 114.23
  L 86.36 114.23
  A 2.40 2.40 0.0 0 1 84.06 111.15
  Z
  M 134.7916 83.2665
  A 7.35 7.35 0.0 0 0 127.4673 75.8909
  L 109.8274 75.8293
  A 7.35 7.35 0.0 0 0 102.4518 83.1536
  L 102.4084 95.5735
  A 7.35 7.35 0.0 0 0 109.7327 102.9491
  L 127.3726 103.0107
  A 7.35 7.35 0.0 0 0 134.7482 95.6864
  L 134.7916 83.2665
  Z"
/>
<path fill="#030304" d="
  M 134.7482 95.6864
  A 7.35 7.35 0.0 0 1 127.3726 103.0107
  L 109.7327 102.9491
  A 7.35 7.35 0.0 0 1 102.4084 95.5735
  L 102.4518 83.1536
  A 7.35 7.35 0.0 0 1 109.8274 75.8293
  L 127.4673 75.8909
  A 7.35 7.35 0.0 0 1 134.7916 83.2665
  L 134.7482 95.6864
  Z
  M 130.1602 83.7996
  A 3.47 3.47 0.0 0 0 126.6841 80.3357
  L 110.2841 80.3643
  A 3.47 3.47 0.0 0 0 106.8202 83.8404
  L 106.8398 95.1004
  A 3.47 3.47 0.0 0 0 110.3159 98.5643
  L 126.7159 98.5357
  A 3.47 3.47 0.0 0 0 130.1798 95.0596
  L 130.1602 83.7996
  Z"
/>
<rect fill="#fdedec" x="-11.67" y="-9.10" transform="translate(118.50,89.45) rotate(-0.1)" width="23.34" height="18.20" rx="3.47"/>
<path fill="#fdedec" d="
  M 148.27 118.40
  Q 147.23 121.85 145.91 123.91
  Q 142.74 128.86 139.82 133.99
  L 129.13 134.10
  A 0.41 0.41 0.0 0 1 128.71 133.69
  L 128.71 118.81
  A 0.40 0.40 0.0 0 1 129.11 118.41
  L 148.27 118.40
  Z"
/>
<rect fill="#ffffff" x="-6.01" y="-7.64" transform="translate(118.48,126.28) rotate(-0.1)" width="12.02" height="15.28" rx="0.27"/>
<path fill="#030304" d="
  M 170.72 137.84
  Q 192.89 141.99 194.47 142.38
  Q 196.19 142.81 196.26 144.22
  A 2.11 2.08 4.1 0 1 193.75 146.37
  Q 183.70 144.44 169.97 141.87
  Q 156.24 139.30 146.17 137.47
  A 2.11 2.08 17.1 0 1 144.61 134.56
  Q 145.18 133.27 146.94 133.49
  Q 148.56 133.69 170.72 137.84
  Z"
/>
<rect fill="#ffffff" x="98.62" y="138.48" width="39.40" height="3.76" rx="0.30"/>
</svg>
