<?xml version="1.0" encoding="UTF-8" standalone="no"?>
<!DOCTYPE svg PUBLIC "-//W3C//DTD SVG 1.1//EN" "http://www.w3.org/Graphics/SVG/1.1/DTD/svg11.dtd">
<svg xmlns="http://www.w3.org/2000/svg" version="1.1" viewBox="0.00 0.00 229.00 204.00">
<g stroke-width="2.00" fill="none" stroke-linecap="butt">
<path stroke="#808080" vector-effect="non-scaling-stroke" d="
  M 24.19 121.73
  Q 25.03 128.82 31.76 130.63
  A 0.80 0.30 24.7 0 0 31.89 130.64
  L 40.68 130.64
  A 0.78 0.77 81.3 0 1 41.42 131.19
  C 43.71 138.57 50.10 143.36 57.81 142.70
  C 64.19 142.14 69.99 137.32 71.38 131.09
  A 0.58 0.57 6.3 0 1 71.94 130.65
  L 133.76 130.65
  A 0.26 0.25 -7.2 0 1 134.01 130.84
  C 136.09 138.87 143.68 143.91 151.82 142.53
  Q 160.82 140.99 164.21 131.23
  A 0.79 0.78 7.7 0 1 164.91 130.70
  C 170.74 130.35 180.43 133.05 180.33 123.04
  C 180.24 113.27 178.95 99.47 167.29 96.51
  Q 161.61 95.07 147.96 92.82
  Q 143.80 92.13 141.20 90.05
  Q 134.33 84.54 122.69 74.43
  Q 121.64 73.52 119.15 71.76
  Q 116.90 70.17 115.71 68.95"
/>
<path stroke="#fef6f6" vector-effect="non-scaling-stroke" d="
  M 115.71 68.95
  Q 111.89 44.52 91.83 31.41
  C 66.57 14.90 31.94 20.75 14.39 45.87
  C -0.93 67.81 0.89 96.36 18.81 116.69
  Q 21.75 120.03 24.19 121.73"
/>
<path stroke="#7f7777" vector-effect="non-scaling-stroke" d="
  M 115.71 68.95
  Q 108.88 65.88 104.26 65.88
  Q 45.32 65.90 41.50 66.01
  Q 35.23 66.18 32.94 71.69
  C 30.27 78.15 26.89 86.14 24.48 94.47
  A 7.47 7.24 53.9 0 0 24.19 96.52
  L 24.19 121.73"
/>
<path stroke="#808080" vector-effect="non-scaling-stroke" d="
  M 55.44 111.41
  Q 55.49 109.05 55.38 90.73
  C 55.35 84.44 56.09 79.53 63.25 79.53
  Q 94.01 79.54 101.20 79.50
  C 114.66 79.43 125.21 87.46 131.03 99.26
  A 2.02 1.98 37.9 0 1 131.20 100.53
  C 130.69 102.97 128.48 103.57 125.86 103.57
  Q 112.20 103.53 96.06 103.54
  A 0.57 0.57 0.0 0 0 95.49 104.11
  L 95.49 125.33
  A 0.35 0.35 0.0 0 0 95.84 125.68
  L 132.97 125.68
  A 0.70 0.70 0.0 0 0 133.65 125.13
  C 135.72 115.35 145.85 108.94 155.32 113.40
  Q 162.78 116.91 164.56 125.15
  A 0.66 0.65 84.0 0 0 165.20 125.67
  L 173.71 125.67
  A 1.42 1.42 0.0 0 0 175.13 124.31
  Q 175.45 116.93 173.35 108.87
  Q 171.67 102.44 164.28 100.96
  Q 156.02 99.31 149.88 98.40
  C 143.87 97.51 139.82 95.90 135.69 92.30
  Q 122.82 81.09 115.92 75.52
  Q 112.38 72.67 106.14 70.98
  A 2.57 2.52 52.0 0 0 105.47 70.89
  L 41.22 70.89
  A 1.90 1.89 37.0 0 0 40.71 70.96
  Q 38.27 71.65 37.38 73.90
  Q 33.08 84.78 30.02 92.88
  A 11.15 11.00 56.1 0 0 29.32 96.59
  Q 29.07 112.06 29.27 120.25
  C 29.38 124.70 30.96 125.78 35.43 125.71
  Q 39.35 125.64 40.47 125.64
  A 0.87 0.82 17.1 0 0 41.12 125.32
  Q 41.35 125.03 41.25 124.59
  Q 41.13 124.09 41.35 123.44
  Q 44.72 113.48 54.93 111.98
  A 0.59 0.59 0.0 0 0 55.44 111.41"
/>
<path stroke="#808080" vector-effect="non-scaling-stroke" d="
  M 114.05 98.73
  L 124.21 98.78
  A 0.44 0.44 0.0 0 0 124.58 98.09
  Q 121.33 93.14 116.50 89.38"
/>
<path stroke="#7f7777" vector-effect="non-scaling-stroke" d="
  M 116.50 89.38
  C 110.44 84.84 103.77 84.03 95.83 84.59
  A 0.60 0.60 0.0 0 0 95.26 85.19
  L 95.26 98.06
  A 0.67 0.66 90.0 0 0 95.92 98.73
  L 114.05 98.73"
/>
<path stroke="#fef6f6" vector-effect="non-scaling-stroke" d="
  M 116.50 89.38
  L 114.05 98.73"
/>
<path stroke="#808080" vector-effect="non-scaling-stroke" d="
  M 89.75 84.82
  L 61.65 84.82
  A 0.87 0.87 0.0 0 0 60.78 85.69
  L 60.78 111.88
  A 0.82 0.82 0.0 0 0 61.31 112.65
  Q 70.21 115.83 72.08 125.11
  A 0.71 0.70 -5.4 0 0 72.78 125.68
  L 89.69 125.68
  A 0.62 0.61 -90.0 0 0 90.30 125.06
  L 90.30 85.37
  A 0.55 0.55 0.0 0 0 89.75 84.82"
/>
<path stroke="#808080" vector-effect="non-scaling-stroke" d="
  M 66.7249 125.7123
  A 10.36 10.09 -9.6 0 0 54.8273 117.4913
  A 10.36 10.09 -9.6 0 0 46.2951 129.1677
  A 10.36 10.09 -9.6 0 0 58.1927 137.3887
  A 10.36 10.09 -9.6 0 0 66.7249 125.7123"
/>
<path stroke="#808080" vector-effect="non-scaling-stroke" d="
  M 138.8315 126.8347
  A 10.31 10.12 -176.3 0 0 148.4669 137.5989
  A 10.31 10.12 -176.3 0 0 159.4085 128.1653
  A 10.31 10.12 -176.3 0 0 149.7731 117.4011
  A 10.31 10.12 -176.3 0 0 138.8315 126.8347"
/>
</g>
<path fill="#ffffff" d="
  M 229.00 0.00
  L 229.00 204.00
  L 0.00 204.00
  L 0.00 0.00
  L 229.00 0.00
  Z
  M 24.19 121.73
  Q 25.03 128.82 31.76 130.63
  A 0.80 0.30 24.7 0 0 31.89 130.64
  L 40.68 130.64
  A 0.78 0.77 81.3 0 1 41.42 131.19
  C 43.71 138.57 50.10 143.36 57.81 142.70
  C 64.19 142.14 69.99 137.32 71.38 131.09
  A 0.58 0.57 6.3 0 1 71.94 130.65
  L 133.76 130.65
  A 0.26 0.25 -7.2 0 1 134.01 130.84
  C 136.09 138.87 143.68 143.91 151.82 142.53
  Q 160.82 140.99 164.21 131.23
  A 0.79 0.78 7.7 0 1 164.91 130.70
  C 170.74 130.35 180.43 133.05 180.33 123.04
  C 180.24 113.27 178.95 99.47 167.29 96.51
  Q 161.61 95.07 147.96 92.82
  Q 143.80 92.13 141.20 90.05
  Q 134.33 84.54 122.69 74.43
  Q 121.64 73.52 119.15 71.76
  Q 116.90 70.17 115.71 68.95
  Q 111.89 44.52 91.83 31.41
  C 66.57 14.90 31.94 20.75 14.39 45.87
  C -0.93 67.81 0.89 96.36 18.81 116.69
  Q 21.75 120.03 24.19 121.73
  Z"
/>
<path fill="#fdedec" d="
  M 115.71 68.95
  Q 108.88 65.88 104.26 65.88
  Q 45.32 65.90 41.50 66.01
  Q 35.23 66.18 32.94 71.69
  C 30.27 78.15 26.89 86.14 24.48 94.47
  A 7.47 7.24 53.9 0 0 24.19 96.52
  L 24.19 121.73
  Q 21.75 120.03 18.81 116.69
  C 0.89 96.36 -0.93 67.81 14.39 45.87
  C 31.94 20.75 66.57 14.90 91.83 31.41
  Q 111.89 44.52 115.71 68.95
  Z"
/>
<path fill="#010101" d="
  M 115.71 68.95
  Q 116.90 70.17 119.15 71.76
  Q 121.64 73.52 122.69 74.43
  Q 134.33 84.54 141.20 90.05
  Q 143.80 92.13 147.96 92.82
  Q 161.61 95.07 167.29 96.51
  C 178.95 99.47 180.24 113.27 180.33 123.04
  C 180.43 133.05 170.74 130.35 164.91 130.70
  A 0.79 0.78 7.7 0 0 164.21 131.23
  Q 160.82 140.99 151.82 142.53
  C 143.68 143.91 136.09 138.87 134.01 130.84
  A 0.26 0.25 -7.2 0 0 133.76 130.65
  L 71.94 130.65
  A 0.58 0.57 6.3 0 0 71.38 131.09
  C 69.99 137.32 64.19 142.14 57.81 142.70
  C 50.10 143.36 43.71 138.57 41.42 131.19
  A 0.78 0.77 81.3 0 0 40.68 130.64
  L 31.89 130.64
  A 0.80 0.30 24.7 0 1 31.76 130.63
  Q 25.03 128.82 24.19 121.73
  L 24.19 96.52
  A 7.47 7.24 53.9 0 1 24.48 94.47
  C 26.89 86.14 30.27 78.15 32.94 71.69
  Q 35.23 66.18 41.50 66.01
  Q 45.32 65.90 104.26 65.88
  Q 108.88 65.88 115.71 68.95
  Z
  M 55.44 111.41
  Q 55.49 109.05 55.38 90.73
  C 55.35 84.44 56.09 79.53 63.25 79.53
  Q 94.01 79.54 101.20 79.50
  C 114.66 79.43 125.21 87.46 131.03 99.26
  A 2.02 1.98 37.9 0 1 131.20 100.53
  C 130.69 102.97 128.48 103.57 125.86 103.57
  Q 112.20 103.53 96.06 103.54
  A 0.57 0.57 0.0 0 0 95.49 104.11
  L 95.49 125.33
  A 0.35 0.35 0.0 0 0 95.84 125.68
  L 132.97 125.68
  A 0.70 0.70 0.0 0 0 133.65 125.13
  C 135.72 115.35 145.85 108.94 155.32 113.40
  Q 162.78 116.91 164.56 125.15
  A 0.66 0.65 84.0 0 0 165.20 125.67
  L 173.71 125.67
  A 1.42 1.42 0.0 0 0 175.13 124.31
  Q 175.45 116.93 173.35 108.87
  Q 171.67 102.44 164.28 100.96
  Q 156.02 99.31 149.88 98.40
  C 143.87 97.51 139.82 95.90 135.69 92.30
  Q 122.82 81.09 115.92 75.52
  Q 112.38 72.67 106.14 70.98
  A 2.57 2.52 52.0 0 0 105.47 70.89
  L 41.22 70.89
  A 1.90 1.89 37.0 0 0 40.71 70.96
  Q 38.27 71.65 37.38 73.90
  Q 33.08 84.78 30.02 92.88
  A 11.15 11.00 56.1 0 0 29.32 96.59
  Q 29.07 112.06 29.27 120.25
  C 29.38 124.70 30.96 125.78 35.43 125.71
  Q 39.35 125.64 40.47 125.64
  A 0.87 0.82 17.1 0 0 41.12 125.32
  Q 41.35 125.03 41.25 124.59
  Q 41.13 124.09 41.35 123.44
  Q 44.72 113.48 54.93 111.98
  A 0.59 0.59 0.0 0 0 55.44 111.41
  Z
  M 114.05 98.73
  L 124.21 98.78
  A 0.44 0.44 0.0 0 0 124.58 98.09
  Q 121.33 93.14 116.50 89.38
  C 110.44 84.84 103.77 84.03 95.83 84.59
  A 0.60 0.60 0.0 0 0 95.26 85.19
  L 95.26 98.06
  A 0.67 0.66 90.0 0 0 95.92 98.73
  L 114.05 98.73
  Z
  M 89.75 84.82
  L 61.65 84.82
  A 0.87 0.87 0.0 0 0 60.78 85.69
  L 60.78 111.88
  A 0.82 0.82 0.0 0 0 61.31 112.65
  Q 70.21 115.83 72.08 125.11
  A 0.71 0.70 -5.4 0 0 72.78 125.68
  L 89.69 125.68
  A 0.62 0.61 -90.0 0 0 90.30 125.06
  L 90.30 85.37
  A 0.55 0.55 0.0 0 0 89.75 84.82
  Z
  M 66.7249 125.7123
  A 10.36 10.09 -9.6 0 0 54.8273 117.4913
  A 10.36 10.09 -9.6 0 0 46.2951 129.1677
  A 10.36 10.09 -9.6 0 0 58.1927 137.3887
  A 10.36 10.09 -9.6 0 0 66.7249 125.7123
  Z
  M 138.8315 126.8347
  A 10.31 10.12 -176.3 0 0 148.4669 137.5989
  A 10.31 10.12 -176.3 0 0 159.4085 128.1653
  A 10.31 10.12 -176.3 0 0 149.7731 117.4011
  A 10.31 10.12 -176.3 0 0 138.8315 126.8347
  Z"
/>
<path fill="#ffffff" d="
  M 54.93 111.98
  Q 44.72 113.48 41.35 123.44
  Q 41.13 124.09 41.25 124.59
  Q 41.35 125.03 41.12 125.32
  A 0.87 0.82 17.1 0 1 40.47 125.64
  Q 39.35 125.64 35.43 125.71
  C 30.96 125.78 29.38 124.70 29.27 120.25
  Q 29.07 112.06 29.32 96.59
  A 11.15 11.00 56.1 0 1 30.02 92.88
  Q 33.08 84.78 37.38 73.90
  Q 38.27 71.65 40.71 70.96
  A 1.90 1.89 37.0 0 1 41.22 70.89
  L 105.47 70.89
  A 2.57 2.52 52.0 0 1 106.14 70.98
  Q 112.38 72.67 115.92 75.52
  Q 122.82 81.09 135.69 92.30
  C 139.82 95.90 143.87 97.51 149.88 98.40
  Q 156.02 99.31 164.28 100.96
  Q 171.67 102.44 173.35 108.87
  Q 175.45 116.93 175.13 124.31
  A 1.42 1.42 0.0 0 1 173.71 125.67
  L 165.20 125.67
  A 0.66 0.65 84.0 0 1 164.56 125.15
  Q 162.78 116.91 155.32 113.40
  C 145.85 108.94 135.72 115.35 133.65 125.13
  A 0.70 0.70 0.0 0 1 132.97 125.68
  L 95.84 125.68
  A 0.35 0.35 0.0 0 1 95.49 125.33
  L 95.49 104.11
  A 0.57 0.57 0.0 0 1 96.06 103.54
  Q 112.20 103.53 125.86 103.57
  C 128.48 103.57 130.69 102.97 131.20 100.53
  A 2.02 1.98 37.9 0 0 131.03 99.26
  C 125.21 87.46 114.66 79.43 101.20 79.50
  Q 94.01 79.54 63.25 79.53
  C 56.09 79.53 55.35 84.44 55.38 90.73
  Q 55.49 109.05 55.44 111.41
  A 0.59 0.59 0.0 0 1 54.93 111.98
  Z"
/>
<path fill="#fdedec" d="
  M 116.50 89.38
  L 114.05 98.73
  L 95.92 98.73
  A 0.67 0.66 90.0 0 1 95.26 98.06
  L 95.26 85.19
  A 0.60 0.60 0.0 0 1 95.83 84.59
  C 103.77 84.03 110.44 84.84 116.50 89.38
  Z"
/>
<path fill="#ffffff" d="
  M 90.30 85.37
  L 90.30 125.06
  A 0.62 0.61 -90.0 0 1 89.69 125.68
  L 72.78 125.68
  A 0.71 0.70 -5.4 0 1 72.08 125.11
  Q 70.21 115.83 61.31 112.65
  A 0.82 0.82 0.0 0 1 60.78 111.88
  L 60.78 85.69
  A 0.87 0.87 0.0 0 1 61.65 84.82
  L 89.75 84.82
  A 0.55 0.55 0.0 0 1 90.30 85.37
  Z"
/>
<path fill="#ffffff" d="
  M 116.50 89.38
  Q 121.33 93.14 124.58 98.09
  A 0.44 0.44 0.0 0 1 124.21 98.78
  L 114.05 98.73
  L 116.50 89.38
  Z"
/>
<ellipse fill="#ffffff" cx="0.00" cy="0.00" transform="translate(56.51,127.44) rotate(-9.6)" rx="10.36" ry="10.09"/>
<ellipse fill="#ffffff" cx="0.00" cy="0.00" transform="translate(149.12,127.50) rotate(-176.3)" rx="10.31" ry="10.12"/>
</svg>
