<?xml version="1.0" encoding="utf-8"?>
<svg version="1.1" viewBox="0.00 0.00 195.00 197.00" xmlns="http://www.w3.org/2000/svg"><g id="offState" style="display:inline"><g fill="none" stroke-linecap="butt" stroke-width="2.00">
<path class="icon-shape" d="   M 102.21 150.07   Q 141.06 150.08 141.11 150.08   A 0.40 0.40 0.0 0 1 141.50 150.49   L 141.43 155.12   A 3.12 2.77 41.6 0 0 141.51 155.80   C 143.15 163.57 150.02 162.58 156.61 162.62   Q 161.63 162.65 163.67 161.36   Q 167.50 158.94 167.50 154.38   Q 167.51 115.50 167.49 110.74   C 167.47 106.50 165.08 102.87 162.47 99.29   A 0.53 0.53 0.0 0 1 162.92 98.45   C 168.04 98.71 174.66 99.18 175.78 92.66   Q 176.51 88.42 173.05 85.87   C 170.58 84.05 164.15 84.91 160.85 84.75   A 1.38 1.37 23.7 0 0 159.84 85.14   L 156.39 88.59   A 0.56 0.56 0.0 0 1 155.46 88.39   Q 152.43 80.15 148.85 72.08   C 146.02 65.70 141.61 60.24 134.37 58.98   A 0.28 0.28 0.0 0 1 134.14 58.62   Q 135.21 55.27 134.72 52.55   Q 133.34 44.93 131.12 37.26   Q 129.00 29.93 121.95 29.70   Q 117.16 29.54 102.23 29.54   Q 87.30 29.54 82.51 29.69   Q 75.46 29.92 73.34 37.25   Q 71.12 44.92 69.73 52.54   Q 69.24 55.26 70.31 58.61   A 0.28 0.28 0.0 0 1 70.08 58.97   C 62.84 60.23 58.43 65.69 55.60 72.06   Q 52.01 80.13 48.98 88.37   A 0.56 0.56 0.0 0 1 48.05 88.57   L 44.60 85.12   A 1.38 1.37 -23.6 0 0 43.59 84.73   C 40.29 84.89 33.86 84.03 31.39 85.85   Q 27.93 88.40 28.66 92.64   C 29.78 99.16 36.40 98.69 41.52 98.43   A 0.53 0.53 0.0 0 1 41.97 99.27   C 39.36 102.85 36.97 106.48 36.94 110.72   Q 36.92 115.48 36.92 154.36   Q 36.92 158.92 40.75 161.34   Q 42.79 162.63 47.81 162.60   C 54.40 162.56 61.27 163.56 62.91 155.79   A 3.12 2.77 -41.6 0 0 62.99 155.11   L 62.92 150.48   A 0.40 0.40 0.0 0 1 63.32 150.07   Q 63.36 150.07 102.21 150.07" stroke="#d9d8da" vector-effect="non-scaling-stroke"/>
<path class="icon-shape" d="   M 74.20 55.96   Q 75.69 58.28 77.27 58.28   Q 101.81 58.22 127.04 58.27   A 1.88 1.81 30.2 0 0 127.90 58.06   Q 130.57 56.68 130.25 53.97   Q 129.75 49.73 126.88 38.82   Q 125.70 34.36 120.40 34.36   Q 95.33 34.35 83.51 34.43   Q 81.16 34.44 79.96 35.25   A 7.18 6.92 6.3 0 0 79.13 35.89   Q 78.35 36.58 77.06 41.55   Q 75.49 47.64 74.02 55.04   A 1.23 1.22 -56.5 0 0 74.20 55.96" stroke="#d9d8da" vector-effect="non-scaling-stroke"/>
<path class="icon-shape" d="   M 102.28 91.94   Q 148.83 91.94 151.25 91.90   A 0.57 0.57 0.0 0 0 151.77 91.12   Q 148.43 82.73 144.95 74.29   C 143.29 70.24 140.28 65.90 136.18 64.18   Q 134.67 63.55 130.22 63.57   Q 116.20 63.66 102.28 63.66   Q 88.37 63.66 74.35 63.57   Q 69.90 63.55 68.39 64.18   C 64.29 65.90 61.28 70.23 59.62 74.28   Q 56.14 82.72 52.80 91.11   A 0.57 0.57 0.0 0 0 53.31 91.90   Q 55.73 91.93 102.28 91.94" stroke="#d9d8da" vector-effect="non-scaling-stroke"/>
<path class="icon-shape" d="   M 42.90 90.02   A 1.14 1.12 -21.7 0 0 42.09 89.68   L 34.93 89.68   A 1.53 1.52 -90.0 0 0 33.41 91.21   L 33.41 91.70   A 2.33 2.33 0.0 0 0 35.74 94.03   L 45.62 94.03   A 0.53 0.53 0.0 0 0 46.00 93.12   L 42.90 90.02" stroke="#d9d8da" vector-effect="non-scaling-stroke"/>
<path class="icon-shape" d="   M 161.81 89.92   L 158.70 93.01   A 0.54 0.53 22.7 0 0 159.08 93.92   L 168.96 93.94   A 2.33 2.33 0.0 0 0 171.30 91.62   L 171.30 91.13   A 1.53 1.52 -89.9 0 0 169.78 89.59   L 162.62 89.58   A 1.14 1.12 21.8 0 0 161.81 89.92" stroke="#d9d8da" vector-effect="non-scaling-stroke"/>
<path class="icon-shape" d="   M 162.46 108.76   A 0.29 0.28 75.0 0 0 162.69 108.36   Q 159.91 101.85 153.92 97.21   A 1.92 1.87 -25.3 0 0 152.75 96.81   L 51.29 96.81   A 2.00 1.98 24.1 0 0 49.98 97.30   Q 45.02 101.61 42.15 108.09   A 0.53 0.53 0.0 0 0 42.58 108.83   Q 49.37 109.57 54.74 110.27   Q 59.58 110.90 63.02 112.02   C 72.76 115.20 71.09 129.03 60.86 129.36   Q 52.78 129.62 42.73 128.62   A 0.97 0.97 0.0 0 0 41.66 129.58   Q 41.67 148.02 41.74 155.28   Q 41.76 157.59 44.41 157.64   Q 48.95 157.72 54.75 157.67   Q 57.07 157.65 57.64 156.63   A 2.39 2.28 -29.6 0 0 57.92 155.70   Q 58.02 154.48 57.89 149.05   C 57.85 147.05 58.38 145.40 60.52 145.38   Q 79.45 145.26 143.46 145.35   Q 145.13 145.35 146.12 147.55   A 2.68 2.60 -58.2 0 1 146.34 148.56   Q 146.35 151.07 146.34 153.79   C 146.32 156.54 146.99 157.69 149.69 157.69   Q 158.34 157.70 160.28 157.62   A 2.76 2.76 0.0 0 0 162.94 154.86   L 162.94 128.78   A 0.25 0.24 88.9 0 0 162.69 128.53   Q 157.28 128.67 147.26 129.43   Q 138.82 130.06 135.67 123.20   A 3.51 3.44 -61.8 0 1 135.37 122.17   C 134.55 116.06 138.60 111.68 144.43 110.93   Q 155.72 109.46 162.46 108.76" stroke="#d9d8da" vector-effect="non-scaling-stroke"/>
<path class="icon-shape" d="   M 163.36 122.98   L 162.64 114.30   A 0.29 0.29 0.0 0 0 162.33 114.04   L 148.25 115.20   A 8.76 4.27 -4.7 0 0 139.87 120.17   L 139.93 120.91   A 8.76 4.27 -4.7 0 0 149.01 124.45   L 163.09 123.29   A 0.29 0.29 0.0 0 0 163.36 122.98" stroke="#d9d8da" vector-effect="non-scaling-stroke"/>
<path class="icon-shape" d="   M 41.90 114.33   L 41.14 123.14   A 0.21 0.21 0.0 0 0 41.34 123.37   L 53.45 124.41   A 10.67 3.73 4.9 0 0 64.40 121.60   L 64.55 119.81   A 10.67 3.73 4.9 0 0 54.24 115.18   L 42.13 114.14   A 0.21 0.21 0.0 0 0 41.90 114.33" stroke="#d9d8da" vector-effect="non-scaling-stroke"/>
<path class="icon-shape" d="   M 125.48 117.73   A 2.51 2.51 0.0 0 0 122.97 115.22   L 82.81 115.22   A 2.51 2.51 0.0 0 0 80.30 117.73   L 80.30 117.81   A 2.51 2.51 0.0 0 0 82.81 120.32   L 122.97 120.32   A 2.51 2.51 0.0 0 0 125.48 117.81   L 125.48 117.73" stroke="#d9d8da" vector-effect="non-scaling-stroke"/>
</g>
<path class="icon-shape" d="   M 195.00 0.00   L 195.00 197.00   L 0.00 197.00   L 0.00 0.00   L 195.00 0.00   Z   M 102.21 150.07   Q 141.06 150.08 141.11 150.08   A 0.40 0.40 0.0 0 1 141.50 150.49   L 141.43 155.12   A 3.12 2.77 41.6 0 0 141.51 155.80   C 143.15 163.57 150.02 162.58 156.61 162.62   Q 161.63 162.65 163.67 161.36   Q 167.50 158.94 167.50 154.38   Q 167.51 115.50 167.49 110.74   C 167.47 106.50 165.08 102.87 162.47 99.29   A 0.53 0.53 0.0 0 1 162.92 98.45   C 168.04 98.71 174.66 99.18 175.78 92.66   Q 176.51 88.42 173.05 85.87   C 170.58 84.05 164.15 84.91 160.85 84.75   A 1.38 1.37 23.7 0 0 159.84 85.14   L 156.39 88.59   A 0.56 0.56 0.0 0 1 155.46 88.39   Q 152.43 80.15 148.85 72.08   C 146.02 65.70 141.61 60.24 134.37 58.98   A 0.28 0.28 0.0 0 1 134.14 58.62   Q 135.21 55.27 134.72 52.55   Q 133.34 44.93 131.12 37.26   Q 129.00 29.93 121.95 29.70   Q 117.16 29.54 102.23 29.54   Q 87.30 29.54 82.51 29.69   Q 75.46 29.92 73.34 37.25   Q 71.12 44.92 69.73 52.54   Q 69.24 55.26 70.31 58.61   A 0.28 0.28 0.0 0 1 70.08 58.97   C 62.84 60.23 58.43 65.69 55.60 72.06   Q 52.01 80.13 48.98 88.37   A 0.56 0.56 0.0 0 1 48.05 88.57   L 44.60 85.12   A 1.38 1.37 -23.6 0 0 43.59 84.73   C 40.29 84.89 33.86 84.03 31.39 85.85   Q 27.93 88.40 28.66 92.64   C 29.78 99.16 36.40 98.69 41.52 98.43   A 0.53 0.53 0.0 0 1 41.97 99.27   C 39.36 102.85 36.97 106.48 36.94 110.72   Q 36.92 115.48 36.92 154.36   Q 36.92 158.92 40.75 161.34   Q 42.79 162.63 47.81 162.60   C 54.40 162.56 61.27 163.56 62.91 155.79   A 3.12 2.77 -41.6 0 0 62.99 155.11   L 62.92 150.48   A 0.40 0.40 0.0 0 1 63.32 150.07   Q 63.36 150.07 102.21 150.07   Z" fill="#ffffff"/>
<path class="icon-shape" d="   M 102.23 29.54   Q 117.16 29.54 121.95 29.70   Q 129.00 29.93 131.12 37.26   Q 133.34 44.93 134.72 52.55   Q 135.21 55.27 134.14 58.62   A 0.28 0.28 0.0 0 0 134.37 58.98   C 141.61 60.24 146.02 65.70 148.85 72.08   Q 152.43 80.15 155.46 88.39   A 0.56 0.56 0.0 0 0 156.39 88.59   L 159.84 85.14   A 1.38 1.37 23.7 0 1 160.85 84.75   C 164.15 84.91 170.58 84.05 173.05 85.87   Q 176.51 88.42 175.78 92.66   C 174.66 99.18 168.04 98.71 162.92 98.45   A 0.53 0.53 0.0 0 0 162.47 99.29   C 165.08 102.87 167.47 106.50 167.49 110.74   Q 167.51 115.50 167.50 154.38   Q 167.50 158.94 163.67 161.36   Q 161.63 162.65 156.61 162.62   C 150.02 162.58 143.15 163.57 141.51 155.80   A 3.12 2.77 41.6 0 1 141.43 155.12   L 141.50 150.49   A 0.40 0.40 0.0 0 0 141.11 150.08   Q 141.06 150.08 102.21 150.07   Q 63.36 150.07 63.32 150.07   A 0.40 0.40 0.0 0 0 62.92 150.48   L 62.99 155.11   A 3.12 2.77 -41.6 0 1 62.91 155.79   C 61.27 163.56 54.40 162.56 47.81 162.60   Q 42.79 162.63 40.75 161.34   Q 36.92 158.92 36.92 154.36   Q 36.92 115.48 36.94 110.72   C 36.97 106.48 39.36 102.85 41.97 99.27   A 0.53 0.53 0.0 0 0 41.52 98.43   C 36.40 98.69 29.78 99.16 28.66 92.64   Q 27.93 88.40 31.39 85.85   C 33.86 84.03 40.29 84.89 43.59 84.73   A 1.38 1.37 -23.6 0 1 44.60 85.12   L 48.05 88.57   A 0.56 0.56 0.0 0 0 48.98 88.37   Q 52.01 80.13 55.60 72.06   C 58.43 65.69 62.84 60.23 70.08 58.97   A 0.28 0.28 0.0 0 0 70.31 58.61   Q 69.24 55.26 69.73 52.54   Q 71.12 44.92 73.34 37.25   Q 75.46 29.92 82.51 29.69   Q 87.30 29.54 102.23 29.54   Z   M 74.20 55.96   Q 75.69 58.28 77.27 58.28   Q 101.81 58.22 127.04 58.27   A 1.88 1.81 30.2 0 0 127.90 58.06   Q 130.57 56.68 130.25 53.97   Q 129.75 49.73 126.88 38.82   Q 125.70 34.36 120.40 34.36   Q 95.33 34.35 83.51 34.43   Q 81.16 34.44 79.96 35.25   A 7.18 6.92 6.3 0 0 79.13 35.89   Q 78.35 36.58 77.06 41.55   Q 75.49 47.64 74.02 55.04   A 1.23 1.22 -56.5 0 0 74.20 55.96   Z   M 102.28 91.94   Q 148.83 91.94 151.25 91.90   A 0.57 0.57 0.0 0 0 151.77 91.12   Q 148.43 82.73 144.95 74.29   C 143.29 70.24 140.28 65.90 136.18 64.18   Q 134.67 63.55 130.22 63.57   Q 116.20 63.66 102.28 63.66   Q 88.37 63.66 74.35 63.57   Q 69.90 63.55 68.39 64.18   C 64.29 65.90 61.28 70.23 59.62 74.28   Q 56.14 82.72 52.80 91.11   A 0.57 0.57 0.0 0 0 53.31 91.90   Q 55.73 91.93 102.28 91.94   Z   M 42.90 90.02   A 1.14 1.12 -21.7 0 0 42.09 89.68   L 34.93 89.68   A 1.53 1.52 -90.0 0 0 33.41 91.21   L 33.41 91.70   A 2.33 2.33 0.0 0 0 35.74 94.03   L 45.62 94.03   A 0.53 0.53 0.0 0 0 46.00 93.12   L 42.90 90.02   Z   M 161.81 89.92   L 158.70 93.01   A 0.54 0.53 22.7 0 0 159.08 93.92   L 168.96 93.94   A 2.33 2.33 0.0 0 0 171.30 91.62   L 171.30 91.13   A 1.53 1.52 -89.9 0 0 169.78 89.59   L 162.62 89.58   A 1.14 1.12 21.8 0 0 161.81 89.92   Z   M 162.46 108.76   A 0.29 0.28 75.0 0 0 162.69 108.36   Q 159.91 101.85 153.92 97.21   A 1.92 1.87 -25.3 0 0 152.75 96.81   L 51.29 96.81   A 2.00 1.98 24.1 0 0 49.98 97.30   Q 45.02 101.61 42.15 108.09   A 0.53 0.53 0.0 0 0 42.58 108.83   Q 49.37 109.57 54.74 110.27   Q 59.58 110.90 63.02 112.02   C 72.76 115.20 71.09 129.03 60.86 129.36   Q 52.78 129.62 42.73 128.62   A 0.97 0.97 0.0 0 0 41.66 129.58   Q 41.67 148.02 41.74 155.28   Q 41.76 157.59 44.41 157.64   Q 48.95 157.72 54.75 157.67   Q 57.07 157.65 57.64 156.63   A 2.39 2.28 -29.6 0 0 57.92 155.70   Q 58.02 154.48 57.89 149.05   C 57.85 147.05 58.38 145.40 60.52 145.38   Q 79.45 145.26 143.46 145.35   Q 145.13 145.35 146.12 147.55   A 2.68 2.60 -58.2 0 1 146.34 148.56   Q 146.35 151.07 146.34 153.79   C 146.32 156.54 146.99 157.69 149.69 157.69   Q 158.34 157.70 160.28 157.62   A 2.76 2.76 0.0 0 0 162.94 154.86   L 162.94 128.78   A 0.25 0.24 88.9 0 0 162.69 128.53   Q 157.28 128.67 147.26 129.43   Q 138.82 130.06 135.67 123.20   A 3.51 3.44 -61.8 0 1 135.37 122.17   C 134.55 116.06 138.60 111.68 144.43 110.93   Q 155.72 109.46 162.46 108.76   Z   M 163.36 122.98   L 162.64 114.30   A 0.29 0.29 0.0 0 0 162.33 114.04   L 148.25 115.20   A 8.76 4.27 -4.7 0 0 139.87 120.17   L 139.93 120.91   A 8.76 4.27 -4.7 0 0 149.01 124.45   L 163.09 123.29   A 0.29 0.29 0.0 0 0 163.36 122.98   Z   M 41.90 114.33   L 41.14 123.14   A 0.21 0.21 0.0 0 0 41.34 123.37   L 53.45 124.41   A 10.67 3.73 4.9 0 0 64.40 121.60   L 64.55 119.81   A 10.67 3.73 4.9 0 0 54.24 115.18   L 42.13 114.14   A 0.21 0.21 0.0 0 0 41.90 114.33   Z" fill="#b2b0b4"/>
<path class="icon-shape" d="   M 74.02 55.04   Q 75.49 47.64 77.06 41.55   Q 78.35 36.58 79.13 35.89   A 7.18 6.92 6.3 0 1 79.96 35.25   Q 81.16 34.44 83.51 34.43   Q 95.33 34.35 120.40 34.36   Q 125.70 34.36 126.88 38.82   Q 129.75 49.73 130.25 53.97   Q 130.57 56.68 127.90 58.06   A 1.88 1.81 30.2 0 1 127.04 58.27   Q 101.81 58.22 77.27 58.28   Q 75.69 58.28 74.20 55.96   A 1.23 1.22 -56.5 0 1 74.02 55.04   Z" fill="#ffffff"/>
<path class="icon-shape" d="   M 102.28 63.66   Q 116.20 63.66 130.22 63.57   Q 134.67 63.55 136.18 64.18   C 140.28 65.90 143.29 70.24 144.95 74.29   Q 148.43 82.73 151.77 91.12   A 0.57 0.57 0.0 0 1 151.25 91.90   Q 148.83 91.94 102.28 91.94   Q 55.73 91.93 53.31 91.90   A 0.57 0.57 0.0 0 1 52.80 91.11   Q 56.14 82.72 59.62 74.28   C 61.28 70.23 64.29 65.90 68.39 64.18   Q 69.90 63.55 74.35 63.57   Q 88.37 63.66 102.28 63.66   Z" fill="#ffffff"/>
<path class="icon-shape" d="   M 45.62 94.03   L 35.74 94.03   A 2.33 2.33 0.0 0 1 33.41 91.70   L 33.41 91.21   A 1.53 1.52 90.0 0 1 34.93 89.68   L 42.09 89.68   A 1.14 1.12 -21.7 0 1 42.90 90.02   L 46.00 93.12   A 0.53 0.53 0.0 0 1 45.62 94.03   Z" fill="#ffffff"/>
<path class="icon-shape" d="   M 161.81 89.92   A 1.14 1.12 21.8 0 1 162.62 89.58   L 169.78 89.59   A 1.53 1.52 -89.9 0 1 171.30 91.13   L 171.30 91.62   A 2.33 2.33 0.0 0 1 168.96 93.94   L 159.08 93.92   A 0.54 0.53 22.7 0 1 158.70 93.01   L 161.81 89.92   Z" fill="#ffffff"/>
<path class="icon-shape" d="   M 162.46 108.76   Q 155.72 109.46 144.43 110.93   C 138.60 111.68 134.55 116.06 135.37 122.17   A 3.51 3.44 -61.8 0 0 135.67 123.20   Q 138.82 130.06 147.26 129.43   Q 157.28 128.67 162.69 128.53   A 0.25 0.24 88.9 0 1 162.94 128.78   L 162.94 154.86   A 2.76 2.76 0.0 0 1 160.28 157.62   Q 158.34 157.70 149.69 157.69   C 146.99 157.69 146.32 156.54 146.34 153.79   Q 146.35 151.07 146.34 148.56   A 2.68 2.60 -58.2 0 0 146.12 147.55   Q 145.13 145.35 143.46 145.35   Q 79.45 145.26 60.52 145.38   C 58.38 145.40 57.85 147.05 57.89 149.05   Q 58.02 154.48 57.92 155.70   A 2.39 2.28 -29.6 0 1 57.64 156.63   Q 57.07 157.65 54.75 157.67   Q 48.95 157.72 44.41 157.64   Q 41.76 157.59 41.74 155.28   Q 41.67 148.02 41.66 129.58   A 0.97 0.97 0.0 0 1 42.73 128.62   Q 52.78 129.62 60.86 129.36   C 71.09 129.03 72.76 115.20 63.02 112.02   Q 59.58 110.90 54.74 110.27   Q 49.37 109.57 42.58 108.83   A 0.53 0.53 0.0 0 1 42.15 108.09   Q 45.02 101.61 49.98 97.30   A 2.00 1.98 24.1 0 1 51.29 96.81   L 152.75 96.81   A 1.92 1.87 -25.3 0 1 153.92 97.21   Q 159.91 101.85 162.69 108.36   A 0.29 0.28 75.0 0 1 162.46 108.76   Z   M 125.48 117.73   A 2.51 2.51 0.0 0 0 122.97 115.22   L 82.81 115.22   A 2.51 2.51 0.0 0 0 80.30 117.73   L 80.30 117.81   A 2.51 2.51 0.0 0 0 82.81 120.32   L 122.97 120.32   A 2.51 2.51 0.0 0 0 125.48 117.81   L 125.48 117.73   Z" fill="#ffffff"/>
<path class="icon-shape" d="   M 163.36 122.98   A 0.29 0.29 0.0 0 1 163.09 123.29   L 149.01 124.45   A 8.76 4.27 -4.7 0 1 139.93 120.91   L 139.87 120.17   A 8.76 4.27 -4.7 0 1 148.25 115.20   L 162.33 114.04   A 0.29 0.29 0.0 0 1 162.64 114.30   L 163.36 122.98   Z" fill="#ffffff"/>
<path class="icon-shape" d="   M 41.90 114.33   A 0.21 0.21 0.0 0 1 42.13 114.14   L 54.24 115.18   A 10.67 3.73 4.9 0 1 64.55 119.81   L 64.40 121.60   A 10.67 3.73 4.9 0 1 53.45 124.41   L 41.34 123.37   A 0.21 0.21 0.0 0 1 41.14 123.14   L 41.90 114.33   Z" fill="#ffffff"/>
<rect fill="#b2b0b4" height="5.10" rx="2.51" width="45.18" x="80.30" y="115.22"/>
</g><g id="onState" style="display:none"><g fill="none" stroke-linecap="butt" stroke-width="2.00">
<path class="icon-shape" d="   M 0.00 77.64   Q 4.23 112.89 36.88 126.73" stroke="#fef6f6" vector-effect="non-scaling-stroke"/>
<path class="icon-shape" d="   M 36.88 126.73   L 36.87 155.53   A 3.44 3.19 38.8 0 0 37.01 156.48   C 39.39 164.47 47.24 162.32 53.42 162.64   C 56.84 162.81 60.20 161.65 61.97 158.71   C 63.38 156.37 63.15 153.52 62.97 150.76   A 0.60 0.60 0.0 0 1 63.57 150.12   L 140.88 150.12   A 0.55 0.55 0.0 0 1 141.43 150.68   L 141.34 155.21   A 1.68 1.56 42.9 0 0 141.37 155.61   C 143.16 164.16 151.16 162.73 158.46 162.66   C 162.12 162.62 164.37 161.65 166.42 158.94   Q 167.61 157.38 167.60 152.33   Q 167.52 118.56 167.59 110.74   C 167.63 106.69 164.96 102.16 162.41 99.17   A 0.34 0.33 -20.0 0 1 162.67 98.62   L 169.90 98.62   A 0.76 0.75 34.1 0 0 170.17 98.57   Q 176.15 96.41 175.97 91.14   Q 175.81 86.38 170.76 84.84   A 1.60 1.41 -32.7 0 0 170.30 84.77   L 160.44 84.77   A 0.65 0.65 0.0 0 0 159.98 84.96   L 156.38 88.55   A 0.52 0.51 -32.5 0 1 155.53 88.37   Q 153.08 81.65 149.22 72.71   C 146.39 66.14 142.09 60.32 134.69 59.00   A 0.54 0.53 14.1 0 1 134.27 58.31   Q 135.29 55.07 134.82 52.50   Q 133.49 45.28 131.20 37.26   Q 129.89 32.68 126.49 30.69   Q 124.59 29.58 118.37 29.55   Q 104.46 29.49 91.57 29.27" stroke="#808080" vector-effect="non-scaling-stroke"/>
<path class="icon-shape" d="   M 91.57 29.27   Q 75.00 16.61 55.64 17.05   C 25.84 17.71 2.74 40.03 0.00 69.53" stroke="#fef6f6" vector-effect="non-scaling-stroke"/>
<path class="icon-shape" d="   M 91.57 29.27   C 87.34 29.52 81.64 29.03 78.42 30.52   Q 75.11 32.06 73.84 35.80   Q 71.49 42.66 69.66 52.74   Q 69.11 55.73 70.30 58.29   A 0.49 0.49 0.0 0 1 69.93 58.97   C 61.55 60.34 57.33 67.47 54.29 74.84   Q 49.90 85.49 48.93 88.35   A 0.50 0.50 0.0 0 1 48.11 88.54   L 44.43 84.86   A 0.83 0.79 -23.9 0 0 43.79 84.63   C 38.32 85.17 30.03 82.50 28.48 90.47   A 3.43 3.39 48.0 0 0 28.43 91.54   Q 29.02 97.18 34.74 98.58   A 1.15 1.03 -36.7 0 0 35.07 98.61   L 41.72 98.54   A 0.39 0.39 0.0 0 1 42.02 99.18   Q 38.69 103.13 37.12 108.03   A 4.60 4.37 -37.8 0 0 36.92 109.35   L 36.88 126.73" stroke="#7f7776" vector-effect="non-scaling-stroke"/>
<path class="icon-shape" d="   M 74.26 56.16   L 76.11 58.01   A 0.61 0.60 68.1 0 0 76.55 58.20   L 127.35 58.20   A 1.33 1.31 28.7 0 0 128.05 58.00   Q 130.63 56.46 130.19 53.51   Q 129.53 49.09 126.74 38.75   Q 125.58 34.47 121.01 34.46   Q 105.12 34.44 84.75 34.46   Q 84.21 34.46 80.94 34.82   A 1.71 1.67 -67.9 0 0 80.05 35.21   Q 78.40 36.62 77.81 38.81   Q 76.34 44.26 73.99 55.27   A 0.96 0.96 0.0 0 0 74.26 56.16" stroke="#808080" vector-effect="non-scaling-stroke"/>
<path class="icon-shape" d="   M 110.00 91.91   L 151.02 91.94   A 0.56 0.55 79.6 0 0 151.53 91.19   Q 146.41 77.56 143.93 72.17   C 142.49 69.05 139.50 65.69 136.33 64.28   Q 135.05 63.71 131.61 63.69   Q 122.09 63.63 112.34 63.69" stroke="#808080" vector-effect="non-scaling-stroke"/>
<path class="icon-shape" d="   M 112.34 63.69   Q 92.49 63.62 72.36 63.65   C 69.92 63.65 67.93 64.07 66.22 65.49   Q 61.76 69.19 59.35 75.10   Q 58.17 77.99 52.71 91.10   A 0.59 0.58 11.4 0 0 53.25 91.91   L 110.00 91.91" stroke="#7f7776" vector-effect="non-scaling-stroke"/>
<path class="icon-shape" d="   M 112.34 63.69   Q 114.20 78.25 110.00 91.91" stroke="#fef6f6" vector-effect="non-scaling-stroke"/>
<path class="icon-shape" d="   M 43.29 90.00   A 0.73 0.70 -17.3 0 0 42.71 89.71   L 34.99 89.71   A 1.59 1.59 0.0 0 0 33.40 91.30   L 33.40 91.58   A 2.38 2.37 -0.0 0 0 35.78 93.95   L 46.04 93.95   A 0.09 0.09 0.0 0 0 46.11 93.81   L 43.29 90.00" stroke="#808080" vector-effect="non-scaling-stroke"/>
<path class="icon-shape" d="   M 161.37 89.96   L 158.55 93.78   A 0.09 0.09 0.0 0 0 158.62 93.92   L 168.91 93.90   A 2.39 2.38 -0.1 0 0 171.30 91.52   L 171.30 91.24   A 1.59 1.59 0.0 0 0 169.70 89.65   L 161.95 89.66   A 0.73 0.70 17.2 0 0 161.37 89.96" stroke="#808080" vector-effect="non-scaling-stroke"/>
<path class="icon-shape" d="   M 41.66 129.29   Q 41.80 142.73 41.76 155.26   Q 41.75 157.56 44.21 157.57   Q 48.89 157.59 54.83 157.62   Q 57.25 157.63 57.84 156.10   A 1.16 1.10 57.4 0 0 57.92 155.68   L 57.92 147.92   A 2.66 2.65 -0.0 0 1 60.58 145.27   Q 139.70 145.26 143.48 145.27   Q 145.18 145.27 146.20 147.55   A 2.28 2.21 -58.1 0 1 146.40 148.48   Q 146.45 151.39 146.41 154.42   C 146.37 156.89 147.58 157.66 149.73 157.62   Q 154.22 157.54 159.56 157.62   Q 162.06 157.65 162.86 155.57   A 0.91 0.79 59.5 0 0 162.92 155.25   L 162.92 129.04   A 0.50 0.49 -1.1 0 0 162.40 128.55   Q 150.31 129.22 147.50 129.46   Q 138.54 130.23 135.39 122.72   A 1.13 1.11 -57.0 0 1 135.30 122.28   L 135.30 118.44   A 1.59 1.54 -34.6 0 1 135.42 117.84   Q 137.82 112.00 144.15 110.92   Q 146.12 110.58 162.00 108.71   A 0.47 0.47 0.0 0 0 162.39 108.08   C 160.76 103.53 157.78 100.66 153.93 97.18   A 1.37 1.36 65.7 0 0 153.02 96.83   L 50.90 96.83   A 1.02 1.00 23.2 0 0 50.21 97.10   Q 45.00 101.73 42.02 108.27   A 0.38 0.38 0.0 0 0 42.33 108.81   Q 47.62 109.24 57.75 110.68   C 62.84 111.41 67.60 112.99 69.27 118.15   C 70.69 122.55 68.15 126.78 64.14 128.66   Q 62.35 129.50 58.21 129.50   C 52.07 129.49 47.44 128.73 42.17 128.77   A 0.51 0.51 0.0 0 0 41.66 129.29" stroke="#808080" vector-effect="non-scaling-stroke"/>
<path class="icon-shape" d="   M 41.94 114.47   L 41.22 123.06   A 0.27 0.27 0.0 0 0 41.47 123.35   L 53.70 124.38   A 10.35 3.65 4.8 0 0 64.32 121.60   L 64.48 119.75   A 10.35 3.65 4.8 0 0 54.47 115.25   L 42.23 114.22   A 0.27 0.27 0.0 0 0 41.94 114.47" stroke="#808080" vector-effect="non-scaling-stroke"/>
<path class="icon-shape" d="   M 163.30 122.96   L 162.61 114.39   A 0.28 0.28 0.0 0 0 162.31 114.13   L 148.21 115.26   A 8.70 4.26 -4.6 0 0 139.88 120.21   L 139.93 120.85   A 8.70 4.26 -4.6 0 0 148.95 124.39   L 163.04 123.26   A 0.28 0.28 0.0 0 0 163.30 122.96" stroke="#808080" vector-effect="non-scaling-stroke"/>
<path class="icon-shape" d="   M 125.52 117.73   A 2.56 2.56 0.0 0 0 122.96 115.17   L 82.80 115.17   A 2.56 2.56 0.0 0 0 80.24 117.73   L 80.24 117.83   A 2.56 2.56 0.0 0 0 82.80 120.39   L 122.96 120.39   A 2.56 2.56 0.0 0 0 125.52 117.83   L 125.52 117.73" stroke="#808080" vector-effect="non-scaling-stroke"/>
</g>
<path class="icon-shape" d="   M 195.00 0.00   L 195.00 197.00   L 0.00 197.00   L 0.00 77.64   Q 4.23 112.89 36.88 126.73   L 36.87 155.53   A 3.44 3.19 38.8 0 0 37.01 156.48   C 39.39 164.47 47.24 162.32 53.42 162.64   C 56.84 162.81 60.20 161.65 61.97 158.71   C 63.38 156.37 63.15 153.52 62.97 150.76   A 0.60 0.60 0.0 0 1 63.57 150.12   L 140.88 150.12   A 0.55 0.55 0.0 0 1 141.43 150.68   L 141.34 155.21   A 1.68 1.56 42.9 0 0 141.37 155.61   C 143.16 164.16 151.16 162.73 158.46 162.66   C 162.12 162.62 164.37 161.65 166.42 158.94   Q 167.61 157.38 167.60 152.33   Q 167.52 118.56 167.59 110.74   C 167.63 106.69 164.96 102.16 162.41 99.17   A 0.34 0.33 -20.0 0 1 162.67 98.62   L 169.90 98.62   A 0.76 0.75 34.1 0 0 170.17 98.57   Q 176.15 96.41 175.97 91.14   Q 175.81 86.38 170.76 84.84   A 1.60 1.41 -32.7 0 0 170.30 84.77   L 160.44 84.77   A 0.65 0.65 0.0 0 0 159.98 84.96   L 156.38 88.55   A 0.52 0.51 -32.5 0 1 155.53 88.37   Q 153.08 81.65 149.22 72.71   C 146.39 66.14 142.09 60.32 134.69 59.00   A 0.54 0.53 14.1 0 1 134.27 58.31   Q 135.29 55.07 134.82 52.50   Q 133.49 45.28 131.20 37.26   Q 129.89 32.68 126.49 30.69   Q 124.59 29.58 118.37 29.55   Q 104.46 29.49 91.57 29.27   Q 75.00 16.61 55.64 17.05   C 25.84 17.71 2.74 40.03 0.00 69.53   L 0.00 0.00   L 195.00 0.00   Z" fill="#ffffff"/>
<path class="icon-shape" d="   M 91.57 29.27   C 87.34 29.52 81.64 29.03 78.42 30.52   Q 75.11 32.06 73.84 35.80   Q 71.49 42.66 69.66 52.74   Q 69.11 55.73 70.30 58.29   A 0.49 0.49 0.0 0 1 69.93 58.97   C 61.55 60.34 57.33 67.47 54.29 74.84   Q 49.90 85.49 48.93 88.35   A 0.50 0.50 0.0 0 1 48.11 88.54   L 44.43 84.86   A 0.83 0.79 -23.9 0 0 43.79 84.63   C 38.32 85.17 30.03 82.50 28.48 90.47   A 3.43 3.39 48.0 0 0 28.43 91.54   Q 29.02 97.18 34.74 98.58   A 1.15 1.03 -36.7 0 0 35.07 98.61   L 41.72 98.54   A 0.39 0.39 0.0 0 1 42.02 99.18   Q 38.69 103.13 37.12 108.03   A 4.60 4.37 -37.8 0 0 36.92 109.35   L 36.88 126.73   Q 4.23 112.89 0.00 77.64   L 0.00 69.53   C 2.74 40.03 25.84 17.71 55.64 17.05   Q 75.00 16.61 91.57 29.27   Z" fill="#fdedec"/>
<path class="icon-shape" d="   M 91.57 29.27   Q 104.46 29.49 118.37 29.55   Q 124.59 29.58 126.49 30.69   Q 129.89 32.68 131.20 37.26   Q 133.49 45.28 134.82 52.50   Q 135.29 55.07 134.27 58.31   A 0.54 0.53 14.1 0 0 134.69 59.00   C 142.09 60.32 146.39 66.14 149.22 72.71   Q 153.08 81.65 155.53 88.37   A 0.52 0.51 -32.5 0 0 156.38 88.55   L 159.98 84.96   A 0.65 0.65 0.0 0 1 160.44 84.77   L 170.30 84.77   A 1.60 1.41 -32.7 0 1 170.76 84.84   Q 175.81 86.38 175.97 91.14   Q 176.15 96.41 170.17 98.57   A 0.76 0.75 34.1 0 1 169.90 98.62   L 162.67 98.62   A 0.34 0.33 -20.0 0 0 162.41 99.17   C 164.96 102.16 167.63 106.69 167.59 110.74   Q 167.52 118.56 167.60 152.33   Q 167.61 157.38 166.42 158.94   C 164.37 161.65 162.12 162.62 158.46 162.66   C 151.16 162.73 143.16 164.16 141.37 155.61   A 1.68 1.56 42.9 0 1 141.34 155.21   L 141.43 150.68   A 0.55 0.55 0.0 0 0 140.88 150.12   L 63.57 150.12   A 0.60 0.60 0.0 0 0 62.97 150.76   C 63.15 153.52 63.38 156.37 61.97 158.71   C 60.20 161.65 56.84 162.81 53.42 162.64   C 47.24 162.32 39.39 164.47 37.01 156.48   A 3.44 3.19 38.8 0 1 36.87 155.53   L 36.88 126.73   L 36.92 109.35   A 4.60 4.37 -37.8 0 1 37.12 108.03   Q 38.69 103.13 42.02 99.18   A 0.39 0.39 0.0 0 0 41.72 98.54   L 35.07 98.61   A 1.15 1.03 -36.7 0 1 34.74 98.58   Q 29.02 97.18 28.43 91.54   A 3.43 3.39 48.0 0 1 28.48 90.47   C 30.03 82.50 38.32 85.17 43.79 84.63   A 0.83 0.79 -23.9 0 1 44.43 84.86   L 48.11 88.54   A 0.50 0.50 0.0 0 0 48.93 88.35   Q 49.90 85.49 54.29 74.84   C 57.33 67.47 61.55 60.34 69.93 58.97   A 0.49 0.49 0.0 0 0 70.30 58.29   Q 69.11 55.73 69.66 52.74   Q 71.49 42.66 73.84 35.80   Q 75.11 32.06 78.42 30.52   C 81.64 29.03 87.34 29.52 91.57 29.27   Z   M 74.26 56.16   L 76.11 58.01   A 0.61 0.60 68.1 0 0 76.55 58.20   L 127.35 58.20   A 1.33 1.31 28.7 0 0 128.05 58.00   Q 130.63 56.46 130.19 53.51   Q 129.53 49.09 126.74 38.75   Q 125.58 34.47 121.01 34.46   Q 105.12 34.44 84.75 34.46   Q 84.21 34.46 80.94 34.82   A 1.71 1.67 -67.9 0 0 80.05 35.21   Q 78.40 36.62 77.81 38.81   Q 76.34 44.26 73.99 55.27   A 0.96 0.96 0.0 0 0 74.26 56.16   Z   M 110.00 91.91   L 151.02 91.94   A 0.56 0.55 79.6 0 0 151.53 91.19   Q 146.41 77.56 143.93 72.17   C 142.49 69.05 139.50 65.69 136.33 64.28   Q 135.05 63.71 131.61 63.69   Q 122.09 63.63 112.34 63.69   Q 92.49 63.62 72.36 63.65   C 69.92 63.65 67.93 64.07 66.22 65.49   Q 61.76 69.19 59.35 75.10   Q 58.17 77.99 52.71 91.10   A 0.59 0.58 11.4 0 0 53.25 91.91   L 110.00 91.91   Z   M 43.29 90.00   A 0.73 0.70 -17.3 0 0 42.71 89.71   L 34.99 89.71   A 1.59 1.59 0.0 0 0 33.40 91.30   L 33.40 91.58   A 2.38 2.37 -0.0 0 0 35.78 93.95   L 46.04 93.95   A 0.09 0.09 0.0 0 0 46.11 93.81   L 43.29 90.00   Z   M 161.37 89.96   L 158.55 93.78   A 0.09 0.09 0.0 0 0 158.62 93.92   L 168.91 93.90   A 2.39 2.38 -0.1 0 0 171.30 91.52   L 171.30 91.24   A 1.59 1.59 0.0 0 0 169.70 89.65   L 161.95 89.66   A 0.73 0.70 17.2 0 0 161.37 89.96   Z   M 41.66 129.29   Q 41.80 142.73 41.76 155.26   Q 41.75 157.56 44.21 157.57   Q 48.89 157.59 54.83 157.62   Q 57.25 157.63 57.84 156.10   A 1.16 1.10 57.4 0 0 57.92 155.68   L 57.92 147.92   A 2.66 2.65 -0.0 0 1 60.58 145.27   Q 139.70 145.26 143.48 145.27   Q 145.18 145.27 146.20 147.55   A 2.28 2.21 -58.1 0 1 146.40 148.48   Q 146.45 151.39 146.41 154.42   C 146.37 156.89 147.58 157.66 149.73 157.62   Q 154.22 157.54 159.56 157.62   Q 162.06 157.65 162.86 155.57   A 0.91 0.79 59.5 0 0 162.92 155.25   L 162.92 129.04   A 0.50 0.49 -1.1 0 0 162.40 128.55   Q 150.31 129.22 147.50 129.46   Q 138.54 130.23 135.39 122.72   A 1.13 1.11 -57.0 0 1 135.30 122.28   L 135.30 118.44   A 1.59 1.54 -34.6 0 1 135.42 117.84   Q 137.82 112.00 144.15 110.92   Q 146.12 110.58 162.00 108.71   A 0.47 0.47 0.0 0 0 162.39 108.08   C 160.76 103.53 157.78 100.66 153.93 97.18   A 1.37 1.36 65.7 0 0 153.02 96.83   L 50.90 96.83   A 1.02 1.00 23.2 0 0 50.21 97.10   Q 45.00 101.73 42.02 108.27   A 0.38 0.38 0.0 0 0 42.33 108.81   Q 47.62 109.24 57.75 110.68   C 62.84 111.41 67.60 112.99 69.27 118.15   C 70.69 122.55 68.15 126.78 64.14 128.66   Q 62.35 129.50 58.21 129.50   C 52.07 129.49 47.44 128.73 42.17 128.77   A 0.51 0.51 0.0 0 0 41.66 129.29   Z   M 41.94 114.47   L 41.22 123.06   A 0.27 0.27 0.0 0 0 41.47 123.35   L 53.70 124.38   A 10.35 3.65 4.8 0 0 64.32 121.60   L 64.48 119.75   A 10.35 3.65 4.8 0 0 54.47 115.25   L 42.23 114.22   A 0.27 0.27 0.0 0 0 41.94 114.47   Z   M 163.30 122.96   L 162.61 114.39   A 0.28 0.28 0.0 0 0 162.31 114.13   L 148.21 115.26   A 8.70 4.26 -4.6 0 0 139.88 120.21   L 139.93 120.85   A 8.70 4.26 -4.6 0 0 148.95 124.39   L 163.04 123.26   A 0.28 0.28 0.0 0 0 163.30 122.96   Z" fill="#000000"/>
<path class="icon-shape" d="   M 73.99 55.27   Q 76.34 44.26 77.81 38.81   Q 78.40 36.62 80.05 35.21   A 1.71 1.67 -67.9 0 1 80.94 34.82   Q 84.21 34.46 84.75 34.46   Q 105.12 34.44 121.01 34.46   Q 125.58 34.47 126.74 38.75   Q 129.53 49.09 130.19 53.51   Q 130.63 56.46 128.05 58.00   A 1.33 1.31 28.7 0 1 127.35 58.20   L 76.55 58.20   A 0.61 0.60 68.1 0 1 76.11 58.01   L 74.26 56.16   A 0.96 0.96 0.0 0 1 73.99 55.27   Z" fill="#ffffff"/>
<path class="icon-shape" d="   M 112.34 63.69   Q 114.20 78.25 110.00 91.91   L 53.25 91.91   A 0.59 0.58 11.4 0 1 52.71 91.10   Q 58.17 77.99 59.35 75.10   Q 61.76 69.19 66.22 65.49   C 67.93 64.07 69.92 63.65 72.36 63.65   Q 92.49 63.62 112.34 63.69   Z" fill="#fdedec"/>
<path class="icon-shape" d="   M 110.00 91.91   Q 114.20 78.25 112.34 63.69   Q 122.09 63.63 131.61 63.69   Q 135.05 63.71 136.33 64.28   C 139.50 65.69 142.49 69.05 143.93 72.17   Q 146.41 77.56 151.53 91.19   A 0.56 0.55 79.6 0 1 151.02 91.94   L 110.00 91.91   Z" fill="#ffffff"/>
<path class="icon-shape" d="   M 46.04 93.95   L 35.78 93.95   A 2.38 2.37 0.0 0 1 33.40 91.58   L 33.40 91.30   A 1.59 1.59 0.0 0 1 34.99 89.71   L 42.71 89.71   A 0.73 0.70 -17.3 0 1 43.29 90.00   L 46.11 93.81   A 0.09 0.09 0.0 0 1 46.04 93.95   Z" fill="#ffffff"/>
<path class="icon-shape" d="   M 161.37 89.96   A 0.73 0.70 17.2 0 1 161.95 89.66   L 169.70 89.65   A 1.59 1.59 0.0 0 1 171.30 91.24   L 171.30 91.52   A 2.39 2.38 -0.1 0 1 168.91 93.90   L 158.62 93.92   A 0.09 0.09 0.0 0 1 158.55 93.78   L 161.37 89.96   Z" fill="#ffffff"/>
<path class="icon-shape" d="   M 42.17 128.77   C 47.44 128.73 52.07 129.49 58.21 129.50   Q 62.35 129.50 64.14 128.66   C 68.15 126.78 70.69 122.55 69.27 118.15   C 67.60 112.99 62.84 111.41 57.75 110.68   Q 47.62 109.24 42.33 108.81   A 0.38 0.38 0.0 0 1 42.02 108.27   Q 45.00 101.73 50.21 97.10   A 1.02 1.00 23.2 0 1 50.90 96.83   L 153.02 96.83   A 1.37 1.36 65.7 0 1 153.93 97.18   C 157.78 100.66 160.76 103.53 162.39 108.08   A 0.47 0.47 0.0 0 1 162.00 108.71   Q 146.12 110.58 144.15 110.92   Q 137.82 112.00 135.42 117.84   A 1.59 1.54 -34.6 0 0 135.30 118.44   L 135.30 122.28   A 1.13 1.11 -57.0 0 0 135.39 122.72   Q 138.54 130.23 147.50 129.46   Q 150.31 129.22 162.40 128.55   A 0.50 0.49 -1.1 0 1 162.92 129.04   L 162.92 155.25   A 0.91 0.79 59.5 0 1 162.86 155.57   Q 162.06 157.65 159.56 157.62   Q 154.22 157.54 149.73 157.62   C 147.58 157.66 146.37 156.89 146.41 154.42   Q 146.45 151.39 146.40 148.48   A 2.28 2.21 -58.1 0 0 146.20 147.55   Q 145.18 145.27 143.48 145.27   Q 139.70 145.26 60.58 145.27   A 2.66 2.65 0.0 0 0 57.92 147.92   L 57.92 155.68   A 1.16 1.10 57.4 0 1 57.84 156.10   Q 57.25 157.63 54.83 157.62   Q 48.89 157.59 44.21 157.57   Q 41.75 157.56 41.76 155.26   Q 41.80 142.73 41.66 129.29   A 0.51 0.51 0.0 0 1 42.17 128.77   Z   M 125.52 117.73   A 2.56 2.56 0.0 0 0 122.96 115.17   L 82.80 115.17   A 2.56 2.56 0.0 0 0 80.24 117.73   L 80.24 117.83   A 2.56 2.56 0.0 0 0 82.80 120.39   L 122.96 120.39   A 2.56 2.56 0.0 0 0 125.52 117.83   L 125.52 117.73   Z" fill="#ffffff"/>
<path class="icon-shape" d="   M 41.94 114.47   A 0.27 0.27 0.0 0 1 42.23 114.22   L 54.47 115.25   A 10.35 3.65 4.8 0 1 64.48 119.75   L 64.32 121.60   A 10.35 3.65 4.8 0 1 53.70 124.38   L 41.47 123.35   A 0.27 0.27 0.0 0 1 41.22 123.06   L 41.94 114.47   Z" fill="#ffffff"/>
<path class="icon-shape" d="   M 163.30 122.96   A 0.28 0.28 0.0 0 1 163.04 123.26   L 148.95 124.39   A 8.70 4.26 -4.6 0 1 139.93 120.85   L 139.88 120.21   A 8.70 4.26 -4.6 0 1 148.21 115.26   L 162.31 114.13   A 0.28 0.28 0.0 0 1 162.61 114.39   L 163.30 122.96   Z" fill="#ffffff"/>
<rect fill="#000000" height="5.22" rx="2.56" width="45.28" x="80.24" y="115.17"/>
</g></svg>