<?xml version="1.0" encoding="utf-8"?>
<svg version="1.1" viewBox="0.00 0.00 209.00 207.00" xmlns="http://www.w3.org/2000/svg"><g id="offState" style="display:inline"><g fill="none" stroke-linecap="butt" stroke-width="2.00">
<path class="icon-shape" d="   M 100.71 156.52   Q 119.59 156.54 132.51 156.55   Q 144.31 156.56 147.84 155.19   Q 155.21 152.34 159.64 145.39   Q 161.08 143.14 164.82 127.84   Q 167.88 115.31 172.31 98.13   Q 175.19 86.97 166.58 79.66   Q 156.81 71.38 142.42 60.96   Q 139.39 58.77 134.87 57.55   Q 131.39 56.61 126.58 56.53   Q 113.65 56.30 100.79 56.29   Q 87.93 56.28 75.00 56.48   Q 70.19 56.56 66.71 57.49   Q 62.19 58.71 59.15 60.89   Q 44.75 71.29 34.96 79.55   Q 26.34 86.85 29.20 98.01   Q 33.61 115.20 36.64 127.74   Q 40.36 143.04 41.80 145.29   Q 46.21 152.25 53.58 155.11   Q 57.11 156.49 68.91 156.50   Q 81.82 156.51 100.71 156.52" stroke="#d9d8da" vector-effect="non-scaling-stroke"/>
<path class="icon-shape" d="   M 100.77 150.90   Q 129.97 150.89 138.20 150.82   Q 144.63 150.77 147.63 149.44   Q 154.71 146.27 156.84 137.81   Q 166.17 100.85 167.29 96.24   Q 169.23 88.28 162.35 82.82   Q 145.40 69.38 139.76 65.55   Q 134.15 61.73 128.24 61.66   Q 124.78 61.61 100.73 61.62   Q 76.68 61.63 73.22 61.68   Q 67.31 61.76 61.70 65.58   Q 56.06 69.42 39.13 82.87   Q 32.25 88.34 34.20 96.30   Q 35.32 100.91 44.68 137.86   Q 46.82 146.32 53.90 149.48   Q 56.90 150.81 63.34 150.86   Q 71.56 150.91 100.77 150.90" stroke="#d9d8da" vector-effect="non-scaling-stroke"/>
<path class="icon-shape" d="   M 66.78 103.69   Q 59.16 103.69 58.80 103.64   A 0.57 0.56 -85.9 0 1 58.32 103.08   L 58.32 89.41   A 2.80 2.80 0.0 0 0 55.52 86.61   L 55.20 86.61   A 2.86 2.86 0.0 0 0 52.34 89.47   L 52.34 124.37   A 2.63 2.62 0.0 0 0 54.97 126.99   L 55.39 126.99   A 2.93 2.93 0.0 0 0 58.32 124.06   L 58.32 109.54   A 0.57 0.57 0.0 0 1 58.89 108.97   Q 59.96 108.96 66.78 108.96   Q 73.61 108.96 74.68 108.97   A 0.57 0.57 0.0 0 1 75.25 109.54   L 75.25 124.06   A 2.93 2.93 0.0 0 0 78.18 126.99   L 78.60 126.99   A 2.63 2.62 -0.0 0 0 81.23 124.37   L 81.22 89.47   A 2.86 2.86 0.0 0 0 78.36 86.61   L 78.04 86.61   A 2.80 2.80 0.0 0 0 75.24 89.41   L 75.25 103.08   A 0.57 0.56 85.9 0 1 74.76 103.64   Q 74.41 103.69 66.78 103.69" stroke="#d9d8da" vector-effect="non-scaling-stroke"/>
<path class="icon-shape" d="   M 102.82 127.32   C 108.49 127.31 113.71 125.07 115.98 119.77   Q 117.14 117.06 117.10 110.58   Q 117.03 97.67 117.04 89.48   A 2.85 2.84 -1.0 0 0 114.08 86.63   L 113.93 86.63   A 3.03 3.03 0.0 0 0 111.01 89.66   Q 111.03 110.34 111.05 112.39   C 111.10 118.35 109.24 122.00 102.82 122.00   C 96.40 122.00 94.54 118.36 94.58 112.40   Q 94.60 110.35 94.60 89.67   A 3.03 3.03 0.0 0 0 91.68 86.64   L 91.53 86.64   A 2.85 2.84 0.9 0 0 88.57 89.49   Q 88.59 97.68 88.53 110.59   Q 88.50 117.07 89.66 119.78   C 91.94 125.08 97.16 127.32 102.82 127.32" stroke="#d9d8da" vector-effect="non-scaling-stroke"/>
<path class="icon-shape" d="   M 124.37 89.67   L 124.19 123.81   A 2.86 2.86 0.0 0 0 127.04 126.68   L 137.73 126.74   A 14.89 14.88 0.3 0 0 152.69 111.93   L 152.75 101.83   A 14.89 14.88 0.3 0 0 137.93 86.88   L 127.24 86.82   A 2.86 2.86 0.0 0 0 124.37 89.67" stroke="#d9d8da" vector-effect="non-scaling-stroke"/>
<path class="icon-shape" d="   M 130.14 92.88   L 130.10 120.66   A 0.76 0.76 0.0 0 0 130.85 121.42   L 137.40 121.43   A 9.64 9.35 -89.9 0 0 146.77 111.80   L 146.79 101.78   A 9.64 9.35 -89.9 0 0 137.46 92.13   L 130.91 92.12   A 0.76 0.76 0.0 0 0 130.14 92.88" stroke="#d9d8da" vector-effect="non-scaling-stroke"/>
</g>
<path class="icon-shape" d="   M 209.00 0.00   L 209.00 207.00   L 0.00 207.00   L 0.00 0.00   L 209.00 0.00   Z   M 100.71 156.52   Q 119.59 156.54 132.51 156.55   Q 144.31 156.56 147.84 155.19   Q 155.21 152.34 159.64 145.39   Q 161.08 143.14 164.82 127.84   Q 167.88 115.31 172.31 98.13   Q 175.19 86.97 166.58 79.66   Q 156.81 71.38 142.42 60.96   Q 139.39 58.77 134.87 57.55   Q 131.39 56.61 126.58 56.53   Q 113.65 56.30 100.79 56.29   Q 87.93 56.28 75.00 56.48   Q 70.19 56.56 66.71 57.49   Q 62.19 58.71 59.15 60.89   Q 44.75 71.29 34.96 79.55   Q 26.34 86.85 29.20 98.01   Q 33.61 115.20 36.64 127.74   Q 40.36 143.04 41.80 145.29   Q 46.21 152.25 53.58 155.11   Q 57.11 156.49 68.91 156.50   Q 81.82 156.51 100.71 156.52   Z" fill="#ffffff"/>
<path class="icon-shape" d="   M 100.79 56.29   Q 113.65 56.30 126.58 56.53   Q 131.39 56.61 134.87 57.55   Q 139.39 58.77 142.42 60.96   Q 156.81 71.38 166.58 79.66   Q 175.19 86.97 172.31 98.13   Q 167.88 115.31 164.82 127.84   Q 161.08 143.14 159.64 145.39   Q 155.21 152.34 147.84 155.19   Q 144.31 156.56 132.51 156.55   Q 119.59 156.54 100.71 156.52   Q 81.82 156.51 68.91 156.50   Q 57.11 156.49 53.58 155.11   Q 46.21 152.25 41.80 145.29   Q 40.36 143.04 36.64 127.74   Q 33.61 115.20 29.20 98.01   Q 26.34 86.85 34.96 79.55   Q 44.75 71.29 59.15 60.89   Q 62.19 58.71 66.71 57.49   Q 70.19 56.56 75.00 56.48   Q 87.93 56.28 100.79 56.29   Z   M 100.77 150.90   Q 129.97 150.89 138.20 150.82   Q 144.63 150.77 147.63 149.44   Q 154.71 146.27 156.84 137.81   Q 166.17 100.85 167.29 96.24   Q 169.23 88.28 162.35 82.82   Q 145.40 69.38 139.76 65.55   Q 134.15 61.73 128.24 61.66   Q 124.78 61.61 100.73 61.62   Q 76.68 61.63 73.22 61.68   Q 67.31 61.76 61.70 65.58   Q 56.06 69.42 39.13 82.87   Q 32.25 88.34 34.20 96.30   Q 35.32 100.91 44.68 137.86   Q 46.82 146.32 53.90 149.48   Q 56.90 150.81 63.34 150.86   Q 71.56 150.91 100.77 150.90   Z" fill="#b2b0b4"/>
<path class="icon-shape" d="   M 100.73 61.62   Q 124.78 61.61 128.24 61.66   Q 134.15 61.73 139.76 65.55   Q 145.40 69.38 162.35 82.82   Q 169.23 88.28 167.29 96.24   Q 166.17 100.85 156.84 137.81   Q 154.71 146.27 147.63 149.44   Q 144.63 150.77 138.20 150.82   Q 129.97 150.89 100.77 150.90   Q 71.56 150.91 63.34 150.86   Q 56.90 150.81 53.90 149.48   Q 46.82 146.32 44.68 137.86   Q 35.32 100.91 34.20 96.30   Q 32.25 88.34 39.13 82.87   Q 56.06 69.42 61.70 65.58   Q 67.31 61.76 73.22 61.68   Q 76.68 61.63 100.73 61.62   Z   M 66.78 103.69   Q 59.16 103.69 58.80 103.64   A 0.57 0.56 -85.9 0 1 58.32 103.08   L 58.32 89.41   A 2.80 2.80 0.0 0 0 55.52 86.61   L 55.20 86.61   A 2.86 2.86 0.0 0 0 52.34 89.47   L 52.34 124.37   A 2.63 2.62 0.0 0 0 54.97 126.99   L 55.39 126.99   A 2.93 2.93 0.0 0 0 58.32 124.06   L 58.32 109.54   A 0.57 0.57 0.0 0 1 58.89 108.97   Q 59.96 108.96 66.78 108.96   Q 73.61 108.96 74.68 108.97   A 0.57 0.57 0.0 0 1 75.25 109.54   L 75.25 124.06   A 2.93 2.93 0.0 0 0 78.18 126.99   L 78.60 126.99   A 2.63 2.62 -0.0 0 0 81.23 124.37   L 81.22 89.47   A 2.86 2.86 0.0 0 0 78.36 86.61   L 78.04 86.61   A 2.80 2.80 0.0 0 0 75.24 89.41   L 75.25 103.08   A 0.57 0.56 85.9 0 1 74.76 103.64   Q 74.41 103.69 66.78 103.69   Z   M 102.82 127.32   C 108.49 127.31 113.71 125.07 115.98 119.77   Q 117.14 117.06 117.10 110.58   Q 117.03 97.67 117.04 89.48   A 2.85 2.84 -1.0 0 0 114.08 86.63   L 113.93 86.63   A 3.03 3.03 0.0 0 0 111.01 89.66   Q 111.03 110.34 111.05 112.39   C 111.10 118.35 109.24 122.00 102.82 122.00   C 96.40 122.00 94.54 118.36 94.58 112.40   Q 94.60 110.35 94.60 89.67   A 3.03 3.03 0.0 0 0 91.68 86.64   L 91.53 86.64   A 2.85 2.84 0.9 0 0 88.57 89.49   Q 88.59 97.68 88.53 110.59   Q 88.50 117.07 89.66 119.78   C 91.94 125.08 97.16 127.32 102.82 127.32   Z   M 124.37 89.67   L 124.19 123.81   A 2.86 2.86 0.0 0 0 127.04 126.68   L 137.73 126.74   A 14.89 14.88 0.3 0 0 152.69 111.93   L 152.75 101.83   A 14.89 14.88 0.3 0 0 137.93 86.88   L 127.24 86.82   A 2.86 2.86 0.0 0 0 124.37 89.67   Z" fill="#ffffff"/>
<path class="icon-shape" d="   M 66.78 108.96   Q 59.96 108.96 58.89 108.97   A 0.57 0.57 0.0 0 0 58.32 109.54   L 58.32 124.06   A 2.93 2.93 0.0 0 1 55.39 126.99   L 54.97 126.99   A 2.63 2.62 0.0 0 1 52.34 124.37   L 52.34 89.47   A 2.86 2.86 0.0 0 1 55.20 86.61   L 55.52 86.61   A 2.80 2.80 0.0 0 1 58.32 89.41   L 58.32 103.08   A 0.57 0.56 -85.9 0 0 58.80 103.64   Q 59.16 103.69 66.78 103.69   Q 74.41 103.69 74.76 103.64   A 0.57 0.56 85.9 0 0 75.25 103.08   L 75.24 89.41   A 2.80 2.80 0.0 0 1 78.04 86.61   L 78.36 86.61   A 2.86 2.86 0.0 0 1 81.22 89.47   L 81.23 124.37   A 2.63 2.62 -0.0 0 1 78.60 126.99   L 78.18 126.99   A 2.93 2.93 0.0 0 1 75.25 124.06   L 75.25 109.54   A 0.57 0.57 0.0 0 0 74.68 108.97   Q 73.61 108.96 66.78 108.96   Z" fill="#b2b0b4"/>
<path class="icon-shape" d="   M 102.82 122.00   C 109.24 122.00 111.10 118.35 111.05 112.39   Q 111.03 110.34 111.01 89.66   A 3.03 3.03 0.0 0 1 113.93 86.63   L 114.08 86.63   A 2.85 2.84 -1.0 0 1 117.04 89.48   Q 117.03 97.67 117.10 110.58   Q 117.14 117.06 115.98 119.77   C 113.71 125.07 108.49 127.31 102.82 127.32   C 97.16 127.32 91.94 125.08 89.66 119.78   Q 88.50 117.07 88.53 110.59   Q 88.59 97.68 88.57 89.49   A 2.85 2.84 0.9 0 1 91.53 86.64   L 91.68 86.64   A 3.03 3.03 0.0 0 1 94.60 89.67   Q 94.60 110.35 94.58 112.40   C 94.54 118.36 96.40 122.00 102.82 122.00   Z" fill="#b2b0b4"/>
<path class="icon-shape" d="   M 124.37 89.67   A 2.86 2.86 0.0 0 1 127.24 86.82   L 137.93 86.88   A 14.89 14.88 0.3 0 1 152.75 101.83   L 152.69 111.93   A 14.89 14.88 0.3 0 1 137.73 126.74   L 127.04 126.68   A 2.86 2.86 0.0 0 1 124.19 123.81   L 124.37 89.67   Z   M 130.14 92.88   L 130.10 120.66   A 0.76 0.76 0.0 0 0 130.85 121.42   L 137.40 121.43   A 9.64 9.35 -89.9 0 0 146.77 111.80   L 146.79 101.78   A 9.64 9.35 -89.9 0 0 137.46 92.13   L 130.91 92.12   A 0.76 0.76 0.0 0 0 130.14 92.88   Z" fill="#b2b0b4"/>
<path class="icon-shape" d="   M 130.14 92.88   A 0.76 0.76 0.0 0 1 130.91 92.12   L 137.46 92.13   A 9.64 9.35 -89.9 0 1 146.79 101.78   L 146.77 111.80   A 9.64 9.35 -89.9 0 1 137.40 121.43   L 130.85 121.42   A 0.76 0.76 0.0 0 1 130.10 120.66   L 130.14 92.88   Z" fill="#ffffff"/>
</g><g id="onState" style="display:none"><g fill="none" stroke-linecap="butt" stroke-width="2.00">
<path class="icon-shape" d="   M 33.57 116.64   Q 35.73 123.84 37.64 131.62   Q 40.55 143.51 42.12 145.93   Q 46.51 152.72 54.32 155.41   Q 58.05 156.70 69.82 156.66   Q 118.07 156.50 130.98 156.69   Q 143.82 156.88 148.32 155.04   Q 159.23 150.59 162.15 138.81   Q 166.45 121.40 172.34 98.22   Q 175.21 86.95 166.89 79.86   Q 157.73 72.05 144.33 62.16   Q 137.11 56.83 128.35 56.39" stroke="#808080" vector-effect="non-scaling-stroke"/>
<path class="icon-shape" d="   M 128.35 56.39   C 121.63 43.83 109.24 34.46 95.94 30.48   C 59.97 19.73 25.40 45.18 23.08 81.88   Q 21.89 100.61 33.57 116.64" stroke="#fef6f6" vector-effect="non-scaling-stroke"/>
<path class="icon-shape" d="   M 128.35 56.39   Q 102.94 56.23 77.67 56.36   Q 69.85 56.40 66.44 57.49   Q 61.27 59.13 56.44 62.69   Q 44.61 71.41 34.64 79.84   Q 26.19 86.99 29.24 98.24   Q 31.59 106.92 33.57 116.64" stroke="#7f7776" vector-effect="non-scaling-stroke"/>
<path class="icon-shape" d="   M 42.20 127.57   C 44.35 137.40 45.37 145.47 54.27 149.61   Q 57.90 151.31 68.43 150.95   Q 71.53 150.85 137.56 150.93   C 145.10 150.94 148.91 149.84 153.62 144.70   Q 155.70 142.43 158.24 132.28   Q 166.82 97.99 167.28 96.01   Q 169.03 88.32 162.99 83.51   Q 150.21 73.33 139.87 65.63   Q 137.62 63.95 131.52 61.87" stroke="#808080" vector-effect="non-scaling-stroke"/>
<path class="icon-shape" d="   M 131.52 61.87   Q 104.89 61.46 77.83 61.68   C 69.99 61.74 65.50 62.64 59.71 66.96   Q 45.44 77.59 38.30 83.76   C 31.90 89.30 33.85 94.38 35.92 102.86   Q 39.09 115.87 42.20 127.57" stroke="#7f7776" vector-effect="non-scaling-stroke"/>
<path class="icon-shape" d="   M 131.52 61.87   Q 136.26 74.47 135.96 86.87" stroke="#fef6f6" vector-effect="non-scaling-stroke"/>
<path class="icon-shape" d="   M 135.96 86.87   L 126.93 86.87   A 2.70 2.69 -89.9 0 0 124.23 89.57   L 124.21 119.40" stroke="#7f7776" vector-effect="non-scaling-stroke"/>
<path class="icon-shape" d="   M 124.21 119.40   Q 122.53 121.11 120.97 122.87   C 110.19 135.06 93.48 141.40 77.57 140.95   Q 59.04 140.44 42.20 127.57" stroke="#fef6f6" vector-effect="non-scaling-stroke"/>
<path class="icon-shape" d="   M 124.21 119.40   L 124.21 124.15   A 1.90 1.83 -58.0 0 0 124.37 124.91   Q 125.16 126.72 127.01 126.72   C 137.26 126.70 148.90 128.50 152.23 115.72   C 153.11 112.38 152.58 107.49 152.74 104.65   C 153.34 93.81 147.77 86.57 135.96 86.87" stroke="#808080" vector-effect="non-scaling-stroke"/>
<path class="icon-shape" d="   M 66.78 108.95   Q 72.56 108.96 74.74 108.94   A 0.46 0.46 0.0 0 1 75.20 109.40   L 75.20 124.18   A 2.84 2.84 0.0 0 0 78.04 127.02   L 78.45 127.02   A 2.80 2.79 0.0 0 0 81.25 124.23   L 81.24 89.31   A 2.75 2.75 0.0 0 0 78.45 86.56   L 78.19 86.55   A 2.88 2.88 0.0 0 0 75.20 89.44   L 75.23 103.12   A 0.46 0.45 -0.6 0 1 74.78 103.57   Q 70.78 103.62 66.78 103.61   Q 62.79 103.61 58.78 103.56   A 0.46 0.45 0.7 0 1 58.34 103.11   L 58.38 89.43   A 2.88 2.88 0.0 0 0 55.39 86.54   L 55.13 86.55   A 2.75 2.75 0.0 0 0 52.34 89.30   L 52.30 124.22   A 2.80 2.79 0.0 0 0 55.10 127.01   L 55.51 127.01   A 2.84 2.84 0.0 0 0 58.35 124.17   L 58.36 109.39   A 0.46 0.46 0.0 0 1 58.82 108.93   Q 61.01 108.95 66.78 108.95" stroke="#7f7776" vector-effect="non-scaling-stroke"/>
<path class="icon-shape" d="   M 102.83 127.35   C 110.93 127.35 116.84 122.90 117.06 114.45   Q 117.17 110.18 117.09 89.48   A 2.91 2.91 0.0 0 0 114.08 86.58   L 113.96 86.58   A 3.09 3.09 0.0 0 0 110.96 89.67   Q 110.98 99.92 111.02 112.82   C 111.04 116.98 110.22 120.10 106.23 121.40   Q 104.36 122.01 102.83 122.01   Q 101.30 122.01 99.43 121.40   C 95.44 120.11 94.62 116.99 94.63 112.83   Q 94.66 99.93 94.67 89.68   A 3.09 3.09 0.0 0 0 91.67 86.59   L 91.55 86.59   A 2.91 2.91 0.0 0 0 88.54 89.49   Q 88.48 110.19 88.60 114.47   C 88.82 122.91 94.74 127.35 102.83 127.35" stroke="#7f7776" vector-effect="non-scaling-stroke"/>
<path class="icon-shape" d="   M 130.15 107.85   L 130.16 120.73   A 0.57 0.57 0.0 0 0 130.71 121.30   C 138.50 121.52 146.13 121.88 146.65 111.73   C 147.12 102.50 148.06 91.10 134.79 92.25" stroke="#808080" vector-effect="non-scaling-stroke"/>
<path class="icon-shape" d="   M 134.79 92.25   Q 132.51 91.86 130.61 92.44   A 0.70 0.69 81.6 0 0 130.12 93.11   L 130.15 107.85" stroke="#7f7776" vector-effect="non-scaling-stroke"/>
<path class="icon-shape" d="   M 134.79 92.25   Q 134.82 100.81 130.15 107.85" stroke="#fef6f6" vector-effect="non-scaling-stroke"/>
</g>
<path class="icon-shape" d="   M 209.00 0.00   L 209.00 207.00   L 0.00 207.00   L 0.00 0.00   L 209.00 0.00   Z   M 33.57 116.64   Q 35.73 123.84 37.64 131.62   Q 40.55 143.51 42.12 145.93   Q 46.51 152.72 54.32 155.41   Q 58.05 156.70 69.82 156.66   Q 118.07 156.50 130.98 156.69   Q 143.82 156.88 148.32 155.04   Q 159.23 150.59 162.15 138.81   Q 166.45 121.40 172.34 98.22   Q 175.21 86.95 166.89 79.86   Q 157.73 72.05 144.33 62.16   Q 137.11 56.83 128.35 56.39   C 121.63 43.83 109.24 34.46 95.94 30.48   C 59.97 19.73 25.40 45.18 23.08 81.88   Q 21.89 100.61 33.57 116.64   Z" fill="#ffffff"/>
<path class="icon-shape" d="   M 128.35 56.39   Q 102.94 56.23 77.67 56.36   Q 69.85 56.40 66.44 57.49   Q 61.27 59.13 56.44 62.69   Q 44.61 71.41 34.64 79.84   Q 26.19 86.99 29.24 98.24   Q 31.59 106.92 33.57 116.64   Q 21.89 100.61 23.08 81.88   C 25.40 45.18 59.97 19.73 95.94 30.48   C 109.24 34.46 121.63 43.83 128.35 56.39   Z" fill="#fdedec"/>
<path class="icon-shape" d="   M 128.35 56.39   Q 137.11 56.83 144.33 62.16   Q 157.73 72.05 166.89 79.86   Q 175.21 86.95 172.34 98.22   Q 166.45 121.40 162.15 138.81   Q 159.23 150.59 148.32 155.04   Q 143.82 156.88 130.98 156.69   Q 118.07 156.50 69.82 156.66   Q 58.05 156.70 54.32 155.41   Q 46.51 152.72 42.12 145.93   Q 40.55 143.51 37.64 131.62   Q 35.73 123.84 33.57 116.64   Q 31.59 106.92 29.24 98.24   Q 26.19 86.99 34.64 79.84   Q 44.61 71.41 56.44 62.69   Q 61.27 59.13 66.44 57.49   Q 69.85 56.40 77.67 56.36   Q 102.94 56.23 128.35 56.39   Z   M 42.20 127.57   C 44.35 137.40 45.37 145.47 54.27 149.61   Q 57.90 151.31 68.43 150.95   Q 71.53 150.85 137.56 150.93   C 145.10 150.94 148.91 149.84 153.62 144.70   Q 155.70 142.43 158.24 132.28   Q 166.82 97.99 167.28 96.01   Q 169.03 88.32 162.99 83.51   Q 150.21 73.33 139.87 65.63   Q 137.62 63.95 131.52 61.87   Q 104.89 61.46 77.83 61.68   C 69.99 61.74 65.50 62.64 59.71 66.96   Q 45.44 77.59 38.30 83.76   C 31.90 89.30 33.85 94.38 35.92 102.86   Q 39.09 115.87 42.20 127.57   Z" fill="#000000"/>
<path class="icon-shape" d="   M 131.52 61.87   Q 136.26 74.47 135.96 86.87   L 126.93 86.87   A 2.70 2.69 -89.9 0 0 124.23 89.57   L 124.21 119.40   Q 122.53 121.11 120.97 122.87   C 110.19 135.06 93.48 141.40 77.57 140.95   Q 59.04 140.44 42.20 127.57   Q 39.09 115.87 35.92 102.86   C 33.85 94.38 31.90 89.30 38.30 83.76   Q 45.44 77.59 59.71 66.96   C 65.50 62.64 69.99 61.74 77.83 61.68   Q 104.89 61.46 131.52 61.87   Z   M 66.78 108.95   Q 72.56 108.96 74.74 108.94   A 0.46 0.46 0.0 0 1 75.20 109.40   L 75.20 124.18   A 2.84 2.84 0.0 0 0 78.04 127.02   L 78.45 127.02   A 2.80 2.79 0.0 0 0 81.25 124.23   L 81.24 89.31   A 2.75 2.75 0.0 0 0 78.45 86.56   L 78.19 86.55   A 2.88 2.88 0.0 0 0 75.20 89.44   L 75.23 103.12   A 0.46 0.45 -0.6 0 1 74.78 103.57   Q 70.78 103.62 66.78 103.61   Q 62.79 103.61 58.78 103.56   A 0.46 0.45 0.7 0 1 58.34 103.11   L 58.38 89.43   A 2.88 2.88 0.0 0 0 55.39 86.54   L 55.13 86.55   A 2.75 2.75 0.0 0 0 52.34 89.30   L 52.30 124.22   A 2.80 2.79 0.0 0 0 55.10 127.01   L 55.51 127.01   A 2.84 2.84 0.0 0 0 58.35 124.17   L 58.36 109.39   A 0.46 0.46 0.0 0 1 58.82 108.93   Q 61.01 108.95 66.78 108.95   Z   M 102.83 127.35   C 110.93 127.35 116.84 122.90 117.06 114.45   Q 117.17 110.18 117.09 89.48   A 2.91 2.91 0.0 0 0 114.08 86.58   L 113.96 86.58   A 3.09 3.09 0.0 0 0 110.96 89.67   Q 110.98 99.92 111.02 112.82   C 111.04 116.98 110.22 120.10 106.23 121.40   Q 104.36 122.01 102.83 122.01   Q 101.30 122.01 99.43 121.40   C 95.44 120.11 94.62 116.99 94.63 112.83   Q 94.66 99.93 94.67 89.68   A 3.09 3.09 0.0 0 0 91.67 86.59   L 91.55 86.59   A 2.91 2.91 0.0 0 0 88.54 89.49   Q 88.48 110.19 88.60 114.47   C 88.82 122.91 94.74 127.35 102.83 127.35   Z" fill="#fdedec"/>
<path class="icon-shape" d="   M 42.20 127.57   Q 59.04 140.44 77.57 140.95   C 93.48 141.40 110.19 135.06 120.97 122.87   Q 122.53 121.11 124.21 119.40   L 124.21 124.15   A 1.90 1.83 -58.0 0 0 124.37 124.91   Q 125.16 126.72 127.01 126.72   C 137.26 126.70 148.90 128.50 152.23 115.72   C 153.11 112.38 152.58 107.49 152.74 104.65   C 153.34 93.81 147.77 86.57 135.96 86.87   Q 136.26 74.47 131.52 61.87   Q 137.62 63.95 139.87 65.63   Q 150.21 73.33 162.99 83.51   Q 169.03 88.32 167.28 96.01   Q 166.82 97.99 158.24 132.28   Q 155.70 142.43 153.62 144.70   C 148.91 149.84 145.10 150.94 137.56 150.93   Q 71.53 150.85 68.43 150.95   Q 57.90 151.31 54.27 149.61   C 45.37 145.47 44.35 137.40 42.20 127.57   Z" fill="#ffffff"/>
<path class="icon-shape" d="   M 66.78 103.61   Q 70.78 103.62 74.78 103.57   A 0.46 0.45 -0.6 0 0 75.23 103.12   L 75.20 89.44   A 2.88 2.88 0.0 0 1 78.19 86.55   L 78.45 86.56   A 2.75 2.75 0.0 0 1 81.24 89.31   L 81.25 124.23   A 2.80 2.79 0.0 0 1 78.45 127.02   L 78.04 127.02   A 2.84 2.84 0.0 0 1 75.20 124.18   L 75.20 109.40   A 0.46 0.46 0.0 0 0 74.74 108.94   Q 72.56 108.96 66.78 108.95   Q 61.01 108.95 58.82 108.93   A 0.46 0.46 0.0 0 0 58.36 109.39   L 58.35 124.17   A 2.84 2.84 0.0 0 1 55.51 127.01   L 55.10 127.01   A 2.80 2.79 0.0 0 1 52.30 124.22   L 52.34 89.30   A 2.75 2.75 0.0 0 1 55.13 86.55   L 55.39 86.54   A 2.88 2.88 0.0 0 1 58.38 89.43   L 58.34 103.11   A 0.46 0.45 0.7 0 0 58.78 103.56   Q 62.79 103.61 66.78 103.61   Z" fill="#000000"/>
<path class="icon-shape" d="   M 102.83 122.01   Q 104.36 122.01 106.23 121.40   C 110.22 120.10 111.04 116.98 111.02 112.82   Q 110.98 99.92 110.96 89.67   A 3.09 3.09 0.0 0 1 113.96 86.58   L 114.08 86.58   A 2.91 2.91 0.0 0 1 117.09 89.48   Q 117.17 110.18 117.06 114.45   C 116.84 122.90 110.93 127.35 102.83 127.35   C 94.74 127.35 88.82 122.91 88.60 114.47   Q 88.48 110.19 88.54 89.49   A 2.91 2.91 0.0 0 1 91.55 86.59   L 91.67 86.59   A 3.09 3.09 0.0 0 1 94.67 89.68   Q 94.66 99.93 94.63 112.83   C 94.62 116.99 95.44 120.11 99.43 121.40   Q 101.30 122.01 102.83 122.01   Z" fill="#000000"/>
<path class="icon-shape" d="   M 135.96 86.87   C 147.77 86.57 153.34 93.81 152.74 104.65   C 152.58 107.49 153.11 112.38 152.23 115.72   C 148.90 128.50 137.26 126.70 127.01 126.72   Q 125.16 126.72 124.37 124.91   A 1.90 1.83 -58.0 0 1 124.21 124.15   L 124.21 119.40   L 124.23 89.57   A 2.70 2.69 -89.9 0 1 126.93 86.87   L 135.96 86.87   Z   M 130.15 107.85   L 130.16 120.73   A 0.57 0.57 0.0 0 0 130.71 121.30   C 138.50 121.52 146.13 121.88 146.65 111.73   C 147.12 102.50 148.06 91.10 134.79 92.25   Q 132.51 91.86 130.61 92.44   A 0.70 0.69 81.6 0 0 130.12 93.11   L 130.15 107.85   Z" fill="#000000"/>
<path class="icon-shape" d="   M 134.79 92.25   Q 134.82 100.81 130.15 107.85   L 130.12 93.11   A 0.70 0.69 81.6 0 1 130.61 92.44   Q 132.51 91.86 134.79 92.25   Z" fill="#fdedec"/>
<path class="icon-shape" d="   M 130.15 107.85   Q 134.82 100.81 134.79 92.25   C 148.06 91.10 147.12 102.50 146.65 111.73   C 146.13 121.88 138.50 121.52 130.71 121.30   A 0.57 0.57 0.0 0 1 130.16 120.73   L 130.15 107.85   Z" fill="#ffffff"/>
</g></svg>