<?xml version="1.0" encoding="UTF-8" standalone="no"?>
<!DOCTYPE svg PUBLIC "-//W3C//DTD SVG 1.1//EN" "http://www.w3.org/Graphics/SVG/1.1/DTD/svg11.dtd">
<svg xmlns="http://www.w3.org/2000/svg" version="1.1" viewBox="0.00 0.00 128.00 136.00">
<path stroke="#7e7f80" stroke-width="2.00" fill="none" stroke-linecap="butt" vector-effect="non-scaling-stroke" d="
  M 64.06 114.13
  L 64.01 123.13
  A 0.32 0.32 0.0 0 0 64.54 123.37
  Q 64.86 123.09 64.84 122.48
  Q 64.73 117.98 65.56 113.73"
/>
<path fill="#000000" d="
  M 61.89 7.26
  C 67.90 7.27 72.94 7.01 77.59 8.70
  Q 87.17 12.17 90.26 23.00
  C 93.47 34.27 93.91 45.56 93.59 58.26
  Q 93.39 66.54 92.09 76.22
  Q 90.73 86.43 87.07 91.07
  Q 81.35 98.32 72.00 98.84
  A 0.80 0.80 0.0 0 0 71.24 99.62
  Q 71.12 104.39 71.27 111.02
  Q 71.30 112.28 69.46 114.47
  A 2.01 2.00 -25.0 0 0 68.99 115.76
  L 68.99 122.46
  A 5.07 5.05 -24.9 0 1 67.78 125.74
  Q 66.04 127.78 63.20 129.45
  Q 62.20 130.04 61.69 130.04
  Q 61.19 130.04 60.19 129.44
  Q 57.35 127.77 55.62 125.72
  A 5.07 5.05 25.1 0 1 54.42 122.44
  L 54.44 115.74
  A 2.01 2.00 25.2 0 0 53.98 114.45
  Q 52.14 112.25 52.18 110.99
  Q 52.35 104.36 52.24 99.59
  A 0.80 0.80 0.0 0 0 51.49 98.81
  Q 42.14 98.26 36.44 90.99
  Q 32.79 86.34 31.47 76.13
  Q 30.20 66.44 30.02 58.16
  C 29.74 45.46 30.22 34.17 33.46 22.91
  Q 36.59 12.09 46.17 8.65
  C 50.83 6.97 55.87 7.25 61.89 7.26
  Z
  M 61.69 95.59
  Q 67.54 95.60 72.51 94.96
  Q 80.38 93.94 84.65 87.73
  C 86.77 84.63 87.40 81.19 87.96 77.48
  C 90.52 60.55 91.04 41.66 86.80 25.00
  Q 83.44 11.82 69.76 11.21
  Q 68.83 11.17 61.86 11.16
  Q 54.88 11.15 53.95 11.18
  Q 40.27 11.74 36.86 24.90
  C 32.55 41.55 33.00 60.44 35.50 77.38
  C 36.04 81.09 36.66 84.53 38.77 87.64
  Q 43.01 93.87 50.87 94.92
  Q 55.84 95.58 61.69 95.59
  Z
  M 59.84 123.86
  A 0.31 0.31 0.0 0 0 60.15 123.55
  L 60.15 99.73
  A 0.31 0.31 0.0 0 0 59.84 99.42
  L 56.52 99.42
  A 0.31 0.31 0.0 0 0 56.21 99.73
  L 56.21 110.33
  A 0.31 0.31 0.0 0 0 56.25 110.48
  L 58.53 114.43
  A 0.31 0.31 0.0 0 1 58.57 114.58
  L 58.57 123.55
  A 0.31 0.31 0.0 0 0 58.88 123.86
  L 59.84 123.86
  Z
  M 64.06 114.13
  L 64.01 123.13
  A 0.32 0.32 0.0 0 0 64.54 123.37
  Q 64.86 123.09 64.84 122.48
  Q 64.73 117.98 65.56 113.73
  Q 68.10 108.03 67.30 100.14
  A 0.77 0.76 87.1 0 0 66.54 99.45
  L 64.64 99.45
  A 0.70 0.70 0.0 0 0 63.94 100.15
  L 64.06 114.13
  Z"
/>
<rect fill="#000000" x="-5.83" y="-1.89" transform="translate(62.12,19.26) rotate(0.4)" width="11.66" height="3.78" rx="1.81"/>
<path fill="#000000" d="
  M 61.90 27.22
  C 66.77 27.24 70.71 27.45 74.88 28.66
  C 79.55 30.01 81.96 35.07 82.33 39.53
  Q 83.68 55.70 81.60 74.77
  Q 80.95 80.72 77.61 85.09
  C 74.26 89.46 67.52 89.32 61.64 89.30
  C 55.77 89.27 49.02 89.36 45.71 84.96
  Q 42.41 80.56 41.81 74.60
  Q 39.89 55.52 41.37 39.36
  C 41.78 34.90 44.23 29.86 48.91 28.55
  C 53.09 27.37 57.04 27.20 61.90 27.22
  Z
  M 44.89 47.67
  L 78.85 47.61
  A 0.34 0.34 0.0 0 0 79.19 47.27
  L 79.18 41.07
  A 10.14 9.94 -0.1 0 0 69.03 31.15
  L 54.67 31.17
  A 10.14 9.94 -0.1 0 0 44.54 41.13
  L 44.55 47.33
  A 0.34 0.34 0.0 0 0 44.89 47.67
  Z
  M 79.16 51.82
  A 0.27 0.27 0.0 0 0 78.89 51.55
  L 44.77 51.55
  A 0.27 0.27 0.0 0 0 44.50 51.82
  L 44.50 66.68
  A 0.27 0.27 0.0 0 0 44.77 66.95
  L 78.89 66.95
  A 0.27 0.27 0.0 0 0 79.16 66.68
  L 79.16 51.82
  Z
  M 78.05 70.93
  L 45.39 70.93
  A 0.23 0.23 0.0 0 0 45.16 71.16
  L 45.16 73.47
  A 12.12 10.32 -90.0 0 0 55.48 85.59
  L 67.96 85.59
  A 12.12 10.32 -90.0 0 0 78.28 73.47
  L 78.28 71.16
  A 0.23 0.23 0.0 0 0 78.05 70.93
  Z"
/>
<rect fill="#000000" x="-7.30" y="-1.89" transform="translate(62.02,39.93) rotate(0.1)" width="14.60" height="3.78" rx="1.82"/>
<rect fill="#000000" x="-7.35" y="-1.86" transform="translate(62.10,59.68) rotate(-0.3)" width="14.70" height="3.72" rx="1.80"/>
<rect fill="#000000" x="-7.58" y="-1.75" transform="translate(61.69,78.07) rotate(-0.2)" width="15.16" height="3.50" rx="1.69"/>
<path fill="#fcfeff" d="
  M 65.56 113.73
  Q 64.73 117.98 64.84 122.48
  Q 64.86 123.09 64.54 123.37
  A 0.32 0.32 0.0 0 1 64.01 123.13
  L 64.06 114.13
  L 65.56 113.73
  Z"
/>
</svg>
