<?xml version="1.0" encoding="utf-8"?>
<svg version="1.1" viewBox="0.00 0.00 209.00 204.00" xmlns="http://www.w3.org/2000/svg"><g id="offState" style="display:inline"><g fill="none" stroke-linecap="butt" stroke-width="2.00">
<path class="icon-shape" d="   M 100.01 162.08   Q 116.75 162.09 134.24 162.14   Q 141.21 162.15 143.10 160.92   Q 146.67 158.59 145.67 152.79   Q 144.61 146.60 136.09 96.39   Q 135.07 90.36 128.26 88.44   A 2.88 2.82 -36.1 0 0 127.44 88.32   L 112.90 88.25   A 0.31 0.31 0.0 0 1 112.59 87.94   L 112.59 83.88   A 0.21 0.21 0.0 0 1 112.81 83.67   Q 119.64 84.14 122.65 79.45   Q 124.28 76.89 124.01 70.79   Q 123.96 69.83 123.97 60.39   A 3.48 3.11 41.8 0 0 123.89 59.67   Q 122.22 52.17 114.51 51.68   Q 114.36 51.67 100.12 51.66   Q 85.87 51.64 85.72 51.65   Q 78.01 52.13 76.33 59.63   A 3.48 3.11 -41.7 0 0 76.25 60.34   Q 76.24 69.78 76.19 70.74   Q 75.90 76.84 77.53 79.41   Q 80.53 84.10 87.36 83.65   A 0.21 0.21 0.0 0 1 87.58 83.86   L 87.57 87.92   A 0.31 0.31 0.0 0 1 87.26 88.23   L 72.72 88.27   A 2.88 2.82 36.2 0 0 71.90 88.39   Q 65.09 90.29 64.06 96.32   Q 55.44 146.52 54.37 152.70   Q 53.36 158.50 56.93 160.84   Q 58.81 162.07 65.78 162.07   Q 83.28 162.06 100.01 162.08" stroke="#d9d7d9" vector-effect="non-scaling-stroke"/>
<path class="icon-shape" d="   M 118.8622 60.6130   A 4.25 4.25 0.0 0 0 114.6196 56.3556   L 85.3197 56.3044   A 4.25 4.25 0.0 0 0 81.0622 60.5470   L 81.0378 74.5470   A 4.25 4.25 0.0 0 0 85.2804 78.8044   L 114.5803 78.8556   A 4.25 4.25 0.0 0 0 118.8378 74.6130   L 118.8622 60.6130" stroke="#d9d7d9" vector-effect="non-scaling-stroke"/>
<path class="icon-shape" d="   M 107.6277 84.5501   A 0.66 0.66 0.0 0 0 106.9712 83.8866   L 92.9914 83.8134   A 0.66 0.66 0.0 0 0 92.3279 84.4700   L 92.3123 87.4499   A 0.66 0.66 0.0 0 0 92.9688 88.1134   L 106.9486 88.1866   A 0.66 0.66 0.0 0 0 107.6121 87.5300   L 107.6277 84.5501" stroke="#d9d7d9" vector-effect="non-scaling-stroke"/>
<path class="icon-shape" d="   M 100.04 157.36   Q 119.81 157.35 139.51 157.14   A 1.71 1.70 -5.2 0 0 141.18 155.15   Q 133.33 109.49 131.63 99.05   C 131.00 95.23 129.79 93.29 125.75 93.33   Q 112.61 93.43 99.99 93.44   Q 87.37 93.45 74.23 93.37   C 70.19 93.34 68.98 95.28 68.36 99.10   Q 66.68 109.54 58.90 155.22   A 1.71 1.70 5.1 0 0 60.57 157.21   Q 80.27 157.38 100.04 157.36" stroke="#d9d7d9" vector-effect="non-scaling-stroke"/>
<path class="icon-shape" d="   M 123.58 111.10   A 9.84 9.84 0.0 0 0 113.74 101.26   L 86.22 101.26   A 9.84 9.84 0.0 0 0 76.38 111.10   L 76.38 126.84   A 9.84 9.84 0.0 0 0 86.22 136.68   L 113.74 136.68   A 9.84 9.84 0.0 0 0 123.58 126.84   L 123.58 111.10" stroke="#d9d7d9" vector-effect="non-scaling-stroke"/>
<path class="icon-shape" d="   M 118.41 110.81   A 4.72 4.72 0.0 0 0 113.69 106.09   L 86.15 106.09   A 4.72 4.72 0.0 0 0 81.43 110.81   L 81.43 126.99   A 4.72 4.72 0.0 0 0 86.15 131.71   L 113.69 131.71   A 4.72 4.72 0.0 0 0 118.41 126.99   L 118.41 110.81" stroke="#d9d7d9" vector-effect="non-scaling-stroke"/>
</g>
<path class="icon-shape" d="   M 209.00 0.00   L 209.00 204.00   L 0.00 204.00   L 0.00 0.00   L 209.00 0.00   Z   M 100.01 162.08   Q 116.75 162.09 134.24 162.14   Q 141.21 162.15 143.10 160.92   Q 146.67 158.59 145.67 152.79   Q 144.61 146.60 136.09 96.39   Q 135.07 90.36 128.26 88.44   A 2.88 2.82 -36.1 0 0 127.44 88.32   L 112.90 88.25   A 0.31 0.31 0.0 0 1 112.59 87.94   L 112.59 83.88   A 0.21 0.21 0.0 0 1 112.81 83.67   Q 119.64 84.14 122.65 79.45   Q 124.28 76.89 124.01 70.79   Q 123.96 69.83 123.97 60.39   A 3.48 3.11 41.8 0 0 123.89 59.67   Q 122.22 52.17 114.51 51.68   Q 114.36 51.67 100.12 51.66   Q 85.87 51.64 85.72 51.65   Q 78.01 52.13 76.33 59.63   A 3.48 3.11 -41.7 0 0 76.25 60.34   Q 76.24 69.78 76.19 70.74   Q 75.90 76.84 77.53 79.41   Q 80.53 84.10 87.36 83.65   A 0.21 0.21 0.0 0 1 87.58 83.86   L 87.57 87.92   A 0.31 0.31 0.0 0 1 87.26 88.23   L 72.72 88.27   A 2.88 2.82 36.2 0 0 71.90 88.39   Q 65.09 90.29 64.06 96.32   Q 55.44 146.52 54.37 152.70   Q 53.36 158.50 56.93 160.84   Q 58.81 162.07 65.78 162.07   Q 83.28 162.06 100.01 162.08   Z" fill="#ffffff"/>
<path class="icon-shape" d="   M 100.12 51.66   Q 114.36 51.67 114.51 51.68   Q 122.22 52.17 123.89 59.67   A 3.48 3.11 41.8 0 1 123.97 60.39   Q 123.96 69.83 124.01 70.79   Q 124.28 76.89 122.65 79.45   Q 119.64 84.14 112.81 83.67   A 0.21 0.21 0.0 0 0 112.59 83.88   L 112.59 87.94   A 0.31 0.31 0.0 0 0 112.90 88.25   L 127.44 88.32   A 2.88 2.82 -36.1 0 1 128.26 88.44   Q 135.07 90.36 136.09 96.39   Q 144.61 146.60 145.67 152.79   Q 146.67 158.59 143.10 160.92   Q 141.21 162.15 134.24 162.14   Q 116.75 162.09 100.01 162.08   Q 83.28 162.06 65.78 162.07   Q 58.81 162.07 56.93 160.84   Q 53.36 158.50 54.37 152.70   Q 55.44 146.52 64.06 96.32   Q 65.09 90.29 71.90 88.39   A 2.88 2.82 36.2 0 1 72.72 88.27   L 87.26 88.23   A 0.31 0.31 0.0 0 0 87.57 87.92   L 87.58 83.86   A 0.21 0.21 0.0 0 0 87.36 83.65   Q 80.53 84.10 77.53 79.41   Q 75.90 76.84 76.19 70.74   Q 76.24 69.78 76.25 60.34   A 3.48 3.11 -41.7 0 1 76.33 59.63   Q 78.01 52.13 85.72 51.65   Q 85.87 51.64 100.12 51.66   Z   M 118.8622 60.6130   A 4.25 4.25 0.0 0 0 114.6196 56.3556   L 85.3197 56.3044   A 4.25 4.25 0.0 0 0 81.0622 60.5470   L 81.0378 74.5470   A 4.25 4.25 0.0 0 0 85.2804 78.8044   L 114.5803 78.8556   A 4.25 4.25 0.0 0 0 118.8378 74.6130   L 118.8622 60.6130   Z   M 107.6277 84.5501   A 0.66 0.66 0.0 0 0 106.9712 83.8866   L 92.9914 83.8134   A 0.66 0.66 0.0 0 0 92.3279 84.4700   L 92.3123 87.4499   A 0.66 0.66 0.0 0 0 92.9688 88.1134   L 106.9486 88.1866   A 0.66 0.66 0.0 0 0 107.6121 87.5300   L 107.6277 84.5501   Z   M 100.04 157.36   Q 119.81 157.35 139.51 157.14   A 1.71 1.70 -5.2 0 0 141.18 155.15   Q 133.33 109.49 131.63 99.05   C 131.00 95.23 129.79 93.29 125.75 93.33   Q 112.61 93.43 99.99 93.44   Q 87.37 93.45 74.23 93.37   C 70.19 93.34 68.98 95.28 68.36 99.10   Q 66.68 109.54 58.90 155.22   A 1.71 1.70 5.1 0 0 60.57 157.21   Q 80.27 157.38 100.04 157.36   Z" fill="#b2afb3"/>
<rect fill="#ffffff" height="22.50" rx="4.25" transform="translate(99.95,67.58) rotate(0.1)" width="37.80" x="-18.90" y="-11.25"/>
<rect fill="#ffffff" height="4.30" rx="0.66" transform="translate(99.97,86.00) rotate(0.3)" width="15.30" x="-7.65" y="-2.15"/>
<path class="icon-shape" d="   M 99.99 93.44   Q 112.61 93.43 125.75 93.33   C 129.79 93.29 131.00 95.23 131.63 99.05   Q 133.33 109.49 141.18 155.15   A 1.71 1.70 -5.2 0 1 139.51 157.14   Q 119.81 157.35 100.04 157.36   Q 80.27 157.38 60.57 157.21   A 1.71 1.70 5.1 0 1 58.90 155.22   Q 66.68 109.54 68.36 99.10   C 68.98 95.28 70.19 93.34 74.23 93.37   Q 87.37 93.45 99.99 93.44   Z   M 123.58 111.10   A 9.84 9.84 0.0 0 0 113.74 101.26   L 86.22 101.26   A 9.84 9.84 0.0 0 0 76.38 111.10   L 76.38 126.84   A 9.84 9.84 0.0 0 0 86.22 136.68   L 113.74 136.68   A 9.84 9.84 0.0 0 0 123.58 126.84   L 123.58 111.10   Z" fill="#ffffff"/>
<path class="icon-shape" d="   M 123.58 126.84   A 9.84 9.84 0.0 0 1 113.74 136.68   L 86.22 136.68   A 9.84 9.84 0.0 0 1 76.38 126.84   L 76.38 111.10   A 9.84 9.84 0.0 0 1 86.22 101.26   L 113.74 101.26   A 9.84 9.84 0.0 0 1 123.58 111.10   L 123.58 126.84   Z   M 118.41 110.81   A 4.72 4.72 0.0 0 0 113.69 106.09   L 86.15 106.09   A 4.72 4.72 0.0 0 0 81.43 110.81   L 81.43 126.99   A 4.72 4.72 0.0 0 0 86.15 131.71   L 113.69 131.71   A 4.72 4.72 0.0 0 0 118.41 126.99   L 118.41 110.81   Z" fill="#b2afb3"/>
<rect fill="#ffffff" height="25.62" rx="4.72" width="36.98" x="81.43" y="106.09"/>
</g><g id="onState" style="display:none"><g fill="none" stroke-linecap="butt" stroke-width="2.00">
<path class="icon-shape" d="   M 57.92 131.89   Q 56.02 142.76 54.18 153.50   C 52.89 161.00 58.79 162.50 65.31 162.24   Q 67.82 162.14 134.53 162.29   Q 141.24 162.30 143.28 160.91   Q 146.76 158.53 145.76 152.78   Q 142.10 131.71 136.48 98.09   Q 136.21 96.47 135.64 94.90   Q 135.01 93.15 134.45 91.84" stroke="#808080" vector-effect="non-scaling-stroke"/>
<path class="icon-shape" d="   M 134.45 91.84   Q 140.29 63.49 122.24 42.51   C 93.19 8.75 37.52 21.00 25.28 63.72   C 17.19 91.94 31.32 120.10 57.92 131.89" stroke="#fef6f6" vector-effect="non-scaling-stroke"/>
<path class="icon-shape" d="   M 134.45 91.84   Q 130.35 88.16 127.00 88.18   Q 121.48 88.22 112.94 88.22   A 0.30 0.29 -90.0 0 1 112.65 87.92   L 112.65 83.96   A 0.30 0.29 -87.4 0 1 112.97 83.66   C 120.61 84.46 124.33 79.59 124.03 72.35   Q 123.91 69.21 124.06 64.19   C 124.24 57.88 122.73 53.62 116.82 51.82   A 3.57 3.53 53.0 0 0 115.80 51.67   Q 114.00 51.66 87.26 51.62   C 82.55 51.61 80.08 52.54 77.57 55.96   Q 76.19 57.86 76.18 63.84   Q 76.16 72.30 76.16 72.35   C 75.82 79.57 79.60 84.43 87.19 83.65   A 0.29 0.28 86.5 0 1 87.51 83.94   L 87.51 87.94   A 0.26 0.26 0.0 0 1 87.25 88.20   L 72.81 88.17   A 2.18 1.71 33.3 0 0 72.46 88.20   C 64.60 89.81 64.25 94.88 62.88 102.77   Q 60.34 117.39 57.92 131.89" stroke="#7f7776" vector-effect="non-scaling-stroke"/>
<path class="icon-shape" d="   M 118.8521 60.6530   A 4.25 4.25 0.0 0 0 114.6096 56.3956   L 85.3496 56.3445   A 4.25 4.25 0.0 0 0 81.0922 60.5871   L 81.0679 74.5270   A 4.25 4.25 0.0 0 0 85.3104 78.7844   L 114.5704 78.8355   A 4.25 4.25 0.0 0 0 118.8278 74.5929   L 118.8521 60.6530" stroke="#808080" vector-effect="non-scaling-stroke"/>
<path class="icon-shape" d="   M 107.58 84.12   A 0.28 0.28 0.0 0 0 107.30 83.84   L 92.68 83.84   A 0.28 0.28 0.0 0 0 92.40 84.12   L 92.40 87.84   A 0.28 0.28 0.0 0 0 92.68 88.12   L 107.30 88.12   A 0.28 0.28 0.0 0 0 107.58 87.84   L 107.58 84.12" stroke="#808080" vector-effect="non-scaling-stroke"/>
<path class="icon-shape" d="   M 100.05 157.19   Q 138.80 157.14 139.56 157.12   A 1.64 1.64 0.0 0 0 141.12 155.20   L 131.15 96.89   A 1.27 1.12 30.1 0 0 131.04 96.56   C 129.29 92.77 126.69 93.37 122.45 93.36   Q 121.86 93.35 99.98 93.38   Q 78.11 93.40 77.52 93.40   C 73.27 93.43 70.67 92.83 68.93 96.63   A 1.27 1.12 -30.3 0 0 68.82 96.96   L 58.98 155.29   A 1.64 1.64 0.0 0 0 60.55 157.20   Q 61.30 157.23 100.05 157.19" stroke="#808080" vector-effect="non-scaling-stroke"/>
<path class="icon-shape" d="   M 123.6674 111.1626   A 9.87 9.87 0.0 0 0 113.8319 101.2582   L 86.2521 101.1620   A 9.87 9.87 0.0 0 0 76.3477 110.9975   L 76.2926 126.7974   A 9.87 9.87 0.0 0 0 86.1281 136.7018   L 113.7079 136.7980   A 9.87 9.87 0.0 0 0 123.6123 126.9625   L 123.6674 111.1626" stroke="#808080" vector-effect="non-scaling-stroke"/>
<path class="icon-shape" d="   M 103.03 131.49   Q 111.66 131.79 114.25 131.58   Q 116.74 131.37 117.99 129.08   A 1.72 1.65 61.3 0 0 118.20 128.30   L 118.27 120.96" stroke="#808080" vector-effect="non-scaling-stroke"/>
<path class="icon-shape" d="   M 118.27 120.96   L 118.22 109.72   A 1.62 1.61 -62.6 0 0 117.95 108.86   Q 116.08 106.07 112.75 106.08   Q 95.34 106.10 88.76 106.06   C 84.99 106.03 81.57 106.84 81.48 111.22   Q 81.31 120.68 81.59 128.12   A 1.95 1.92 29.9 0 0 81.82 128.95   Q 83.24 131.45 85.25 131.56   Q 89.88 131.81 103.03 131.49" stroke="#7f7776" vector-effect="non-scaling-stroke"/>
<path class="icon-shape" d="   M 118.27 120.96   L 103.03 131.49" stroke="#fef6f6" vector-effect="non-scaling-stroke"/>
</g>
<path class="icon-shape" d="   M 209.00 0.00   L 209.00 204.00   L 0.00 204.00   L 0.00 0.00   L 209.00 0.00   Z   M 57.92 131.89   Q 56.02 142.76 54.18 153.50   C 52.89 161.00 58.79 162.50 65.31 162.24   Q 67.82 162.14 134.53 162.29   Q 141.24 162.30 143.28 160.91   Q 146.76 158.53 145.76 152.78   Q 142.10 131.71 136.48 98.09   Q 136.21 96.47 135.64 94.90   Q 135.01 93.15 134.45 91.84   Q 140.29 63.49 122.24 42.51   C 93.19 8.75 37.52 21.00 25.28 63.72   C 17.19 91.94 31.32 120.10 57.92 131.89   Z" fill="#ffffff"/>
<path class="icon-shape" d="   M 134.45 91.84   Q 130.35 88.16 127.00 88.18   Q 121.48 88.22 112.94 88.22   A 0.30 0.29 -90.0 0 1 112.65 87.92   L 112.65 83.96   A 0.30 0.29 -87.4 0 1 112.97 83.66   C 120.61 84.46 124.33 79.59 124.03 72.35   Q 123.91 69.21 124.06 64.19   C 124.24 57.88 122.73 53.62 116.82 51.82   A 3.57 3.53 53.0 0 0 115.80 51.67   Q 114.00 51.66 87.26 51.62   C 82.55 51.61 80.08 52.54 77.57 55.96   Q 76.19 57.86 76.18 63.84   Q 76.16 72.30 76.16 72.35   C 75.82 79.57 79.60 84.43 87.19 83.65   A 0.29 0.28 86.5 0 1 87.51 83.94   L 87.51 87.94   A 0.26 0.26 0.0 0 1 87.25 88.20   L 72.81 88.17   A 2.18 1.71 33.3 0 0 72.46 88.20   C 64.60 89.81 64.25 94.88 62.88 102.77   Q 60.34 117.39 57.92 131.89   C 31.32 120.10 17.19 91.94 25.28 63.72   C 37.52 21.00 93.19 8.75 122.24 42.51   Q 140.29 63.49 134.45 91.84   Z" fill="#fdedec"/>
<path class="icon-shape" d="   M 134.45 91.84   Q 135.01 93.15 135.64 94.90   Q 136.21 96.47 136.48 98.09   Q 142.10 131.71 145.76 152.78   Q 146.76 158.53 143.28 160.91   Q 141.24 162.30 134.53 162.29   Q 67.82 162.14 65.31 162.24   C 58.79 162.50 52.89 161.00 54.18 153.50   Q 56.02 142.76 57.92 131.89   Q 60.34 117.39 62.88 102.77   C 64.25 94.88 64.60 89.81 72.46 88.20   A 2.18 1.71 33.3 0 1 72.81 88.17   L 87.25 88.20   A 0.26 0.26 0.0 0 0 87.51 87.94   L 87.51 83.94   A 0.29 0.28 86.5 0 0 87.19 83.65   C 79.60 84.43 75.82 79.57 76.16 72.35   Q 76.16 72.30 76.18 63.84   Q 76.19 57.86 77.57 55.96   C 80.08 52.54 82.55 51.61 87.26 51.62   Q 114.00 51.66 115.80 51.67   A 3.57 3.53 53.0 0 1 116.82 51.82   C 122.73 53.62 124.24 57.88 124.06 64.19   Q 123.91 69.21 124.03 72.35   C 124.33 79.59 120.61 84.46 112.97 83.66   A 0.30 0.29 -87.4 0 0 112.65 83.96   L 112.65 87.92   A 0.30 0.29 -90.0 0 0 112.94 88.22   Q 121.48 88.22 127.00 88.18   Q 130.35 88.16 134.45 91.84   Z   M 118.8521 60.6530   A 4.25 4.25 0.0 0 0 114.6096 56.3956   L 85.3496 56.3445   A 4.25 4.25 0.0 0 0 81.0922 60.5871   L 81.0679 74.5270   A 4.25 4.25 0.0 0 0 85.3104 78.7844   L 114.5704 78.8355   A 4.25 4.25 0.0 0 0 118.8278 74.5929   L 118.8521 60.6530   Z   M 107.58 84.12   A 0.28 0.28 0.0 0 0 107.30 83.84   L 92.68 83.84   A 0.28 0.28 0.0 0 0 92.40 84.12   L 92.40 87.84   A 0.28 0.28 0.0 0 0 92.68 88.12   L 107.30 88.12   A 0.28 0.28 0.0 0 0 107.58 87.84   L 107.58 84.12   Z   M 100.05 157.19   Q 138.80 157.14 139.56 157.12   A 1.64 1.64 0.0 0 0 141.12 155.20   L 131.15 96.89   A 1.27 1.12 30.1 0 0 131.04 96.56   C 129.29 92.77 126.69 93.37 122.45 93.36   Q 121.86 93.35 99.98 93.38   Q 78.11 93.40 77.52 93.40   C 73.27 93.43 70.67 92.83 68.93 96.63   A 1.27 1.12 -30.3 0 0 68.82 96.96   L 58.98 155.29   A 1.64 1.64 0.0 0 0 60.55 157.20   Q 61.30 157.23 100.05 157.19   Z" fill="#000000"/>
<rect fill="#ffffff" height="22.44" rx="4.25" transform="translate(99.96,67.59) rotate(0.1)" width="37.76" x="-18.88" y="-11.22"/>
<rect fill="#ffffff" height="4.28" rx="0.28" width="15.18" x="92.40" y="83.84"/>
<path class="icon-shape" d="   M 99.98 93.38   Q 121.86 93.35 122.45 93.36   C 126.69 93.37 129.29 92.77 131.04 96.56   A 1.27 1.12 30.1 0 1 131.15 96.89   L 141.12 155.20   A 1.64 1.64 0.0 0 1 139.56 157.12   Q 138.80 157.14 100.05 157.19   Q 61.30 157.23 60.55 157.20   A 1.64 1.64 0.0 0 1 58.98 155.29   L 68.82 96.96   A 1.27 1.12 -30.3 0 1 68.93 96.63   C 70.67 92.83 73.27 93.43 77.52 93.40   Q 78.11 93.40 99.98 93.38   Z   M 123.6674 111.1626   A 9.87 9.87 0.0 0 0 113.8319 101.2582   L 86.2521 101.1620   A 9.87 9.87 0.0 0 0 76.3477 110.9975   L 76.2926 126.7974   A 9.87 9.87 0.0 0 0 86.1281 136.7018   L 113.7079 136.7980   A 9.87 9.87 0.0 0 0 123.6123 126.9625   L 123.6674 111.1626   Z" fill="#ffffff"/>
<path class="icon-shape" d="   M 123.6123 126.9625   A 9.87 9.87 0.0 0 1 113.7079 136.7980   L 86.1281 136.7018   A 9.87 9.87 0.0 0 1 76.2926 126.7974   L 76.3477 110.9975   A 9.87 9.87 0.0 0 1 86.2521 101.1620   L 113.8319 101.2582   A 9.87 9.87 0.0 0 1 123.6674 111.1626   L 123.6123 126.9625   Z   M 103.03 131.49   Q 111.66 131.79 114.25 131.58   Q 116.74 131.37 117.99 129.08   A 1.72 1.65 61.3 0 0 118.20 128.30   L 118.27 120.96   L 118.22 109.72   A 1.62 1.61 -62.6 0 0 117.95 108.86   Q 116.08 106.07 112.75 106.08   Q 95.34 106.10 88.76 106.06   C 84.99 106.03 81.57 106.84 81.48 111.22   Q 81.31 120.68 81.59 128.12   A 1.95 1.92 29.9 0 0 81.82 128.95   Q 83.24 131.45 85.25 131.56   Q 89.88 131.81 103.03 131.49   Z" fill="#000000"/>
<path class="icon-shape" d="   M 118.27 120.96   L 103.03 131.49   Q 89.88 131.81 85.25 131.56   Q 83.24 131.45 81.82 128.95   A 1.95 1.92 29.9 0 1 81.59 128.12   Q 81.31 120.68 81.48 111.22   C 81.57 106.84 84.99 106.03 88.76 106.06   Q 95.34 106.10 112.75 106.08   Q 116.08 106.07 117.95 108.86   A 1.62 1.61 -62.6 0 1 118.22 109.72   L 118.27 120.96   Z" fill="#fdedec"/>
<path class="icon-shape" d="   M 118.27 120.96   L 118.20 128.30   A 1.72 1.65 61.3 0 1 117.99 129.08   Q 116.74 131.37 114.25 131.58   Q 111.66 131.79 103.03 131.49   L 118.27 120.96   Z" fill="#ffffff"/>
</g></svg>