<?xml version="1.0" encoding="UTF-8" standalone="no"?>
<!DOCTYPE svg PUBLIC "-//W3C//DTD SVG 1.1//EN" "http://www.w3.org/Graphics/SVG/1.1/DTD/svg11.dtd">
<svg xmlns="http://www.w3.org/2000/svg" version="1.1" viewBox="0.00 0.00 195.00 212.00">
<g stroke-width="2.00" fill="none" stroke-linecap="butt">
<path stroke="#fef6f6" vector-effect="non-scaling-stroke" d="
  M 0.00 83.79
  C 2.79 109.99 20.78 130.26 46.64 135.20"
/>
<path stroke="#808080" vector-effect="non-scaling-stroke" d="
  M 46.64 135.20
  Q 47.38 144.05 48.07 148.49
  Q 49.28 156.32 50.64 159.45
  Q 58.01 176.35 75.85 178.39
  Q 90.98 180.12 118.34 179.26
  Q 131.33 178.85 137.41 176.06
  C 149.75 170.41 154.16 160.26 155.85 147.51
  Q 157.25 137.02 157.77 125.75
  Q 159.49 88.56 155.45 53.94
  C 153.51 37.32 143.84 25.97 126.96 24.31
  Q 103.72 22.03 77.49 24.18
  Q 74.14 24.45 71.05 25.26"
/>
<path stroke="#fef6f6" vector-effect="non-scaling-stroke" d="
  M 71.05 25.26
  Q 66.46 23.53 60.76 23.22
  C 28.87 21.47 3.38 43.45 0.00 75.09"
/>
<path stroke="#7f7777" vector-effect="non-scaling-stroke" d="
  M 71.05 25.26
  C 57.11 29.01 50.19 40.77 48.62 54.28
  Q 43.96 94.18 46.64 135.20"
/>
<path stroke="#808080" vector-effect="non-scaling-stroke" d="
  M 102.03 173.58
  Q 116.96 173.58 118.74 173.40
  C 124.68 172.80 129.65 172.81 135.32 170.55
  Q 147.43 165.74 150.02 152.23
  Q 151.43 144.87 152.09 135.75
  Q 154.70 99.61 151.22 63.69
  C 149.90 50.09 148.79 37.28 134.22 31.87
  Q 130.02 30.31 125.71 29.97
  Q 112.57 28.95 102.00 28.95
  Q 91.42 28.95 78.29 29.98
  Q 73.98 30.32 69.78 31.89
  C 55.21 37.30 54.11 50.11 52.79 63.71
  Q 49.33 99.64 51.96 135.78
  Q 52.62 144.90 54.04 152.25
  Q 56.63 165.76 68.75 170.57
  C 74.42 172.82 79.39 172.81 85.33 173.40
  Q 87.11 173.58 102.03 173.58"
/>
<path stroke="#808080" vector-effect="non-scaling-stroke" d="
  M 62.02 144.62
  C 65.48 155.03 74.48 162.40 85.81 162.45
  Q 101.06 162.51 116.25 162.48
  C 125.73 162.46 134.83 157.99 139.48 149.66
  C 141.27 146.47 141.67 142.07 142.32 138.06
  Q 142.58 136.44 143.33 125.70
  C 144.16 113.92 144.05 98.93 143.80 90.25
  Q 143.35 73.87 141.60 61.82
  C 140.35 53.17 135.73 45.85 127.92 41.90
  Q 124.74 40.30 117.80 40.05
  Q 100.67 39.44 83.56 40.25
  C 73.19 40.74 66.12 47.90 62.54 56.97
  A 4.69 4.53 -31.9 0 0 62.26 58.08
  Q 60.04 78.26 59.93 87.51
  Q 59.69 105.96 59.86 113.75
  Q 60.17 127.66 61.80 143.61
  A 5.64 5.03 36.0 0 0 62.02 144.62"
/>
<path stroke="#808080" vector-effect="non-scaling-stroke" d="
  M 111.00 95.58
  L 138.13 95.54
  A 0.73 0.73 0.0 0 0 138.86 94.76
  Q 138.17 83.33 138.11 77.09
  Q 138.09 74.85 137.60 71.43
  Q 137.50 70.78 137.21 65.76
  C 136.77 58.18 132.49 50.86 125.58 47.47
  Q 123.09 46.25 117.24 46.08
  Q 109.67 45.87 101.91 45.65"
/>
<path stroke="#7f7777" vector-effect="non-scaling-stroke" d="
  M 101.91 45.65
  Q 94.90 45.78 87.67 46.01
  Q 80.77 46.23 77.95 47.57
  Q 70.53 51.09 67.17 59.61
  A 3.53 3.40 58.0 0 0 66.95 60.65
  L 64.94 94.93
  A 0.59 0.59 0.0 0 0 65.53 95.56
  L 111.00 95.58"
/>
<path stroke="#fef6f6" vector-effect="non-scaling-stroke" d="
  M 101.91 45.65
  C 105.01 50.16 107.59 54.54 108.44 59.55"
/>
<path stroke="#7f7777" vector-effect="non-scaling-stroke" d="
  M 108.44 59.55
  Q 105.65 55.79 100.82 56.49
  A 4.11 4.01 27.3 0 0 99.64 56.85
  Q 94.66 59.30 94.77 65.63
  A 1.19 1.19 0.0 0 1 93.92 66.80
  Q 90.42 67.86 90.41 71.24
  C 90.39 79.14 88.92 85.65 98.72 85.82
  Q 106.93 85.96 108.25 85.88
  Q 110.36 85.75 112.39 83.71"
/>
<path stroke="#fef6f6" vector-effect="non-scaling-stroke" d="
  M 112.39 83.71
  L 111.00 95.58"
/>
<path stroke="#808080" vector-effect="non-scaling-stroke" d="
  M 112.39 83.71
  C 114.52 80.59 114.01 76.37 114.15 71.48
  Q 114.25 67.95 110.51 66.93
  A 0.62 0.61 8.8 0 1 110.05 66.31
  Q 110.17 62.54 108.44 59.55"
/>
<path stroke="#808080" vector-effect="non-scaling-stroke" d="
  M 66.24 135.20
  Q 66.77 138.52 67.29 141.58
  Q 68.23 147.22 72.61 151.02
  Q 76.86 154.70 82.07 156.18
  A 5.63 5.16 50.4 0 0 83.52 156.38
  Q 99.75 156.36 114.10 156.41
  Q 120.99 156.43 123.81 155.60
  C 129.73 153.86 136.13 148.50 136.80 142.26
  Q 139.00 122.00 138.78 101.79
  A 0.61 0.61 0.0 0 0 138.17 101.19
  L 108.56 101.16"
/>
<path stroke="#7f7777" vector-effect="non-scaling-stroke" d="
  M 108.56 101.16
  L 65.76 101.18
  A 0.64 0.64 0.0 0 0 65.12 101.84
  L 66.24 135.20"
/>
<path stroke="#fef6f6" vector-effect="non-scaling-stroke" d="
  M 108.56 101.16
  L 105.10 109.50"
/>
<path stroke="#7f7777" vector-effect="non-scaling-stroke" d="
  M 105.10 109.50
  Q 94.74 110.64 96.02 118.62"
/>
<path stroke="#fef6f6" vector-effect="non-scaling-stroke" d="
  M 96.02 118.62
  Q 95.56 120.18 92.47 122.73
  Q 80.67 132.48 66.24 135.20"
/>
<path stroke="#808080" vector-effect="non-scaling-stroke" d="
  M 96.02 118.62
  C 98.53 118.84 98.94 117.51 99.95 116.00
  C 101.78 113.28 104.70 112.45 107.41 114.62
  Q 111.15 117.61 110.37 123.31
  A 0.71 0.70 3.7 0 1 109.67 123.92
  L 92.62 123.92
  A 3.25 3.25 0.0 0 0 89.37 127.17
  L 89.37 141.83
  A 1.53 1.48 -63.1 0 0 89.63 142.68
  Q 91.20 145.06 93.78 145.26
  Q 97.07 145.51 111.20 145.28
  Q 113.75 145.24 115.47 142.16
  A 1.59 1.58 -30.7 0 0 115.67 141.39
  L 115.67 127.58
  A 0.82 0.82 0.0 0 0 115.56 127.17
  L 114.19 124.80
  A 1.00 0.98 33.7 0 1 114.06 124.18
  Q 114.59 119.61 113.57 116.72
  Q 111.47 110.82 105.10 109.50"
/>
<path stroke="#808080" vector-effect="non-scaling-stroke" d="
  M 98.96 66.25
  L 105.82 66.17
  A 0.30 0.30 0.0 0 0 106.11 65.86
  L 106.10 64.99
  A 4.71 3.50 89.3 0 0 102.54 60.33
  L 102.08 60.33
  A 4.71 3.50 89.3 0 0 98.64 65.09
  L 98.65 65.96
  A 0.30 0.30 0.0 0 0 98.96 66.25"
/>
<path stroke="#808080" vector-effect="non-scaling-stroke" d="
  M 109.21 70.74
  L 95.21 70.62
  A 0.72 0.72 0.0 0 0 94.48 71.33
  L 94.42 78.50
  A 3.01 2.10 -89.5 0 0 96.49 81.53
  L 107.73 81.63
  A 3.01 2.10 -89.5 0 0 109.86 78.64
  L 109.92 71.47
  A 0.72 0.72 0.0 0 0 109.21 70.74"
/>
<path stroke="#808080" vector-effect="non-scaling-stroke" d="
  M 111.66 128.91
  A 0.78 0.78 0.0 0 0 110.88 128.13
  L 94.18 128.13
  A 0.78 0.78 0.0 0 0 93.40 128.91
  L 93.40 140.25
  A 0.78 0.78 0.0 0 0 94.18 141.03
  L 110.88 141.03
  A 0.78 0.78 0.0 0 0 111.66 140.25
  L 111.66 128.91"
/>
</g>
<path fill="#ffffff" d="
  M 195.00 0.00
  L 195.00 212.00
  L 0.00 212.00
  L 0.00 83.79
  C 2.79 109.99 20.78 130.26 46.64 135.20
  Q 47.38 144.05 48.07 148.49
  Q 49.28 156.32 50.64 159.45
  Q 58.01 176.35 75.85 178.39
  Q 90.98 180.12 118.34 179.26
  Q 131.33 178.85 137.41 176.06
  C 149.75 170.41 154.16 160.26 155.85 147.51
  Q 157.25 137.02 157.77 125.75
  Q 159.49 88.56 155.45 53.94
  C 153.51 37.32 143.84 25.97 126.96 24.31
  Q 103.72 22.03 77.49 24.18
  Q 74.14 24.45 71.05 25.26
  Q 66.46 23.53 60.76 23.22
  C 28.87 21.47 3.38 43.45 0.00 75.09
  L 0.00 0.00
  L 195.00 0.00
  Z"
/>
<path fill="#fdedec" d="
  M 71.05 25.26
  C 57.11 29.01 50.19 40.77 48.62 54.28
  Q 43.96 94.18 46.64 135.20
  C 20.78 130.26 2.79 109.99 0.00 83.79
  L 0.00 75.09
  C 3.38 43.45 28.87 21.47 60.76 23.22
  Q 66.46 23.53 71.05 25.26
  Z"
/>
<path fill="#010101" d="
  M 46.64 135.20
  Q 43.96 94.18 48.62 54.28
  C 50.19 40.77 57.11 29.01 71.05 25.26
  Q 74.14 24.45 77.49 24.18
  Q 103.72 22.03 126.96 24.31
  C 143.84 25.97 153.51 37.32 155.45 53.94
  Q 159.49 88.56 157.77 125.75
  Q 157.25 137.02 155.85 147.51
  C 154.16 160.26 149.75 170.41 137.41 176.06
  Q 131.33 178.85 118.34 179.26
  Q 90.98 180.12 75.85 178.39
  Q 58.01 176.35 50.64 159.45
  Q 49.28 156.32 48.07 148.49
  Q 47.38 144.05 46.64 135.20
  Z
  M 102.03 173.58
  Q 116.96 173.58 118.74 173.40
  C 124.68 172.80 129.65 172.81 135.32 170.55
  Q 147.43 165.74 150.02 152.23
  Q 151.43 144.87 152.09 135.75
  Q 154.70 99.61 151.22 63.69
  C 149.90 50.09 148.79 37.28 134.22 31.87
  Q 130.02 30.31 125.71 29.97
  Q 112.57 28.95 102.00 28.95
  Q 91.42 28.95 78.29 29.98
  Q 73.98 30.32 69.78 31.89
  C 55.21 37.30 54.11 50.11 52.79 63.71
  Q 49.33 99.64 51.96 135.78
  Q 52.62 144.90 54.04 152.25
  Q 56.63 165.76 68.75 170.57
  C 74.42 172.82 79.39 172.81 85.33 173.40
  Q 87.11 173.58 102.03 173.58
  Z"
/>
<path fill="#ffffff" d="
  M 102.00 28.95
  Q 112.57 28.95 125.71 29.97
  Q 130.02 30.31 134.22 31.87
  C 148.79 37.28 149.90 50.09 151.22 63.69
  Q 154.70 99.61 152.09 135.75
  Q 151.43 144.87 150.02 152.23
  Q 147.43 165.74 135.32 170.55
  C 129.65 172.81 124.68 172.80 118.74 173.40
  Q 116.96 173.58 102.03 173.58
  Q 87.11 173.58 85.33 173.40
  C 79.39 172.81 74.42 172.82 68.75 170.57
  Q 56.63 165.76 54.04 152.25
  Q 52.62 144.90 51.96 135.78
  Q 49.33 99.64 52.79 63.71
  C 54.11 50.11 55.21 37.30 69.78 31.89
  Q 73.98 30.32 78.29 29.98
  Q 91.42 28.95 102.00 28.95
  Z
  M 62.02 144.62
  C 65.48 155.03 74.48 162.40 85.81 162.45
  Q 101.06 162.51 116.25 162.48
  C 125.73 162.46 134.83 157.99 139.48 149.66
  C 141.27 146.47 141.67 142.07 142.32 138.06
  Q 142.58 136.44 143.33 125.70
  C 144.16 113.92 144.05 98.93 143.80 90.25
  Q 143.35 73.87 141.60 61.82
  C 140.35 53.17 135.73 45.85 127.92 41.90
  Q 124.74 40.30 117.80 40.05
  Q 100.67 39.44 83.56 40.25
  C 73.19 40.74 66.12 47.90 62.54 56.97
  A 4.69 4.53 -31.9 0 0 62.26 58.08
  Q 60.04 78.26 59.93 87.51
  Q 59.69 105.96 59.86 113.75
  Q 60.17 127.66 61.80 143.61
  A 5.64 5.03 36.0 0 0 62.02 144.62
  Z"
/>
<path fill="#010101" d="
  M 61.80 143.61
  Q 60.17 127.66 59.86 113.75
  Q 59.69 105.96 59.93 87.51
  Q 60.04 78.26 62.26 58.08
  A 4.69 4.53 -31.9 0 1 62.54 56.97
  C 66.12 47.90 73.19 40.74 83.56 40.25
  Q 100.67 39.44 117.80 40.05
  Q 124.74 40.30 127.92 41.90
  C 135.73 45.85 140.35 53.17 141.60 61.82
  Q 143.35 73.87 143.80 90.25
  C 144.05 98.93 144.16 113.92 143.33 125.70
  Q 142.58 136.44 142.32 138.06
  C 141.67 142.07 141.27 146.47 139.48 149.66
  C 134.83 157.99 125.73 162.46 116.25 162.48
  Q 101.06 162.51 85.81 162.45
  C 74.48 162.40 65.48 155.03 62.02 144.62
  A 5.64 5.03 36.0 0 1 61.80 143.61
  Z
  M 111.00 95.58
  L 138.13 95.54
  A 0.73 0.73 0.0 0 0 138.86 94.76
  Q 138.17 83.33 138.11 77.09
  Q 138.09 74.85 137.60 71.43
  Q 137.50 70.78 137.21 65.76
  C 136.77 58.18 132.49 50.86 125.58 47.47
  Q 123.09 46.25 117.24 46.08
  Q 109.67 45.87 101.91 45.65
  Q 94.90 45.78 87.67 46.01
  Q 80.77 46.23 77.95 47.57
  Q 70.53 51.09 67.17 59.61
  A 3.53 3.40 58.0 0 0 66.95 60.65
  L 64.94 94.93
  A 0.59 0.59 0.0 0 0 65.53 95.56
  L 111.00 95.58
  Z
  M 66.24 135.20
  Q 66.77 138.52 67.29 141.58
  Q 68.23 147.22 72.61 151.02
  Q 76.86 154.70 82.07 156.18
  A 5.63 5.16 50.4 0 0 83.52 156.38
  Q 99.75 156.36 114.10 156.41
  Q 120.99 156.43 123.81 155.60
  C 129.73 153.86 136.13 148.50 136.80 142.26
  Q 139.00 122.00 138.78 101.79
  A 0.61 0.61 0.0 0 0 138.17 101.19
  L 108.56 101.16
  L 65.76 101.18
  A 0.64 0.64 0.0 0 0 65.12 101.84
  L 66.24 135.20
  Z"
/>
<path fill="#fdedec" d="
  M 101.91 45.65
  C 105.01 50.16 107.59 54.54 108.44 59.55
  Q 105.65 55.79 100.82 56.49
  A 4.11 4.01 27.3 0 0 99.64 56.85
  Q 94.66 59.30 94.77 65.63
  A 1.19 1.19 0.0 0 1 93.92 66.80
  Q 90.42 67.86 90.41 71.24
  C 90.39 79.14 88.92 85.65 98.72 85.82
  Q 106.93 85.96 108.25 85.88
  Q 110.36 85.75 112.39 83.71
  L 111.00 95.58
  L 65.53 95.56
  A 0.59 0.59 0.0 0 1 64.94 94.93
  L 66.95 60.65
  A 3.53 3.40 58.0 0 1 67.17 59.61
  Q 70.53 51.09 77.95 47.57
  Q 80.77 46.23 87.67 46.01
  Q 94.90 45.78 101.91 45.65
  Z"
/>
<path fill="#ffffff" d="
  M 111.00 95.58
  L 112.39 83.71
  C 114.52 80.59 114.01 76.37 114.15 71.48
  Q 114.25 67.95 110.51 66.93
  A 0.62 0.61 8.8 0 1 110.05 66.31
  Q 110.17 62.54 108.44 59.55
  C 107.59 54.54 105.01 50.16 101.91 45.65
  Q 109.67 45.87 117.24 46.08
  Q 123.09 46.25 125.58 47.47
  C 132.49 50.86 136.77 58.18 137.21 65.76
  Q 137.50 70.78 137.60 71.43
  Q 138.09 74.85 138.11 77.09
  Q 138.17 83.33 138.86 94.76
  A 0.73 0.73 0.0 0 1 138.13 95.54
  L 111.00 95.58
  Z"
/>
<path fill="#010101" d="
  M 108.44 59.55
  Q 110.17 62.54 110.05 66.31
  A 0.62 0.61 8.8 0 0 110.51 66.93
  Q 114.25 67.95 114.15 71.48
  C 114.01 76.37 114.52 80.59 112.39 83.71
  Q 110.36 85.75 108.25 85.88
  Q 106.93 85.96 98.72 85.82
  C 88.92 85.65 90.39 79.14 90.41 71.24
  Q 90.42 67.86 93.92 66.80
  A 1.19 1.19 0.0 0 0 94.77 65.63
  Q 94.66 59.30 99.64 56.85
  A 4.11 4.01 27.3 0 1 100.82 56.49
  Q 105.65 55.79 108.44 59.55
  Z
  M 98.96 66.25
  L 105.82 66.17
  A 0.30 0.30 0.0 0 0 106.11 65.86
  L 106.10 64.99
  A 4.71 3.50 89.3 0 0 102.54 60.33
  L 102.08 60.33
  A 4.71 3.50 89.3 0 0 98.64 65.09
  L 98.65 65.96
  A 0.30 0.30 0.0 0 0 98.96 66.25
  Z
  M 109.21 70.74
  L 95.21 70.62
  A 0.72 0.72 0.0 0 0 94.48 71.33
  L 94.42 78.50
  A 3.01 2.10 -89.5 0 0 96.49 81.53
  L 107.73 81.63
  A 3.01 2.10 -89.5 0 0 109.86 78.64
  L 109.92 71.47
  A 0.72 0.72 0.0 0 0 109.21 70.74
  Z"
/>
<path fill="#ffffff" d="
  M 98.96 66.25
  A 0.30 0.30 0.0 0 1 98.65 65.96
  L 98.64 65.09
  A 4.71 3.50 89.3 0 1 102.08 60.33
  L 102.54 60.33
  A 4.71 3.50 89.3 0 1 106.10 64.99
  L 106.11 65.86
  A 0.30 0.30 0.0 0 1 105.82 66.17
  L 98.96 66.25
  Z"
/>
<path fill="#ffffff" d="
  M 109.21 70.74
  A 0.72 0.72 0.0 0 1 109.92 71.47
  L 109.86 78.64
  A 3.01 2.10 -89.5 0 1 107.73 81.63
  L 96.49 81.53
  A 3.01 2.10 -89.5 0 1 94.42 78.50
  L 94.48 71.33
  A 0.72 0.72 0.0 0 1 95.21 70.62
  L 109.21 70.74
  Z"
/>
<path fill="#fdedec" d="
  M 108.56 101.16
  L 105.10 109.50
  Q 94.74 110.64 96.02 118.62
  Q 95.56 120.18 92.47 122.73
  Q 80.67 132.48 66.24 135.20
  L 65.12 101.84
  A 0.64 0.64 0.0 0 1 65.76 101.18
  L 108.56 101.16
  Z"
/>
<path fill="#ffffff" d="
  M 66.24 135.20
  Q 80.67 132.48 92.47 122.73
  Q 95.56 120.18 96.02 118.62
  C 98.53 118.84 98.94 117.51 99.95 116.00
  C 101.78 113.28 104.70 112.45 107.41 114.62
  Q 111.15 117.61 110.37 123.31
  A 0.71 0.70 3.7 0 1 109.67 123.92
  L 92.62 123.92
  A 3.25 3.25 0.0 0 0 89.37 127.17
  L 89.37 141.83
  A 1.53 1.48 -63.1 0 0 89.63 142.68
  Q 91.20 145.06 93.78 145.26
  Q 97.07 145.51 111.20 145.28
  Q 113.75 145.24 115.47 142.16
  A 1.59 1.58 -30.7 0 0 115.67 141.39
  L 115.67 127.58
  A 0.82 0.82 0.0 0 0 115.56 127.17
  L 114.19 124.80
  A 1.00 0.98 33.7 0 1 114.06 124.18
  Q 114.59 119.61 113.57 116.72
  Q 111.47 110.82 105.10 109.50
  L 108.56 101.16
  L 138.17 101.19
  A 0.61 0.61 0.0 0 1 138.78 101.79
  Q 139.00 122.00 136.80 142.26
  C 136.13 148.50 129.73 153.86 123.81 155.60
  Q 120.99 156.43 114.10 156.41
  Q 99.75 156.36 83.52 156.38
  A 5.63 5.16 50.4 0 1 82.07 156.18
  Q 76.86 154.70 72.61 151.02
  Q 68.23 147.22 67.29 141.58
  Q 66.77 138.52 66.24 135.20
  Z"
/>
<path fill="#010101" d="
  M 105.10 109.50
  Q 111.47 110.82 113.57 116.72
  Q 114.59 119.61 114.06 124.18
  A 1.00 0.98 33.7 0 0 114.19 124.80
  L 115.56 127.17
  A 0.82 0.82 0.0 0 1 115.67 127.58
  L 115.67 141.39
  A 1.59 1.58 -30.7 0 1 115.47 142.16
  Q 113.75 145.24 111.20 145.28
  Q 97.07 145.51 93.78 145.26
  Q 91.20 145.06 89.63 142.68
  A 1.53 1.48 -63.1 0 1 89.37 141.83
  L 89.37 127.17
  A 3.25 3.25 0.0 0 1 92.62 123.92
  L 109.67 123.92
  A 0.71 0.70 3.7 0 0 110.37 123.31
  Q 111.15 117.61 107.41 114.62
  C 104.70 112.45 101.78 113.28 99.95 116.00
  C 98.94 117.51 98.53 118.84 96.02 118.62
  Q 94.74 110.64 105.10 109.50
  Z
  M 111.66 128.91
  A 0.78 0.78 0.0 0 0 110.88 128.13
  L 94.18 128.13
  A 0.78 0.78 0.0 0 0 93.40 128.91
  L 93.40 140.25
  A 0.78 0.78 0.0 0 0 94.18 141.03
  L 110.88 141.03
  A 0.78 0.78 0.0 0 0 111.66 140.25
  L 111.66 128.91
  Z"
/>
<rect fill="#ffffff" x="93.40" y="128.13" width="18.26" height="12.90" rx="0.78"/>
</svg>
