<?xml version="1.0" encoding="UTF-8" standalone="no"?>
<!DOCTYPE svg PUBLIC "-//W3C//DTD SVG 1.1//EN" "http://www.w3.org/Graphics/SVG/1.1/DTD/svg11.dtd">
<svg xmlns="http://www.w3.org/2000/svg" version="1.1" viewBox="0.00 0.00 195.00 197.00">
<g stroke-width="2.00" fill="none" stroke-linecap="butt">
<path stroke="#d9d8da" vector-effect="non-scaling-stroke" d="
  M 102.21 150.07
  Q 141.06 150.08 141.11 150.08
  A 0.40 0.40 0.0 0 1 141.50 150.49
  L 141.43 155.12
  A 3.12 2.77 41.6 0 0 141.51 155.80
  C 143.15 163.57 150.02 162.58 156.61 162.62
  Q 161.63 162.65 163.67 161.36
  Q 167.50 158.94 167.50 154.38
  Q 167.51 115.50 167.49 110.74
  C 167.47 106.50 165.08 102.87 162.47 99.29
  A 0.53 0.53 0.0 0 1 162.92 98.45
  C 168.04 98.71 174.66 99.18 175.78 92.66
  Q 176.51 88.42 173.05 85.87
  C 170.58 84.05 164.15 84.91 160.85 84.75
  A 1.38 1.37 23.7 0 0 159.84 85.14
  L 156.39 88.59
  A 0.56 0.56 0.0 0 1 155.46 88.39
  Q 152.43 80.15 148.85 72.08
  C 146.02 65.70 141.61 60.24 134.37 58.98
  A 0.28 0.28 0.0 0 1 134.14 58.62
  Q 135.21 55.27 134.72 52.55
  Q 133.34 44.93 131.12 37.26
  Q 129.00 29.93 121.95 29.70
  Q 117.16 29.54 102.23 29.54
  Q 87.30 29.54 82.51 29.69
  Q 75.46 29.92 73.34 37.25
  Q 71.12 44.92 69.73 52.54
  Q 69.24 55.26 70.31 58.61
  A 0.28 0.28 0.0 0 1 70.08 58.97
  C 62.84 60.23 58.43 65.69 55.60 72.06
  Q 52.01 80.13 48.98 88.37
  A 0.56 0.56 0.0 0 1 48.05 88.57
  L 44.60 85.12
  A 1.38 1.37 -23.6 0 0 43.59 84.73
  C 40.29 84.89 33.86 84.03 31.39 85.85
  Q 27.93 88.40 28.66 92.64
  C 29.78 99.16 36.40 98.69 41.52 98.43
  A 0.53 0.53 0.0 0 1 41.97 99.27
  C 39.36 102.85 36.97 106.48 36.94 110.72
  Q 36.92 115.48 36.92 154.36
  Q 36.92 158.92 40.75 161.34
  Q 42.79 162.63 47.81 162.60
  C 54.40 162.56 61.27 163.56 62.91 155.79
  A 3.12 2.77 -41.6 0 0 62.99 155.11
  L 62.92 150.48
  A 0.40 0.40 0.0 0 1 63.32 150.07
  Q 63.36 150.07 102.21 150.07"
/>
<path stroke="#d9d8da" vector-effect="non-scaling-stroke" d="
  M 74.20 55.96
  Q 75.69 58.28 77.27 58.28
  Q 101.81 58.22 127.04 58.27
  A 1.88 1.81 30.2 0 0 127.90 58.06
  Q 130.57 56.68 130.25 53.97
  Q 129.75 49.73 126.88 38.82
  Q 125.70 34.36 120.40 34.36
  Q 95.33 34.35 83.51 34.43
  Q 81.16 34.44 79.96 35.25
  A 7.18 6.92 6.3 0 0 79.13 35.89
  Q 78.35 36.58 77.06 41.55
  Q 75.49 47.64 74.02 55.04
  A 1.23 1.22 -56.5 0 0 74.20 55.96"
/>
<path stroke="#d9d8da" vector-effect="non-scaling-stroke" d="
  M 102.28 91.94
  Q 148.83 91.94 151.25 91.90
  A 0.57 0.57 0.0 0 0 151.77 91.12
  Q 148.43 82.73 144.95 74.29
  C 143.29 70.24 140.28 65.90 136.18 64.18
  Q 134.67 63.55 130.22 63.57
  Q 116.20 63.66 102.28 63.66
  Q 88.37 63.66 74.35 63.57
  Q 69.90 63.55 68.39 64.18
  C 64.29 65.90 61.28 70.23 59.62 74.28
  Q 56.14 82.72 52.80 91.11
  A 0.57 0.57 0.0 0 0 53.31 91.90
  Q 55.73 91.93 102.28 91.94"
/>
<path stroke="#d9d8da" vector-effect="non-scaling-stroke" d="
  M 42.90 90.02
  A 1.14 1.12 -21.7 0 0 42.09 89.68
  L 34.93 89.68
  A 1.53 1.52 -90.0 0 0 33.41 91.21
  L 33.41 91.70
  A 2.33 2.33 0.0 0 0 35.74 94.03
  L 45.62 94.03
  A 0.53 0.53 0.0 0 0 46.00 93.12
  L 42.90 90.02"
/>
<path stroke="#d9d8da" vector-effect="non-scaling-stroke" d="
  M 161.81 89.92
  L 158.70 93.01
  A 0.54 0.53 22.7 0 0 159.08 93.92
  L 168.96 93.94
  A 2.33 2.33 0.0 0 0 171.30 91.62
  L 171.30 91.13
  A 1.53 1.52 -89.9 0 0 169.78 89.59
  L 162.62 89.58
  A 1.14 1.12 21.8 0 0 161.81 89.92"
/>
<path stroke="#d9d8da" vector-effect="non-scaling-stroke" d="
  M 162.46 108.76
  A 0.29 0.28 75.0 0 0 162.69 108.36
  Q 159.91 101.85 153.92 97.21
  A 1.92 1.87 -25.3 0 0 152.75 96.81
  L 51.29 96.81
  A 2.00 1.98 24.1 0 0 49.98 97.30
  Q 45.02 101.61 42.15 108.09
  A 0.53 0.53 0.0 0 0 42.58 108.83
  Q 49.37 109.57 54.74 110.27
  Q 59.58 110.90 63.02 112.02
  C 72.76 115.20 71.09 129.03 60.86 129.36
  Q 52.78 129.62 42.73 128.62
  A 0.97 0.97 0.0 0 0 41.66 129.58
  Q 41.67 148.02 41.74 155.28
  Q 41.76 157.59 44.41 157.64
  Q 48.95 157.72 54.75 157.67
  Q 57.07 157.65 57.64 156.63
  A 2.39 2.28 -29.6 0 0 57.92 155.70
  Q 58.02 154.48 57.89 149.05
  C 57.85 147.05 58.38 145.40 60.52 145.38
  Q 79.45 145.26 143.46 145.35
  Q 145.13 145.35 146.12 147.55
  A 2.68 2.60 -58.2 0 1 146.34 148.56
  Q 146.35 151.07 146.34 153.79
  C 146.32 156.54 146.99 157.69 149.69 157.69
  Q 158.34 157.70 160.28 157.62
  A 2.76 2.76 0.0 0 0 162.94 154.86
  L 162.94 128.78
  A 0.25 0.24 88.9 0 0 162.69 128.53
  Q 157.28 128.67 147.26 129.43
  Q 138.82 130.06 135.67 123.20
  A 3.51 3.44 -61.8 0 1 135.37 122.17
  C 134.55 116.06 138.60 111.68 144.43 110.93
  Q 155.72 109.46 162.46 108.76"
/>
<path stroke="#d9d8da" vector-effect="non-scaling-stroke" d="
  M 163.36 122.98
  L 162.64 114.30
  A 0.29 0.29 0.0 0 0 162.33 114.04
  L 148.25 115.20
  A 8.76 4.27 -4.7 0 0 139.87 120.17
  L 139.93 120.91
  A 8.76 4.27 -4.7 0 0 149.01 124.45
  L 163.09 123.29
  A 0.29 0.29 0.0 0 0 163.36 122.98"
/>
<path stroke="#d9d8da" vector-effect="non-scaling-stroke" d="
  M 41.90 114.33
  L 41.14 123.14
  A 0.21 0.21 0.0 0 0 41.34 123.37
  L 53.45 124.41
  A 10.67 3.73 4.9 0 0 64.40 121.60
  L 64.55 119.81
  A 10.67 3.73 4.9 0 0 54.24 115.18
  L 42.13 114.14
  A 0.21 0.21 0.0 0 0 41.90 114.33"
/>
<path stroke="#d9d8da" vector-effect="non-scaling-stroke" d="
  M 125.48 117.73
  A 2.51 2.51 0.0 0 0 122.97 115.22
  L 82.81 115.22
  A 2.51 2.51 0.0 0 0 80.30 117.73
  L 80.30 117.81
  A 2.51 2.51 0.0 0 0 82.81 120.32
  L 122.97 120.32
  A 2.51 2.51 0.0 0 0 125.48 117.81
  L 125.48 117.73"
/>
</g>
<path fill="#ffffff" d="
  M 195.00 0.00
  L 195.00 197.00
  L 0.00 197.00
  L 0.00 0.00
  L 195.00 0.00
  Z
  M 102.21 150.07
  Q 141.06 150.08 141.11 150.08
  A 0.40 0.40 0.0 0 1 141.50 150.49
  L 141.43 155.12
  A 3.12 2.77 41.6 0 0 141.51 155.80
  C 143.15 163.57 150.02 162.58 156.61 162.62
  Q 161.63 162.65 163.67 161.36
  Q 167.50 158.94 167.50 154.38
  Q 167.51 115.50 167.49 110.74
  C 167.47 106.50 165.08 102.87 162.47 99.29
  A 0.53 0.53 0.0 0 1 162.92 98.45
  C 168.04 98.71 174.66 99.18 175.78 92.66
  Q 176.51 88.42 173.05 85.87
  C 170.58 84.05 164.15 84.91 160.85 84.75
  A 1.38 1.37 23.7 0 0 159.84 85.14
  L 156.39 88.59
  A 0.56 0.56 0.0 0 1 155.46 88.39
  Q 152.43 80.15 148.85 72.08
  C 146.02 65.70 141.61 60.24 134.37 58.98
  A 0.28 0.28 0.0 0 1 134.14 58.62
  Q 135.21 55.27 134.72 52.55
  Q 133.34 44.93 131.12 37.26
  Q 129.00 29.93 121.95 29.70
  Q 117.16 29.54 102.23 29.54
  Q 87.30 29.54 82.51 29.69
  Q 75.46 29.92 73.34 37.25
  Q 71.12 44.92 69.73 52.54
  Q 69.24 55.26 70.31 58.61
  A 0.28 0.28 0.0 0 1 70.08 58.97
  C 62.84 60.23 58.43 65.69 55.60 72.06
  Q 52.01 80.13 48.98 88.37
  A 0.56 0.56 0.0 0 1 48.05 88.57
  L 44.60 85.12
  A 1.38 1.37 -23.6 0 0 43.59 84.73
  C 40.29 84.89 33.86 84.03 31.39 85.85
  Q 27.93 88.40 28.66 92.64
  C 29.78 99.16 36.40 98.69 41.52 98.43
  A 0.53 0.53 0.0 0 1 41.97 99.27
  C 39.36 102.85 36.97 106.48 36.94 110.72
  Q 36.92 115.48 36.92 154.36
  Q 36.92 158.92 40.75 161.34
  Q 42.79 162.63 47.81 162.60
  C 54.40 162.56 61.27 163.56 62.91 155.79
  A 3.12 2.77 -41.6 0 0 62.99 155.11
  L 62.92 150.48
  A 0.40 0.40 0.0 0 1 63.32 150.07
  Q 63.36 150.07 102.21 150.07
  Z"
/>
<path fill="#b2b0b4" d="
  M 102.23 29.54
  Q 117.16 29.54 121.95 29.70
  Q 129.00 29.93 131.12 37.26
  Q 133.34 44.93 134.72 52.55
  Q 135.21 55.27 134.14 58.62
  A 0.28 0.28 0.0 0 0 134.37 58.98
  C 141.61 60.24 146.02 65.70 148.85 72.08
  Q 152.43 80.15 155.46 88.39
  A 0.56 0.56 0.0 0 0 156.39 88.59
  L 159.84 85.14
  A 1.38 1.37 23.7 0 1 160.85 84.75
  C 164.15 84.91 170.58 84.05 173.05 85.87
  Q 176.51 88.42 175.78 92.66
  C 174.66 99.18 168.04 98.71 162.92 98.45
  A 0.53 0.53 0.0 0 0 162.47 99.29
  C 165.08 102.87 167.47 106.50 167.49 110.74
  Q 167.51 115.50 167.50 154.38
  Q 167.50 158.94 163.67 161.36
  Q 161.63 162.65 156.61 162.62
  C 150.02 162.58 143.15 163.57 141.51 155.80
  A 3.12 2.77 41.6 0 1 141.43 155.12
  L 141.50 150.49
  A 0.40 0.40 0.0 0 0 141.11 150.08
  Q 141.06 150.08 102.21 150.07
  Q 63.36 150.07 63.32 150.07
  A 0.40 0.40 0.0 0 0 62.92 150.48
  L 62.99 155.11
  A 3.12 2.77 -41.6 0 1 62.91 155.79
  C 61.27 163.56 54.40 162.56 47.81 162.60
  Q 42.79 162.63 40.75 161.34
  Q 36.92 158.92 36.92 154.36
  Q 36.92 115.48 36.94 110.72
  C 36.97 106.48 39.36 102.85 41.97 99.27
  A 0.53 0.53 0.0 0 0 41.52 98.43
  C 36.40 98.69 29.78 99.16 28.66 92.64
  Q 27.93 88.40 31.39 85.85
  C 33.86 84.03 40.29 84.89 43.59 84.73
  A 1.38 1.37 -23.6 0 1 44.60 85.12
  L 48.05 88.57
  A 0.56 0.56 0.0 0 0 48.98 88.37
  Q 52.01 80.13 55.60 72.06
  C 58.43 65.69 62.84 60.23 70.08 58.97
  A 0.28 0.28 0.0 0 0 70.31 58.61
  Q 69.24 55.26 69.73 52.54
  Q 71.12 44.92 73.34 37.25
  Q 75.46 29.92 82.51 29.69
  Q 87.30 29.54 102.23 29.54
  Z
  M 74.20 55.96
  Q 75.69 58.28 77.27 58.28
  Q 101.81 58.22 127.04 58.27
  A 1.88 1.81 30.2 0 0 127.90 58.06
  Q 130.57 56.68 130.25 53.97
  Q 129.75 49.73 126.88 38.82
  Q 125.70 34.36 120.40 34.36
  Q 95.33 34.35 83.51 34.43
  Q 81.16 34.44 79.96 35.25
  A 7.18 6.92 6.3 0 0 79.13 35.89
  Q 78.35 36.58 77.06 41.55
  Q 75.49 47.64 74.02 55.04
  A 1.23 1.22 -56.5 0 0 74.20 55.96
  Z
  M 102.28 91.94
  Q 148.83 91.94 151.25 91.90
  A 0.57 0.57 0.0 0 0 151.77 91.12
  Q 148.43 82.73 144.95 74.29
  C 143.29 70.24 140.28 65.90 136.18 64.18
  Q 134.67 63.55 130.22 63.57
  Q 116.20 63.66 102.28 63.66
  Q 88.37 63.66 74.35 63.57
  Q 69.90 63.55 68.39 64.18
  C 64.29 65.90 61.28 70.23 59.62 74.28
  Q 56.14 82.72 52.80 91.11
  A 0.57 0.57 0.0 0 0 53.31 91.90
  Q 55.73 91.93 102.28 91.94
  Z
  M 42.90 90.02
  A 1.14 1.12 -21.7 0 0 42.09 89.68
  L 34.93 89.68
  A 1.53 1.52 -90.0 0 0 33.41 91.21
  L 33.41 91.70
  A 2.33 2.33 0.0 0 0 35.74 94.03
  L 45.62 94.03
  A 0.53 0.53 0.0 0 0 46.00 93.12
  L 42.90 90.02
  Z
  M 161.81 89.92
  L 158.70 93.01
  A 0.54 0.53 22.7 0 0 159.08 93.92
  L 168.96 93.94
  A 2.33 2.33 0.0 0 0 171.30 91.62
  L 171.30 91.13
  A 1.53 1.52 -89.9 0 0 169.78 89.59
  L 162.62 89.58
  A 1.14 1.12 21.8 0 0 161.81 89.92
  Z
  M 162.46 108.76
  A 0.29 0.28 75.0 0 0 162.69 108.36
  Q 159.91 101.85 153.92 97.21
  A 1.92 1.87 -25.3 0 0 152.75 96.81
  L 51.29 96.81
  A 2.00 1.98 24.1 0 0 49.98 97.30
  Q 45.02 101.61 42.15 108.09
  A 0.53 0.53 0.0 0 0 42.58 108.83
  Q 49.37 109.57 54.74 110.27
  Q 59.58 110.90 63.02 112.02
  C 72.76 115.20 71.09 129.03 60.86 129.36
  Q 52.78 129.62 42.73 128.62
  A 0.97 0.97 0.0 0 0 41.66 129.58
  Q 41.67 148.02 41.74 155.28
  Q 41.76 157.59 44.41 157.64
  Q 48.95 157.72 54.75 157.67
  Q 57.07 157.65 57.64 156.63
  A 2.39 2.28 -29.6 0 0 57.92 155.70
  Q 58.02 154.48 57.89 149.05
  C 57.85 147.05 58.38 145.40 60.52 145.38
  Q 79.45 145.26 143.46 145.35
  Q 145.13 145.35 146.12 147.55
  A 2.68 2.60 -58.2 0 1 146.34 148.56
  Q 146.35 151.07 146.34 153.79
  C 146.32 156.54 146.99 157.69 149.69 157.69
  Q 158.34 157.70 160.28 157.62
  A 2.76 2.76 0.0 0 0 162.94 154.86
  L 162.94 128.78
  A 0.25 0.24 88.9 0 0 162.69 128.53
  Q 157.28 128.67 147.26 129.43
  Q 138.82 130.06 135.67 123.20
  A 3.51 3.44 -61.8 0 1 135.37 122.17
  C 134.55 116.06 138.60 111.68 144.43 110.93
  Q 155.72 109.46 162.46 108.76
  Z
  M 163.36 122.98
  L 162.64 114.30
  A 0.29 0.29 0.0 0 0 162.33 114.04
  L 148.25 115.20
  A 8.76 4.27 -4.7 0 0 139.87 120.17
  L 139.93 120.91
  A 8.76 4.27 -4.7 0 0 149.01 124.45
  L 163.09 123.29
  A 0.29 0.29 0.0 0 0 163.36 122.98
  Z
  M 41.90 114.33
  L 41.14 123.14
  A 0.21 0.21 0.0 0 0 41.34 123.37
  L 53.45 124.41
  A 10.67 3.73 4.9 0 0 64.40 121.60
  L 64.55 119.81
  A 10.67 3.73 4.9 0 0 54.24 115.18
  L 42.13 114.14
  A 0.21 0.21 0.0 0 0 41.90 114.33
  Z"
/>
<path fill="#ffffff" d="
  M 74.02 55.04
  Q 75.49 47.64 77.06 41.55
  Q 78.35 36.58 79.13 35.89
  A 7.18 6.92 6.3 0 1 79.96 35.25
  Q 81.16 34.44 83.51 34.43
  Q 95.33 34.35 120.40 34.36
  Q 125.70 34.36 126.88 38.82
  Q 129.75 49.73 130.25 53.97
  Q 130.57 56.68 127.90 58.06
  A 1.88 1.81 30.2 0 1 127.04 58.27
  Q 101.81 58.22 77.27 58.28
  Q 75.69 58.28 74.20 55.96
  A 1.23 1.22 -56.5 0 1 74.02 55.04
  Z"
/>
<path fill="#ffffff" d="
  M 102.28 63.66
  Q 116.20 63.66 130.22 63.57
  Q 134.67 63.55 136.18 64.18
  C 140.28 65.90 143.29 70.24 144.95 74.29
  Q 148.43 82.73 151.77 91.12
  A 0.57 0.57 0.0 0 1 151.25 91.90
  Q 148.83 91.94 102.28 91.94
  Q 55.73 91.93 53.31 91.90
  A 0.57 0.57 0.0 0 1 52.80 91.11
  Q 56.14 82.72 59.62 74.28
  C 61.28 70.23 64.29 65.90 68.39 64.18
  Q 69.90 63.55 74.35 63.57
  Q 88.37 63.66 102.28 63.66
  Z"
/>
<path fill="#ffffff" d="
  M 45.62 94.03
  L 35.74 94.03
  A 2.33 2.33 0.0 0 1 33.41 91.70
  L 33.41 91.21
  A 1.53 1.52 90.0 0 1 34.93 89.68
  L 42.09 89.68
  A 1.14 1.12 -21.7 0 1 42.90 90.02
  L 46.00 93.12
  A 0.53 0.53 0.0 0 1 45.62 94.03
  Z"
/>
<path fill="#ffffff" d="
  M 161.81 89.92
  A 1.14 1.12 21.8 0 1 162.62 89.58
  L 169.78 89.59
  A 1.53 1.52 -89.9 0 1 171.30 91.13
  L 171.30 91.62
  A 2.33 2.33 0.0 0 1 168.96 93.94
  L 159.08 93.92
  A 0.54 0.53 22.7 0 1 158.70 93.01
  L 161.81 89.92
  Z"
/>
<path fill="#ffffff" d="
  M 162.46 108.76
  Q 155.72 109.46 144.43 110.93
  C 138.60 111.68 134.55 116.06 135.37 122.17
  A 3.51 3.44 -61.8 0 0 135.67 123.20
  Q 138.82 130.06 147.26 129.43
  Q 157.28 128.67 162.69 128.53
  A 0.25 0.24 88.9 0 1 162.94 128.78
  L 162.94 154.86
  A 2.76 2.76 0.0 0 1 160.28 157.62
  Q 158.34 157.70 149.69 157.69
  C 146.99 157.69 146.32 156.54 146.34 153.79
  Q 146.35 151.07 146.34 148.56
  A 2.68 2.60 -58.2 0 0 146.12 147.55
  Q 145.13 145.35 143.46 145.35
  Q 79.45 145.26 60.52 145.38
  C 58.38 145.40 57.85 147.05 57.89 149.05
  Q 58.02 154.48 57.92 155.70
  A 2.39 2.28 -29.6 0 1 57.64 156.63
  Q 57.07 157.65 54.75 157.67
  Q 48.95 157.72 44.41 157.64
  Q 41.76 157.59 41.74 155.28
  Q 41.67 148.02 41.66 129.58
  A 0.97 0.97 0.0 0 1 42.73 128.62
  Q 52.78 129.62 60.86 129.36
  C 71.09 129.03 72.76 115.20 63.02 112.02
  Q 59.58 110.90 54.74 110.27
  Q 49.37 109.57 42.58 108.83
  A 0.53 0.53 0.0 0 1 42.15 108.09
  Q 45.02 101.61 49.98 97.30
  A 2.00 1.98 24.1 0 1 51.29 96.81
  L 152.75 96.81
  A 1.92 1.87 -25.3 0 1 153.92 97.21
  Q 159.91 101.85 162.69 108.36
  A 0.29 0.28 75.0 0 1 162.46 108.76
  Z
  M 125.48 117.73
  A 2.51 2.51 0.0 0 0 122.97 115.22
  L 82.81 115.22
  A 2.51 2.51 0.0 0 0 80.30 117.73
  L 80.30 117.81
  A 2.51 2.51 0.0 0 0 82.81 120.32
  L 122.97 120.32
  A 2.51 2.51 0.0 0 0 125.48 117.81
  L 125.48 117.73
  Z"
/>
<path fill="#ffffff" d="
  M 163.36 122.98
  A 0.29 0.29 0.0 0 1 163.09 123.29
  L 149.01 124.45
  A 8.76 4.27 -4.7 0 1 139.93 120.91
  L 139.87 120.17
  A 8.76 4.27 -4.7 0 1 148.25 115.20
  L 162.33 114.04
  A 0.29 0.29 0.0 0 1 162.64 114.30
  L 163.36 122.98
  Z"
/>
<path fill="#ffffff" d="
  M 41.90 114.33
  A 0.21 0.21 0.0 0 1 42.13 114.14
  L 54.24 115.18
  A 10.67 3.73 4.9 0 1 64.55 119.81
  L 64.40 121.60
  A 10.67 3.73 4.9 0 1 53.45 124.41
  L 41.34 123.37
  A 0.21 0.21 0.0 0 1 41.14 123.14
  L 41.90 114.33
  Z"
/>
<rect fill="#b2b0b4" x="80.30" y="115.22" width="45.18" height="5.10" rx="2.51"/>
</svg>
