<?xml version="1.0" encoding="UTF-8" standalone="no"?>
<!DOCTYPE svg PUBLIC "-//W3C//DTD SVG 1.1//EN" "http://www.w3.org/Graphics/SVG/1.1/DTD/svg11.dtd">
<svg xmlns="http://www.w3.org/2000/svg" version="1.1" viewBox="0.00 0.00 127.00 136.00">
<path fill="#000000" d="
  M 34.94 49.73
  C 38.49 52.15 40.87 54.00 42.65 58.36
  Q 48.20 71.91 51.46 85.69
  A 0.76 0.75 -9.4 0 0 52.28 86.27
  L 66.76 84.75
  A 0.58 0.21 -25.1 0 1 66.87 84.74
  Q 82.23 84.74 92.24 84.50
  C 97.26 84.38 102.16 87.50 103.46 92.48
  Q 104.19 95.28 102.43 100.41
  C 100.11 107.17 98.80 112.29 92.74 114.71
  Q 90.56 115.58 84.60 115.57
  Q 50.44 115.51 42.74 115.54
  Q 38.81 115.55 35.50 113.52
  C 30.39 110.38 28.75 105.53 27.49 98.99
  Q 22.38 72.41 15.29 35.50
  Q 14.41 30.90 15.09 29.01
  C 16.84 24.17 22.21 22.00 27.11 22.67
  Q 33.60 23.56 36.01 29.95
  Q 37.74 34.52 37.50 44.02
  Q 37.48 44.86 34.77 48.82
  A 0.65 0.65 0.0 0 0 34.94 49.73
  Z
  M 22.36 48.38
  L 28.94 48.38
  A 0.79 0.73 26.1 0 0 29.37 48.25
  C 35.73 43.89 33.26 37.56 32.24 31.38
  A 2.68 2.55 27.6 0 0 31.96 30.56
  Q 29.42 25.89 23.75 26.89
  C 20.74 27.41 18.19 29.36 18.92 32.74
  Q 21.07 42.71 21.82 47.91
  A 0.55 0.54 -3.6 0 0 22.36 48.38
  Z
  M 22.88 53.26
  Q 25.36 66.31 32.19 101.56
  Q 34.13 111.54 44.51 111.54
  Q 70.56 111.57 86.76 111.57
  C 92.81 111.57 95.22 108.63 97.20 102.97
  C 99.44 96.58 102.03 92.42 95.12 89.01
  A 2.11 2.07 -30.8 0 0 94.25 88.80
  Q 79.82 88.43 68.03 89.02
  Q 58.75 89.48 52.24 90.46
  Q 52.20 90.46 50.67 90.83
  Q 48.70 91.31 48.18 89.16
  Q 44.65 74.52 39.24 60.74
  Q 36.92 54.84 31.73 52.86
  A 1.38 1.14 -28.6 0 0 31.37 52.79
  L 23.43 52.61
  A 0.55 0.54 85.3 0 0 22.88 53.26
  Z"
/>
<path fill="#000000" d="
  M 104.05 43.13
  A 2.09 2.08 -30.4 0 1 106.81 43.84
  L 106.86 43.93
  A 2.09 2.09 0.0 0 1 106.39 46.67
  Q 97.75 53.52 87.54 49.91
  Q 87.27 49.82 80.00 46.82
  Q 72.04 43.53 64.99 48.09
  C 63.79 48.87 62.94 48.92 61.95 47.90
  A 1.94 1.79 45.4 0 1 61.86 45.30
  C 66.42 40.65 75.21 40.29 80.61 42.45
  C 87.94 45.38 91.92 47.96 98.33 46.17
  C 100.54 45.55 102.41 44.03 104.05 43.13
  Z"
/>
<path fill="#000000" d="
  M 103.99 56.58
  A 2.08 2.07 -30.1 0 1 106.74 57.30
  L 106.79 57.39
  A 2.08 2.08 0.0 0 1 106.31 60.12
  Q 97.64 66.90 87.48 63.24
  Q 87.21 63.15 79.97 60.11
  Q 72.05 56.77 64.99 61.28
  C 63.79 62.05 62.94 62.09 61.96 61.07
  A 1.94 1.78 45.7 0 1 61.88 58.47
  C 66.46 53.86 75.24 53.56 80.61 55.75
  C 87.91 58.72 91.86 61.32 98.27 59.57
  C 100.48 58.97 102.35 57.46 103.99 56.58
  Z"
/>
<path fill="#000000" d="
  M 103.96 69.52
  A 2.08 2.07 -29.9 0 1 106.71 70.25
  L 106.75 70.34
  A 2.08 2.08 0.0 0 1 106.26 73.07
  Q 97.59 79.82 87.44 76.13
  Q 87.18 76.03 79.96 72.98
  Q 72.05 69.63 64.99 74.11
  C 63.78 74.87 62.93 74.91 61.96 73.89
  A 1.93 1.78 45.9 0 1 61.89 71.30
  C 66.48 66.70 75.24 66.43 80.61 68.63
  C 87.88 71.62 91.83 74.22 98.23 72.50
  C 100.44 71.90 102.32 70.40 103.96 69.52
  Z"
/>
</svg>
