<?xml version="1.0" encoding="utf-8"?>
<svg version="1.1" viewBox="0.00 0.00 195.00 212.00" xmlns="http://www.w3.org/2000/svg"><g id="offState" style="display:inline"><g fill="none" stroke-linecap="butt" stroke-width="2.00">
<path class="icon-shape" d="   M 101.83 179.52   Q 119.63 179.56 128.00 178.44   C 145.34 176.12 153.71 164.36 155.74 148.01   C 159.53 117.45 158.90 85.66 155.56 55.25   Q 154.53 45.93 150.60 38.88   C 144.91 28.67 135.37 24.77 123.75 24.01   Q 113.24 23.31 102.13 23.29   Q 91.02 23.27 80.51 23.92   C 68.88 24.64 59.33 28.51 53.60 38.69   Q 49.64 45.73 48.57 55.04   C 45.12 85.44 44.36 117.23 48.04 147.80   C 50.00 164.16 58.33 175.95 75.66 178.34   Q 84.03 179.49 101.83 179.52" stroke="#d9d8da" vector-effect="non-scaling-stroke"/>
<path class="icon-shape" d="   M 102.08 173.64   Q 116.04 173.63 119.88 173.39   Q 126.55 172.97 130.98 171.99   C 145.56 168.76 150.14 157.77 151.44 143.94   Q 155.22 103.81 151.16 61.93   Q 149.83 48.16 147.06 42.96   Q 140.85 31.31 125.47 29.89   Q 116.72 29.09 101.98 29.10   Q 87.24 29.11 78.49 29.92   Q 63.11 31.36 56.92 43.02   Q 54.16 48.23 52.85 62.00   Q 48.84 103.88 52.68 144.01   C 54.00 157.84 58.60 168.82 73.18 172.03   Q 77.61 173.00 84.29 173.41   Q 88.12 173.65 102.08 173.64" stroke="#d9d8da" vector-effect="non-scaling-stroke"/>
<path class="icon-shape" d="   M 101.85 162.43   Q 114.09 162.42 118.25 162.32   C 127.40 162.09 135.55 156.94 139.77 148.92   Q 141.58 145.49 142.36 137.78   Q 143.68 124.73 143.81 104.50   Q 143.96 80.68 141.66 61.98   C 140.39 51.57 132.54 41.46 121.73 40.42   Q 115.03 39.78 101.70 39.80   Q 88.37 39.82 81.68 40.47   C 70.87 41.53 63.04 51.66 61.80 62.08   Q 59.54 80.78 59.75 104.60   Q 59.93 124.83 61.28 137.88   Q 62.08 145.59 63.90 149.01   C 68.13 157.02 76.30 162.15 85.45 162.36   Q 89.61 162.45 101.85 162.43" stroke="#d9d8da" vector-effect="non-scaling-stroke"/>
<path class="icon-shape" d="   M 138.82 95.05   Q 138.45 80.28 137.24 65.51   Q 136.46 55.84 129.42 49.91   Q 125.41 46.52 121.51 46.29   Q 106.31 45.36 89.03 45.91   Q 80.60 46.18 77.24 47.87   Q 70.37 51.33 67.17 59.51   A 5.64 5.51 -33.5 0 0 66.81 61.18   L 64.98 95.01   A 0.61 0.61 0.0 0 0 65.59 95.66   L 138.23 95.66   A 0.59 0.59 0.0 0 0 138.82 95.05" stroke="#d9d8da" vector-effect="non-scaling-stroke"/>
<path class="icon-shape" d="   M 102.05 156.53   Q 108.47 156.53 114.87 156.47   Q 122.66 156.41 125.67 155.06   Q 131.96 152.24 135.74 145.96   A 4.50 4.42 68.9 0 0 136.15 145.01   Q 137.18 141.41 137.57 136.77   Q 138.95 120.13 138.82 101.63   A 0.50 0.49 89.2 0 0 138.33 101.14   Q 102.49 101.17 102.05 101.17   Q 101.61 101.17 65.77 101.14   A 0.50 0.49 -89.2 0 0 65.27 101.63   Q 65.14 120.13 66.53 136.77   Q 66.92 141.41 67.95 145.01   A 4.50 4.42 -68.9 0 0 68.36 145.96   Q 72.14 152.24 78.43 155.06   Q 81.44 156.41 89.23 156.47   Q 95.63 156.53 102.05 156.53" stroke="#d9d8da" vector-effect="non-scaling-stroke"/>
<path class="icon-shape" d="   M 102.05 85.78   C 107.89 85.86 113.54 86.49 113.83 78.77   C 113.99 74.64 115.14 68.92 111.55 67.51   Q 110.41 67.07 110.36 67.04   A 0.94 0.93 13.7 0 1 109.87 66.24   C 109.75 61.37 108.28 56.63 102.45 56.55   C 96.62 56.47 95.02 61.16 94.77 66.03   A 0.94 0.93 -12.2 0 1 94.26 66.82   Q 94.21 66.85 93.06 67.26   C 89.43 68.57 90.42 74.32 90.47 78.45   C 90.55 86.18 96.21 85.70 102.05 85.78" stroke="#d9d8da" vector-effect="non-scaling-stroke"/>
<path class="icon-shape" d="   M 98.80 66.31   L 105.98 66.29   A 0.22 0.22 0.0 0 0 106.20 66.07   L 106.20 65.20   A 4.95 3.54 89.8 0 0 102.64 60.26   L 102.10 60.26   A 4.95 3.54 89.8 0 0 98.58 65.22   L 98.58 66.09   A 0.22 0.22 0.0 0 0 98.80 66.31" stroke="#d9d8da" vector-effect="non-scaling-stroke"/>
<path class="icon-shape" d="   M 109.09 70.64   L 95.29 70.56   A 0.87 0.87 0.0 0 0 94.41 71.43   L 94.38 78.65   A 2.97 2.12 -89.7 0 0 96.48 81.63   L 107.78 81.69   A 2.97 2.12 -89.7 0 0 109.92 78.73   L 109.95 71.51   A 0.87 0.87 0.0 0 0 109.09 70.64" stroke="#d9d8da" vector-effect="non-scaling-stroke"/>
<path class="icon-shape" d="   M 109.83 123.87   C 103.93 123.92 98.12 123.54 92.76 124.27   C 90.82 124.53 89.45 125.58 89.47 127.51   Q 89.54 136.09 89.45 141.60   A 1.87 1.87 0.0 0 0 89.70 142.57   Q 91.16 145.04 93.83 145.18   Q 97.70 145.38 110.48 145.23   Q 113.99 145.20 115.45 141.92   A 1.22 1.18 -33.6 0 0 115.56 141.42   L 115.56 128.09   A 2.17 2.10 33.2 0 0 115.35 127.17   L 114.17 124.73   A 1.16 1.15 34.9 0 1 114.06 124.12   C 114.70 117.82 112.92 112.47 106.82 110.05   A 4.25 4.06 57.6 0 0 105.73 109.78   Q 98.51 108.98 95.61 116.07   A 1.72 1.72 0.0 0 0 96.55 118.31   L 96.62 118.34   A 1.80 1.80 0.0 0 0 98.91 117.49   Q 101.51 112.40 105.67 113.60   C 109.72 114.77 111.03 119.47 110.57 123.21   A 0.75 0.74 -86.5 0 1 109.83 123.87" stroke="#d9d8da" vector-effect="non-scaling-stroke"/>
<path class="icon-shape" d="   M 111.72 128.81   A 0.71 0.71 0.0 0 0 111.01 128.10   L 94.03 128.10   A 0.71 0.71 0.0 0 0 93.32 128.81   L 93.32 140.35   A 0.71 0.71 0.0 0 0 94.03 141.06   L 111.01 141.06   A 0.71 0.71 0.0 0 0 111.72 140.35   L 111.72 128.81" stroke="#d9d8da" vector-effect="non-scaling-stroke"/>
</g>
<path class="icon-shape" d="   M 195.00 0.00   L 195.00 212.00   L 0.00 212.00   L 0.00 0.00   L 195.00 0.00   Z   M 101.83 179.52   Q 119.63 179.56 128.00 178.44   C 145.34 176.12 153.71 164.36 155.74 148.01   C 159.53 117.45 158.90 85.66 155.56 55.25   Q 154.53 45.93 150.60 38.88   C 144.91 28.67 135.37 24.77 123.75 24.01   Q 113.24 23.31 102.13 23.29   Q 91.02 23.27 80.51 23.92   C 68.88 24.64 59.33 28.51 53.60 38.69   Q 49.64 45.73 48.57 55.04   C 45.12 85.44 44.36 117.23 48.04 147.80   C 50.00 164.16 58.33 175.95 75.66 178.34   Q 84.03 179.49 101.83 179.52   Z" fill="#ffffff"/>
<path class="icon-shape" d="   M 102.13 23.29   Q 113.24 23.31 123.75 24.01   C 135.37 24.77 144.91 28.67 150.60 38.88   Q 154.53 45.93 155.56 55.25   C 158.90 85.66 159.53 117.45 155.74 148.01   C 153.71 164.36 145.34 176.12 128.00 178.44   Q 119.63 179.56 101.83 179.52   Q 84.03 179.49 75.66 178.34   C 58.33 175.95 50.00 164.16 48.04 147.80   C 44.36 117.23 45.12 85.44 48.57 55.04   Q 49.64 45.73 53.60 38.69   C 59.33 28.51 68.88 24.64 80.51 23.92   Q 91.02 23.27 102.13 23.29   Z   M 102.08 173.64   Q 116.04 173.63 119.88 173.39   Q 126.55 172.97 130.98 171.99   C 145.56 168.76 150.14 157.77 151.44 143.94   Q 155.22 103.81 151.16 61.93   Q 149.83 48.16 147.06 42.96   Q 140.85 31.31 125.47 29.89   Q 116.72 29.09 101.98 29.10   Q 87.24 29.11 78.49 29.92   Q 63.11 31.36 56.92 43.02   Q 54.16 48.23 52.85 62.00   Q 48.84 103.88 52.68 144.01   C 54.00 157.84 58.60 168.82 73.18 172.03   Q 77.61 173.00 84.29 173.41   Q 88.12 173.65 102.08 173.64   Z" fill="#b2b0b4"/>
<path class="icon-shape" d="   M 101.98 29.10   Q 116.72 29.09 125.47 29.89   Q 140.85 31.31 147.06 42.96   Q 149.83 48.16 151.16 61.93   Q 155.22 103.81 151.44 143.94   C 150.14 157.77 145.56 168.76 130.98 171.99   Q 126.55 172.97 119.88 173.39   Q 116.04 173.63 102.08 173.64   Q 88.12 173.65 84.29 173.41   Q 77.61 173.00 73.18 172.03   C 58.60 168.82 54.00 157.84 52.68 144.01   Q 48.84 103.88 52.85 62.00   Q 54.16 48.23 56.92 43.02   Q 63.11 31.36 78.49 29.92   Q 87.24 29.11 101.98 29.10   Z   M 101.85 162.43   Q 114.09 162.42 118.25 162.32   C 127.40 162.09 135.55 156.94 139.77 148.92   Q 141.58 145.49 142.36 137.78   Q 143.68 124.73 143.81 104.50   Q 143.96 80.68 141.66 61.98   C 140.39 51.57 132.54 41.46 121.73 40.42   Q 115.03 39.78 101.70 39.80   Q 88.37 39.82 81.68 40.47   C 70.87 41.53 63.04 51.66 61.80 62.08   Q 59.54 80.78 59.75 104.60   Q 59.93 124.83 61.28 137.88   Q 62.08 145.59 63.90 149.01   C 68.13 157.02 76.30 162.15 85.45 162.36   Q 89.61 162.45 101.85 162.43   Z" fill="#ffffff"/>
<path class="icon-shape" d="   M 101.70 39.80   Q 115.03 39.78 121.73 40.42   C 132.54 41.46 140.39 51.57 141.66 61.98   Q 143.96 80.68 143.81 104.50   Q 143.68 124.73 142.36 137.78   Q 141.58 145.49 139.77 148.92   C 135.55 156.94 127.40 162.09 118.25 162.32   Q 114.09 162.42 101.85 162.43   Q 89.61 162.45 85.45 162.36   C 76.30 162.15 68.13 157.02 63.90 149.01   Q 62.08 145.59 61.28 137.88   Q 59.93 124.83 59.75 104.60   Q 59.54 80.78 61.80 62.08   C 63.04 51.66 70.87 41.53 81.68 40.47   Q 88.37 39.82 101.70 39.80   Z   M 138.82 95.05   Q 138.45 80.28 137.24 65.51   Q 136.46 55.84 129.42 49.91   Q 125.41 46.52 121.51 46.29   Q 106.31 45.36 89.03 45.91   Q 80.60 46.18 77.24 47.87   Q 70.37 51.33 67.17 59.51   A 5.64 5.51 -33.5 0 0 66.81 61.18   L 64.98 95.01   A 0.61 0.61 0.0 0 0 65.59 95.66   L 138.23 95.66   A 0.59 0.59 0.0 0 0 138.82 95.05   Z   M 102.05 156.53   Q 108.47 156.53 114.87 156.47   Q 122.66 156.41 125.67 155.06   Q 131.96 152.24 135.74 145.96   A 4.50 4.42 68.9 0 0 136.15 145.01   Q 137.18 141.41 137.57 136.77   Q 138.95 120.13 138.82 101.63   A 0.50 0.49 89.2 0 0 138.33 101.14   Q 102.49 101.17 102.05 101.17   Q 101.61 101.17 65.77 101.14   A 0.50 0.49 -89.2 0 0 65.27 101.63   Q 65.14 120.13 66.53 136.77   Q 66.92 141.41 67.95 145.01   A 4.50 4.42 -68.9 0 0 68.36 145.96   Q 72.14 152.24 78.43 155.06   Q 81.44 156.41 89.23 156.47   Q 95.63 156.53 102.05 156.53   Z" fill="#b2b0b4"/>
<path class="icon-shape" d="   M 138.82 95.05   A 0.59 0.59 0.0 0 1 138.23 95.66   L 65.59 95.66   A 0.61 0.61 0.0 0 1 64.98 95.01   L 66.81 61.18   A 5.64 5.51 -33.5 0 1 67.17 59.51   Q 70.37 51.33 77.24 47.87   Q 80.60 46.18 89.03 45.91   Q 106.31 45.36 121.51 46.29   Q 125.41 46.52 129.42 49.91   Q 136.46 55.84 137.24 65.51   Q 138.45 80.28 138.82 95.05   Z   M 102.05 85.78   C 107.89 85.86 113.54 86.49 113.83 78.77   C 113.99 74.64 115.14 68.92 111.55 67.51   Q 110.41 67.07 110.36 67.04   A 0.94 0.93 13.7 0 1 109.87 66.24   C 109.75 61.37 108.28 56.63 102.45 56.55   C 96.62 56.47 95.02 61.16 94.77 66.03   A 0.94 0.93 -12.2 0 1 94.26 66.82   Q 94.21 66.85 93.06 67.26   C 89.43 68.57 90.42 74.32 90.47 78.45   C 90.55 86.18 96.21 85.70 102.05 85.78   Z" fill="#ffffff"/>
<path class="icon-shape" d="   M 102.45 56.55   C 108.28 56.63 109.75 61.37 109.87 66.24   A 0.94 0.93 13.7 0 0 110.36 67.04   Q 110.41 67.07 111.55 67.51   C 115.14 68.92 113.99 74.64 113.83 78.77   C 113.54 86.49 107.89 85.86 102.05 85.78   C 96.21 85.70 90.55 86.18 90.47 78.45   C 90.42 74.32 89.43 68.57 93.06 67.26   Q 94.21 66.85 94.26 66.82   A 0.94 0.93 -12.2 0 0 94.77 66.03   C 95.02 61.16 96.62 56.47 102.45 56.55   Z   M 98.80 66.31   L 105.98 66.29   A 0.22 0.22 0.0 0 0 106.20 66.07   L 106.20 65.20   A 4.95 3.54 89.8 0 0 102.64 60.26   L 102.10 60.26   A 4.95 3.54 89.8 0 0 98.58 65.22   L 98.58 66.09   A 0.22 0.22 0.0 0 0 98.80 66.31   Z   M 109.09 70.64   L 95.29 70.56   A 0.87 0.87 0.0 0 0 94.41 71.43   L 94.38 78.65   A 2.97 2.12 -89.7 0 0 96.48 81.63   L 107.78 81.69   A 2.97 2.12 -89.7 0 0 109.92 78.73   L 109.95 71.51   A 0.87 0.87 0.0 0 0 109.09 70.64   Z" fill="#b2b0b4"/>
<path class="icon-shape" d="   M 98.80 66.31   A 0.22 0.22 0.0 0 1 98.58 66.09   L 98.58 65.22   A 4.95 3.54 89.8 0 1 102.10 60.26   L 102.64 60.26   A 4.95 3.54 89.8 0 1 106.20 65.20   L 106.20 66.07   A 0.22 0.22 0.0 0 1 105.98 66.29   L 98.80 66.31   Z" fill="#ffffff"/>
<path class="icon-shape" d="   M 109.09 70.64   A 0.87 0.87 0.0 0 1 109.95 71.51   L 109.92 78.73   A 2.97 2.12 -89.7 0 1 107.78 81.69   L 96.48 81.63   A 2.97 2.12 -89.7 0 1 94.38 78.65   L 94.41 71.43   A 0.87 0.87 0.0 0 1 95.29 70.56   L 109.09 70.64   Z" fill="#ffffff"/>
<path class="icon-shape" d="   M 102.05 101.17   Q 102.49 101.17 138.33 101.14   A 0.50 0.49 89.2 0 1 138.82 101.63   Q 138.95 120.13 137.57 136.77   Q 137.18 141.41 136.15 145.01   A 4.50 4.42 68.9 0 1 135.74 145.96   Q 131.96 152.24 125.67 155.06   Q 122.66 156.41 114.87 156.47   Q 108.47 156.53 102.05 156.53   Q 95.63 156.53 89.23 156.47   Q 81.44 156.41 78.43 155.06   Q 72.14 152.24 68.36 145.96   A 4.50 4.42 -68.9 0 1 67.95 145.01   Q 66.92 141.41 66.53 136.77   Q 65.14 120.13 65.27 101.63   A 0.50 0.49 -89.2 0 1 65.77 101.14   Q 101.61 101.17 102.05 101.17   Z   M 109.83 123.87   C 103.93 123.92 98.12 123.54 92.76 124.27   C 90.82 124.53 89.45 125.58 89.47 127.51   Q 89.54 136.09 89.45 141.60   A 1.87 1.87 0.0 0 0 89.70 142.57   Q 91.16 145.04 93.83 145.18   Q 97.70 145.38 110.48 145.23   Q 113.99 145.20 115.45 141.92   A 1.22 1.18 -33.6 0 0 115.56 141.42   L 115.56 128.09   A 2.17 2.10 33.2 0 0 115.35 127.17   L 114.17 124.73   A 1.16 1.15 34.9 0 1 114.06 124.12   C 114.70 117.82 112.92 112.47 106.82 110.05   A 4.25 4.06 57.6 0 0 105.73 109.78   Q 98.51 108.98 95.61 116.07   A 1.72 1.72 0.0 0 0 96.55 118.31   L 96.62 118.34   A 1.80 1.80 0.0 0 0 98.91 117.49   Q 101.51 112.40 105.67 113.60   C 109.72 114.77 111.03 119.47 110.57 123.21   A 0.75 0.74 -86.5 0 1 109.83 123.87   Z" fill="#ffffff"/>
<path class="icon-shape" d="   M 109.83 123.87   A 0.75 0.74 -86.5 0 0 110.57 123.21   C 111.03 119.47 109.72 114.77 105.67 113.60   Q 101.51 112.40 98.91 117.49   A 1.80 1.80 0.0 0 1 96.62 118.34   L 96.55 118.31   A 1.72 1.72 0.0 0 1 95.61 116.07   Q 98.51 108.98 105.73 109.78   A 4.25 4.06 57.6 0 1 106.82 110.05   C 112.92 112.47 114.70 117.82 114.06 124.12   A 1.16 1.15 34.9 0 0 114.17 124.73   L 115.35 127.17   A 2.17 2.10 33.2 0 1 115.56 128.09   L 115.56 141.42   A 1.22 1.18 -33.6 0 1 115.45 141.92   Q 113.99 145.20 110.48 145.23   Q 97.70 145.38 93.83 145.18   Q 91.16 145.04 89.70 142.57   A 1.87 1.87 0.0 0 1 89.45 141.60   Q 89.54 136.09 89.47 127.51   C 89.45 125.58 90.82 124.53 92.76 124.27   C 98.12 123.54 103.93 123.92 109.83 123.87   Z   M 111.72 128.81   A 0.71 0.71 0.0 0 0 111.01 128.10   L 94.03 128.10   A 0.71 0.71 0.0 0 0 93.32 128.81   L 93.32 140.35   A 0.71 0.71 0.0 0 0 94.03 141.06   L 111.01 141.06   A 0.71 0.71 0.0 0 0 111.72 140.35   L 111.72 128.81   Z" fill="#b2b0b4"/>
<rect fill="#ffffff" height="12.96" rx="0.71" width="18.40" x="93.32" y="128.10"/>
</g><g id="onState" style="display:none"><g fill="none" stroke-linecap="butt" stroke-width="2.00">
<path class="icon-shape" d="   M 0.00 83.79   C 2.79 109.99 20.78 130.26 46.64 135.20" stroke="#fef6f6" vector-effect="non-scaling-stroke"/>
<path class="icon-shape" d="   M 46.64 135.20   Q 47.38 144.05 48.07 148.49   Q 49.28 156.32 50.64 159.45   Q 58.01 176.35 75.85 178.39   Q 90.98 180.12 118.34 179.26   Q 131.33 178.85 137.41 176.06   C 149.75 170.41 154.16 160.26 155.85 147.51   Q 157.25 137.02 157.77 125.75   Q 159.49 88.56 155.45 53.94   C 153.51 37.32 143.84 25.97 126.96 24.31   Q 103.72 22.03 77.49 24.18   Q 74.14 24.45 71.05 25.26" stroke="#808080" vector-effect="non-scaling-stroke"/>
<path class="icon-shape" d="   M 71.05 25.26   Q 66.46 23.53 60.76 23.22   C 28.87 21.47 3.38 43.45 0.00 75.09" stroke="#fef6f6" vector-effect="non-scaling-stroke"/>
<path class="icon-shape" d="   M 71.05 25.26   C 57.11 29.01 50.19 40.77 48.62 54.28   Q 43.96 94.18 46.64 135.20" stroke="#7f7777" vector-effect="non-scaling-stroke"/>
<path class="icon-shape" d="   M 102.03 173.58   Q 116.96 173.58 118.74 173.40   C 124.68 172.80 129.65 172.81 135.32 170.55   Q 147.43 165.74 150.02 152.23   Q 151.43 144.87 152.09 135.75   Q 154.70 99.61 151.22 63.69   C 149.90 50.09 148.79 37.28 134.22 31.87   Q 130.02 30.31 125.71 29.97   Q 112.57 28.95 102.00 28.95   Q 91.42 28.95 78.29 29.98   Q 73.98 30.32 69.78 31.89   C 55.21 37.30 54.11 50.11 52.79 63.71   Q 49.33 99.64 51.96 135.78   Q 52.62 144.90 54.04 152.25   Q 56.63 165.76 68.75 170.57   C 74.42 172.82 79.39 172.81 85.33 173.40   Q 87.11 173.58 102.03 173.58" stroke="#808080" vector-effect="non-scaling-stroke"/>
<path class="icon-shape" d="   M 62.02 144.62   C 65.48 155.03 74.48 162.40 85.81 162.45   Q 101.06 162.51 116.25 162.48   C 125.73 162.46 134.83 157.99 139.48 149.66   C 141.27 146.47 141.67 142.07 142.32 138.06   Q 142.58 136.44 143.33 125.70   C 144.16 113.92 144.05 98.93 143.80 90.25   Q 143.35 73.87 141.60 61.82   C 140.35 53.17 135.73 45.85 127.92 41.90   Q 124.74 40.30 117.80 40.05   Q 100.67 39.44 83.56 40.25   C 73.19 40.74 66.12 47.90 62.54 56.97   A 4.69 4.53 -31.9 0 0 62.26 58.08   Q 60.04 78.26 59.93 87.51   Q 59.69 105.96 59.86 113.75   Q 60.17 127.66 61.80 143.61   A 5.64 5.03 36.0 0 0 62.02 144.62" stroke="#808080" vector-effect="non-scaling-stroke"/>
<path class="icon-shape" d="   M 111.00 95.58   L 138.13 95.54   A 0.73 0.73 0.0 0 0 138.86 94.76   Q 138.17 83.33 138.11 77.09   Q 138.09 74.85 137.60 71.43   Q 137.50 70.78 137.21 65.76   C 136.77 58.18 132.49 50.86 125.58 47.47   Q 123.09 46.25 117.24 46.08   Q 109.67 45.87 101.91 45.65" stroke="#808080" vector-effect="non-scaling-stroke"/>
<path class="icon-shape" d="   M 101.91 45.65   Q 94.90 45.78 87.67 46.01   Q 80.77 46.23 77.95 47.57   Q 70.53 51.09 67.17 59.61   A 3.53 3.40 58.0 0 0 66.95 60.65   L 64.94 94.93   A 0.59 0.59 0.0 0 0 65.53 95.56   L 111.00 95.58" stroke="#7f7777" vector-effect="non-scaling-stroke"/>
<path class="icon-shape" d="   M 101.91 45.65   C 105.01 50.16 107.59 54.54 108.44 59.55" stroke="#fef6f6" vector-effect="non-scaling-stroke"/>
<path class="icon-shape" d="   M 108.44 59.55   Q 105.65 55.79 100.82 56.49   A 4.11 4.01 27.3 0 0 99.64 56.85   Q 94.66 59.30 94.77 65.63   A 1.19 1.19 0.0 0 1 93.92 66.80   Q 90.42 67.86 90.41 71.24   C 90.39 79.14 88.92 85.65 98.72 85.82   Q 106.93 85.96 108.25 85.88   Q 110.36 85.75 112.39 83.71" stroke="#7f7777" vector-effect="non-scaling-stroke"/>
<path class="icon-shape" d="   M 112.39 83.71   L 111.00 95.58" stroke="#fef6f6" vector-effect="non-scaling-stroke"/>
<path class="icon-shape" d="   M 112.39 83.71   C 114.52 80.59 114.01 76.37 114.15 71.48   Q 114.25 67.95 110.51 66.93   A 0.62 0.61 8.8 0 1 110.05 66.31   Q 110.17 62.54 108.44 59.55" stroke="#808080" vector-effect="non-scaling-stroke"/>
<path class="icon-shape" d="   M 66.24 135.20   Q 66.77 138.52 67.29 141.58   Q 68.23 147.22 72.61 151.02   Q 76.86 154.70 82.07 156.18   A 5.63 5.16 50.4 0 0 83.52 156.38   Q 99.75 156.36 114.10 156.41   Q 120.99 156.43 123.81 155.60   C 129.73 153.86 136.13 148.50 136.80 142.26   Q 139.00 122.00 138.78 101.79   A 0.61 0.61 0.0 0 0 138.17 101.19   L 108.56 101.16" stroke="#808080" vector-effect="non-scaling-stroke"/>
<path class="icon-shape" d="   M 108.56 101.16   L 65.76 101.18   A 0.64 0.64 0.0 0 0 65.12 101.84   L 66.24 135.20" stroke="#7f7777" vector-effect="non-scaling-stroke"/>
<path class="icon-shape" d="   M 108.56 101.16   L 105.10 109.50" stroke="#fef6f6" vector-effect="non-scaling-stroke"/>
<path class="icon-shape" d="   M 105.10 109.50   Q 94.74 110.64 96.02 118.62" stroke="#7f7777" vector-effect="non-scaling-stroke"/>
<path class="icon-shape" d="   M 96.02 118.62   Q 95.56 120.18 92.47 122.73   Q 80.67 132.48 66.24 135.20" stroke="#fef6f6" vector-effect="non-scaling-stroke"/>
<path class="icon-shape" d="   M 96.02 118.62   C 98.53 118.84 98.94 117.51 99.95 116.00   C 101.78 113.28 104.70 112.45 107.41 114.62   Q 111.15 117.61 110.37 123.31   A 0.71 0.70 3.7 0 1 109.67 123.92   L 92.62 123.92   A 3.25 3.25 0.0 0 0 89.37 127.17   L 89.37 141.83   A 1.53 1.48 -63.1 0 0 89.63 142.68   Q 91.20 145.06 93.78 145.26   Q 97.07 145.51 111.20 145.28   Q 113.75 145.24 115.47 142.16   A 1.59 1.58 -30.7 0 0 115.67 141.39   L 115.67 127.58   A 0.82 0.82 0.0 0 0 115.56 127.17   L 114.19 124.80   A 1.00 0.98 33.7 0 1 114.06 124.18   Q 114.59 119.61 113.57 116.72   Q 111.47 110.82 105.10 109.50" stroke="#808080" vector-effect="non-scaling-stroke"/>
<path class="icon-shape" d="   M 98.96 66.25   L 105.82 66.17   A 0.30 0.30 0.0 0 0 106.11 65.86   L 106.10 64.99   A 4.71 3.50 89.3 0 0 102.54 60.33   L 102.08 60.33   A 4.71 3.50 89.3 0 0 98.64 65.09   L 98.65 65.96   A 0.30 0.30 0.0 0 0 98.96 66.25" stroke="#808080" vector-effect="non-scaling-stroke"/>
<path class="icon-shape" d="   M 109.21 70.74   L 95.21 70.62   A 0.72 0.72 0.0 0 0 94.48 71.33   L 94.42 78.50   A 3.01 2.10 -89.5 0 0 96.49 81.53   L 107.73 81.63   A 3.01 2.10 -89.5 0 0 109.86 78.64   L 109.92 71.47   A 0.72 0.72 0.0 0 0 109.21 70.74" stroke="#808080" vector-effect="non-scaling-stroke"/>
<path class="icon-shape" d="   M 111.66 128.91   A 0.78 0.78 0.0 0 0 110.88 128.13   L 94.18 128.13   A 0.78 0.78 0.0 0 0 93.40 128.91   L 93.40 140.25   A 0.78 0.78 0.0 0 0 94.18 141.03   L 110.88 141.03   A 0.78 0.78 0.0 0 0 111.66 140.25   L 111.66 128.91" stroke="#808080" vector-effect="non-scaling-stroke"/>
</g>
<path class="icon-shape" d="   M 195.00 0.00   L 195.00 212.00   L 0.00 212.00   L 0.00 83.79   C 2.79 109.99 20.78 130.26 46.64 135.20   Q 47.38 144.05 48.07 148.49   Q 49.28 156.32 50.64 159.45   Q 58.01 176.35 75.85 178.39   Q 90.98 180.12 118.34 179.26   Q 131.33 178.85 137.41 176.06   C 149.75 170.41 154.16 160.26 155.85 147.51   Q 157.25 137.02 157.77 125.75   Q 159.49 88.56 155.45 53.94   C 153.51 37.32 143.84 25.97 126.96 24.31   Q 103.72 22.03 77.49 24.18   Q 74.14 24.45 71.05 25.26   Q 66.46 23.53 60.76 23.22   C 28.87 21.47 3.38 43.45 0.00 75.09   L 0.00 0.00   L 195.00 0.00   Z" fill="#ffffff"/>
<path class="icon-shape" d="   M 71.05 25.26   C 57.11 29.01 50.19 40.77 48.62 54.28   Q 43.96 94.18 46.64 135.20   C 20.78 130.26 2.79 109.99 0.00 83.79   L 0.00 75.09   C 3.38 43.45 28.87 21.47 60.76 23.22   Q 66.46 23.53 71.05 25.26   Z" fill="#fdedec"/>
<path class="icon-shape" d="   M 46.64 135.20   Q 43.96 94.18 48.62 54.28   C 50.19 40.77 57.11 29.01 71.05 25.26   Q 74.14 24.45 77.49 24.18   Q 103.72 22.03 126.96 24.31   C 143.84 25.97 153.51 37.32 155.45 53.94   Q 159.49 88.56 157.77 125.75   Q 157.25 137.02 155.85 147.51   C 154.16 160.26 149.75 170.41 137.41 176.06   Q 131.33 178.85 118.34 179.26   Q 90.98 180.12 75.85 178.39   Q 58.01 176.35 50.64 159.45   Q 49.28 156.32 48.07 148.49   Q 47.38 144.05 46.64 135.20   Z   M 102.03 173.58   Q 116.96 173.58 118.74 173.40   C 124.68 172.80 129.65 172.81 135.32 170.55   Q 147.43 165.74 150.02 152.23   Q 151.43 144.87 152.09 135.75   Q 154.70 99.61 151.22 63.69   C 149.90 50.09 148.79 37.28 134.22 31.87   Q 130.02 30.31 125.71 29.97   Q 112.57 28.95 102.00 28.95   Q 91.42 28.95 78.29 29.98   Q 73.98 30.32 69.78 31.89   C 55.21 37.30 54.11 50.11 52.79 63.71   Q 49.33 99.64 51.96 135.78   Q 52.62 144.90 54.04 152.25   Q 56.63 165.76 68.75 170.57   C 74.42 172.82 79.39 172.81 85.33 173.40   Q 87.11 173.58 102.03 173.58   Z" fill="#010101"/>
<path class="icon-shape" d="   M 102.00 28.95   Q 112.57 28.95 125.71 29.97   Q 130.02 30.31 134.22 31.87   C 148.79 37.28 149.90 50.09 151.22 63.69   Q 154.70 99.61 152.09 135.75   Q 151.43 144.87 150.02 152.23   Q 147.43 165.74 135.32 170.55   C 129.65 172.81 124.68 172.80 118.74 173.40   Q 116.96 173.58 102.03 173.58   Q 87.11 173.58 85.33 173.40   C 79.39 172.81 74.42 172.82 68.75 170.57   Q 56.63 165.76 54.04 152.25   Q 52.62 144.90 51.96 135.78   Q 49.33 99.64 52.79 63.71   C 54.11 50.11 55.21 37.30 69.78 31.89   Q 73.98 30.32 78.29 29.98   Q 91.42 28.95 102.00 28.95   Z   M 62.02 144.62   C 65.48 155.03 74.48 162.40 85.81 162.45   Q 101.06 162.51 116.25 162.48   C 125.73 162.46 134.83 157.99 139.48 149.66   C 141.27 146.47 141.67 142.07 142.32 138.06   Q 142.58 136.44 143.33 125.70   C 144.16 113.92 144.05 98.93 143.80 90.25   Q 143.35 73.87 141.60 61.82   C 140.35 53.17 135.73 45.85 127.92 41.90   Q 124.74 40.30 117.80 40.05   Q 100.67 39.44 83.56 40.25   C 73.19 40.74 66.12 47.90 62.54 56.97   A 4.69 4.53 -31.9 0 0 62.26 58.08   Q 60.04 78.26 59.93 87.51   Q 59.69 105.96 59.86 113.75   Q 60.17 127.66 61.80 143.61   A 5.64 5.03 36.0 0 0 62.02 144.62   Z" fill="#ffffff"/>
<path class="icon-shape" d="   M 61.80 143.61   Q 60.17 127.66 59.86 113.75   Q 59.69 105.96 59.93 87.51   Q 60.04 78.26 62.26 58.08   A 4.69 4.53 -31.9 0 1 62.54 56.97   C 66.12 47.90 73.19 40.74 83.56 40.25   Q 100.67 39.44 117.80 40.05   Q 124.74 40.30 127.92 41.90   C 135.73 45.85 140.35 53.17 141.60 61.82   Q 143.35 73.87 143.80 90.25   C 144.05 98.93 144.16 113.92 143.33 125.70   Q 142.58 136.44 142.32 138.06   C 141.67 142.07 141.27 146.47 139.48 149.66   C 134.83 157.99 125.73 162.46 116.25 162.48   Q 101.06 162.51 85.81 162.45   C 74.48 162.40 65.48 155.03 62.02 144.62   A 5.64 5.03 36.0 0 1 61.80 143.61   Z   M 111.00 95.58   L 138.13 95.54   A 0.73 0.73 0.0 0 0 138.86 94.76   Q 138.17 83.33 138.11 77.09   Q 138.09 74.85 137.60 71.43   Q 137.50 70.78 137.21 65.76   C 136.77 58.18 132.49 50.86 125.58 47.47   Q 123.09 46.25 117.24 46.08   Q 109.67 45.87 101.91 45.65   Q 94.90 45.78 87.67 46.01   Q 80.77 46.23 77.95 47.57   Q 70.53 51.09 67.17 59.61   A 3.53 3.40 58.0 0 0 66.95 60.65   L 64.94 94.93   A 0.59 0.59 0.0 0 0 65.53 95.56   L 111.00 95.58   Z   M 66.24 135.20   Q 66.77 138.52 67.29 141.58   Q 68.23 147.22 72.61 151.02   Q 76.86 154.70 82.07 156.18   A 5.63 5.16 50.4 0 0 83.52 156.38   Q 99.75 156.36 114.10 156.41   Q 120.99 156.43 123.81 155.60   C 129.73 153.86 136.13 148.50 136.80 142.26   Q 139.00 122.00 138.78 101.79   A 0.61 0.61 0.0 0 0 138.17 101.19   L 108.56 101.16   L 65.76 101.18   A 0.64 0.64 0.0 0 0 65.12 101.84   L 66.24 135.20   Z" fill="#010101"/>
<path class="icon-shape" d="   M 101.91 45.65   C 105.01 50.16 107.59 54.54 108.44 59.55   Q 105.65 55.79 100.82 56.49   A 4.11 4.01 27.3 0 0 99.64 56.85   Q 94.66 59.30 94.77 65.63   A 1.19 1.19 0.0 0 1 93.92 66.80   Q 90.42 67.86 90.41 71.24   C 90.39 79.14 88.92 85.65 98.72 85.82   Q 106.93 85.96 108.25 85.88   Q 110.36 85.75 112.39 83.71   L 111.00 95.58   L 65.53 95.56   A 0.59 0.59 0.0 0 1 64.94 94.93   L 66.95 60.65   A 3.53 3.40 58.0 0 1 67.17 59.61   Q 70.53 51.09 77.95 47.57   Q 80.77 46.23 87.67 46.01   Q 94.90 45.78 101.91 45.65   Z" fill="#fdedec"/>
<path class="icon-shape" d="   M 111.00 95.58   L 112.39 83.71   C 114.52 80.59 114.01 76.37 114.15 71.48   Q 114.25 67.95 110.51 66.93   A 0.62 0.61 8.8 0 1 110.05 66.31   Q 110.17 62.54 108.44 59.55   C 107.59 54.54 105.01 50.16 101.91 45.65   Q 109.67 45.87 117.24 46.08   Q 123.09 46.25 125.58 47.47   C 132.49 50.86 136.77 58.18 137.21 65.76   Q 137.50 70.78 137.60 71.43   Q 138.09 74.85 138.11 77.09   Q 138.17 83.33 138.86 94.76   A 0.73 0.73 0.0 0 1 138.13 95.54   L 111.00 95.58   Z" fill="#ffffff"/>
<path class="icon-shape" d="   M 108.44 59.55   Q 110.17 62.54 110.05 66.31   A 0.62 0.61 8.8 0 0 110.51 66.93   Q 114.25 67.95 114.15 71.48   C 114.01 76.37 114.52 80.59 112.39 83.71   Q 110.36 85.75 108.25 85.88   Q 106.93 85.96 98.72 85.82   C 88.92 85.65 90.39 79.14 90.41 71.24   Q 90.42 67.86 93.92 66.80   A 1.19 1.19 0.0 0 0 94.77 65.63   Q 94.66 59.30 99.64 56.85   A 4.11 4.01 27.3 0 1 100.82 56.49   Q 105.65 55.79 108.44 59.55   Z   M 98.96 66.25   L 105.82 66.17   A 0.30 0.30 0.0 0 0 106.11 65.86   L 106.10 64.99   A 4.71 3.50 89.3 0 0 102.54 60.33   L 102.08 60.33   A 4.71 3.50 89.3 0 0 98.64 65.09   L 98.65 65.96   A 0.30 0.30 0.0 0 0 98.96 66.25   Z   M 109.21 70.74   L 95.21 70.62   A 0.72 0.72 0.0 0 0 94.48 71.33   L 94.42 78.50   A 3.01 2.10 -89.5 0 0 96.49 81.53   L 107.73 81.63   A 3.01 2.10 -89.5 0 0 109.86 78.64   L 109.92 71.47   A 0.72 0.72 0.0 0 0 109.21 70.74   Z" fill="#010101"/>
<path class="icon-shape" d="   M 98.96 66.25   A 0.30 0.30 0.0 0 1 98.65 65.96   L 98.64 65.09   A 4.71 3.50 89.3 0 1 102.08 60.33   L 102.54 60.33   A 4.71 3.50 89.3 0 1 106.10 64.99   L 106.11 65.86   A 0.30 0.30 0.0 0 1 105.82 66.17   L 98.96 66.25   Z" fill="#ffffff"/>
<path class="icon-shape" d="   M 109.21 70.74   A 0.72 0.72 0.0 0 1 109.92 71.47   L 109.86 78.64   A 3.01 2.10 -89.5 0 1 107.73 81.63   L 96.49 81.53   A 3.01 2.10 -89.5 0 1 94.42 78.50   L 94.48 71.33   A 0.72 0.72 0.0 0 1 95.21 70.62   L 109.21 70.74   Z" fill="#ffffff"/>
<path class="icon-shape" d="   M 108.56 101.16   L 105.10 109.50   Q 94.74 110.64 96.02 118.62   Q 95.56 120.18 92.47 122.73   Q 80.67 132.48 66.24 135.20   L 65.12 101.84   A 0.64 0.64 0.0 0 1 65.76 101.18   L 108.56 101.16   Z" fill="#fdedec"/>
<path class="icon-shape" d="   M 66.24 135.20   Q 80.67 132.48 92.47 122.73   Q 95.56 120.18 96.02 118.62   C 98.53 118.84 98.94 117.51 99.95 116.00   C 101.78 113.28 104.70 112.45 107.41 114.62   Q 111.15 117.61 110.37 123.31   A 0.71 0.70 3.7 0 1 109.67 123.92   L 92.62 123.92   A 3.25 3.25 0.0 0 0 89.37 127.17   L 89.37 141.83   A 1.53 1.48 -63.1 0 0 89.63 142.68   Q 91.20 145.06 93.78 145.26   Q 97.07 145.51 111.20 145.28   Q 113.75 145.24 115.47 142.16   A 1.59 1.58 -30.7 0 0 115.67 141.39   L 115.67 127.58   A 0.82 0.82 0.0 0 0 115.56 127.17   L 114.19 124.80   A 1.00 0.98 33.7 0 1 114.06 124.18   Q 114.59 119.61 113.57 116.72   Q 111.47 110.82 105.10 109.50   L 108.56 101.16   L 138.17 101.19   A 0.61 0.61 0.0 0 1 138.78 101.79   Q 139.00 122.00 136.80 142.26   C 136.13 148.50 129.73 153.86 123.81 155.60   Q 120.99 156.43 114.10 156.41   Q 99.75 156.36 83.52 156.38   A 5.63 5.16 50.4 0 1 82.07 156.18   Q 76.86 154.70 72.61 151.02   Q 68.23 147.22 67.29 141.58   Q 66.77 138.52 66.24 135.20   Z" fill="#ffffff"/>
<path class="icon-shape" d="   M 105.10 109.50   Q 111.47 110.82 113.57 116.72   Q 114.59 119.61 114.06 124.18   A 1.00 0.98 33.7 0 0 114.19 124.80   L 115.56 127.17   A 0.82 0.82 0.0 0 1 115.67 127.58   L 115.67 141.39   A 1.59 1.58 -30.7 0 1 115.47 142.16   Q 113.75 145.24 111.20 145.28   Q 97.07 145.51 93.78 145.26   Q 91.20 145.06 89.63 142.68   A 1.53 1.48 -63.1 0 1 89.37 141.83   L 89.37 127.17   A 3.25 3.25 0.0 0 1 92.62 123.92   L 109.67 123.92   A 0.71 0.70 3.7 0 0 110.37 123.31   Q 111.15 117.61 107.41 114.62   C 104.70 112.45 101.78 113.28 99.95 116.00   C 98.94 117.51 98.53 118.84 96.02 118.62   Q 94.74 110.64 105.10 109.50   Z   M 111.66 128.91   A 0.78 0.78 0.0 0 0 110.88 128.13   L 94.18 128.13   A 0.78 0.78 0.0 0 0 93.40 128.91   L 93.40 140.25   A 0.78 0.78 0.0 0 0 94.18 141.03   L 110.88 141.03   A 0.78 0.78 0.0 0 0 111.66 140.25   L 111.66 128.91   Z" fill="#010101"/>
<rect fill="#ffffff" height="12.90" rx="0.78" width="18.26" x="93.40" y="128.13"/>
</g></svg>