<?xml version="1.0" encoding="UTF-8" standalone="no"?>
<!DOCTYPE svg PUBLIC "-//W3C//DTD SVG 1.1//EN" "http://www.w3.org/Graphics/SVG/1.1/DTD/svg11.dtd">
<svg xmlns="http://www.w3.org/2000/svg" version="1.1" viewBox="0.00 0.00 209.00 207.00">
<g stroke-width="2.00" fill="none" stroke-linecap="butt">
<path stroke="#808080" vector-effect="non-scaling-stroke" d="
  M 33.57 116.64
  Q 35.73 123.84 37.64 131.62
  Q 40.55 143.51 42.12 145.93
  Q 46.51 152.72 54.32 155.41
  Q 58.05 156.70 69.82 156.66
  Q 118.07 156.50 130.98 156.69
  Q 143.82 156.88 148.32 155.04
  Q 159.23 150.59 162.15 138.81
  Q 166.45 121.40 172.34 98.22
  Q 175.21 86.95 166.89 79.86
  Q 157.73 72.05 144.33 62.16
  Q 137.11 56.83 128.35 56.39"
/>
<path stroke="#fef6f6" vector-effect="non-scaling-stroke" d="
  M 128.35 56.39
  C 121.63 43.83 109.24 34.46 95.94 30.48
  C 59.97 19.73 25.40 45.18 23.08 81.88
  Q 21.89 100.61 33.57 116.64"
/>
<path stroke="#7f7776" vector-effect="non-scaling-stroke" d="
  M 128.35 56.39
  Q 102.94 56.23 77.67 56.36
  Q 69.85 56.40 66.44 57.49
  Q 61.27 59.13 56.44 62.69
  Q 44.61 71.41 34.64 79.84
  Q 26.19 86.99 29.24 98.24
  Q 31.59 106.92 33.57 116.64"
/>
<path stroke="#808080" vector-effect="non-scaling-stroke" d="
  M 42.20 127.57
  C 44.35 137.40 45.37 145.47 54.27 149.61
  Q 57.90 151.31 68.43 150.95
  Q 71.53 150.85 137.56 150.93
  C 145.10 150.94 148.91 149.84 153.62 144.70
  Q 155.70 142.43 158.24 132.28
  Q 166.82 97.99 167.28 96.01
  Q 169.03 88.32 162.99 83.51
  Q 150.21 73.33 139.87 65.63
  Q 137.62 63.95 131.52 61.87"
/>
<path stroke="#7f7776" vector-effect="non-scaling-stroke" d="
  M 131.52 61.87
  Q 104.89 61.46 77.83 61.68
  C 69.99 61.74 65.50 62.64 59.71 66.96
  Q 45.44 77.59 38.30 83.76
  C 31.90 89.30 33.85 94.38 35.92 102.86
  Q 39.09 115.87 42.20 127.57"
/>
<path stroke="#fef6f6" vector-effect="non-scaling-stroke" d="
  M 131.52 61.87
  Q 136.26 74.47 135.96 86.87"
/>
<path stroke="#7f7776" vector-effect="non-scaling-stroke" d="
  M 135.96 86.87
  L 126.93 86.87
  A 2.70 2.69 -89.9 0 0 124.23 89.57
  L 124.21 119.40"
/>
<path stroke="#fef6f6" vector-effect="non-scaling-stroke" d="
  M 124.21 119.40
  Q 122.53 121.11 120.97 122.87
  C 110.19 135.06 93.48 141.40 77.57 140.95
  Q 59.04 140.44 42.20 127.57"
/>
<path stroke="#808080" vector-effect="non-scaling-stroke" d="
  M 124.21 119.40
  L 124.21 124.15
  A 1.90 1.83 -58.0 0 0 124.37 124.91
  Q 125.16 126.72 127.01 126.72
  C 137.26 126.70 148.90 128.50 152.23 115.72
  C 153.11 112.38 152.58 107.49 152.74 104.65
  C 153.34 93.81 147.77 86.57 135.96 86.87"
/>
<path stroke="#7f7776" vector-effect="non-scaling-stroke" d="
  M 66.78 108.95
  Q 72.56 108.96 74.74 108.94
  A 0.46 0.46 0.0 0 1 75.20 109.40
  L 75.20 124.18
  A 2.84 2.84 0.0 0 0 78.04 127.02
  L 78.45 127.02
  A 2.80 2.79 0.0 0 0 81.25 124.23
  L 81.24 89.31
  A 2.75 2.75 0.0 0 0 78.45 86.56
  L 78.19 86.55
  A 2.88 2.88 0.0 0 0 75.20 89.44
  L 75.23 103.12
  A 0.46 0.45 -0.6 0 1 74.78 103.57
  Q 70.78 103.62 66.78 103.61
  Q 62.79 103.61 58.78 103.56
  A 0.46 0.45 0.7 0 1 58.34 103.11
  L 58.38 89.43
  A 2.88 2.88 0.0 0 0 55.39 86.54
  L 55.13 86.55
  A 2.75 2.75 0.0 0 0 52.34 89.30
  L 52.30 124.22
  A 2.80 2.79 0.0 0 0 55.10 127.01
  L 55.51 127.01
  A 2.84 2.84 0.0 0 0 58.35 124.17
  L 58.36 109.39
  A 0.46 0.46 0.0 0 1 58.82 108.93
  Q 61.01 108.95 66.78 108.95"
/>
<path stroke="#7f7776" vector-effect="non-scaling-stroke" d="
  M 102.83 127.35
  C 110.93 127.35 116.84 122.90 117.06 114.45
  Q 117.17 110.18 117.09 89.48
  A 2.91 2.91 0.0 0 0 114.08 86.58
  L 113.96 86.58
  A 3.09 3.09 0.0 0 0 110.96 89.67
  Q 110.98 99.92 111.02 112.82
  C 111.04 116.98 110.22 120.10 106.23 121.40
  Q 104.36 122.01 102.83 122.01
  Q 101.30 122.01 99.43 121.40
  C 95.44 120.11 94.62 116.99 94.63 112.83
  Q 94.66 99.93 94.67 89.68
  A 3.09 3.09 0.0 0 0 91.67 86.59
  L 91.55 86.59
  A 2.91 2.91 0.0 0 0 88.54 89.49
  Q 88.48 110.19 88.60 114.47
  C 88.82 122.91 94.74 127.35 102.83 127.35"
/>
<path stroke="#808080" vector-effect="non-scaling-stroke" d="
  M 130.15 107.85
  L 130.16 120.73
  A 0.57 0.57 0.0 0 0 130.71 121.30
  C 138.50 121.52 146.13 121.88 146.65 111.73
  C 147.12 102.50 148.06 91.10 134.79 92.25"
/>
<path stroke="#7f7776" vector-effect="non-scaling-stroke" d="
  M 134.79 92.25
  Q 132.51 91.86 130.61 92.44
  A 0.70 0.69 81.6 0 0 130.12 93.11
  L 130.15 107.85"
/>
<path stroke="#fef6f6" vector-effect="non-scaling-stroke" d="
  M 134.79 92.25
  Q 134.82 100.81 130.15 107.85"
/>
</g>
<path fill="#ffffff" d="
  M 209.00 0.00
  L 209.00 207.00
  L 0.00 207.00
  L 0.00 0.00
  L 209.00 0.00
  Z
  M 33.57 116.64
  Q 35.73 123.84 37.64 131.62
  Q 40.55 143.51 42.12 145.93
  Q 46.51 152.72 54.32 155.41
  Q 58.05 156.70 69.82 156.66
  Q 118.07 156.50 130.98 156.69
  Q 143.82 156.88 148.32 155.04
  Q 159.23 150.59 162.15 138.81
  Q 166.45 121.40 172.34 98.22
  Q 175.21 86.95 166.89 79.86
  Q 157.73 72.05 144.33 62.16
  Q 137.11 56.83 128.35 56.39
  C 121.63 43.83 109.24 34.46 95.94 30.48
  C 59.97 19.73 25.40 45.18 23.08 81.88
  Q 21.89 100.61 33.57 116.64
  Z"
/>
<path fill="#fdedec" d="
  M 128.35 56.39
  Q 102.94 56.23 77.67 56.36
  Q 69.85 56.40 66.44 57.49
  Q 61.27 59.13 56.44 62.69
  Q 44.61 71.41 34.64 79.84
  Q 26.19 86.99 29.24 98.24
  Q 31.59 106.92 33.57 116.64
  Q 21.89 100.61 23.08 81.88
  C 25.40 45.18 59.97 19.73 95.94 30.48
  C 109.24 34.46 121.63 43.83 128.35 56.39
  Z"
/>
<path fill="#000000" d="
  M 128.35 56.39
  Q 137.11 56.83 144.33 62.16
  Q 157.73 72.05 166.89 79.86
  Q 175.21 86.95 172.34 98.22
  Q 166.45 121.40 162.15 138.81
  Q 159.23 150.59 148.32 155.04
  Q 143.82 156.88 130.98 156.69
  Q 118.07 156.50 69.82 156.66
  Q 58.05 156.70 54.32 155.41
  Q 46.51 152.72 42.12 145.93
  Q 40.55 143.51 37.64 131.62
  Q 35.73 123.84 33.57 116.64
  Q 31.59 106.92 29.24 98.24
  Q 26.19 86.99 34.64 79.84
  Q 44.61 71.41 56.44 62.69
  Q 61.27 59.13 66.44 57.49
  Q 69.85 56.40 77.67 56.36
  Q 102.94 56.23 128.35 56.39
  Z
  M 42.20 127.57
  C 44.35 137.40 45.37 145.47 54.27 149.61
  Q 57.90 151.31 68.43 150.95
  Q 71.53 150.85 137.56 150.93
  C 145.10 150.94 148.91 149.84 153.62 144.70
  Q 155.70 142.43 158.24 132.28
  Q 166.82 97.99 167.28 96.01
  Q 169.03 88.32 162.99 83.51
  Q 150.21 73.33 139.87 65.63
  Q 137.62 63.95 131.52 61.87
  Q 104.89 61.46 77.83 61.68
  C 69.99 61.74 65.50 62.64 59.71 66.96
  Q 45.44 77.59 38.30 83.76
  C 31.90 89.30 33.85 94.38 35.92 102.86
  Q 39.09 115.87 42.20 127.57
  Z"
/>
<path fill="#fdedec" d="
  M 131.52 61.87
  Q 136.26 74.47 135.96 86.87
  L 126.93 86.87
  A 2.70 2.69 -89.9 0 0 124.23 89.57
  L 124.21 119.40
  Q 122.53 121.11 120.97 122.87
  C 110.19 135.06 93.48 141.40 77.57 140.95
  Q 59.04 140.44 42.20 127.57
  Q 39.09 115.87 35.92 102.86
  C 33.85 94.38 31.90 89.30 38.30 83.76
  Q 45.44 77.59 59.71 66.96
  C 65.50 62.64 69.99 61.74 77.83 61.68
  Q 104.89 61.46 131.52 61.87
  Z
  M 66.78 108.95
  Q 72.56 108.96 74.74 108.94
  A 0.46 0.46 0.0 0 1 75.20 109.40
  L 75.20 124.18
  A 2.84 2.84 0.0 0 0 78.04 127.02
  L 78.45 127.02
  A 2.80 2.79 0.0 0 0 81.25 124.23
  L 81.24 89.31
  A 2.75 2.75 0.0 0 0 78.45 86.56
  L 78.19 86.55
  A 2.88 2.88 0.0 0 0 75.20 89.44
  L 75.23 103.12
  A 0.46 0.45 -0.6 0 1 74.78 103.57
  Q 70.78 103.62 66.78 103.61
  Q 62.79 103.61 58.78 103.56
  A 0.46 0.45 0.7 0 1 58.34 103.11
  L 58.38 89.43
  A 2.88 2.88 0.0 0 0 55.39 86.54
  L 55.13 86.55
  A 2.75 2.75 0.0 0 0 52.34 89.30
  L 52.30 124.22
  A 2.80 2.79 0.0 0 0 55.10 127.01
  L 55.51 127.01
  A 2.84 2.84 0.0 0 0 58.35 124.17
  L 58.36 109.39
  A 0.46 0.46 0.0 0 1 58.82 108.93
  Q 61.01 108.95 66.78 108.95
  Z
  M 102.83 127.35
  C 110.93 127.35 116.84 122.90 117.06 114.45
  Q 117.17 110.18 117.09 89.48
  A 2.91 2.91 0.0 0 0 114.08 86.58
  L 113.96 86.58
  A 3.09 3.09 0.0 0 0 110.96 89.67
  Q 110.98 99.92 111.02 112.82
  C 111.04 116.98 110.22 120.10 106.23 121.40
  Q 104.36 122.01 102.83 122.01
  Q 101.30 122.01 99.43 121.40
  C 95.44 120.11 94.62 116.99 94.63 112.83
  Q 94.66 99.93 94.67 89.68
  A 3.09 3.09 0.0 0 0 91.67 86.59
  L 91.55 86.59
  A 2.91 2.91 0.0 0 0 88.54 89.49
  Q 88.48 110.19 88.60 114.47
  C 88.82 122.91 94.74 127.35 102.83 127.35
  Z"
/>
<path fill="#ffffff" d="
  M 42.20 127.57
  Q 59.04 140.44 77.57 140.95
  C 93.48 141.40 110.19 135.06 120.97 122.87
  Q 122.53 121.11 124.21 119.40
  L 124.21 124.15
  A 1.90 1.83 -58.0 0 0 124.37 124.91
  Q 125.16 126.72 127.01 126.72
  C 137.26 126.70 148.90 128.50 152.23 115.72
  C 153.11 112.38 152.58 107.49 152.74 104.65
  C 153.34 93.81 147.77 86.57 135.96 86.87
  Q 136.26 74.47 131.52 61.87
  Q 137.62 63.95 139.87 65.63
  Q 150.21 73.33 162.99 83.51
  Q 169.03 88.32 167.28 96.01
  Q 166.82 97.99 158.24 132.28
  Q 155.70 142.43 153.62 144.70
  C 148.91 149.84 145.10 150.94 137.56 150.93
  Q 71.53 150.85 68.43 150.95
  Q 57.90 151.31 54.27 149.61
  C 45.37 145.47 44.35 137.40 42.20 127.57
  Z"
/>
<path fill="#000000" d="
  M 66.78 103.61
  Q 70.78 103.62 74.78 103.57
  A 0.46 0.45 -0.6 0 0 75.23 103.12
  L 75.20 89.44
  A 2.88 2.88 0.0 0 1 78.19 86.55
  L 78.45 86.56
  A 2.75 2.75 0.0 0 1 81.24 89.31
  L 81.25 124.23
  A 2.80 2.79 0.0 0 1 78.45 127.02
  L 78.04 127.02
  A 2.84 2.84 0.0 0 1 75.20 124.18
  L 75.20 109.40
  A 0.46 0.46 0.0 0 0 74.74 108.94
  Q 72.56 108.96 66.78 108.95
  Q 61.01 108.95 58.82 108.93
  A 0.46 0.46 0.0 0 0 58.36 109.39
  L 58.35 124.17
  A 2.84 2.84 0.0 0 1 55.51 127.01
  L 55.10 127.01
  A 2.80 2.79 0.0 0 1 52.30 124.22
  L 52.34 89.30
  A 2.75 2.75 0.0 0 1 55.13 86.55
  L 55.39 86.54
  A 2.88 2.88 0.0 0 1 58.38 89.43
  L 58.34 103.11
  A 0.46 0.45 0.7 0 0 58.78 103.56
  Q 62.79 103.61 66.78 103.61
  Z"
/>
<path fill="#000000" d="
  M 102.83 122.01
  Q 104.36 122.01 106.23 121.40
  C 110.22 120.10 111.04 116.98 111.02 112.82
  Q 110.98 99.92 110.96 89.67
  A 3.09 3.09 0.0 0 1 113.96 86.58
  L 114.08 86.58
  A 2.91 2.91 0.0 0 1 117.09 89.48
  Q 117.17 110.18 117.06 114.45
  C 116.84 122.90 110.93 127.35 102.83 127.35
  C 94.74 127.35 88.82 122.91 88.60 114.47
  Q 88.48 110.19 88.54 89.49
  A 2.91 2.91 0.0 0 1 91.55 86.59
  L 91.67 86.59
  A 3.09 3.09 0.0 0 1 94.67 89.68
  Q 94.66 99.93 94.63 112.83
  C 94.62 116.99 95.44 120.11 99.43 121.40
  Q 101.30 122.01 102.83 122.01
  Z"
/>
<path fill="#000000" d="
  M 135.96 86.87
  C 147.77 86.57 153.34 93.81 152.74 104.65
  C 152.58 107.49 153.11 112.38 152.23 115.72
  C 148.90 128.50 137.26 126.70 127.01 126.72
  Q 125.16 126.72 124.37 124.91
  A 1.90 1.83 -58.0 0 1 124.21 124.15
  L 124.21 119.40
  L 124.23 89.57
  A 2.70 2.69 -89.9 0 1 126.93 86.87
  L 135.96 86.87
  Z
  M 130.15 107.85
  L 130.16 120.73
  A 0.57 0.57 0.0 0 0 130.71 121.30
  C 138.50 121.52 146.13 121.88 146.65 111.73
  C 147.12 102.50 148.06 91.10 134.79 92.25
  Q 132.51 91.86 130.61 92.44
  A 0.70 0.69 81.6 0 0 130.12 93.11
  L 130.15 107.85
  Z"
/>
<path fill="#fdedec" d="
  M 134.79 92.25
  Q 134.82 100.81 130.15 107.85
  L 130.12 93.11
  A 0.70 0.69 81.6 0 1 130.61 92.44
  Q 132.51 91.86 134.79 92.25
  Z"
/>
<path fill="#ffffff" d="
  M 130.15 107.85
  Q 134.82 100.81 134.79 92.25
  C 148.06 91.10 147.12 102.50 146.65 111.73
  C 146.13 121.88 138.50 121.52 130.71 121.30
  A 0.57 0.57 0.0 0 1 130.16 120.73
  L 130.15 107.85
  Z"
/>
</svg>
