<?xml version="1.0" encoding="UTF-8" standalone="no"?>
<!DOCTYPE svg PUBLIC "-//W3C//DTD SVG 1.1//EN" "http://www.w3.org/Graphics/SVG/1.1/DTD/svg11.dtd">
<svg xmlns="http://www.w3.org/2000/svg" version="1.1" viewBox="0.00 0.00 195.00 204.00">
<g stroke-width="2.00" fill="none" stroke-linecap="butt">
<path stroke="#808080" vector-effect="non-scaling-stroke" d="
  M 58.24 132.38
  Q 51.59 143.00 45.43 154.13
  Q 42.79 158.91 46.75 161.69
  Q 47.74 162.38 49.04 162.38
  Q 70.00 162.40 154.74 162.26
  C 159.63 162.26 160.87 157.13 158.62 153.44
  Q 155.70 148.66 148.60 136.38
  C 146.25 132.33 144.02 130.39 139.47 130.31
  Q 131.45 130.17 116.00 130.30
  A 0.33 0.32 -70.6 0 1 115.75 129.77
  L 117.90 127.17"
/>
<path stroke="#fef6f6" vector-effect="non-scaling-stroke" d="
  M 117.90 127.17
  Q 139.38 112.57 140.12 85.77"
/>
<path stroke="#808080" vector-effect="non-scaling-stroke" d="
  M 140.12 85.77
  Q 145.15 65.15 132.59 49.41
  Q 127.62 43.18 118.88 38.22"
/>
<path stroke="#fef6f6" vector-effect="non-scaling-stroke" d="
  M 118.88 38.22
  Q 104.37 26.38 86.22 26.02
  C 47.80 25.26 19.46 61.22 30.36 98.47
  Q 34.90 114.01 47.22 125.02
  Q 52.16 129.44 58.24 132.38"
/>
<path stroke="#7f7777" vector-effect="non-scaling-stroke" d="
  M 118.88 38.22
  Q 101.88 31.79 87.38 37.64
  C 67.83 45.52 58.00 67.22 64.50 87.50
  Q 66.46 93.59 68.86 98.21
  Q 77.40 114.63 88.38 129.85
  A 0.30 0.30 0.0 0 1 88.14 130.32
  Q 75.12 130.26 63.86 130.39
  Q 61.77 130.41 58.24 132.38"
/>
<path stroke="#7f7777" vector-effect="non-scaling-stroke" d="
  M 140.12 85.77
  Q 137.93 92.54 136.46 95.46
  Q 128.46 111.38 117.90 127.17"
/>
<path stroke="#808080" vector-effect="non-scaling-stroke" d="
  M 101.91 139.98
  Q 101.99 139.98 102.08 139.94
  Q 102.12 139.93 102.19 139.83
  C 113.82 123.35 121.71 112.48 129.82 97.39
  Q 135.69 86.48 136.35 77.68
  C 137.87 57.45 122.46 40.37 102.04 40.34
  C 81.62 40.32 66.17 57.35 67.63 77.59
  Q 68.27 86.39 74.11 97.32
  C 82.18 112.43 90.04 123.32 101.63 139.83
  Q 101.70 139.93 101.74 139.94
  Q 101.82 139.98 101.91 139.98"
/>
<path stroke="#808080" vector-effect="non-scaling-stroke" d="
  M 102.08 145.93
  Q 99.89 145.93 98.98 144.73
  Q 95.52 140.14 91.98 135.13
  A 1.09 1.06 -18.0 0 0 91.06 134.68
  C 90.26 134.71 89.54 135.41 88.39 135.41
  Q 79.53 135.44 63.77 135.43
  A 3.48 3.46 -74.8 0 0 60.75 137.17
  L 49.37 156.87
  A 0.39 0.39 0.0 0 0 49.71 157.46
  Q 51.87 157.49 102.09 157.46
  Q 152.31 157.43 154.47 157.39
  A 0.39 0.39 0.0 0 0 154.80 156.80
  L 143.40 137.12
  A 3.48 3.46 74.7 0 0 140.38 135.38
  Q 124.62 135.41 115.76 135.39
  C 114.61 135.39 113.89 134.70 113.09 134.67
  A 1.09 1.06 17.9 0 0 112.17 135.12
  Q 108.63 140.13 105.17 144.73
  Q 104.27 145.93 102.08 145.93"
/>
<path stroke="#808080" vector-effect="non-scaling-stroke" d="
  M 99.6256 54.2065
  A 21.24 20.91 -96.5 0 0 81.2544 77.6771
  A 21.24 20.91 -96.5 0 0 104.4344 96.4135
  A 21.24 20.91 -96.5 0 0 122.8056 72.9429
  A 21.24 20.91 -96.5 0 0 99.6256 54.2065"
/>
<path stroke="#7f7777" vector-effect="non-scaling-stroke" d="
  M 117.92 75.32
  A 15.84 15.84 0.0 0 0 102.08 59.48
  A 15.84 15.84 0.0 0 0 86.24 75.32
  A 15.84 15.84 0.0 0 0 102.08 91.16
  A 15.84 15.84 0.0 0 0 117.92 75.32"
/>
</g>
<path fill="#ffffff" d="
  M 195.00 0.00
  L 195.00 204.00
  L 0.00 204.00
  L 0.00 0.00
  L 195.00 0.00
  Z
  M 58.24 132.38
  Q 51.59 143.00 45.43 154.13
  Q 42.79 158.91 46.75 161.69
  Q 47.74 162.38 49.04 162.38
  Q 70.00 162.40 154.74 162.26
  C 159.63 162.26 160.87 157.13 158.62 153.44
  Q 155.70 148.66 148.60 136.38
  C 146.25 132.33 144.02 130.39 139.47 130.31
  Q 131.45 130.17 116.00 130.30
  A 0.33 0.32 -70.6 0 1 115.75 129.77
  L 117.90 127.17
  Q 139.38 112.57 140.12 85.77
  Q 145.15 65.15 132.59 49.41
  Q 127.62 43.18 118.88 38.22
  Q 104.37 26.38 86.22 26.02
  C 47.80 25.26 19.46 61.22 30.36 98.47
  Q 34.90 114.01 47.22 125.02
  Q 52.16 129.44 58.24 132.38
  Z"
/>
<path fill="#fdedec" d="
  M 118.88 38.22
  Q 101.88 31.79 87.38 37.64
  C 67.83 45.52 58.00 67.22 64.50 87.50
  Q 66.46 93.59 68.86 98.21
  Q 77.40 114.63 88.38 129.85
  A 0.30 0.30 0.0 0 1 88.14 130.32
  Q 75.12 130.26 63.86 130.39
  Q 61.77 130.41 58.24 132.38
  Q 52.16 129.44 47.22 125.02
  Q 34.90 114.01 30.36 98.47
  C 19.46 61.22 47.80 25.26 86.22 26.02
  Q 104.37 26.38 118.88 38.22
  Z"
/>
<path fill="#010101" d="
  M 118.88 38.22
  Q 127.62 43.18 132.59 49.41
  Q 145.15 65.15 140.12 85.77
  Q 137.93 92.54 136.46 95.46
  Q 128.46 111.38 117.90 127.17
  L 115.75 129.77
  A 0.33 0.32 -70.6 0 0 116.00 130.30
  Q 131.45 130.17 139.47 130.31
  C 144.02 130.39 146.25 132.33 148.60 136.38
  Q 155.70 148.66 158.62 153.44
  C 160.87 157.13 159.63 162.26 154.74 162.26
  Q 70.00 162.40 49.04 162.38
  Q 47.74 162.38 46.75 161.69
  Q 42.79 158.91 45.43 154.13
  Q 51.59 143.00 58.24 132.38
  Q 61.77 130.41 63.86 130.39
  Q 75.12 130.26 88.14 130.32
  A 0.30 0.30 0.0 0 0 88.38 129.85
  Q 77.40 114.63 68.86 98.21
  Q 66.46 93.59 64.50 87.50
  C 58.00 67.22 67.83 45.52 87.38 37.64
  Q 101.88 31.79 118.88 38.22
  Z
  M 101.91 139.98
  Q 101.99 139.98 102.08 139.94
  Q 102.12 139.93 102.19 139.83
  C 113.82 123.35 121.71 112.48 129.82 97.39
  Q 135.69 86.48 136.35 77.68
  C 137.87 57.45 122.46 40.37 102.04 40.34
  C 81.62 40.32 66.17 57.35 67.63 77.59
  Q 68.27 86.39 74.11 97.32
  C 82.18 112.43 90.04 123.32 101.63 139.83
  Q 101.70 139.93 101.74 139.94
  Q 101.82 139.98 101.91 139.98
  Z
  M 102.08 145.93
  Q 99.89 145.93 98.98 144.73
  Q 95.52 140.14 91.98 135.13
  A 1.09 1.06 -18.0 0 0 91.06 134.68
  C 90.26 134.71 89.54 135.41 88.39 135.41
  Q 79.53 135.44 63.77 135.43
  A 3.48 3.46 -74.8 0 0 60.75 137.17
  L 49.37 156.87
  A 0.39 0.39 0.0 0 0 49.71 157.46
  Q 51.87 157.49 102.09 157.46
  Q 152.31 157.43 154.47 157.39
  A 0.39 0.39 0.0 0 0 154.80 156.80
  L 143.40 137.12
  A 3.48 3.46 74.7 0 0 140.38 135.38
  Q 124.62 135.41 115.76 135.39
  C 114.61 135.39 113.89 134.70 113.09 134.67
  A 1.09 1.06 17.9 0 0 112.17 135.12
  Q 108.63 140.13 105.17 144.73
  Q 104.27 145.93 102.08 145.93
  Z"
/>
<path fill="#ffffff" d="
  M 102.04 40.34
  C 122.46 40.37 137.87 57.45 136.35 77.68
  Q 135.69 86.48 129.82 97.39
  C 121.71 112.48 113.82 123.35 102.19 139.83
  Q 102.12 139.93 102.08 139.94
  Q 101.99 139.98 101.91 139.98
  Q 101.82 139.98 101.74 139.94
  Q 101.70 139.93 101.63 139.83
  C 90.04 123.32 82.18 112.43 74.11 97.32
  Q 68.27 86.39 67.63 77.59
  C 66.17 57.35 81.62 40.32 102.04 40.34
  Z
  M 99.6256 54.2065
  A 21.24 20.91 -96.5 0 0 81.2544 77.6771
  A 21.24 20.91 -96.5 0 0 104.4344 96.4135
  A 21.24 20.91 -96.5 0 0 122.8056 72.9429
  A 21.24 20.91 -96.5 0 0 99.6256 54.2065
  Z"
/>
<path fill="#010101" d="
  M 99.6256 54.2065
  A 21.24 20.91 -96.5 0 1 122.8056 72.9429
  A 21.24 20.91 -96.5 0 1 104.4344 96.4135
  A 21.24 20.91 -96.5 0 1 81.2544 77.6771
  A 21.24 20.91 -96.5 0 1 99.6256 54.2065
  Z
  M 117.92 75.32
  A 15.84 15.84 0.0 0 0 102.08 59.48
  A 15.84 15.84 0.0 0 0 86.24 75.32
  A 15.84 15.84 0.0 0 0 102.08 91.16
  A 15.84 15.84 0.0 0 0 117.92 75.32
  Z"
/>
<circle fill="#fdedec" cx="102.08" cy="75.32" r="15.84"/>
<path fill="#fdedec" d="
  M 117.90 127.17
  Q 128.46 111.38 136.46 95.46
  Q 137.93 92.54 140.12 85.77
  Q 139.38 112.57 117.90 127.17
  Z"
/>
<path fill="#ffffff" d="
  M 102.09 157.46
  Q 51.87 157.49 49.71 157.46
  A 0.39 0.39 0.0 0 1 49.37 156.87
  L 60.75 137.17
  A 3.48 3.46 -74.8 0 1 63.77 135.43
  Q 79.53 135.44 88.39 135.41
  C 89.54 135.41 90.26 134.71 91.06 134.68
  A 1.09 1.06 -18.0 0 1 91.98 135.13
  Q 95.52 140.14 98.98 144.73
  Q 99.89 145.93 102.08 145.93
  Q 104.27 145.93 105.17 144.73
  Q 108.63 140.13 112.17 135.12
  A 1.09 1.06 17.9 0 1 113.09 134.67
  C 113.89 134.70 114.61 135.39 115.76 135.39
  Q 124.62 135.41 140.38 135.38
  A 3.48 3.46 74.7 0 1 143.40 137.12
  L 154.80 156.80
  A 0.39 0.39 0.0 0 1 154.47 157.39
  Q 152.31 157.43 102.09 157.46
  Z"
/>
</svg>
