<?xml version="1.0" encoding="UTF-8" standalone="no"?>
<!DOCTYPE svg PUBLIC "-//W3C//DTD SVG 1.1//EN" "http://www.w3.org/Graphics/SVG/1.1/DTD/svg11.dtd">
<svg xmlns="http://www.w3.org/2000/svg" version="1.1" viewBox="0.00 0.00 209.00 186.00">
<g stroke-width="2.00" fill="none" stroke-linecap="butt">
<path stroke="#818181" vector-effect="non-scaling-stroke" d="
  M 157.77 116.72
  Q 161.69 116.74 165.69 116.57
  Q 171.11 116.35 173.18 115.26
  C 178.41 112.52 181.04 106.58 181.04 100.74
  Q 181.07 78.08 181.14 67.33
  Q 181.20 58.44 179.63 54.88
  C 176.38 47.54 168.74 45.81 160.83 46.22"
/>
<path stroke="#fef6f6" vector-effect="non-scaling-stroke" d="
  M 160.83 46.22
  Q 158.91 42.86 155.60 39.65
  Q 143.09 27.53 127.30 24.28
  C 97.48 18.14 67.75 36.25 60.65 66.09
  C 52.02 102.41 79.81 137.34 117.50 135.91
  Q 135.59 135.22 150.55 123.79
  Q 154.98 120.41 157.77 116.72"
/>
<path stroke="#807878" vector-effect="non-scaling-stroke" d="
  M 160.83 46.22
  Q 132.75 46.21 104.77 46.22
  Q 95.07 46.23 91.96 47.66
  Q 85.98 50.41 84.04 57.48
  A 4.90 4.70 53.8 0 0 83.87 58.75
  L 83.87 102.71
  A 2.66 2.41 42.1 0 0 83.92 103.21
  Q 85.79 112.16 92.97 115.41
  Q 96.14 116.84 106.76 116.79
  Q 132.21 116.66 157.77 116.72"
/>
<path stroke="#818181" vector-effect="non-scaling-stroke" d="
  M 176.28 61.05
  A 9.89 9.89 0.0 0 0 166.39 51.16
  L 98.59 51.16
  A 9.89 9.89 0.0 0 0 88.70 61.05
  L 88.70 101.83
  A 9.89 9.89 0.0 0 0 98.59 111.72
  L 166.39 111.72
  A 9.89 9.89 0.0 0 0 176.28 101.83
  L 176.28 61.05"
/>
<path stroke="#818181" vector-effect="non-scaling-stroke" d="
  M 126.50 92.50
  Q 125.95 92.19 125.28 92.65
  Q 124.69 93.07 124.13 93.18
  Q 116.45 94.64 112.24 88.53
  Q 107.77 82.07 111.89 75.40
  C 115.32 69.85 120.93 69.28 127.06 70.85
  A 1.31 1.30 -51.7 0 0 127.98 70.74
  C 129.56 69.92 130.65 67.87 128.84 66.56
  C 126.14 64.62 122.42 65.16 118.32 65.29
  A 3.52 3.41 34.6 0 0 117.31 65.46
  C 102.19 70.31 100.55 89.78 114.65 97.09
  Q 121.26 100.53 127.53 96.75
  A 1.72 1.71 82.9 0 0 128.28 95.78
  Q 128.85 93.83 126.50 92.50"
/>
<path stroke="#818181" vector-effect="non-scaling-stroke" d="
  M 146.2278 65.0002
  A 16.77 16.38 -89.7 0 0 129.7602 81.6842
  A 16.77 16.38 -89.7 0 0 146.0522 98.5398
  A 16.77 16.38 -89.7 0 0 162.5198 81.8558
  A 16.77 16.38 -89.7 0 0 146.2278 65.0002"
/>
<path stroke="#818181" vector-effect="non-scaling-stroke" d="
  M 146.1611 69.8901
  A 11.77 11.34 -89.8 0 0 134.7801 81.6204
  A 11.77 11.34 -89.8 0 0 146.0789 93.4299
  A 11.77 11.34 -89.8 0 0 157.4599 81.6996
  A 11.77 11.34 -89.8 0 0 146.1611 69.8901"
/>
</g>
<path fill="#ffffff" d="
  M 209.00 0.00
  L 209.00 186.00
  L 0.00 186.00
  L 0.00 0.00
  L 209.00 0.00
  Z
  M 157.77 116.72
  Q 161.69 116.74 165.69 116.57
  Q 171.11 116.35 173.18 115.26
  C 178.41 112.52 181.04 106.58 181.04 100.74
  Q 181.07 78.08 181.14 67.33
  Q 181.20 58.44 179.63 54.88
  C 176.38 47.54 168.74 45.81 160.83 46.22
  Q 158.91 42.86 155.60 39.65
  Q 143.09 27.53 127.30 24.28
  C 97.48 18.14 67.75 36.25 60.65 66.09
  C 52.02 102.41 79.81 137.34 117.50 135.91
  Q 135.59 135.22 150.55 123.79
  Q 154.98 120.41 157.77 116.72
  Z"
/>
<path fill="#fdedec" d="
  M 160.83 46.22
  Q 132.75 46.21 104.77 46.22
  Q 95.07 46.23 91.96 47.66
  Q 85.98 50.41 84.04 57.48
  A 4.90 4.70 53.8 0 0 83.87 58.75
  L 83.87 102.71
  A 2.66 2.41 42.1 0 0 83.92 103.21
  Q 85.79 112.16 92.97 115.41
  Q 96.14 116.84 106.76 116.79
  Q 132.21 116.66 157.77 116.72
  Q 154.98 120.41 150.55 123.79
  Q 135.59 135.22 117.50 135.91
  C 79.81 137.34 52.02 102.41 60.65 66.09
  C 67.75 36.25 97.48 18.14 127.30 24.28
  Q 143.09 27.53 155.60 39.65
  Q 158.91 42.86 160.83 46.22
  Z"
/>
<path fill="#030303" d="
  M 160.83 46.22
  C 168.74 45.81 176.38 47.54 179.63 54.88
  Q 181.20 58.44 181.14 67.33
  Q 181.07 78.08 181.04 100.74
  C 181.04 106.58 178.41 112.52 173.18 115.26
  Q 171.11 116.35 165.69 116.57
  Q 161.69 116.74 157.77 116.72
  Q 132.21 116.66 106.76 116.79
  Q 96.14 116.84 92.97 115.41
  Q 85.79 112.16 83.92 103.21
  A 2.66 2.41 42.1 0 1 83.87 102.71
  L 83.87 58.75
  A 4.90 4.70 53.8 0 1 84.04 57.48
  Q 85.98 50.41 91.96 47.66
  Q 95.07 46.23 104.77 46.22
  Q 132.75 46.21 160.83 46.22
  Z
  M 176.28 61.05
  A 9.89 9.89 0.0 0 0 166.39 51.16
  L 98.59 51.16
  A 9.89 9.89 0.0 0 0 88.70 61.05
  L 88.70 101.83
  A 9.89 9.89 0.0 0 0 98.59 111.72
  L 166.39 111.72
  A 9.89 9.89 0.0 0 0 176.28 101.83
  L 176.28 61.05
  Z"
/>
<path fill="#ffffff" d="
  M 176.28 101.83
  A 9.89 9.89 0.0 0 1 166.39 111.72
  L 98.59 111.72
  A 9.89 9.89 0.0 0 1 88.70 101.83
  L 88.70 61.05
  A 9.89 9.89 0.0 0 1 98.59 51.16
  L 166.39 51.16
  A 9.89 9.89 0.0 0 1 176.28 61.05
  L 176.28 101.83
  Z
  M 126.50 92.50
  Q 125.95 92.19 125.28 92.65
  Q 124.69 93.07 124.13 93.18
  Q 116.45 94.64 112.24 88.53
  Q 107.77 82.07 111.89 75.40
  C 115.32 69.85 120.93 69.28 127.06 70.85
  A 1.31 1.30 -51.7 0 0 127.98 70.74
  C 129.56 69.92 130.65 67.87 128.84 66.56
  C 126.14 64.62 122.42 65.16 118.32 65.29
  A 3.52 3.41 34.6 0 0 117.31 65.46
  C 102.19 70.31 100.55 89.78 114.65 97.09
  Q 121.26 100.53 127.53 96.75
  A 1.72 1.71 82.9 0 0 128.28 95.78
  Q 128.85 93.83 126.50 92.50
  Z
  M 146.2278 65.0002
  A 16.77 16.38 -89.7 0 0 129.7602 81.6842
  A 16.77 16.38 -89.7 0 0 146.0522 98.5398
  A 16.77 16.38 -89.7 0 0 162.5198 81.8558
  A 16.77 16.38 -89.7 0 0 146.2278 65.0002
  Z"
/>
<path fill="#030303" d="
  M 126.50 92.50
  Q 128.85 93.83 128.28 95.78
  A 1.72 1.71 82.9 0 1 127.53 96.75
  Q 121.26 100.53 114.65 97.09
  C 100.55 89.78 102.19 70.31 117.31 65.46
  A 3.52 3.41 34.6 0 1 118.32 65.29
  C 122.42 65.16 126.14 64.62 128.84 66.56
  C 130.65 67.87 129.56 69.92 127.98 70.74
  A 1.31 1.30 -51.7 0 1 127.06 70.85
  C 120.93 69.28 115.32 69.85 111.89 75.40
  Q 107.77 82.07 112.24 88.53
  Q 116.45 94.64 124.13 93.18
  Q 124.69 93.07 125.28 92.65
  Q 125.95 92.19 126.50 92.50
  Z"
/>
<path fill="#030303" d="
  M 146.2278 65.0002
  A 16.77 16.38 -89.7 0 1 162.5198 81.8558
  A 16.77 16.38 -89.7 0 1 146.0522 98.5398
  A 16.77 16.38 -89.7 0 1 129.7602 81.6842
  A 16.77 16.38 -89.7 0 1 146.2278 65.0002
  Z
  M 146.1611 69.8901
  A 11.77 11.34 -89.8 0 0 134.7801 81.6204
  A 11.77 11.34 -89.8 0 0 146.0789 93.4299
  A 11.77 11.34 -89.8 0 0 157.4599 81.6996
  A 11.77 11.34 -89.8 0 0 146.1611 69.8901
  Z"
/>
<ellipse fill="#ffffff" cx="0.00" cy="0.00" transform="translate(146.12,81.66) rotate(-89.8)" rx="11.77" ry="11.34"/>
</svg>
