<?xml version="1.0" encoding="utf-8"?>
<svg version="1.1" viewBox="0.00 0.00 195.00 204.00" xmlns="http://www.w3.org/2000/svg"><g id="offState" style="display:inline"><g fill="none" stroke-linecap="butt" stroke-width="2.00">
<path class="icon-shape" d="   M 63.65 63.40   Q 67.15 59.13 67.18 56.24   Q 67.26 47.97 67.31 44.37   C 67.39 39.17 66.66 36.12 62.75 33.31   Q 60.44 31.64 54.17 31.79   Q 50.99 31.87 44.85 31.87   A 4.70 4.52 35.3 0 0 43.47 32.08   C 36.38 34.35 35.11 39.85 35.92 46.45   Q 35.94 46.56 36.55 52.36   Q 38.40 69.86 43.20 111.31   Q 44.05 118.61 44.24 124.00   C 44.56 132.66 46.02 140.03 53.68 144.97   A 1.27 1.25 15.7 0 1 54.26 145.99   C 54.39 149.79 53.65 154.80 54.82 158.16   Q 56.59 163.24 61.22 165.70   Q 63.94 167.15 71.03 167.12   Q 100.35 167.03 119.19 167.13   Q 127.79 167.18 130.60 165.78   Q 136.10 163.04 137.69 156.19   A 1.63 1.46 -41.9 0 0 137.74 155.73   L 137.66 150.11   A 1.20 1.20 0.0 0 1 138.52 148.93   C 144.37 147.16 148.73 143.72 149.62 137.44   C 150.98 127.88 143.63 121.15 134.22 121.04   Q 116.42 120.83 78.31 120.96   A 0.31 0.29 -4.4 0 1 78.01 120.72   Q 72.38 89.05 70.34 76.48   Q 69.00 68.25 63.76 64.30   A 0.63 0.63 0.0 0 1 63.65 63.40" stroke="#d9d8da" vector-effect="non-scaling-stroke"/>
<path class="icon-shape" d="   M 101.24 70.97   C 106.08 70.94 112.13 71.16 117.32 72.44   Q 142.49 78.62 150.29 104.23   Q 151.57 108.44 152.00 112.63   A 0.63 0.63 0.0 0 1 151.01 113.20   L 143.59 107.82   A 2.30 2.30 0.0 0 0 140.28 108.46   L 140.22 108.56   A 2.47 2.47 0.0 0 0 140.87 111.93   Q 145.97 115.52 151.69 119.59   Q 154.70 121.73 157.52 119.27   Q 164.01 113.62 166.93 111.01   A 1.92 1.91 42.7 0 0 166.81 108.05   L 166.70 107.96   A 2.70 2.70 0.0 0 0 163.24 107.96   L 157.52 112.69   A 0.51 0.51 0.0 0 1 156.69 112.34   Q 156.29 107.77 155.07 103.45   C 148.01 78.40 127.33 65.11 101.85 66.18   A 0.54 0.54 0.0 0 1 101.44 65.26   L 109.88 56.90   A 2.08 2.08 0.0 0 0 109.73 53.81   L 109.54 53.62   A 2.15 2.14 45.1 0 0 106.56 53.61   L 92.66 66.98   A 1.06 1.02 77.5 0 0 92.38 67.44   Q 91.61 69.86 92.95 71.29   Q 96.40 75.00 106.47 84.09   A 2.23 2.22 43.4 0 0 109.54 84.01   L 109.83 83.72   A 2.01 2.01 0.0 0 0 109.83 80.88   L 100.86 71.90   A 0.54 0.54 0.0 0 1 101.24 70.97" stroke="#d9d8da" vector-effect="non-scaling-stroke"/>
<path class="icon-shape" d="   M 43.02 61.43   Q 47.45 61.37 52.58 61.49   C 58.54 61.63 62.38 60.06 62.36 53.80   Q 62.33 44.46 62.34 42.80   C 62.34 36.84 58.57 36.83 53.39 36.86   C 49.30 36.89 40.42 35.41 40.75 42.77   Q 41.04 49.31 42.41 60.89   A 0.61 0.60 86.4 0 0 43.02 61.43" stroke="#d9d8da" vector-effect="non-scaling-stroke"/>
<path class="icon-shape" d="   M 51.49 134.75   C 51.57 134.60 51.53 132.17 51.86 131.18   Q 55.05 121.62 65.07 120.35   A 4.82 4.36 41.5 0 1 65.98 120.34   L 71.75 120.85   A 0.95 0.94 -2.6 0 0 72.76 119.75   Q 67.78 90.70 64.90 74.89   Q 63.99 69.94 58.39 66.92   A 3.60 3.54 -30.2 0 0 56.67 66.48   L 43.66 66.48   A 0.61 0.60 86.6 0 0 43.06 67.16   Q 46.68 97.45 48.46 114.54   Q 48.78 117.60 49.84 130.98   Q 50.04 133.45 50.87 134.78   A 0.36 0.36 0.0 0 0 51.49 134.75" stroke="#d9d8da" vector-effect="non-scaling-stroke"/>
<path class="icon-shape" d="   M 75.7262 133.8497   A 9.63 9.46 -7.1 0 0 65.0007 125.6525   A 9.63 9.46 -7.1 0 0 56.6138 136.2303   A 9.63 9.46 -7.1 0 0 67.3393 144.4275   A 9.63 9.46 -7.1 0 0 75.7262 133.8497" stroke="#d9d8da" vector-effect="non-scaling-stroke"/>
<path class="icon-shape" d="   M 81.02 135.14   C 81.01 138.52 80.09 141.05 78.19 143.56   A 0.44 0.43 -71.2 0 0 78.53 144.26   Q 132.20 144.31 132.46 144.32   C 138.59 144.55 144.81 142.27 144.82 135.21   C 144.83 128.16 138.61 125.87 132.48 126.08   Q 132.22 126.09 78.55 126.01   A 0.44 0.43 71.4 0 0 78.21 126.71   C 80.11 129.22 81.02 131.76 81.02 135.14" stroke="#d9d8da" vector-effect="non-scaling-stroke"/>
<path class="icon-shape" d="   M 58.89 148.88   C 59.39 153.02 58.23 157.41 62.36 160.54   Q 64.21 161.94 69.43 161.94   Q 121.27 161.86 123.36 161.92   C 127.81 162.05 130.53 160.74 132.23 156.89   A 2.29 2.18 59.5 0 0 132.41 156.11   L 132.65 149.79   A 0.38 0.38 0.0 0 0 132.26 149.39   Q 67.82 149.43 64.50 149.49   Q 62.03 149.54 59.60 148.38   A 0.50 0.50 0.0 0 0 58.89 148.88" stroke="#d9d8da" vector-effect="non-scaling-stroke"/>
</g>
<path class="icon-shape" d="   M 195.00 0.00   L 195.00 204.00   L 0.00 204.00   L 0.00 0.00   L 195.00 0.00   Z   M 63.65 63.40   Q 67.15 59.13 67.18 56.24   Q 67.26 47.97 67.31 44.37   C 67.39 39.17 66.66 36.12 62.75 33.31   Q 60.44 31.64 54.17 31.79   Q 50.99 31.87 44.85 31.87   A 4.70 4.52 35.3 0 0 43.47 32.08   C 36.38 34.35 35.11 39.85 35.92 46.45   Q 35.94 46.56 36.55 52.36   Q 38.40 69.86 43.20 111.31   Q 44.05 118.61 44.24 124.00   C 44.56 132.66 46.02 140.03 53.68 144.97   A 1.27 1.25 15.7 0 1 54.26 145.99   C 54.39 149.79 53.65 154.80 54.82 158.16   Q 56.59 163.24 61.22 165.70   Q 63.94 167.15 71.03 167.12   Q 100.35 167.03 119.19 167.13   Q 127.79 167.18 130.60 165.78   Q 136.10 163.04 137.69 156.19   A 1.63 1.46 -41.9 0 0 137.74 155.73   L 137.66 150.11   A 1.20 1.20 0.0 0 1 138.52 148.93   C 144.37 147.16 148.73 143.72 149.62 137.44   C 150.98 127.88 143.63 121.15 134.22 121.04   Q 116.42 120.83 78.31 120.96   A 0.31 0.29 -4.4 0 1 78.01 120.72   Q 72.38 89.05 70.34 76.48   Q 69.00 68.25 63.76 64.30   A 0.63 0.63 0.0 0 1 63.65 63.40   Z   M 101.24 70.97   C 106.08 70.94 112.13 71.16 117.32 72.44   Q 142.49 78.62 150.29 104.23   Q 151.57 108.44 152.00 112.63   A 0.63 0.63 0.0 0 1 151.01 113.20   L 143.59 107.82   A 2.30 2.30 0.0 0 0 140.28 108.46   L 140.22 108.56   A 2.47 2.47 0.0 0 0 140.87 111.93   Q 145.97 115.52 151.69 119.59   Q 154.70 121.73 157.52 119.27   Q 164.01 113.62 166.93 111.01   A 1.92 1.91 42.7 0 0 166.81 108.05   L 166.70 107.96   A 2.70 2.70 0.0 0 0 163.24 107.96   L 157.52 112.69   A 0.51 0.51 0.0 0 1 156.69 112.34   Q 156.29 107.77 155.07 103.45   C 148.01 78.40 127.33 65.11 101.85 66.18   A 0.54 0.54 0.0 0 1 101.44 65.26   L 109.88 56.90   A 2.08 2.08 0.0 0 0 109.73 53.81   L 109.54 53.62   A 2.15 2.14 45.1 0 0 106.56 53.61   L 92.66 66.98   A 1.06 1.02 77.5 0 0 92.38 67.44   Q 91.61 69.86 92.95 71.29   Q 96.40 75.00 106.47 84.09   A 2.23 2.22 43.4 0 0 109.54 84.01   L 109.83 83.72   A 2.01 2.01 0.0 0 0 109.83 80.88   L 100.86 71.90   A 0.54 0.54 0.0 0 1 101.24 70.97   Z" fill="#ffffff"/>
<path class="icon-shape" d="   M 63.76 64.30   Q 69.00 68.25 70.34 76.48   Q 72.38 89.05 78.01 120.72   A 0.31 0.29 -4.4 0 0 78.31 120.96   Q 116.42 120.83 134.22 121.04   C 143.63 121.15 150.98 127.88 149.62 137.44   C 148.73 143.72 144.37 147.16 138.52 148.93   A 1.20 1.20 0.0 0 0 137.66 150.11   L 137.74 155.73   A 1.63 1.46 -41.9 0 1 137.69 156.19   Q 136.10 163.04 130.60 165.78   Q 127.79 167.18 119.19 167.13   Q 100.35 167.03 71.03 167.12   Q 63.94 167.15 61.22 165.70   Q 56.59 163.24 54.82 158.16   C 53.65 154.80 54.39 149.79 54.26 145.99   A 1.27 1.25 15.7 0 0 53.68 144.97   C 46.02 140.03 44.56 132.66 44.24 124.00   Q 44.05 118.61 43.20 111.31   Q 38.40 69.86 36.55 52.36   Q 35.94 46.56 35.92 46.45   C 35.11 39.85 36.38 34.35 43.47 32.08   A 4.70 4.52 35.3 0 1 44.85 31.87   Q 50.99 31.87 54.17 31.79   Q 60.44 31.64 62.75 33.31   C 66.66 36.12 67.39 39.17 67.31 44.37   Q 67.26 47.97 67.18 56.24   Q 67.15 59.13 63.65 63.40   A 0.63 0.63 0.0 0 0 63.76 64.30   Z   M 43.02 61.43   Q 47.45 61.37 52.58 61.49   C 58.54 61.63 62.38 60.06 62.36 53.80   Q 62.33 44.46 62.34 42.80   C 62.34 36.84 58.57 36.83 53.39 36.86   C 49.30 36.89 40.42 35.41 40.75 42.77   Q 41.04 49.31 42.41 60.89   A 0.61 0.60 86.4 0 0 43.02 61.43   Z   M 51.49 134.75   C 51.57 134.60 51.53 132.17 51.86 131.18   Q 55.05 121.62 65.07 120.35   A 4.82 4.36 41.5 0 1 65.98 120.34   L 71.75 120.85   A 0.95 0.94 -2.6 0 0 72.76 119.75   Q 67.78 90.70 64.90 74.89   Q 63.99 69.94 58.39 66.92   A 3.60 3.54 -30.2 0 0 56.67 66.48   L 43.66 66.48   A 0.61 0.60 86.6 0 0 43.06 67.16   Q 46.68 97.45 48.46 114.54   Q 48.78 117.60 49.84 130.98   Q 50.04 133.45 50.87 134.78   A 0.36 0.36 0.0 0 0 51.49 134.75   Z   M 75.7262 133.8497   A 9.63 9.46 -7.1 0 0 65.0007 125.6525   A 9.63 9.46 -7.1 0 0 56.6138 136.2303   A 9.63 9.46 -7.1 0 0 67.3393 144.4275   A 9.63 9.46 -7.1 0 0 75.7262 133.8497   Z   M 81.02 135.14   C 81.01 138.52 80.09 141.05 78.19 143.56   A 0.44 0.43 -71.2 0 0 78.53 144.26   Q 132.20 144.31 132.46 144.32   C 138.59 144.55 144.81 142.27 144.82 135.21   C 144.83 128.16 138.61 125.87 132.48 126.08   Q 132.22 126.09 78.55 126.01   A 0.44 0.43 71.4 0 0 78.21 126.71   C 80.11 129.22 81.02 131.76 81.02 135.14   Z   M 58.89 148.88   C 59.39 153.02 58.23 157.41 62.36 160.54   Q 64.21 161.94 69.43 161.94   Q 121.27 161.86 123.36 161.92   C 127.81 162.05 130.53 160.74 132.23 156.89   A 2.29 2.18 59.5 0 0 132.41 156.11   L 132.65 149.79   A 0.38 0.38 0.0 0 0 132.26 149.39   Q 67.82 149.43 64.50 149.49   Q 62.03 149.54 59.60 148.38   A 0.50 0.50 0.0 0 0 58.89 148.88   Z" fill="#b2b0b4"/>
<path class="icon-shape" d="   M 43.02 61.43   A 0.61 0.60 86.4 0 1 42.41 60.89   Q 41.04 49.31 40.75 42.77   C 40.42 35.41 49.30 36.89 53.39 36.86   C 58.57 36.83 62.34 36.84 62.34 42.80   Q 62.33 44.46 62.36 53.80   C 62.38 60.06 58.54 61.63 52.58 61.49   Q 47.45 61.37 43.02 61.43   Z" fill="#ffffff"/>
<path class="icon-shape" d="   M 101.24 70.97   A 0.54 0.54 0.0 0 0 100.86 71.90   L 109.83 80.88   A 2.01 2.01 0.0 0 1 109.83 83.72   L 109.54 84.01   A 2.23 2.22 43.4 0 1 106.47 84.09   Q 96.40 75.00 92.95 71.29   Q 91.61 69.86 92.38 67.44   A 1.06 1.02 77.5 0 1 92.66 66.98   L 106.56 53.61   A 2.15 2.14 45.1 0 1 109.54 53.62   L 109.73 53.81   A 2.08 2.08 0.0 0 1 109.88 56.90   L 101.44 65.26   A 0.54 0.54 0.0 0 0 101.85 66.18   C 127.33 65.11 148.01 78.40 155.07 103.45   Q 156.29 107.77 156.69 112.34   A 0.51 0.51 0.0 0 0 157.52 112.69   L 163.24 107.96   A 2.70 2.70 0.0 0 1 166.70 107.96   L 166.81 108.05   A 1.92 1.91 42.7 0 1 166.93 111.01   Q 164.01 113.62 157.52 119.27   Q 154.70 121.73 151.69 119.59   Q 145.97 115.52 140.87 111.93   A 2.47 2.47 0.0 0 1 140.22 108.56   L 140.28 108.46   A 2.30 2.30 0.0 0 1 143.59 107.82   L 151.01 113.20   A 0.63 0.63 0.0 0 0 152.00 112.63   Q 151.57 108.44 150.29 104.23   Q 142.49 78.62 117.32 72.44   C 112.13 71.16 106.08 70.94 101.24 70.97   Z" fill="#b2b0b4"/>
<path class="icon-shape" d="   M 50.87 134.78   Q 50.04 133.45 49.84 130.98   Q 48.78 117.60 48.46 114.54   Q 46.68 97.45 43.06 67.16   A 0.61 0.60 86.6 0 1 43.66 66.48   L 56.67 66.48   A 3.60 3.54 -30.2 0 1 58.39 66.92   Q 63.99 69.94 64.90 74.89   Q 67.78 90.70 72.76 119.75   A 0.95 0.94 -2.6 0 1 71.75 120.85   L 65.98 120.34   A 4.82 4.36 41.5 0 0 65.07 120.35   Q 55.05 121.62 51.86 131.18   C 51.53 132.17 51.57 134.60 51.49 134.75   A 0.36 0.36 0.0 0 1 50.87 134.78   Z" fill="#ffffff"/>
<ellipse cx="0.00" cy="0.00" fill="#ffffff" rx="9.63" ry="9.46" transform="translate(66.17,135.04) rotate(-7.1)"/>
<path class="icon-shape" d="   M 144.82 135.21   C 144.81 142.27 138.59 144.55 132.46 144.32   Q 132.20 144.31 78.53 144.26   A 0.44 0.43 -71.2 0 1 78.19 143.56   C 80.09 141.05 81.01 138.52 81.02 135.14   C 81.02 131.76 80.11 129.22 78.21 126.71   A 0.44 0.43 71.4 0 1 78.55 126.01   Q 132.22 126.09 132.48 126.08   C 138.61 125.87 144.83 128.16 144.82 135.21   Z" fill="#ffffff"/>
<path class="icon-shape" d="   M 58.89 148.88   A 0.50 0.50 0.0 0 1 59.60 148.38   Q 62.03 149.54 64.50 149.49   Q 67.82 149.43 132.26 149.39   A 0.38 0.38 0.0 0 1 132.65 149.79   L 132.41 156.11   A 2.29 2.18 59.5 0 1 132.23 156.89   C 130.53 160.74 127.81 162.05 123.36 161.92   Q 121.27 161.86 69.43 161.94   Q 64.21 161.94 62.36 160.54   C 58.23 157.41 59.39 153.02 58.89 148.88   Z" fill="#ffffff"/>
</g><g id="onState" style="display:none"><g fill="none" stroke-linecap="butt" stroke-width="2.00">
<path class="icon-shape" d="   M 0.00 83.82   Q 3.05 111.41 24.99 126.50   C 30.17 130.07 38.54 134.07 45.53 134.47" stroke="#fef6f6" vector-effect="non-scaling-stroke"/>
<path class="icon-shape" d="   M 45.53 134.47   Q 47.74 141.37 53.72 145.10   A 0.99 0.99 0.0 0 1 54.20 145.95   L 54.15 155.57   A 1.51 1.39 42.6 0 0 54.17 155.81   Q 55.47 162.71 61.11 165.70   Q 64.20 167.33 71.62 167.17   Q 82.06 166.94 121.49 167.15   Q 128.03 167.19 130.79 165.75   C 135.15 163.47 137.99 158.86 137.81 153.74   Q 137.72 150.99 137.81 149.74   A 0.76 0.75 -4.8 0 1 138.39 149.06   Q 145.46 147.32 148.43 141.52   C 150.88 136.73 150.15 130.67 146.71 126.52   Q 142.10 120.93 134.50 120.93   Q 115.59 120.93 96.03 120.91" stroke="#808080" vector-effect="non-scaling-stroke"/>
<path class="icon-shape" d="   M 96.03 120.91   Q 98.62 117.29 101.18 113.84   Q 104.54 109.31 106.03 106.58   Q 114.90 90.33 112.29 71.60" stroke="#fef6f6" vector-effect="non-scaling-stroke"/>
<path class="icon-shape" d="   M 112.29 71.60   C 135.11 74.70 148.61 90.57 152.03 112.52   A 0.63 0.63 0.0 0 1 151.04 113.13   L 143.60 107.73   A 2.34 2.33 34.6 0 0 140.28 108.33   L 140.13 108.55   A 2.55 2.54 -57.6 0 0 140.91 112.06   Q 147.60 116.73 151.49 119.55   Q 154.70 121.87 157.71 119.21   Q 163.55 114.06 166.95 111.16   A 2.04 2.04 0.0 0 0 166.93 108.04   L 166.83 107.96   A 2.85 2.85 0.0 0 0 163.13 107.92   L 157.46 112.67   A 0.41 0.40 -23.1 0 1 156.80 112.41   C 154.56 91.38 141.87 74.42 121.22 68.29   Q 118.13 67.37 111.54 66.30" stroke="#808080" vector-effect="non-scaling-stroke"/>
<path class="icon-shape" d="   M 111.54 66.30   L 108.68 58.26" stroke="#fef6f6" vector-effect="non-scaling-stroke"/>
<path class="icon-shape" d="   M 108.68 58.26   Q 110.01 57.20 110.58 55.72   A 1.16 1.15 43.4 0 0 110.55 54.79   Q 109.34 52.24 106.69 53.31" stroke="#808080" vector-effect="non-scaling-stroke"/>
<path class="icon-shape" d="   M 106.69 53.31   C 78.91 3.41 5.83 18.52 0.00 75.30" stroke="#fef6f6" vector-effect="non-scaling-stroke"/>
<path class="icon-shape" d="   M 106.69 53.31   Q 100.49 59.43 94.03 65.56   C 92.27 67.22 91.07 68.62 92.64 70.88   Q 94.15 73.06 106.51 84.17   A 2.13 2.13 0.0 0 0 109.44 84.09   L 109.93 83.60   A 1.93 1.92 45.1 0 0 109.93 80.87   L 100.92 71.86   A 0.55 0.55 0.0 0 1 101.34 70.93   L 112.29 71.60" stroke="#7f7777" vector-effect="non-scaling-stroke"/>
<path class="icon-shape" d="   M 96.03 120.91   L 78.50 120.81   A 0.57 0.57 0.0 0 1 77.94 120.33   Q 73.58 95.09 70.14 75.40   Q 68.80 67.77 63.67 64.28   A 0.53 0.53 0.0 0 1 63.59 63.47   Q 66.10 60.95 67.09 57.31   A 4.42 4.14 54.4 0 0 67.24 56.18   Q 67.20 47.92 67.29 44.24   Q 67.43 38.64 66.06 36.63   Q 63.73 33.20 59.76 31.99   A 3.31 3.16 -35.7 0 0 58.75 31.85   Q 58.24 31.85 48.07 31.76   Q 43.22 31.72 41.14 32.88   C 36.66 35.39 35.08 40.11 35.67 45.51   Q 38.85 74.20 43.31 112.72   Q 43.95 118.23 44.21 124.46   C 44.36 127.96 44.96 131.13 45.53 134.47" stroke="#7f7777" vector-effect="non-scaling-stroke"/>
<path class="icon-shape" d="   M 42.87 61.36   L 56.26 61.36   A 2.41 2.29 37.0 0 0 56.79 61.30   Q 62.22 60.00 62.29 54.19   Q 62.40 44.29 62.29 41.99   C 62.10 37.92 59.38 36.86 55.62 36.88   Q 52.74 36.89 45.53 36.96   Q 43.09 36.98 41.03 40.45   A 2.79 2.76 58.2 0 0 40.65 42.12   L 42.37 60.91   A 0.51 0.50 86.8 0 0 42.87 61.36" stroke="#808080" vector-effect="non-scaling-stroke"/>
<path class="icon-shape" d="   M 51.36 134.58   Q 51.79 127.08 57.62 123.03   C 62.01 119.99 66.63 119.87 71.54 120.89   A 1.01 1.00 1.0 0 0 72.74 119.74   Q 72.41 117.75 64.94 75.33   Q 63.85 69.10 57.51 66.70   A 3.44 3.25 -35.3 0 0 56.11 66.50   Q 54.44 66.64 43.60 66.57   Q 43.01 66.56 42.92 66.80   C 42.80 67.11 43.27 67.90 43.34 68.54   Q 45.27 84.56 48.45 114.00   Q 49.37 122.42 49.80 130.68   Q 49.92 132.99 50.93 134.69   A 0.23 0.23 0.0 0 0 51.36 134.58" stroke="#808080" vector-effect="non-scaling-stroke"/>
<path class="icon-shape" d="   M 75.6900 133.7923   A 9.61 9.42 -7.4 0 0 64.9467 125.6885   A 9.61 9.42 -7.4 0 0 56.6300 136.2677   A 9.61 9.42 -7.4 0 0 67.3733 144.3715   A 9.61 9.42 -7.4 0 0 75.6900 133.7923" stroke="#808080" vector-effect="non-scaling-stroke"/>
<path class="icon-shape" d="   M 81.08 135.14   Q 81.08 139.56 78.34 143.77   A 0.31 0.30 -73.4 0 0 78.59 144.24   Q 120.21 144.19 132.94 144.28   C 139.04 144.33 144.72 142.11 144.73 135.22   C 144.74 128.32 139.06 126.09 132.96 126.12   Q 120.23 126.19 78.61 126.03   A 0.31 0.30 73.6 0 0 78.36 126.51   Q 81.09 130.72 81.08 135.14" stroke="#808080" vector-effect="non-scaling-stroke"/>
<path class="icon-shape" d="   M 58.90 148.76   C 59.57 154.24 58.16 159.47 64.93 161.65   A 3.86 3.56 -34.1 0 0 66.05 161.82   Q 114.89 161.82 125.20 161.83   Q 129.87 161.83 132.05 157.01   Q 132.66 155.65 132.42 149.92   A 0.49 0.49 0.0 0 0 131.93 149.44   L 63.14 149.44   A 5.40 5.17 -33.3 0 1 61.24 149.09   L 59.40 148.38   A 0.37 0.36 7.4 0 0 58.90 148.76" stroke="#808080" vector-effect="non-scaling-stroke"/>
<path class="icon-shape" d="   M 108.68 58.26   L 101.45 65.33   A 0.45 0.45 0.0 0 0 101.75 66.10   L 111.54 66.30" stroke="#7f7777" vector-effect="non-scaling-stroke"/>
</g>
<path class="icon-shape" d="   M 195.00 0.00   L 195.00 204.00   L 0.00 204.00   L 0.00 83.82   Q 3.05 111.41 24.99 126.50   C 30.17 130.07 38.54 134.07 45.53 134.47   Q 47.74 141.37 53.72 145.10   A 0.99 0.99 0.0 0 1 54.20 145.95   L 54.15 155.57   A 1.51 1.39 42.6 0 0 54.17 155.81   Q 55.47 162.71 61.11 165.70   Q 64.20 167.33 71.62 167.17   Q 82.06 166.94 121.49 167.15   Q 128.03 167.19 130.79 165.75   C 135.15 163.47 137.99 158.86 137.81 153.74   Q 137.72 150.99 137.81 149.74   A 0.76 0.75 -4.8 0 1 138.39 149.06   Q 145.46 147.32 148.43 141.52   C 150.88 136.73 150.15 130.67 146.71 126.52   Q 142.10 120.93 134.50 120.93   Q 115.59 120.93 96.03 120.91   Q 98.62 117.29 101.18 113.84   Q 104.54 109.31 106.03 106.58   Q 114.90 90.33 112.29 71.60   C 135.11 74.70 148.61 90.57 152.03 112.52   A 0.63 0.63 0.0 0 1 151.04 113.13   L 143.60 107.73   A 2.34 2.33 34.6 0 0 140.28 108.33   L 140.13 108.55   A 2.55 2.54 -57.6 0 0 140.91 112.06   Q 147.60 116.73 151.49 119.55   Q 154.70 121.87 157.71 119.21   Q 163.55 114.06 166.95 111.16   A 2.04 2.04 0.0 0 0 166.93 108.04   L 166.83 107.96   A 2.85 2.85 0.0 0 0 163.13 107.92   L 157.46 112.67   A 0.41 0.40 -23.1 0 1 156.80 112.41   C 154.56 91.38 141.87 74.42 121.22 68.29   Q 118.13 67.37 111.54 66.30   L 108.68 58.26   Q 110.01 57.20 110.58 55.72   A 1.16 1.15 43.4 0 0 110.55 54.79   Q 109.34 52.24 106.69 53.31   C 78.91 3.41 5.83 18.52 0.00 75.30   L 0.00 0.00   L 195.00 0.00   Z" fill="#ffffff"/>
<path class="icon-shape" d="   M 106.69 53.31   Q 100.49 59.43 94.03 65.56   C 92.27 67.22 91.07 68.62 92.64 70.88   Q 94.15 73.06 106.51 84.17   A 2.13 2.13 0.0 0 0 109.44 84.09   L 109.93 83.60   A 1.93 1.92 45.1 0 0 109.93 80.87   L 100.92 71.86   A 0.55 0.55 0.0 0 1 101.34 70.93   L 112.29 71.60   Q 114.90 90.33 106.03 106.58   Q 104.54 109.31 101.18 113.84   Q 98.62 117.29 96.03 120.91   L 78.50 120.81   A 0.57 0.57 0.0 0 1 77.94 120.33   Q 73.58 95.09 70.14 75.40   Q 68.80 67.77 63.67 64.28   A 0.53 0.53 0.0 0 1 63.59 63.47   Q 66.10 60.95 67.09 57.31   A 4.42 4.14 54.4 0 0 67.24 56.18   Q 67.20 47.92 67.29 44.24   Q 67.43 38.64 66.06 36.63   Q 63.73 33.20 59.76 31.99   A 3.31 3.16 -35.7 0 0 58.75 31.85   Q 58.24 31.85 48.07 31.76   Q 43.22 31.72 41.14 32.88   C 36.66 35.39 35.08 40.11 35.67 45.51   Q 38.85 74.20 43.31 112.72   Q 43.95 118.23 44.21 124.46   C 44.36 127.96 44.96 131.13 45.53 134.47   C 38.54 134.07 30.17 130.07 24.99 126.50   Q 3.05 111.41 0.00 83.82   L 0.00 75.30   C 5.83 18.52 78.91 3.41 106.69 53.31   Z" fill="#fdedec"/>
<path class="icon-shape" d="   M 96.03 120.91   Q 115.59 120.93 134.50 120.93   Q 142.10 120.93 146.71 126.52   C 150.15 130.67 150.88 136.73 148.43 141.52   Q 145.46 147.32 138.39 149.06   A 0.76 0.75 -4.8 0 0 137.81 149.74   Q 137.72 150.99 137.81 153.74   C 137.99 158.86 135.15 163.47 130.79 165.75   Q 128.03 167.19 121.49 167.15   Q 82.06 166.94 71.62 167.17   Q 64.20 167.33 61.11 165.70   Q 55.47 162.71 54.17 155.81   A 1.51 1.39 42.6 0 1 54.15 155.57   L 54.20 145.95   A 0.99 0.99 0.0 0 0 53.72 145.10   Q 47.74 141.37 45.53 134.47   C 44.96 131.13 44.36 127.96 44.21 124.46   Q 43.95 118.23 43.31 112.72   Q 38.85 74.20 35.67 45.51   C 35.08 40.11 36.66 35.39 41.14 32.88   Q 43.22 31.72 48.07 31.76   Q 58.24 31.85 58.75 31.85   A 3.31 3.16 -35.7 0 1 59.76 31.99   Q 63.73 33.20 66.06 36.63   Q 67.43 38.64 67.29 44.24   Q 67.20 47.92 67.24 56.18   A 4.42 4.14 54.4 0 1 67.09 57.31   Q 66.10 60.95 63.59 63.47   A 0.53 0.53 0.0 0 0 63.67 64.28   Q 68.80 67.77 70.14 75.40   Q 73.58 95.09 77.94 120.33   A 0.57 0.57 0.0 0 0 78.50 120.81   L 96.03 120.91   Z   M 42.87 61.36   L 56.26 61.36   A 2.41 2.29 37.0 0 0 56.79 61.30   Q 62.22 60.00 62.29 54.19   Q 62.40 44.29 62.29 41.99   C 62.10 37.92 59.38 36.86 55.62 36.88   Q 52.74 36.89 45.53 36.96   Q 43.09 36.98 41.03 40.45   A 2.79 2.76 58.2 0 0 40.65 42.12   L 42.37 60.91   A 0.51 0.50 86.8 0 0 42.87 61.36   Z   M 51.36 134.58   Q 51.79 127.08 57.62 123.03   C 62.01 119.99 66.63 119.87 71.54 120.89   A 1.01 1.00 1.0 0 0 72.74 119.74   Q 72.41 117.75 64.94 75.33   Q 63.85 69.10 57.51 66.70   A 3.44 3.25 -35.3 0 0 56.11 66.50   Q 54.44 66.64 43.60 66.57   Q 43.01 66.56 42.92 66.80   C 42.80 67.11 43.27 67.90 43.34 68.54   Q 45.27 84.56 48.45 114.00   Q 49.37 122.42 49.80 130.68   Q 49.92 132.99 50.93 134.69   A 0.23 0.23 0.0 0 0 51.36 134.58   Z   M 75.6900 133.7923   A 9.61 9.42 -7.4 0 0 64.9467 125.6885   A 9.61 9.42 -7.4 0 0 56.6300 136.2677   A 9.61 9.42 -7.4 0 0 67.3733 144.3715   A 9.61 9.42 -7.4 0 0 75.6900 133.7923   Z   M 81.08 135.14   Q 81.08 139.56 78.34 143.77   A 0.31 0.30 -73.4 0 0 78.59 144.24   Q 120.21 144.19 132.94 144.28   C 139.04 144.33 144.72 142.11 144.73 135.22   C 144.74 128.32 139.06 126.09 132.96 126.12   Q 120.23 126.19 78.61 126.03   A 0.31 0.30 73.6 0 0 78.36 126.51   Q 81.09 130.72 81.08 135.14   Z   M 58.90 148.76   C 59.57 154.24 58.16 159.47 64.93 161.65   A 3.86 3.56 -34.1 0 0 66.05 161.82   Q 114.89 161.82 125.20 161.83   Q 129.87 161.83 132.05 157.01   Q 132.66 155.65 132.42 149.92   A 0.49 0.49 0.0 0 0 131.93 149.44   L 63.14 149.44   A 5.40 5.17 -33.3 0 1 61.24 149.09   L 59.40 148.38   A 0.37 0.36 7.4 0 0 58.90 148.76   Z" fill="#010101"/>
<path class="icon-shape" d="   M 42.37 60.91   L 40.65 42.12   A 2.79 2.76 58.2 0 1 41.03 40.45   Q 43.09 36.98 45.53 36.96   Q 52.74 36.89 55.62 36.88   C 59.38 36.86 62.10 37.92 62.29 41.99   Q 62.40 44.29 62.29 54.19   Q 62.22 60.00 56.79 61.30   A 2.41 2.29 37.0 0 1 56.26 61.36   L 42.87 61.36   A 0.51 0.50 86.8 0 1 42.37 60.91   Z" fill="#ffffff"/>
<path class="icon-shape" d="   M 108.68 58.26   L 101.45 65.33   A 0.45 0.45 0.0 0 0 101.75 66.10   L 111.54 66.30   Q 118.13 67.37 121.22 68.29   C 141.87 74.42 154.56 91.38 156.80 112.41   A 0.41 0.40 -23.1 0 0 157.46 112.67   L 163.13 107.92   A 2.85 2.85 0.0 0 1 166.83 107.96   L 166.93 108.04   A 2.04 2.04 0.0 0 1 166.95 111.16   Q 163.55 114.06 157.71 119.21   Q 154.70 121.87 151.49 119.55   Q 147.60 116.73 140.91 112.06   A 2.55 2.54 -57.6 0 1 140.13 108.55   L 140.28 108.33   A 2.34 2.33 34.6 0 1 143.60 107.73   L 151.04 113.13   A 0.63 0.63 0.0 0 0 152.03 112.52   C 148.61 90.57 135.11 74.70 112.29 71.60   L 101.34 70.93   A 0.55 0.55 0.0 0 0 100.92 71.86   L 109.93 80.87   A 1.93 1.92 45.1 0 1 109.93 83.60   L 109.44 84.09   A 2.13 2.13 0.0 0 1 106.51 84.17   Q 94.15 73.06 92.64 70.88   C 91.07 68.62 92.27 67.22 94.03 65.56   Q 100.49 59.43 106.69 53.31   Q 109.34 52.24 110.55 54.79   A 1.16 1.15 43.4 0 1 110.58 55.72   Q 110.01 57.20 108.68 58.26   Z" fill="#010101"/>
<path class="icon-shape" d="   M 108.68 58.26   L 111.54 66.30   L 101.75 66.10   A 0.45 0.45 0.0 0 1 101.45 65.33   L 108.68 58.26   Z" fill="#fdedec"/>
<path class="icon-shape" d="   M 50.93 134.69   Q 49.92 132.99 49.80 130.68   Q 49.37 122.42 48.45 114.00   Q 45.27 84.56 43.34 68.54   C 43.27 67.90 42.80 67.11 42.92 66.80   Q 43.01 66.56 43.60 66.57   Q 54.44 66.64 56.11 66.50   A 3.44 3.25 -35.3 0 1 57.51 66.70   Q 63.85 69.10 64.94 75.33   Q 72.41 117.75 72.74 119.74   A 1.01 1.00 1.0 0 1 71.54 120.89   C 66.63 119.87 62.01 119.99 57.62 123.03   Q 51.79 127.08 51.36 134.58   A 0.23 0.23 0.0 0 1 50.93 134.69   Z" fill="#ffffff"/>
<ellipse cx="0.00" cy="0.00" fill="#ffffff" rx="9.61" ry="9.42" transform="translate(66.16,135.03) rotate(-7.4)"/>
<path class="icon-shape" d="   M 144.73 135.22   C 144.72 142.11 139.04 144.33 132.94 144.28   Q 120.21 144.19 78.59 144.24   A 0.31 0.30 -73.4 0 1 78.34 143.77   Q 81.08 139.56 81.08 135.14   Q 81.09 130.72 78.36 126.51   A 0.31 0.30 73.6 0 1 78.61 126.03   Q 120.23 126.19 132.96 126.12   C 139.06 126.09 144.74 128.32 144.73 135.22   Z" fill="#ffffff"/>
<path class="icon-shape" d="   M 58.90 148.76   A 0.37 0.36 7.4 0 1 59.40 148.38   L 61.24 149.09   A 5.40 5.17 -33.3 0 0 63.14 149.44   L 131.93 149.44   A 0.49 0.49 0.0 0 1 132.42 149.92   Q 132.66 155.65 132.05 157.01   Q 129.87 161.83 125.20 161.83   Q 114.89 161.82 66.05 161.82   A 3.86 3.56 -34.1 0 1 64.93 161.65   C 58.16 159.47 59.57 154.24 58.90 148.76   Z" fill="#ffffff"/>
</g></svg>