<?xml version="1.0" encoding="utf-8"?>
<svg version="1.1" viewBox="0.00 0.00 229.00 204.00" xmlns="http://www.w3.org/2000/svg"><g id="offState" style="display:inline"><g fill="none" stroke-linecap="butt" stroke-width="2.00">
<path class="icon-shape" d="   M 134.00 130.75   Q 136.84 139.97 145.27 142.14   C 153.89 144.36 161.64 139.52 164.14 131.04   A 0.72 0.72 0.0 0 1 164.83 130.52   Q 170.93 130.52 171.86 130.57   C 175.56 130.74 179.57 129.43 179.99 125.78   Q 181.01 116.86 178.00 107.16   C 176.35 101.83 172.40 97.83 167.23 96.57   Q 159.87 94.77 148.91 93.12   Q 143.29 92.27 139.02 88.50   Q 133.65 83.74 120.34 72.72   Q 112.08 65.88 103.25 65.90   Q 72.94 65.98 42.22 65.92   Q 35.09 65.90 32.44 72.84   C 28.61 82.90 25.67 89.25 24.46 94.85   A 9.96 8.03 -77.5 0 0 24.24 96.24   Q 24.23 96.39 24.30 121.22   Q 24.32 127.97 31.53 130.47   A 1.30 1.29 -35.9 0 0 31.92 130.53   L 40.56 130.53   A 0.93 0.93 0.0 0 1 41.39 131.04   Q 41.78 131.82 42.23 133.03   C 45.35 141.47 55.39 144.97 63.40 140.96   Q 69.44 137.93 71.34 131.10   A 0.84 0.83 7.7 0 1 72.15 130.49   L 133.65 130.49   A 0.37 0.37 0.0 0 1 134.00 130.75" stroke="#d9d7d9" vector-effect="non-scaling-stroke"/>
<path class="icon-shape" d="   M 55.58 111.23   Q 55.40 96.19 55.59 87.03   Q 55.74 79.81 62.75 79.68   Q 72.20 79.50 99.18 79.50   Q 105.90 79.51 109.49 80.48   C 118.48 82.92 125.64 89.60 130.16 97.58   Q 131.21 99.43 131.21 100.38   A 1.56 1.55 63.2 0 1 130.91 101.30   Q 129.90 102.70 128.73 103.26   A 2.09 2.01 -57.0 0 1 127.83 103.47   L 95.86 103.47   A 0.44 0.43 -0.0 0 0 95.42 103.90   L 95.42 125.30   A 0.58 0.57 -0.0 0 0 96.00 125.87   L 132.93 125.87   A 0.76 0.75 -84.4 0 0 133.67 125.26   C 137.23 107.68 160.92 107.93 164.51 125.23   A 0.67 0.66 84.1 0 0 165.16 125.76   L 173.69 125.76   A 1.45 1.45 0.0 0 0 175.14 124.41   Q 175.65 116.83 173.26 108.55   Q 171.45 102.31 164.52 100.95   Q 155.72 99.23 152.07 98.70   C 143.81 97.50 139.66 95.92 134.11 90.87   Q 131.33 88.34 117.25 76.51   C 111.79 71.92 107.42 70.84 99.80 70.85   Q 75.57 70.86 42.77 70.82   C 39.93 70.81 38.23 71.56 37.19 74.19   Q 33.29 84.11 29.99 92.84   A 11.80 11.76 55.8 0 0 29.22 96.92   Q 29.10 109.90 29.25 120.96   C 29.32 126.00 32.70 125.72 36.66 125.78   Q 39.16 125.82 40.42 125.62   A 0.81 0.80 1.6 0 0 41.07 125.01   Q 43.60 113.89 54.91 112.03   A 0.80 0.80 0.0 0 0 55.58 111.23" stroke="#d9d7d9" vector-effect="non-scaling-stroke"/>
<path class="icon-shape" d="   M 124.71 98.11   C 120.64 92.01 113.89 85.93 106.41 84.88   Q 103.57 84.48 95.85 84.55   A 0.62 0.62 0.0 0 0 95.23 85.17   L 95.23 98.10   A 0.68 0.68 0.0 0 0 95.91 98.78   L 124.35 98.78   A 0.43 0.43 0.0 0 0 124.71 98.11" stroke="#d9d7d9" vector-effect="non-scaling-stroke"/>
<path class="icon-shape" d="   M 89.80 84.78   L 61.68 84.78   A 0.99 0.98 90.0 0 0 60.70 85.77   L 60.70 111.97   A 0.73 0.73 0.0 0 0 61.19 112.66   Q 70.07 115.74 72.08 125.21   A 0.72 0.71 -6.0 0 0 72.78 125.77   L 89.81 125.77   A 0.54 0.54 0.0 0 0 90.35 125.23   L 90.35 85.34   A 0.56 0.55 -90.0 0 0 89.80 84.78" stroke="#d9d7d9" vector-effect="non-scaling-stroke"/>
<path class="icon-shape" d="   M 66.7620 125.6241   A 10.40 10.16 -10.0 0 0 54.7557 117.4244   A 10.40 10.16 -10.0 0 0 46.2780 129.2359   A 10.40 10.16 -10.0 0 0 58.2843 137.4356   A 10.40 10.16 -10.0 0 0 66.7620 125.6241" stroke="#d9d7d9" vector-effect="non-scaling-stroke"/>
<path class="icon-shape" d="   M 138.8033 126.6707   A 10.34 10.16 -175.4 0 0 148.2952 137.6273   A 10.34 10.16 -175.4 0 0 159.4167 128.3293   A 10.34 10.16 -175.4 0 0 149.9248 117.3727   A 10.34 10.16 -175.4 0 0 138.8033 126.6707" stroke="#d9d7d9" vector-effect="non-scaling-stroke"/>
</g>
<path class="icon-shape" d="   M 229.00 0.00   L 229.00 204.00   L 0.00 204.00   L 0.00 0.00   L 229.00 0.00   Z   M 134.00 130.75   Q 136.84 139.97 145.27 142.14   C 153.89 144.36 161.64 139.52 164.14 131.04   A 0.72 0.72 0.0 0 1 164.83 130.52   Q 170.93 130.52 171.86 130.57   C 175.56 130.74 179.57 129.43 179.99 125.78   Q 181.01 116.86 178.00 107.16   C 176.35 101.83 172.40 97.83 167.23 96.57   Q 159.87 94.77 148.91 93.12   Q 143.29 92.27 139.02 88.50   Q 133.65 83.74 120.34 72.72   Q 112.08 65.88 103.25 65.90   Q 72.94 65.98 42.22 65.92   Q 35.09 65.90 32.44 72.84   C 28.61 82.90 25.67 89.25 24.46 94.85   A 9.96 8.03 -77.5 0 0 24.24 96.24   Q 24.23 96.39 24.30 121.22   Q 24.32 127.97 31.53 130.47   A 1.30 1.29 -35.9 0 0 31.92 130.53   L 40.56 130.53   A 0.93 0.93 0.0 0 1 41.39 131.04   Q 41.78 131.82 42.23 133.03   C 45.35 141.47 55.39 144.97 63.40 140.96   Q 69.44 137.93 71.34 131.10   A 0.84 0.83 7.7 0 1 72.15 130.49   L 133.65 130.49   A 0.37 0.37 0.0 0 1 134.00 130.75   Z" fill="#ffffff"/>
<path class="icon-shape" d="   M 134.00 130.75   A 0.37 0.37 0.0 0 0 133.65 130.49   L 72.15 130.49   A 0.84 0.83 7.7 0 0 71.34 131.10   Q 69.44 137.93 63.40 140.96   C 55.39 144.97 45.35 141.47 42.23 133.03   Q 41.78 131.82 41.39 131.04   A 0.93 0.93 0.0 0 0 40.56 130.53   L 31.92 130.53   A 1.30 1.29 -35.9 0 1 31.53 130.47   Q 24.32 127.97 24.30 121.22   Q 24.23 96.39 24.24 96.24   A 9.96 8.03 -77.5 0 1 24.46 94.85   C 25.67 89.25 28.61 82.90 32.44 72.84   Q 35.09 65.90 42.22 65.92   Q 72.94 65.98 103.25 65.90   Q 112.08 65.88 120.34 72.72   Q 133.65 83.74 139.02 88.50   Q 143.29 92.27 148.91 93.12   Q 159.87 94.77 167.23 96.57   C 172.40 97.83 176.35 101.83 178.00 107.16   Q 181.01 116.86 179.99 125.78   C 179.57 129.43 175.56 130.74 171.86 130.57   Q 170.93 130.52 164.83 130.52   A 0.72 0.72 0.0 0 0 164.14 131.04   C 161.64 139.52 153.89 144.36 145.27 142.14   Q 136.84 139.97 134.00 130.75   Z   M 55.58 111.23   Q 55.40 96.19 55.59 87.03   Q 55.74 79.81 62.75 79.68   Q 72.20 79.50 99.18 79.50   Q 105.90 79.51 109.49 80.48   C 118.48 82.92 125.64 89.60 130.16 97.58   Q 131.21 99.43 131.21 100.38   A 1.56 1.55 63.2 0 1 130.91 101.30   Q 129.90 102.70 128.73 103.26   A 2.09 2.01 -57.0 0 1 127.83 103.47   L 95.86 103.47   A 0.44 0.43 -0.0 0 0 95.42 103.90   L 95.42 125.30   A 0.58 0.57 -0.0 0 0 96.00 125.87   L 132.93 125.87   A 0.76 0.75 -84.4 0 0 133.67 125.26   C 137.23 107.68 160.92 107.93 164.51 125.23   A 0.67 0.66 84.1 0 0 165.16 125.76   L 173.69 125.76   A 1.45 1.45 0.0 0 0 175.14 124.41   Q 175.65 116.83 173.26 108.55   Q 171.45 102.31 164.52 100.95   Q 155.72 99.23 152.07 98.70   C 143.81 97.50 139.66 95.92 134.11 90.87   Q 131.33 88.34 117.25 76.51   C 111.79 71.92 107.42 70.84 99.80 70.85   Q 75.57 70.86 42.77 70.82   C 39.93 70.81 38.23 71.56 37.19 74.19   Q 33.29 84.11 29.99 92.84   A 11.80 11.76 55.8 0 0 29.22 96.92   Q 29.10 109.90 29.25 120.96   C 29.32 126.00 32.70 125.72 36.66 125.78   Q 39.16 125.82 40.42 125.62   A 0.81 0.80 1.6 0 0 41.07 125.01   Q 43.60 113.89 54.91 112.03   A 0.80 0.80 0.0 0 0 55.58 111.23   Z   M 124.71 98.11   C 120.64 92.01 113.89 85.93 106.41 84.88   Q 103.57 84.48 95.85 84.55   A 0.62 0.62 0.0 0 0 95.23 85.17   L 95.23 98.10   A 0.68 0.68 0.0 0 0 95.91 98.78   L 124.35 98.78   A 0.43 0.43 0.0 0 0 124.71 98.11   Z   M 89.80 84.78   L 61.68 84.78   A 0.99 0.98 90.0 0 0 60.70 85.77   L 60.70 111.97   A 0.73 0.73 0.0 0 0 61.19 112.66   Q 70.07 115.74 72.08 125.21   A 0.72 0.71 -6.0 0 0 72.78 125.77   L 89.81 125.77   A 0.54 0.54 0.0 0 0 90.35 125.23   L 90.35 85.34   A 0.56 0.55 -90.0 0 0 89.80 84.78   Z   M 66.7620 125.6241   A 10.40 10.16 -10.0 0 0 54.7557 117.4244   A 10.40 10.16 -10.0 0 0 46.2780 129.2359   A 10.40 10.16 -10.0 0 0 58.2843 137.4356   A 10.40 10.16 -10.0 0 0 66.7620 125.6241   Z   M 138.8033 126.6707   A 10.34 10.16 -175.4 0 0 148.2952 137.6273   A 10.34 10.16 -175.4 0 0 159.4167 128.3293   A 10.34 10.16 -175.4 0 0 149.9248 117.3727   A 10.34 10.16 -175.4 0 0 138.8033 126.6707   Z" fill="#b2afb3"/>
<path class="icon-shape" d="   M 54.91 112.03   Q 43.60 113.89 41.07 125.01   A 0.81 0.80 1.6 0 1 40.42 125.62   Q 39.16 125.82 36.66 125.78   C 32.70 125.72 29.32 126.00 29.25 120.96   Q 29.10 109.90 29.22 96.92   A 11.80 11.76 55.8 0 1 29.99 92.84   Q 33.29 84.11 37.19 74.19   C 38.23 71.56 39.93 70.81 42.77 70.82   Q 75.57 70.86 99.80 70.85   C 107.42 70.84 111.79 71.92 117.25 76.51   Q 131.33 88.34 134.11 90.87   C 139.66 95.92 143.81 97.50 152.07 98.70   Q 155.72 99.23 164.52 100.95   Q 171.45 102.31 173.26 108.55   Q 175.65 116.83 175.14 124.41   A 1.45 1.45 0.0 0 1 173.69 125.76   L 165.16 125.76   A 0.67 0.66 84.1 0 1 164.51 125.23   C 160.92 107.93 137.23 107.68 133.67 125.26   A 0.76 0.75 -84.4 0 1 132.93 125.87   L 96.00 125.87   A 0.58 0.57 0.0 0 1 95.42 125.30   L 95.42 103.90   A 0.44 0.43 -0.0 0 1 95.86 103.47   L 127.83 103.47   A 2.09 2.01 -57.0 0 0 128.73 103.26   Q 129.90 102.70 130.91 101.30   A 1.56 1.55 63.2 0 0 131.21 100.38   Q 131.21 99.43 130.16 97.58   C 125.64 89.60 118.48 82.92 109.49 80.48   Q 105.90 79.51 99.18 79.50   Q 72.20 79.50 62.75 79.68   Q 55.74 79.81 55.59 87.03   Q 55.40 96.19 55.58 111.23   A 0.80 0.80 0.0 0 1 54.91 112.03   Z" fill="#ffffff"/>
<path class="icon-shape" d="   M 124.71 98.11   A 0.43 0.43 0.0 0 1 124.35 98.78   L 95.91 98.78   A 0.68 0.68 0.0 0 1 95.23 98.10   L 95.23 85.17   A 0.62 0.62 0.0 0 1 95.85 84.55   Q 103.57 84.48 106.41 84.88   C 113.89 85.93 120.64 92.01 124.71 98.11   Z" fill="#ffffff"/>
<path class="icon-shape" d="   M 90.35 85.34   L 90.35 125.23   A 0.54 0.54 0.0 0 1 89.81 125.77   L 72.78 125.77   A 0.72 0.71 -6.0 0 1 72.08 125.21   Q 70.07 115.74 61.19 112.66   A 0.73 0.73 0.0 0 1 60.70 111.97   L 60.70 85.77   A 0.99 0.98 -90.0 0 1 61.68 84.78   L 89.80 84.78   A 0.56 0.55 90.0 0 1 90.35 85.34   Z" fill="#ffffff"/>
<ellipse cx="0.00" cy="0.00" fill="#ffffff" rx="10.40" ry="10.16" transform="translate(56.52,127.43) rotate(-10.0)"/>
<ellipse cx="0.00" cy="0.00" fill="#ffffff" rx="10.34" ry="10.16" transform="translate(149.11,127.50) rotate(-175.4)"/>
</g><g id="onState" style="display:none"><g fill="none" stroke-linecap="butt" stroke-width="2.00">
<path class="icon-shape" d="   M 24.19 121.73   Q 25.03 128.82 31.76 130.63   A 0.80 0.30 24.7 0 0 31.89 130.64   L 40.68 130.64   A 0.78 0.77 81.3 0 1 41.42 131.19   C 43.71 138.57 50.10 143.36 57.81 142.70   C 64.19 142.14 69.99 137.32 71.38 131.09   A 0.58 0.57 6.3 0 1 71.94 130.65   L 133.76 130.65   A 0.26 0.25 -7.2 0 1 134.01 130.84   C 136.09 138.87 143.68 143.91 151.82 142.53   Q 160.82 140.99 164.21 131.23   A 0.79 0.78 7.7 0 1 164.91 130.70   C 170.74 130.35 180.43 133.05 180.33 123.04   C 180.24 113.27 178.95 99.47 167.29 96.51   Q 161.61 95.07 147.96 92.82   Q 143.80 92.13 141.20 90.05   Q 134.33 84.54 122.69 74.43   Q 121.64 73.52 119.15 71.76   Q 116.90 70.17 115.71 68.95" stroke="#808080" vector-effect="non-scaling-stroke"/>
<path class="icon-shape" d="   M 115.71 68.95   Q 111.89 44.52 91.83 31.41   C 66.57 14.90 31.94 20.75 14.39 45.87   C -0.93 67.81 0.89 96.36 18.81 116.69   Q 21.75 120.03 24.19 121.73" stroke="#fef6f6" vector-effect="non-scaling-stroke"/>
<path class="icon-shape" d="   M 115.71 68.95   Q 108.88 65.88 104.26 65.88   Q 45.32 65.90 41.50 66.01   Q 35.23 66.18 32.94 71.69   C 30.27 78.15 26.89 86.14 24.48 94.47   A 7.47 7.24 53.9 0 0 24.19 96.52   L 24.19 121.73" stroke="#7f7777" vector-effect="non-scaling-stroke"/>
<path class="icon-shape" d="   M 55.44 111.41   Q 55.49 109.05 55.38 90.73   C 55.35 84.44 56.09 79.53 63.25 79.53   Q 94.01 79.54 101.20 79.50   C 114.66 79.43 125.21 87.46 131.03 99.26   A 2.02 1.98 37.9 0 1 131.20 100.53   C 130.69 102.97 128.48 103.57 125.86 103.57   Q 112.20 103.53 96.06 103.54   A 0.57 0.57 0.0 0 0 95.49 104.11   L 95.49 125.33   A 0.35 0.35 0.0 0 0 95.84 125.68   L 132.97 125.68   A 0.70 0.70 0.0 0 0 133.65 125.13   C 135.72 115.35 145.85 108.94 155.32 113.40   Q 162.78 116.91 164.56 125.15   A 0.66 0.65 84.0 0 0 165.20 125.67   L 173.71 125.67   A 1.42 1.42 0.0 0 0 175.13 124.31   Q 175.45 116.93 173.35 108.87   Q 171.67 102.44 164.28 100.96   Q 156.02 99.31 149.88 98.40   C 143.87 97.51 139.82 95.90 135.69 92.30   Q 122.82 81.09 115.92 75.52   Q 112.38 72.67 106.14 70.98   A 2.57 2.52 52.0 0 0 105.47 70.89   L 41.22 70.89   A 1.90 1.89 37.0 0 0 40.71 70.96   Q 38.27 71.65 37.38 73.90   Q 33.08 84.78 30.02 92.88   A 11.15 11.00 56.1 0 0 29.32 96.59   Q 29.07 112.06 29.27 120.25   C 29.38 124.70 30.96 125.78 35.43 125.71   Q 39.35 125.64 40.47 125.64   A 0.87 0.82 17.1 0 0 41.12 125.32   Q 41.35 125.03 41.25 124.59   Q 41.13 124.09 41.35 123.44   Q 44.72 113.48 54.93 111.98   A 0.59 0.59 0.0 0 0 55.44 111.41" stroke="#808080" vector-effect="non-scaling-stroke"/>
<path class="icon-shape" d="   M 114.05 98.73   L 124.21 98.78   A 0.44 0.44 0.0 0 0 124.58 98.09   Q 121.33 93.14 116.50 89.38" stroke="#808080" vector-effect="non-scaling-stroke"/>
<path class="icon-shape" d="   M 116.50 89.38   C 110.44 84.84 103.77 84.03 95.83 84.59   A 0.60 0.60 0.0 0 0 95.26 85.19   L 95.26 98.06   A 0.67 0.66 90.0 0 0 95.92 98.73   L 114.05 98.73" stroke="#7f7777" vector-effect="non-scaling-stroke"/>
<path class="icon-shape" d="   M 116.50 89.38   L 114.05 98.73" stroke="#fef6f6" vector-effect="non-scaling-stroke"/>
<path class="icon-shape" d="   M 89.75 84.82   L 61.65 84.82   A 0.87 0.87 0.0 0 0 60.78 85.69   L 60.78 111.88   A 0.82 0.82 0.0 0 0 61.31 112.65   Q 70.21 115.83 72.08 125.11   A 0.71 0.70 -5.4 0 0 72.78 125.68   L 89.69 125.68   A 0.62 0.61 -90.0 0 0 90.30 125.06   L 90.30 85.37   A 0.55 0.55 0.0 0 0 89.75 84.82" stroke="#808080" vector-effect="non-scaling-stroke"/>
<path class="icon-shape" d="   M 66.7249 125.7123   A 10.36 10.09 -9.6 0 0 54.8273 117.4913   A 10.36 10.09 -9.6 0 0 46.2951 129.1677   A 10.36 10.09 -9.6 0 0 58.1927 137.3887   A 10.36 10.09 -9.6 0 0 66.7249 125.7123" stroke="#808080" vector-effect="non-scaling-stroke"/>
<path class="icon-shape" d="   M 138.8315 126.8347   A 10.31 10.12 -176.3 0 0 148.4669 137.5989   A 10.31 10.12 -176.3 0 0 159.4085 128.1653   A 10.31 10.12 -176.3 0 0 149.7731 117.4011   A 10.31 10.12 -176.3 0 0 138.8315 126.8347" stroke="#808080" vector-effect="non-scaling-stroke"/>
</g>
<path class="icon-shape" d="   M 229.00 0.00   L 229.00 204.00   L 0.00 204.00   L 0.00 0.00   L 229.00 0.00   Z   M 24.19 121.73   Q 25.03 128.82 31.76 130.63   A 0.80 0.30 24.7 0 0 31.89 130.64   L 40.68 130.64   A 0.78 0.77 81.3 0 1 41.42 131.19   C 43.71 138.57 50.10 143.36 57.81 142.70   C 64.19 142.14 69.99 137.32 71.38 131.09   A 0.58 0.57 6.3 0 1 71.94 130.65   L 133.76 130.65   A 0.26 0.25 -7.2 0 1 134.01 130.84   C 136.09 138.87 143.68 143.91 151.82 142.53   Q 160.82 140.99 164.21 131.23   A 0.79 0.78 7.7 0 1 164.91 130.70   C 170.74 130.35 180.43 133.05 180.33 123.04   C 180.24 113.27 178.95 99.47 167.29 96.51   Q 161.61 95.07 147.96 92.82   Q 143.80 92.13 141.20 90.05   Q 134.33 84.54 122.69 74.43   Q 121.64 73.52 119.15 71.76   Q 116.90 70.17 115.71 68.95   Q 111.89 44.52 91.83 31.41   C 66.57 14.90 31.94 20.75 14.39 45.87   C -0.93 67.81 0.89 96.36 18.81 116.69   Q 21.75 120.03 24.19 121.73   Z" fill="#ffffff"/>
<path class="icon-shape" d="   M 115.71 68.95   Q 108.88 65.88 104.26 65.88   Q 45.32 65.90 41.50 66.01   Q 35.23 66.18 32.94 71.69   C 30.27 78.15 26.89 86.14 24.48 94.47   A 7.47 7.24 53.9 0 0 24.19 96.52   L 24.19 121.73   Q 21.75 120.03 18.81 116.69   C 0.89 96.36 -0.93 67.81 14.39 45.87   C 31.94 20.75 66.57 14.90 91.83 31.41   Q 111.89 44.52 115.71 68.95   Z" fill="#fdedec"/>
<path class="icon-shape" d="   M 115.71 68.95   Q 116.90 70.17 119.15 71.76   Q 121.64 73.52 122.69 74.43   Q 134.33 84.54 141.20 90.05   Q 143.80 92.13 147.96 92.82   Q 161.61 95.07 167.29 96.51   C 178.95 99.47 180.24 113.27 180.33 123.04   C 180.43 133.05 170.74 130.35 164.91 130.70   A 0.79 0.78 7.7 0 0 164.21 131.23   Q 160.82 140.99 151.82 142.53   C 143.68 143.91 136.09 138.87 134.01 130.84   A 0.26 0.25 -7.2 0 0 133.76 130.65   L 71.94 130.65   A 0.58 0.57 6.3 0 0 71.38 131.09   C 69.99 137.32 64.19 142.14 57.81 142.70   C 50.10 143.36 43.71 138.57 41.42 131.19   A 0.78 0.77 81.3 0 0 40.68 130.64   L 31.89 130.64   A 0.80 0.30 24.7 0 1 31.76 130.63   Q 25.03 128.82 24.19 121.73   L 24.19 96.52   A 7.47 7.24 53.9 0 1 24.48 94.47   C 26.89 86.14 30.27 78.15 32.94 71.69   Q 35.23 66.18 41.50 66.01   Q 45.32 65.90 104.26 65.88   Q 108.88 65.88 115.71 68.95   Z   M 55.44 111.41   Q 55.49 109.05 55.38 90.73   C 55.35 84.44 56.09 79.53 63.25 79.53   Q 94.01 79.54 101.20 79.50   C 114.66 79.43 125.21 87.46 131.03 99.26   A 2.02 1.98 37.9 0 1 131.20 100.53   C 130.69 102.97 128.48 103.57 125.86 103.57   Q 112.20 103.53 96.06 103.54   A 0.57 0.57 0.0 0 0 95.49 104.11   L 95.49 125.33   A 0.35 0.35 0.0 0 0 95.84 125.68   L 132.97 125.68   A 0.70 0.70 0.0 0 0 133.65 125.13   C 135.72 115.35 145.85 108.94 155.32 113.40   Q 162.78 116.91 164.56 125.15   A 0.66 0.65 84.0 0 0 165.20 125.67   L 173.71 125.67   A 1.42 1.42 0.0 0 0 175.13 124.31   Q 175.45 116.93 173.35 108.87   Q 171.67 102.44 164.28 100.96   Q 156.02 99.31 149.88 98.40   C 143.87 97.51 139.82 95.90 135.69 92.30   Q 122.82 81.09 115.92 75.52   Q 112.38 72.67 106.14 70.98   A 2.57 2.52 52.0 0 0 105.47 70.89   L 41.22 70.89   A 1.90 1.89 37.0 0 0 40.71 70.96   Q 38.27 71.65 37.38 73.90   Q 33.08 84.78 30.02 92.88   A 11.15 11.00 56.1 0 0 29.32 96.59   Q 29.07 112.06 29.27 120.25   C 29.38 124.70 30.96 125.78 35.43 125.71   Q 39.35 125.64 40.47 125.64   A 0.87 0.82 17.1 0 0 41.12 125.32   Q 41.35 125.03 41.25 124.59   Q 41.13 124.09 41.35 123.44   Q 44.72 113.48 54.93 111.98   A 0.59 0.59 0.0 0 0 55.44 111.41   Z   M 114.05 98.73   L 124.21 98.78   A 0.44 0.44 0.0 0 0 124.58 98.09   Q 121.33 93.14 116.50 89.38   C 110.44 84.84 103.77 84.03 95.83 84.59   A 0.60 0.60 0.0 0 0 95.26 85.19   L 95.26 98.06   A 0.67 0.66 90.0 0 0 95.92 98.73   L 114.05 98.73   Z   M 89.75 84.82   L 61.65 84.82   A 0.87 0.87 0.0 0 0 60.78 85.69   L 60.78 111.88   A 0.82 0.82 0.0 0 0 61.31 112.65   Q 70.21 115.83 72.08 125.11   A 0.71 0.70 -5.4 0 0 72.78 125.68   L 89.69 125.68   A 0.62 0.61 -90.0 0 0 90.30 125.06   L 90.30 85.37   A 0.55 0.55 0.0 0 0 89.75 84.82   Z   M 66.7249 125.7123   A 10.36 10.09 -9.6 0 0 54.8273 117.4913   A 10.36 10.09 -9.6 0 0 46.2951 129.1677   A 10.36 10.09 -9.6 0 0 58.1927 137.3887   A 10.36 10.09 -9.6 0 0 66.7249 125.7123   Z   M 138.8315 126.8347   A 10.31 10.12 -176.3 0 0 148.4669 137.5989   A 10.31 10.12 -176.3 0 0 159.4085 128.1653   A 10.31 10.12 -176.3 0 0 149.7731 117.4011   A 10.31 10.12 -176.3 0 0 138.8315 126.8347   Z" fill="#010101"/>
<path class="icon-shape" d="   M 54.93 111.98   Q 44.72 113.48 41.35 123.44   Q 41.13 124.09 41.25 124.59   Q 41.35 125.03 41.12 125.32   A 0.87 0.82 17.1 0 1 40.47 125.64   Q 39.35 125.64 35.43 125.71   C 30.96 125.78 29.38 124.70 29.27 120.25   Q 29.07 112.06 29.32 96.59   A 11.15 11.00 56.1 0 1 30.02 92.88   Q 33.08 84.78 37.38 73.90   Q 38.27 71.65 40.71 70.96   A 1.90 1.89 37.0 0 1 41.22 70.89   L 105.47 70.89   A 2.57 2.52 52.0 0 1 106.14 70.98   Q 112.38 72.67 115.92 75.52   Q 122.82 81.09 135.69 92.30   C 139.82 95.90 143.87 97.51 149.88 98.40   Q 156.02 99.31 164.28 100.96   Q 171.67 102.44 173.35 108.87   Q 175.45 116.93 175.13 124.31   A 1.42 1.42 0.0 0 1 173.71 125.67   L 165.20 125.67   A 0.66 0.65 84.0 0 1 164.56 125.15   Q 162.78 116.91 155.32 113.40   C 145.85 108.94 135.72 115.35 133.65 125.13   A 0.70 0.70 0.0 0 1 132.97 125.68   L 95.84 125.68   A 0.35 0.35 0.0 0 1 95.49 125.33   L 95.49 104.11   A 0.57 0.57 0.0 0 1 96.06 103.54   Q 112.20 103.53 125.86 103.57   C 128.48 103.57 130.69 102.97 131.20 100.53   A 2.02 1.98 37.9 0 0 131.03 99.26   C 125.21 87.46 114.66 79.43 101.20 79.50   Q 94.01 79.54 63.25 79.53   C 56.09 79.53 55.35 84.44 55.38 90.73   Q 55.49 109.05 55.44 111.41   A 0.59 0.59 0.0 0 1 54.93 111.98   Z" fill="#ffffff"/>
<path class="icon-shape" d="   M 116.50 89.38   L 114.05 98.73   L 95.92 98.73   A 0.67 0.66 90.0 0 1 95.26 98.06   L 95.26 85.19   A 0.60 0.60 0.0 0 1 95.83 84.59   C 103.77 84.03 110.44 84.84 116.50 89.38   Z" fill="#fdedec"/>
<path class="icon-shape" d="   M 90.30 85.37   L 90.30 125.06   A 0.62 0.61 -90.0 0 1 89.69 125.68   L 72.78 125.68   A 0.71 0.70 -5.4 0 1 72.08 125.11   Q 70.21 115.83 61.31 112.65   A 0.82 0.82 0.0 0 1 60.78 111.88   L 60.78 85.69   A 0.87 0.87 0.0 0 1 61.65 84.82   L 89.75 84.82   A 0.55 0.55 0.0 0 1 90.30 85.37   Z" fill="#ffffff"/>
<path class="icon-shape" d="   M 116.50 89.38   Q 121.33 93.14 124.58 98.09   A 0.44 0.44 0.0 0 1 124.21 98.78   L 114.05 98.73   L 116.50 89.38   Z" fill="#ffffff"/>
<ellipse cx="0.00" cy="0.00" fill="#ffffff" rx="10.36" ry="10.09" transform="translate(56.51,127.44) rotate(-9.6)"/>
<ellipse cx="0.00" cy="0.00" fill="#ffffff" rx="10.31" ry="10.12" transform="translate(149.12,127.50) rotate(-176.3)"/>
</g></svg>