<?xml version="1.0" encoding="UTF-8" standalone="no"?>
<!DOCTYPE svg PUBLIC "-//W3C//DTD SVG 1.1//EN" "http://www.w3.org/Graphics/SVG/1.1/DTD/svg11.dtd">
<svg xmlns="http://www.w3.org/2000/svg" version="1.1" viewBox="0.00 0.00 130.00 136.00">
<path fill="#000000" d="
  M 64.32 22.55
  Q 69.15 22.55 72.74 23.09
  Q 80.20 24.22 87.56 27.79
  C 99.65 33.67 108.91 44.19 113.51 56.74
  C 120.49 75.76 115.20 96.25 101.51 110.87
  A 2.21 2.21 0.0 0 1 98.38 110.97
  L 98.29 110.89
  A 2.17 2.16 43.6 0 1 98.21 107.82
  C 123.99 80.92 112.00 37.75 75.91 28.31
  C 73.41 27.66 71.33 27.65 68.83 27.03
  A 3.93 3.77 49.6 0 0 67.76 26.92
  Q 67.56 26.93 64.32 26.93
  Q 61.09 26.93 60.88 26.92
  A 3.93 3.77 -49.6 0 0 59.81 27.03
  C 57.31 27.65 55.23 27.66 52.73 28.31
  C 16.64 37.75 4.65 80.92 30.43 107.82
  A 2.17 2.16 -43.6 0 1 30.35 110.89
  L 30.26 110.97
  A 2.21 2.21 0.0 0 1 27.13 110.87
  C 13.44 96.25 8.15 75.76 15.13 56.74
  C 19.73 44.19 28.99 33.67 41.08 27.79
  Q 48.44 24.22 55.91 23.09
  Q 59.50 22.55 64.32 22.55
  Z"
/>
<path fill="#000000" d="
  M 36.24 93.01
  Q 38.76 95.17 36.85 98.91
  Q 35.56 101.44 33.19 100.57
  A 2.07 2.02 80.5 0 1 32.29 99.91
  C 14.59 77.14 23.77 44.99 51.26 35.69
  Q 60.89 32.43 72.03 34.39
  Q 82.46 36.23 90.77 43.13
  Q 99.62 50.49 103.14 60.68
  Q 106.59 70.72 104.75 80.99
  Q 102.91 91.28 96.61 99.73
  A 2.62 2.61 31.3 0 1 93.38 100.51
  L 93.33 100.48
  A 1.83 1.83 0.0 0 1 92.66 97.75
  Q 99.69 88.20 100.79 77.62
  A 0.43 0.43 0.0 0 0 100.36 77.14
  L 95.34 77.14
  A 0.90 0.90 0.0 0 1 94.80 76.96
  Q 93.67 76.13 93.47 75.57
  A 2.42 2.37 71.2 0 1 94.97 72.44
  Q 96.78 71.88 100.05 72.34
  A 0.68 0.68 0.0 0 0 100.83 71.62
  Q 100.05 59.67 92.15 50.65
  A 0.66 0.66 0.0 0 0 91.11 50.70
  C 89.98 52.32 88.00 54.85 85.79 53.47
  A 1.99 1.77 33.0 0 1 85.07 50.84
  Q 86.37 48.96 88.09 47.80
  A 0.56 0.56 0.0 0 0 88.13 46.90
  Q 78.83 39.17 66.57 38.21
  A 0.55 0.55 0.0 0 0 65.98 38.83
  Q 66.27 40.95 66.12 43.00
  A 2.50 2.30 -77.6 0 1 62.94 45.22
  Q 62.56 45.07 61.80 44.21
  A 1.20 1.19 24.5 0 1 61.50 43.42
  L 61.50 38.76
  A 0.57 0.57 0.0 0 0 60.75 38.22
  Q 59.34 38.69 57.58 38.70
  A 1.64 1.20 27.2 0 0 57.33 38.74
  Q 47.90 41.09 40.90 46.80
  A 0.96 0.96 0.0 0 0 40.82 48.22
  L 43.15 50.55
  A 1.51 1.50 -45.1 0 1 43.15 52.68
  L 42.63 53.20
  A 2.17 2.16 44.9 0 1 39.56 53.20
  L 37.20 50.84
  A 0.60 0.60 0.0 0 0 36.32 50.87
  Q 28.51 60.07 27.70 71.83
  A 0.41 0.41 0.0 0 0 28.17 72.27
  C 30.29 72.00 34.02 71.72 34.81 74.19
  A 2.53 2.10 -11.2 0 1 32.54 76.98
  Q 29.79 77.29 28.51 77.04
  A 0.61 0.61 0.0 0 0 27.78 77.70
  Q 28.89 87.31 34.40 95.32
  A 0.52 0.52 0.0 0 0 35.34 94.94
  Q 35.15 93.81 35.52 93.14
  A 0.48 0.47 34.7 0 1 36.24 93.01
  Z"
/>
<path fill="#000000" d="
  M 70.56 66.43
  A 0.46 0.46 0.0 0 0 70.58 67.07
  L 70.92 67.41
  A 0.36 0.35 44.4 0 0 71.43 67.41
  L 79.66 58.94
  A 2.57 2.57 0.0 0 1 83.17 58.78
  L 83.44 59.01
  A 1.98 1.98 0.0 0 1 83.55 61.91
  L 75.53 69.93
  A 1.68 1.68 0.0 0 0 75.39 72.15
  C 79.52 77.46 78.98 84.63 74.91 89.70
  Q 70.38 95.34 62.65 95.61
  Q 55.66 95.86 50.20 90.30
  A 1.70 1.69 45.4 0 1 50.21 87.92
  L 50.92 87.22
  A 2.31 2.31 0.0 0 1 54.22 87.25
  Q 58.45 91.66 63.85 90.81
  C 71.89 89.54 75.30 82.61 72.39 75.01
  A 0.83 0.83 0.0 0 0 70.96 74.79
  C 67.73 78.89 63.42 83.87 58.31 83.46
  Q 54.35 83.14 53.07 78.52
  C 50.48 69.12 59.41 62.16 68.17 63.40
  Q 68.85 63.50 70.84 64.48
  A 0.71 0.71 0.0 0 1 71.21 65.31
  Q 71.06 65.88 70.56 66.43
  Z
  M 69.26 68.12
  Q 68.26 68.48 67.23 68.38
  Q 59.54 67.64 57.46 74.63
  C 57.10 75.81 57.44 76.94 57.91 77.95
  A 0.66 0.65 -27.5 0 0 58.85 78.24
  Q 64.21 75.10 69.96 69.22
  A 0.67 0.67 0.0 0 0 69.26 68.12
  Z"
/>
</svg>
