<?xml version="1.0" encoding="UTF-8" standalone="no"?>
<!DOCTYPE svg PUBLIC "-//W3C//DTD SVG 1.1//EN" "http://www.w3.org/Graphics/SVG/1.1/DTD/svg11.dtd">
<svg xmlns="http://www.w3.org/2000/svg" version="1.1" viewBox="0.00 0.00 130.00 136.00">
<path fill="#000000" d="
  M 96.19 105.11
  Q 97.44 115.30 87.30 117.92
  A 4.26 3.74 -48.7 0 1 86.46 118.03
  Q 83.46 118.05 48.56 118.12
  Q 42.13 118.13 39.73 116.94
  Q 35.21 114.69 33.90 109.66
  A 1.17 0.80 -61.0 0 1 33.88 109.45
  L 33.88 101.95
  A 1.34 1.33 11.2 0 0 33.05 100.72
  C 28.81 98.97 26.70 91.99 26.54 87.65
  Q 26.40 83.94 26.29 82.89
  Q 23.61 57.74 23.18 54.34
  Q 21.57 41.88 20.16 26.95
  Q 19.44 19.27 25.80 16.84
  A 3.59 3.57 30.0 0 1 26.67 16.61
  Q 26.75 16.60 34.01 16.50
  Q 38.47 16.44 40.23 17.71
  Q 42.82 19.57 43.66 22.56
  A 5.71 5.43 35.4 0 1 43.83 23.43
  Q 43.87 23.83 43.88 32.74
  C 43.88 35.92 43.24 37.97 41.28 40.13
  A 0.67 0.67 0.0 0 0 41.34 41.09
  Q 45.19 44.40 46.07 49.71
  Q 48.77 66.10 51.74 82.59
  A 0.61 0.60 84.8 0 0 52.33 83.09
  Q 87.92 83.11 92.76 83.07
  Q 102.03 83.00 104.99 91.17
  A 3.91 3.84 -57.5 0 1 105.20 92.16
  Q 105.83 101.43 96.80 104.17
  A 0.88 0.88 0.0 0 0 96.19 105.11
  Z
  M 24.50 23.65
  L 24.58 35.93
  A 2.83 2.83 0.0 0 0 27.43 38.74
  L 35.62 38.69
  A 4.55 4.34 89.6 0 0 39.93 34.11
  L 39.87 25.27
  A 4.55 4.34 89.6 0 0 35.50 20.75
  L 27.31 20.80
  A 2.83 2.83 0.0 0 0 24.50 23.65
  Z
  M 47.59 82.89
  Q 47.66 81.53 47.30 79.50
  Q 46.40 74.35 41.85 48.67
  Q 41.25 45.28 37.16 43.05
  A 3.14 3.01 -29.7 0 0 35.69 42.68
  L 26.27 42.68
  A 0.52 0.52 0.0 0 0 25.75 43.26
  Q 29.28 73.82 29.35 74.35
  Q 30.25 81.34 30.79 91.41
  A 0.61 0.61 0.0 0 0 31.98 91.56
  Q 35.34 80.77 47.13 83.24
  A 0.38 0.38 0.0 0 0 47.59 82.89
  Z
  M 50.0204 93.0184
  A 7.19 7.00 -5.2 0 0 42.2256 86.6988
  A 7.19 7.00 -5.2 0 0 35.6996 94.3216
  A 7.19 7.00 -5.2 0 0 43.4944 100.6412
  A 7.19 7.00 -5.2 0 0 50.0204 93.0184
  Z
  M 54.04 93.75
  Q 54.04 97.02 52.15 99.99
  A 0.27 0.27 0.0 0 0 52.39 100.41
  Q 58.75 100.31 91.84 100.43
  C 96.59 100.45 101.29 99.26 101.29 93.80
  C 101.30 88.34 96.61 87.15 91.86 87.15
  Q 58.76 87.20 52.40 87.09
  A 0.27 0.27 0.0 0 0 52.16 87.50
  Q 54.04 90.48 54.04 93.75
  Z
  M 92.20 104.45
  L 37.72 104.35
  A 0.24 0.24 0.0 0 0 37.48 104.59
  L 37.47 107.26
  A 6.77 6.31 0.1 0 0 44.23 113.58
  L 85.65 113.66
  A 6.77 6.31 0.1 0 0 92.43 107.36
  L 92.44 104.69
  A 0.24 0.24 0.0 0 0 92.20 104.45
  Z"
/>
<path fill="#000000" d="
  M 70.19 42.26
  C 91.73 41.77 107.71 54.96 110.42 76.52
  A 0.54 0.54 0.0 0 0 111.34 76.83
  L 114.69 73.48
  A 2.43 2.43 0.0 0 1 117.91 73.30
  L 118.11 73.46
  A 1.55 1.55 0.0 0 1 118.10 75.92
  Q 115.77 77.68 111.01 81.99
  Q 108.79 84.00 106.31 82.20
  Q 106.19 82.11 98.39 76.54
  A 1.97 1.96 34.6 0 1 97.89 73.85
  L 97.96 73.75
  A 1.85 1.84 34.7 0 1 100.63 73.27
  L 105.84 77.25
  A 0.56 0.56 0.0 0 0 106.73 76.69
  C 105.73 71.61 104.36 66.87 102.03 62.79
  C 94.97 50.48 83.79 46.51 69.79 45.97
  A 0.67 0.67 0.0 0 0 69.29 47.11
  L 75.79 53.61
  A 1.26 1.26 0.0 0 1 75.69 55.48
  L 75.28 55.82
  A 2.24 2.24 0.0 0 1 72.28 55.67
  L 62.62 46.01
  A 2.23 2.23 0.0 0 1 62.64 42.83
  L 72.80 33.00
  A 1.88 1.88 0.0 0 1 75.39 32.98
  L 75.47 33.05
  A 1.83 1.82 44.0 0 1 75.52 35.74
  L 69.77 41.25
  A 0.59 0.59 0.0 0 0 70.19 42.26
  Z"
/>
</svg>
