<?xml version="1.0" encoding="UTF-8" standalone="no"?>
<!DOCTYPE svg PUBLIC "-//W3C//DTD SVG 1.1//EN" "http://www.w3.org/Graphics/SVG/1.1/DTD/svg11.dtd">
<svg xmlns="http://www.w3.org/2000/svg" version="1.1" viewBox="0.00 0.00 229.00 212.00">
<g stroke-width="2.00" fill="none" stroke-linecap="butt">
<path stroke="#fef6f6" vector-effect="non-scaling-stroke" d="
  M 0.00 83.79
  C 3.78 118.83 34.26 141.51 68.95 134.68"
/>
<path stroke="#808080" vector-effect="non-scaling-stroke" d="
  M 68.95 134.68
  L 68.94 159.32
  A 2.67 2.44 36.4 0 0 69.13 160.28
  Q 69.83 161.98 71.37 163.64
  Q 75.86 168.48 78.86 171.79
  C 82.88 176.24 84.99 173.54 88.34 169.99
  Q 94.30 163.70 94.86 163.11
  C 97.24 160.62 97.26 156.50 96.91 153.16
  C 96.60 150.20 92.70 146.09 91.14 143.67
  A 1.04 1.03 -46.4 0 1 91.12 142.59
  Q 91.47 142.02 96.12 134.85
  Q 98.25 131.57 96.19 128.59
  Q 94.25 125.78 92.45 122.79"
/>
<path stroke="#fef6f6" vector-effect="non-scaling-stroke" d="
  M 92.45 122.79
  C 102.59 114.74 110.79 101.56 111.71 88.40"
/>
<path stroke="#808080" vector-effect="non-scaling-stroke" d="
  M 111.71 88.40
  C 121.43 76.04 123.11 60.02 115.48 46.34
  Q 111.39 39.00 104.81 34.19
  Q 92.83 25.43 77.20 27.23"
/>
<path stroke="#fef6f6" vector-effect="non-scaling-stroke" d="
  M 77.20 27.23
  Q 59.64 20.44 42.91 24.65
  C 18.96 30.66 2.82 50.36 0.00 75.09"
/>
<path stroke="#7f7777" vector-effect="non-scaling-stroke" d="
  M 77.20 27.23
  Q 67.23 29.16 60.46 34.45
  C 49.84 42.74 44.59 54.80 45.89 68.40
  C 47.28 82.84 55.57 92.55 68.50 99.32
  A 0.86 0.84 14.0 0 1 68.96 100.07
  L 68.95 134.68"
/>
<path stroke="#7f7777" vector-effect="non-scaling-stroke" d="
  M 111.71 88.40
  Q 107.51 93.42 101.97 96.66
  Q 101.19 97.11 97.27 99.46
  A 0.89 0.88 -16.7 0 0 96.84 100.25
  Q 97.11 107.02 96.87 113.72
  C 96.76 116.93 94.40 118.87 92.29 120.64
  Q 91.71 121.13 91.78 121.75
  Q 91.86 122.33 92.45 122.79"
/>
<path stroke="#808080" vector-effect="non-scaling-stroke" d="
  M 83.36 167.53
  L 91.29 159.16
  A 1.35 1.34 -18.3 0 0 91.65 158.45
  Q 92.38 154.37 90.68 152.08
  Q 86.35 146.23 85.01 144.16
  A 1.67 1.67 0.0 0 1 85.02 142.31
  L 91.76 132.34
  A 0.59 0.59 0.0 0 0 91.78 131.71
  Q 89.14 127.24 86.60 123.26
  Q 84.98 120.70 86.61 119.01
  Q 88.27 117.28 91.27 114.44
  A 1.67 1.65 68.6 0 0 91.79 113.23
  L 91.79 98.40
  A 3.79 3.78 78.7 0 1 94.11 94.91
  C 105.30 90.25 113.71 80.10 114.93 67.98
  C 117.11 46.11 97.25 28.41 76.05 32.91
  Q 65.61 35.13 58.30 43.90
  C 43.74 61.35 50.99 85.84 71.37 94.65
  Q 74.01 95.79 74.01 97.77
  Q 74.08 135.93 73.93 156.76
  Q 73.92 158.46 75.32 159.99
  Q 81.37 166.61 82.51 167.58
  A 0.62 0.62 0.0 0 0 83.36 167.53"
/>
<path stroke="#808080" vector-effect="non-scaling-stroke" d="
  M 94.8982 48.9481
  A 12.58 12.22 -16.4 0 0 79.3798 40.7772
  A 12.58 12.22 -16.4 0 0 70.7618 56.0519
  A 12.58 12.22 -16.4 0 0 86.2802 64.2228
  A 12.58 12.22 -16.4 0 0 94.8982 48.9481"
/>
<path stroke="#7f7777" vector-effect="non-scaling-stroke" d="
  M 90.0061 51.0690
  A 7.29 6.86 -11.0 0 0 81.5411 45.7260
  A 7.29 6.86 -11.0 0 0 75.6939 53.8510
  A 7.29 6.86 -11.0 0 0 84.1589 59.1940
  A 7.29 6.86 -11.0 0 0 90.0061 51.0690"
/>
</g>
<path fill="#ffffff" d="
  M 229.00 0.00
  L 229.00 212.00
  L 0.00 212.00
  L 0.00 83.79
  C 3.78 118.83 34.26 141.51 68.95 134.68
  L 68.94 159.32
  A 2.67 2.44 36.4 0 0 69.13 160.28
  Q 69.83 161.98 71.37 163.64
  Q 75.86 168.48 78.86 171.79
  C 82.88 176.24 84.99 173.54 88.34 169.99
  Q 94.30 163.70 94.86 163.11
  C 97.24 160.62 97.26 156.50 96.91 153.16
  C 96.60 150.20 92.70 146.09 91.14 143.67
  A 1.04 1.03 -46.4 0 1 91.12 142.59
  Q 91.47 142.02 96.12 134.85
  Q 98.25 131.57 96.19 128.59
  Q 94.25 125.78 92.45 122.79
  C 102.59 114.74 110.79 101.56 111.71 88.40
  C 121.43 76.04 123.11 60.02 115.48 46.34
  Q 111.39 39.00 104.81 34.19
  Q 92.83 25.43 77.20 27.23
  Q 59.64 20.44 42.91 24.65
  C 18.96 30.66 2.82 50.36 0.00 75.09
  L 0.00 0.00
  L 229.00 0.00
  Z"
/>
<path fill="#fdedec" d="
  M 77.20 27.23
  Q 67.23 29.16 60.46 34.45
  C 49.84 42.74 44.59 54.80 45.89 68.40
  C 47.28 82.84 55.57 92.55 68.50 99.32
  A 0.86 0.84 14.0 0 1 68.96 100.07
  L 68.95 134.68
  C 34.26 141.51 3.78 118.83 0.00 83.79
  L 0.00 75.09
  C 2.82 50.36 18.96 30.66 42.91 24.65
  Q 59.64 20.44 77.20 27.23
  Z"
/>
<path fill="#010101" d="
  M 111.71 88.40
  Q 107.51 93.42 101.97 96.66
  Q 101.19 97.11 97.27 99.46
  A 0.89 0.88 -16.7 0 0 96.84 100.25
  Q 97.11 107.02 96.87 113.72
  C 96.76 116.93 94.40 118.87 92.29 120.64
  Q 91.71 121.13 91.78 121.75
  Q 91.86 122.33 92.45 122.79
  Q 94.25 125.78 96.19 128.59
  Q 98.25 131.57 96.12 134.85
  Q 91.47 142.02 91.12 142.59
  A 1.04 1.03 -46.4 0 0 91.14 143.67
  C 92.70 146.09 96.60 150.20 96.91 153.16
  C 97.26 156.50 97.24 160.62 94.86 163.11
  Q 94.30 163.70 88.34 169.99
  C 84.99 173.54 82.88 176.24 78.86 171.79
  Q 75.86 168.48 71.37 163.64
  Q 69.83 161.98 69.13 160.28
  A 2.67 2.44 36.4 0 1 68.94 159.32
  L 68.95 134.68
  L 68.96 100.07
  A 0.86 0.84 14.0 0 0 68.50 99.32
  C 55.57 92.55 47.28 82.84 45.89 68.40
  C 44.59 54.80 49.84 42.74 60.46 34.45
  Q 67.23 29.16 77.20 27.23
  Q 92.83 25.43 104.81 34.19
  Q 111.39 39.00 115.48 46.34
  C 123.11 60.02 121.43 76.04 111.71 88.40
  Z
  M 83.36 167.53
  L 91.29 159.16
  A 1.35 1.34 -18.3 0 0 91.65 158.45
  Q 92.38 154.37 90.68 152.08
  Q 86.35 146.23 85.01 144.16
  A 1.67 1.67 0.0 0 1 85.02 142.31
  L 91.76 132.34
  A 0.59 0.59 0.0 0 0 91.78 131.71
  Q 89.14 127.24 86.60 123.26
  Q 84.98 120.70 86.61 119.01
  Q 88.27 117.28 91.27 114.44
  A 1.67 1.65 68.6 0 0 91.79 113.23
  L 91.79 98.40
  A 3.79 3.78 78.7 0 1 94.11 94.91
  C 105.30 90.25 113.71 80.10 114.93 67.98
  C 117.11 46.11 97.25 28.41 76.05 32.91
  Q 65.61 35.13 58.30 43.90
  C 43.74 61.35 50.99 85.84 71.37 94.65
  Q 74.01 95.79 74.01 97.77
  Q 74.08 135.93 73.93 156.76
  Q 73.92 158.46 75.32 159.99
  Q 81.37 166.61 82.51 167.58
  A 0.62 0.62 0.0 0 0 83.36 167.53
  Z"
/>
<path fill="#ffffff" d="
  M 82.51 167.58
  Q 81.37 166.61 75.32 159.99
  Q 73.92 158.46 73.93 156.76
  Q 74.08 135.93 74.01 97.77
  Q 74.01 95.79 71.37 94.65
  C 50.99 85.84 43.74 61.35 58.30 43.90
  Q 65.61 35.13 76.05 32.91
  C 97.25 28.41 117.11 46.11 114.93 67.98
  C 113.71 80.10 105.30 90.25 94.11 94.91
  A 3.79 3.78 78.7 0 0 91.79 98.40
  L 91.79 113.23
  A 1.67 1.65 68.6 0 1 91.27 114.44
  Q 88.27 117.28 86.61 119.01
  Q 84.98 120.70 86.60 123.26
  Q 89.14 127.24 91.78 131.71
  A 0.59 0.59 0.0 0 1 91.76 132.34
  L 85.02 142.31
  A 1.67 1.67 0.0 0 0 85.01 144.16
  Q 86.35 146.23 90.68 152.08
  Q 92.38 154.37 91.65 158.45
  A 1.35 1.34 -18.3 0 1 91.29 159.16
  L 83.36 167.53
  A 0.62 0.62 0.0 0 1 82.51 167.58
  Z
  M 94.8982 48.9481
  A 12.58 12.22 -16.4 0 0 79.3798 40.7772
  A 12.58 12.22 -16.4 0 0 70.7618 56.0519
  A 12.58 12.22 -16.4 0 0 86.2802 64.2228
  A 12.58 12.22 -16.4 0 0 94.8982 48.9481
  Z"
/>
<path fill="#010101" d="
  M 94.8982 48.9481
  A 12.58 12.22 -16.4 0 1 86.2802 64.2228
  A 12.58 12.22 -16.4 0 1 70.7618 56.0519
  A 12.58 12.22 -16.4 0 1 79.3798 40.7772
  A 12.58 12.22 -16.4 0 1 94.8982 48.9481
  Z
  M 90.0061 51.0690
  A 7.29 6.86 -11.0 0 0 81.5411 45.7260
  A 7.29 6.86 -11.0 0 0 75.6939 53.8510
  A 7.29 6.86 -11.0 0 0 84.1589 59.1940
  A 7.29 6.86 -11.0 0 0 90.0061 51.0690
  Z"
/>
<ellipse fill="#fdedec" cx="0.00" cy="0.00" transform="translate(82.85,52.46) rotate(-11.0)" rx="7.29" ry="6.86"/>
<path fill="#fdedec" d="
  M 111.71 88.40
  C 110.79 101.56 102.59 114.74 92.45 122.79
  Q 91.86 122.33 91.78 121.75
  Q 91.71 121.13 92.29 120.64
  C 94.40 118.87 96.76 116.93 96.87 113.72
  Q 97.11 107.02 96.84 100.25
  A 0.89 0.88 -16.7 0 1 97.27 99.46
  Q 101.19 97.11 101.97 96.66
  Q 107.51 93.42 111.71 88.40
  Z"
/>
</svg>
