<?xml version="1.0" encoding="UTF-8" standalone="no"?>
<!DOCTYPE svg PUBLIC "-//W3C//DTD SVG 1.1//EN" "http://www.w3.org/Graphics/SVG/1.1/DTD/svg11.dtd">
<svg xmlns="http://www.w3.org/2000/svg" version="1.1" viewBox="0.00 0.00 229.00 197.00">
<g stroke-width="2.00" fill="none" stroke-linecap="butt">
<path stroke="#d9d8da" vector-effect="non-scaling-stroke" d="
  M 194.9603 37.3466
  A 1.92 1.92 0.0 0 0 192.7092 35.8282
  L 116.4761 50.6464
  A 1.92 1.92 0.0 0 0 114.9577 52.8975
  L 114.9997 53.1134
  A 1.92 1.92 0.0 0 0 117.2508 54.6318
  L 193.4839 39.8136
  A 1.92 1.92 0.0 0 0 195.0023 37.5625
  L 194.9603 37.3466"
/>
<path stroke="#d9d8da" vector-effect="non-scaling-stroke" d="
  M 78.12 47.48
  C 72.38 52.98 69.31 59.84 69.73 67.88
  A 2.29 2.28 -1.5 0 0 72.01 70.04
  L 72.04 70.04
  A 2.23 2.23 0.0 0 0 74.27 67.89
  C 74.54 60.37 75.89 55.78 81.20 50.70
  C 86.50 45.61 91.15 44.45 98.67 44.50
  A 2.23 2.23 0.0 0 0 100.91 42.36
  L 100.91 42.33
  A 2.29 2.28 -86.1 0 0 98.84 39.96
  C 90.83 39.20 83.85 41.99 78.12 47.48"
/>
<path stroke="#d9d8da" vector-effect="non-scaling-stroke" d="
  M 85.72 55.79
  Q 81.72 59.61 80.27 66.51
  Q 79.65 69.46 81.72 70.43
  A 2.14 2.03 -75.0 0 0 84.62 68.66
  Q 85.28 62.33 88.78 58.98
  Q 92.28 55.64 98.63 55.25
  A 2.14 2.03 -12.5 0 0 100.53 52.43
  Q 99.65 50.32 96.68 50.81
  Q 89.72 51.96 85.72 55.79"
/>
<path stroke="#d9d8da" vector-effect="non-scaling-stroke" d="
  M 118.48 146.18
  Q 127.14 146.19 136.25 146.27
  Q 138.59 146.29 140.50 146.09
  A 2.06 2.05 89.8 0 0 142.32 144.25
  Q 142.53 142.07 142.53 137.99
  C 142.53 135.26 141.37 134.25 138.74 134.15
  Q 135.71 134.02 129.23 134.17
  A 0.53 0.53 0.0 0 1 128.69 133.64
  L 128.69 118.85
  A 0.48 0.47 90.0 0 1 129.16 118.37
  L 151.71 118.42
  A 1.62 1.40 -49.1 0 0 152.13 118.36
  C 158.17 116.79 157.68 112.27 156.12 106.90
  Q 146.06 72.43 144.25 67.00
  Q 142.91 62.96 139.55 62.90
  Q 136.38 62.85 118.58 62.83
  Q 100.78 62.81 97.61 62.85
  Q 94.25 62.90 92.90 66.94
  Q 91.07 72.36 80.93 106.81
  C 79.36 112.17 78.86 116.69 84.89 118.28
  A 1.62 1.40 49.2 0 0 85.31 118.34
  L 107.86 118.34
  A 0.48 0.47 -89.9 0 1 108.33 118.83
  L 108.29 133.62
  A 0.53 0.53 0.0 0 1 107.75 134.14
  Q 101.27 133.98 98.24 134.10
  C 95.61 134.19 94.45 135.20 94.44 137.93
  Q 94.43 142.01 94.64 144.19
  A 2.06 2.05 -89.7 0 0 96.45 146.04
  Q 98.36 146.24 100.70 146.23
  Q 109.81 146.17 118.48 146.18"
/>
<path stroke="#d9d8da" vector-effect="non-scaling-stroke" d="
  M 196.2176 144.6692
  A 1.96 1.96 0.0 0 0 194.6516 142.3821
  L 146.9006 133.4458
  A 1.96 1.96 0.0 0 0 144.6135 135.0118
  L 144.6024 135.0708
  A 1.96 1.96 0.0 0 0 146.1684 137.3579
  L 193.9194 146.2942
  A 1.96 1.96 0.0 0 0 196.2065 144.7282
  L 196.2176 144.6692"
/>
<path stroke="#d9d8da" vector-effect="non-scaling-stroke" d="
  M 140.51 68.62
  A 2.55 2.55 0.0 0 0 138.07 66.80
  L 99.06 66.80
  A 2.55 2.55 0.0 0 0 96.62 68.62
  L 84.03 111.04
  A 2.55 2.55 0.0 0 0 86.48 114.32
  L 150.74 114.32
  A 2.55 2.55 0.0 0 0 153.18 111.04
  L 140.51 68.62"
/>
<path stroke="#d9d8da" vector-effect="non-scaling-stroke" d="
  M 124.5729 118.9307
  A 0.36 0.36 0.0 0 0 124.2135 118.5700
  L 112.7335 118.5500
  A 0.36 0.36 0.0 0 0 112.3729 118.9094
  L 112.3471 133.6693
  A 0.36 0.36 0.0 0 0 112.7065 134.0300
  L 124.1865 134.0500
  A 0.36 0.36 0.0 0 0 124.5471 133.6906
  L 124.5729 118.9307"
/>
<path stroke="#d9d8da" vector-effect="non-scaling-stroke" d="
  M 138.04 139.17
  A 0.96 0.96 0.0 0 0 137.08 138.21
  L 99.22 138.21
  A 0.96 0.96 0.0 0 0 98.26 139.17
  L 98.26 141.57
  A 0.96 0.96 0.0 0 0 99.22 142.53
  L 137.08 142.53
  A 0.96 0.96 0.0 0 0 138.04 141.57
  L 138.04 139.17"
/>
<path stroke="#d9d8da" vector-effect="non-scaling-stroke" d="
  M 134.6681 83.1239
  A 7.26 7.26 0.0 0 0 127.3828 75.8893
  L 109.7229 75.9509
  A 7.26 7.26 0.0 0 0 102.4883 83.2362
  L 102.5319 95.7161
  A 7.26 7.26 0.0 0 0 109.8172 102.9507
  L 127.4771 102.8891
  A 7.26 7.26 0.0 0 0 134.7117 95.6038
  L 134.6681 83.1239"
/>
<path stroke="#d9d8da" vector-effect="non-scaling-stroke" d="
  M 130.23 83.83
  A 3.53 3.53 0.0 0 0 126.70 80.30
  L 110.30 80.30
  A 3.53 3.53 0.0 0 0 106.77 83.83
  L 106.77 95.09
  A 3.53 3.53 0.0 0 0 110.30 98.62
  L 126.70 98.62
  A 3.53 3.53 0.0 0 0 130.23 95.09
  L 130.23 83.83"
/>
</g>
<path fill="#ffffff" d="
  M 229.00 0.00
  L 229.00 197.00
  L 0.00 197.00
  L 0.00 0.00
  L 229.00 0.00
  Z
  M 194.9603 37.3466
  A 1.92 1.92 0.0 0 0 192.7092 35.8282
  L 116.4761 50.6464
  A 1.92 1.92 0.0 0 0 114.9577 52.8975
  L 114.9997 53.1134
  A 1.92 1.92 0.0 0 0 117.2508 54.6318
  L 193.4839 39.8136
  A 1.92 1.92 0.0 0 0 195.0023 37.5625
  L 194.9603 37.3466
  Z
  M 78.12 47.48
  C 72.38 52.98 69.31 59.84 69.73 67.88
  A 2.29 2.28 -1.5 0 0 72.01 70.04
  L 72.04 70.04
  A 2.23 2.23 0.0 0 0 74.27 67.89
  C 74.54 60.37 75.89 55.78 81.20 50.70
  C 86.50 45.61 91.15 44.45 98.67 44.50
  A 2.23 2.23 0.0 0 0 100.91 42.36
  L 100.91 42.33
  A 2.29 2.28 -86.1 0 0 98.84 39.96
  C 90.83 39.20 83.85 41.99 78.12 47.48
  Z
  M 85.72 55.79
  Q 81.72 59.61 80.27 66.51
  Q 79.65 69.46 81.72 70.43
  A 2.14 2.03 -75.0 0 0 84.62 68.66
  Q 85.28 62.33 88.78 58.98
  Q 92.28 55.64 98.63 55.25
  A 2.14 2.03 -12.5 0 0 100.53 52.43
  Q 99.65 50.32 96.68 50.81
  Q 89.72 51.96 85.72 55.79
  Z
  M 118.48 146.18
  Q 127.14 146.19 136.25 146.27
  Q 138.59 146.29 140.50 146.09
  A 2.06 2.05 89.8 0 0 142.32 144.25
  Q 142.53 142.07 142.53 137.99
  C 142.53 135.26 141.37 134.25 138.74 134.15
  Q 135.71 134.02 129.23 134.17
  A 0.53 0.53 0.0 0 1 128.69 133.64
  L 128.69 118.85
  A 0.48 0.47 90.0 0 1 129.16 118.37
  L 151.71 118.42
  A 1.62 1.40 -49.1 0 0 152.13 118.36
  C 158.17 116.79 157.68 112.27 156.12 106.90
  Q 146.06 72.43 144.25 67.00
  Q 142.91 62.96 139.55 62.90
  Q 136.38 62.85 118.58 62.83
  Q 100.78 62.81 97.61 62.85
  Q 94.25 62.90 92.90 66.94
  Q 91.07 72.36 80.93 106.81
  C 79.36 112.17 78.86 116.69 84.89 118.28
  A 1.62 1.40 49.2 0 0 85.31 118.34
  L 107.86 118.34
  A 0.48 0.47 -89.9 0 1 108.33 118.83
  L 108.29 133.62
  A 0.53 0.53 0.0 0 1 107.75 134.14
  Q 101.27 133.98 98.24 134.10
  C 95.61 134.19 94.45 135.20 94.44 137.93
  Q 94.43 142.01 94.64 144.19
  A 2.06 2.05 -89.7 0 0 96.45 146.04
  Q 98.36 146.24 100.70 146.23
  Q 109.81 146.17 118.48 146.18
  Z
  M 196.2176 144.6692
  A 1.96 1.96 0.0 0 0 194.6516 142.3821
  L 146.9006 133.4458
  A 1.96 1.96 0.0 0 0 144.6135 135.0118
  L 144.6024 135.0708
  A 1.96 1.96 0.0 0 0 146.1684 137.3579
  L 193.9194 146.2942
  A 1.96 1.96 0.0 0 0 196.2065 144.7282
  L 196.2176 144.6692
  Z"
/>
<rect fill="#b3b0b4" x="-40.75" y="-2.03" transform="translate(154.98,45.23) rotate(-11.0)" width="81.50" height="4.06" rx="1.92"/>
<path fill="#b3b0b4" d="
  M 81.20 50.70
  C 75.89 55.78 74.54 60.37 74.27 67.89
  A 2.23 2.23 0.0 0 1 72.04 70.04
  L 72.01 70.04
  A 2.29 2.28 -1.5 0 1 69.73 67.88
  C 69.31 59.84 72.38 52.98 78.12 47.48
  C 83.85 41.99 90.83 39.20 98.84 39.96
  A 2.29 2.28 -86.1 0 1 100.91 42.33
  L 100.91 42.36
  A 2.23 2.23 0.0 0 1 98.67 44.50
  C 91.15 44.45 86.50 45.61 81.20 50.70
  Z"
/>
<path fill="#b3b0b4" d="
  M 88.78 58.98
  Q 85.28 62.33 84.62 68.66
  A 2.14 2.03 -75.0 0 1 81.72 70.43
  Q 79.65 69.46 80.27 66.51
  Q 81.72 59.61 85.72 55.79
  Q 89.72 51.96 96.68 50.81
  Q 99.65 50.32 100.53 52.43
  A 2.14 2.03 -12.5 0 1 98.63 55.25
  Q 92.28 55.64 88.78 58.98
  Z"
/>
<path fill="#b3b0b4" d="
  M 118.58 62.83
  Q 136.38 62.85 139.55 62.90
  Q 142.91 62.96 144.25 67.00
  Q 146.06 72.43 156.12 106.90
  C 157.68 112.27 158.17 116.79 152.13 118.36
  A 1.62 1.40 -49.1 0 1 151.71 118.42
  L 129.16 118.37
  A 0.48 0.47 90.0 0 0 128.69 118.85
  L 128.69 133.64
  A 0.53 0.53 0.0 0 0 129.23 134.17
  Q 135.71 134.02 138.74 134.15
  C 141.37 134.25 142.53 135.26 142.53 137.99
  Q 142.53 142.07 142.32 144.25
  A 2.06 2.05 89.8 0 1 140.50 146.09
  Q 138.59 146.29 136.25 146.27
  Q 127.14 146.19 118.48 146.18
  Q 109.81 146.17 100.70 146.23
  Q 98.36 146.24 96.45 146.04
  A 2.06 2.05 -89.7 0 1 94.64 144.19
  Q 94.43 142.01 94.44 137.93
  C 94.45 135.20 95.61 134.19 98.24 134.10
  Q 101.27 133.98 107.75 134.14
  A 0.53 0.53 0.0 0 0 108.29 133.62
  L 108.33 118.83
  A 0.48 0.47 -89.9 0 0 107.86 118.34
  L 85.31 118.34
  A 1.62 1.40 49.2 0 1 84.89 118.28
  C 78.86 116.69 79.36 112.17 80.93 106.81
  Q 91.07 72.36 92.90 66.94
  Q 94.25 62.90 97.61 62.85
  Q 100.78 62.81 118.58 62.83
  Z
  M 140.51 68.62
  A 2.55 2.55 0.0 0 0 138.07 66.80
  L 99.06 66.80
  A 2.55 2.55 0.0 0 0 96.62 68.62
  L 84.03 111.04
  A 2.55 2.55 0.0 0 0 86.48 114.32
  L 150.74 114.32
  A 2.55 2.55 0.0 0 0 153.18 111.04
  L 140.51 68.62
  Z
  M 124.5729 118.9307
  A 0.36 0.36 0.0 0 0 124.2135 118.5700
  L 112.7335 118.5500
  A 0.36 0.36 0.0 0 0 112.3729 118.9094
  L 112.3471 133.6693
  A 0.36 0.36 0.0 0 0 112.7065 134.0300
  L 124.1865 134.0500
  A 0.36 0.36 0.0 0 0 124.5471 133.6906
  L 124.5729 118.9307
  Z
  M 138.04 139.17
  A 0.96 0.96 0.0 0 0 137.08 138.21
  L 99.22 138.21
  A 0.96 0.96 0.0 0 0 98.26 139.17
  L 98.26 141.57
  A 0.96 0.96 0.0 0 0 99.22 142.53
  L 137.08 142.53
  A 0.96 0.96 0.0 0 0 138.04 141.57
  L 138.04 139.17
  Z"
/>
<path fill="#ffffff" d="
  M 140.51 68.62
  L 153.18 111.04
  A 2.55 2.55 0.0 0 1 150.74 114.32
  L 86.48 114.32
  A 2.55 2.55 0.0 0 1 84.03 111.04
  L 96.62 68.62
  A 2.55 2.55 0.0 0 1 99.06 66.80
  L 138.07 66.80
  A 2.55 2.55 0.0 0 1 140.51 68.62
  Z
  M 134.6681 83.1239
  A 7.26 7.26 0.0 0 0 127.3828 75.8893
  L 109.7229 75.9509
  A 7.26 7.26 0.0 0 0 102.4883 83.2362
  L 102.5319 95.7161
  A 7.26 7.26 0.0 0 0 109.8172 102.9507
  L 127.4771 102.8891
  A 7.26 7.26 0.0 0 0 134.7117 95.6038
  L 134.6681 83.1239
  Z"
/>
<path fill="#b3b0b4" d="
  M 134.7117 95.6038
  A 7.26 7.26 0.0 0 1 127.4771 102.8891
  L 109.8172 102.9507
  A 7.26 7.26 0.0 0 1 102.5319 95.7161
  L 102.4883 83.2362
  A 7.26 7.26 0.0 0 1 109.7229 75.9509
  L 127.3828 75.8893
  A 7.26 7.26 0.0 0 1 134.6681 83.1239
  L 134.7117 95.6038
  Z
  M 130.23 83.83
  A 3.53 3.53 0.0 0 0 126.70 80.30
  L 110.30 80.30
  A 3.53 3.53 0.0 0 0 106.77 83.83
  L 106.77 95.09
  A 3.53 3.53 0.0 0 0 110.30 98.62
  L 126.70 98.62
  A 3.53 3.53 0.0 0 0 130.23 95.09
  L 130.23 83.83
  Z"
/>
<rect fill="#ffffff" x="106.77" y="80.30" width="23.46" height="18.32" rx="3.53"/>
<rect fill="#ffffff" x="-6.10" y="-7.74" transform="translate(118.46,126.30) rotate(0.1)" width="12.20" height="15.48" rx="0.36"/>
<rect fill="#b3b0b4" x="-26.25" y="-1.99" transform="translate(170.41,139.87) rotate(10.6)" width="52.50" height="3.98" rx="1.96"/>
<rect fill="#ffffff" x="98.26" y="138.21" width="39.78" height="4.32" rx="0.96"/>
</svg>
