<?xml version="1.0" encoding="UTF-8" standalone="no"?>
<!DOCTYPE svg PUBLIC "-//W3C//DTD SVG 1.1//EN" "http://www.w3.org/Graphics/SVG/1.1/DTD/svg11.dtd">
<svg xmlns="http://www.w3.org/2000/svg" version="1.1" viewBox="0.00 0.00 209.00 204.00">
<g stroke-width="2.00" fill="none" stroke-linecap="butt">
<path stroke="#d9d7d9" vector-effect="non-scaling-stroke" d="
  M 100.01 162.08
  Q 116.75 162.09 134.24 162.14
  Q 141.21 162.15 143.10 160.92
  Q 146.67 158.59 145.67 152.79
  Q 144.61 146.60 136.09 96.39
  Q 135.07 90.36 128.26 88.44
  A 2.88 2.82 -36.1 0 0 127.44 88.32
  L 112.90 88.25
  A 0.31 0.31 0.0 0 1 112.59 87.94
  L 112.59 83.88
  A 0.21 0.21 0.0 0 1 112.81 83.67
  Q 119.64 84.14 122.65 79.45
  Q 124.28 76.89 124.01 70.79
  Q 123.96 69.83 123.97 60.39
  A 3.48 3.11 41.8 0 0 123.89 59.67
  Q 122.22 52.17 114.51 51.68
  Q 114.36 51.67 100.12 51.66
  Q 85.87 51.64 85.72 51.65
  Q 78.01 52.13 76.33 59.63
  A 3.48 3.11 -41.7 0 0 76.25 60.34
  Q 76.24 69.78 76.19 70.74
  Q 75.90 76.84 77.53 79.41
  Q 80.53 84.10 87.36 83.65
  A 0.21 0.21 0.0 0 1 87.58 83.86
  L 87.57 87.92
  A 0.31 0.31 0.0 0 1 87.26 88.23
  L 72.72 88.27
  A 2.88 2.82 36.2 0 0 71.90 88.39
  Q 65.09 90.29 64.06 96.32
  Q 55.44 146.52 54.37 152.70
  Q 53.36 158.50 56.93 160.84
  Q 58.81 162.07 65.78 162.07
  Q 83.28 162.06 100.01 162.08"
/>
<path stroke="#d9d7d9" vector-effect="non-scaling-stroke" d="
  M 118.8622 60.6130
  A 4.25 4.25 0.0 0 0 114.6196 56.3556
  L 85.3197 56.3044
  A 4.25 4.25 0.0 0 0 81.0622 60.5470
  L 81.0378 74.5470
  A 4.25 4.25 0.0 0 0 85.2804 78.8044
  L 114.5803 78.8556
  A 4.25 4.25 0.0 0 0 118.8378 74.6130
  L 118.8622 60.6130"
/>
<path stroke="#d9d7d9" vector-effect="non-scaling-stroke" d="
  M 107.6277 84.5501
  A 0.66 0.66 0.0 0 0 106.9712 83.8866
  L 92.9914 83.8134
  A 0.66 0.66 0.0 0 0 92.3279 84.4700
  L 92.3123 87.4499
  A 0.66 0.66 0.0 0 0 92.9688 88.1134
  L 106.9486 88.1866
  A 0.66 0.66 0.0 0 0 107.6121 87.5300
  L 107.6277 84.5501"
/>
<path stroke="#d9d7d9" vector-effect="non-scaling-stroke" d="
  M 100.04 157.36
  Q 119.81 157.35 139.51 157.14
  A 1.71 1.70 -5.2 0 0 141.18 155.15
  Q 133.33 109.49 131.63 99.05
  C 131.00 95.23 129.79 93.29 125.75 93.33
  Q 112.61 93.43 99.99 93.44
  Q 87.37 93.45 74.23 93.37
  C 70.19 93.34 68.98 95.28 68.36 99.10
  Q 66.68 109.54 58.90 155.22
  A 1.71 1.70 5.1 0 0 60.57 157.21
  Q 80.27 157.38 100.04 157.36"
/>
<path stroke="#d9d7d9" vector-effect="non-scaling-stroke" d="
  M 123.58 111.10
  A 9.84 9.84 0.0 0 0 113.74 101.26
  L 86.22 101.26
  A 9.84 9.84 0.0 0 0 76.38 111.10
  L 76.38 126.84
  A 9.84 9.84 0.0 0 0 86.22 136.68
  L 113.74 136.68
  A 9.84 9.84 0.0 0 0 123.58 126.84
  L 123.58 111.10"
/>
<path stroke="#d9d7d9" vector-effect="non-scaling-stroke" d="
  M 118.41 110.81
  A 4.72 4.72 0.0 0 0 113.69 106.09
  L 86.15 106.09
  A 4.72 4.72 0.0 0 0 81.43 110.81
  L 81.43 126.99
  A 4.72 4.72 0.0 0 0 86.15 131.71
  L 113.69 131.71
  A 4.72 4.72 0.0 0 0 118.41 126.99
  L 118.41 110.81"
/>
</g>
<path fill="#ffffff" d="
  M 209.00 0.00
  L 209.00 204.00
  L 0.00 204.00
  L 0.00 0.00
  L 209.00 0.00
  Z
  M 100.01 162.08
  Q 116.75 162.09 134.24 162.14
  Q 141.21 162.15 143.10 160.92
  Q 146.67 158.59 145.67 152.79
  Q 144.61 146.60 136.09 96.39
  Q 135.07 90.36 128.26 88.44
  A 2.88 2.82 -36.1 0 0 127.44 88.32
  L 112.90 88.25
  A 0.31 0.31 0.0 0 1 112.59 87.94
  L 112.59 83.88
  A 0.21 0.21 0.0 0 1 112.81 83.67
  Q 119.64 84.14 122.65 79.45
  Q 124.28 76.89 124.01 70.79
  Q 123.96 69.83 123.97 60.39
  A 3.48 3.11 41.8 0 0 123.89 59.67
  Q 122.22 52.17 114.51 51.68
  Q 114.36 51.67 100.12 51.66
  Q 85.87 51.64 85.72 51.65
  Q 78.01 52.13 76.33 59.63
  A 3.48 3.11 -41.7 0 0 76.25 60.34
  Q 76.24 69.78 76.19 70.74
  Q 75.90 76.84 77.53 79.41
  Q 80.53 84.10 87.36 83.65
  A 0.21 0.21 0.0 0 1 87.58 83.86
  L 87.57 87.92
  A 0.31 0.31 0.0 0 1 87.26 88.23
  L 72.72 88.27
  A 2.88 2.82 36.2 0 0 71.90 88.39
  Q 65.09 90.29 64.06 96.32
  Q 55.44 146.52 54.37 152.70
  Q 53.36 158.50 56.93 160.84
  Q 58.81 162.07 65.78 162.07
  Q 83.28 162.06 100.01 162.08
  Z"
/>
<path fill="#b2afb3" d="
  M 100.12 51.66
  Q 114.36 51.67 114.51 51.68
  Q 122.22 52.17 123.89 59.67
  A 3.48 3.11 41.8 0 1 123.97 60.39
  Q 123.96 69.83 124.01 70.79
  Q 124.28 76.89 122.65 79.45
  Q 119.64 84.14 112.81 83.67
  A 0.21 0.21 0.0 0 0 112.59 83.88
  L 112.59 87.94
  A 0.31 0.31 0.0 0 0 112.90 88.25
  L 127.44 88.32
  A 2.88 2.82 -36.1 0 1 128.26 88.44
  Q 135.07 90.36 136.09 96.39
  Q 144.61 146.60 145.67 152.79
  Q 146.67 158.59 143.10 160.92
  Q 141.21 162.15 134.24 162.14
  Q 116.75 162.09 100.01 162.08
  Q 83.28 162.06 65.78 162.07
  Q 58.81 162.07 56.93 160.84
  Q 53.36 158.50 54.37 152.70
  Q 55.44 146.52 64.06 96.32
  Q 65.09 90.29 71.90 88.39
  A 2.88 2.82 36.2 0 1 72.72 88.27
  L 87.26 88.23
  A 0.31 0.31 0.0 0 0 87.57 87.92
  L 87.58 83.86
  A 0.21 0.21 0.0 0 0 87.36 83.65
  Q 80.53 84.10 77.53 79.41
  Q 75.90 76.84 76.19 70.74
  Q 76.24 69.78 76.25 60.34
  A 3.48 3.11 -41.7 0 1 76.33 59.63
  Q 78.01 52.13 85.72 51.65
  Q 85.87 51.64 100.12 51.66
  Z
  M 118.8622 60.6130
  A 4.25 4.25 0.0 0 0 114.6196 56.3556
  L 85.3197 56.3044
  A 4.25 4.25 0.0 0 0 81.0622 60.5470
  L 81.0378 74.5470
  A 4.25 4.25 0.0 0 0 85.2804 78.8044
  L 114.5803 78.8556
  A 4.25 4.25 0.0 0 0 118.8378 74.6130
  L 118.8622 60.6130
  Z
  M 107.6277 84.5501
  A 0.66 0.66 0.0 0 0 106.9712 83.8866
  L 92.9914 83.8134
  A 0.66 0.66 0.0 0 0 92.3279 84.4700
  L 92.3123 87.4499
  A 0.66 0.66 0.0 0 0 92.9688 88.1134
  L 106.9486 88.1866
  A 0.66 0.66 0.0 0 0 107.6121 87.5300
  L 107.6277 84.5501
  Z
  M 100.04 157.36
  Q 119.81 157.35 139.51 157.14
  A 1.71 1.70 -5.2 0 0 141.18 155.15
  Q 133.33 109.49 131.63 99.05
  C 131.00 95.23 129.79 93.29 125.75 93.33
  Q 112.61 93.43 99.99 93.44
  Q 87.37 93.45 74.23 93.37
  C 70.19 93.34 68.98 95.28 68.36 99.10
  Q 66.68 109.54 58.90 155.22
  A 1.71 1.70 5.1 0 0 60.57 157.21
  Q 80.27 157.38 100.04 157.36
  Z"
/>
<rect fill="#ffffff" x="-18.90" y="-11.25" transform="translate(99.95,67.58) rotate(0.1)" width="37.80" height="22.50" rx="4.25"/>
<rect fill="#ffffff" x="-7.65" y="-2.15" transform="translate(99.97,86.00) rotate(0.3)" width="15.30" height="4.30" rx="0.66"/>
<path fill="#ffffff" d="
  M 99.99 93.44
  Q 112.61 93.43 125.75 93.33
  C 129.79 93.29 131.00 95.23 131.63 99.05
  Q 133.33 109.49 141.18 155.15
  A 1.71 1.70 -5.2 0 1 139.51 157.14
  Q 119.81 157.35 100.04 157.36
  Q 80.27 157.38 60.57 157.21
  A 1.71 1.70 5.1 0 1 58.90 155.22
  Q 66.68 109.54 68.36 99.10
  C 68.98 95.28 70.19 93.34 74.23 93.37
  Q 87.37 93.45 99.99 93.44
  Z
  M 123.58 111.10
  A 9.84 9.84 0.0 0 0 113.74 101.26
  L 86.22 101.26
  A 9.84 9.84 0.0 0 0 76.38 111.10
  L 76.38 126.84
  A 9.84 9.84 0.0 0 0 86.22 136.68
  L 113.74 136.68
  A 9.84 9.84 0.0 0 0 123.58 126.84
  L 123.58 111.10
  Z"
/>
<path fill="#b2afb3" d="
  M 123.58 126.84
  A 9.84 9.84 0.0 0 1 113.74 136.68
  L 86.22 136.68
  A 9.84 9.84 0.0 0 1 76.38 126.84
  L 76.38 111.10
  A 9.84 9.84 0.0 0 1 86.22 101.26
  L 113.74 101.26
  A 9.84 9.84 0.0 0 1 123.58 111.10
  L 123.58 126.84
  Z
  M 118.41 110.81
  A 4.72 4.72 0.0 0 0 113.69 106.09
  L 86.15 106.09
  A 4.72 4.72 0.0 0 0 81.43 110.81
  L 81.43 126.99
  A 4.72 4.72 0.0 0 0 86.15 131.71
  L 113.69 131.71
  A 4.72 4.72 0.0 0 0 118.41 126.99
  L 118.41 110.81
  Z"
/>
<rect fill="#ffffff" x="81.43" y="106.09" width="36.98" height="25.62" rx="4.72"/>
</svg>
