<?xml version="1.0" encoding="UTF-8" standalone="no"?>
<!DOCTYPE svg PUBLIC "-//W3C//DTD SVG 1.1//EN" "http://www.w3.org/Graphics/SVG/1.1/DTD/svg11.dtd">
<svg xmlns="http://www.w3.org/2000/svg" version="1.1" viewBox="0.00 0.00 229.00 209.00">
<g stroke-width="2.00" fill="none" stroke-linecap="butt">
<path stroke="#d9d8da" vector-effect="non-scaling-stroke" d="
  M 139.02 159.78
  Q 147.76 157.39 151.07 149.04
  C 154.36 140.76 149.73 131.09 141.44 128.17
  Q 138.25 127.05 129.92 127.33
  Q 105.48 128.15 80.75 128.60
  Q 77.36 128.66 71.10 129.05
  A 0.39 0.39 0.0 0 1 70.69 128.68
  Q 70.17 120.32 68.60 110.68
  C 66.44 97.43 60.84 86.11 54.47 74.29
  Q 53.53 72.55 53.27 70.25
  Q 52.50 63.42 51.74 50.51
  Q 51.40 44.78 50.25 41.99
  C 46.60 33.07 37.48 31.76 28.82 33.68
  C 21.05 35.40 19.00 41.86 20.27 49.00
  Q 24.70 73.88 37.81 144.96
  Q 39.37 153.41 46.40 157.89
  A 1.09 1.08 16.1 0 1 46.91 158.81
  C 46.89 164.94 45.29 173.34 52.52 176.44
  Q 54.02 177.08 59.07 177.08
  Q 121.10 177.08 129.00 177.06
  Q 135.71 177.03 138.12 171.84
  C 139.56 168.73 139.00 164.09 138.84 160.02
  A 0.24 0.23 -9.1 0 1 139.02 159.78"
/>
<path stroke="#d9d8da" vector-effect="non-scaling-stroke" d="
  M 113.83 96.33
  Q 114.04 98.24 113.83 102.26
  C 113.60 106.48 116.40 108.92 120.49 108.32
  Q 122.35 108.05 124.64 105.90
  Q 129.84 101.00 141.68 90.03
  C 146.74 85.35 145.82 82.08 140.78 77.38
  Q 125.07 62.76 122.25 60.18
  A 2.56 2.46 75.5 0 0 121.44 59.68
  C 116.55 57.80 113.77 60.42 113.84 65.37
  Q 113.89 68.38 113.91 72.11
  A 0.63 0.63 0.0 0 1 113.28 72.75
  Q 97.75 72.67 87.29 72.82
  Q 83.08 72.88 81.41 77.70
  A 0.82 0.75 56.6 0 0 81.37 77.95
  L 81.37 89.64
  A 2.74 2.66 -55.4 0 0 81.52 90.53
  Q 83.36 95.68 88.78 95.72
  Q 100.18 95.79 113.10 95.68
  A 0.73 0.72 86.5 0 1 113.83 96.33"
/>
<path stroke="#d9d8da" vector-effect="non-scaling-stroke" d="
  M 64.73 129.09
  A 0.74 0.74 0.0 0 0 65.47 128.33
  Q 65.15 116.57 61.94 103.76
  C 59.59 94.37 54.69 85.69 49.64 76.05
  A 8.09 7.98 24.1 0 1 49.04 74.51
  C 47.51 68.90 47.55 62.51 46.94 56.43
  C 46.22 49.18 47.78 38.85 37.49 38.08
  C 30.66 37.56 23.47 38.87 25.09 47.87
  Q 31.36 82.61 42.41 142.35
  C 43.50 148.23 45.01 151.41 49.69 154.21
  Q 51.96 155.57 59.06 155.57
  Q 119.37 155.54 131.90 155.62
  Q 136.52 155.65 138.95 154.68
  C 151.64 149.59 148.99 132.03 135.01 132.22
  Q 106.66 132.63 87.22 133.47
  C 77.94 133.87 69.66 133.45 61.55 134.33
  A 2.65 2.65 0.0 0 1 58.64 132.08
  L 58.61 131.86
  A 2.50 2.50 0.0 0 1 61.11 129.05
  L 64.73 129.09"
/>
<path stroke="#d9d8da" vector-effect="non-scaling-stroke" d="
  M 133.64 160.48
  L 52.08 160.34
  A 0.51 0.51 0.0 0 0 51.57 160.85
  L 51.56 166.46
  A 5.80 5.72 0.1 0 0 57.35 172.19
  L 128.33 172.31
  A 5.80 5.72 0.1 0 0 134.14 166.60
  L 134.15 160.99
  A 0.51 0.51 0.0 0 0 133.64 160.48"
/>
<path stroke="#d9d8da" vector-effect="non-scaling-stroke" d="
  M 103.97 143.72
  A 3.56 3.56 0.0 0 0 100.41 140.16
  A 3.56 3.56 0.0 0 0 96.85 143.72
  A 3.56 3.56 0.0 0 0 100.41 147.28
  A 3.56 3.56 0.0 0 0 103.97 143.72"
/>
<path stroke="#d9d8da" vector-effect="non-scaling-stroke" d="
  M 118.63 143.72
  A 3.58 3.58 0.0 0 0 115.05 140.14
  A 3.58 3.58 0.0 0 0 111.47 143.72
  A 3.58 3.58 0.0 0 0 115.05 147.30
  A 3.58 3.58 0.0 0 0 118.63 143.72"
/>
<path stroke="#d9d8da" vector-effect="non-scaling-stroke" d="
  M 133.32 143.76
  A 3.57 3.57 0.0 0 0 129.75 140.19
  A 3.57 3.57 0.0 0 0 126.18 143.76
  A 3.57 3.57 0.0 0 0 129.75 147.33
  A 3.57 3.57 0.0 0 0 133.32 143.76"
/>
<path stroke="#d9d8da" vector-effect="non-scaling-stroke" d="
  M 118.89 65.16
  Q 119.12 69.12 119.02 73.00
  Q 118.91 77.81 114.26 77.80
  Q 111.33 77.79 87.68 77.78
  A 1.21 1.20 -0.0 0 0 86.47 78.98
  L 86.47 89.22
  A 1.33 1.32 0.0 0 0 87.80 90.54
  Q 112.91 90.54 113.03 90.54
  C 116.18 90.52 118.54 91.11 118.90 94.15
  Q 119.15 96.17 119.03 102.44
  A 0.75 0.75 0.0 0 0 120.29 103.01
  L 139.68 84.73
  A 0.96 0.95 -45.2 0 0 139.68 83.34
  L 119.71 64.78
  A 0.49 0.49 0.0 0 0 118.89 65.16"
/>
</g>
<path fill="#ffffff" d="
  M 229.00 0.00
  L 229.00 209.00
  L 0.00 209.00
  L 0.00 0.00
  L 229.00 0.00
  Z
  M 139.02 159.78
  Q 147.76 157.39 151.07 149.04
  C 154.36 140.76 149.73 131.09 141.44 128.17
  Q 138.25 127.05 129.92 127.33
  Q 105.48 128.15 80.75 128.60
  Q 77.36 128.66 71.10 129.05
  A 0.39 0.39 0.0 0 1 70.69 128.68
  Q 70.17 120.32 68.60 110.68
  C 66.44 97.43 60.84 86.11 54.47 74.29
  Q 53.53 72.55 53.27 70.25
  Q 52.50 63.42 51.74 50.51
  Q 51.40 44.78 50.25 41.99
  C 46.60 33.07 37.48 31.76 28.82 33.68
  C 21.05 35.40 19.00 41.86 20.27 49.00
  Q 24.70 73.88 37.81 144.96
  Q 39.37 153.41 46.40 157.89
  A 1.09 1.08 16.1 0 1 46.91 158.81
  C 46.89 164.94 45.29 173.34 52.52 176.44
  Q 54.02 177.08 59.07 177.08
  Q 121.10 177.08 129.00 177.06
  Q 135.71 177.03 138.12 171.84
  C 139.56 168.73 139.00 164.09 138.84 160.02
  A 0.24 0.23 -9.1 0 1 139.02 159.78
  Z
  M 113.83 96.33
  Q 114.04 98.24 113.83 102.26
  C 113.60 106.48 116.40 108.92 120.49 108.32
  Q 122.35 108.05 124.64 105.90
  Q 129.84 101.00 141.68 90.03
  C 146.74 85.35 145.82 82.08 140.78 77.38
  Q 125.07 62.76 122.25 60.18
  A 2.56 2.46 75.5 0 0 121.44 59.68
  C 116.55 57.80 113.77 60.42 113.84 65.37
  Q 113.89 68.38 113.91 72.11
  A 0.63 0.63 0.0 0 1 113.28 72.75
  Q 97.75 72.67 87.29 72.82
  Q 83.08 72.88 81.41 77.70
  A 0.82 0.75 56.6 0 0 81.37 77.95
  L 81.37 89.64
  A 2.74 2.66 -55.4 0 0 81.52 90.53
  Q 83.36 95.68 88.78 95.72
  Q 100.18 95.79 113.10 95.68
  A 0.73 0.72 86.5 0 1 113.83 96.33
  Z"
/>
<path fill="#b2b0b4" d="
  M 139.02 159.78
  A 0.24 0.23 -9.1 0 0 138.84 160.02
  C 139.00 164.09 139.56 168.73 138.12 171.84
  Q 135.71 177.03 129.00 177.06
  Q 121.10 177.08 59.07 177.08
  Q 54.02 177.08 52.52 176.44
  C 45.29 173.34 46.89 164.94 46.91 158.81
  A 1.09 1.08 16.1 0 0 46.40 157.89
  Q 39.37 153.41 37.81 144.96
  Q 24.70 73.88 20.27 49.00
  C 19.00 41.86 21.05 35.40 28.82 33.68
  C 37.48 31.76 46.60 33.07 50.25 41.99
  Q 51.40 44.78 51.74 50.51
  Q 52.50 63.42 53.27 70.25
  Q 53.53 72.55 54.47 74.29
  C 60.84 86.11 66.44 97.43 68.60 110.68
  Q 70.17 120.32 70.69 128.68
  A 0.39 0.39 0.0 0 0 71.10 129.05
  Q 77.36 128.66 80.75 128.60
  Q 105.48 128.15 129.92 127.33
  Q 138.25 127.05 141.44 128.17
  C 149.73 131.09 154.36 140.76 151.07 149.04
  Q 147.76 157.39 139.02 159.78
  Z
  M 64.73 129.09
  A 0.74 0.74 0.0 0 0 65.47 128.33
  Q 65.15 116.57 61.94 103.76
  C 59.59 94.37 54.69 85.69 49.64 76.05
  A 8.09 7.98 24.1 0 1 49.04 74.51
  C 47.51 68.90 47.55 62.51 46.94 56.43
  C 46.22 49.18 47.78 38.85 37.49 38.08
  C 30.66 37.56 23.47 38.87 25.09 47.87
  Q 31.36 82.61 42.41 142.35
  C 43.50 148.23 45.01 151.41 49.69 154.21
  Q 51.96 155.57 59.06 155.57
  Q 119.37 155.54 131.90 155.62
  Q 136.52 155.65 138.95 154.68
  C 151.64 149.59 148.99 132.03 135.01 132.22
  Q 106.66 132.63 87.22 133.47
  C 77.94 133.87 69.66 133.45 61.55 134.33
  A 2.65 2.65 0.0 0 1 58.64 132.08
  L 58.61 131.86
  A 2.50 2.50 0.0 0 1 61.11 129.05
  L 64.73 129.09
  Z
  M 133.64 160.48
  L 52.08 160.34
  A 0.51 0.51 0.0 0 0 51.57 160.85
  L 51.56 166.46
  A 5.80 5.72 0.1 0 0 57.35 172.19
  L 128.33 172.31
  A 5.80 5.72 0.1 0 0 134.14 166.60
  L 134.15 160.99
  A 0.51 0.51 0.0 0 0 133.64 160.48
  Z"
/>
<path fill="#ffffff" d="
  M 64.73 129.09
  L 61.11 129.05
  A 2.50 2.50 0.0 0 0 58.61 131.86
  L 58.64 132.08
  A 2.65 2.65 0.0 0 0 61.55 134.33
  C 69.66 133.45 77.94 133.87 87.22 133.47
  Q 106.66 132.63 135.01 132.22
  C 148.99 132.03 151.64 149.59 138.95 154.68
  Q 136.52 155.65 131.90 155.62
  Q 119.37 155.54 59.06 155.57
  Q 51.96 155.57 49.69 154.21
  C 45.01 151.41 43.50 148.23 42.41 142.35
  Q 31.36 82.61 25.09 47.87
  C 23.47 38.87 30.66 37.56 37.49 38.08
  C 47.78 38.85 46.22 49.18 46.94 56.43
  C 47.55 62.51 47.51 68.90 49.04 74.51
  A 8.09 7.98 24.1 0 0 49.64 76.05
  C 54.69 85.69 59.59 94.37 61.94 103.76
  Q 65.15 116.57 65.47 128.33
  A 0.74 0.74 0.0 0 1 64.73 129.09
  Z
  M 103.97 143.72
  A 3.56 3.56 0.0 0 0 100.41 140.16
  A 3.56 3.56 0.0 0 0 96.85 143.72
  A 3.56 3.56 0.0 0 0 100.41 147.28
  A 3.56 3.56 0.0 0 0 103.97 143.72
  Z
  M 118.63 143.72
  A 3.58 3.58 0.0 0 0 115.05 140.14
  A 3.58 3.58 0.0 0 0 111.47 143.72
  A 3.58 3.58 0.0 0 0 115.05 147.30
  A 3.58 3.58 0.0 0 0 118.63 143.72
  Z
  M 133.32 143.76
  A 3.57 3.57 0.0 0 0 129.75 140.19
  A 3.57 3.57 0.0 0 0 126.18 143.76
  A 3.57 3.57 0.0 0 0 129.75 147.33
  A 3.57 3.57 0.0 0 0 133.32 143.76
  Z"
/>
<path fill="#b2b0b4" d="
  M 113.10 95.68
  Q 100.18 95.79 88.78 95.72
  Q 83.36 95.68 81.52 90.53
  A 2.74 2.66 -55.4 0 1 81.37 89.64
  L 81.37 77.95
  A 0.82 0.75 56.6 0 1 81.41 77.70
  Q 83.08 72.88 87.29 72.82
  Q 97.75 72.67 113.28 72.75
  A 0.63 0.63 0.0 0 0 113.91 72.11
  Q 113.89 68.38 113.84 65.37
  C 113.77 60.42 116.55 57.80 121.44 59.68
  A 2.56 2.46 75.5 0 1 122.25 60.18
  Q 125.07 62.76 140.78 77.38
  C 145.82 82.08 146.74 85.35 141.68 90.03
  Q 129.84 101.00 124.64 105.90
  Q 122.35 108.05 120.49 108.32
  C 116.40 108.92 113.60 106.48 113.83 102.26
  Q 114.04 98.24 113.83 96.33
  A 0.73 0.72 86.5 0 0 113.10 95.68
  Z
  M 118.89 65.16
  Q 119.12 69.12 119.02 73.00
  Q 118.91 77.81 114.26 77.80
  Q 111.33 77.79 87.68 77.78
  A 1.21 1.20 -0.0 0 0 86.47 78.98
  L 86.47 89.22
  A 1.33 1.32 0.0 0 0 87.80 90.54
  Q 112.91 90.54 113.03 90.54
  C 116.18 90.52 118.54 91.11 118.90 94.15
  Q 119.15 96.17 119.03 102.44
  A 0.75 0.75 0.0 0 0 120.29 103.01
  L 139.68 84.73
  A 0.96 0.95 -45.2 0 0 139.68 83.34
  L 119.71 64.78
  A 0.49 0.49 0.0 0 0 118.89 65.16
  Z"
/>
<path fill="#ffffff" d="
  M 118.89 65.16
  A 0.49 0.49 0.0 0 1 119.71 64.78
  L 139.68 83.34
  A 0.96 0.95 -45.2 0 1 139.68 84.73
  L 120.29 103.01
  A 0.75 0.75 0.0 0 1 119.03 102.44
  Q 119.15 96.17 118.90 94.15
  C 118.54 91.11 116.18 90.52 113.03 90.54
  Q 112.91 90.54 87.80 90.54
  A 1.33 1.32 -0.0 0 1 86.47 89.22
  L 86.47 78.98
  A 1.21 1.20 0.0 0 1 87.68 77.78
  Q 111.33 77.79 114.26 77.80
  Q 118.91 77.81 119.02 73.00
  Q 119.12 69.12 118.89 65.16
  Z"
/>
<circle fill="#b2b0b4" cx="100.41" cy="143.72" r="3.56"/>
<circle fill="#b2b0b4" cx="115.05" cy="143.72" r="3.58"/>
<circle fill="#b2b0b4" cx="129.75" cy="143.76" r="3.57"/>
<path fill="#ffffff" d="
  M 133.64 160.48
  A 0.51 0.51 0.0 0 1 134.15 160.99
  L 134.14 166.60
  A 5.80 5.72 0.1 0 1 128.33 172.31
  L 57.35 172.19
  A 5.80 5.72 0.1 0 1 51.56 166.46
  L 51.57 160.85
  A 0.51 0.51 0.0 0 1 52.08 160.34
  L 133.64 160.48
  Z"
/>
</svg>
