<?xml version="1.0" encoding="UTF-8" standalone="no"?>
<!DOCTYPE svg PUBLIC "-//W3C//DTD SVG 1.1//EN" "http://www.w3.org/Graphics/SVG/1.1/DTD/svg11.dtd">
<svg xmlns="http://www.w3.org/2000/svg" version="1.1" viewBox="0.00 0.00 129.00 138.00">
<path fill="#000000" d="
  M 24.60 72.53
  Q 22.86 71.94 21.66 70.25
  A 2.01 2.00 -62.8 0 1 21.29 69.09
  C 21.29 65.59 20.29 61.10 24.73 60.79
  Q 27.68 60.59 29.56 61.13
  A 0.64 0.64 0.0 0 0 30.31 60.82
  L 34.48 52.98
  A 3.31 2.97 -10.9 0 1 35.11 52.15
  L 38.14 49.29
  A 0.69 0.68 53.4 0 0 38.26 48.45
  Q 33.46 40.04 31.66 36.38
  C 29.97 32.92 32.25 31.56 35.52 31.14
  Q 48.37 29.50 53.76 29.40
  Q 61.66 29.24 75.99 29.41
  Q 83.51 29.50 98.56 31.53
  A 2.56 2.53 66.8 0 1 99.69 31.99
  C 102.00 33.68 100.25 36.35 99.01 38.61
  Q 96.91 42.45 93.28 48.55
  A 0.65 0.65 0.0 0 0 93.40 49.36
  C 97.24 52.79 98.80 55.47 101.29 61.03
  A 0.71 0.70 -21.5 0 0 102.16 61.40
  Q 104.85 60.43 108.21 60.82
  A 2.83 2.66 -26.3 0 1 109.13 61.10
  C 113.06 63.18 112.44 71.71 107.46 72.49
  A 0.64 0.63 85.4 0 0 106.92 73.13
  Q 107.05 80.41 107.04 97.19
  C 107.03 102.25 107.61 106.04 103.47 108.06
  C 101.43 109.07 95.42 108.94 93.78 108.71
  A 5.82 5.52 56.0 0 1 92.97 108.53
  Q 87.23 106.75 88.20 99.92
  A 0.56 0.56 0.0 0 0 87.65 99.28
  L 43.80 99.28
  A 0.48 0.47 89.4 0 0 43.33 99.77
  C 43.38 101.38 43.57 102.61 43.17 103.72
  Q 41.88 107.29 38.30 108.51
  A 3.44 3.14 32.4 0 1 37.45 108.66
  C 31.61 108.85 26.60 109.74 24.92 103.43
  A 2.72 2.67 38.1 0 1 24.83 102.74
  L 24.83 72.84
  A 0.34 0.32 10.2 0 0 24.60 72.53
  Z
  M 65.86 46.83
  Q 86.47 46.83 89.46 46.97
  A 0.98 0.98 0.0 0 0 90.36 46.48
  L 96.63 35.62
  A 0.42 0.42 0.0 0 0 96.29 34.99
  Q 92.55 34.83 90.48 34.13
  A 2.64 2.57 51.8 0 0 89.50 34.00
  Q 87.69 34.11 82.99 33.55
  C 77.23 32.87 72.51 33.05 65.87 33.05
  C 59.23 33.04 54.51 32.86 48.75 33.53
  Q 44.05 34.09 42.24 33.98
  A 2.64 2.57 -51.7 0 0 41.26 34.11
  Q 39.19 34.81 35.45 34.96
  A 0.42 0.42 0.0 0 0 35.11 35.59
  L 41.37 46.46
  A 0.98 0.98 0.0 0 0 42.26 46.95
  Q 45.26 46.82 65.86 46.83
  Z
  M 65.87 79.61
  Q 73.77 79.62 81.61 79.60
  C 83.86 79.60 86.45 79.14 87.02 76.69
  Q 87.96 72.71 88.38 70.67
  A 2.85 2.72 -23.4 0 1 88.79 69.70
  C 91.40 65.75 94.57 65.97 98.69 66.28
  A 0.87 0.86 79.3 0 0 99.53 65.04
  Q 96.11 57.76 94.20 54.91
  Q 91.97 51.57 88.38 50.65
  Q 87.71 50.48 81.07 50.46
  Q 73.27 50.45 65.90 50.44
  Q 58.52 50.43 50.73 50.43
  Q 44.09 50.43 43.42 50.60
  Q 39.82 51.51 37.59 54.85
  Q 35.67 57.69 32.23 64.97
  A 0.87 0.86 -79.2 0 0 33.07 66.21
  C 37.19 65.91 40.36 65.69 42.96 69.65
  A 2.85 2.72 23.6 0 1 43.37 70.62
  Q 43.79 72.66 44.72 76.64
  C 45.28 79.09 47.87 79.56 50.12 79.57
  Q 57.96 79.60 65.87 79.61
  Z
  M 27.50 63.98
  L 25.34 63.68
  A 0.78 0.78 0.0 0 0 24.47 64.35
  L 24.43 64.61
  A 4.12 1.80 -82.1 0 0 25.65 68.94
  L 25.78 68.96
  A 4.12 1.80 -82.1 0 0 28.13 65.12
  L 28.17 64.86
  A 0.78 0.78 0.0 0 0 27.50 63.98
  Z
  M 107.27 63.79
  L 103.93 64.56
  A 0.23 0.23 0.0 0 0 103.76 64.84
  L 103.81 65.05
  A 4.79 1.90 77.0 0 0 106.74 69.29
  L 106.82 69.27
  A 4.79 1.90 77.0 0 0 107.59 64.18
  L 107.54 63.96
  A 0.23 0.23 0.0 0 0 107.27 63.79
  Z
  M 28.73 76.33
  L 40.39 76.61
  A 0.37 0.37 0.0 0 0 40.77 76.25
  L 40.82 74.12
  A 4.22 3.66 -88.6 0 0 37.26 69.81
  L 32.18 69.69
  A 4.22 3.66 -88.6 0 0 28.42 73.82
  L 28.37 75.95
  A 0.37 0.37 0.0 0 0 28.73 76.33
  Z
  M 91.39 76.56
  L 103.25 76.40
  A 0.27 0.27 0.0 0 0 103.51 76.12
  L 103.48 74.01
  A 4.32 3.76 89.2 0 0 99.66 69.75
  L 94.78 69.81
  A 4.32 3.76 89.2 0 0 91.08 74.19
  L 91.11 76.30
  A 0.27 0.27 0.0 0 0 91.39 76.56
  Z
  M 65.88 95.69
  Q 96.98 95.69 97.08 95.69
  C 103.74 95.67 103.43 93.23 103.40 86.91
  Q 103.40 85.09 103.43 80.24
  A 0.40 0.40 0.0 0 0 102.99 79.84
  Q 94.56 80.57 91.35 79.97
  Q 90.16 79.74 89.67 79.77
  A 1.22 1.22 0.0 0 0 88.80 80.21
  Q 86.71 82.66 85.22 82.77
  Q 84.42 82.83 65.88 82.83
  Q 47.34 82.83 46.55 82.77
  Q 45.05 82.66 42.96 80.21
  A 1.22 1.22 0.0 0 0 42.10 79.77
  Q 41.61 79.74 40.42 79.97
  Q 37.20 80.57 28.78 79.84
  A 0.40 0.40 0.0 0 0 28.33 80.24
  Q 28.36 85.09 28.36 86.91
  C 28.33 93.23 28.02 95.67 34.68 95.69
  Q 34.79 95.69 65.88 95.69
  Z
  M 103.16 98.59
  L 91.72 99.31
  A 0.26 0.26 0.0 0 0 91.48 99.58
  L 91.64 102.13
  A 4.00 3.63 -3.6 0 0 95.86 105.50
  L 99.83 105.25
  A 4.00 3.63 -3.6 0 0 103.59 101.37
  L 103.43 98.83
  A 0.26 0.26 0.0 0 0 103.16 98.59
  Z
  M 39.92 99.21
  L 28.55 98.79
  A 0.28 0.28 0.0 0 0 28.26 99.06
  L 28.19 100.98
  A 4.10 3.82 -87.9 0 0 31.86 105.22
  L 36.15 105.38
  A 4.10 3.82 -87.9 0 0 40.12 101.42
  L 40.19 99.50
  A 0.28 0.28 0.0 0 0 39.92 99.21
  Z"
/>
</svg>
