<?xml version="1.0" encoding="UTF-8" standalone="no"?>
<!DOCTYPE svg PUBLIC "-//W3C//DTD SVG 1.1//EN" "http://www.w3.org/Graphics/SVG/1.1/DTD/svg11.dtd">
<svg xmlns="http://www.w3.org/2000/svg" version="1.1" viewBox="0.00 0.00 229.00 197.00">
<g stroke-width="2.00" fill="none" stroke-linecap="butt">
<path stroke="#d9d8da" vector-effect="non-scaling-stroke" d="
  M 96.98 48.20
  Q 127.11 48.20 128.79 48.25
  A 2.33 2.33 0.0 0 1 130.92 49.81
  C 131.58 51.67 132.05 53.81 133.75 53.78
  A 2.20 1.98 -3.3 0 0 135.92 51.59
  Q 135.40 46.77 132.47 44.66
  Q 131.20 43.75 124.81 43.75
  Q 124.79 43.75 96.98 43.75
  Q 69.18 43.75 69.16 43.75
  Q 62.77 43.76 61.50 44.67
  Q 58.57 46.78 58.05 51.60
  A 2.20 1.98 3.3 0 0 60.22 53.79
  C 61.92 53.82 62.39 51.68 63.05 49.82
  A 2.33 2.33 0.0 0 1 65.18 48.26
  Q 66.86 48.20 96.98 48.20"
/>
<path stroke="#d9d8da" vector-effect="non-scaling-stroke" d="
  M 34.06 98.43
  C 29.33 103.81 27.85 108.15 27.86 116.05
  Q 27.90 149.52 27.93 152.47
  Q 28.03 161.70 37.24 161.97
  Q 38.56 162.01 43.31 161.96
  C 48.01 161.91 51.15 161.27 53.28 157.22
  C 54.42 155.04 54.01 151.97 53.85 149.75
  A 0.62 0.61 -2.1 0 1 54.47 149.09
  L 140.11 149.09
  A 0.61 0.61 0.0 0 1 140.72 149.70
  L 140.72 155.19
  A 2.89 2.84 34.2 0 0 140.94 156.29
  Q 143.26 161.76 148.79 161.88
  C 156.31 162.04 164.55 163.49 166.67 155.49
  A 1.90 1.82 53.4 0 0 166.73 155.02
  L 166.73 109.28
  A 2.43 2.37 37.9 0 0 166.64 108.63
  Q 164.90 102.87 160.51 98.62
  A 0.47 0.46 67.1 0 1 160.83 97.82
  Q 165.99 97.85 166.08 97.85
  C 170.35 97.91 174.03 95.76 174.50 91.50
  C 175.60 81.75 164.78 84.36 159.31 84.03
  A 1.99 1.96 24.4 0 0 157.82 84.58
  L 153.69 88.53
  A 0.53 0.53 0.0 0 1 152.83 88.34
  Q 145.31 68.80 144.65 67.38
  Q 142.34 62.41 137.94 60.64
  A 4.62 4.42 -32.2 0 0 136.37 60.32
  Q 135.84 60.30 64.68 60.30
  Q 57.95 60.30 56.39 60.76
  Q 52.32 61.96 50.51 66.30
  Q 44.33 81.04 41.84 88.04
  A 0.83 0.82 32.5 0 1 40.48 88.34
  L 36.33 84.20
  A 0.79 0.79 0.0 0 0 35.75 83.97
  Q 32.37 84.00 29.32 83.93
  C 24.80 83.83 21.63 84.84 20.48 89.27
  C 19.69 92.34 22.15 96.23 25.13 97.42
  C 27.26 98.27 30.94 97.82 33.75 97.77
  A 0.40 0.40 0.0 0 1 34.06 98.43"
/>
<path stroke="#d9d8da" vector-effect="non-scaling-stroke" d="
  M 97.27 90.83
  Q 126.64 90.83 147.98 90.86
  A 0.63 0.63 0.0 0 0 148.57 90.00
  Q 143.42 76.94 140.60 69.63
  C 138.97 65.38 136.67 64.68 132.06 64.68
  Q 111.21 64.68 97.27 64.68
  Q 83.33 64.68 62.48 64.67
  C 57.86 64.68 55.56 65.38 53.93 69.63
  Q 51.11 76.94 45.96 90.00
  A 0.63 0.63 0.0 0 0 46.55 90.86
  Q 67.89 90.83 97.27 90.83"
/>
<path stroke="#d9d8da" vector-effect="non-scaling-stroke" d="
  M 38.33 93.47
  A 0.49 0.49 0.0 0 0 38.68 92.63
  L 35.31 89.24
  A 2.53 2.53 0.0 0 0 33.52 88.49
  L 26.90 88.51
  A 1.88 1.87 82.4 0 0 25.09 90.88
  L 25.13 91.03
  A 3.09 3.09 0.0 0 0 28.10 93.37
  L 38.33 93.47"
/>
<path stroke="#d9d8da" vector-effect="non-scaling-stroke" d="
  M 156.17 93.51
  L 166.80 93.45
  A 3.21 3.21 0.0 0 0 169.90 91.03
  L 169.94 90.87
  A 1.95 1.95 0.0 0 0 168.07 88.40
  L 161.19 88.36
  A 2.63 2.63 0.0 0 0 159.33 89.13
  L 155.81 92.64
  A 0.51 0.51 0.0 0 0 156.17 93.51"
/>
<path stroke="#d9d8da" vector-effect="non-scaling-stroke" d="
  M 97.53 144.20
  Q 136.08 144.24 142.49 144.28
  Q 144.37 144.29 145.69 146.80
  A 1.29 1.28 30.7 0 1 145.85 147.42
  L 145.85 154.50
  A 2.52 2.51 -87.4 0 0 148.13 157.01
  Q 152.39 157.40 159.10 157.00
  Q 162.06 156.82 162.07 154.44
  Q 162.19 118.73 162.15 110.82
  A 3.44 3.19 38.8 0 0 162.01 109.87
  C 160.32 104.19 155.94 99.64 151.34 96.05
  A 2.53 2.53 0.0 0 0 149.75 95.51
  Q 145.89 95.55 97.58 95.50
  Q 49.27 95.46 45.40 95.41
  A 2.53 2.53 0.0 0 0 43.81 95.94
  C 39.20 99.53 34.82 104.07 33.11 109.74
  A 3.44 3.19 -38.7 0 0 32.97 110.69
  Q 32.92 118.60 32.97 154.31
  Q 32.97 156.69 35.93 156.88
  Q 42.64 157.29 46.90 156.91
  A 2.52 2.51 87.5 0 0 49.19 154.41
  L 49.20 147.33
  A 1.29 1.28 -30.6 0 1 49.36 146.71
  Q 50.69 144.20 52.56 144.19
  Q 58.97 144.16 97.53 144.20"
/>
<path stroke="#d9d8da" vector-effect="non-scaling-stroke" d="
  M 60.09 112.08
  Q 58.75 110.89 55.36 110.35
  Q 49.99 109.51 44.58 108.90
  C 41.44 108.55 38.40 109.00 37.54 112.37
  C 35.96 118.51 36.10 125.93 44.58 126.04
  Q 55.43 126.18 58.22 126.11
  C 67.27 125.86 63.63 115.25 60.09 112.08"
/>
<path stroke="#d9d8da" vector-effect="non-scaling-stroke" d="
  M 134.45 112.22
  C 130.92 115.45 127.37 126.16 136.48 126.32
  Q 139.29 126.36 150.21 126.10
  C 158.74 125.90 158.80 118.43 157.15 112.27
  C 156.25 108.88 153.18 108.46 150.02 108.85
  Q 144.59 109.52 139.19 110.43
  Q 135.78 111.01 134.45 112.22"
/>
<path stroke="#d9d8da" vector-effect="non-scaling-stroke" d="
  M 121.22 113.36
  L 73.46 113.28
  A 2.64 2.64 0.0 0 0 70.82 115.91
  L 70.82 116.95
  A 10.68 8.04 -89.9 0 0 78.84 127.65
  L 115.80 127.71
  A 10.68 8.04 -89.9 0 0 123.86 117.05
  L 123.86 116.01
  A 2.64 2.64 0.0 0 0 121.22 113.36"
/>
<path stroke="#d9d8da" vector-effect="non-scaling-stroke" d="
  M 58.11 117.41
  A 3.48 3.48 0.0 0 0 55.38 115.16
  L 43.50 113.31
  A 1.62 1.62 0.0 0 0 41.63 114.91
  L 41.63 118.83
  A 2.19 2.18 0.0 0 0 43.82 121.01
  L 57.56 121.01
  A 1.29 1.29 0.0 0 0 58.78 119.29
  L 58.11 117.41"
/>
<path stroke="#d9d8da" vector-effect="non-scaling-stroke" d="
  M 136.21 120.98
  L 151.05 120.98
  A 1.85 1.84 -90.0 0 0 152.89 119.13
  L 152.89 114.60
  A 1.22 1.22 0.0 0 0 151.50 113.39
  L 139.14 115.16
  A 2.31 2.31 0.0 0 0 137.47 116.29
  L 135.49 119.72
  A 0.84 0.84 0.0 0 0 136.21 120.98"
/>
<path stroke="#d9d8da" vector-effect="non-scaling-stroke" d="
  M 118.70 118.32
  L 75.96 118.32
  A 0.10 0.10 0.0 0 0 75.86 118.42
  L 75.86 118.44
  A 4.48 4.08 -90.0 0 0 79.94 122.92
  L 114.72 122.92
  A 4.48 4.08 -90.0 0 0 118.80 118.44
  L 118.80 118.42
  A 0.10 0.10 0.0 0 0 118.70 118.32"
/>
</g>
<path fill="#ffffff" d="
  M 229.00 0.00
  L 229.00 197.00
  L 0.00 197.00
  L 0.00 0.00
  L 229.00 0.00
  Z
  M 96.98 48.20
  Q 127.11 48.20 128.79 48.25
  A 2.33 2.33 0.0 0 1 130.92 49.81
  C 131.58 51.67 132.05 53.81 133.75 53.78
  A 2.20 1.98 -3.3 0 0 135.92 51.59
  Q 135.40 46.77 132.47 44.66
  Q 131.20 43.75 124.81 43.75
  Q 124.79 43.75 96.98 43.75
  Q 69.18 43.75 69.16 43.75
  Q 62.77 43.76 61.50 44.67
  Q 58.57 46.78 58.05 51.60
  A 2.20 1.98 3.3 0 0 60.22 53.79
  C 61.92 53.82 62.39 51.68 63.05 49.82
  A 2.33 2.33 0.0 0 1 65.18 48.26
  Q 66.86 48.20 96.98 48.20
  Z
  M 34.06 98.43
  C 29.33 103.81 27.85 108.15 27.86 116.05
  Q 27.90 149.52 27.93 152.47
  Q 28.03 161.70 37.24 161.97
  Q 38.56 162.01 43.31 161.96
  C 48.01 161.91 51.15 161.27 53.28 157.22
  C 54.42 155.04 54.01 151.97 53.85 149.75
  A 0.62 0.61 -2.1 0 1 54.47 149.09
  L 140.11 149.09
  A 0.61 0.61 0.0 0 1 140.72 149.70
  L 140.72 155.19
  A 2.89 2.84 34.2 0 0 140.94 156.29
  Q 143.26 161.76 148.79 161.88
  C 156.31 162.04 164.55 163.49 166.67 155.49
  A 1.90 1.82 53.4 0 0 166.73 155.02
  L 166.73 109.28
  A 2.43 2.37 37.9 0 0 166.64 108.63
  Q 164.90 102.87 160.51 98.62
  A 0.47 0.46 67.1 0 1 160.83 97.82
  Q 165.99 97.85 166.08 97.85
  C 170.35 97.91 174.03 95.76 174.50 91.50
  C 175.60 81.75 164.78 84.36 159.31 84.03
  A 1.99 1.96 24.4 0 0 157.82 84.58
  L 153.69 88.53
  A 0.53 0.53 0.0 0 1 152.83 88.34
  Q 145.31 68.80 144.65 67.38
  Q 142.34 62.41 137.94 60.64
  A 4.62 4.42 -32.2 0 0 136.37 60.32
  Q 135.84 60.30 64.68 60.30
  Q 57.95 60.30 56.39 60.76
  Q 52.32 61.96 50.51 66.30
  Q 44.33 81.04 41.84 88.04
  A 0.83 0.82 32.5 0 1 40.48 88.34
  L 36.33 84.20
  A 0.79 0.79 0.0 0 0 35.75 83.97
  Q 32.37 84.00 29.32 83.93
  C 24.80 83.83 21.63 84.84 20.48 89.27
  C 19.69 92.34 22.15 96.23 25.13 97.42
  C 27.26 98.27 30.94 97.82 33.75 97.77
  A 0.40 0.40 0.0 0 1 34.06 98.43
  Z"
/>
<path fill="#b2b0b4" d="
  M 96.98 43.75
  Q 124.79 43.75 124.81 43.75
  Q 131.20 43.75 132.47 44.66
  Q 135.40 46.77 135.92 51.59
  A 2.20 1.98 -3.3 0 1 133.75 53.78
  C 132.05 53.81 131.58 51.67 130.92 49.81
  A 2.33 2.33 0.0 0 0 128.79 48.25
  Q 127.11 48.20 96.98 48.20
  Q 66.86 48.20 65.18 48.26
  A 2.33 2.33 0.0 0 0 63.05 49.82
  C 62.39 51.68 61.92 53.82 60.22 53.79
  A 2.20 1.98 3.3 0 1 58.05 51.60
  Q 58.57 46.78 61.50 44.67
  Q 62.77 43.76 69.16 43.75
  Q 69.18 43.75 96.98 43.75
  Z"
/>
<path fill="#b2b0b4" d="
  M 34.06 98.43
  A 0.40 0.40 0.0 0 0 33.75 97.77
  C 30.94 97.82 27.26 98.27 25.13 97.42
  C 22.15 96.23 19.69 92.34 20.48 89.27
  C 21.63 84.84 24.80 83.83 29.32 83.93
  Q 32.37 84.00 35.75 83.97
  A 0.79 0.79 0.0 0 1 36.33 84.20
  L 40.48 88.34
  A 0.83 0.82 32.5 0 0 41.84 88.04
  Q 44.33 81.04 50.51 66.30
  Q 52.32 61.96 56.39 60.76
  Q 57.95 60.30 64.68 60.30
  Q 135.84 60.30 136.37 60.32
  A 4.62 4.42 -32.2 0 1 137.94 60.64
  Q 142.34 62.41 144.65 67.38
  Q 145.31 68.80 152.83 88.34
  A 0.53 0.53 0.0 0 0 153.69 88.53
  L 157.82 84.58
  A 1.99 1.96 24.4 0 1 159.31 84.03
  C 164.78 84.36 175.60 81.75 174.50 91.50
  C 174.03 95.76 170.35 97.91 166.08 97.85
  Q 165.99 97.85 160.83 97.82
  A 0.47 0.46 67.1 0 0 160.51 98.62
  Q 164.90 102.87 166.64 108.63
  A 2.43 2.37 37.9 0 1 166.73 109.28
  L 166.73 155.02
  A 1.90 1.82 53.4 0 1 166.67 155.49
  C 164.55 163.49 156.31 162.04 148.79 161.88
  Q 143.26 161.76 140.94 156.29
  A 2.89 2.84 34.2 0 1 140.72 155.19
  L 140.72 149.70
  A 0.61 0.61 0.0 0 0 140.11 149.09
  L 54.47 149.09
  A 0.62 0.61 -2.1 0 0 53.85 149.75
  C 54.01 151.97 54.42 155.04 53.28 157.22
  C 51.15 161.27 48.01 161.91 43.31 161.96
  Q 38.56 162.01 37.24 161.97
  Q 28.03 161.70 27.93 152.47
  Q 27.90 149.52 27.86 116.05
  C 27.85 108.15 29.33 103.81 34.06 98.43
  Z
  M 97.27 90.83
  Q 126.64 90.83 147.98 90.86
  A 0.63 0.63 0.0 0 0 148.57 90.00
  Q 143.42 76.94 140.60 69.63
  C 138.97 65.38 136.67 64.68 132.06 64.68
  Q 111.21 64.68 97.27 64.68
  Q 83.33 64.68 62.48 64.67
  C 57.86 64.68 55.56 65.38 53.93 69.63
  Q 51.11 76.94 45.96 90.00
  A 0.63 0.63 0.0 0 0 46.55 90.86
  Q 67.89 90.83 97.27 90.83
  Z
  M 38.33 93.47
  A 0.49 0.49 0.0 0 0 38.68 92.63
  L 35.31 89.24
  A 2.53 2.53 0.0 0 0 33.52 88.49
  L 26.90 88.51
  A 1.88 1.87 82.4 0 0 25.09 90.88
  L 25.13 91.03
  A 3.09 3.09 0.0 0 0 28.10 93.37
  L 38.33 93.47
  Z
  M 156.17 93.51
  L 166.80 93.45
  A 3.21 3.21 0.0 0 0 169.90 91.03
  L 169.94 90.87
  A 1.95 1.95 0.0 0 0 168.07 88.40
  L 161.19 88.36
  A 2.63 2.63 0.0 0 0 159.33 89.13
  L 155.81 92.64
  A 0.51 0.51 0.0 0 0 156.17 93.51
  Z
  M 97.53 144.20
  Q 136.08 144.24 142.49 144.28
  Q 144.37 144.29 145.69 146.80
  A 1.29 1.28 30.7 0 1 145.85 147.42
  L 145.85 154.50
  A 2.52 2.51 -87.4 0 0 148.13 157.01
  Q 152.39 157.40 159.10 157.00
  Q 162.06 156.82 162.07 154.44
  Q 162.19 118.73 162.15 110.82
  A 3.44 3.19 38.8 0 0 162.01 109.87
  C 160.32 104.19 155.94 99.64 151.34 96.05
  A 2.53 2.53 0.0 0 0 149.75 95.51
  Q 145.89 95.55 97.58 95.50
  Q 49.27 95.46 45.40 95.41
  A 2.53 2.53 0.0 0 0 43.81 95.94
  C 39.20 99.53 34.82 104.07 33.11 109.74
  A 3.44 3.19 -38.7 0 0 32.97 110.69
  Q 32.92 118.60 32.97 154.31
  Q 32.97 156.69 35.93 156.88
  Q 42.64 157.29 46.90 156.91
  A 2.52 2.51 87.5 0 0 49.19 154.41
  L 49.20 147.33
  A 1.29 1.28 -30.6 0 1 49.36 146.71
  Q 50.69 144.20 52.56 144.19
  Q 58.97 144.16 97.53 144.20
  Z"
/>
<path fill="#ffffff" d="
  M 97.27 64.68
  Q 111.21 64.68 132.06 64.68
  C 136.67 64.68 138.97 65.38 140.60 69.63
  Q 143.42 76.94 148.57 90.00
  A 0.63 0.63 0.0 0 1 147.98 90.86
  Q 126.64 90.83 97.27 90.83
  Q 67.89 90.83 46.55 90.86
  A 0.63 0.63 0.0 0 1 45.96 90.00
  Q 51.11 76.94 53.93 69.63
  C 55.56 65.38 57.86 64.68 62.48 64.67
  Q 83.33 64.68 97.27 64.68
  Z"
/>
<path fill="#ffffff" d="
  M 38.33 93.47
  L 28.10 93.37
  A 3.09 3.09 0.0 0 1 25.13 91.03
  L 25.09 90.88
  A 1.88 1.87 82.4 0 1 26.90 88.51
  L 33.52 88.49
  A 2.53 2.53 0.0 0 1 35.31 89.24
  L 38.68 92.63
  A 0.49 0.49 0.0 0 1 38.33 93.47
  Z"
/>
<path fill="#ffffff" d="
  M 156.17 93.51
  A 0.51 0.51 0.0 0 1 155.81 92.64
  L 159.33 89.13
  A 2.63 2.63 0.0 0 1 161.19 88.36
  L 168.07 88.40
  A 1.95 1.95 0.0 0 1 169.94 90.87
  L 169.90 91.03
  A 3.21 3.21 0.0 0 1 166.80 93.45
  L 156.17 93.51
  Z"
/>
<path fill="#ffffff" d="
  M 97.58 95.50
  Q 145.89 95.55 149.75 95.51
  A 2.53 2.53 0.0 0 1 151.34 96.05
  C 155.94 99.64 160.32 104.19 162.01 109.87
  A 3.44 3.19 38.8 0 1 162.15 110.82
  Q 162.19 118.73 162.07 154.44
  Q 162.06 156.82 159.10 157.00
  Q 152.39 157.40 148.13 157.01
  A 2.52 2.51 -87.4 0 1 145.85 154.50
  L 145.85 147.42
  A 1.29 1.28 30.7 0 0 145.69 146.80
  Q 144.37 144.29 142.49 144.28
  Q 136.08 144.24 97.53 144.20
  Q 58.97 144.16 52.56 144.19
  Q 50.69 144.20 49.36 146.71
  A 1.29 1.28 -30.6 0 0 49.20 147.33
  L 49.19 154.41
  A 2.52 2.51 87.5 0 1 46.90 156.91
  Q 42.64 157.29 35.93 156.88
  Q 32.97 156.69 32.97 154.31
  Q 32.92 118.60 32.97 110.69
  A 3.44 3.19 -38.7 0 1 33.11 109.74
  C 34.82 104.07 39.20 99.53 43.81 95.94
  A 2.53 2.53 0.0 0 1 45.40 95.41
  Q 49.27 95.46 97.58 95.50
  Z
  M 60.09 112.08
  Q 58.75 110.89 55.36 110.35
  Q 49.99 109.51 44.58 108.90
  C 41.44 108.55 38.40 109.00 37.54 112.37
  C 35.96 118.51 36.10 125.93 44.58 126.04
  Q 55.43 126.18 58.22 126.11
  C 67.27 125.86 63.63 115.25 60.09 112.08
  Z
  M 134.45 112.22
  C 130.92 115.45 127.37 126.16 136.48 126.32
  Q 139.29 126.36 150.21 126.10
  C 158.74 125.90 158.80 118.43 157.15 112.27
  C 156.25 108.88 153.18 108.46 150.02 108.85
  Q 144.59 109.52 139.19 110.43
  Q 135.78 111.01 134.45 112.22
  Z
  M 121.22 113.36
  L 73.46 113.28
  A 2.64 2.64 0.0 0 0 70.82 115.91
  L 70.82 116.95
  A 10.68 8.04 -89.9 0 0 78.84 127.65
  L 115.80 127.71
  A 10.68 8.04 -89.9 0 0 123.86 117.05
  L 123.86 116.01
  A 2.64 2.64 0.0 0 0 121.22 113.36
  Z"
/>
<path fill="#b2b0b4" d="
  M 60.09 112.08
  C 63.63 115.25 67.27 125.86 58.22 126.11
  Q 55.43 126.18 44.58 126.04
  C 36.10 125.93 35.96 118.51 37.54 112.37
  C 38.40 109.00 41.44 108.55 44.58 108.90
  Q 49.99 109.51 55.36 110.35
  Q 58.75 110.89 60.09 112.08
  Z
  M 58.11 117.41
  A 3.48 3.48 0.0 0 0 55.38 115.16
  L 43.50 113.31
  A 1.62 1.62 0.0 0 0 41.63 114.91
  L 41.63 118.83
  A 2.19 2.18 0.0 0 0 43.82 121.01
  L 57.56 121.01
  A 1.29 1.29 0.0 0 0 58.78 119.29
  L 58.11 117.41
  Z"
/>
<path fill="#b2b0b4" d="
  M 136.48 126.32
  C 127.37 126.16 130.92 115.45 134.45 112.22
  Q 135.78 111.01 139.19 110.43
  Q 144.59 109.52 150.02 108.85
  C 153.18 108.46 156.25 108.88 157.15 112.27
  C 158.80 118.43 158.74 125.90 150.21 126.10
  Q 139.29 126.36 136.48 126.32
  Z
  M 136.21 120.98
  L 151.05 120.98
  A 1.85 1.84 -90.0 0 0 152.89 119.13
  L 152.89 114.60
  A 1.22 1.22 0.0 0 0 151.50 113.39
  L 139.14 115.16
  A 2.31 2.31 0.0 0 0 137.47 116.29
  L 135.49 119.72
  A 0.84 0.84 0.0 0 0 136.21 120.98
  Z"
/>
<path fill="#ffffff" d="
  M 58.11 117.41
  L 58.78 119.29
  A 1.29 1.29 0.0 0 1 57.56 121.01
  L 43.82 121.01
  A 2.19 2.18 -0.0 0 1 41.63 118.83
  L 41.63 114.91
  A 1.62 1.62 0.0 0 1 43.50 113.31
  L 55.38 115.16
  A 3.48 3.48 0.0 0 1 58.11 117.41
  Z"
/>
<path fill="#b2b0b4" d="
  M 121.22 113.36
  A 2.64 2.64 0.0 0 1 123.86 116.01
  L 123.86 117.05
  A 10.68 8.04 -89.9 0 1 115.80 127.71
  L 78.84 127.65
  A 10.68 8.04 -89.9 0 1 70.82 116.95
  L 70.82 115.91
  A 2.64 2.64 0.0 0 1 73.46 113.28
  L 121.22 113.36
  Z
  M 118.70 118.32
  L 75.96 118.32
  A 0.10 0.10 0.0 0 0 75.86 118.42
  L 75.86 118.44
  A 4.48 4.08 -90.0 0 0 79.94 122.92
  L 114.72 122.92
  A 4.48 4.08 -90.0 0 0 118.80 118.44
  L 118.80 118.42
  A 0.10 0.10 0.0 0 0 118.70 118.32
  Z"
/>
<path fill="#ffffff" d="
  M 136.21 120.98
  A 0.84 0.84 0.0 0 1 135.49 119.72
  L 137.47 116.29
  A 2.31 2.31 0.0 0 1 139.14 115.16
  L 151.50 113.39
  A 1.22 1.22 0.0 0 1 152.89 114.60
  L 152.89 119.13
  A 1.85 1.84 90.0 0 1 151.05 120.98
  L 136.21 120.98
  Z"
/>
<path fill="#ffffff" d="
  M 118.70 118.32
  A 0.10 0.10 0.0 0 1 118.80 118.42
  L 118.80 118.44
  A 4.48 4.08 90.0 0 1 114.72 122.92
  L 79.94 122.92
  A 4.48 4.08 90.0 0 1 75.86 118.44
  L 75.86 118.42
  A 0.10 0.10 0.0 0 1 75.96 118.32
  L 118.70 118.32
  Z"
/>
</svg>
