<?xml version="1.0" encoding="UTF-8" standalone="no"?>
<!DOCTYPE svg PUBLIC "-//W3C//DTD SVG 1.1//EN" "http://www.w3.org/Graphics/SVG/1.1/DTD/svg11.dtd">
<svg xmlns="http://www.w3.org/2000/svg" version="1.1" viewBox="0.00 0.00 229.00 186.00">
<g stroke-width="2.00" fill="none" stroke-linecap="butt">
<path stroke="#dad8da" vector-effect="non-scaling-stroke" d="
  M 95.47 60.29
  C 94.74 54.60 87.42 55.45 82.73 55.62
  Q 74.53 55.91 75.25 64.54
  C 75.93 72.71 83.70 71.16 89.48 71.15
  Q 91.28 71.15 93.01 69.86
  A 0.24 0.24 0.0 0 1 93.36 70.17
  Q 91.27 73.75 88.85 78.58
  Q 87.81 80.65 87.88 83.00
  Q 88.51 103.46 88.25 128.26
  A 2.73 2.54 -56.2 0 0 88.40 129.20
  Q 90.43 134.80 95.76 134.96
  Q 99.61 135.07 105.52 134.93
  C 112.33 134.76 113.53 129.88 113.34 123.81
  Q 113.22 119.68 113.39 116.38
  A 0.58 0.58 0.0 0 1 113.99 115.83
  Q 152.00 117.02 189.89 115.79
  A 0.42 0.42 0.0 0 1 190.33 116.22
  Q 190.13 121.56 190.30 127.48
  C 190.48 133.36 194.72 135.27 200.05 135.03
  C 203.39 134.88 208.41 135.66 211.18 134.14
  C 214.71 132.20 215.46 128.19 215.43 124.28
  Q 215.30 104.28 215.49 84.50
  Q 215.52 80.82 215.05 79.71
  Q 212.82 74.45 210.83 69.86
  A 0.21 0.21 0.0 0 1 211.16 69.61
  C 212.11 70.40 213.09 71.15 214.44 71.16
  C 220.54 71.23 228.41 72.80 228.58 63.75
  Q 228.70 57.11 222.96 55.73
  A 3.39 3.05 -34.0 0 0 222.24 55.63
  Q 219.61 55.59 214.10 55.59
  C 210.66 55.59 208.67 56.70 207.40 59.75
  A 0.41 0.41 0.0 0 1 206.63 59.72
  Q 203.40 50.20 198.61 37.34
  Q 195.14 27.99 184.47 27.83
  Q 143.76 27.19 118.78 27.88
  Q 111.56 28.08 107.39 32.99
  Q 105.83 34.83 102.12 44.73
  Q 98.60 54.18 96.44 60.39
  A 0.50 0.50 0.0 0 1 95.47 60.29"
/>
<path stroke="#dad8da" vector-effect="non-scaling-stroke" d="
  M 92.98 80.74
  L 94.21 80.08
  A 1.91 1.91 0.0 0 1 95.08 79.87
  Q 101.79 79.91 104.76 79.93
  C 109.42 79.96 111.75 83.01 111.60 87.39
  C 111.52 89.74 111.90 92.44 110.82 94.19
  Q 108.80 97.48 105.58 97.61
  Q 99.01 97.85 93.25 97.44
  A 0.43 0.43 0.0 0 0 92.79 97.88
  L 92.94 108.35
  A 1.08 1.05 28.8 0 0 93.12 108.94
  Q 94.46 110.98 96.00 111.03
  Q 143.32 112.45 206.61 111.03
  Q 209.19 110.98 210.71 107.89
  A 0.86 0.84 -32.1 0 0 210.80 107.51
  L 210.80 97.79
  A 0.45 0.45 0.0 0 0 210.31 97.34
  Q 203.88 97.90 198.35 97.62
  Q 193.75 97.40 192.39 93.61
  C 191.32 90.61 191.08 84.12 194.10 81.62
  Q 196.12 79.95 197.50 79.93
  Q 204.35 79.85 209.91 79.97
  A 0.38 0.38 0.0 0 0 210.26 79.42
  Q 207.97 74.93 205.61 68.89
  Q 200.84 56.70 194.66 39.41
  C 192.38 33.03 188.36 32.19 181.71 32.27
  C 171.39 32.39 161.95 31.74 154.08 31.94
  Q 134.59 32.42 120.06 32.25
  C 112.39 32.16 110.23 35.34 107.91 41.90
  Q 103.98 53.01 97.05 71.98
  C 95.86 75.24 94.46 77.51 92.56 80.27
  A 0.33 0.32 3.4 0 0 92.98 80.74"
/>
<path stroke="#dad8da" vector-effect="non-scaling-stroke" d="
  M 79.65 61.57
  L 79.63 65.21
  A 1.46 1.46 0.0 0 0 81.09 66.67
  L 90.24 66.70
  A 3.19 3.19 0.0 0 0 93.44 63.52
  L 93.44 63.34
  A 3.19 3.19 0.0 0 0 90.26 60.14
  L 81.11 60.11
  A 1.46 1.46 0.0 0 0 79.65 61.57"
/>
<path stroke="#dad8da" vector-effect="non-scaling-stroke" d="
  M 224.2589 62.3977
  A 2.20 2.20 0.0 0 0 222.0782 60.1786
  L 213.2585 60.1016
  A 2.20 2.20 0.0 0 0 211.0394 62.2824
  L 211.0211 64.3823
  A 2.20 2.20 0.0 0 0 213.2018 66.6014
  L 222.0215 66.6784
  A 2.20 2.20 0.0 0 0 224.2406 64.4976
  L 224.2589 62.3977"
/>
<path stroke="#dad8da" vector-effect="non-scaling-stroke" d="
  M 92.47 84.49
  L 92.43 92.59
  A 0.57 0.57 0.0 0 0 93.00 93.16
  L 104.67 93.23
  A 2.80 2.60 -89.7 0 0 107.28 90.44
  L 107.30 86.80
  A 2.80 2.60 -89.7 0 0 104.71 83.99
  L 93.04 83.92
  A 0.57 0.57 0.0 0 0 92.47 84.49"
/>
<path stroke="#dad8da" vector-effect="non-scaling-stroke" d="
  M 211.03 92.90
  L 210.93 84.10
  A 0.21 0.21 0.0 0 0 210.72 83.90
  L 199.06 84.02
  A 2.79 2.69 89.4 0 0 196.40 86.84
  L 196.44 90.48
  A 2.79 2.69 89.4 0 0 199.16 93.24
  L 210.82 93.12
  A 0.21 0.21 0.0 0 0 211.03 92.90"
/>
<path stroke="#dad8da" vector-effect="non-scaling-stroke" d="
  M 210.59 114.70
  L 207.51 115.62
  A 3.50 3.50 0.0 0 1 206.53 115.76
  L 194.93 115.76
  A 0.43 0.42 -90.0 0 0 194.51 116.19
  Q 194.59 124.97 194.55 126.64
  C 194.50 128.70 195.51 130.83 197.59 130.84
  Q 206.34 130.89 207.49 130.76
  C 210.09 130.44 211.03 129.10 210.98 126.43
  Q 210.84 118.49 210.97 115.00
  A 0.30 0.30 0.0 0 0 210.59 114.70"
/>
<path stroke="#dad8da" vector-effect="non-scaling-stroke" d="
  M 92.90 114.83
  A 0.30 0.30 0.0 0 0 92.53 115.12
  Q 92.66 118.58 92.55 126.45
  C 92.50 129.09 93.44 130.42 96.02 130.73
  Q 97.16 130.86 105.82 130.78
  C 107.88 130.77 108.88 128.65 108.82 126.61
  Q 108.78 124.96 108.84 116.26
  A 0.43 0.42 89.8 0 0 108.42 115.84
  L 96.93 115.87
  A 3.47 3.47 0.0 0 1 95.96 115.73
  L 92.90 114.83"
/>
<path stroke="#dad8da" vector-effect="non-scaling-stroke" d="
  M 151.70 105.27
  C 170.41 105.26 183.23 88.37 179.68 70.56
  A 0.44 0.44 0.0 0 1 180.11 70.04
  Q 186.85 70.01 187.33 70.02
  C 193.89 70.21 198.48 67.84 195.87 60.23
  Q 193.30 52.73 189.87 43.49
  Q 188.12 38.76 183.64 37.61
  A 3.06 2.95 -35.6 0 0 182.90 37.50
  C 172.06 37.19 161.61 36.74 151.66 36.75
  C 141.71 36.75 131.25 37.21 120.41 37.54
  A 3.06 2.95 35.5 0 0 119.68 37.65
  Q 115.20 38.80 113.45 43.53
  Q 110.03 52.78 107.47 60.28
  C 104.87 67.89 109.46 70.26 116.02 70.06
  Q 116.50 70.05 123.24 70.07
  A 0.44 0.44 0.0 0 1 123.67 70.60
  C 120.14 88.41 132.99 105.28 151.70 105.27"
/>
<path stroke="#dad8da" vector-effect="non-scaling-stroke" d="
  M 151.76 47.94
  C 163.38 47.95 173.20 54.56 177.92 65.02
  A 0.98 0.98 0.0 0 0 178.81 65.60
  L 190.67 65.60
  A 1.78 1.78 0.0 0 0 192.34 63.22
  Q 189.10 54.28 185.72 44.76
  Q 184.67 41.80 181.26 41.70
  C 171.42 41.40 161.62 41.42 151.76 41.42
  C 141.91 41.41 132.11 41.39 122.27 41.67
  Q 118.86 41.77 117.81 44.73
  Q 114.42 54.25 111.17 63.19
  A 1.78 1.78 0.0 0 0 112.84 65.57
  L 124.70 65.58
  A 0.98 0.98 0.0 0 0 125.59 65.00
  C 130.32 54.54 140.14 47.94 151.76 47.94"
/>
<path stroke="#dad8da" vector-effect="non-scaling-stroke" d="
  M 175.68 76.50
  A 23.97 23.97 0.0 0 0 151.71 52.53
  A 23.97 23.97 0.0 0 0 127.74 76.50
  A 23.97 23.97 0.0 0 0 151.71 100.47
  A 23.97 23.97 0.0 0 0 175.68 76.50"
/>
<path stroke="#dad8da" vector-effect="non-scaling-stroke" d="
  M 166.54 76.41
  A 14.87 14.87 0.0 0 0 151.67 61.54
  A 14.87 14.87 0.0 0 0 136.80 76.41
  A 14.87 14.87 0.0 0 0 151.67 91.28
  A 14.87 14.87 0.0 0 0 166.54 76.41"
/>
<path stroke="#dad8da" vector-effect="non-scaling-stroke" d="
  M 161.83 76.43
  A 10.15 10.15 0.0 0 0 151.68 66.28
  A 10.15 10.15 0.0 0 0 141.53 76.43
  A 10.15 10.15 0.0 0 0 151.68 86.58
  A 10.15 10.15 0.0 0 0 161.83 76.43"
/>
</g>
<path fill="#ffffff" d="
  M 229.00 0.00
  L 229.00 186.00
  L 0.00 186.00
  L 0.00 0.00
  L 229.00 0.00
  Z
  M 95.47 60.29
  C 94.74 54.60 87.42 55.45 82.73 55.62
  Q 74.53 55.91 75.25 64.54
  C 75.93 72.71 83.70 71.16 89.48 71.15
  Q 91.28 71.15 93.01 69.86
  A 0.24 0.24 0.0 0 1 93.36 70.17
  Q 91.27 73.75 88.85 78.58
  Q 87.81 80.65 87.88 83.00
  Q 88.51 103.46 88.25 128.26
  A 2.73 2.54 -56.2 0 0 88.40 129.20
  Q 90.43 134.80 95.76 134.96
  Q 99.61 135.07 105.52 134.93
  C 112.33 134.76 113.53 129.88 113.34 123.81
  Q 113.22 119.68 113.39 116.38
  A 0.58 0.58 0.0 0 1 113.99 115.83
  Q 152.00 117.02 189.89 115.79
  A 0.42 0.42 0.0 0 1 190.33 116.22
  Q 190.13 121.56 190.30 127.48
  C 190.48 133.36 194.72 135.27 200.05 135.03
  C 203.39 134.88 208.41 135.66 211.18 134.14
  C 214.71 132.20 215.46 128.19 215.43 124.28
  Q 215.30 104.28 215.49 84.50
  Q 215.52 80.82 215.05 79.71
  Q 212.82 74.45 210.83 69.86
  A 0.21 0.21 0.0 0 1 211.16 69.61
  C 212.11 70.40 213.09 71.15 214.44 71.16
  C 220.54 71.23 228.41 72.80 228.58 63.75
  Q 228.70 57.11 222.96 55.73
  A 3.39 3.05 -34.0 0 0 222.24 55.63
  Q 219.61 55.59 214.10 55.59
  C 210.66 55.59 208.67 56.70 207.40 59.75
  A 0.41 0.41 0.0 0 1 206.63 59.72
  Q 203.40 50.20 198.61 37.34
  Q 195.14 27.99 184.47 27.83
  Q 143.76 27.19 118.78 27.88
  Q 111.56 28.08 107.39 32.99
  Q 105.83 34.83 102.12 44.73
  Q 98.60 54.18 96.44 60.39
  A 0.50 0.50 0.0 0 1 95.47 60.29
  Z"
/>
<path fill="#b4b1b5" d="
  M 95.47 60.29
  A 0.50 0.50 0.0 0 0 96.44 60.39
  Q 98.60 54.18 102.12 44.73
  Q 105.83 34.83 107.39 32.99
  Q 111.56 28.08 118.78 27.88
  Q 143.76 27.19 184.47 27.83
  Q 195.14 27.99 198.61 37.34
  Q 203.40 50.20 206.63 59.72
  A 0.41 0.41 0.0 0 0 207.40 59.75
  C 208.67 56.70 210.66 55.59 214.10 55.59
  Q 219.61 55.59 222.24 55.63
  A 3.39 3.05 -34.0 0 1 222.96 55.73
  Q 228.70 57.11 228.58 63.75
  C 228.41 72.80 220.54 71.23 214.44 71.16
  C 213.09 71.15 212.11 70.40 211.16 69.61
  A 0.21 0.21 0.0 0 0 210.83 69.86
  Q 212.82 74.45 215.05 79.71
  Q 215.52 80.82 215.49 84.50
  Q 215.30 104.28 215.43 124.28
  C 215.46 128.19 214.71 132.20 211.18 134.14
  C 208.41 135.66 203.39 134.88 200.05 135.03
  C 194.72 135.27 190.48 133.36 190.30 127.48
  Q 190.13 121.56 190.33 116.22
  A 0.42 0.42 0.0 0 0 189.89 115.79
  Q 152.00 117.02 113.99 115.83
  A 0.58 0.58 0.0 0 0 113.39 116.38
  Q 113.22 119.68 113.34 123.81
  C 113.53 129.88 112.33 134.76 105.52 134.93
  Q 99.61 135.07 95.76 134.96
  Q 90.43 134.80 88.40 129.20
  A 2.73 2.54 -56.2 0 1 88.25 128.26
  Q 88.51 103.46 87.88 83.00
  Q 87.81 80.65 88.85 78.58
  Q 91.27 73.75 93.36 70.17
  A 0.24 0.24 0.0 0 0 93.01 69.86
  Q 91.28 71.15 89.48 71.15
  C 83.70 71.16 75.93 72.71 75.25 64.54
  Q 74.53 55.91 82.73 55.62
  C 87.42 55.45 94.74 54.60 95.47 60.29
  Z
  M 92.98 80.74
  L 94.21 80.08
  A 1.91 1.91 0.0 0 1 95.08 79.87
  Q 101.79 79.91 104.76 79.93
  C 109.42 79.96 111.75 83.01 111.60 87.39
  C 111.52 89.74 111.90 92.44 110.82 94.19
  Q 108.80 97.48 105.58 97.61
  Q 99.01 97.85 93.25 97.44
  A 0.43 0.43 0.0 0 0 92.79 97.88
  L 92.94 108.35
  A 1.08 1.05 28.8 0 0 93.12 108.94
  Q 94.46 110.98 96.00 111.03
  Q 143.32 112.45 206.61 111.03
  Q 209.19 110.98 210.71 107.89
  A 0.86 0.84 -32.1 0 0 210.80 107.51
  L 210.80 97.79
  A 0.45 0.45 0.0 0 0 210.31 97.34
  Q 203.88 97.90 198.35 97.62
  Q 193.75 97.40 192.39 93.61
  C 191.32 90.61 191.08 84.12 194.10 81.62
  Q 196.12 79.95 197.50 79.93
  Q 204.35 79.85 209.91 79.97
  A 0.38 0.38 0.0 0 0 210.26 79.42
  Q 207.97 74.93 205.61 68.89
  Q 200.84 56.70 194.66 39.41
  C 192.38 33.03 188.36 32.19 181.71 32.27
  C 171.39 32.39 161.95 31.74 154.08 31.94
  Q 134.59 32.42 120.06 32.25
  C 112.39 32.16 110.23 35.34 107.91 41.90
  Q 103.98 53.01 97.05 71.98
  C 95.86 75.24 94.46 77.51 92.56 80.27
  A 0.33 0.32 3.4 0 0 92.98 80.74
  Z
  M 79.65 61.57
  L 79.63 65.21
  A 1.46 1.46 0.0 0 0 81.09 66.67
  L 90.24 66.70
  A 3.19 3.19 0.0 0 0 93.44 63.52
  L 93.44 63.34
  A 3.19 3.19 0.0 0 0 90.26 60.14
  L 81.11 60.11
  A 1.46 1.46 0.0 0 0 79.65 61.57
  Z
  M 224.2589 62.3977
  A 2.20 2.20 0.0 0 0 222.0782 60.1786
  L 213.2585 60.1016
  A 2.20 2.20 0.0 0 0 211.0394 62.2824
  L 211.0211 64.3823
  A 2.20 2.20 0.0 0 0 213.2018 66.6014
  L 222.0215 66.6784
  A 2.20 2.20 0.0 0 0 224.2406 64.4976
  L 224.2589 62.3977
  Z
  M 92.47 84.49
  L 92.43 92.59
  A 0.57 0.57 0.0 0 0 93.00 93.16
  L 104.67 93.23
  A 2.80 2.60 -89.7 0 0 107.28 90.44
  L 107.30 86.80
  A 2.80 2.60 -89.7 0 0 104.71 83.99
  L 93.04 83.92
  A 0.57 0.57 0.0 0 0 92.47 84.49
  Z
  M 211.03 92.90
  L 210.93 84.10
  A 0.21 0.21 0.0 0 0 210.72 83.90
  L 199.06 84.02
  A 2.79 2.69 89.4 0 0 196.40 86.84
  L 196.44 90.48
  A 2.79 2.69 89.4 0 0 199.16 93.24
  L 210.82 93.12
  A 0.21 0.21 0.0 0 0 211.03 92.90
  Z
  M 210.59 114.70
  L 207.51 115.62
  A 3.50 3.50 0.0 0 1 206.53 115.76
  L 194.93 115.76
  A 0.43 0.42 -90.0 0 0 194.51 116.19
  Q 194.59 124.97 194.55 126.64
  C 194.50 128.70 195.51 130.83 197.59 130.84
  Q 206.34 130.89 207.49 130.76
  C 210.09 130.44 211.03 129.10 210.98 126.43
  Q 210.84 118.49 210.97 115.00
  A 0.30 0.30 0.0 0 0 210.59 114.70
  Z
  M 92.90 114.83
  A 0.30 0.30 0.0 0 0 92.53 115.12
  Q 92.66 118.58 92.55 126.45
  C 92.50 129.09 93.44 130.42 96.02 130.73
  Q 97.16 130.86 105.82 130.78
  C 107.88 130.77 108.88 128.65 108.82 126.61
  Q 108.78 124.96 108.84 116.26
  A 0.43 0.42 89.8 0 0 108.42 115.84
  L 96.93 115.87
  A 3.47 3.47 0.0 0 1 95.96 115.73
  L 92.90 114.83
  Z"
/>
<path fill="#ffffff" d="
  M 92.98 80.74
  A 0.33 0.32 3.4 0 1 92.56 80.27
  C 94.46 77.51 95.86 75.24 97.05 71.98
  Q 103.98 53.01 107.91 41.90
  C 110.23 35.34 112.39 32.16 120.06 32.25
  Q 134.59 32.42 154.08 31.94
  C 161.95 31.74 171.39 32.39 181.71 32.27
  C 188.36 32.19 192.38 33.03 194.66 39.41
  Q 200.84 56.70 205.61 68.89
  Q 207.97 74.93 210.26 79.42
  A 0.38 0.38 0.0 0 1 209.91 79.97
  Q 204.35 79.85 197.50 79.93
  Q 196.12 79.95 194.10 81.62
  C 191.08 84.12 191.32 90.61 192.39 93.61
  Q 193.75 97.40 198.35 97.62
  Q 203.88 97.90 210.31 97.34
  A 0.45 0.45 0.0 0 1 210.80 97.79
  L 210.80 107.51
  A 0.86 0.84 -32.1 0 1 210.71 107.89
  Q 209.19 110.98 206.61 111.03
  Q 143.32 112.45 96.00 111.03
  Q 94.46 110.98 93.12 108.94
  A 1.08 1.05 28.8 0 1 92.94 108.35
  L 92.79 97.88
  A 0.43 0.43 0.0 0 1 93.25 97.44
  Q 99.01 97.85 105.58 97.61
  Q 108.80 97.48 110.82 94.19
  C 111.90 92.44 111.52 89.74 111.60 87.39
  C 111.75 83.01 109.42 79.96 104.76 79.93
  Q 101.79 79.91 95.08 79.87
  A 1.91 1.91 0.0 0 0 94.21 80.08
  L 92.98 80.74
  Z
  M 151.70 105.27
  C 170.41 105.26 183.23 88.37 179.68 70.56
  A 0.44 0.44 0.0 0 1 180.11 70.04
  Q 186.85 70.01 187.33 70.02
  C 193.89 70.21 198.48 67.84 195.87 60.23
  Q 193.30 52.73 189.87 43.49
  Q 188.12 38.76 183.64 37.61
  A 3.06 2.95 -35.6 0 0 182.90 37.50
  C 172.06 37.19 161.61 36.74 151.66 36.75
  C 141.71 36.75 131.25 37.21 120.41 37.54
  A 3.06 2.95 35.5 0 0 119.68 37.65
  Q 115.20 38.80 113.45 43.53
  Q 110.03 52.78 107.47 60.28
  C 104.87 67.89 109.46 70.26 116.02 70.06
  Q 116.50 70.05 123.24 70.07
  A 0.44 0.44 0.0 0 1 123.67 70.60
  C 120.14 88.41 132.99 105.28 151.70 105.27
  Z"
/>
<path fill="#b4b1b5" d="
  M 151.66 36.75
  C 161.61 36.74 172.06 37.19 182.90 37.50
  A 3.06 2.95 -35.6 0 1 183.64 37.61
  Q 188.12 38.76 189.87 43.49
  Q 193.30 52.73 195.87 60.23
  C 198.48 67.84 193.89 70.21 187.33 70.02
  Q 186.85 70.01 180.11 70.04
  A 0.44 0.44 0.0 0 0 179.68 70.56
  C 183.23 88.37 170.41 105.26 151.70 105.27
  C 132.99 105.28 120.14 88.41 123.67 70.60
  A 0.44 0.44 0.0 0 0 123.24 70.07
  Q 116.50 70.05 116.02 70.06
  C 109.46 70.26 104.87 67.89 107.47 60.28
  Q 110.03 52.78 113.45 43.53
  Q 115.20 38.80 119.68 37.65
  A 3.06 2.95 35.5 0 1 120.41 37.54
  C 131.25 37.21 141.71 36.75 151.66 36.75
  Z
  M 151.76 47.94
  C 163.38 47.95 173.20 54.56 177.92 65.02
  A 0.98 0.98 0.0 0 0 178.81 65.60
  L 190.67 65.60
  A 1.78 1.78 0.0 0 0 192.34 63.22
  Q 189.10 54.28 185.72 44.76
  Q 184.67 41.80 181.26 41.70
  C 171.42 41.40 161.62 41.42 151.76 41.42
  C 141.91 41.41 132.11 41.39 122.27 41.67
  Q 118.86 41.77 117.81 44.73
  Q 114.42 54.25 111.17 63.19
  A 1.78 1.78 0.0 0 0 112.84 65.57
  L 124.70 65.58
  A 0.98 0.98 0.0 0 0 125.59 65.00
  C 130.32 54.54 140.14 47.94 151.76 47.94
  Z
  M 175.68 76.50
  A 23.97 23.97 0.0 0 0 151.71 52.53
  A 23.97 23.97 0.0 0 0 127.74 76.50
  A 23.97 23.97 0.0 0 0 151.71 100.47
  A 23.97 23.97 0.0 0 0 175.68 76.50
  Z"
/>
<path fill="#ffffff" d="
  M 151.76 41.42
  C 161.62 41.42 171.42 41.40 181.26 41.70
  Q 184.67 41.80 185.72 44.76
  Q 189.10 54.28 192.34 63.22
  A 1.78 1.78 0.0 0 1 190.67 65.60
  L 178.81 65.60
  A 0.98 0.98 0.0 0 1 177.92 65.02
  C 173.20 54.56 163.38 47.95 151.76 47.94
  C 140.14 47.94 130.32 54.54 125.59 65.00
  A 0.98 0.98 0.0 0 1 124.70 65.58
  L 112.84 65.57
  A 1.78 1.78 0.0 0 1 111.17 63.19
  Q 114.42 54.25 117.81 44.73
  Q 118.86 41.77 122.27 41.67
  C 132.11 41.39 141.91 41.41 151.76 41.42
  Z"
/>
<path fill="#ffffff" d="
  M 175.68 76.50
  A 23.97 23.97 0.0 0 1 151.71 100.47
  A 23.97 23.97 0.0 0 1 127.74 76.50
  A 23.97 23.97 0.0 0 1 151.71 52.53
  A 23.97 23.97 0.0 0 1 175.68 76.50
  Z
  M 166.54 76.41
  A 14.87 14.87 0.0 0 0 151.67 61.54
  A 14.87 14.87 0.0 0 0 136.80 76.41
  A 14.87 14.87 0.0 0 0 151.67 91.28
  A 14.87 14.87 0.0 0 0 166.54 76.41
  Z"
/>
<path fill="#ffffff" d="
  M 79.65 61.57
  A 1.46 1.46 0.0 0 1 81.11 60.11
  L 90.26 60.14
  A 3.19 3.19 0.0 0 1 93.44 63.34
  L 93.44 63.52
  A 3.19 3.19 0.0 0 1 90.24 66.70
  L 81.09 66.67
  A 1.46 1.46 0.0 0 1 79.63 65.21
  L 79.65 61.57
  Z"
/>
<rect fill="#ffffff" x="-6.61" y="-3.25" transform="translate(217.64,63.39) rotate(0.5)" width="13.22" height="6.50" rx="2.20"/>
<path fill="#b4b1b5" d="
  M 166.54 76.41
  A 14.87 14.87 0.0 0 1 151.67 91.28
  A 14.87 14.87 0.0 0 1 136.80 76.41
  A 14.87 14.87 0.0 0 1 151.67 61.54
  A 14.87 14.87 0.0 0 1 166.54 76.41
  Z
  M 161.83 76.43
  A 10.15 10.15 0.0 0 0 151.68 66.28
  A 10.15 10.15 0.0 0 0 141.53 76.43
  A 10.15 10.15 0.0 0 0 151.68 86.58
  A 10.15 10.15 0.0 0 0 161.83 76.43
  Z"
/>
<circle fill="#ffffff" cx="151.68" cy="76.43" r="10.15"/>
<path fill="#ffffff" d="
  M 92.47 84.49
  A 0.57 0.57 0.0 0 1 93.04 83.92
  L 104.71 83.99
  A 2.80 2.60 -89.7 0 1 107.30 86.80
  L 107.28 90.44
  A 2.80 2.60 -89.7 0 1 104.67 93.23
  L 93.00 93.16
  A 0.57 0.57 0.0 0 1 92.43 92.59
  L 92.47 84.49
  Z"
/>
<path fill="#ffffff" d="
  M 211.03 92.90
  A 0.21 0.21 0.0 0 1 210.82 93.12
  L 199.16 93.24
  A 2.79 2.69 89.4 0 1 196.44 90.48
  L 196.40 86.84
  A 2.79 2.69 89.4 0 1 199.06 84.02
  L 210.72 83.90
  A 0.21 0.21 0.0 0 1 210.93 84.10
  L 211.03 92.90
  Z"
/>
<path fill="#ffffff" d="
  M 210.59 114.70
  A 0.30 0.30 0.0 0 1 210.97 115.00
  Q 210.84 118.49 210.98 126.43
  C 211.03 129.10 210.09 130.44 207.49 130.76
  Q 206.34 130.89 197.59 130.84
  C 195.51 130.83 194.50 128.70 194.55 126.64
  Q 194.59 124.97 194.51 116.19
  A 0.43 0.42 90.0 0 1 194.93 115.76
  L 206.53 115.76
  A 3.50 3.50 0.0 0 0 207.51 115.62
  L 210.59 114.70
  Z"
/>
<path fill="#ffffff" d="
  M 92.90 114.83
  L 95.96 115.73
  A 3.47 3.47 0.0 0 0 96.93 115.87
  L 108.42 115.84
  A 0.43 0.42 89.8 0 1 108.84 116.26
  Q 108.78 124.96 108.82 126.61
  C 108.88 128.65 107.88 130.77 105.82 130.78
  Q 97.16 130.86 96.02 130.73
  C 93.44 130.42 92.50 129.09 92.55 126.45
  Q 92.66 118.58 92.53 115.12
  A 0.30 0.30 0.0 0 1 92.90 114.83
  Z"
/>
</svg>
