<?xml version="1.0" encoding="utf-8"?>
<svg version="1.1" viewBox="0.00 0.00 195.00 186.00" xmlns="http://www.w3.org/2000/svg"><g id="offState" style="display:inline"><g fill="none" stroke-linecap="butt" stroke-width="2.00">
<path class="icon-shape" d="   M 85.13 88.40   C 78.01 72.97 56.86 77.02 55.42 94.00   A 0.64 0.64 0.0 0 1 54.79 94.58   C 49.19 94.67 44.96 95.18 40.34 92.64   A 4.77 4.77 0.0 0 1 37.87 88.82   C 37.59 84.99 37.96 79.33 40.69 76.43   Q 44.99 71.88 51.82 71.14   C 63.79 69.83 69.77 63.64 79.32 55.59   C 84.67 51.09 90.25 50.02 97.79 50.02   Q 116.52 50.00 121.26 50.16   Q 128.77 50.40 133.93 54.60   C 138.78 58.55 145.93 65.36 153.65 69.21   C 157.88 71.33 161.68 71.52 166.65 72.17   Q 170.81 72.70 174.81 74.43   Q 179.96 76.66 179.76 82.21   Q 179.62 86.26 179.34 89.72   A 4.33 4.32 73.3 0 1 177.69 92.79   Q 172.86 96.54 166.35 95.92   A 0.63 0.62 -88.5 0 1 165.79 95.32   Q 165.52 86.52 159.34 81.92   C 150.67 75.46 137.95 79.70 135.29 90.19   C 133.02 99.13 138.51 108.27 147.48 109.61   Q 158.33 111.23 164.25 101.23   A 0.99 0.99 0.0 0 1 165.03 100.74   Q 166.42 100.61 168.96 100.54   C 174.45 100.39 183.04 97.12 183.83 90.78   Q 184.29 87.12 183.97 81.27   C 183.67 75.64 181.15 72.23 176.24 70.30   Q 170.52 68.06 164.40 67.43   Q 159.90 66.96 157.78 66.10   C 150.80 63.28 144.82 58.40 139.41 53.28   C 134.95 49.04 129.93 46.44 123.60 45.95   C 113.92 45.20 104.06 45.52 93.77 45.76   Q 83.91 45.99 76.99 51.76   Q 66.63 60.41 65.96 60.93   Q 60.25 65.36 53.91 66.38   Q 47.41 67.43 46.27 67.75   C 41.21 69.18 35.01 73.78 33.73 79.45   C 33.18 81.93 33.10 88.98 33.46 90.54   C 35.66 100.05 48.07 99.20 55.36 99.00   A 0.98 0.98 0.0 0 1 56.29 99.60   C 63.24 116.39 86.47 111.51 86.29 93.33   A 0.69 0.69 0.0 0 1 86.92 92.63   C 90.73 92.26 91.87 88.01 92.25 84.74   A 0.76 0.76 0.0 0 1 93.62 84.37   Q 95.28 86.59 96.03 90.13   A 3.27 2.98 87.8 0 0 98.52 92.65   C 102.22 93.24 103.46 90.33 104.60 87.11   C 107.44 79.15 106.36 75.47 99.28 71.05   A 1.76 1.75 -51.4 0 0 97.11 71.30   L 96.58 71.83   A 1.51 1.51 0.0 0 0 96.58 73.97   L 100.70 78.09   A 3.48 3.47 28.9 0 1 101.63 81.29   L 100.40 86.77   A 0.61 0.60 -48.3 0 1 99.24 86.84   Q 97.68 82.29 93.46 79.08   A 1.49 1.49 0.0 0 0 92.44 78.77   Q 89.98 78.91 89.26 81.25   Q 88.04 85.22 86.67 88.38   A 0.84 0.84 0.0 0 1 85.13 88.40" stroke="#dad8da" vector-effect="non-scaling-stroke"/>
<path class="icon-shape" d="   M 120.48 79.66   C 120.78 86.66 118.29 92.11 114.28 98.01   A 1.73 1.73 0.0 0 0 114.49 100.20   L 114.82 100.53   A 1.90 1.89 41.6 0 0 117.65 100.37   C 122.48 94.24 125.30 87.41 124.96 79.47   C 124.62 71.53 121.24 64.96 115.91 59.26   A 1.90 1.89 -46.4 0 0 113.08 59.34   L 112.77 59.69   A 1.73 1.73 0.0 0 0 112.76 61.90   C 117.24 67.43 120.18 72.65 120.48 79.66" stroke="#dad8da" vector-effect="non-scaling-stroke"/>
<path class="icon-shape" d="   M 107.02 96.61   A 1.99 1.98 -50.6 0 0 110.08 96.30   C 117.39 85.36 119.21 74.44 108.30 65.36   A 2.49 2.48 45.6 0 0 105.18 65.32   L 105.11 65.38   A 1.88 1.88 0.0 0 0 104.89 68.12   C 106.35 69.72 108.39 71.23 109.56 73.16   C 113.73 80.05 110.55 87.75 106.45 93.94   A 1.85 1.84 39.2 0 0 106.69 96.27   L 107.02 96.61" stroke="#dad8da" vector-effect="non-scaling-stroke"/>
<path class="icon-shape" d="   M 69.3065 83.6763   A 10.84 10.63 -98.4 0 0 60.3740 95.9529   A 10.84 10.63 -98.4 0 0 72.4735 105.1237   A 10.84 10.63 -98.4 0 0 81.4060 92.8471   A 10.84 10.63 -98.4 0 0 69.3065 83.6763" stroke="#dad8da" vector-effect="non-scaling-stroke"/>
<path class="icon-shape" d="   M 151.1832 83.6696   A 10.78 10.66 -84.5 0 0 139.5391 93.3783   A 10.78 10.66 -84.5 0 0 149.1168 105.1304   A 10.78 10.66 -84.5 0 0 160.7609 95.4217   A 10.78 10.66 -84.5 0 0 151.1832 83.6696" stroke="#dad8da" vector-effect="non-scaling-stroke"/>
</g>
<path class="icon-shape" d="   M 195.00 0.00   L 195.00 186.00   L 0.00 186.00   L 0.00 0.00   L 195.00 0.00   Z   M 85.13 88.40   C 78.01 72.97 56.86 77.02 55.42 94.00   A 0.64 0.64 0.0 0 1 54.79 94.58   C 49.19 94.67 44.96 95.18 40.34 92.64   A 4.77 4.77 0.0 0 1 37.87 88.82   C 37.59 84.99 37.96 79.33 40.69 76.43   Q 44.99 71.88 51.82 71.14   C 63.79 69.83 69.77 63.64 79.32 55.59   C 84.67 51.09 90.25 50.02 97.79 50.02   Q 116.52 50.00 121.26 50.16   Q 128.77 50.40 133.93 54.60   C 138.78 58.55 145.93 65.36 153.65 69.21   C 157.88 71.33 161.68 71.52 166.65 72.17   Q 170.81 72.70 174.81 74.43   Q 179.96 76.66 179.76 82.21   Q 179.62 86.26 179.34 89.72   A 4.33 4.32 73.3 0 1 177.69 92.79   Q 172.86 96.54 166.35 95.92   A 0.63 0.62 -88.5 0 1 165.79 95.32   Q 165.52 86.52 159.34 81.92   C 150.67 75.46 137.95 79.70 135.29 90.19   C 133.02 99.13 138.51 108.27 147.48 109.61   Q 158.33 111.23 164.25 101.23   A 0.99 0.99 0.0 0 1 165.03 100.74   Q 166.42 100.61 168.96 100.54   C 174.45 100.39 183.04 97.12 183.83 90.78   Q 184.29 87.12 183.97 81.27   C 183.67 75.64 181.15 72.23 176.24 70.30   Q 170.52 68.06 164.40 67.43   Q 159.90 66.96 157.78 66.10   C 150.80 63.28 144.82 58.40 139.41 53.28   C 134.95 49.04 129.93 46.44 123.60 45.95   C 113.92 45.20 104.06 45.52 93.77 45.76   Q 83.91 45.99 76.99 51.76   Q 66.63 60.41 65.96 60.93   Q 60.25 65.36 53.91 66.38   Q 47.41 67.43 46.27 67.75   C 41.21 69.18 35.01 73.78 33.73 79.45   C 33.18 81.93 33.10 88.98 33.46 90.54   C 35.66 100.05 48.07 99.20 55.36 99.00   A 0.98 0.98 0.0 0 1 56.29 99.60   C 63.24 116.39 86.47 111.51 86.29 93.33   A 0.69 0.69 0.0 0 1 86.92 92.63   C 90.73 92.26 91.87 88.01 92.25 84.74   A 0.76 0.76 0.0 0 1 93.62 84.37   Q 95.28 86.59 96.03 90.13   A 3.27 2.98 87.8 0 0 98.52 92.65   C 102.22 93.24 103.46 90.33 104.60 87.11   C 107.44 79.15 106.36 75.47 99.28 71.05   A 1.76 1.75 -51.4 0 0 97.11 71.30   L 96.58 71.83   A 1.51 1.51 0.0 0 0 96.58 73.97   L 100.70 78.09   A 3.48 3.47 28.9 0 1 101.63 81.29   L 100.40 86.77   A 0.61 0.60 -48.3 0 1 99.24 86.84   Q 97.68 82.29 93.46 79.08   A 1.49 1.49 0.0 0 0 92.44 78.77   Q 89.98 78.91 89.26 81.25   Q 88.04 85.22 86.67 88.38   A 0.84 0.84 0.0 0 1 85.13 88.40   Z   M 120.48 79.66   C 120.78 86.66 118.29 92.11 114.28 98.01   A 1.73 1.73 0.0 0 0 114.49 100.20   L 114.82 100.53   A 1.90 1.89 41.6 0 0 117.65 100.37   C 122.48 94.24 125.30 87.41 124.96 79.47   C 124.62 71.53 121.24 64.96 115.91 59.26   A 1.90 1.89 -46.4 0 0 113.08 59.34   L 112.77 59.69   A 1.73 1.73 0.0 0 0 112.76 61.90   C 117.24 67.43 120.18 72.65 120.48 79.66   Z   M 107.02 96.61   A 1.99 1.98 -50.6 0 0 110.08 96.30   C 117.39 85.36 119.21 74.44 108.30 65.36   A 2.49 2.48 45.6 0 0 105.18 65.32   L 105.11 65.38   A 1.88 1.88 0.0 0 0 104.89 68.12   C 106.35 69.72 108.39 71.23 109.56 73.16   C 113.73 80.05 110.55 87.75 106.45 93.94   A 1.85 1.84 39.2 0 0 106.69 96.27   L 107.02 96.61   Z" fill="#ffffff"/>
<path class="icon-shape" d="   M 85.13 88.40   A 0.84 0.84 0.0 0 0 86.67 88.38   Q 88.04 85.22 89.26 81.25   Q 89.98 78.91 92.44 78.77   A 1.49 1.49 0.0 0 1 93.46 79.08   Q 97.68 82.29 99.24 86.84   A 0.61 0.60 -48.3 0 0 100.40 86.77   L 101.63 81.29   A 3.48 3.47 28.9 0 0 100.70 78.09   L 96.58 73.97   A 1.51 1.51 0.0 0 1 96.58 71.83   L 97.11 71.30   A 1.76 1.75 -51.4 0 1 99.28 71.05   C 106.36 75.47 107.44 79.15 104.60 87.11   C 103.46 90.33 102.22 93.24 98.52 92.65   A 3.27 2.98 87.8 0 1 96.03 90.13   Q 95.28 86.59 93.62 84.37   A 0.76 0.76 0.0 0 0 92.25 84.74   C 91.87 88.01 90.73 92.26 86.92 92.63   A 0.69 0.69 0.0 0 0 86.29 93.33   C 86.47 111.51 63.24 116.39 56.29 99.60   A 0.98 0.98 0.0 0 0 55.36 99.00   C 48.07 99.20 35.66 100.05 33.46 90.54   C 33.10 88.98 33.18 81.93 33.73 79.45   C 35.01 73.78 41.21 69.18 46.27 67.75   Q 47.41 67.43 53.91 66.38   Q 60.25 65.36 65.96 60.93   Q 66.63 60.41 76.99 51.76   Q 83.91 45.99 93.77 45.76   C 104.06 45.52 113.92 45.20 123.60 45.95   C 129.93 46.44 134.95 49.04 139.41 53.28   C 144.82 58.40 150.80 63.28 157.78 66.10   Q 159.90 66.96 164.40 67.43   Q 170.52 68.06 176.24 70.30   C 181.15 72.23 183.67 75.64 183.97 81.27   Q 184.29 87.12 183.83 90.78   C 183.04 97.12 174.45 100.39 168.96 100.54   Q 166.42 100.61 165.03 100.74   A 0.99 0.99 0.0 0 0 164.25 101.23   Q 158.33 111.23 147.48 109.61   C 138.51 108.27 133.02 99.13 135.29 90.19   C 137.95 79.70 150.67 75.46 159.34 81.92   Q 165.52 86.52 165.79 95.32   A 0.63 0.62 -88.5 0 0 166.35 95.92   Q 172.86 96.54 177.69 92.79   A 4.33 4.32 73.3 0 0 179.34 89.72   Q 179.62 86.26 179.76 82.21   Q 179.96 76.66 174.81 74.43   Q 170.81 72.70 166.65 72.17   C 161.68 71.52 157.88 71.33 153.65 69.21   C 145.93 65.36 138.78 58.55 133.93 54.60   Q 128.77 50.40 121.26 50.16   Q 116.52 50.00 97.79 50.02   C 90.25 50.02 84.67 51.09 79.32 55.59   C 69.77 63.64 63.79 69.83 51.82 71.14   Q 44.99 71.88 40.69 76.43   C 37.96 79.33 37.59 84.99 37.87 88.82   A 4.77 4.77 0.0 0 0 40.34 92.64   C 44.96 95.18 49.19 94.67 54.79 94.58   A 0.64 0.64 0.0 0 0 55.42 94.00   C 56.86 77.02 78.01 72.97 85.13 88.40   Z   M 69.3065 83.6763   A 10.84 10.63 -98.4 0 0 60.3740 95.9529   A 10.84 10.63 -98.4 0 0 72.4735 105.1237   A 10.84 10.63 -98.4 0 0 81.4060 92.8471   A 10.84 10.63 -98.4 0 0 69.3065 83.6763   Z   M 151.1832 83.6696   A 10.78 10.66 -84.5 0 0 139.5391 93.3783   A 10.78 10.66 -84.5 0 0 149.1168 105.1304   A 10.78 10.66 -84.5 0 0 160.7609 95.4217   A 10.78 10.66 -84.5 0 0 151.1832 83.6696   Z" fill="#b4b1b5"/>
<path class="icon-shape" d="   M 124.96 79.47   C 125.30 87.41 122.48 94.24 117.65 100.37   A 1.90 1.89 41.6 0 1 114.82 100.53   L 114.49 100.20   A 1.73 1.73 0.0 0 1 114.28 98.01   C 118.29 92.11 120.78 86.66 120.48 79.66   C 120.18 72.65 117.24 67.43 112.76 61.90   A 1.73 1.73 0.0 0 1 112.77 59.69   L 113.08 59.34   A 1.90 1.89 -46.4 0 1 115.91 59.26   C 121.24 64.96 124.62 71.53 124.96 79.47   Z" fill="#b4b1b5"/>
<path class="icon-shape" d="   M 107.02 96.61   L 106.69 96.27   A 1.85 1.84 39.2 0 1 106.45 93.94   C 110.55 87.75 113.73 80.05 109.56 73.16   C 108.39 71.23 106.35 69.72 104.89 68.12   A 1.88 1.88 0.0 0 1 105.11 65.38   L 105.18 65.32   A 2.49 2.48 45.6 0 1 108.30 65.36   C 119.21 74.44 117.39 85.36 110.08 96.30   A 1.99 1.98 -50.6 0 1 107.02 96.61   Z" fill="#b4b1b5"/>
<ellipse cx="0.00" cy="0.00" fill="#ffffff" rx="10.84" ry="10.63" transform="translate(70.89,94.40) rotate(-98.4)"/>
<ellipse cx="0.00" cy="0.00" fill="#ffffff" rx="10.78" ry="10.66" transform="translate(150.15,94.40) rotate(-84.5)"/>
</g><g id="onState" style="display:none"><g fill="none" stroke-linecap="butt" stroke-width="2.00">
<path class="icon-shape" d="   M 136.96 102.84   C 144.34 112.82 158.02 112.34 164.17 101.29   A 1.11 1.11 0.0 0 1 165.17 100.73   C 169.86 100.87 174.33 100.27 178.36 97.93   Q 183.03 95.23 183.79 91.48   Q 184.39 88.55 183.82 78.70   A 3.75 3.59 35.0 0 0 183.63 77.74   C 180.79 69.30 170.14 68.00 162.56 67.11   Q 157.85 66.55 154.60 64.66   Q 145.51 59.40 137.80 51.69   Q 135.92 49.81 129.48 46.58" stroke="#818181" vector-effect="non-scaling-stroke"/>
<path class="icon-shape" d="   M 129.48 46.58   Q 118.35 31.94 102.04 26.78   C 61.10 13.82 20.91 48.54 29.20 91.35   C 37.28 133.11 86.97 151.07 119.95 124.42   Q 128.51 117.49 132.92 109.66   Q 135.73 104.65 136.96 102.84" stroke="#fef6f6" vector-effect="non-scaling-stroke"/>
<path class="icon-shape" d="   M 129.48 46.58   Q 124.48 45.97 120.52 45.87   Q 103.77 45.45 95.56 45.57   C 90.45 45.65 85.69 46.45 81.80 48.56   C 72.65 53.51 66.66 63.05 56.13 65.87   Q 53.97 66.45 50.03 66.95   C 44.19 67.69 39.06 70.41 35.81 75.04   C 32.94 79.13 33.24 82.77 33.30 87.87   Q 33.35 91.62 34.50 93.44   C 38.75 100.23 49.52 99.16 55.40 99.06   A 0.79 0.78 -12.2 0 1 56.14 99.53   Q 59.69 107.68 66.66 109.34   Q 72.95 110.85 77.64 108.42   Q 86.38 103.90 86.36 93.25   A 0.54 0.54 0.0 0 1 86.82 92.72   Q 88.84 92.42 89.26 91.97   Q 92.10 88.98 92.28 84.77   A 0.71 0.71 0.0 0 1 93.59 84.41   Q 95.38 87.13 96.03 90.24   A 3.18 2.84 87.4 0 0 98.42 92.69   Q 101.92 93.26 103.49 89.97   Q 105.25 86.27 106.12 81.54   Q 107.14 76.02 99.81 71.30   A 2.46 2.46 0.0 0 0 96.64 71.73   L 96.61 71.76   A 2.00 2.00 0.0 0 0 96.96 74.73   Q 102.60 78.66 101.64 81.51   Q 100.73 84.19 100.38 86.80   A 0.55 0.55 0.0 0 1 99.31 86.90   Q 97.97 82.94 94.49 79.80   C 92.43 77.95 89.92 78.73 89.22 81.11   Q 88.11 84.94 86.57 88.43   A 0.74 0.74 0.0 0 1 85.23 88.45   C 77.90 73.11 56.68 76.79 55.42 93.90   A 0.66 0.65 0.5 0 1 54.80 94.50   Q 46.96 94.83 45.18 94.35   C 42.07 93.53 38.61 92.55 38.00 89.52   C 37.39 86.44 37.87 80.02 40.25 77.11   C 43.84 72.73 47.64 71.88 54.03 70.77   Q 61.60 69.47 66.28 66.24   Q 71.11 62.90 77.40 57.18   Q 81.80 53.19 87.48 51.17   Q 90.70 50.02 99.13 50.03   Q 118.74 50.06 121.25 50.07   Q 129.71 50.10 136.57 56.94" stroke="#807878" vector-effect="non-scaling-stroke"/>
<path class="icon-shape" d="   M 136.57 56.94   Q 137.91 62.22 139.37 67.38   Q 140.73 72.18 141.23 81.48" stroke="#fef6f6" vector-effect="non-scaling-stroke"/>
<path class="icon-shape" d="   M 141.23 81.48   Q 130.82 90.15 136.96 102.84" stroke="#807878" vector-effect="non-scaling-stroke"/>
<path class="icon-shape" d="   M 141.23 81.48   Q 148.33 77.00 155.18 79.55   Q 165.20 83.29 165.86 95.38   A 0.58 0.58 0.0 0 0 166.38 95.93   C 170.58 96.36 176.44 94.94 178.89 91.23   A 2.02 1.89 65.7 0 0 179.21 90.29   C 179.65 85.35 180.80 78.39 177.17 76.00   Q 172.53 72.94 166.49 72.20   Q 159.03 71.28 158.27 71.05   C 150.00 68.57 142.85 62.65 136.57 56.94" stroke="#818181" vector-effect="non-scaling-stroke"/>
<path class="icon-shape" d="   M 120.41 79.63   Q 120.59 83.63 120.19 85.25   Q 118.52 91.96 114.40 97.69   A 2.08 2.08 0.0 0 0 114.83 100.57   L 114.90 100.61   A 2.07 2.07 0.0 0 0 117.78 100.24   Q 123.02 93.59 124.87 85.29   Q 125.19 83.90 124.99 79.43   Q 124.79 74.96 124.36 73.60   Q 121.79 65.50 115.99 59.33   A 2.07 2.07 0.0 0 0 113.09 59.21   L 113.02 59.26   A 2.08 2.08 0.0 0 0 112.85 62.17   Q 117.45 67.51 119.70 74.06   Q 120.24 75.63 120.41 79.63" stroke="#807878" vector-effect="non-scaling-stroke"/>
<path class="icon-shape" d="   M 104.82 68.12   C 106.61 69.97 109.13 71.93 110.22 74.41   C 113.21 81.19 110.25 88.14 106.48 93.89   A 2.07 2.07 0.0 0 0 107.10 96.77   L 107.12 96.78   A 2.20 2.20 0.0 0 0 110.08 96.22   C 117.62 85.86 119.08 74.45 108.35 65.27   A 2.32 2.30 50.1 0 0 105.69 65.02   L 105.21 65.30   A 1.80 1.80 0.0 0 0 104.82 68.12" stroke="#807878" vector-effect="non-scaling-stroke"/>
<path class="icon-shape" d="   M 69.6849 83.6752   A 10.80 10.59 -96.3 0 0 60.3440 95.5721   A 10.80 10.59 -96.3 0 0 72.0551 105.1448   A 10.80 10.59 -96.3 0 0 81.3960 93.2479   A 10.80 10.59 -96.3 0 0 69.6849 83.6752" stroke="#818181" vector-effect="non-scaling-stroke"/>
<path class="icon-shape" d="   M 151.1703 83.7095   A 10.75 10.63 -84.5 0 0 139.5589 93.3912   A 10.75 10.63 -84.5 0 0 149.1097 105.1105   A 10.75 10.63 -84.5 0 0 160.7211 95.4288   A 10.75 10.63 -84.5 0 0 151.1703 83.7095" stroke="#818181" vector-effect="non-scaling-stroke"/>
</g>
<path class="icon-shape" d="   M 195.00 0.00   L 195.00 186.00   L 0.00 186.00   L 0.00 0.00   L 195.00 0.00   Z   M 136.96 102.84   C 144.34 112.82 158.02 112.34 164.17 101.29   A 1.11 1.11 0.0 0 1 165.17 100.73   C 169.86 100.87 174.33 100.27 178.36 97.93   Q 183.03 95.23 183.79 91.48   Q 184.39 88.55 183.82 78.70   A 3.75 3.59 35.0 0 0 183.63 77.74   C 180.79 69.30 170.14 68.00 162.56 67.11   Q 157.85 66.55 154.60 64.66   Q 145.51 59.40 137.80 51.69   Q 135.92 49.81 129.48 46.58   Q 118.35 31.94 102.04 26.78   C 61.10 13.82 20.91 48.54 29.20 91.35   C 37.28 133.11 86.97 151.07 119.95 124.42   Q 128.51 117.49 132.92 109.66   Q 135.73 104.65 136.96 102.84   Z" fill="#ffffff"/>
<path class="icon-shape" d="   M 129.48 46.58   Q 124.48 45.97 120.52 45.87   Q 103.77 45.45 95.56 45.57   C 90.45 45.65 85.69 46.45 81.80 48.56   C 72.65 53.51 66.66 63.05 56.13 65.87   Q 53.97 66.45 50.03 66.95   C 44.19 67.69 39.06 70.41 35.81 75.04   C 32.94 79.13 33.24 82.77 33.30 87.87   Q 33.35 91.62 34.50 93.44   C 38.75 100.23 49.52 99.16 55.40 99.06   A 0.79 0.78 -12.2 0 1 56.14 99.53   Q 59.69 107.68 66.66 109.34   Q 72.95 110.85 77.64 108.42   Q 86.38 103.90 86.36 93.25   A 0.54 0.54 0.0 0 1 86.82 92.72   Q 88.84 92.42 89.26 91.97   Q 92.10 88.98 92.28 84.77   A 0.71 0.71 0.0 0 1 93.59 84.41   Q 95.38 87.13 96.03 90.24   A 3.18 2.84 87.4 0 0 98.42 92.69   Q 101.92 93.26 103.49 89.97   Q 105.25 86.27 106.12 81.54   Q 107.14 76.02 99.81 71.30   A 2.46 2.46 0.0 0 0 96.64 71.73   L 96.61 71.76   A 2.00 2.00 0.0 0 0 96.96 74.73   Q 102.60 78.66 101.64 81.51   Q 100.73 84.19 100.38 86.80   A 0.55 0.55 0.0 0 1 99.31 86.90   Q 97.97 82.94 94.49 79.80   C 92.43 77.95 89.92 78.73 89.22 81.11   Q 88.11 84.94 86.57 88.43   A 0.74 0.74 0.0 0 1 85.23 88.45   C 77.90 73.11 56.68 76.79 55.42 93.90   A 0.66 0.65 0.5 0 1 54.80 94.50   Q 46.96 94.83 45.18 94.35   C 42.07 93.53 38.61 92.55 38.00 89.52   C 37.39 86.44 37.87 80.02 40.25 77.11   C 43.84 72.73 47.64 71.88 54.03 70.77   Q 61.60 69.47 66.28 66.24   Q 71.11 62.90 77.40 57.18   Q 81.80 53.19 87.48 51.17   Q 90.70 50.02 99.13 50.03   Q 118.74 50.06 121.25 50.07   Q 129.71 50.10 136.57 56.94   Q 137.91 62.22 139.37 67.38   Q 140.73 72.18 141.23 81.48   Q 130.82 90.15 136.96 102.84   Q 135.73 104.65 132.92 109.66   Q 128.51 117.49 119.95 124.42   C 86.97 151.07 37.28 133.11 29.20 91.35   C 20.91 48.54 61.10 13.82 102.04 26.78   Q 118.35 31.94 129.48 46.58   Z   M 120.41 79.63   Q 120.59 83.63 120.19 85.25   Q 118.52 91.96 114.40 97.69   A 2.08 2.08 0.0 0 0 114.83 100.57   L 114.90 100.61   A 2.07 2.07 0.0 0 0 117.78 100.24   Q 123.02 93.59 124.87 85.29   Q 125.19 83.90 124.99 79.43   Q 124.79 74.96 124.36 73.60   Q 121.79 65.50 115.99 59.33   A 2.07 2.07 0.0 0 0 113.09 59.21   L 113.02 59.26   A 2.08 2.08 0.0 0 0 112.85 62.17   Q 117.45 67.51 119.70 74.06   Q 120.24 75.63 120.41 79.63   Z   M 104.82 68.12   C 106.61 69.97 109.13 71.93 110.22 74.41   C 113.21 81.19 110.25 88.14 106.48 93.89   A 2.07 2.07 0.0 0 0 107.10 96.77   L 107.12 96.78   A 2.20 2.20 0.0 0 0 110.08 96.22   C 117.62 85.86 119.08 74.45 108.35 65.27   A 2.32 2.30 50.1 0 0 105.69 65.02   L 105.21 65.30   A 1.80 1.80 0.0 0 0 104.82 68.12   Z" fill="#fdedec"/>
<path class="icon-shape" d="   M 129.48 46.58   Q 135.92 49.81 137.80 51.69   Q 145.51 59.40 154.60 64.66   Q 157.85 66.55 162.56 67.11   C 170.14 68.00 180.79 69.30 183.63 77.74   A 3.75 3.59 35.0 0 1 183.82 78.70   Q 184.39 88.55 183.79 91.48   Q 183.03 95.23 178.36 97.93   C 174.33 100.27 169.86 100.87 165.17 100.73   A 1.11 1.11 0.0 0 0 164.17 101.29   C 158.02 112.34 144.34 112.82 136.96 102.84   Q 130.82 90.15 141.23 81.48   Q 148.33 77.00 155.18 79.55   Q 165.20 83.29 165.86 95.38   A 0.58 0.58 0.0 0 0 166.38 95.93   C 170.58 96.36 176.44 94.94 178.89 91.23   A 2.02 1.89 65.7 0 0 179.21 90.29   C 179.65 85.35 180.80 78.39 177.17 76.00   Q 172.53 72.94 166.49 72.20   Q 159.03 71.28 158.27 71.05   C 150.00 68.57 142.85 62.65 136.57 56.94   Q 129.71 50.10 121.25 50.07   Q 118.74 50.06 99.13 50.03   Q 90.70 50.02 87.48 51.17   Q 81.80 53.19 77.40 57.18   Q 71.11 62.90 66.28 66.24   Q 61.60 69.47 54.03 70.77   C 47.64 71.88 43.84 72.73 40.25 77.11   C 37.87 80.02 37.39 86.44 38.00 89.52   C 38.61 92.55 42.07 93.53 45.18 94.35   Q 46.96 94.83 54.80 94.50   A 0.66 0.65 0.5 0 0 55.42 93.90   C 56.68 76.79 77.90 73.11 85.23 88.45   A 0.74 0.74 0.0 0 0 86.57 88.43   Q 88.11 84.94 89.22 81.11   C 89.92 78.73 92.43 77.95 94.49 79.80   Q 97.97 82.94 99.31 86.90   A 0.55 0.55 0.0 0 0 100.38 86.80   Q 100.73 84.19 101.64 81.51   Q 102.60 78.66 96.96 74.73   A 2.00 2.00 0.0 0 1 96.61 71.76   L 96.64 71.73   A 2.46 2.46 0.0 0 1 99.81 71.30   Q 107.14 76.02 106.12 81.54   Q 105.25 86.27 103.49 89.97   Q 101.92 93.26 98.42 92.69   A 3.18 2.84 87.4 0 1 96.03 90.24   Q 95.38 87.13 93.59 84.41   A 0.71 0.71 0.0 0 0 92.28 84.77   Q 92.10 88.98 89.26 91.97   Q 88.84 92.42 86.82 92.72   A 0.54 0.54 0.0 0 0 86.36 93.25   Q 86.38 103.90 77.64 108.42   Q 72.95 110.85 66.66 109.34   Q 59.69 107.68 56.14 99.53   A 0.79 0.78 -12.2 0 0 55.40 99.06   C 49.52 99.16 38.75 100.23 34.50 93.44   Q 33.35 91.62 33.30 87.87   C 33.24 82.77 32.94 79.13 35.81 75.04   C 39.06 70.41 44.19 67.69 50.03 66.95   Q 53.97 66.45 56.13 65.87   C 66.66 63.05 72.65 53.51 81.80 48.56   C 85.69 46.45 90.45 45.65 95.56 45.57   Q 103.77 45.45 120.52 45.87   Q 124.48 45.97 129.48 46.58   Z   M 69.6849 83.6752   A 10.80 10.59 -96.3 0 0 60.3440 95.5721   A 10.80 10.59 -96.3 0 0 72.0551 105.1448   A 10.80 10.59 -96.3 0 0 81.3960 93.2479   A 10.80 10.59 -96.3 0 0 69.6849 83.6752   Z   M 151.1703 83.7095   A 10.75 10.63 -84.5 0 0 139.5589 93.3912   A 10.75 10.63 -84.5 0 0 149.1097 105.1105   A 10.75 10.63 -84.5 0 0 160.7211 95.4288   A 10.75 10.63 -84.5 0 0 151.1703 83.7095   Z" fill="#030303"/>
<path class="icon-shape" d="   M 141.23 81.48   Q 140.73 72.18 139.37 67.38   Q 137.91 62.22 136.57 56.94   C 142.85 62.65 150.00 68.57 158.27 71.05   Q 159.03 71.28 166.49 72.20   Q 172.53 72.94 177.17 76.00   C 180.80 78.39 179.65 85.35 179.21 90.29   A 2.02 1.89 65.7 0 1 178.89 91.23   C 176.44 94.94 170.58 96.36 166.38 95.93   A 0.58 0.58 0.0 0 1 165.86 95.38   Q 165.20 83.29 155.18 79.55   Q 148.33 77.00 141.23 81.48   Z" fill="#ffffff"/>
<path class="icon-shape" d="   M 124.99 79.43   Q 125.19 83.90 124.87 85.29   Q 123.02 93.59 117.78 100.24   A 2.07 2.07 0.0 0 1 114.90 100.61   L 114.83 100.57   A 2.08 2.08 0.0 0 1 114.40 97.69   Q 118.52 91.96 120.19 85.25   Q 120.59 83.63 120.41 79.63   Q 120.24 75.63 119.70 74.06   Q 117.45 67.51 112.85 62.17   A 2.08 2.08 0.0 0 1 113.02 59.26   L 113.09 59.21   A 2.07 2.07 0.0 0 1 115.99 59.33   Q 121.79 65.50 124.36 73.60   Q 124.79 74.96 124.99 79.43   Z" fill="#030303"/>
<path class="icon-shape" d="   M 104.82 68.12   A 1.80 1.80 0.0 0 1 105.21 65.30   L 105.69 65.02   A 2.32 2.30 50.1 0 1 108.35 65.27   C 119.08 74.45 117.62 85.86 110.08 96.22   A 2.20 2.20 0.0 0 1 107.12 96.78   L 107.10 96.77   A 2.07 2.07 0.0 0 1 106.48 93.89   C 110.25 88.14 113.21 81.19 110.22 74.41   C 109.13 71.93 106.61 69.97 104.82 68.12   Z" fill="#030303"/>
<ellipse cx="0.00" cy="0.00" fill="#ffffff" rx="10.80" ry="10.59" transform="translate(70.87,94.41) rotate(-96.3)"/>
<ellipse cx="0.00" cy="0.00" fill="#ffffff" rx="10.75" ry="10.63" transform="translate(150.14,94.41) rotate(-84.5)"/>
</g></svg>