<?xml version="1.0" encoding="utf-8"?>
<svg version="1.1" viewBox="0.00 0.00 229.00 186.00" xmlns="http://www.w3.org/2000/svg"><g id="offState" style="display:inline"><g fill="none" stroke-linecap="butt" stroke-width="2.00">
<path class="icon-shape" d="   M 95.47 60.29   C 94.74 54.60 87.42 55.45 82.73 55.62   Q 74.53 55.91 75.25 64.54   C 75.93 72.71 83.70 71.16 89.48 71.15   Q 91.28 71.15 93.01 69.86   A 0.24 0.24 0.0 0 1 93.36 70.17   Q 91.27 73.75 88.85 78.58   Q 87.81 80.65 87.88 83.00   Q 88.51 103.46 88.25 128.26   A 2.73 2.54 -56.2 0 0 88.40 129.20   Q 90.43 134.80 95.76 134.96   Q 99.61 135.07 105.52 134.93   C 112.33 134.76 113.53 129.88 113.34 123.81   Q 113.22 119.68 113.39 116.38   A 0.58 0.58 0.0 0 1 113.99 115.83   Q 152.00 117.02 189.89 115.79   A 0.42 0.42 0.0 0 1 190.33 116.22   Q 190.13 121.56 190.30 127.48   C 190.48 133.36 194.72 135.27 200.05 135.03   C 203.39 134.88 208.41 135.66 211.18 134.14   C 214.71 132.20 215.46 128.19 215.43 124.28   Q 215.30 104.28 215.49 84.50   Q 215.52 80.82 215.05 79.71   Q 212.82 74.45 210.83 69.86   A 0.21 0.21 0.0 0 1 211.16 69.61   C 212.11 70.40 213.09 71.15 214.44 71.16   C 220.54 71.23 228.41 72.80 228.58 63.75   Q 228.70 57.11 222.96 55.73   A 3.39 3.05 -34.0 0 0 222.24 55.63   Q 219.61 55.59 214.10 55.59   C 210.66 55.59 208.67 56.70 207.40 59.75   A 0.41 0.41 0.0 0 1 206.63 59.72   Q 203.40 50.20 198.61 37.34   Q 195.14 27.99 184.47 27.83   Q 143.76 27.19 118.78 27.88   Q 111.56 28.08 107.39 32.99   Q 105.83 34.83 102.12 44.73   Q 98.60 54.18 96.44 60.39   A 0.50 0.50 0.0 0 1 95.47 60.29" stroke="#dad8da" vector-effect="non-scaling-stroke"/>
<path class="icon-shape" d="   M 92.98 80.74   L 94.21 80.08   A 1.91 1.91 0.0 0 1 95.08 79.87   Q 101.79 79.91 104.76 79.93   C 109.42 79.96 111.75 83.01 111.60 87.39   C 111.52 89.74 111.90 92.44 110.82 94.19   Q 108.80 97.48 105.58 97.61   Q 99.01 97.85 93.25 97.44   A 0.43 0.43 0.0 0 0 92.79 97.88   L 92.94 108.35   A 1.08 1.05 28.8 0 0 93.12 108.94   Q 94.46 110.98 96.00 111.03   Q 143.32 112.45 206.61 111.03   Q 209.19 110.98 210.71 107.89   A 0.86 0.84 -32.1 0 0 210.80 107.51   L 210.80 97.79   A 0.45 0.45 0.0 0 0 210.31 97.34   Q 203.88 97.90 198.35 97.62   Q 193.75 97.40 192.39 93.61   C 191.32 90.61 191.08 84.12 194.10 81.62   Q 196.12 79.95 197.50 79.93   Q 204.35 79.85 209.91 79.97   A 0.38 0.38 0.0 0 0 210.26 79.42   Q 207.97 74.93 205.61 68.89   Q 200.84 56.70 194.66 39.41   C 192.38 33.03 188.36 32.19 181.71 32.27   C 171.39 32.39 161.95 31.74 154.08 31.94   Q 134.59 32.42 120.06 32.25   C 112.39 32.16 110.23 35.34 107.91 41.90   Q 103.98 53.01 97.05 71.98   C 95.86 75.24 94.46 77.51 92.56 80.27   A 0.33 0.32 3.4 0 0 92.98 80.74" stroke="#dad8da" vector-effect="non-scaling-stroke"/>
<path class="icon-shape" d="   M 79.65 61.57   L 79.63 65.21   A 1.46 1.46 0.0 0 0 81.09 66.67   L 90.24 66.70   A 3.19 3.19 0.0 0 0 93.44 63.52   L 93.44 63.34   A 3.19 3.19 0.0 0 0 90.26 60.14   L 81.11 60.11   A 1.46 1.46 0.0 0 0 79.65 61.57" stroke="#dad8da" vector-effect="non-scaling-stroke"/>
<path class="icon-shape" d="   M 224.2589 62.3977   A 2.20 2.20 0.0 0 0 222.0782 60.1786   L 213.2585 60.1016   A 2.20 2.20 0.0 0 0 211.0394 62.2824   L 211.0211 64.3823   A 2.20 2.20 0.0 0 0 213.2018 66.6014   L 222.0215 66.6784   A 2.20 2.20 0.0 0 0 224.2406 64.4976   L 224.2589 62.3977" stroke="#dad8da" vector-effect="non-scaling-stroke"/>
<path class="icon-shape" d="   M 92.47 84.49   L 92.43 92.59   A 0.57 0.57 0.0 0 0 93.00 93.16   L 104.67 93.23   A 2.80 2.60 -89.7 0 0 107.28 90.44   L 107.30 86.80   A 2.80 2.60 -89.7 0 0 104.71 83.99   L 93.04 83.92   A 0.57 0.57 0.0 0 0 92.47 84.49" stroke="#dad8da" vector-effect="non-scaling-stroke"/>
<path class="icon-shape" d="   M 211.03 92.90   L 210.93 84.10   A 0.21 0.21 0.0 0 0 210.72 83.90   L 199.06 84.02   A 2.79 2.69 89.4 0 0 196.40 86.84   L 196.44 90.48   A 2.79 2.69 89.4 0 0 199.16 93.24   L 210.82 93.12   A 0.21 0.21 0.0 0 0 211.03 92.90" stroke="#dad8da" vector-effect="non-scaling-stroke"/>
<path class="icon-shape" d="   M 210.59 114.70   L 207.51 115.62   A 3.50 3.50 0.0 0 1 206.53 115.76   L 194.93 115.76   A 0.43 0.42 -90.0 0 0 194.51 116.19   Q 194.59 124.97 194.55 126.64   C 194.50 128.70 195.51 130.83 197.59 130.84   Q 206.34 130.89 207.49 130.76   C 210.09 130.44 211.03 129.10 210.98 126.43   Q 210.84 118.49 210.97 115.00   A 0.30 0.30 0.0 0 0 210.59 114.70" stroke="#dad8da" vector-effect="non-scaling-stroke"/>
<path class="icon-shape" d="   M 92.90 114.83   A 0.30 0.30 0.0 0 0 92.53 115.12   Q 92.66 118.58 92.55 126.45   C 92.50 129.09 93.44 130.42 96.02 130.73   Q 97.16 130.86 105.82 130.78   C 107.88 130.77 108.88 128.65 108.82 126.61   Q 108.78 124.96 108.84 116.26   A 0.43 0.42 89.8 0 0 108.42 115.84   L 96.93 115.87   A 3.47 3.47 0.0 0 1 95.96 115.73   L 92.90 114.83" stroke="#dad8da" vector-effect="non-scaling-stroke"/>
<path class="icon-shape" d="   M 151.70 105.27   C 170.41 105.26 183.23 88.37 179.68 70.56   A 0.44 0.44 0.0 0 1 180.11 70.04   Q 186.85 70.01 187.33 70.02   C 193.89 70.21 198.48 67.84 195.87 60.23   Q 193.30 52.73 189.87 43.49   Q 188.12 38.76 183.64 37.61   A 3.06 2.95 -35.6 0 0 182.90 37.50   C 172.06 37.19 161.61 36.74 151.66 36.75   C 141.71 36.75 131.25 37.21 120.41 37.54   A 3.06 2.95 35.5 0 0 119.68 37.65   Q 115.20 38.80 113.45 43.53   Q 110.03 52.78 107.47 60.28   C 104.87 67.89 109.46 70.26 116.02 70.06   Q 116.50 70.05 123.24 70.07   A 0.44 0.44 0.0 0 1 123.67 70.60   C 120.14 88.41 132.99 105.28 151.70 105.27" stroke="#dad8da" vector-effect="non-scaling-stroke"/>
<path class="icon-shape" d="   M 151.76 47.94   C 163.38 47.95 173.20 54.56 177.92 65.02   A 0.98 0.98 0.0 0 0 178.81 65.60   L 190.67 65.60   A 1.78 1.78 0.0 0 0 192.34 63.22   Q 189.10 54.28 185.72 44.76   Q 184.67 41.80 181.26 41.70   C 171.42 41.40 161.62 41.42 151.76 41.42   C 141.91 41.41 132.11 41.39 122.27 41.67   Q 118.86 41.77 117.81 44.73   Q 114.42 54.25 111.17 63.19   A 1.78 1.78 0.0 0 0 112.84 65.57   L 124.70 65.58   A 0.98 0.98 0.0 0 0 125.59 65.00   C 130.32 54.54 140.14 47.94 151.76 47.94" stroke="#dad8da" vector-effect="non-scaling-stroke"/>
<path class="icon-shape" d="   M 175.68 76.50   A 23.97 23.97 0.0 0 0 151.71 52.53   A 23.97 23.97 0.0 0 0 127.74 76.50   A 23.97 23.97 0.0 0 0 151.71 100.47   A 23.97 23.97 0.0 0 0 175.68 76.50" stroke="#dad8da" vector-effect="non-scaling-stroke"/>
<path class="icon-shape" d="   M 166.54 76.41   A 14.87 14.87 0.0 0 0 151.67 61.54   A 14.87 14.87 0.0 0 0 136.80 76.41   A 14.87 14.87 0.0 0 0 151.67 91.28   A 14.87 14.87 0.0 0 0 166.54 76.41" stroke="#dad8da" vector-effect="non-scaling-stroke"/>
<path class="icon-shape" d="   M 161.83 76.43   A 10.15 10.15 0.0 0 0 151.68 66.28   A 10.15 10.15 0.0 0 0 141.53 76.43   A 10.15 10.15 0.0 0 0 151.68 86.58   A 10.15 10.15 0.0 0 0 161.83 76.43" stroke="#dad8da" vector-effect="non-scaling-stroke"/>
</g>
<path class="icon-shape" d="   M 229.00 0.00   L 229.00 186.00   L 0.00 186.00   L 0.00 0.00   L 229.00 0.00   Z   M 95.47 60.29   C 94.74 54.60 87.42 55.45 82.73 55.62   Q 74.53 55.91 75.25 64.54   C 75.93 72.71 83.70 71.16 89.48 71.15   Q 91.28 71.15 93.01 69.86   A 0.24 0.24 0.0 0 1 93.36 70.17   Q 91.27 73.75 88.85 78.58   Q 87.81 80.65 87.88 83.00   Q 88.51 103.46 88.25 128.26   A 2.73 2.54 -56.2 0 0 88.40 129.20   Q 90.43 134.80 95.76 134.96   Q 99.61 135.07 105.52 134.93   C 112.33 134.76 113.53 129.88 113.34 123.81   Q 113.22 119.68 113.39 116.38   A 0.58 0.58 0.0 0 1 113.99 115.83   Q 152.00 117.02 189.89 115.79   A 0.42 0.42 0.0 0 1 190.33 116.22   Q 190.13 121.56 190.30 127.48   C 190.48 133.36 194.72 135.27 200.05 135.03   C 203.39 134.88 208.41 135.66 211.18 134.14   C 214.71 132.20 215.46 128.19 215.43 124.28   Q 215.30 104.28 215.49 84.50   Q 215.52 80.82 215.05 79.71   Q 212.82 74.45 210.83 69.86   A 0.21 0.21 0.0 0 1 211.16 69.61   C 212.11 70.40 213.09 71.15 214.44 71.16   C 220.54 71.23 228.41 72.80 228.58 63.75   Q 228.70 57.11 222.96 55.73   A 3.39 3.05 -34.0 0 0 222.24 55.63   Q 219.61 55.59 214.10 55.59   C 210.66 55.59 208.67 56.70 207.40 59.75   A 0.41 0.41 0.0 0 1 206.63 59.72   Q 203.40 50.20 198.61 37.34   Q 195.14 27.99 184.47 27.83   Q 143.76 27.19 118.78 27.88   Q 111.56 28.08 107.39 32.99   Q 105.83 34.83 102.12 44.73   Q 98.60 54.18 96.44 60.39   A 0.50 0.50 0.0 0 1 95.47 60.29   Z" fill="#ffffff"/>
<path class="icon-shape" d="   M 95.47 60.29   A 0.50 0.50 0.0 0 0 96.44 60.39   Q 98.60 54.18 102.12 44.73   Q 105.83 34.83 107.39 32.99   Q 111.56 28.08 118.78 27.88   Q 143.76 27.19 184.47 27.83   Q 195.14 27.99 198.61 37.34   Q 203.40 50.20 206.63 59.72   A 0.41 0.41 0.0 0 0 207.40 59.75   C 208.67 56.70 210.66 55.59 214.10 55.59   Q 219.61 55.59 222.24 55.63   A 3.39 3.05 -34.0 0 1 222.96 55.73   Q 228.70 57.11 228.58 63.75   C 228.41 72.80 220.54 71.23 214.44 71.16   C 213.09 71.15 212.11 70.40 211.16 69.61   A 0.21 0.21 0.0 0 0 210.83 69.86   Q 212.82 74.45 215.05 79.71   Q 215.52 80.82 215.49 84.50   Q 215.30 104.28 215.43 124.28   C 215.46 128.19 214.71 132.20 211.18 134.14   C 208.41 135.66 203.39 134.88 200.05 135.03   C 194.72 135.27 190.48 133.36 190.30 127.48   Q 190.13 121.56 190.33 116.22   A 0.42 0.42 0.0 0 0 189.89 115.79   Q 152.00 117.02 113.99 115.83   A 0.58 0.58 0.0 0 0 113.39 116.38   Q 113.22 119.68 113.34 123.81   C 113.53 129.88 112.33 134.76 105.52 134.93   Q 99.61 135.07 95.76 134.96   Q 90.43 134.80 88.40 129.20   A 2.73 2.54 -56.2 0 1 88.25 128.26   Q 88.51 103.46 87.88 83.00   Q 87.81 80.65 88.85 78.58   Q 91.27 73.75 93.36 70.17   A 0.24 0.24 0.0 0 0 93.01 69.86   Q 91.28 71.15 89.48 71.15   C 83.70 71.16 75.93 72.71 75.25 64.54   Q 74.53 55.91 82.73 55.62   C 87.42 55.45 94.74 54.60 95.47 60.29   Z   M 92.98 80.74   L 94.21 80.08   A 1.91 1.91 0.0 0 1 95.08 79.87   Q 101.79 79.91 104.76 79.93   C 109.42 79.96 111.75 83.01 111.60 87.39   C 111.52 89.74 111.90 92.44 110.82 94.19   Q 108.80 97.48 105.58 97.61   Q 99.01 97.85 93.25 97.44   A 0.43 0.43 0.0 0 0 92.79 97.88   L 92.94 108.35   A 1.08 1.05 28.8 0 0 93.12 108.94   Q 94.46 110.98 96.00 111.03   Q 143.32 112.45 206.61 111.03   Q 209.19 110.98 210.71 107.89   A 0.86 0.84 -32.1 0 0 210.80 107.51   L 210.80 97.79   A 0.45 0.45 0.0 0 0 210.31 97.34   Q 203.88 97.90 198.35 97.62   Q 193.75 97.40 192.39 93.61   C 191.32 90.61 191.08 84.12 194.10 81.62   Q 196.12 79.95 197.50 79.93   Q 204.35 79.85 209.91 79.97   A 0.38 0.38 0.0 0 0 210.26 79.42   Q 207.97 74.93 205.61 68.89   Q 200.84 56.70 194.66 39.41   C 192.38 33.03 188.36 32.19 181.71 32.27   C 171.39 32.39 161.95 31.74 154.08 31.94   Q 134.59 32.42 120.06 32.25   C 112.39 32.16 110.23 35.34 107.91 41.90   Q 103.98 53.01 97.05 71.98   C 95.86 75.24 94.46 77.51 92.56 80.27   A 0.33 0.32 3.4 0 0 92.98 80.74   Z   M 79.65 61.57   L 79.63 65.21   A 1.46 1.46 0.0 0 0 81.09 66.67   L 90.24 66.70   A 3.19 3.19 0.0 0 0 93.44 63.52   L 93.44 63.34   A 3.19 3.19 0.0 0 0 90.26 60.14   L 81.11 60.11   A 1.46 1.46 0.0 0 0 79.65 61.57   Z   M 224.2589 62.3977   A 2.20 2.20 0.0 0 0 222.0782 60.1786   L 213.2585 60.1016   A 2.20 2.20 0.0 0 0 211.0394 62.2824   L 211.0211 64.3823   A 2.20 2.20 0.0 0 0 213.2018 66.6014   L 222.0215 66.6784   A 2.20 2.20 0.0 0 0 224.2406 64.4976   L 224.2589 62.3977   Z   M 92.47 84.49   L 92.43 92.59   A 0.57 0.57 0.0 0 0 93.00 93.16   L 104.67 93.23   A 2.80 2.60 -89.7 0 0 107.28 90.44   L 107.30 86.80   A 2.80 2.60 -89.7 0 0 104.71 83.99   L 93.04 83.92   A 0.57 0.57 0.0 0 0 92.47 84.49   Z   M 211.03 92.90   L 210.93 84.10   A 0.21 0.21 0.0 0 0 210.72 83.90   L 199.06 84.02   A 2.79 2.69 89.4 0 0 196.40 86.84   L 196.44 90.48   A 2.79 2.69 89.4 0 0 199.16 93.24   L 210.82 93.12   A 0.21 0.21 0.0 0 0 211.03 92.90   Z   M 210.59 114.70   L 207.51 115.62   A 3.50 3.50 0.0 0 1 206.53 115.76   L 194.93 115.76   A 0.43 0.42 -90.0 0 0 194.51 116.19   Q 194.59 124.97 194.55 126.64   C 194.50 128.70 195.51 130.83 197.59 130.84   Q 206.34 130.89 207.49 130.76   C 210.09 130.44 211.03 129.10 210.98 126.43   Q 210.84 118.49 210.97 115.00   A 0.30 0.30 0.0 0 0 210.59 114.70   Z   M 92.90 114.83   A 0.30 0.30 0.0 0 0 92.53 115.12   Q 92.66 118.58 92.55 126.45   C 92.50 129.09 93.44 130.42 96.02 130.73   Q 97.16 130.86 105.82 130.78   C 107.88 130.77 108.88 128.65 108.82 126.61   Q 108.78 124.96 108.84 116.26   A 0.43 0.42 89.8 0 0 108.42 115.84   L 96.93 115.87   A 3.47 3.47 0.0 0 1 95.96 115.73   L 92.90 114.83   Z" fill="#b4b1b5"/>
<path class="icon-shape" d="   M 92.98 80.74   A 0.33 0.32 3.4 0 1 92.56 80.27   C 94.46 77.51 95.86 75.24 97.05 71.98   Q 103.98 53.01 107.91 41.90   C 110.23 35.34 112.39 32.16 120.06 32.25   Q 134.59 32.42 154.08 31.94   C 161.95 31.74 171.39 32.39 181.71 32.27   C 188.36 32.19 192.38 33.03 194.66 39.41   Q 200.84 56.70 205.61 68.89   Q 207.97 74.93 210.26 79.42   A 0.38 0.38 0.0 0 1 209.91 79.97   Q 204.35 79.85 197.50 79.93   Q 196.12 79.95 194.10 81.62   C 191.08 84.12 191.32 90.61 192.39 93.61   Q 193.75 97.40 198.35 97.62   Q 203.88 97.90 210.31 97.34   A 0.45 0.45 0.0 0 1 210.80 97.79   L 210.80 107.51   A 0.86 0.84 -32.1 0 1 210.71 107.89   Q 209.19 110.98 206.61 111.03   Q 143.32 112.45 96.00 111.03   Q 94.46 110.98 93.12 108.94   A 1.08 1.05 28.8 0 1 92.94 108.35   L 92.79 97.88   A 0.43 0.43 0.0 0 1 93.25 97.44   Q 99.01 97.85 105.58 97.61   Q 108.80 97.48 110.82 94.19   C 111.90 92.44 111.52 89.74 111.60 87.39   C 111.75 83.01 109.42 79.96 104.76 79.93   Q 101.79 79.91 95.08 79.87   A 1.91 1.91 0.0 0 0 94.21 80.08   L 92.98 80.74   Z   M 151.70 105.27   C 170.41 105.26 183.23 88.37 179.68 70.56   A 0.44 0.44 0.0 0 1 180.11 70.04   Q 186.85 70.01 187.33 70.02   C 193.89 70.21 198.48 67.84 195.87 60.23   Q 193.30 52.73 189.87 43.49   Q 188.12 38.76 183.64 37.61   A 3.06 2.95 -35.6 0 0 182.90 37.50   C 172.06 37.19 161.61 36.74 151.66 36.75   C 141.71 36.75 131.25 37.21 120.41 37.54   A 3.06 2.95 35.5 0 0 119.68 37.65   Q 115.20 38.80 113.45 43.53   Q 110.03 52.78 107.47 60.28   C 104.87 67.89 109.46 70.26 116.02 70.06   Q 116.50 70.05 123.24 70.07   A 0.44 0.44 0.0 0 1 123.67 70.60   C 120.14 88.41 132.99 105.28 151.70 105.27   Z" fill="#ffffff"/>
<path class="icon-shape" d="   M 151.66 36.75   C 161.61 36.74 172.06 37.19 182.90 37.50   A 3.06 2.95 -35.6 0 1 183.64 37.61   Q 188.12 38.76 189.87 43.49   Q 193.30 52.73 195.87 60.23   C 198.48 67.84 193.89 70.21 187.33 70.02   Q 186.85 70.01 180.11 70.04   A 0.44 0.44 0.0 0 0 179.68 70.56   C 183.23 88.37 170.41 105.26 151.70 105.27   C 132.99 105.28 120.14 88.41 123.67 70.60   A 0.44 0.44 0.0 0 0 123.24 70.07   Q 116.50 70.05 116.02 70.06   C 109.46 70.26 104.87 67.89 107.47 60.28   Q 110.03 52.78 113.45 43.53   Q 115.20 38.80 119.68 37.65   A 3.06 2.95 35.5 0 1 120.41 37.54   C 131.25 37.21 141.71 36.75 151.66 36.75   Z   M 151.76 47.94   C 163.38 47.95 173.20 54.56 177.92 65.02   A 0.98 0.98 0.0 0 0 178.81 65.60   L 190.67 65.60   A 1.78 1.78 0.0 0 0 192.34 63.22   Q 189.10 54.28 185.72 44.76   Q 184.67 41.80 181.26 41.70   C 171.42 41.40 161.62 41.42 151.76 41.42   C 141.91 41.41 132.11 41.39 122.27 41.67   Q 118.86 41.77 117.81 44.73   Q 114.42 54.25 111.17 63.19   A 1.78 1.78 0.0 0 0 112.84 65.57   L 124.70 65.58   A 0.98 0.98 0.0 0 0 125.59 65.00   C 130.32 54.54 140.14 47.94 151.76 47.94   Z   M 175.68 76.50   A 23.97 23.97 0.0 0 0 151.71 52.53   A 23.97 23.97 0.0 0 0 127.74 76.50   A 23.97 23.97 0.0 0 0 151.71 100.47   A 23.97 23.97 0.0 0 0 175.68 76.50   Z" fill="#b4b1b5"/>
<path class="icon-shape" d="   M 151.76 41.42   C 161.62 41.42 171.42 41.40 181.26 41.70   Q 184.67 41.80 185.72 44.76   Q 189.10 54.28 192.34 63.22   A 1.78 1.78 0.0 0 1 190.67 65.60   L 178.81 65.60   A 0.98 0.98 0.0 0 1 177.92 65.02   C 173.20 54.56 163.38 47.95 151.76 47.94   C 140.14 47.94 130.32 54.54 125.59 65.00   A 0.98 0.98 0.0 0 1 124.70 65.58   L 112.84 65.57   A 1.78 1.78 0.0 0 1 111.17 63.19   Q 114.42 54.25 117.81 44.73   Q 118.86 41.77 122.27 41.67   C 132.11 41.39 141.91 41.41 151.76 41.42   Z" fill="#ffffff"/>
<path class="icon-shape" d="   M 175.68 76.50   A 23.97 23.97 0.0 0 1 151.71 100.47   A 23.97 23.97 0.0 0 1 127.74 76.50   A 23.97 23.97 0.0 0 1 151.71 52.53   A 23.97 23.97 0.0 0 1 175.68 76.50   Z   M 166.54 76.41   A 14.87 14.87 0.0 0 0 151.67 61.54   A 14.87 14.87 0.0 0 0 136.80 76.41   A 14.87 14.87 0.0 0 0 151.67 91.28   A 14.87 14.87 0.0 0 0 166.54 76.41   Z" fill="#ffffff"/>
<path class="icon-shape" d="   M 79.65 61.57   A 1.46 1.46 0.0 0 1 81.11 60.11   L 90.26 60.14   A 3.19 3.19 0.0 0 1 93.44 63.34   L 93.44 63.52   A 3.19 3.19 0.0 0 1 90.24 66.70   L 81.09 66.67   A 1.46 1.46 0.0 0 1 79.63 65.21   L 79.65 61.57   Z" fill="#ffffff"/>
<rect fill="#ffffff" height="6.50" rx="2.20" transform="translate(217.64,63.39) rotate(0.5)" width="13.22" x="-6.61" y="-3.25"/>
<path class="icon-shape" d="   M 166.54 76.41   A 14.87 14.87 0.0 0 1 151.67 91.28   A 14.87 14.87 0.0 0 1 136.80 76.41   A 14.87 14.87 0.0 0 1 151.67 61.54   A 14.87 14.87 0.0 0 1 166.54 76.41   Z   M 161.83 76.43   A 10.15 10.15 0.0 0 0 151.68 66.28   A 10.15 10.15 0.0 0 0 141.53 76.43   A 10.15 10.15 0.0 0 0 151.68 86.58   A 10.15 10.15 0.0 0 0 161.83 76.43   Z" fill="#b4b1b5"/>
<circle cx="151.68" cy="76.43" fill="#ffffff" r="10.15"/>
<path class="icon-shape" d="   M 92.47 84.49   A 0.57 0.57 0.0 0 1 93.04 83.92   L 104.71 83.99   A 2.80 2.60 -89.7 0 1 107.30 86.80   L 107.28 90.44   A 2.80 2.60 -89.7 0 1 104.67 93.23   L 93.00 93.16   A 0.57 0.57 0.0 0 1 92.43 92.59   L 92.47 84.49   Z" fill="#ffffff"/>
<path class="icon-shape" d="   M 211.03 92.90   A 0.21 0.21 0.0 0 1 210.82 93.12   L 199.16 93.24   A 2.79 2.69 89.4 0 1 196.44 90.48   L 196.40 86.84   A 2.79 2.69 89.4 0 1 199.06 84.02   L 210.72 83.90   A 0.21 0.21 0.0 0 1 210.93 84.10   L 211.03 92.90   Z" fill="#ffffff"/>
<path class="icon-shape" d="   M 210.59 114.70   A 0.30 0.30 0.0 0 1 210.97 115.00   Q 210.84 118.49 210.98 126.43   C 211.03 129.10 210.09 130.44 207.49 130.76   Q 206.34 130.89 197.59 130.84   C 195.51 130.83 194.50 128.70 194.55 126.64   Q 194.59 124.97 194.51 116.19   A 0.43 0.42 90.0 0 1 194.93 115.76   L 206.53 115.76   A 3.50 3.50 0.0 0 0 207.51 115.62   L 210.59 114.70   Z" fill="#ffffff"/>
<path class="icon-shape" d="   M 92.90 114.83   L 95.96 115.73   A 3.47 3.47 0.0 0 0 96.93 115.87   L 108.42 115.84   A 0.43 0.42 89.8 0 1 108.84 116.26   Q 108.78 124.96 108.82 126.61   C 108.88 128.65 107.88 130.77 105.82 130.78   Q 97.16 130.86 96.02 130.73   C 93.44 130.42 92.50 129.09 92.55 126.45   Q 92.66 118.58 92.53 115.12   A 0.30 0.30 0.0 0 1 92.90 114.83   Z" fill="#ffffff"/>
</g><g id="onState" style="display:none"><g fill="none" stroke-linecap="butt" stroke-width="2.00">
<path class="icon-shape" d="   M 88.20 129.63   Q 90.46 134.26 94.14 134.85   Q 96.91 135.30 107.35 134.99" stroke="#818181" vector-effect="non-scaling-stroke"/>
<path class="icon-shape" d="   M 107.35 134.99   Q 112.57 136.53 118.74 135.79   Q 141.02 133.14 156.00 117.01   A 1.21 1.21 0.0 0 1 156.79 116.62   L 160.22 116.31" stroke="#fef6f6" vector-effect="non-scaling-stroke"/>
<path class="icon-shape" d="   M 160.22 116.31   L 189.89 115.70   A 0.32 0.32 0.0 0 1 190.22 116.02   L 190.22 128.99   A 1.26 1.22 36.1 0 0 190.29 129.40   C 192.62 135.37 196.11 135.08 202.31 135.08   Q 206.09 135.07 209.00 135.00   A 2.73 2.62 30.3 0 0 210.04 134.75   Q 215.03 132.48 215.35 127.40   Q 215.75 121.06 215.45 106.59   C 215.28 98.18 215.66 89.96 215.53 81.03   A 2.15 2.13 -57.2 0 0 215.35 80.17   L 210.79 69.64   A 0.16 0.16 0.0 0 1 211.05 69.46   C 212.26 70.68 213.14 71.19 215.01 71.21   Q 218.41 71.25 222.85 71.22   A 2.88 2.82 36.1 0 0 223.67 71.10   Q 228.11 69.77 228.58 64.65   Q 229.28 57.10 222.64 55.54   A 2.61 2.33 48.2 0 0 222.10 55.48   L 212.20 55.48   A 0.96 0.66 28.7 0 0 212.01 55.50   Q 208.46 56.43 207.41 59.80   A 0.35 0.35 0.0 0 1 206.75 59.81   Q 202.45 47.38 198.76 37.50   Q 195.25 28.08 185.44 27.85   Q 165.99 27.38 136.79 27.69" stroke="#818181" vector-effect="non-scaling-stroke"/>
<path class="icon-shape" d="   M 136.79 27.69   Q 133.79 26.18 128.38 24.93   C 106.20 19.79 84.67 26.02 70.21 43.21   C 52.23 64.58 52.90 95.12 70.78 116.47   Q 78.10 125.21 88.20 129.63" stroke="#fef6f6" vector-effect="non-scaling-stroke"/>
<path class="icon-shape" d="   M 136.79 27.69   Q 129.77 27.66 122.75 27.77   Q 114.82 27.88 112.19 29.09   Q 107.33 31.33 105.14 36.89   Q 100.51 48.62 96.39 60.46   A 0.38 0.38 0.0 0 1 95.65 60.40   Q 94.80 55.79 89.60 55.58   C 83.44 55.33 75.62 54.42 75.20 62.23   C 74.63 72.79 82.31 71.31 90.49 71.16   A 1.89 1.81 -62.0 0 0 91.52 70.82   L 93.21 69.65   A 0.25 0.25 0.0 0 1 93.57 69.98   L 88.50 78.75   A 4.25 4.22 60.0 0 0 87.93 80.91   L 88.20 129.63" stroke="#807878" vector-effect="non-scaling-stroke"/>
<path class="icon-shape" d="   M 160.22 116.31   L 114.04 115.89   A 0.52 0.52 0.0 0 0 113.51 116.38   Q 113.12 121.77 113.35 126.00   Q 113.72 132.93 107.35 134.99" stroke="#807878" vector-effect="non-scaling-stroke"/>
<path class="icon-shape" d="   M 92.75 81.03   L 93.79 80.11   A 1.35 1.33 24.2 0 1 94.71 79.77   L 106.14 79.89   A 2.30 2.25 -35.4 0 1 106.84 80.00   Q 111.37 81.50 111.59 86.25   Q 111.77 90.25 111.57 92.26   A 3.18 3.11 58.5 0 1 111.41 92.96   Q 109.67 97.71 104.52 97.74   Q 94.71 97.79 93.24 97.36   A 0.30 0.30 0.0 0 0 92.86 97.65   L 92.86 108.34   A 0.73 0.71 -63.8 0 0 93.00 108.77   Q 94.64 110.92 95.76 110.96   Q 139.80 112.45 206.65 111.02   A 2.60 2.58 30.7 0 0 207.80 110.73   Q 209.50 109.87 210.66 108.03   A 0.66 0.62 61.8 0 0 210.75 107.70   L 210.75 97.94   A 0.46 0.46 0.0 0 0 210.27 97.48   Q 200.82 97.86 198.31 97.66   Q 193.32 97.28 192.17 92.88   C 190.87 87.88 191.43 81.68 197.23 79.89   A 0.88 0.77 -48.9 0 1 197.45 79.86   L 209.95 79.86   A 0.26 0.26 0.0 0 0 210.18 79.48   Q 208.45 76.06 205.00 67.52   Q 204.90 67.27 194.36 38.93   Q 191.94 32.41 185.40 32.41   Q 172.00 32.40 166.47 32.19   C 149.27 31.53 134.12 32.46 117.29 32.37   A 4.59 4.21 35.4 0 0 116.18 32.51   Q 110.95 33.89 108.85 39.61   Q 102.78 56.22 96.63 73.36   Q 95.72 75.89 92.35 80.46   A 0.04 0.04 0.0 0 0 92.35 80.50   L 92.49 80.96   A 0.16 0.16 0.0 0 0 92.75 81.03" stroke="#818181" vector-effect="non-scaling-stroke"/>
<path class="icon-shape" d="   M 79.73 61.58   L 79.71 65.14   A 1.44 1.44 0.0 0 0 81.14 66.59   L 90.39 66.66   A 3.14 2.93 -89.6 0 0 93.34 63.54   L 93.34 63.38   A 3.14 2.93 -89.6 0 0 90.43 60.22   L 81.18 60.15   A 1.44 1.44 0.0 0 0 79.73 61.58" stroke="#818181" vector-effect="non-scaling-stroke"/>
<path class="icon-shape" d="   M 224.2156 62.3443   A 2.13 2.13 0.0 0 0 222.0968 60.2032   L 213.2569 60.1569   A 2.13 2.13 0.0 0 0 211.1158 62.2757   L 211.1044 64.4557   A 2.13 2.13 0.0 0 0 213.2232 66.5968   L 222.0631 66.6431   A 2.13 2.13 0.0 0 0 224.2042 64.5243   L 224.2156 62.3443" stroke="#818181" vector-effect="non-scaling-stroke"/>
<path class="icon-shape" d="   M 92.46 84.20   L 92.38 92.91   A 0.21 0.21 0.0 0 0 92.59 93.13   L 104.30 93.23   A 2.94 2.82 0.5 0 0 107.26 90.43   L 107.29 86.93   A 2.94 2.82 0.5 0 0 104.38 84.09   L 92.67 83.99   A 0.21 0.21 0.0 0 0 92.46 84.20" stroke="#818181" vector-effect="non-scaling-stroke"/>
<path class="icon-shape" d="   M 211.02 92.86   L 210.90 84.20   A 0.24 0.24 0.0 0 0 210.66 83.96   L 199.17 84.12   A 2.85 2.62 -0.8 0 0 196.35 86.78   L 196.41 90.68   A 2.85 2.62 -0.8 0 0 199.29 93.26   L 210.78 93.10   A 0.24 0.24 0.0 0 0 211.02 92.86" stroke="#818181" vector-effect="non-scaling-stroke"/>
<path class="icon-shape" d="   M 210.30 114.82   C 209.07 115.13 207.84 115.83 206.28 115.83   Q 195.51 115.83 195.06 115.84   A 0.59 0.59 0.0 0 0 194.49 116.47   Q 194.67 119.83 194.58 126.74   C 194.55 128.95 195.38 130.47 197.52 130.74   Q 199.25 130.96 207.49 130.70   C 210.04 130.62 210.92 128.93 210.89 126.47   Q 210.79 116.87 210.92 115.35   A 0.50 0.50 0.0 0 0 210.30 114.82" stroke="#818181" vector-effect="non-scaling-stroke"/>
<path class="icon-shape" d="   M 93.19 114.88   A 0.49 0.49 0.0 0 0 92.57 115.41   Q 92.70 116.91 92.61 126.44   C 92.58 128.88 93.46 130.55 95.99 130.63   Q 104.16 130.88 105.88 130.66   C 108.00 130.40 108.82 128.89 108.79 126.69   Q 108.70 119.84 108.88 116.51   A 0.59 0.59 0.0 0 0 108.31 115.88   Q 107.86 115.87 97.18 115.88   C 95.63 115.88 94.41 115.19 93.19 114.88" stroke="#818181" vector-effect="non-scaling-stroke"/>
<path class="icon-shape" d="   M 151.68 105.36   Q 162.80 105.36 171.15 97.69   Q 182.33 87.43 179.89 70.63   A 0.45 0.44 85.4 0 1 180.32 70.12   C 186.62 70.01 199.81 72.28 196.06 60.66   Q 195.07 57.58 189.90 43.36   Q 188.22 38.75 183.63 37.52   A 3.33 3.20 -35.8 0 0 182.92 37.42   C 171.66 37.15 161.20 36.79 151.69 36.79   C 142.18 36.79 131.71 37.14 120.46 37.41   A 3.33 3.20 35.8 0 0 119.75 37.51   Q 115.16 38.74 113.48 43.35   Q 108.30 57.57 107.31 60.65   C 103.56 72.27 116.75 70.00 123.05 70.11   A 0.45 0.44 -85.4 0 1 123.48 70.62   Q 121.04 87.42 132.21 97.69   Q 140.56 105.36 151.68 105.36" stroke="#818181" vector-effect="non-scaling-stroke"/>
<path class="icon-shape" d="   M 159.90 48.77   Q 172.49 52.91 177.92 64.89   A 0.87 0.87 0.0 0 0 178.71 65.40   L 190.76 65.40   A 1.59 1.58 79.6 0 0 192.24 63.25   Q 190.36 58.33 186.25 46.51   C 184.94 42.76 183.91 41.91 180.00 41.76   Q 168.06 41.30 155.58 41.50" stroke="#818181" vector-effect="non-scaling-stroke"/>
<path class="icon-shape" d="   M 155.58 41.50   Q 139.17 41.25 122.25 41.65   Q 118.97 41.73 117.89 44.63   Q 114.44 54.01 111.24 63.15   A 1.75 1.75 0.0 0 0 112.89 65.48   L 124.72 65.48   A 0.61 0.59 -75.9 0 0 125.25 65.15   Q 135.87 44.31 159.90 48.77" stroke="#807878" vector-effect="non-scaling-stroke"/>
<path class="icon-shape" d="   M 155.58 41.50   Q 159.32 45.42 159.90 48.77" stroke="#fef6f6" vector-effect="non-scaling-stroke"/>
<path class="icon-shape" d="   M 175.61 76.50   A 23.91 23.91 0.0 0 0 151.70 52.59   A 23.91 23.91 0.0 0 0 127.79 76.50   A 23.91 23.91 0.0 0 0 151.70 100.41   A 23.91 23.91 0.0 0 0 175.61 76.50" stroke="#818181" vector-effect="non-scaling-stroke"/>
<path class="icon-shape" d="   M 166.64 76.42   A 14.94 14.94 0.0 0 0 151.70 61.48   A 14.94 14.94 0.0 0 0 136.76 76.42   A 14.94 14.94 0.0 0 0 151.70 91.36   A 14.94 14.94 0.0 0 0 166.64 76.42" stroke="#818181" vector-effect="non-scaling-stroke"/>
<path class="icon-shape" d="   M 161.78 76.42   A 10.10 10.10 0.0 0 0 151.68 66.32   A 10.10 10.10 0.0 0 0 141.58 76.42   A 10.10 10.10 0.0 0 0 151.68 86.52   A 10.10 10.10 0.0 0 0 161.78 76.42" stroke="#818181" vector-effect="non-scaling-stroke"/>
</g>
<path class="icon-shape" d="   M 229.00 0.00   L 229.00 186.00   L 0.00 186.00   L 0.00 0.00   L 229.00 0.00   Z   M 88.20 129.63   Q 90.46 134.26 94.14 134.85   Q 96.91 135.30 107.35 134.99   Q 112.57 136.53 118.74 135.79   Q 141.02 133.14 156.00 117.01   A 1.21 1.21 0.0 0 1 156.79 116.62   L 160.22 116.31   L 189.89 115.70   A 0.32 0.32 0.0 0 1 190.22 116.02   L 190.22 128.99   A 1.26 1.22 36.1 0 0 190.29 129.40   C 192.62 135.37 196.11 135.08 202.31 135.08   Q 206.09 135.07 209.00 135.00   A 2.73 2.62 30.3 0 0 210.04 134.75   Q 215.03 132.48 215.35 127.40   Q 215.75 121.06 215.45 106.59   C 215.28 98.18 215.66 89.96 215.53 81.03   A 2.15 2.13 -57.2 0 0 215.35 80.17   L 210.79 69.64   A 0.16 0.16 0.0 0 1 211.05 69.46   C 212.26 70.68 213.14 71.19 215.01 71.21   Q 218.41 71.25 222.85 71.22   A 2.88 2.82 36.1 0 0 223.67 71.10   Q 228.11 69.77 228.58 64.65   Q 229.28 57.10 222.64 55.54   A 2.61 2.33 48.2 0 0 222.10 55.48   L 212.20 55.48   A 0.96 0.66 28.7 0 0 212.01 55.50   Q 208.46 56.43 207.41 59.80   A 0.35 0.35 0.0 0 1 206.75 59.81   Q 202.45 47.38 198.76 37.50   Q 195.25 28.08 185.44 27.85   Q 165.99 27.38 136.79 27.69   Q 133.79 26.18 128.38 24.93   C 106.20 19.79 84.67 26.02 70.21 43.21   C 52.23 64.58 52.90 95.12 70.78 116.47   Q 78.10 125.21 88.20 129.63   Z" fill="#ffffff"/>
<path class="icon-shape" d="   M 136.79 27.69   Q 129.77 27.66 122.75 27.77   Q 114.82 27.88 112.19 29.09   Q 107.33 31.33 105.14 36.89   Q 100.51 48.62 96.39 60.46   A 0.38 0.38 0.0 0 1 95.65 60.40   Q 94.80 55.79 89.60 55.58   C 83.44 55.33 75.62 54.42 75.20 62.23   C 74.63 72.79 82.31 71.31 90.49 71.16   A 1.89 1.81 -62.0 0 0 91.52 70.82   L 93.21 69.65   A 0.25 0.25 0.0 0 1 93.57 69.98   L 88.50 78.75   A 4.25 4.22 60.0 0 0 87.93 80.91   L 88.20 129.63   Q 78.10 125.21 70.78 116.47   C 52.90 95.12 52.23 64.58 70.21 43.21   C 84.67 26.02 106.20 19.79 128.38 24.93   Q 133.79 26.18 136.79 27.69   Z" fill="#fdedec"/>
<path class="icon-shape" d="   M 160.22 116.31   L 114.04 115.89   A 0.52 0.52 0.0 0 0 113.51 116.38   Q 113.12 121.77 113.35 126.00   Q 113.72 132.93 107.35 134.99   Q 96.91 135.30 94.14 134.85   Q 90.46 134.26 88.20 129.63   L 87.93 80.91   A 4.25 4.22 60.0 0 1 88.50 78.75   L 93.57 69.98   A 0.25 0.25 0.0 0 0 93.21 69.65   L 91.52 70.82   A 1.89 1.81 -62.0 0 1 90.49 71.16   C 82.31 71.31 74.63 72.79 75.20 62.23   C 75.62 54.42 83.44 55.33 89.60 55.58   Q 94.80 55.79 95.65 60.40   A 0.38 0.38 0.0 0 0 96.39 60.46   Q 100.51 48.62 105.14 36.89   Q 107.33 31.33 112.19 29.09   Q 114.82 27.88 122.75 27.77   Q 129.77 27.66 136.79 27.69   Q 165.99 27.38 185.44 27.85   Q 195.25 28.08 198.76 37.50   Q 202.45 47.38 206.75 59.81   A 0.35 0.35 0.0 0 0 207.41 59.80   Q 208.46 56.43 212.01 55.50   A 0.96 0.66 28.7 0 1 212.20 55.48   L 222.10 55.48   A 2.61 2.33 48.2 0 1 222.64 55.54   Q 229.28 57.10 228.58 64.65   Q 228.11 69.77 223.67 71.10   A 2.88 2.82 36.1 0 1 222.85 71.22   Q 218.41 71.25 215.01 71.21   C 213.14 71.19 212.26 70.68 211.05 69.46   A 0.16 0.16 0.0 0 0 210.79 69.64   L 215.35 80.17   A 2.15 2.13 -57.2 0 1 215.53 81.03   C 215.66 89.96 215.28 98.18 215.45 106.59   Q 215.75 121.06 215.35 127.40   Q 215.03 132.48 210.04 134.75   A 2.73 2.62 30.3 0 1 209.00 135.00   Q 206.09 135.07 202.31 135.08   C 196.11 135.08 192.62 135.37 190.29 129.40   A 1.26 1.22 36.1 0 1 190.22 128.99   L 190.22 116.02   A 0.32 0.32 0.0 0 0 189.89 115.70   L 160.22 116.31   Z   M 92.75 81.03   L 93.79 80.11   A 1.35 1.33 24.2 0 1 94.71 79.77   L 106.14 79.89   A 2.30 2.25 -35.4 0 1 106.84 80.00   Q 111.37 81.50 111.59 86.25   Q 111.77 90.25 111.57 92.26   A 3.18 3.11 58.5 0 1 111.41 92.96   Q 109.67 97.71 104.52 97.74   Q 94.71 97.79 93.24 97.36   A 0.30 0.30 0.0 0 0 92.86 97.65   L 92.86 108.34   A 0.73 0.71 -63.8 0 0 93.00 108.77   Q 94.64 110.92 95.76 110.96   Q 139.80 112.45 206.65 111.02   A 2.60 2.58 30.7 0 0 207.80 110.73   Q 209.50 109.87 210.66 108.03   A 0.66 0.62 61.8 0 0 210.75 107.70   L 210.75 97.94   A 0.46 0.46 0.0 0 0 210.27 97.48   Q 200.82 97.86 198.31 97.66   Q 193.32 97.28 192.17 92.88   C 190.87 87.88 191.43 81.68 197.23 79.89   A 0.88 0.77 -48.9 0 1 197.45 79.86   L 209.95 79.86   A 0.26 0.26 0.0 0 0 210.18 79.48   Q 208.45 76.06 205.00 67.52   Q 204.90 67.27 194.36 38.93   Q 191.94 32.41 185.40 32.41   Q 172.00 32.40 166.47 32.19   C 149.27 31.53 134.12 32.46 117.29 32.37   A 4.59 4.21 35.4 0 0 116.18 32.51   Q 110.95 33.89 108.85 39.61   Q 102.78 56.22 96.63 73.36   Q 95.72 75.89 92.35 80.46   A 0.04 0.04 0.0 0 0 92.35 80.50   L 92.49 80.96   A 0.16 0.16 0.0 0 0 92.75 81.03   Z   M 79.73 61.58   L 79.71 65.14   A 1.44 1.44 0.0 0 0 81.14 66.59   L 90.39 66.66   A 3.14 2.93 -89.6 0 0 93.34 63.54   L 93.34 63.38   A 3.14 2.93 -89.6 0 0 90.43 60.22   L 81.18 60.15   A 1.44 1.44 0.0 0 0 79.73 61.58   Z   M 224.2156 62.3443   A 2.13 2.13 0.0 0 0 222.0968 60.2032   L 213.2569 60.1569   A 2.13 2.13 0.0 0 0 211.1158 62.2757   L 211.1044 64.4557   A 2.13 2.13 0.0 0 0 213.2232 66.5968   L 222.0631 66.6431   A 2.13 2.13 0.0 0 0 224.2042 64.5243   L 224.2156 62.3443   Z   M 92.46 84.20   L 92.38 92.91   A 0.21 0.21 0.0 0 0 92.59 93.13   L 104.30 93.23   A 2.94 2.82 0.5 0 0 107.26 90.43   L 107.29 86.93   A 2.94 2.82 0.5 0 0 104.38 84.09   L 92.67 83.99   A 0.21 0.21 0.0 0 0 92.46 84.20   Z   M 211.02 92.86   L 210.90 84.20   A 0.24 0.24 0.0 0 0 210.66 83.96   L 199.17 84.12   A 2.85 2.62 -0.8 0 0 196.35 86.78   L 196.41 90.68   A 2.85 2.62 -0.8 0 0 199.29 93.26   L 210.78 93.10   A 0.24 0.24 0.0 0 0 211.02 92.86   Z   M 210.30 114.82   C 209.07 115.13 207.84 115.83 206.28 115.83   Q 195.51 115.83 195.06 115.84   A 0.59 0.59 0.0 0 0 194.49 116.47   Q 194.67 119.83 194.58 126.74   C 194.55 128.95 195.38 130.47 197.52 130.74   Q 199.25 130.96 207.49 130.70   C 210.04 130.62 210.92 128.93 210.89 126.47   Q 210.79 116.87 210.92 115.35   A 0.50 0.50 0.0 0 0 210.30 114.82   Z   M 93.19 114.88   A 0.49 0.49 0.0 0 0 92.57 115.41   Q 92.70 116.91 92.61 126.44   C 92.58 128.88 93.46 130.55 95.99 130.63   Q 104.16 130.88 105.88 130.66   C 108.00 130.40 108.82 128.89 108.79 126.69   Q 108.70 119.84 108.88 116.51   A 0.59 0.59 0.0 0 0 108.31 115.88   Q 107.86 115.87 97.18 115.88   C 95.63 115.88 94.41 115.19 93.19 114.88   Z" fill="#030303"/>
<path class="icon-shape" d="   M 92.75 81.03   A 0.16 0.16 0.0 0 1 92.49 80.96   L 92.35 80.50   A 0.04 0.04 0.0 0 1 92.35 80.46   Q 95.72 75.89 96.63 73.36   Q 102.78 56.22 108.85 39.61   Q 110.95 33.89 116.18 32.51   A 4.59 4.21 35.4 0 1 117.29 32.37   C 134.12 32.46 149.27 31.53 166.47 32.19   Q 172.00 32.40 185.40 32.41   Q 191.94 32.41 194.36 38.93   Q 204.90 67.27 205.00 67.52   Q 208.45 76.06 210.18 79.48   A 0.26 0.26 0.0 0 1 209.95 79.86   L 197.45 79.86   A 0.88 0.77 -48.9 0 0 197.23 79.89   C 191.43 81.68 190.87 87.88 192.17 92.88   Q 193.32 97.28 198.31 97.66   Q 200.82 97.86 210.27 97.48   A 0.46 0.46 0.0 0 1 210.75 97.94   L 210.75 107.70   A 0.66 0.62 61.8 0 1 210.66 108.03   Q 209.50 109.87 207.80 110.73   A 2.60 2.58 30.7 0 1 206.65 111.02   Q 139.80 112.45 95.76 110.96   Q 94.64 110.92 93.00 108.77   A 0.73 0.71 -63.8 0 1 92.86 108.34   L 92.86 97.65   A 0.30 0.30 0.0 0 1 93.24 97.36   Q 94.71 97.79 104.52 97.74   Q 109.67 97.71 111.41 92.96   A 3.18 3.11 58.5 0 0 111.57 92.26   Q 111.77 90.25 111.59 86.25   Q 111.37 81.50 106.84 80.00   A 2.30 2.25 -35.4 0 0 106.14 79.89   L 94.71 79.77   A 1.35 1.33 24.2 0 0 93.79 80.11   L 92.75 81.03   Z   M 151.68 105.36   Q 162.80 105.36 171.15 97.69   Q 182.33 87.43 179.89 70.63   A 0.45 0.44 85.4 0 1 180.32 70.12   C 186.62 70.01 199.81 72.28 196.06 60.66   Q 195.07 57.58 189.90 43.36   Q 188.22 38.75 183.63 37.52   A 3.33 3.20 -35.8 0 0 182.92 37.42   C 171.66 37.15 161.20 36.79 151.69 36.79   C 142.18 36.79 131.71 37.14 120.46 37.41   A 3.33 3.20 35.8 0 0 119.75 37.51   Q 115.16 38.74 113.48 43.35   Q 108.30 57.57 107.31 60.65   C 103.56 72.27 116.75 70.00 123.05 70.11   A 0.45 0.44 -85.4 0 1 123.48 70.62   Q 121.04 87.42 132.21 97.69   Q 140.56 105.36 151.68 105.36   Z" fill="#ffffff"/>
<path class="icon-shape" d="   M 151.69 36.79   C 161.20 36.79 171.66 37.15 182.92 37.42   A 3.33 3.20 -35.8 0 1 183.63 37.52   Q 188.22 38.75 189.90 43.36   Q 195.07 57.58 196.06 60.66   C 199.81 72.28 186.62 70.01 180.32 70.12   A 0.45 0.44 85.4 0 0 179.89 70.63   Q 182.33 87.43 171.15 97.69   Q 162.80 105.36 151.68 105.36   Q 140.56 105.36 132.21 97.69   Q 121.04 87.42 123.48 70.62   A 0.45 0.44 -85.4 0 0 123.05 70.11   C 116.75 70.00 103.56 72.27 107.31 60.65   Q 108.30 57.57 113.48 43.35   Q 115.16 38.74 119.75 37.51   A 3.33 3.20 35.8 0 1 120.46 37.41   C 131.71 37.14 142.18 36.79 151.69 36.79   Z   M 159.90 48.77   Q 172.49 52.91 177.92 64.89   A 0.87 0.87 0.0 0 0 178.71 65.40   L 190.76 65.40   A 1.59 1.58 79.6 0 0 192.24 63.25   Q 190.36 58.33 186.25 46.51   C 184.94 42.76 183.91 41.91 180.00 41.76   Q 168.06 41.30 155.58 41.50   Q 139.17 41.25 122.25 41.65   Q 118.97 41.73 117.89 44.63   Q 114.44 54.01 111.24 63.15   A 1.75 1.75 0.0 0 0 112.89 65.48   L 124.72 65.48   A 0.61 0.59 -75.9 0 0 125.25 65.15   Q 135.87 44.31 159.90 48.77   Z   M 175.61 76.50   A 23.91 23.91 0.0 0 0 151.70 52.59   A 23.91 23.91 0.0 0 0 127.79 76.50   A 23.91 23.91 0.0 0 0 151.70 100.41   A 23.91 23.91 0.0 0 0 175.61 76.50   Z" fill="#030303"/>
<path class="icon-shape" d="   M 155.58 41.50   Q 159.32 45.42 159.90 48.77   Q 135.87 44.31 125.25 65.15   A 0.61 0.59 -75.9 0 1 124.72 65.48   L 112.89 65.48   A 1.75 1.75 0.0 0 1 111.24 63.15   Q 114.44 54.01 117.89 44.63   Q 118.97 41.73 122.25 41.65   Q 139.17 41.25 155.58 41.50   Z" fill="#fdedec"/>
<path class="icon-shape" d="   M 159.90 48.77   Q 159.32 45.42 155.58 41.50   Q 168.06 41.30 180.00 41.76   C 183.91 41.91 184.94 42.76 186.25 46.51   Q 190.36 58.33 192.24 63.25   A 1.59 1.58 79.6 0 1 190.76 65.40   L 178.71 65.40   A 0.87 0.87 0.0 0 1 177.92 64.89   Q 172.49 52.91 159.90 48.77   Z" fill="#ffffff"/>
<path class="icon-shape" d="   M 175.61 76.50   A 23.91 23.91 0.0 0 1 151.70 100.41   A 23.91 23.91 0.0 0 1 127.79 76.50   A 23.91 23.91 0.0 0 1 151.70 52.59   A 23.91 23.91 0.0 0 1 175.61 76.50   Z   M 166.64 76.42   A 14.94 14.94 0.0 0 0 151.70 61.48   A 14.94 14.94 0.0 0 0 136.76 76.42   A 14.94 14.94 0.0 0 0 151.70 91.36   A 14.94 14.94 0.0 0 0 166.64 76.42   Z" fill="#ffffff"/>
<path class="icon-shape" d="   M 79.73 61.58   A 1.44 1.44 0.0 0 1 81.18 60.15   L 90.43 60.22   A 3.14 2.93 -89.6 0 1 93.34 63.38   L 93.34 63.54   A 3.14 2.93 -89.6 0 1 90.39 66.66   L 81.14 66.59   A 1.44 1.44 0.0 0 1 79.71 65.14   L 79.73 61.58   Z" fill="#ffffff"/>
<rect fill="#ffffff" height="6.44" rx="2.13" transform="translate(217.66,63.40) rotate(0.3)" width="13.10" x="-6.55" y="-3.22"/>
<path class="icon-shape" d="   M 166.64 76.42   A 14.94 14.94 0.0 0 1 151.70 91.36   A 14.94 14.94 0.0 0 1 136.76 76.42   A 14.94 14.94 0.0 0 1 151.70 61.48   A 14.94 14.94 0.0 0 1 166.64 76.42   Z   M 161.78 76.42   A 10.10 10.10 0.0 0 0 151.68 66.32   A 10.10 10.10 0.0 0 0 141.58 76.42   A 10.10 10.10 0.0 0 0 151.68 86.52   A 10.10 10.10 0.0 0 0 161.78 76.42   Z" fill="#030303"/>
<circle cx="151.68" cy="76.42" fill="#ffffff" r="10.10"/>
<path class="icon-shape" d="   M 92.46 84.20   A 0.21 0.21 0.0 0 1 92.67 83.99   L 104.38 84.09   A 2.94 2.82 0.5 0 1 107.29 86.93   L 107.26 90.43   A 2.94 2.82 0.5 0 1 104.30 93.23   L 92.59 93.13   A 0.21 0.21 0.0 0 1 92.38 92.91   L 92.46 84.20   Z" fill="#ffffff"/>
<path class="icon-shape" d="   M 211.02 92.86   A 0.24 0.24 0.0 0 1 210.78 93.10   L 199.29 93.26   A 2.85 2.62 -0.8 0 1 196.41 90.68   L 196.35 86.78   A 2.85 2.62 -0.8 0 1 199.17 84.12   L 210.66 83.96   A 0.24 0.24 0.0 0 1 210.90 84.20   L 211.02 92.86   Z" fill="#ffffff"/>
<path class="icon-shape" d="   M 210.92 115.35   Q 210.79 116.87 210.89 126.47   C 210.92 128.93 210.04 130.62 207.49 130.70   Q 199.25 130.96 197.52 130.74   C 195.38 130.47 194.55 128.95 194.58 126.74   Q 194.67 119.83 194.49 116.47   A 0.59 0.59 0.0 0 1 195.06 115.84   Q 195.51 115.83 206.28 115.83   C 207.84 115.83 209.07 115.13 210.30 114.82   A 0.50 0.50 0.0 0 1 210.92 115.35   Z" fill="#ffffff"/>
<path class="icon-shape" d="   M 93.19 114.88   C 94.41 115.19 95.63 115.88 97.18 115.88   Q 107.86 115.87 108.31 115.88   A 0.59 0.59 0.0 0 1 108.88 116.51   Q 108.70 119.84 108.79 126.69   C 108.82 128.89 108.00 130.40 105.88 130.66   Q 104.16 130.88 95.99 130.63   C 93.46 130.55 92.58 128.88 92.61 126.44   Q 92.70 116.91 92.57 115.41   A 0.49 0.49 0.0 0 1 93.19 114.88   Z" fill="#ffffff"/>
<path class="icon-shape" d="   M 160.22 116.31   L 156.79 116.62   A 1.21 1.21 0.0 0 0 156.00 117.01   Q 141.02 133.14 118.74 135.79   Q 112.57 136.53 107.35 134.99   Q 113.72 132.93 113.35 126.00   Q 113.12 121.77 113.51 116.38   A 0.52 0.52 0.0 0 1 114.04 115.89   L 160.22 116.31   Z" fill="#fdedec"/>
</g></svg>