<?xml version="1.0" encoding="UTF-8" standalone="no"?>
<!DOCTYPE svg PUBLIC "-//W3C//DTD SVG 1.1//EN" "http://www.w3.org/Graphics/SVG/1.1/DTD/svg11.dtd">
<svg xmlns="http://www.w3.org/2000/svg" version="1.1" viewBox="0.00 0.00 128.00 136.00">
<path fill="#000000" d="
  M 64.90 31.46
  Q 80.40 31.46 85.04 31.51
  Q 88.92 31.56 90.06 32.66
  Q 92.02 34.54 92.10 37.53
  A 1.50 1.50 0.0 0 1 89.36 38.42
  Q 88.88 37.71 88.57 36.49
  A 1.57 1.56 82.8 0 0 87.05 35.31
  Q 72.87 35.32 64.90 35.32
  Q 56.93 35.32 42.75 35.31
  A 1.57 1.56 -82.8 0 0 41.23 36.50
  Q 40.92 37.72 40.44 38.43
  A 1.50 1.50 0.0 0 1 37.70 37.54
  Q 37.78 34.55 39.74 32.67
  Q 40.88 31.57 44.76 31.52
  Q 49.40 31.46 64.90 31.46
  Z"
/>
<path fill="#000000" d="
  M 65.14 43.36
  Q 78.90 43.35 92.23 43.35
  Q 95.89 43.35 97.81 47.68
  Q 102.12 57.42 103.77 62.79
  A 0.50 0.50 0.0 0 0 104.60 62.99
  L 107.34 60.24
  A 1.36 1.33 22.1 0 1 108.29 59.85
  L 115.08 59.85
  A 1.89 1.78 -30.0 0 1 115.92 60.05
  C 120.53 62.37 119.72 68.21 114.98 69.63
  A 0.54 0.47 -49.1 0 1 114.84 69.65
  L 109.69 69.65
  A 0.39 0.39 0.0 0 0 109.42 70.32
  C 112.45 73.34 113.72 76.42 113.67 80.98
  Q 113.58 89.13 113.68 107.52
  Q 113.70 112.24 110.42 113.93
  A 2.57 2.48 -60.1 0 1 109.45 114.21
  Q 106.37 114.46 101.48 114.42
  Q 96.68 114.38 95.41 110.04
  Q 94.82 108.05 95.41 106.12
  A 0.48 0.47 -79.6 0 0 94.99 105.51
  Q 94.35 105.46 65.15 105.46
  Q 35.96 105.46 35.31 105.51
  A 0.48 0.47 79.5 0 0 34.89 106.13
  Q 35.48 108.06 34.89 110.05
  Q 33.63 114.39 28.83 114.43
  Q 23.94 114.47 20.86 114.22
  A 2.57 2.48 60.1 0 1 19.89 113.94
  Q 16.60 112.25 16.62 107.53
  Q 16.72 89.14 16.63 80.99
  C 16.58 76.43 17.85 73.35 20.88 70.33
  A 0.39 0.39 0.0 0 0 20.61 69.66
  L 15.46 69.66
  A 0.54 0.47 49.1 0 1 15.32 69.64
  C 10.58 68.22 9.76 62.38 14.37 60.06
  A 1.89 1.78 29.9 0 1 15.21 59.86
  L 22.00 59.86
  A 1.36 1.33 -22.1 0 1 22.95 60.25
  L 25.69 63.00
  A 0.50 0.50 0.0 0 0 26.52 62.80
  Q 28.17 57.43 32.48 47.69
  Q 34.40 43.36 38.06 43.36
  Q 51.39 43.36 65.14 43.36
  Z
  M 65.10 64.60
  Q 98.79 64.58 100.32 64.64
  A 0.41 0.41 0.0 0 0 100.71 64.07
  Q 100.13 62.66 95.27 50.26
  C 94.63 48.63 93.30 46.74 91.60 46.70
  Q 88.04 46.62 65.10 46.62
  Q 42.15 46.63 38.60 46.72
  C 36.89 46.76 35.56 48.65 34.92 50.28
  Q 30.07 62.69 29.50 64.10
  A 0.41 0.41 0.0 0 0 29.89 64.67
  Q 31.42 64.61 65.10 64.60
  Z
  M 14.60 66.08
  L 23.44 66.73
  A 0.19 0.19 0.0 0 0 23.64 66.55
  L 23.65 66.49
  A 2.99 2.91 -85.8 0 0 20.96 63.30
  L 17.55 63.05
  A 2.99 2.91 -85.8 0 0 14.43 65.82
  L 14.43 65.88
  A 0.19 0.19 0.0 0 0 14.60 66.08
  Z
  M 106.72 66.49
  L 113.81 66.49
  A 1.85 1.85 0.0 0 0 115.63 64.95
  L 115.67 64.70
  A 1.31 1.30 5.3 0 0 114.38 63.15
  L 110.06 63.16
  A 3.03 3.03 0.0 0 0 107.93 64.06
  L 106.36 65.62
  A 0.51 0.51 0.0 0 0 106.72 66.49
  Z
  M 65.27 101.89
  Q 96.30 101.91 96.51 101.92
  A 1.55 1.44 -29.2 0 1 97.00 102.04
  Q 99.14 103.03 99.13 104.27
  Q 99.09 108.87 99.11 109.13
  A 1.88 1.87 -2.1 0 0 100.98 110.86
  L 108.07 110.86
  A 2.07 2.06 0.0 0 0 110.14 108.80
  L 110.14 78.30
  A 3.01 3.00 -58.0 0 0 109.84 76.99
  Q 107.42 72.02 102.53 68.44
  A 1.34 1.33 -26.3 0 0 101.74 68.18
  Q 100.75 68.17 65.30 68.15
  Q 29.84 68.13 28.85 68.13
  A 1.34 1.33 26.4 0 0 28.06 68.39
  Q 23.17 71.97 20.74 76.93
  A 3.01 3.00 58.1 0 0 20.44 78.24
  L 20.40 108.74
  A 2.07 2.06 0.1 0 0 22.47 110.80
  L 29.56 110.81
  A 1.88 1.87 2.2 0 0 31.43 109.09
  Q 31.45 108.83 31.42 104.23
  Q 31.41 102.99 33.55 102.00
  A 1.55 1.44 29.3 0 1 34.03 101.88
  Q 34.25 101.87 65.27 101.89
  Z"
/>
<path fill="#000000" d="
  M 104.43 77.19
  C 107.52 78.09 107.69 82.28 107.53 85.10
  A 3.31 3.14 -32.9 0 1 107.29 86.09
  Q 105.97 89.22 102.20 89.51
  Q 100.52 89.65 92.07 89.70
  A 3.02 2.95 -36.2 0 1 91.23 89.58
  C 87.24 88.43 88.15 84.76 89.35 81.81
  Q 90.55 78.87 94.22 78.28
  C 97.22 77.80 102.26 76.55 104.43 77.19
  Z
  M 104.02 84.57
  L 103.65 81.21
  A 0.64 0.64 0.0 0 0 102.94 80.64
  L 100.42 80.92
  A 8.50 1.39 -6.3 0 0 92.12 83.24
  L 92.33 85.11
  A 8.50 1.39 -6.3 0 0 100.93 85.55
  L 103.45 85.28
  A 0.64 0.64 0.0 0 0 104.02 84.57
  Z"
/>
<path fill="#000000" d="
  M 25.86 77.27
  C 28.00 76.61 33.03 77.79 36.01 78.23
  Q 39.67 78.77 40.90 81.67
  C 42.12 84.59 43.08 88.22 39.13 89.41
  A 3.00 2.94 35.5 0 1 38.29 89.54
  Q 29.90 89.60 28.23 89.48
  Q 24.48 89.24 23.13 86.15
  A 3.29 3.12 32.1 0 1 22.88 85.17
  C 22.68 82.37 22.80 78.20 25.86 77.27
  Z
  M 26.58 81.00
  L 26.34 85.35
  A 0.25 0.25 0.0 0 0 26.58 85.62
  L 28.11 85.70
  A 9.85 1.34 3.1 0 0 38.02 84.89
  L 38.14 82.72
  A 9.85 1.34 3.1 0 0 28.38 80.85
  L 26.84 80.76
  A 0.25 0.25 0.0 0 0 26.58 81.00
  Z"
/>
<path fill="#000000" d="
  M 81.67 80.30
  A 2.12 2.12 0.0 0 1 83.79 82.42
  L 83.78 83.00
  A 7.64 5.98 -89.9 0 1 77.79 90.63
  L 52.47 90.59
  A 7.64 5.98 -89.9 0 1 46.50 82.94
  L 46.51 82.36
  A 2.12 2.12 0.0 0 1 48.63 80.24
  L 81.67 80.30
  Z
  M 80.23 84.61
  A 0.58 0.58 0.0 0 0 79.72 83.74
  L 50.59 83.74
  A 0.58 0.58 0.0 0 0 50.09 84.61
  L 51.43 86.94
  A 0.58 0.58 0.0 0 0 51.94 87.23
  L 78.38 87.23
  A 0.58 0.58 0.0 0 0 78.88 86.94
  L 80.23 84.61
  Z"
/>
</svg>
