<?xml version="1.0" encoding="UTF-8" standalone="no"?>
<!DOCTYPE svg PUBLIC "-//W3C//DTD SVG 1.1//EN" "http://www.w3.org/Graphics/SVG/1.1/DTD/svg11.dtd">
<svg xmlns="http://www.w3.org/2000/svg" version="1.1" viewBox="0.00 0.00 128.00 136.00">
<path fill="#000000" d="
  M 108.69 27.42
  Q 109.00 29.04 107.53 29.34
  Q 92.89 32.32 78.23 35.17
  Q 63.57 38.02 48.88 40.74
  Q 47.40 41.01 47.08 39.39
  Q 46.77 37.76 48.24 37.46
  Q 62.88 34.49 77.54 31.64
  Q 92.20 28.79 106.89 26.07
  Q 108.37 25.79 108.69 27.42
  Z"
/>
<path fill="#000000" d="
  M 21.50 37.68
  Q 18.00 41.01 16.85 44.79
  A 5.48 5.11 -34.7 0 0 16.63 45.81
  L 16.13 50.83
  A 1.76 1.75 -83.6 0 1 14.17 52.40
  L 14.12 52.40
  A 2.03 2.02 -86.3 0 1 12.34 50.37
  C 12.39 43.90 14.59 39.26 18.99 35.06
  C 23.40 30.85 28.13 28.87 34.60 29.13
  A 2.03 2.02 -1.1 0 1 36.54 30.99
  L 36.54 31.04
  A 1.76 1.75 -3.7 0 1 34.88 32.93
  L 29.84 33.20
  A 5.48 5.11 -52.6 0 0 28.81 33.37
  Q 24.99 34.34 21.50 37.68
  Z"
/>
<path fill="#000000" d="
  M 27.30 44.12
  Q 24.38 46.93 24.16 51.16
  A 1.31 1.30 -28.0 0 1 23.96 51.79
  Q 23.51 52.52 23.15 52.76
  A 1.71 1.64 71.9 0 1 20.58 51.39
  C 20.37 47.77 21.93 44.16 24.73 41.46
  C 27.54 38.76 31.20 37.34 34.81 37.69
  A 1.71 1.64 20.3 0 1 36.08 40.31
  Q 35.83 40.66 35.08 41.08
  A 1.31 1.30 -59.8 0 1 34.45 41.25
  Q 30.21 41.31 27.30 44.12
  Z"
/>
<path fill="#000000" d="
  M 49.99 46.66
  Q 62.94 46.67 65.98 46.74
  Q 68.66 46.79 69.75 50.02
  Q 71.20 54.28 79.37 82.26
  Q 81.09 88.17 75.56 89.60
  A 1.26 1.12 34.3 0 1 75.25 89.64
  L 58.32 89.60
  A 0.46 0.46 0.0 0 0 57.86 90.06
  L 57.86 100.87
  A 0.56 0.56 0.0 0 0 58.43 101.43
  Q 59.25 101.42 65.02 101.32
  C 67.54 101.28 68.63 102.32 68.58 104.94
  Q 68.51 108.58 68.52 108.80
  A 2.08 2.07 -0.7 0 1 66.46 110.90
  Q 61.66 110.94 49.93 110.93
  Q 38.21 110.92 33.41 110.87
  A 2.08 2.07 0.8 0 1 31.35 108.77
  Q 31.36 108.55 31.30 104.91
  C 31.25 102.29 32.35 101.25 34.87 101.29
  Q 40.64 101.40 41.46 101.42
  A 0.56 0.56 0.0 0 0 42.03 100.86
  L 42.04 90.05
  A 0.46 0.46 0.0 0 0 41.59 89.59
  L 24.66 89.60
  A 1.26 1.12 -34.2 0 1 24.35 89.56
  Q 18.82 88.12 20.55 82.21
  Q 28.77 54.24 30.22 49.99
  Q 31.32 46.76 34.00 46.71
  Q 37.04 46.65 49.99 46.66
  Z
  M 23.52 83.97
  A 1.81 1.81 0.0 0 0 25.26 86.29
  L 74.76 86.29
  A 1.81 1.81 0.0 0 0 76.49 83.97
  L 66.75 51.14
  A 1.81 1.81 0.0 0 0 65.02 49.84
  L 34.93 49.84
  A 1.81 1.81 0.0 0 0 33.20 51.14
  L 23.52 83.97
  Z
  M 54.5397 89.9081
  A 0.26 0.26 0.0 0 0 54.2802 89.6476
  L 45.5602 89.6324
  A 0.26 0.26 0.0 0 0 45.2998 89.8919
  L 45.2803 101.0719
  A 0.26 0.26 0.0 0 0 45.5398 101.3324
  L 54.2598 101.3476
  A 0.26 0.26 0.0 0 0 54.5202 101.0881
  L 54.5397 89.9081
  Z
  M 65.13 105.22
  A 0.51 0.51 0.0 0 0 64.62 104.71
  L 35.08 104.71
  A 0.51 0.51 0.0 0 0 34.57 105.22
  L 34.57 107.24
  A 0.51 0.51 0.0 0 0 35.08 107.75
  L 64.62 107.75
  A 0.51 0.51 0.0 0 0 65.13 107.24
  L 65.13 105.22
  Z"
/>
<path fill="#000000" d="
  M 62.44 71.89
  A 5.78 5.78 0.0 0 1 56.66 77.67
  L 43.40 77.67
  A 5.78 5.78 0.0 0 1 37.62 71.89
  L 37.62 62.67
  A 5.78 5.78 0.0 0 1 43.40 56.89
  L 56.66 56.89
  A 5.78 5.78 0.0 0 1 62.44 62.67
  L 62.44 71.89
  Z
  M 58.8423 62.8645
  A 2.42 2.42 0.0 0 0 56.4181 60.4487
  L 43.4781 60.4713
  A 2.42 2.42 0.0 0 0 41.0624 62.8955
  L 41.0777 71.6755
  A 2.42 2.42 0.0 0 0 43.5019 74.0913
  L 56.4419 74.0687
  A 2.42 2.42 0.0 0 0 58.8576 71.6445
  L 58.8423 62.8645
  Z"
/>
<path fill="#000000" d="
  M 89.93 104.25
  Q 99.27 105.96 108.43 107.71
  A 1.39 1.39 0.0 0 1 109.46 109.57
  L 109.42 109.66
  A 1.98 1.98 0.0 0 1 107.19 110.89
  Q 97.66 109.06 91.53 107.89
  Q 90.39 107.67 89.33 107.47
  Q 88.26 107.27 87.12 107.07
  Q 80.98 105.95 71.43 104.22
  A 1.98 1.98 0.0 0 1 69.79 102.27
  L 69.79 102.17
  A 1.39 1.39 0.0 0 1 71.42 100.80
  Q 80.60 102.48 89.93 104.25
  Z"
/>
</svg>
