<?xml version="1.0" encoding="UTF-8" standalone="no"?>
<!DOCTYPE svg PUBLIC "-//W3C//DTD SVG 1.1//EN" "http://www.w3.org/Graphics/SVG/1.1/DTD/svg11.dtd">
<svg xmlns="http://www.w3.org/2000/svg" version="1.1" viewBox="0.00 0.00 127.00 136.00">
<path fill="#000000" d="
  M 52.91 50.89
  A 0.44 0.44 0.0 0 0 53.35 50.45
  L 53.35 47.97
  A 0.64 0.64 0.0 0 0 52.63 47.34
  Q 46.70 48.03 44.14 41.54
  A 2.53 2.33 35.5 0 1 43.96 40.68
  Q 43.82 37.45 43.87 29.00
  C 43.89 26.74 44.25 24.54 45.95 23.11
  Q 47.30 21.97 47.90 21.38
  A 3.94 3.93 -67.2 0 1 50.66 20.25
  L 77.06 20.25
  A 2.37 2.31 57.4 0 1 78.09 20.49
  Q 81.00 21.93 82.76 24.72
  C 84.52 27.50 83.83 32.86 83.91 37.21
  Q 83.99 41.47 83.11 43.18
  Q 80.71 47.82 74.66 47.37
  A 0.24 0.24 0.0 0 0 74.40 47.61
  L 74.40 50.66
  A 0.23 0.22 -0.0 0 0 74.63 50.88
  L 86.93 50.88
  A 1.59 1.13 43.2 0 1 87.30 50.93
  Q 92.98 52.53 94.10 59.17
  Q 99.16 89.44 102.31 106.46
  A 3.55 3.52 55.1 0 1 101.89 108.86
  C 99.41 113.14 96.43 112.68 91.22 112.68
  Q 35.97 112.67 31.35 112.65
  A 3.54 3.09 49.0 0 1 30.63 112.55
  Q 24.96 111.04 25.83 105.06
  Q 26.98 97.22 27.38 94.98
  Q 29.32 84.21 32.61 63.85
  C 33.68 57.22 33.93 53.07 40.09 50.94
  A 1.14 0.98 -49.4 0 1 40.41 50.89
  L 52.91 50.89
  Z
  M 79.39 28.02
  A 3.44 3.44 0.0 0 0 75.95 24.58
  L 51.61 24.58
  A 3.44 3.44 0.0 0 0 48.17 28.02
  L 48.17 39.78
  A 3.44 3.44 0.0 0 0 51.61 43.22
  L 75.95 43.22
  A 3.44 3.44 0.0 0 0 79.39 39.78
  L 79.39 28.02
  Z
  M 69.9585 48.3594
  A 0.70 0.70 0.0 0 0 69.2573 47.6606
  L 58.4773 47.6794
  A 0.70 0.70 0.0 0 0 57.7785 48.3806
  L 57.7815 50.1006
  A 0.70 0.70 0.0 0 0 58.4827 50.7994
  L 69.2627 50.7806
  A 0.70 0.70 0.0 0 0 69.9615 50.0794
  L 69.9585 48.3594
  Z
  M 89.32 56.86
  A 1.84 1.84 0.0 0 0 87.51 55.33
  L 40.02 55.33
  A 1.84 1.84 0.0 0 0 38.21 56.86
  L 29.84 106.04
  A 1.84 1.84 0.0 0 0 31.65 108.19
  L 95.93 108.19
  A 1.84 1.84 0.0 0 0 97.74 106.04
  L 89.32 56.86
  Z"
/>
<path fill="#000000" d="
  M 83.4589 82.8644
  A 8.51 8.51 0.0 0 1 74.9341 91.3596
  L 52.4941 91.3204
  A 8.51 8.51 0.0 0 1 43.9990 82.7956
  L 44.0211 70.1556
  A 8.51 8.51 0.0 0 1 52.5459 61.6604
  L 74.9859 61.6996
  A 8.51 8.51 0.0 0 1 83.4810 70.2244
  L 83.4589 82.8644
  Z
  M 78.83 69.60
  A 3.62 3.62 0.0 0 0 75.21 65.98
  L 52.17 65.98
  A 3.62 3.62 0.0 0 0 48.55 69.60
  L 48.55 83.22
  A 3.62 3.62 0.0 0 0 52.17 86.84
  L 75.21 86.84
  A 3.62 3.62 0.0 0 0 78.83 83.22
  L 78.83 69.60
  Z"
/>
</svg>
