<?xml version="1.0" encoding="UTF-8" standalone="no"?>
<!DOCTYPE svg PUBLIC "-//W3C//DTD SVG 1.1//EN" "http://www.w3.org/Graphics/SVG/1.1/DTD/svg11.dtd">
<svg xmlns="http://www.w3.org/2000/svg" version="1.1" viewBox="0.00 0.00 128.00 136.00">
<path fill="#000000" d="
  M 58.22 123.08
  L 60.67 123.08
  A 0.57 0.57 0.0 0 0 60.95 122.01
  L 60.20 121.59
  A 0.28 0.10 19.3 0 1 60.15 121.55
  L 54.44 115.24
  A 3.40 3.36 24.1 0 1 53.56 112.97
  L 53.56 66.35
  A 0.83 0.82 -76.3 0 0 53.12 65.62
  Q 51.25 64.70 50.99 64.54
  Q 36.97 56.11 35.35 41.55
  Q 34.09 30.23 40.35 21.14
  Q 46.50 12.21 57.56 8.97
  Q 63.76 7.15 71.09 8.96
  Q 80.63 11.32 86.94 18.74
  C 100.37 34.53 94.61 56.93 76.24 65.55
  A 0.89 0.88 77.3 0 0 75.74 66.35
  Q 75.79 73.73 75.88 75.27
  Q 76.16 79.66 72.21 82.36
  A 0.84 0.84 0.0 0 0 71.96 83.47
  L 76.13 90.69
  A 1.62 1.61 -43.2 0 1 76.07 92.38
  L 71.25 99.52
  A 1.06 1.06 0.0 0 0 71.27 100.73
  L 75.37 106.41
  A 2.21 2.17 -63.3 0 1 75.78 107.69
  L 75.78 113.01
  A 3.76 3.74 -22.6 0 1 74.68 115.66
  L 66.65 123.69
  A 0.63 0.60 -71.3 0 1 66.29 123.88
  Q 63.50 124.34 61.93 123.48
  A 0.97 0.94 49.2 0 0 61.15 123.41
  Q 59.24 124.05 58.13 123.70
  A 0.32 0.32 0.0 0 1 58.22 123.08
  Z
  M 57.97 112.70
  L 64.00 119.31
  A 0.83 0.82 45.2 0 0 65.22 119.32
  L 71.16 112.96
  A 1.59 1.54 74.5 0 0 71.53 112.28
  Q 72.19 109.76 71.35 108.17
  Q 70.85 107.21 66.41 101.24
  A 1.48 1.47 43.8 0 1 66.37 99.54
  L 71.48 91.96
  A 0.84 0.84 0.0 0 0 71.51 91.06
  L 67.42 83.98
  A 2.55 2.54 52.6 0 1 67.83 80.90
  L 71.37 77.36
  A 1.06 1.06 0.0 0 0 71.68 76.61
  L 71.68 64.67
  A 1.44 1.34 -36.6 0 1 71.77 64.18
  Q 72.42 62.59 74.11 61.83
  Q 83.65 57.57 87.83 48.52
  C 92.60 38.19 89.73 26.42 81.47 19.04
  C 73.33 11.78 60.69 10.06 51.36 16.28
  C 43.38 21.59 38.81 29.64 39.32 39.47
  C 39.86 50.08 46.46 58.07 56.32 62.36
  A 2.26 2.26 0.0 0 1 57.68 64.43
  L 57.68 111.95
  A 1.12 1.11 24.0 0 0 57.97 112.70
  Z"
/>
<path fill="#000000" d="
  M 68.59 19.68
  C 76.04 22.55 76.41 33.05 69.60 36.82
  Q 65.30 39.20 61.08 37.60
  C 48.59 32.88 56.24 14.93 68.59 19.68
  Z
  M 70.3525 27.4894
  A 5.82 5.48 -10.5 0 0 63.6313 23.1618
  A 5.82 5.48 -10.5 0 0 58.9075 29.6106
  A 5.82 5.48 -10.5 0 0 65.6287 33.9382
  A 5.82 5.48 -10.5 0 0 70.3525 27.4894
  Z"
/>
</svg>
