<?xml version="1.0" encoding="UTF-8" standalone="no"?>
<!DOCTYPE svg PUBLIC "-//W3C//DTD SVG 1.1//EN" "http://www.w3.org/Graphics/SVG/1.1/DTD/svg11.dtd">
<svg xmlns="http://www.w3.org/2000/svg" version="1.1" viewBox="0.00 0.00 229.00 207.00">
<g stroke-width="2.00" fill="none" stroke-linecap="butt">
<path stroke="#d9d8da" vector-effect="non-scaling-stroke" d="
  M 117.23 159.85
  Q 117.23 160.76 117.13 162.55
  C 116.69 170.61 121.86 173.84 129.09 173.86
  Q 135.14 173.88 136.23 173.69
  Q 144.94 172.16 144.95 163.27
  Q 144.99 134.98 144.89 120.90
  A 0.75 0.74 -6.6 0 1 145.48 120.16
  C 149.88 119.22 151.22 116.32 151.30 111.85
  C 151.38 107.92 151.11 103.86 147.31 103.19
  Q 141.75 102.21 137.18 104.18
  A 0.38 0.38 0.0 0 1 136.67 103.96
  Q 134.67 98.67 130.81 92.46
  Q 128.47 88.70 124.66 85.98
  A 0.80 0.80 0.0 0 1 124.44 84.91
  Q 130.32 75.11 134.58 67.07
  C 136.26 63.91 136.37 60.29 131.98 59.66
  Q 114.35 57.13 99.25 56.57
  Q 94.63 56.40 72.34 56.46
  C 60.87 56.50 48.03 57.73 36.89 59.57
  C 30.08 60.69 33.64 66.83 35.49 70.29
  Q 38.98 76.82 43.57 84.81
  A 0.73 0.72 54.2 0 1 43.43 85.71
  C 40.28 88.51 38.38 90.05 36.53 93.53
  Q 33.54 99.17 31.42 103.39
  A 0.53 0.53 0.0 0 1 30.78 103.66
  Q 27.23 102.53 23.01 103.05
  C 17.57 103.72 18.19 108.25 18.21 113.32
  C 18.22 116.83 20.18 119.01 23.15 120.06
  A 0.80 0.79 -80.1 0 1 23.67 120.81
  Q 23.71 159.44 23.64 161.98
  C 23.43 170.01 26.85 173.77 35.12 173.83
  Q 40.81 173.87 42.25 173.53
  C 48.26 172.08 50.65 168.26 50.60 162.35
  Q 50.59 160.24 50.57 160.20
  A 0.44 0.44 0.0 0 1 50.99 159.60
  L 116.99 159.61
  A 0.24 0.24 0.0 0 1 117.23 159.85"
/>
<path stroke="#d9d8da" vector-effect="non-scaling-stroke" d="
  M 84.12 82.31
  C 101.91 82.32 112.20 81.70 119.29 83.15
  A 0.61 0.60 -69.1 0 0 119.94 82.85
  L 130.20 65.08
  A 0.36 0.36 0.0 0 0 129.94 64.54
  C 118.95 62.94 108.73 61.81 97.72 61.71
  Q 94.38 61.68 84.13 61.67
  Q 73.88 61.67 70.54 61.70
  C 59.53 61.79 49.30 62.91 38.31 64.51
  A 0.36 0.36 0.0 0 0 38.05 65.05
  L 48.30 82.82
  A 0.61 0.60 69.1 0 0 48.95 83.12
  C 56.04 81.68 66.33 82.30 84.12 82.31"
/>
<path stroke="#d9d8da" vector-effect="non-scaling-stroke" d="
  M 84.13 130.79
  Q 95.58 130.80 107.40 130.82
  Q 110.90 130.83 112.41 130.06
  C 117.90 127.26 115.57 119.54 118.78 115.15
  C 122.54 110.00 128.22 110.94 133.70 111.01
  A 0.53 0.53 0.0 0 0 134.23 110.42
  Q 134.02 108.59 133.40 107.32
  Q 132.48 105.42 127.15 95.50
  Q 124.73 91.00 120.58 88.78
  Q 118.10 87.45 111.71 87.38
  Q 107.14 87.33 84.17 87.31
  Q 61.20 87.29 56.63 87.33
  Q 50.24 87.39 47.76 88.72
  Q 43.61 90.93 41.18 95.43
  Q 35.83 105.34 34.91 107.23
  Q 34.29 108.50 34.07 110.33
  A 0.53 0.53 0.0 0 0 34.60 110.92
  C 40.08 110.86 45.76 109.93 49.51 115.09
  C 52.72 119.49 50.37 127.20 55.86 130.01
  Q 57.37 130.78 60.87 130.78
  Q 72.69 130.78 84.13 130.79"
/>
<path stroke="#d9d8da" vector-effect="non-scaling-stroke" d="
  M 27.23 107.88
  L 24.48 107.38
  A 1.17 1.17 0.0 0 0 23.12 108.32
  L 22.97 109.14
  A 5.49 2.40 -79.6 0 0 24.34 114.98
  L 24.67 115.04
  A 5.49 2.40 -79.6 0 0 28.02 110.07
  L 28.17 109.25
  A 1.17 1.17 0.0 0 0 27.23 107.88"
/>
<path stroke="#d9d8da" vector-effect="non-scaling-stroke" d="
  M 144.70 107.35
  L 141.48 107.97
  A 1.29 1.29 0.0 0 0 140.46 109.49
  L 140.51 109.71
  A 6.20 2.77 79.0 0 0 144.41 115.27
  L 144.72 115.21
  A 6.20 2.77 79.0 0 0 146.26 108.59
  L 146.22 108.37
  A 1.29 1.29 0.0 0 0 144.70 107.35"
/>
<path stroke="#d9d8da" vector-effect="non-scaling-stroke" d="
  M 46.82 126.26
  A 0.53 0.53 0.0 0 0 47.33 125.64
  Q 46.92 123.00 46.16 119.58
  Q 45.56 116.85 42.62 116.33
  Q 41.08 116.05 33.23 116.15
  A 2.48 2.38 32.2 0 0 32.26 116.35
  Q 28.37 118.01 28.51 121.73
  C 28.63 124.92 30.48 126.18 33.75 126.23
  Q 41.83 126.37 46.82 126.26"
/>
<path stroke="#d9d8da" vector-effect="non-scaling-stroke" d="
  M 121.57 126.15
  Q 126.55 126.35 134.60 126.35
  C 137.86 126.35 139.73 125.13 139.90 121.95
  Q 140.11 118.25 136.26 116.52
  A 2.47 2.37 -31.2 0 0 135.30 116.31
  Q 127.47 116.07 125.93 116.32
  Q 122.99 116.79 122.35 119.50
  Q 121.53 122.90 121.08 125.52
  A 0.53 0.53 0.0 0 0 121.57 126.15"
/>
<path stroke="#d9d8da" vector-effect="non-scaling-stroke" d="
  M 84.07 154.55
  Q 104.33 154.57 133.25 154.60
  Q 137.61 154.61 139.57 149.57
  A 2.50 2.39 57.0 0 0 139.74 148.67
  L 139.74 131.19
  A 0.51 0.50 84.8 0 0 139.15 130.69
  C 138.08 130.89 137.25 131.48 136.01 131.49
  Q 128.40 131.55 122.33 131.48
  C 121.32 131.47 120.31 130.84 119.35 130.78
  A 0.88 0.88 0.0 0 0 118.56 131.15
  C 116.25 134.37 113.38 135.64 109.00 135.67
  Q 104.40 135.71 84.08 135.69
  Q 63.76 135.68 59.16 135.64
  C 54.78 135.60 51.92 134.33 49.61 131.10
  A 0.88 0.88 0.0 0 0 48.82 130.73
  C 47.86 130.79 46.85 131.42 45.84 131.43
  Q 39.77 131.49 32.16 131.42
  C 30.92 131.41 30.09 130.82 29.02 130.61
  A 0.51 0.50 -84.7 0 0 28.43 131.11
  L 28.41 148.59
  A 2.50 2.39 -56.9 0 0 28.58 149.49
  Q 30.53 154.54 34.88 154.53
  Q 63.81 154.54 84.07 154.55"
/>
<path stroke="#d9d8da" vector-effect="non-scaling-stroke" d="
  M 139.31 157.80
  C 137.29 158.92 136.29 159.44 134.15 159.48
  Q 126.07 159.62 122.98 159.48
  A 0.66 0.65 1.3 0 0 122.30 160.12
  C 122.18 164.49 121.86 168.57 126.70 168.61
  Q 133.31 168.67 136.45 168.53
  Q 138.25 168.45 139.67 165.96
  A 0.78 0.76 -31.7 0 0 139.76 165.60
  L 139.76 158.06
  A 0.30 0.30 0.0 0 0 139.31 157.80"
/>
<path stroke="#d9d8da" vector-effect="non-scaling-stroke" d="
  M 28.51 158.72
  C 28.51 161.69 27.60 166.94 31.26 168.44
  A 2.44 2.37 55.3 0 0 32.17 168.62
  L 40.70 168.60
  A 3.04 2.97 -54.6 0 0 41.75 168.41
  Q 47.17 166.42 45.90 159.97
  A 0.59 0.59 0.0 0 0 45.32 159.49
  L 32.35 159.49
  A 2.76 2.67 -31.9 0 1 31.23 159.25
  L 29.16 158.31
  A 0.46 0.45 12.5 0 0 28.51 158.72"
/>
</g>
<path fill="#ffffff" d="
  M 229.00 0.00
  L 229.00 207.00
  L 0.00 207.00
  L 0.00 0.00
  L 229.00 0.00
  Z
  M 117.23 159.85
  Q 117.23 160.76 117.13 162.55
  C 116.69 170.61 121.86 173.84 129.09 173.86
  Q 135.14 173.88 136.23 173.69
  Q 144.94 172.16 144.95 163.27
  Q 144.99 134.98 144.89 120.90
  A 0.75 0.74 -6.6 0 1 145.48 120.16
  C 149.88 119.22 151.22 116.32 151.30 111.85
  C 151.38 107.92 151.11 103.86 147.31 103.19
  Q 141.75 102.21 137.18 104.18
  A 0.38 0.38 0.0 0 1 136.67 103.96
  Q 134.67 98.67 130.81 92.46
  Q 128.47 88.70 124.66 85.98
  A 0.80 0.80 0.0 0 1 124.44 84.91
  Q 130.32 75.11 134.58 67.07
  C 136.26 63.91 136.37 60.29 131.98 59.66
  Q 114.35 57.13 99.25 56.57
  Q 94.63 56.40 72.34 56.46
  C 60.87 56.50 48.03 57.73 36.89 59.57
  C 30.08 60.69 33.64 66.83 35.49 70.29
  Q 38.98 76.82 43.57 84.81
  A 0.73 0.72 54.2 0 1 43.43 85.71
  C 40.28 88.51 38.38 90.05 36.53 93.53
  Q 33.54 99.17 31.42 103.39
  A 0.53 0.53 0.0 0 1 30.78 103.66
  Q 27.23 102.53 23.01 103.05
  C 17.57 103.72 18.19 108.25 18.21 113.32
  C 18.22 116.83 20.18 119.01 23.15 120.06
  A 0.80 0.79 -80.1 0 1 23.67 120.81
  Q 23.71 159.44 23.64 161.98
  C 23.43 170.01 26.85 173.77 35.12 173.83
  Q 40.81 173.87 42.25 173.53
  C 48.26 172.08 50.65 168.26 50.60 162.35
  Q 50.59 160.24 50.57 160.20
  A 0.44 0.44 0.0 0 1 50.99 159.60
  L 116.99 159.61
  A 0.24 0.24 0.0 0 1 117.23 159.85
  Z"
/>
<path fill="#b2b0b4" d="
  M 117.23 159.85
  A 0.24 0.24 0.0 0 0 116.99 159.61
  L 50.99 159.60
  A 0.44 0.44 0.0 0 0 50.57 160.20
  Q 50.59 160.24 50.60 162.35
  C 50.65 168.26 48.26 172.08 42.25 173.53
  Q 40.81 173.87 35.12 173.83
  C 26.85 173.77 23.43 170.01 23.64 161.98
  Q 23.71 159.44 23.67 120.81
  A 0.80 0.79 -80.1 0 0 23.15 120.06
  C 20.18 119.01 18.22 116.83 18.21 113.32
  C 18.19 108.25 17.57 103.72 23.01 103.05
  Q 27.23 102.53 30.78 103.66
  A 0.53 0.53 0.0 0 0 31.42 103.39
  Q 33.54 99.17 36.53 93.53
  C 38.38 90.05 40.28 88.51 43.43 85.71
  A 0.73 0.72 54.2 0 0 43.57 84.81
  Q 38.98 76.82 35.49 70.29
  C 33.64 66.83 30.08 60.69 36.89 59.57
  C 48.03 57.73 60.87 56.50 72.34 56.46
  Q 94.63 56.40 99.25 56.57
  Q 114.35 57.13 131.98 59.66
  C 136.37 60.29 136.26 63.91 134.58 67.07
  Q 130.32 75.11 124.44 84.91
  A 0.80 0.80 0.0 0 0 124.66 85.98
  Q 128.47 88.70 130.81 92.46
  Q 134.67 98.67 136.67 103.96
  A 0.38 0.38 0.0 0 0 137.18 104.18
  Q 141.75 102.21 147.31 103.19
  C 151.11 103.86 151.38 107.92 151.30 111.85
  C 151.22 116.32 149.88 119.22 145.48 120.16
  A 0.75 0.74 -6.6 0 0 144.89 120.90
  Q 144.99 134.98 144.95 163.27
  Q 144.94 172.16 136.23 173.69
  Q 135.14 173.88 129.09 173.86
  C 121.86 173.84 116.69 170.61 117.13 162.55
  Q 117.23 160.76 117.23 159.85
  Z
  M 84.12 82.31
  C 101.91 82.32 112.20 81.70 119.29 83.15
  A 0.61 0.60 -69.1 0 0 119.94 82.85
  L 130.20 65.08
  A 0.36 0.36 0.0 0 0 129.94 64.54
  C 118.95 62.94 108.73 61.81 97.72 61.71
  Q 94.38 61.68 84.13 61.67
  Q 73.88 61.67 70.54 61.70
  C 59.53 61.79 49.30 62.91 38.31 64.51
  A 0.36 0.36 0.0 0 0 38.05 65.05
  L 48.30 82.82
  A 0.61 0.60 69.1 0 0 48.95 83.12
  C 56.04 81.68 66.33 82.30 84.12 82.31
  Z
  M 84.13 130.79
  Q 95.58 130.80 107.40 130.82
  Q 110.90 130.83 112.41 130.06
  C 117.90 127.26 115.57 119.54 118.78 115.15
  C 122.54 110.00 128.22 110.94 133.70 111.01
  A 0.53 0.53 0.0 0 0 134.23 110.42
  Q 134.02 108.59 133.40 107.32
  Q 132.48 105.42 127.15 95.50
  Q 124.73 91.00 120.58 88.78
  Q 118.10 87.45 111.71 87.38
  Q 107.14 87.33 84.17 87.31
  Q 61.20 87.29 56.63 87.33
  Q 50.24 87.39 47.76 88.72
  Q 43.61 90.93 41.18 95.43
  Q 35.83 105.34 34.91 107.23
  Q 34.29 108.50 34.07 110.33
  A 0.53 0.53 0.0 0 0 34.60 110.92
  C 40.08 110.86 45.76 109.93 49.51 115.09
  C 52.72 119.49 50.37 127.20 55.86 130.01
  Q 57.37 130.78 60.87 130.78
  Q 72.69 130.78 84.13 130.79
  Z
  M 27.23 107.88
  L 24.48 107.38
  A 1.17 1.17 0.0 0 0 23.12 108.32
  L 22.97 109.14
  A 5.49 2.40 -79.6 0 0 24.34 114.98
  L 24.67 115.04
  A 5.49 2.40 -79.6 0 0 28.02 110.07
  L 28.17 109.25
  A 1.17 1.17 0.0 0 0 27.23 107.88
  Z
  M 144.70 107.35
  L 141.48 107.97
  A 1.29 1.29 0.0 0 0 140.46 109.49
  L 140.51 109.71
  A 6.20 2.77 79.0 0 0 144.41 115.27
  L 144.72 115.21
  A 6.20 2.77 79.0 0 0 146.26 108.59
  L 146.22 108.37
  A 1.29 1.29 0.0 0 0 144.70 107.35
  Z
  M 46.82 126.26
  A 0.53 0.53 0.0 0 0 47.33 125.64
  Q 46.92 123.00 46.16 119.58
  Q 45.56 116.85 42.62 116.33
  Q 41.08 116.05 33.23 116.15
  A 2.48 2.38 32.2 0 0 32.26 116.35
  Q 28.37 118.01 28.51 121.73
  C 28.63 124.92 30.48 126.18 33.75 126.23
  Q 41.83 126.37 46.82 126.26
  Z
  M 121.57 126.15
  Q 126.55 126.35 134.60 126.35
  C 137.86 126.35 139.73 125.13 139.90 121.95
  Q 140.11 118.25 136.26 116.52
  A 2.47 2.37 -31.2 0 0 135.30 116.31
  Q 127.47 116.07 125.93 116.32
  Q 122.99 116.79 122.35 119.50
  Q 121.53 122.90 121.08 125.52
  A 0.53 0.53 0.0 0 0 121.57 126.15
  Z
  M 84.07 154.55
  Q 104.33 154.57 133.25 154.60
  Q 137.61 154.61 139.57 149.57
  A 2.50 2.39 57.0 0 0 139.74 148.67
  L 139.74 131.19
  A 0.51 0.50 84.8 0 0 139.15 130.69
  C 138.08 130.89 137.25 131.48 136.01 131.49
  Q 128.40 131.55 122.33 131.48
  C 121.32 131.47 120.31 130.84 119.35 130.78
  A 0.88 0.88 0.0 0 0 118.56 131.15
  C 116.25 134.37 113.38 135.64 109.00 135.67
  Q 104.40 135.71 84.08 135.69
  Q 63.76 135.68 59.16 135.64
  C 54.78 135.60 51.92 134.33 49.61 131.10
  A 0.88 0.88 0.0 0 0 48.82 130.73
  C 47.86 130.79 46.85 131.42 45.84 131.43
  Q 39.77 131.49 32.16 131.42
  C 30.92 131.41 30.09 130.82 29.02 130.61
  A 0.51 0.50 -84.7 0 0 28.43 131.11
  L 28.41 148.59
  A 2.50 2.39 -56.9 0 0 28.58 149.49
  Q 30.53 154.54 34.88 154.53
  Q 63.81 154.54 84.07 154.55
  Z
  M 139.31 157.80
  C 137.29 158.92 136.29 159.44 134.15 159.48
  Q 126.07 159.62 122.98 159.48
  A 0.66 0.65 1.3 0 0 122.30 160.12
  C 122.18 164.49 121.86 168.57 126.70 168.61
  Q 133.31 168.67 136.45 168.53
  Q 138.25 168.45 139.67 165.96
  A 0.78 0.76 -31.7 0 0 139.76 165.60
  L 139.76 158.06
  A 0.30 0.30 0.0 0 0 139.31 157.80
  Z
  M 28.51 158.72
  C 28.51 161.69 27.60 166.94 31.26 168.44
  A 2.44 2.37 55.3 0 0 32.17 168.62
  L 40.70 168.60
  A 3.04 2.97 -54.6 0 0 41.75 168.41
  Q 47.17 166.42 45.90 159.97
  A 0.59 0.59 0.0 0 0 45.32 159.49
  L 32.35 159.49
  A 2.76 2.67 -31.9 0 1 31.23 159.25
  L 29.16 158.31
  A 0.46 0.45 12.5 0 0 28.51 158.72
  Z"
/>
<path fill="#ffffff" d="
  M 84.13 61.67
  Q 94.38 61.68 97.72 61.71
  C 108.73 61.81 118.95 62.94 129.94 64.54
  A 0.36 0.36 0.0 0 1 130.20 65.08
  L 119.94 82.85
  A 0.61 0.60 -69.1 0 1 119.29 83.15
  C 112.20 81.70 101.91 82.32 84.12 82.31
  C 66.33 82.30 56.04 81.68 48.95 83.12
  A 0.61 0.60 69.1 0 1 48.30 82.82
  L 38.05 65.05
  A 0.36 0.36 0.0 0 1 38.31 64.51
  C 49.30 62.91 59.53 61.79 70.54 61.70
  Q 73.88 61.67 84.13 61.67
  Z"
/>
<path fill="#ffffff" d="
  M 84.17 87.31
  Q 107.14 87.33 111.71 87.38
  Q 118.10 87.45 120.58 88.78
  Q 124.73 91.00 127.15 95.50
  Q 132.48 105.42 133.40 107.32
  Q 134.02 108.59 134.23 110.42
  A 0.53 0.53 0.0 0 1 133.70 111.01
  C 128.22 110.94 122.54 110.00 118.78 115.15
  C 115.57 119.54 117.90 127.26 112.41 130.06
  Q 110.90 130.83 107.40 130.82
  Q 95.58 130.80 84.13 130.79
  Q 72.69 130.78 60.87 130.78
  Q 57.37 130.78 55.86 130.01
  C 50.37 127.20 52.72 119.49 49.51 115.09
  C 45.76 109.93 40.08 110.86 34.60 110.92
  A 0.53 0.53 0.0 0 1 34.07 110.33
  Q 34.29 108.50 34.91 107.23
  Q 35.83 105.34 41.18 95.43
  Q 43.61 90.93 47.76 88.72
  Q 50.24 87.39 56.63 87.33
  Q 61.20 87.29 84.17 87.31
  Z"
/>
<path fill="#ffffff" d="
  M 27.23 107.88
  A 1.17 1.17 0.0 0 1 28.17 109.25
  L 28.02 110.07
  A 5.49 2.40 -79.6 0 1 24.67 115.04
  L 24.34 114.98
  A 5.49 2.40 -79.6 0 1 22.97 109.14
  L 23.12 108.32
  A 1.17 1.17 0.0 0 1 24.48 107.38
  L 27.23 107.88
  Z"
/>
<path fill="#ffffff" d="
  M 144.70 107.35
  A 1.29 1.29 0.0 0 1 146.22 108.37
  L 146.26 108.59
  A 6.20 2.77 79.0 0 1 144.72 115.21
  L 144.41 115.27
  A 6.20 2.77 79.0 0 1 140.51 109.71
  L 140.46 109.49
  A 1.29 1.29 0.0 0 1 141.48 107.97
  L 144.70 107.35
  Z"
/>
<path fill="#ffffff" d="
  M 46.82 126.26
  Q 41.83 126.37 33.75 126.23
  C 30.48 126.18 28.63 124.92 28.51 121.73
  Q 28.37 118.01 32.26 116.35
  A 2.48 2.38 32.2 0 1 33.23 116.15
  Q 41.08 116.05 42.62 116.33
  Q 45.56 116.85 46.16 119.58
  Q 46.92 123.00 47.33 125.64
  A 0.53 0.53 0.0 0 1 46.82 126.26
  Z"
/>
<path fill="#ffffff" d="
  M 121.57 126.15
  A 0.53 0.53 0.0 0 1 121.08 125.52
  Q 121.53 122.90 122.35 119.50
  Q 122.99 116.79 125.93 116.32
  Q 127.47 116.07 135.30 116.31
  A 2.47 2.37 -31.2 0 1 136.26 116.52
  Q 140.11 118.25 139.90 121.95
  C 139.73 125.13 137.86 126.35 134.60 126.35
  Q 126.55 126.35 121.57 126.15
  Z"
/>
<path fill="#ffffff" d="
  M 84.08 135.69
  Q 104.40 135.71 109.00 135.67
  C 113.38 135.64 116.25 134.37 118.56 131.15
  A 0.88 0.88 0.0 0 1 119.35 130.78
  C 120.31 130.84 121.32 131.47 122.33 131.48
  Q 128.40 131.55 136.01 131.49
  C 137.25 131.48 138.08 130.89 139.15 130.69
  A 0.51 0.50 84.8 0 1 139.74 131.19
  L 139.74 148.67
  A 2.50 2.39 57.0 0 1 139.57 149.57
  Q 137.61 154.61 133.25 154.60
  Q 104.33 154.57 84.07 154.55
  Q 63.81 154.54 34.88 154.53
  Q 30.53 154.54 28.58 149.49
  A 2.50 2.39 -56.9 0 1 28.41 148.59
  L 28.43 131.11
  A 0.51 0.50 -84.7 0 1 29.02 130.61
  C 30.09 130.82 30.92 131.41 32.16 131.42
  Q 39.77 131.49 45.84 131.43
  C 46.85 131.42 47.86 130.79 48.82 130.73
  A 0.88 0.88 0.0 0 1 49.61 131.10
  C 51.92 134.33 54.78 135.60 59.16 135.64
  Q 63.76 135.68 84.08 135.69
  Z"
/>
<path fill="#ffffff" d="
  M 139.31 157.80
  A 0.30 0.30 0.0 0 1 139.76 158.06
  L 139.76 165.60
  A 0.78 0.76 -31.7 0 1 139.67 165.96
  Q 138.25 168.45 136.45 168.53
  Q 133.31 168.67 126.70 168.61
  C 121.86 168.57 122.18 164.49 122.30 160.12
  A 0.66 0.65 1.3 0 1 122.98 159.48
  Q 126.07 159.62 134.15 159.48
  C 136.29 159.44 137.29 158.92 139.31 157.80
  Z"
/>
<path fill="#ffffff" d="
  M 29.16 158.31
  L 31.23 159.25
  A 2.76 2.67 -31.9 0 0 32.35 159.49
  L 45.32 159.49
  A 0.59 0.59 0.0 0 1 45.90 159.97
  Q 47.17 166.42 41.75 168.41
  A 3.04 2.97 -54.6 0 1 40.70 168.60
  L 32.17 168.62
  A 2.44 2.37 55.3 0 1 31.26 168.44
  C 27.60 166.94 28.51 161.69 28.51 158.72
  A 0.46 0.45 12.5 0 1 29.16 158.31
  Z"
/>
</svg>
