<?xml version="1.0" encoding="UTF-8" standalone="no"?>
<!DOCTYPE svg PUBLIC "-//W3C//DTD SVG 1.1//EN" "http://www.w3.org/Graphics/SVG/1.1/DTD/svg11.dtd">
<svg xmlns="http://www.w3.org/2000/svg" version="1.1" viewBox="0.00 0.00 195.00 207.00">
<g stroke-width="2.00" fill="none" stroke-linecap="butt">
<path stroke="#d9d8da" vector-effect="non-scaling-stroke" d="
  M 99.63 60.83
  Q 105.02 60.82 106.25 61.00
  Q 130.90 64.42 145.38 83.27
  C 151.69 91.47 155.80 102.24 156.48 112.22
  Q 158.24 138.13 140.22 157.36
  A 2.30 2.29 -48.2 0 0 140.40 160.68
  L 140.47 160.74
  A 2.59 2.58 42.0 0 0 144.03 160.56
  C 166.39 137.12 167.79 101.28 146.61 76.87
  Q 132.74 60.90 110.56 56.59
  Q 106.75 55.85 99.62 55.86
  Q 92.49 55.87 88.68 56.61
  Q 66.51 60.97 52.67 76.97
  C 31.54 101.42 33.02 137.26 55.43 160.65
  A 2.59 2.58 -42.1 0 0 58.99 160.82
  L 59.06 160.76
  A 2.30 2.29 48.1 0 0 59.23 157.44
  Q 41.17 138.25 42.88 112.34
  C 43.54 102.36 47.62 91.58 53.92 83.36
  Q 68.36 64.48 93.00 61.01
  Q 94.23 60.84 99.63 60.83"
/>
<path stroke="#d9d8da" vector-effect="non-scaling-stroke" d="
  M 142.72 120.33
  A 0.60 0.60 0.0 0 1 143.33 120.99
  Q 142.16 133.81 133.69 145.17
  A 2.28 2.27 -51.7 0 0 134.05 148.28
  L 134.09 148.30
  A 2.40 2.40 0.0 0 0 137.30 148.18
  Q 139.80 145.74 142.03 141.51
  C 149.04 128.26 150.64 112.76 145.02 98.99
  C 139.10 84.48 125.90 73.68 110.91 70.32
  C 73.46 61.93 40.39 96.81 53.83 133.70
  Q 57.08 142.61 61.74 147.59
  C 65.22 151.30 67.95 145.39 67.84 142.91
  Q 67.76 141.30 66.32 139.93
  A 0.60 0.60 0.0 0 0 65.31 140.36
  L 65.31 142.07
  A 0.77 0.77 0.0 0 1 63.91 142.50
  Q 57.04 132.31 55.97 120.80
  A 0.45 0.45 0.0 0 1 56.46 120.30
  C 58.79 120.51 62.53 121.13 64.23 118.71
  A 1.20 1.20 0.0 0 0 64.42 117.77
  C 63.57 114.04 59.26 114.89 56.52 115.04
  A 0.57 0.57 0.0 0 1 55.92 114.44
  Q 56.90 100.18 66.19 89.33
  A 0.91 0.91 0.0 0 1 67.53 89.28
  L 70.48 92.23
  A 2.22 2.22 0.0 0 0 73.62 92.23
  L 74.14 91.71
  A 2.05 2.04 -45.1 0 0 74.14 88.82
  L 71.21 85.89
  A 0.70 0.70 0.0 0 1 71.25 84.87
  Q 81.83 75.68 96.05 74.15
  A 0.57 0.56 -2.7 0 1 96.68 74.72
  L 96.60 80.22
  A 2.31 2.30 87.8 0 0 99.11 82.55
  L 99.31 82.53
  A 2.64 2.64 0.0 0 0 101.68 79.84
  L 101.55 74.78
  A 0.71 0.70 1.5 0 1 102.31 74.06
  Q 117.25 75.29 128.36 84.69
  A 0.45 0.45 0.0 0 1 128.38 85.35
  L 125.22 88.37
  A 2.64 2.64 0.0 0 0 125.22 92.19
  L 125.41 92.37
  A 2.45 2.45 0.0 0 0 128.74 92.16
  L 131.73 89.00
  A 0.83 0.82 45.7 0 1 132.94 89.02
  Q 142.51 99.67 143.41 114.41
  A 0.51 0.50 -2.1 0 1 142.90 114.95
  L 137.47 114.95
  A 2.89 2.88 -86.6 0 0 134.61 117.50
  L 134.58 117.76
  A 2.44 2.44 0.0 0 0 137.06 120.46
  L 142.72 120.33"
/>
<path stroke="#d9d8da" vector-effect="non-scaling-stroke" d="
  M 109.08 117.52
  C 113.45 125.63 109.61 134.58 100.44 136.89
  C 94.83 138.30 91.06 136.28 87.11 132.52
  A 1.44 1.37 -21.2 0 0 86.19 132.14
  Q 83.79 132.08 82.43 134.29
  A 1.03 1.01 45.4 0 0 82.43 135.36
  Q 83.92 137.83 86.83 139.51
  Q 95.90 144.77 104.78 141.07
  C 115.27 136.70 119.85 124.03 112.63 114.65
  A 1.94 1.93 48.7 0 1 112.79 112.10
  L 122.56 102.33
  A 2.11 2.11 0.0 0 0 122.34 99.15
  L 122.04 98.91
  A 2.96 2.96 0.0 0 0 118.17 99.15
  Q 112.15 105.07 108.14 109.52
  Q 104.86 113.16 101.15 116.25
  Q 96.38 120.21 93.25 122.04
  A 0.90 0.89 -26.3 0 1 91.97 121.61
  C 89.85 116.47 94.17 111.49 99.04 110.28
  Q 99.64 110.13 104.05 110.28
  A 1.70 1.66 29.1 0 0 104.97 110.03
  Q 106.38 109.13 107.72 106.97
  A 0.91 0.90 -61.0 0 0 107.36 105.68
  C 96.52 100.21 82.10 111.43 86.75 123.23
  C 89.81 131.00 97.58 128.24 101.86 124.05
  Q 104.07 121.89 108.01 117.40
  A 0.66 0.66 0.0 0 1 109.08 117.52"
/>
</g>
<path fill="#ffffff" d="
  M 195.00 0.00
  L 195.00 207.00
  L 0.00 207.00
  L 0.00 0.00
  L 195.00 0.00
  Z
  M 99.63 60.83
  Q 105.02 60.82 106.25 61.00
  Q 130.90 64.42 145.38 83.27
  C 151.69 91.47 155.80 102.24 156.48 112.22
  Q 158.24 138.13 140.22 157.36
  A 2.30 2.29 -48.2 0 0 140.40 160.68
  L 140.47 160.74
  A 2.59 2.58 42.0 0 0 144.03 160.56
  C 166.39 137.12 167.79 101.28 146.61 76.87
  Q 132.74 60.90 110.56 56.59
  Q 106.75 55.85 99.62 55.86
  Q 92.49 55.87 88.68 56.61
  Q 66.51 60.97 52.67 76.97
  C 31.54 101.42 33.02 137.26 55.43 160.65
  A 2.59 2.58 -42.1 0 0 58.99 160.82
  L 59.06 160.76
  A 2.30 2.29 48.1 0 0 59.23 157.44
  Q 41.17 138.25 42.88 112.34
  C 43.54 102.36 47.62 91.58 53.92 83.36
  Q 68.36 64.48 93.00 61.01
  Q 94.23 60.84 99.63 60.83
  Z
  M 142.72 120.33
  A 0.60 0.60 0.0 0 1 143.33 120.99
  Q 142.16 133.81 133.69 145.17
  A 2.28 2.27 -51.7 0 0 134.05 148.28
  L 134.09 148.30
  A 2.40 2.40 0.0 0 0 137.30 148.18
  Q 139.80 145.74 142.03 141.51
  C 149.04 128.26 150.64 112.76 145.02 98.99
  C 139.10 84.48 125.90 73.68 110.91 70.32
  C 73.46 61.93 40.39 96.81 53.83 133.70
  Q 57.08 142.61 61.74 147.59
  C 65.22 151.30 67.95 145.39 67.84 142.91
  Q 67.76 141.30 66.32 139.93
  A 0.60 0.60 0.0 0 0 65.31 140.36
  L 65.31 142.07
  A 0.77 0.77 0.0 0 1 63.91 142.50
  Q 57.04 132.31 55.97 120.80
  A 0.45 0.45 0.0 0 1 56.46 120.30
  C 58.79 120.51 62.53 121.13 64.23 118.71
  A 1.20 1.20 0.0 0 0 64.42 117.77
  C 63.57 114.04 59.26 114.89 56.52 115.04
  A 0.57 0.57 0.0 0 1 55.92 114.44
  Q 56.90 100.18 66.19 89.33
  A 0.91 0.91 0.0 0 1 67.53 89.28
  L 70.48 92.23
  A 2.22 2.22 0.0 0 0 73.62 92.23
  L 74.14 91.71
  A 2.05 2.04 -45.1 0 0 74.14 88.82
  L 71.21 85.89
  A 0.70 0.70 0.0 0 1 71.25 84.87
  Q 81.83 75.68 96.05 74.15
  A 0.57 0.56 -2.7 0 1 96.68 74.72
  L 96.60 80.22
  A 2.31 2.30 87.8 0 0 99.11 82.55
  L 99.31 82.53
  A 2.64 2.64 0.0 0 0 101.68 79.84
  L 101.55 74.78
  A 0.71 0.70 1.5 0 1 102.31 74.06
  Q 117.25 75.29 128.36 84.69
  A 0.45 0.45 0.0 0 1 128.38 85.35
  L 125.22 88.37
  A 2.64 2.64 0.0 0 0 125.22 92.19
  L 125.41 92.37
  A 2.45 2.45 0.0 0 0 128.74 92.16
  L 131.73 89.00
  A 0.83 0.82 45.7 0 1 132.94 89.02
  Q 142.51 99.67 143.41 114.41
  A 0.51 0.50 -2.1 0 1 142.90 114.95
  L 137.47 114.95
  A 2.89 2.88 -86.6 0 0 134.61 117.50
  L 134.58 117.76
  A 2.44 2.44 0.0 0 0 137.06 120.46
  L 142.72 120.33
  Z
  M 109.08 117.52
  C 113.45 125.63 109.61 134.58 100.44 136.89
  C 94.83 138.30 91.06 136.28 87.11 132.52
  A 1.44 1.37 -21.2 0 0 86.19 132.14
  Q 83.79 132.08 82.43 134.29
  A 1.03 1.01 45.4 0 0 82.43 135.36
  Q 83.92 137.83 86.83 139.51
  Q 95.90 144.77 104.78 141.07
  C 115.27 136.70 119.85 124.03 112.63 114.65
  A 1.94 1.93 48.7 0 1 112.79 112.10
  L 122.56 102.33
  A 2.11 2.11 0.0 0 0 122.34 99.15
  L 122.04 98.91
  A 2.96 2.96 0.0 0 0 118.17 99.15
  Q 112.15 105.07 108.14 109.52
  Q 104.86 113.16 101.15 116.25
  Q 96.38 120.21 93.25 122.04
  A 0.90 0.89 -26.3 0 1 91.97 121.61
  C 89.85 116.47 94.17 111.49 99.04 110.28
  Q 99.64 110.13 104.05 110.28
  A 1.70 1.66 29.1 0 0 104.97 110.03
  Q 106.38 109.13 107.72 106.97
  A 0.91 0.90 -61.0 0 0 107.36 105.68
  C 96.52 100.21 82.10 111.43 86.75 123.23
  C 89.81 131.00 97.58 128.24 101.86 124.05
  Q 104.07 121.89 108.01 117.40
  A 0.66 0.66 0.0 0 1 109.08 117.52
  Z"
/>
<path fill="#b3b0b4" d="
  M 99.62 55.86
  Q 106.75 55.85 110.56 56.59
  Q 132.74 60.90 146.61 76.87
  C 167.79 101.28 166.39 137.12 144.03 160.56
  A 2.59 2.58 42.0 0 1 140.47 160.74
  L 140.40 160.68
  A 2.30 2.29 -48.2 0 1 140.22 157.36
  Q 158.24 138.13 156.48 112.22
  C 155.80 102.24 151.69 91.47 145.38 83.27
  Q 130.90 64.42 106.25 61.00
  Q 105.02 60.82 99.63 60.83
  Q 94.23 60.84 93.00 61.01
  Q 68.36 64.48 53.92 83.36
  C 47.62 91.58 43.54 102.36 42.88 112.34
  Q 41.17 138.25 59.23 157.44
  A 2.30 2.29 48.1 0 1 59.06 160.76
  L 58.99 160.82
  A 2.59 2.58 -42.1 0 1 55.43 160.65
  C 33.02 137.26 31.54 101.42 52.67 76.97
  Q 66.51 60.97 88.68 56.61
  Q 92.49 55.87 99.62 55.86
  Z"
/>
<path fill="#b3b0b4" d="
  M 142.72 120.33
  L 137.06 120.46
  A 2.44 2.44 0.0 0 1 134.58 117.76
  L 134.61 117.50
  A 2.89 2.88 -86.6 0 1 137.47 114.95
  L 142.90 114.95
  A 0.51 0.50 -2.1 0 0 143.41 114.41
  Q 142.51 99.67 132.94 89.02
  A 0.83 0.82 45.7 0 0 131.73 89.00
  L 128.74 92.16
  A 2.45 2.45 0.0 0 1 125.41 92.37
  L 125.22 92.19
  A 2.64 2.64 0.0 0 1 125.22 88.37
  L 128.38 85.35
  A 0.45 0.45 0.0 0 0 128.36 84.69
  Q 117.25 75.29 102.31 74.06
  A 0.71 0.70 1.5 0 0 101.55 74.78
  L 101.68 79.84
  A 2.64 2.64 0.0 0 1 99.31 82.53
  L 99.11 82.55
  A 2.31 2.30 87.8 0 1 96.60 80.22
  L 96.68 74.72
  A 0.57 0.56 -2.7 0 0 96.05 74.15
  Q 81.83 75.68 71.25 84.87
  A 0.70 0.70 0.0 0 0 71.21 85.89
  L 74.14 88.82
  A 2.05 2.04 -45.1 0 1 74.14 91.71
  L 73.62 92.23
  A 2.22 2.22 0.0 0 1 70.48 92.23
  L 67.53 89.28
  A 0.91 0.91 0.0 0 0 66.19 89.33
  Q 56.90 100.18 55.92 114.44
  A 0.57 0.57 0.0 0 0 56.52 115.04
  C 59.26 114.89 63.57 114.04 64.42 117.77
  A 1.20 1.20 0.0 0 1 64.23 118.71
  C 62.53 121.13 58.79 120.51 56.46 120.30
  A 0.45 0.45 0.0 0 0 55.97 120.80
  Q 57.04 132.31 63.91 142.50
  A 0.77 0.77 0.0 0 0 65.31 142.07
  L 65.31 140.36
  A 0.60 0.60 0.0 0 1 66.32 139.93
  Q 67.76 141.30 67.84 142.91
  C 67.95 145.39 65.22 151.30 61.74 147.59
  Q 57.08 142.61 53.83 133.70
  C 40.39 96.81 73.46 61.93 110.91 70.32
  C 125.90 73.68 139.10 84.48 145.02 98.99
  C 150.64 112.76 149.04 128.26 142.03 141.51
  Q 139.80 145.74 137.30 148.18
  A 2.40 2.40 0.0 0 1 134.09 148.30
  L 134.05 148.28
  A 2.28 2.27 -51.7 0 1 133.69 145.17
  Q 142.16 133.81 143.33 120.99
  A 0.60 0.60 0.0 0 0 142.72 120.33
  Z"
/>
<path fill="#b3b0b4" d="
  M 109.08 117.52
  A 0.66 0.66 0.0 0 0 108.01 117.40
  Q 104.07 121.89 101.86 124.05
  C 97.58 128.24 89.81 131.00 86.75 123.23
  C 82.10 111.43 96.52 100.21 107.36 105.68
  A 0.91 0.90 -61.0 0 1 107.72 106.97
  Q 106.38 109.13 104.97 110.03
  A 1.70 1.66 29.1 0 1 104.05 110.28
  Q 99.64 110.13 99.04 110.28
  C 94.17 111.49 89.85 116.47 91.97 121.61
  A 0.90 0.89 -26.3 0 0 93.25 122.04
  Q 96.38 120.21 101.15 116.25
  Q 104.86 113.16 108.14 109.52
  Q 112.15 105.07 118.17 99.15
  A 2.96 2.96 0.0 0 1 122.04 98.91
  L 122.34 99.15
  A 2.11 2.11 0.0 0 1 122.56 102.33
  L 112.79 112.10
  A 1.94 1.93 48.7 0 0 112.63 114.65
  C 119.85 124.03 115.27 136.70 104.78 141.07
  Q 95.90 144.77 86.83 139.51
  Q 83.92 137.83 82.43 135.36
  A 1.03 1.01 45.4 0 1 82.43 134.29
  Q 83.79 132.08 86.19 132.14
  A 1.44 1.37 -21.2 0 1 87.11 132.52
  C 91.06 136.28 94.83 138.30 100.44 136.89
  C 109.61 134.58 113.45 125.63 109.08 117.52
  Z"
/>
</svg>
