<?xml version="1.0" encoding="utf-8"?>
<svg version="1.1" viewBox="0.00 0.00 195.00 207.00" xmlns="http://www.w3.org/2000/svg"><g id="offState" style="display:inline"><g fill="none" stroke-linecap="butt" stroke-width="2.00">
<path class="icon-shape" d="   M 99.63 60.83   Q 105.02 60.82 106.25 61.00   Q 130.90 64.42 145.38 83.27   C 151.69 91.47 155.80 102.24 156.48 112.22   Q 158.24 138.13 140.22 157.36   A 2.30 2.29 -48.2 0 0 140.40 160.68   L 140.47 160.74   A 2.59 2.58 42.0 0 0 144.03 160.56   C 166.39 137.12 167.79 101.28 146.61 76.87   Q 132.74 60.90 110.56 56.59   Q 106.75 55.85 99.62 55.86   Q 92.49 55.87 88.68 56.61   Q 66.51 60.97 52.67 76.97   C 31.54 101.42 33.02 137.26 55.43 160.65   A 2.59 2.58 -42.1 0 0 58.99 160.82   L 59.06 160.76   A 2.30 2.29 48.1 0 0 59.23 157.44   Q 41.17 138.25 42.88 112.34   C 43.54 102.36 47.62 91.58 53.92 83.36   Q 68.36 64.48 93.00 61.01   Q 94.23 60.84 99.63 60.83" stroke="#d9d8da" vector-effect="non-scaling-stroke"/>
<path class="icon-shape" d="   M 142.72 120.33   A 0.60 0.60 0.0 0 1 143.33 120.99   Q 142.16 133.81 133.69 145.17   A 2.28 2.27 -51.7 0 0 134.05 148.28   L 134.09 148.30   A 2.40 2.40 0.0 0 0 137.30 148.18   Q 139.80 145.74 142.03 141.51   C 149.04 128.26 150.64 112.76 145.02 98.99   C 139.10 84.48 125.90 73.68 110.91 70.32   C 73.46 61.93 40.39 96.81 53.83 133.70   Q 57.08 142.61 61.74 147.59   C 65.22 151.30 67.95 145.39 67.84 142.91   Q 67.76 141.30 66.32 139.93   A 0.60 0.60 0.0 0 0 65.31 140.36   L 65.31 142.07   A 0.77 0.77 0.0 0 1 63.91 142.50   Q 57.04 132.31 55.97 120.80   A 0.45 0.45 0.0 0 1 56.46 120.30   C 58.79 120.51 62.53 121.13 64.23 118.71   A 1.20 1.20 0.0 0 0 64.42 117.77   C 63.57 114.04 59.26 114.89 56.52 115.04   A 0.57 0.57 0.0 0 1 55.92 114.44   Q 56.90 100.18 66.19 89.33   A 0.91 0.91 0.0 0 1 67.53 89.28   L 70.48 92.23   A 2.22 2.22 0.0 0 0 73.62 92.23   L 74.14 91.71   A 2.05 2.04 -45.1 0 0 74.14 88.82   L 71.21 85.89   A 0.70 0.70 0.0 0 1 71.25 84.87   Q 81.83 75.68 96.05 74.15   A 0.57 0.56 -2.7 0 1 96.68 74.72   L 96.60 80.22   A 2.31 2.30 87.8 0 0 99.11 82.55   L 99.31 82.53   A 2.64 2.64 0.0 0 0 101.68 79.84   L 101.55 74.78   A 0.71 0.70 1.5 0 1 102.31 74.06   Q 117.25 75.29 128.36 84.69   A 0.45 0.45 0.0 0 1 128.38 85.35   L 125.22 88.37   A 2.64 2.64 0.0 0 0 125.22 92.19   L 125.41 92.37   A 2.45 2.45 0.0 0 0 128.74 92.16   L 131.73 89.00   A 0.83 0.82 45.7 0 1 132.94 89.02   Q 142.51 99.67 143.41 114.41   A 0.51 0.50 -2.1 0 1 142.90 114.95   L 137.47 114.95   A 2.89 2.88 -86.6 0 0 134.61 117.50   L 134.58 117.76   A 2.44 2.44 0.0 0 0 137.06 120.46   L 142.72 120.33" stroke="#d9d8da" vector-effect="non-scaling-stroke"/>
<path class="icon-shape" d="   M 109.08 117.52   C 113.45 125.63 109.61 134.58 100.44 136.89   C 94.83 138.30 91.06 136.28 87.11 132.52   A 1.44 1.37 -21.2 0 0 86.19 132.14   Q 83.79 132.08 82.43 134.29   A 1.03 1.01 45.4 0 0 82.43 135.36   Q 83.92 137.83 86.83 139.51   Q 95.90 144.77 104.78 141.07   C 115.27 136.70 119.85 124.03 112.63 114.65   A 1.94 1.93 48.7 0 1 112.79 112.10   L 122.56 102.33   A 2.11 2.11 0.0 0 0 122.34 99.15   L 122.04 98.91   A 2.96 2.96 0.0 0 0 118.17 99.15   Q 112.15 105.07 108.14 109.52   Q 104.86 113.16 101.15 116.25   Q 96.38 120.21 93.25 122.04   A 0.90 0.89 -26.3 0 1 91.97 121.61   C 89.85 116.47 94.17 111.49 99.04 110.28   Q 99.64 110.13 104.05 110.28   A 1.70 1.66 29.1 0 0 104.97 110.03   Q 106.38 109.13 107.72 106.97   A 0.91 0.90 -61.0 0 0 107.36 105.68   C 96.52 100.21 82.10 111.43 86.75 123.23   C 89.81 131.00 97.58 128.24 101.86 124.05   Q 104.07 121.89 108.01 117.40   A 0.66 0.66 0.0 0 1 109.08 117.52" stroke="#d9d8da" vector-effect="non-scaling-stroke"/>
</g>
<path class="icon-shape" d="   M 195.00 0.00   L 195.00 207.00   L 0.00 207.00   L 0.00 0.00   L 195.00 0.00   Z   M 99.63 60.83   Q 105.02 60.82 106.25 61.00   Q 130.90 64.42 145.38 83.27   C 151.69 91.47 155.80 102.24 156.48 112.22   Q 158.24 138.13 140.22 157.36   A 2.30 2.29 -48.2 0 0 140.40 160.68   L 140.47 160.74   A 2.59 2.58 42.0 0 0 144.03 160.56   C 166.39 137.12 167.79 101.28 146.61 76.87   Q 132.74 60.90 110.56 56.59   Q 106.75 55.85 99.62 55.86   Q 92.49 55.87 88.68 56.61   Q 66.51 60.97 52.67 76.97   C 31.54 101.42 33.02 137.26 55.43 160.65   A 2.59 2.58 -42.1 0 0 58.99 160.82   L 59.06 160.76   A 2.30 2.29 48.1 0 0 59.23 157.44   Q 41.17 138.25 42.88 112.34   C 43.54 102.36 47.62 91.58 53.92 83.36   Q 68.36 64.48 93.00 61.01   Q 94.23 60.84 99.63 60.83   Z   M 142.72 120.33   A 0.60 0.60 0.0 0 1 143.33 120.99   Q 142.16 133.81 133.69 145.17   A 2.28 2.27 -51.7 0 0 134.05 148.28   L 134.09 148.30   A 2.40 2.40 0.0 0 0 137.30 148.18   Q 139.80 145.74 142.03 141.51   C 149.04 128.26 150.64 112.76 145.02 98.99   C 139.10 84.48 125.90 73.68 110.91 70.32   C 73.46 61.93 40.39 96.81 53.83 133.70   Q 57.08 142.61 61.74 147.59   C 65.22 151.30 67.95 145.39 67.84 142.91   Q 67.76 141.30 66.32 139.93   A 0.60 0.60 0.0 0 0 65.31 140.36   L 65.31 142.07   A 0.77 0.77 0.0 0 1 63.91 142.50   Q 57.04 132.31 55.97 120.80   A 0.45 0.45 0.0 0 1 56.46 120.30   C 58.79 120.51 62.53 121.13 64.23 118.71   A 1.20 1.20 0.0 0 0 64.42 117.77   C 63.57 114.04 59.26 114.89 56.52 115.04   A 0.57 0.57 0.0 0 1 55.92 114.44   Q 56.90 100.18 66.19 89.33   A 0.91 0.91 0.0 0 1 67.53 89.28   L 70.48 92.23   A 2.22 2.22 0.0 0 0 73.62 92.23   L 74.14 91.71   A 2.05 2.04 -45.1 0 0 74.14 88.82   L 71.21 85.89   A 0.70 0.70 0.0 0 1 71.25 84.87   Q 81.83 75.68 96.05 74.15   A 0.57 0.56 -2.7 0 1 96.68 74.72   L 96.60 80.22   A 2.31 2.30 87.8 0 0 99.11 82.55   L 99.31 82.53   A 2.64 2.64 0.0 0 0 101.68 79.84   L 101.55 74.78   A 0.71 0.70 1.5 0 1 102.31 74.06   Q 117.25 75.29 128.36 84.69   A 0.45 0.45 0.0 0 1 128.38 85.35   L 125.22 88.37   A 2.64 2.64 0.0 0 0 125.22 92.19   L 125.41 92.37   A 2.45 2.45 0.0 0 0 128.74 92.16   L 131.73 89.00   A 0.83 0.82 45.7 0 1 132.94 89.02   Q 142.51 99.67 143.41 114.41   A 0.51 0.50 -2.1 0 1 142.90 114.95   L 137.47 114.95   A 2.89 2.88 -86.6 0 0 134.61 117.50   L 134.58 117.76   A 2.44 2.44 0.0 0 0 137.06 120.46   L 142.72 120.33   Z   M 109.08 117.52   C 113.45 125.63 109.61 134.58 100.44 136.89   C 94.83 138.30 91.06 136.28 87.11 132.52   A 1.44 1.37 -21.2 0 0 86.19 132.14   Q 83.79 132.08 82.43 134.29   A 1.03 1.01 45.4 0 0 82.43 135.36   Q 83.92 137.83 86.83 139.51   Q 95.90 144.77 104.78 141.07   C 115.27 136.70 119.85 124.03 112.63 114.65   A 1.94 1.93 48.7 0 1 112.79 112.10   L 122.56 102.33   A 2.11 2.11 0.0 0 0 122.34 99.15   L 122.04 98.91   A 2.96 2.96 0.0 0 0 118.17 99.15   Q 112.15 105.07 108.14 109.52   Q 104.86 113.16 101.15 116.25   Q 96.38 120.21 93.25 122.04   A 0.90 0.89 -26.3 0 1 91.97 121.61   C 89.85 116.47 94.17 111.49 99.04 110.28   Q 99.64 110.13 104.05 110.28   A 1.70 1.66 29.1 0 0 104.97 110.03   Q 106.38 109.13 107.72 106.97   A 0.91 0.90 -61.0 0 0 107.36 105.68   C 96.52 100.21 82.10 111.43 86.75 123.23   C 89.81 131.00 97.58 128.24 101.86 124.05   Q 104.07 121.89 108.01 117.40   A 0.66 0.66 0.0 0 1 109.08 117.52   Z" fill="#ffffff"/>
<path class="icon-shape" d="   M 99.62 55.86   Q 106.75 55.85 110.56 56.59   Q 132.74 60.90 146.61 76.87   C 167.79 101.28 166.39 137.12 144.03 160.56   A 2.59 2.58 42.0 0 1 140.47 160.74   L 140.40 160.68   A 2.30 2.29 -48.2 0 1 140.22 157.36   Q 158.24 138.13 156.48 112.22   C 155.80 102.24 151.69 91.47 145.38 83.27   Q 130.90 64.42 106.25 61.00   Q 105.02 60.82 99.63 60.83   Q 94.23 60.84 93.00 61.01   Q 68.36 64.48 53.92 83.36   C 47.62 91.58 43.54 102.36 42.88 112.34   Q 41.17 138.25 59.23 157.44   A 2.30 2.29 48.1 0 1 59.06 160.76   L 58.99 160.82   A 2.59 2.58 -42.1 0 1 55.43 160.65   C 33.02 137.26 31.54 101.42 52.67 76.97   Q 66.51 60.97 88.68 56.61   Q 92.49 55.87 99.62 55.86   Z" fill="#b3b0b4"/>
<path class="icon-shape" d="   M 142.72 120.33   L 137.06 120.46   A 2.44 2.44 0.0 0 1 134.58 117.76   L 134.61 117.50   A 2.89 2.88 -86.6 0 1 137.47 114.95   L 142.90 114.95   A 0.51 0.50 -2.1 0 0 143.41 114.41   Q 142.51 99.67 132.94 89.02   A 0.83 0.82 45.7 0 0 131.73 89.00   L 128.74 92.16   A 2.45 2.45 0.0 0 1 125.41 92.37   L 125.22 92.19   A 2.64 2.64 0.0 0 1 125.22 88.37   L 128.38 85.35   A 0.45 0.45 0.0 0 0 128.36 84.69   Q 117.25 75.29 102.31 74.06   A 0.71 0.70 1.5 0 0 101.55 74.78   L 101.68 79.84   A 2.64 2.64 0.0 0 1 99.31 82.53   L 99.11 82.55   A 2.31 2.30 87.8 0 1 96.60 80.22   L 96.68 74.72   A 0.57 0.56 -2.7 0 0 96.05 74.15   Q 81.83 75.68 71.25 84.87   A 0.70 0.70 0.0 0 0 71.21 85.89   L 74.14 88.82   A 2.05 2.04 -45.1 0 1 74.14 91.71   L 73.62 92.23   A 2.22 2.22 0.0 0 1 70.48 92.23   L 67.53 89.28   A 0.91 0.91 0.0 0 0 66.19 89.33   Q 56.90 100.18 55.92 114.44   A 0.57 0.57 0.0 0 0 56.52 115.04   C 59.26 114.89 63.57 114.04 64.42 117.77   A 1.20 1.20 0.0 0 1 64.23 118.71   C 62.53 121.13 58.79 120.51 56.46 120.30   A 0.45 0.45 0.0 0 0 55.97 120.80   Q 57.04 132.31 63.91 142.50   A 0.77 0.77 0.0 0 0 65.31 142.07   L 65.31 140.36   A 0.60 0.60 0.0 0 1 66.32 139.93   Q 67.76 141.30 67.84 142.91   C 67.95 145.39 65.22 151.30 61.74 147.59   Q 57.08 142.61 53.83 133.70   C 40.39 96.81 73.46 61.93 110.91 70.32   C 125.90 73.68 139.10 84.48 145.02 98.99   C 150.64 112.76 149.04 128.26 142.03 141.51   Q 139.80 145.74 137.30 148.18   A 2.40 2.40 0.0 0 1 134.09 148.30   L 134.05 148.28   A 2.28 2.27 -51.7 0 1 133.69 145.17   Q 142.16 133.81 143.33 120.99   A 0.60 0.60 0.0 0 0 142.72 120.33   Z" fill="#b3b0b4"/>
<path class="icon-shape" d="   M 109.08 117.52   A 0.66 0.66 0.0 0 0 108.01 117.40   Q 104.07 121.89 101.86 124.05   C 97.58 128.24 89.81 131.00 86.75 123.23   C 82.10 111.43 96.52 100.21 107.36 105.68   A 0.91 0.90 -61.0 0 1 107.72 106.97   Q 106.38 109.13 104.97 110.03   A 1.70 1.66 29.1 0 1 104.05 110.28   Q 99.64 110.13 99.04 110.28   C 94.17 111.49 89.85 116.47 91.97 121.61   A 0.90 0.89 -26.3 0 0 93.25 122.04   Q 96.38 120.21 101.15 116.25   Q 104.86 113.16 108.14 109.52   Q 112.15 105.07 118.17 99.15   A 2.96 2.96 0.0 0 1 122.04 98.91   L 122.34 99.15   A 2.11 2.11 0.0 0 1 122.56 102.33   L 112.79 112.10   A 1.94 1.93 48.7 0 0 112.63 114.65   C 119.85 124.03 115.27 136.70 104.78 141.07   Q 95.90 144.77 86.83 139.51   Q 83.92 137.83 82.43 135.36   A 1.03 1.01 45.4 0 1 82.43 134.29   Q 83.79 132.08 86.19 132.14   A 1.44 1.37 -21.2 0 1 87.11 132.52   C 91.06 136.28 94.83 138.30 100.44 136.89   C 109.61 134.58 113.45 125.63 109.08 117.52   Z" fill="#b3b0b4"/>
</g><g id="onState" style="display:none"><g fill="none" stroke-linecap="butt" stroke-width="2.00">
<path class="icon-shape" d="   M 0.00 112.81   C 3.59 146.08 32.14 169.42 65.67 164.21   Q 87.67 160.80 101.12 142.55" stroke="#fef6f6" vector-effect="non-scaling-stroke"/>
<path class="icon-shape" d="   M 101.12 142.55   Q 111.47 139.91 115.08 130.83   Q 118.45 122.34 112.42 114.15   A 0.96 0.96 0.0 0 1 112.49 112.93   L 122.36 102.35   A 2.38 2.37 -46.5 0 0 122.28 99.02   L 122.19 98.93   A 2.75 2.67 44.5 0 0 118.45 98.91   L 113.00 104.17" stroke="#808080" vector-effect="non-scaling-stroke"/>
<path class="icon-shape" d="   M 113.00 104.17   C 111.97 94.99 108.49 82.15 101.79 75.45" stroke="#fef6f6" vector-effect="non-scaling-stroke"/>
<path class="icon-shape" d="   M 101.79 75.45   Q 101.57 74.89 101.69 74.52   Q 101.83 74.13 102.44 74.18   Q 116.90 75.29 128.07 84.53   A 0.61 0.61 0.0 0 1 128.13 85.41   L 124.55 89.25   A 1.01 0.98 -25.9 0 0 124.28 90.00   Q 124.38 91.50 124.86 92.05   A 2.65 2.62 48.7 0 0 128.60 92.32   Q 130.39 90.74 131.83 88.97   A 0.54 0.53 -47.7 0 1 132.63 88.93   Q 141.82 98.29 143.42 114.01   A 0.84 0.83 87.2 0 1 142.59 114.93   Q 139.51 114.95 138.31 114.91   C 134.76 114.80 132.53 118.45 136.31 120.47   A 1.28 1.28 0.0 0 0 136.95 120.62   L 142.79 120.43   A 0.50 0.49 -88.5 0 1 143.30 120.97   Q 142.29 131.57 136.79 140.32   Q 133.50 145.55 133.36 145.86   Q 132.75 147.14 133.59 148.01   A 2.75 2.51 47.3 0 0 137.17 148.32   Q 138.50 147.19 139.68 145.43   C 149.93 130.16 151.64 110.06 142.61 93.94   C 133.17 77.12 115.54 68.05 96.15 68.99" stroke="#808080" vector-effect="non-scaling-stroke"/>
<path class="icon-shape" d="   M 96.15 68.99   L 89.23 61.71" stroke="#fef6f6" vector-effect="non-scaling-stroke"/>
<path class="icon-shape" d="   M 89.23 61.71   Q 101.60 59.66 111.99 62.02   C 131.06 66.36 147.26 79.91 153.59 98.77   C 160.64 119.76 155.14 141.27 140.15 157.44   A 2.22 2.22 0.0 0 0 140.47 160.74   L 140.55 160.80   A 2.83 2.83 0.0 0 0 144.29 160.44   C 170.53 132.23 166.91 88.85 135.18 66.62   C 119.62 55.71 99.65 53.07 81.39 58.25" stroke="#808080" vector-effect="non-scaling-stroke"/>
<path class="icon-shape" d="   M 81.39 58.25   Q 78.26 56.07 74.55 54.93   C 38.35 43.86 4.04 66.90 0.00 104.29" stroke="#fef6f6" vector-effect="non-scaling-stroke"/>
<path class="icon-shape" d="   M 81.39 58.25   C 58.31 65.74 41.95 84.21 38.28 108.02   C 35.37 126.93 41.92 146.86 55.51 160.77   A 2.57 2.56 47.0 0 0 59.04 160.90   L 59.13 160.82   A 2.38 2.38 0.0 0 0 59.27 157.39   C 36.29 133.20 37.07 95.35 63.24 73.73   Q 74.61 64.34 89.23 61.71" stroke="#7f7777" vector-effect="non-scaling-stroke"/>
<path class="icon-shape" d="   M 96.15 68.99   Q 72.57 71.50 59.70 89.40   C 47.37 106.56 48.05 129.81 60.72 146.50   C 61.49 147.52 62.32 148.74 63.62 148.84   A 3.54 2.98 -73.4 0 0 66.70 146.81   Q 67.15 145.89 67.82 143.80   A 2.80 2.53 58.8 0 0 67.96 143.07   Q 68.04 141.59 66.25 139.80   A 0.58 0.58 0.0 0 0 65.26 140.21   L 65.26 142.05   A 0.70 0.70 0.0 0 1 63.99 142.45   Q 57.23 132.72 55.98 120.80   A 0.40 0.40 0.0 0 1 56.42 120.36   C 59.03 120.64 62.85 121.19 64.39 118.48   A 1.19 1.17 49.4 0 0 64.46 117.48   C 62.99 113.74 59.55 115.24 56.55 114.95   A 0.65 0.65 0.0 0 1 55.96 114.25   Q 57.10 99.72 66.37 89.30   A 0.67 0.67 0.0 0 1 67.32 89.25   L 70.49 92.21   A 2.42 2.42 0.0 0 0 73.91 92.09   L 74.20 91.78   A 2.24 2.24 0.0 0 0 74.09 88.61   L 71.20 85.91   A 0.65 0.65 0.0 0 1 71.22 84.95   Q 82.02 75.66 95.94 74.25   A 0.64 0.64 0.0 0 1 96.64 74.91   Q 96.47 78.28 96.58 80.26   A 2.58 2.42 80.5 0 0 99.70 82.64   Q 100.63 82.37 101.56 80.89   A 1.48 1.44 61.9 0 0 101.77 80.17   L 101.79 75.45" stroke="#7f7777" vector-effect="non-scaling-stroke"/>
<path class="icon-shape" d="   M 113.00 104.17   L 108.26 109.25" stroke="#7f7777" vector-effect="non-scaling-stroke"/>
<path class="icon-shape" d="   M 108.26 109.25   L 106.75 108.46" stroke="#fef6f6" vector-effect="non-scaling-stroke"/>
<path class="icon-shape" d="   M 106.75 108.46   Q 107.56 107.60 107.87 106.81   A 0.95 0.95 0.0 0 0 107.41 105.60   C 96.81 100.38 83.39 110.23 86.32 122.04   Q 88.27 129.88 96.49 127.62   A 2.89 2.57 -65.1 0 0 97.18 127.32   Q 101.58 124.68 102.45 123.68   Q 105.92 119.70 108.05 117.53   A 0.69 0.68 54.3 0 1 109.16 117.72   C 113.03 125.72 109.75 134.01 101.25 136.68   Q 93.59 139.09 87.34 132.64   A 1.94 1.91 68.1 0 0 85.98 132.05   Q 83.97 132.02 82.32 134.32   A 0.96 0.96 0.0 0 0 82.32 135.44   C 86.40 141.21 94.06 143.21 101.12 142.55" stroke="#7f7777" vector-effect="non-scaling-stroke"/>
<path class="icon-shape" d="   M 106.75 108.46   Q 105.90 109.52 104.74 110.18   A 1.52 1.50 33.9 0 1 103.75 110.37   Q 94.65 109.07 91.63 117.27   Q 90.73 119.68 92.45 122.00   A 0.42 0.41 54.4 0 0 93.01 122.10   L 97.86 118.99   A 5.16 4.92 5.8 0 0 98.62 118.40   L 108.26 109.25" stroke="#808080" vector-effect="non-scaling-stroke"/>
</g>
<path class="icon-shape" d="   M 195.00 0.00   L 195.00 207.00   L 0.00 207.00   L 0.00 112.81   C 3.59 146.08 32.14 169.42 65.67 164.21   Q 87.67 160.80 101.12 142.55   Q 111.47 139.91 115.08 130.83   Q 118.45 122.34 112.42 114.15   A 0.96 0.96 0.0 0 1 112.49 112.93   L 122.36 102.35   A 2.38 2.37 -46.5 0 0 122.28 99.02   L 122.19 98.93   A 2.75 2.67 44.5 0 0 118.45 98.91   L 113.00 104.17   C 111.97 94.99 108.49 82.15 101.79 75.45   Q 101.57 74.89 101.69 74.52   Q 101.83 74.13 102.44 74.18   Q 116.90 75.29 128.07 84.53   A 0.61 0.61 0.0 0 1 128.13 85.41   L 124.55 89.25   A 1.01 0.98 -25.9 0 0 124.28 90.00   Q 124.38 91.50 124.86 92.05   A 2.65 2.62 48.7 0 0 128.60 92.32   Q 130.39 90.74 131.83 88.97   A 0.54 0.53 -47.7 0 1 132.63 88.93   Q 141.82 98.29 143.42 114.01   A 0.84 0.83 87.2 0 1 142.59 114.93   Q 139.51 114.95 138.31 114.91   C 134.76 114.80 132.53 118.45 136.31 120.47   A 1.28 1.28 0.0 0 0 136.95 120.62   L 142.79 120.43   A 0.50 0.49 -88.5 0 1 143.30 120.97   Q 142.29 131.57 136.79 140.32   Q 133.50 145.55 133.36 145.86   Q 132.75 147.14 133.59 148.01   A 2.75 2.51 47.3 0 0 137.17 148.32   Q 138.50 147.19 139.68 145.43   C 149.93 130.16 151.64 110.06 142.61 93.94   C 133.17 77.12 115.54 68.05 96.15 68.99   L 89.23 61.71   Q 101.60 59.66 111.99 62.02   C 131.06 66.36 147.26 79.91 153.59 98.77   C 160.64 119.76 155.14 141.27 140.15 157.44   A 2.22 2.22 0.0 0 0 140.47 160.74   L 140.55 160.80   A 2.83 2.83 0.0 0 0 144.29 160.44   C 170.53 132.23 166.91 88.85 135.18 66.62   C 119.62 55.71 99.65 53.07 81.39 58.25   Q 78.26 56.07 74.55 54.93   C 38.35 43.86 4.04 66.90 0.00 104.29   L 0.00 0.00   L 195.00 0.00   Z" fill="#ffffff"/>
<path class="icon-shape" d="   M 81.39 58.25   C 58.31 65.74 41.95 84.21 38.28 108.02   C 35.37 126.93 41.92 146.86 55.51 160.77   A 2.57 2.56 47.0 0 0 59.04 160.90   L 59.13 160.82   A 2.38 2.38 0.0 0 0 59.27 157.39   C 36.29 133.20 37.07 95.35 63.24 73.73   Q 74.61 64.34 89.23 61.71   L 96.15 68.99   Q 72.57 71.50 59.70 89.40   C 47.37 106.56 48.05 129.81 60.72 146.50   C 61.49 147.52 62.32 148.74 63.62 148.84   A 3.54 2.98 -73.4 0 0 66.70 146.81   Q 67.15 145.89 67.82 143.80   A 2.80 2.53 58.8 0 0 67.96 143.07   Q 68.04 141.59 66.25 139.80   A 0.58 0.58 0.0 0 0 65.26 140.21   L 65.26 142.05   A 0.70 0.70 0.0 0 1 63.99 142.45   Q 57.23 132.72 55.98 120.80   A 0.40 0.40 0.0 0 1 56.42 120.36   C 59.03 120.64 62.85 121.19 64.39 118.48   A 1.19 1.17 49.4 0 0 64.46 117.48   C 62.99 113.74 59.55 115.24 56.55 114.95   A 0.65 0.65 0.0 0 1 55.96 114.25   Q 57.10 99.72 66.37 89.30   A 0.67 0.67 0.0 0 1 67.32 89.25   L 70.49 92.21   A 2.42 2.42 0.0 0 0 73.91 92.09   L 74.20 91.78   A 2.24 2.24 0.0 0 0 74.09 88.61   L 71.20 85.91   A 0.65 0.65 0.0 0 1 71.22 84.95   Q 82.02 75.66 95.94 74.25   A 0.64 0.64 0.0 0 1 96.64 74.91   Q 96.47 78.28 96.58 80.26   A 2.58 2.42 80.5 0 0 99.70 82.64   Q 100.63 82.37 101.56 80.89   A 1.48 1.44 61.9 0 0 101.77 80.17   L 101.79 75.45   C 108.49 82.15 111.97 94.99 113.00 104.17   L 108.26 109.25   L 106.75 108.46   Q 107.56 107.60 107.87 106.81   A 0.95 0.95 0.0 0 0 107.41 105.60   C 96.81 100.38 83.39 110.23 86.32 122.04   Q 88.27 129.88 96.49 127.62   A 2.89 2.57 -65.1 0 0 97.18 127.32   Q 101.58 124.68 102.45 123.68   Q 105.92 119.70 108.05 117.53   A 0.69 0.68 54.3 0 1 109.16 117.72   C 113.03 125.72 109.75 134.01 101.25 136.68   Q 93.59 139.09 87.34 132.64   A 1.94 1.91 68.1 0 0 85.98 132.05   Q 83.97 132.02 82.32 134.32   A 0.96 0.96 0.0 0 0 82.32 135.44   C 86.40 141.21 94.06 143.21 101.12 142.55   Q 87.67 160.80 65.67 164.21   C 32.14 169.42 3.59 146.08 0.00 112.81   L 0.00 104.29   C 4.04 66.90 38.35 43.86 74.55 54.93   Q 78.26 56.07 81.39 58.25   Z" fill="#fdedec"/>
<path class="icon-shape" d="   M 89.23 61.71   Q 74.61 64.34 63.24 73.73   C 37.07 95.35 36.29 133.20 59.27 157.39   A 2.38 2.38 0.0 0 1 59.13 160.82   L 59.04 160.90   A 2.57 2.56 47.0 0 1 55.51 160.77   C 41.92 146.86 35.37 126.93 38.28 108.02   C 41.95 84.21 58.31 65.74 81.39 58.25   C 99.65 53.07 119.62 55.71 135.18 66.62   C 166.91 88.85 170.53 132.23 144.29 160.44   A 2.83 2.83 0.0 0 1 140.55 160.80   L 140.47 160.74   A 2.22 2.22 0.0 0 1 140.15 157.44   C 155.14 141.27 160.64 119.76 153.59 98.77   C 147.26 79.91 131.06 66.36 111.99 62.02   Q 101.60 59.66 89.23 61.71   Z" fill="#010101"/>
<path class="icon-shape" d="   M 96.15 68.99   C 115.54 68.05 133.17 77.12 142.61 93.94   C 151.64 110.06 149.93 130.16 139.68 145.43   Q 138.50 147.19 137.17 148.32   A 2.75 2.51 47.3 0 1 133.59 148.01   Q 132.75 147.14 133.36 145.86   Q 133.50 145.55 136.79 140.32   Q 142.29 131.57 143.30 120.97   A 0.50 0.49 -88.5 0 0 142.79 120.43   L 136.95 120.62   A 1.28 1.28 0.0 0 1 136.31 120.47   C 132.53 118.45 134.76 114.80 138.31 114.91   Q 139.51 114.95 142.59 114.93   A 0.84 0.83 87.2 0 0 143.42 114.01   Q 141.82 98.29 132.63 88.93   A 0.54 0.53 -47.7 0 0 131.83 88.97   Q 130.39 90.74 128.60 92.32   A 2.65 2.62 48.7 0 1 124.86 92.05   Q 124.38 91.50 124.28 90.00   A 1.01 0.98 -25.9 0 1 124.55 89.25   L 128.13 85.41   A 0.61 0.61 0.0 0 0 128.07 84.53   Q 116.90 75.29 102.44 74.18   Q 101.83 74.13 101.69 74.52   Q 101.57 74.89 101.79 75.45   L 101.77 80.17   A 1.48 1.44 61.9 0 1 101.56 80.89   Q 100.63 82.37 99.70 82.64   A 2.58 2.42 80.5 0 1 96.58 80.26   Q 96.47 78.28 96.64 74.91   A 0.64 0.64 0.0 0 0 95.94 74.25   Q 82.02 75.66 71.22 84.95   A 0.65 0.65 0.0 0 0 71.20 85.91   L 74.09 88.61   A 2.24 2.24 0.0 0 1 74.20 91.78   L 73.91 92.09   A 2.42 2.42 0.0 0 1 70.49 92.21   L 67.32 89.25   A 0.67 0.67 0.0 0 0 66.37 89.30   Q 57.10 99.72 55.96 114.25   A 0.65 0.65 0.0 0 0 56.55 114.95   C 59.55 115.24 62.99 113.74 64.46 117.48   A 1.19 1.17 49.4 0 1 64.39 118.48   C 62.85 121.19 59.03 120.64 56.42 120.36   A 0.40 0.40 0.0 0 0 55.98 120.80   Q 57.23 132.72 63.99 142.45   A 0.70 0.70 0.0 0 0 65.26 142.05   L 65.26 140.21   A 0.58 0.58 0.0 0 1 66.25 139.80   Q 68.04 141.59 67.96 143.07   A 2.80 2.53 58.8 0 1 67.82 143.80   Q 67.15 145.89 66.70 146.81   A 3.54 2.98 -73.4 0 1 63.62 148.84   C 62.32 148.74 61.49 147.52 60.72 146.50   C 48.05 129.81 47.37 106.56 59.70 89.40   Q 72.57 71.50 96.15 68.99   Z" fill="#010101"/>
<path class="icon-shape" d="   M 101.12 142.55   C 94.06 143.21 86.40 141.21 82.32 135.44   A 0.96 0.96 0.0 0 1 82.32 134.32   Q 83.97 132.02 85.98 132.05   A 1.94 1.91 68.1 0 1 87.34 132.64   Q 93.59 139.09 101.25 136.68   C 109.75 134.01 113.03 125.72 109.16 117.72   A 0.69 0.68 54.3 0 0 108.05 117.53   Q 105.92 119.70 102.45 123.68   Q 101.58 124.68 97.18 127.32   A 2.89 2.57 -65.1 0 1 96.49 127.62   Q 88.27 129.88 86.32 122.04   C 83.39 110.23 96.81 100.38 107.41 105.60   A 0.95 0.95 0.0 0 1 107.87 106.81   Q 107.56 107.60 106.75 108.46   Q 105.90 109.52 104.74 110.18   A 1.52 1.50 33.9 0 1 103.75 110.37   Q 94.65 109.07 91.63 117.27   Q 90.73 119.68 92.45 122.00   A 0.42 0.41 54.4 0 0 93.01 122.10   L 97.86 118.99   A 5.16 4.92 5.8 0 0 98.62 118.40   L 108.26 109.25   L 113.00 104.17   L 118.45 98.91   A 2.75 2.67 44.5 0 1 122.19 98.93   L 122.28 99.02   A 2.38 2.37 -46.5 0 1 122.36 102.35   L 112.49 112.93   A 0.96 0.96 0.0 0 0 112.42 114.15   Q 118.45 122.34 115.08 130.83   Q 111.47 139.91 101.12 142.55   Z" fill="#010101"/>
<path class="icon-shape" d="   M 106.75 108.46   L 108.26 109.25   L 98.62 118.40   A 5.16 4.92 5.8 0 1 97.86 118.99   L 93.01 122.10   A 0.42 0.41 54.4 0 1 92.45 122.00   Q 90.73 119.68 91.63 117.27   Q 94.65 109.07 103.75 110.37   A 1.52 1.50 33.9 0 0 104.74 110.18   Q 105.90 109.52 106.75 108.46   Z" fill="#ffffff"/>
</g></svg>