<?xml version="1.0" encoding="UTF-8" standalone="no"?>
<!DOCTYPE svg PUBLIC "-//W3C//DTD SVG 1.1//EN" "http://www.w3.org/Graphics/SVG/1.1/DTD/svg11.dtd">
<svg xmlns="http://www.w3.org/2000/svg" version="1.1" viewBox="0.00 0.00 195.00 204.00">
<g stroke-width="2.00" fill="none" stroke-linecap="butt">
<path stroke="#fef6f6" vector-effect="non-scaling-stroke" d="
  M 0.00 83.82
  Q 3.05 111.41 24.99 126.50
  C 30.17 130.07 38.54 134.07 45.53 134.47"
/>
<path stroke="#808080" vector-effect="non-scaling-stroke" d="
  M 45.53 134.47
  Q 47.74 141.37 53.72 145.10
  A 0.99 0.99 0.0 0 1 54.20 145.95
  L 54.15 155.57
  A 1.51 1.39 42.6 0 0 54.17 155.81
  Q 55.47 162.71 61.11 165.70
  Q 64.20 167.33 71.62 167.17
  Q 82.06 166.94 121.49 167.15
  Q 128.03 167.19 130.79 165.75
  C 135.15 163.47 137.99 158.86 137.81 153.74
  Q 137.72 150.99 137.81 149.74
  A 0.76 0.75 -4.8 0 1 138.39 149.06
  Q 145.46 147.32 148.43 141.52
  C 150.88 136.73 150.15 130.67 146.71 126.52
  Q 142.10 120.93 134.50 120.93
  Q 115.59 120.93 96.03 120.91"
/>
<path stroke="#fef6f6" vector-effect="non-scaling-stroke" d="
  M 96.03 120.91
  Q 98.62 117.29 101.18 113.84
  Q 104.54 109.31 106.03 106.58
  Q 114.90 90.33 112.29 71.60"
/>
<path stroke="#808080" vector-effect="non-scaling-stroke" d="
  M 112.29 71.60
  C 135.11 74.70 148.61 90.57 152.03 112.52
  A 0.63 0.63 0.0 0 1 151.04 113.13
  L 143.60 107.73
  A 2.34 2.33 34.6 0 0 140.28 108.33
  L 140.13 108.55
  A 2.55 2.54 -57.6 0 0 140.91 112.06
  Q 147.60 116.73 151.49 119.55
  Q 154.70 121.87 157.71 119.21
  Q 163.55 114.06 166.95 111.16
  A 2.04 2.04 0.0 0 0 166.93 108.04
  L 166.83 107.96
  A 2.85 2.85 0.0 0 0 163.13 107.92
  L 157.46 112.67
  A 0.41 0.40 -23.1 0 1 156.80 112.41
  C 154.56 91.38 141.87 74.42 121.22 68.29
  Q 118.13 67.37 111.54 66.30"
/>
<path stroke="#fef6f6" vector-effect="non-scaling-stroke" d="
  M 111.54 66.30
  L 108.68 58.26"
/>
<path stroke="#808080" vector-effect="non-scaling-stroke" d="
  M 108.68 58.26
  Q 110.01 57.20 110.58 55.72
  A 1.16 1.15 43.4 0 0 110.55 54.79
  Q 109.34 52.24 106.69 53.31"
/>
<path stroke="#fef6f6" vector-effect="non-scaling-stroke" d="
  M 106.69 53.31
  C 78.91 3.41 5.83 18.52 0.00 75.30"
/>
<path stroke="#7f7777" vector-effect="non-scaling-stroke" d="
  M 106.69 53.31
  Q 100.49 59.43 94.03 65.56
  C 92.27 67.22 91.07 68.62 92.64 70.88
  Q 94.15 73.06 106.51 84.17
  A 2.13 2.13 0.0 0 0 109.44 84.09
  L 109.93 83.60
  A 1.93 1.92 45.1 0 0 109.93 80.87
  L 100.92 71.86
  A 0.55 0.55 0.0 0 1 101.34 70.93
  L 112.29 71.60"
/>
<path stroke="#7f7777" vector-effect="non-scaling-stroke" d="
  M 96.03 120.91
  L 78.50 120.81
  A 0.57 0.57 0.0 0 1 77.94 120.33
  Q 73.58 95.09 70.14 75.40
  Q 68.80 67.77 63.67 64.28
  A 0.53 0.53 0.0 0 1 63.59 63.47
  Q 66.10 60.95 67.09 57.31
  A 4.42 4.14 54.4 0 0 67.24 56.18
  Q 67.20 47.92 67.29 44.24
  Q 67.43 38.64 66.06 36.63
  Q 63.73 33.20 59.76 31.99
  A 3.31 3.16 -35.7 0 0 58.75 31.85
  Q 58.24 31.85 48.07 31.76
  Q 43.22 31.72 41.14 32.88
  C 36.66 35.39 35.08 40.11 35.67 45.51
  Q 38.85 74.20 43.31 112.72
  Q 43.95 118.23 44.21 124.46
  C 44.36 127.96 44.96 131.13 45.53 134.47"
/>
<path stroke="#808080" vector-effect="non-scaling-stroke" d="
  M 42.87 61.36
  L 56.26 61.36
  A 2.41 2.29 37.0 0 0 56.79 61.30
  Q 62.22 60.00 62.29 54.19
  Q 62.40 44.29 62.29 41.99
  C 62.10 37.92 59.38 36.86 55.62 36.88
  Q 52.74 36.89 45.53 36.96
  Q 43.09 36.98 41.03 40.45
  A 2.79 2.76 58.2 0 0 40.65 42.12
  L 42.37 60.91
  A 0.51 0.50 86.8 0 0 42.87 61.36"
/>
<path stroke="#808080" vector-effect="non-scaling-stroke" d="
  M 51.36 134.58
  Q 51.79 127.08 57.62 123.03
  C 62.01 119.99 66.63 119.87 71.54 120.89
  A 1.01 1.00 1.0 0 0 72.74 119.74
  Q 72.41 117.75 64.94 75.33
  Q 63.85 69.10 57.51 66.70
  A 3.44 3.25 -35.3 0 0 56.11 66.50
  Q 54.44 66.64 43.60 66.57
  Q 43.01 66.56 42.92 66.80
  C 42.80 67.11 43.27 67.90 43.34 68.54
  Q 45.27 84.56 48.45 114.00
  Q 49.37 122.42 49.80 130.68
  Q 49.92 132.99 50.93 134.69
  A 0.23 0.23 0.0 0 0 51.36 134.58"
/>
<path stroke="#808080" vector-effect="non-scaling-stroke" d="
  M 75.6900 133.7923
  A 9.61 9.42 -7.4 0 0 64.9467 125.6885
  A 9.61 9.42 -7.4 0 0 56.6300 136.2677
  A 9.61 9.42 -7.4 0 0 67.3733 144.3715
  A 9.61 9.42 -7.4 0 0 75.6900 133.7923"
/>
<path stroke="#808080" vector-effect="non-scaling-stroke" d="
  M 81.08 135.14
  Q 81.08 139.56 78.34 143.77
  A 0.31 0.30 -73.4 0 0 78.59 144.24
  Q 120.21 144.19 132.94 144.28
  C 139.04 144.33 144.72 142.11 144.73 135.22
  C 144.74 128.32 139.06 126.09 132.96 126.12
  Q 120.23 126.19 78.61 126.03
  A 0.31 0.30 73.6 0 0 78.36 126.51
  Q 81.09 130.72 81.08 135.14"
/>
<path stroke="#808080" vector-effect="non-scaling-stroke" d="
  M 58.90 148.76
  C 59.57 154.24 58.16 159.47 64.93 161.65
  A 3.86 3.56 -34.1 0 0 66.05 161.82
  Q 114.89 161.82 125.20 161.83
  Q 129.87 161.83 132.05 157.01
  Q 132.66 155.65 132.42 149.92
  A 0.49 0.49 0.0 0 0 131.93 149.44
  L 63.14 149.44
  A 5.40 5.17 -33.3 0 1 61.24 149.09
  L 59.40 148.38
  A 0.37 0.36 7.4 0 0 58.90 148.76"
/>
<path stroke="#7f7777" vector-effect="non-scaling-stroke" d="
  M 108.68 58.26
  L 101.45 65.33
  A 0.45 0.45 0.0 0 0 101.75 66.10
  L 111.54 66.30"
/>
</g>
<path fill="#ffffff" d="
  M 195.00 0.00
  L 195.00 204.00
  L 0.00 204.00
  L 0.00 83.82
  Q 3.05 111.41 24.99 126.50
  C 30.17 130.07 38.54 134.07 45.53 134.47
  Q 47.74 141.37 53.72 145.10
  A 0.99 0.99 0.0 0 1 54.20 145.95
  L 54.15 155.57
  A 1.51 1.39 42.6 0 0 54.17 155.81
  Q 55.47 162.71 61.11 165.70
  Q 64.20 167.33 71.62 167.17
  Q 82.06 166.94 121.49 167.15
  Q 128.03 167.19 130.79 165.75
  C 135.15 163.47 137.99 158.86 137.81 153.74
  Q 137.72 150.99 137.81 149.74
  A 0.76 0.75 -4.8 0 1 138.39 149.06
  Q 145.46 147.32 148.43 141.52
  C 150.88 136.73 150.15 130.67 146.71 126.52
  Q 142.10 120.93 134.50 120.93
  Q 115.59 120.93 96.03 120.91
  Q 98.62 117.29 101.18 113.84
  Q 104.54 109.31 106.03 106.58
  Q 114.90 90.33 112.29 71.60
  C 135.11 74.70 148.61 90.57 152.03 112.52
  A 0.63 0.63 0.0 0 1 151.04 113.13
  L 143.60 107.73
  A 2.34 2.33 34.6 0 0 140.28 108.33
  L 140.13 108.55
  A 2.55 2.54 -57.6 0 0 140.91 112.06
  Q 147.60 116.73 151.49 119.55
  Q 154.70 121.87 157.71 119.21
  Q 163.55 114.06 166.95 111.16
  A 2.04 2.04 0.0 0 0 166.93 108.04
  L 166.83 107.96
  A 2.85 2.85 0.0 0 0 163.13 107.92
  L 157.46 112.67
  A 0.41 0.40 -23.1 0 1 156.80 112.41
  C 154.56 91.38 141.87 74.42 121.22 68.29
  Q 118.13 67.37 111.54 66.30
  L 108.68 58.26
  Q 110.01 57.20 110.58 55.72
  A 1.16 1.15 43.4 0 0 110.55 54.79
  Q 109.34 52.24 106.69 53.31
  C 78.91 3.41 5.83 18.52 0.00 75.30
  L 0.00 0.00
  L 195.00 0.00
  Z"
/>
<path fill="#fdedec" d="
  M 106.69 53.31
  Q 100.49 59.43 94.03 65.56
  C 92.27 67.22 91.07 68.62 92.64 70.88
  Q 94.15 73.06 106.51 84.17
  A 2.13 2.13 0.0 0 0 109.44 84.09
  L 109.93 83.60
  A 1.93 1.92 45.1 0 0 109.93 80.87
  L 100.92 71.86
  A 0.55 0.55 0.0 0 1 101.34 70.93
  L 112.29 71.60
  Q 114.90 90.33 106.03 106.58
  Q 104.54 109.31 101.18 113.84
  Q 98.62 117.29 96.03 120.91
  L 78.50 120.81
  A 0.57 0.57 0.0 0 1 77.94 120.33
  Q 73.58 95.09 70.14 75.40
  Q 68.80 67.77 63.67 64.28
  A 0.53 0.53 0.0 0 1 63.59 63.47
  Q 66.10 60.95 67.09 57.31
  A 4.42 4.14 54.4 0 0 67.24 56.18
  Q 67.20 47.92 67.29 44.24
  Q 67.43 38.64 66.06 36.63
  Q 63.73 33.20 59.76 31.99
  A 3.31 3.16 -35.7 0 0 58.75 31.85
  Q 58.24 31.85 48.07 31.76
  Q 43.22 31.72 41.14 32.88
  C 36.66 35.39 35.08 40.11 35.67 45.51
  Q 38.85 74.20 43.31 112.72
  Q 43.95 118.23 44.21 124.46
  C 44.36 127.96 44.96 131.13 45.53 134.47
  C 38.54 134.07 30.17 130.07 24.99 126.50
  Q 3.05 111.41 0.00 83.82
  L 0.00 75.30
  C 5.83 18.52 78.91 3.41 106.69 53.31
  Z"
/>
<path fill="#010101" d="
  M 96.03 120.91
  Q 115.59 120.93 134.50 120.93
  Q 142.10 120.93 146.71 126.52
  C 150.15 130.67 150.88 136.73 148.43 141.52
  Q 145.46 147.32 138.39 149.06
  A 0.76 0.75 -4.8 0 0 137.81 149.74
  Q 137.72 150.99 137.81 153.74
  C 137.99 158.86 135.15 163.47 130.79 165.75
  Q 128.03 167.19 121.49 167.15
  Q 82.06 166.94 71.62 167.17
  Q 64.20 167.33 61.11 165.70
  Q 55.47 162.71 54.17 155.81
  A 1.51 1.39 42.6 0 1 54.15 155.57
  L 54.20 145.95
  A 0.99 0.99 0.0 0 0 53.72 145.10
  Q 47.74 141.37 45.53 134.47
  C 44.96 131.13 44.36 127.96 44.21 124.46
  Q 43.95 118.23 43.31 112.72
  Q 38.85 74.20 35.67 45.51
  C 35.08 40.11 36.66 35.39 41.14 32.88
  Q 43.22 31.72 48.07 31.76
  Q 58.24 31.85 58.75 31.85
  A 3.31 3.16 -35.7 0 1 59.76 31.99
  Q 63.73 33.20 66.06 36.63
  Q 67.43 38.64 67.29 44.24
  Q 67.20 47.92 67.24 56.18
  A 4.42 4.14 54.4 0 1 67.09 57.31
  Q 66.10 60.95 63.59 63.47
  A 0.53 0.53 0.0 0 0 63.67 64.28
  Q 68.80 67.77 70.14 75.40
  Q 73.58 95.09 77.94 120.33
  A 0.57 0.57 0.0 0 0 78.50 120.81
  L 96.03 120.91
  Z
  M 42.87 61.36
  L 56.26 61.36
  A 2.41 2.29 37.0 0 0 56.79 61.30
  Q 62.22 60.00 62.29 54.19
  Q 62.40 44.29 62.29 41.99
  C 62.10 37.92 59.38 36.86 55.62 36.88
  Q 52.74 36.89 45.53 36.96
  Q 43.09 36.98 41.03 40.45
  A 2.79 2.76 58.2 0 0 40.65 42.12
  L 42.37 60.91
  A 0.51 0.50 86.8 0 0 42.87 61.36
  Z
  M 51.36 134.58
  Q 51.79 127.08 57.62 123.03
  C 62.01 119.99 66.63 119.87 71.54 120.89
  A 1.01 1.00 1.0 0 0 72.74 119.74
  Q 72.41 117.75 64.94 75.33
  Q 63.85 69.10 57.51 66.70
  A 3.44 3.25 -35.3 0 0 56.11 66.50
  Q 54.44 66.64 43.60 66.57
  Q 43.01 66.56 42.92 66.80
  C 42.80 67.11 43.27 67.90 43.34 68.54
  Q 45.27 84.56 48.45 114.00
  Q 49.37 122.42 49.80 130.68
  Q 49.92 132.99 50.93 134.69
  A 0.23 0.23 0.0 0 0 51.36 134.58
  Z
  M 75.6900 133.7923
  A 9.61 9.42 -7.4 0 0 64.9467 125.6885
  A 9.61 9.42 -7.4 0 0 56.6300 136.2677
  A 9.61 9.42 -7.4 0 0 67.3733 144.3715
  A 9.61 9.42 -7.4 0 0 75.6900 133.7923
  Z
  M 81.08 135.14
  Q 81.08 139.56 78.34 143.77
  A 0.31 0.30 -73.4 0 0 78.59 144.24
  Q 120.21 144.19 132.94 144.28
  C 139.04 144.33 144.72 142.11 144.73 135.22
  C 144.74 128.32 139.06 126.09 132.96 126.12
  Q 120.23 126.19 78.61 126.03
  A 0.31 0.30 73.6 0 0 78.36 126.51
  Q 81.09 130.72 81.08 135.14
  Z
  M 58.90 148.76
  C 59.57 154.24 58.16 159.47 64.93 161.65
  A 3.86 3.56 -34.1 0 0 66.05 161.82
  Q 114.89 161.82 125.20 161.83
  Q 129.87 161.83 132.05 157.01
  Q 132.66 155.65 132.42 149.92
  A 0.49 0.49 0.0 0 0 131.93 149.44
  L 63.14 149.44
  A 5.40 5.17 -33.3 0 1 61.24 149.09
  L 59.40 148.38
  A 0.37 0.36 7.4 0 0 58.90 148.76
  Z"
/>
<path fill="#ffffff" d="
  M 42.37 60.91
  L 40.65 42.12
  A 2.79 2.76 58.2 0 1 41.03 40.45
  Q 43.09 36.98 45.53 36.96
  Q 52.74 36.89 55.62 36.88
  C 59.38 36.86 62.10 37.92 62.29 41.99
  Q 62.40 44.29 62.29 54.19
  Q 62.22 60.00 56.79 61.30
  A 2.41 2.29 37.0 0 1 56.26 61.36
  L 42.87 61.36
  A 0.51 0.50 86.8 0 1 42.37 60.91
  Z"
/>
<path fill="#010101" d="
  M 108.68 58.26
  L 101.45 65.33
  A 0.45 0.45 0.0 0 0 101.75 66.10
  L 111.54 66.30
  Q 118.13 67.37 121.22 68.29
  C 141.87 74.42 154.56 91.38 156.80 112.41
  A 0.41 0.40 -23.1 0 0 157.46 112.67
  L 163.13 107.92
  A 2.85 2.85 0.0 0 1 166.83 107.96
  L 166.93 108.04
  A 2.04 2.04 0.0 0 1 166.95 111.16
  Q 163.55 114.06 157.71 119.21
  Q 154.70 121.87 151.49 119.55
  Q 147.60 116.73 140.91 112.06
  A 2.55 2.54 -57.6 0 1 140.13 108.55
  L 140.28 108.33
  A 2.34 2.33 34.6 0 1 143.60 107.73
  L 151.04 113.13
  A 0.63 0.63 0.0 0 0 152.03 112.52
  C 148.61 90.57 135.11 74.70 112.29 71.60
  L 101.34 70.93
  A 0.55 0.55 0.0 0 0 100.92 71.86
  L 109.93 80.87
  A 1.93 1.92 45.1 0 1 109.93 83.60
  L 109.44 84.09
  A 2.13 2.13 0.0 0 1 106.51 84.17
  Q 94.15 73.06 92.64 70.88
  C 91.07 68.62 92.27 67.22 94.03 65.56
  Q 100.49 59.43 106.69 53.31
  Q 109.34 52.24 110.55 54.79
  A 1.16 1.15 43.4 0 1 110.58 55.72
  Q 110.01 57.20 108.68 58.26
  Z"
/>
<path fill="#fdedec" d="
  M 108.68 58.26
  L 111.54 66.30
  L 101.75 66.10
  A 0.45 0.45 0.0 0 1 101.45 65.33
  L 108.68 58.26
  Z"
/>
<path fill="#ffffff" d="
  M 50.93 134.69
  Q 49.92 132.99 49.80 130.68
  Q 49.37 122.42 48.45 114.00
  Q 45.27 84.56 43.34 68.54
  C 43.27 67.90 42.80 67.11 42.92 66.80
  Q 43.01 66.56 43.60 66.57
  Q 54.44 66.64 56.11 66.50
  A 3.44 3.25 -35.3 0 1 57.51 66.70
  Q 63.85 69.10 64.94 75.33
  Q 72.41 117.75 72.74 119.74
  A 1.01 1.00 1.0 0 1 71.54 120.89
  C 66.63 119.87 62.01 119.99 57.62 123.03
  Q 51.79 127.08 51.36 134.58
  A 0.23 0.23 0.0 0 1 50.93 134.69
  Z"
/>
<ellipse fill="#ffffff" cx="0.00" cy="0.00" transform="translate(66.16,135.03) rotate(-7.4)" rx="9.61" ry="9.42"/>
<path fill="#ffffff" d="
  M 144.73 135.22
  C 144.72 142.11 139.04 144.33 132.94 144.28
  Q 120.21 144.19 78.59 144.24
  A 0.31 0.30 -73.4 0 1 78.34 143.77
  Q 81.08 139.56 81.08 135.14
  Q 81.09 130.72 78.36 126.51
  A 0.31 0.30 73.6 0 1 78.61 126.03
  Q 120.23 126.19 132.96 126.12
  C 139.06 126.09 144.74 128.32 144.73 135.22
  Z"
/>
<path fill="#ffffff" d="
  M 58.90 148.76
  A 0.37 0.36 7.4 0 1 59.40 148.38
  L 61.24 149.09
  A 5.40 5.17 -33.3 0 0 63.14 149.44
  L 131.93 149.44
  A 0.49 0.49 0.0 0 1 132.42 149.92
  Q 132.66 155.65 132.05 157.01
  Q 129.87 161.83 125.20 161.83
  Q 114.89 161.82 66.05 161.82
  A 3.86 3.56 -34.1 0 1 64.93 161.65
  C 58.16 159.47 59.57 154.24 58.90 148.76
  Z"
/>
</svg>
