<?xml version="1.0" encoding="UTF-8" standalone="no"?>
<!DOCTYPE svg PUBLIC "-//W3C//DTD SVG 1.1//EN" "http://www.w3.org/Graphics/SVG/1.1/DTD/svg11.dtd">
<svg xmlns="http://www.w3.org/2000/svg" version="1.1" viewBox="0.00 0.00 229.00 204.00">
<g stroke-width="2.00" fill="none" stroke-linecap="butt">
<path stroke="#d9d8da" vector-effect="non-scaling-stroke" d="
  M 156.70 88.05
  L 161.41 89.49
  A 1.83 1.83 0.0 0 0 163.69 88.29
  L 163.82 87.90
  A 2.09 2.09 0.0 0 0 162.46 85.28
  L 156.64 83.42
  A 0.88 0.86 -81.7 0 1 156.04 82.60
  Q 155.96 72.92 156.06 67.70
  Q 156.28 56.77 154.85 52.92
  C 152.33 46.10 145.95 40.25 138.40 39.04
  C 130.12 37.71 121.41 38.13 108.01 38.34
  C 98.07 38.49 89.41 43.05 85.73 52.38
  Q 84.23 56.18 84.28 64.43
  Q 84.39 82.66 84.40 82.90
  A 0.74 0.74 0.0 0 1 83.89 83.63
  L 78.54 85.36
  A 2.07 2.07 0.0 0 0 77.26 88.12
  L 77.31 88.24
  A 2.14 2.13 -20.5 0 0 79.95 89.44
  L 83.59 88.24
  A 0.59 0.59 0.0 0 1 84.37 88.80
  Q 84.38 129.79 84.31 141.71
  Q 84.28 147.41 85.22 150.45
  C 87.42 157.56 92.54 163.03 99.17 165.81
  Q 102.77 167.31 111.06 167.25
  Q 126.47 167.13 130.44 167.21
  Q 136.83 167.35 140.33 166.15
  C 150.33 162.70 156.12 154.09 156.09 143.51
  Q 155.97 88.71 155.99 88.53
  A 0.55 0.55 0.0 0 1 156.70 88.05"
/>
<path stroke="#d9d8da" vector-effect="non-scaling-stroke" d="
  M 30.43 100.63
  Q 30.44 103.32 30.61 105.72
  Q 32.15 126.94 46.59 142.57
  A 2.66 2.66 0.0 0 0 50.05 142.96
  L 50.22 142.85
  A 1.99 1.98 -39.4 0 0 50.52 139.82
  Q 37.78 126.84 35.45 108.51
  Q 34.78 103.16 34.77 100.62
  Q 34.77 98.08 35.43 92.73
  Q 37.69 74.39 50.39 61.37
  A 1.99 1.98 39.2 0 0 50.08 58.34
  L 49.91 58.23
  A 2.66 2.66 0.0 0 0 46.45 58.63
  Q 32.06 74.31 30.59 95.54
  Q 30.43 97.94 30.43 100.63"
/>
<path stroke="#d9d8da" vector-effect="non-scaling-stroke" d="
  M 45.90 100.42
  Q 45.89 110.63 50.31 119.71
  Q 53.36 125.99 58.75 131.29
  A 2.35 2.34 47.1 0 0 61.91 131.41
  L 62.05 131.29
  A 2.04 2.03 48.0 0 0 62.20 128.32
  C 54.59 120.44 50.49 111.50 50.50 100.42
  C 50.51 89.35 54.63 80.42 62.25 72.55
  A 2.04 2.03 -47.9 0 0 62.10 69.58
  L 61.96 69.46
  A 2.35 2.34 -47.0 0 0 58.80 69.57
  Q 53.40 74.86 50.34 81.14
  Q 45.91 90.21 45.90 100.42"
/>
<path stroke="#d9d8da" vector-effect="non-scaling-stroke" d="
  M 61.28 100.84
  C 61.29 108.84 64.19 115.48 69.43 121.38
  A 2.36 2.36 0.0 0 0 72.85 121.50
  L 72.96 121.39
  A 2.16 2.16 0.0 0 0 72.98 118.31
  C 68.33 113.68 65.93 107.69 65.93 100.84
  C 65.93 93.99 68.32 88.00 72.97 83.36
  A 2.16 2.16 0.0 0 0 72.95 80.29
  L 72.84 80.18
  A 2.36 2.36 0.0 0 0 69.42 80.30
  C 64.18 86.20 61.28 92.84 61.28 100.84"
/>
<path stroke="#d9d8da" vector-effect="non-scaling-stroke" d="
  M 120.36 69.76
  C 128.36 69.75 145.16 69.41 148.28 79.94
  Q 148.66 81.22 149.02 81.32
  Q 149.67 81.51 150.71 81.68
  A 0.54 0.54 0.0 0 0 151.34 81.15
  L 151.34 63.12
  A 0.51 0.50 -86.1 0 0 150.91 62.62
  Q 134.44 60.25 133.81 43.90
  A 0.56 0.55 -0.9 0 0 133.26 43.37
  Q 125.66 43.37 120.35 43.37
  Q 115.04 43.38 107.44 43.38
  A 0.56 0.55 0.8 0 0 106.89 43.91
  Q 106.27 60.26 89.80 62.65
  A 0.51 0.50 86.0 0 0 89.37 63.15
  L 89.39 81.18
  A 0.54 0.54 0.0 0 0 90.02 81.71
  Q 91.06 81.54 91.71 81.34
  Q 92.07 81.24 92.45 79.96
  C 95.56 69.43 112.36 69.76 120.36 69.76"
/>
<path stroke="#d9d8da" vector-effect="non-scaling-stroke" d="
  M 98.83 53.72
  Q 102.06 50.30 102.30 44.48
  A 0.33 0.33 0.0 0 0 101.86 44.15
  Q 97.17 45.68 93.94 49.09
  Q 90.72 52.49 89.44 57.26
  A 0.33 0.33 0.0 0 0 89.79 57.67
  Q 95.60 57.13 98.83 53.72"
/>
<path stroke="#d9d8da" vector-effect="non-scaling-stroke" d="
  M 141.85 53.78
  Q 145.07 57.20 150.88 57.78
  A 0.33 0.33 0.0 0 0 151.23 57.36
  Q 149.97 52.58 146.76 49.16
  Q 143.55 45.74 138.86 44.19
  A 0.33 0.33 0.0 0 0 138.43 44.52
  Q 138.63 50.35 141.85 53.78"
/>
<path stroke="#d9d8da" vector-effect="non-scaling-stroke" d="
  M 120.27 95.86
  Q 124.26 95.86 128.26 96.18
  Q 132.96 96.54 140.06 97.94
  A 1.63 1.62 -77.4 0 0 141.94 96.74
  Q 143.84 89.11 143.81 82.06
  A 3.96 3.96 0.0 0 0 142.30 78.97
  Q 139.14 76.49 135.00 75.72
  Q 129.02 74.60 120.31 74.59
  Q 111.61 74.57 105.62 75.66
  Q 101.47 76.41 98.30 78.88
  A 3.96 3.96 0.0 0 0 96.78 81.97
  Q 96.72 89.02 98.59 96.65
  A 1.63 1.62 77.6 0 0 100.47 97.86
  Q 107.57 96.49 112.27 96.14
  Q 116.28 95.85 120.27 95.86"
/>
<path stroke="#d9d8da" vector-effect="non-scaling-stroke" d="
  M 120.35 158.93
  C 111.01 158.94 91.22 158.90 93.31 144.09
  C 93.91 139.84 94.35 137.39 94.35 133.22
  Q 94.34 120.85 94.10 99.95
  A 14.53 14.40 -52.4 0 0 93.69 96.70
  Q 92.49 91.68 92.30 86.54
  A 0.38 0.37 -10.1 0 0 91.81 86.20
  L 89.63 86.90
  A 0.58 0.57 81.0 0 0 89.24 87.45
  Q 89.41 125.05 89.30 139.27
  Q 89.23 147.78 90.66 151.06
  Q 94.37 159.53 104.07 161.94
  A 7.87 7.59 -36.5 0 0 105.68 162.15
  Q 106.56 162.17 120.36 162.15
  Q 134.15 162.14 135.03 162.12
  A 7.87 7.59 36.3 0 0 136.64 161.90
  Q 146.34 159.47 150.03 150.99
  Q 151.45 147.71 151.36 139.20
  Q 151.22 124.98 151.31 87.38
  A 0.58 0.57 -81.1 0 0 150.92 86.83
  L 148.73 86.14
  A 0.38 0.37 9.9 0 0 148.24 86.48
  Q 148.07 91.62 146.88 96.64
  A 14.53 14.40 52.3 0 0 146.47 99.89
  Q 146.28 120.79 146.30 133.16
  C 146.31 137.33 146.75 139.78 147.36 144.03
  C 149.48 158.84 129.70 158.92 120.35 158.93"
/>
<path stroke="#d9d8da" vector-effect="non-scaling-stroke" d="
  M 120.31 136.25
  C 127.39 136.25 134.28 135.47 140.73 133.26
  A 1.19 1.18 -9.6 0 0 141.53 132.14
  L 141.53 102.96
  A 0.25 0.25 0.0 0 0 141.33 102.71
  Q 131.13 100.80 120.29 100.80
  Q 109.44 100.81 99.25 102.74
  A 0.25 0.25 0.0 0 0 99.05 102.98
  L 99.08 132.16
  A 1.19 1.18 9.6 0 0 99.88 133.28
  C 106.33 135.49 113.22 136.26 120.31 136.25"
/>
<path stroke="#d9d8da" vector-effect="non-scaling-stroke" d="
  M 120.37 141.08
  C 113.07 141.11 106.12 140.34 99.32 138.25
  A 0.34 0.34 0.0 0 0 98.88 138.55
  C 98.47 143.08 95.96 149.35 102.24 151.82
  C 107.95 154.07 113.60 154.19 120.43 154.16
  C 127.26 154.13 132.91 153.95 138.60 151.65
  C 144.86 149.12 142.29 142.87 141.83 138.34
  A 0.34 0.34 0.0 0 0 141.39 138.05
  C 134.62 140.20 127.67 141.04 120.37 141.08"
/>
</g>
<path fill="#ffffff" d="
  M 229.00 0.00
  L 229.00 204.00
  L 0.00 204.00
  L 0.00 0.00
  L 229.00 0.00
  Z
  M 156.70 88.05
  L 161.41 89.49
  A 1.83 1.83 0.0 0 0 163.69 88.29
  L 163.82 87.90
  A 2.09 2.09 0.0 0 0 162.46 85.28
  L 156.64 83.42
  A 0.88 0.86 -81.7 0 1 156.04 82.60
  Q 155.96 72.92 156.06 67.70
  Q 156.28 56.77 154.85 52.92
  C 152.33 46.10 145.95 40.25 138.40 39.04
  C 130.12 37.71 121.41 38.13 108.01 38.34
  C 98.07 38.49 89.41 43.05 85.73 52.38
  Q 84.23 56.18 84.28 64.43
  Q 84.39 82.66 84.40 82.90
  A 0.74 0.74 0.0 0 1 83.89 83.63
  L 78.54 85.36
  A 2.07 2.07 0.0 0 0 77.26 88.12
  L 77.31 88.24
  A 2.14 2.13 -20.5 0 0 79.95 89.44
  L 83.59 88.24
  A 0.59 0.59 0.0 0 1 84.37 88.80
  Q 84.38 129.79 84.31 141.71
  Q 84.28 147.41 85.22 150.45
  C 87.42 157.56 92.54 163.03 99.17 165.81
  Q 102.77 167.31 111.06 167.25
  Q 126.47 167.13 130.44 167.21
  Q 136.83 167.35 140.33 166.15
  C 150.33 162.70 156.12 154.09 156.09 143.51
  Q 155.97 88.71 155.99 88.53
  A 0.55 0.55 0.0 0 1 156.70 88.05
  Z
  M 30.43 100.63
  Q 30.44 103.32 30.61 105.72
  Q 32.15 126.94 46.59 142.57
  A 2.66 2.66 0.0 0 0 50.05 142.96
  L 50.22 142.85
  A 1.99 1.98 -39.4 0 0 50.52 139.82
  Q 37.78 126.84 35.45 108.51
  Q 34.78 103.16 34.77 100.62
  Q 34.77 98.08 35.43 92.73
  Q 37.69 74.39 50.39 61.37
  A 1.99 1.98 39.2 0 0 50.08 58.34
  L 49.91 58.23
  A 2.66 2.66 0.0 0 0 46.45 58.63
  Q 32.06 74.31 30.59 95.54
  Q 30.43 97.94 30.43 100.63
  Z
  M 45.90 100.42
  Q 45.89 110.63 50.31 119.71
  Q 53.36 125.99 58.75 131.29
  A 2.35 2.34 47.1 0 0 61.91 131.41
  L 62.05 131.29
  A 2.04 2.03 48.0 0 0 62.20 128.32
  C 54.59 120.44 50.49 111.50 50.50 100.42
  C 50.51 89.35 54.63 80.42 62.25 72.55
  A 2.04 2.03 -47.9 0 0 62.10 69.58
  L 61.96 69.46
  A 2.35 2.34 -47.0 0 0 58.80 69.57
  Q 53.40 74.86 50.34 81.14
  Q 45.91 90.21 45.90 100.42
  Z
  M 61.28 100.84
  C 61.29 108.84 64.19 115.48 69.43 121.38
  A 2.36 2.36 0.0 0 0 72.85 121.50
  L 72.96 121.39
  A 2.16 2.16 0.0 0 0 72.98 118.31
  C 68.33 113.68 65.93 107.69 65.93 100.84
  C 65.93 93.99 68.32 88.00 72.97 83.36
  A 2.16 2.16 0.0 0 0 72.95 80.29
  L 72.84 80.18
  A 2.36 2.36 0.0 0 0 69.42 80.30
  C 64.18 86.20 61.28 92.84 61.28 100.84
  Z"
/>
<path fill="#b2b0b4" d="
  M 155.99 88.53
  Q 155.97 88.71 156.09 143.51
  C 156.12 154.09 150.33 162.70 140.33 166.15
  Q 136.83 167.35 130.44 167.21
  Q 126.47 167.13 111.06 167.25
  Q 102.77 167.31 99.17 165.81
  C 92.54 163.03 87.42 157.56 85.22 150.45
  Q 84.28 147.41 84.31 141.71
  Q 84.38 129.79 84.37 88.80
  A 0.59 0.59 0.0 0 0 83.59 88.24
  L 79.95 89.44
  A 2.14 2.13 -20.5 0 1 77.31 88.24
  L 77.26 88.12
  A 2.07 2.07 0.0 0 1 78.54 85.36
  L 83.89 83.63
  A 0.74 0.74 0.0 0 0 84.40 82.90
  Q 84.39 82.66 84.28 64.43
  Q 84.23 56.18 85.73 52.38
  C 89.41 43.05 98.07 38.49 108.01 38.34
  C 121.41 38.13 130.12 37.71 138.40 39.04
  C 145.95 40.25 152.33 46.10 154.85 52.92
  Q 156.28 56.77 156.06 67.70
  Q 155.96 72.92 156.04 82.60
  A 0.88 0.86 -81.7 0 0 156.64 83.42
  L 162.46 85.28
  A 2.09 2.09 0.0 0 1 163.82 87.90
  L 163.69 88.29
  A 1.83 1.83 0.0 0 1 161.41 89.49
  L 156.70 88.05
  A 0.55 0.55 0.0 0 0 155.99 88.53
  Z
  M 120.36 69.76
  C 128.36 69.75 145.16 69.41 148.28 79.94
  Q 148.66 81.22 149.02 81.32
  Q 149.67 81.51 150.71 81.68
  A 0.54 0.54 0.0 0 0 151.34 81.15
  L 151.34 63.12
  A 0.51 0.50 -86.1 0 0 150.91 62.62
  Q 134.44 60.25 133.81 43.90
  A 0.56 0.55 -0.9 0 0 133.26 43.37
  Q 125.66 43.37 120.35 43.37
  Q 115.04 43.38 107.44 43.38
  A 0.56 0.55 0.8 0 0 106.89 43.91
  Q 106.27 60.26 89.80 62.65
  A 0.51 0.50 86.0 0 0 89.37 63.15
  L 89.39 81.18
  A 0.54 0.54 0.0 0 0 90.02 81.71
  Q 91.06 81.54 91.71 81.34
  Q 92.07 81.24 92.45 79.96
  C 95.56 69.43 112.36 69.76 120.36 69.76
  Z
  M 98.83 53.72
  Q 102.06 50.30 102.30 44.48
  A 0.33 0.33 0.0 0 0 101.86 44.15
  Q 97.17 45.68 93.94 49.09
  Q 90.72 52.49 89.44 57.26
  A 0.33 0.33 0.0 0 0 89.79 57.67
  Q 95.60 57.13 98.83 53.72
  Z
  M 141.85 53.78
  Q 145.07 57.20 150.88 57.78
  A 0.33 0.33 0.0 0 0 151.23 57.36
  Q 149.97 52.58 146.76 49.16
  Q 143.55 45.74 138.86 44.19
  A 0.33 0.33 0.0 0 0 138.43 44.52
  Q 138.63 50.35 141.85 53.78
  Z
  M 120.27 95.86
  Q 124.26 95.86 128.26 96.18
  Q 132.96 96.54 140.06 97.94
  A 1.63 1.62 -77.4 0 0 141.94 96.74
  Q 143.84 89.11 143.81 82.06
  A 3.96 3.96 0.0 0 0 142.30 78.97
  Q 139.14 76.49 135.00 75.72
  Q 129.02 74.60 120.31 74.59
  Q 111.61 74.57 105.62 75.66
  Q 101.47 76.41 98.30 78.88
  A 3.96 3.96 0.0 0 0 96.78 81.97
  Q 96.72 89.02 98.59 96.65
  A 1.63 1.62 77.6 0 0 100.47 97.86
  Q 107.57 96.49 112.27 96.14
  Q 116.28 95.85 120.27 95.86
  Z
  M 120.35 158.93
  C 111.01 158.94 91.22 158.90 93.31 144.09
  C 93.91 139.84 94.35 137.39 94.35 133.22
  Q 94.34 120.85 94.10 99.95
  A 14.53 14.40 -52.4 0 0 93.69 96.70
  Q 92.49 91.68 92.30 86.54
  A 0.38 0.37 -10.1 0 0 91.81 86.20
  L 89.63 86.90
  A 0.58 0.57 81.0 0 0 89.24 87.45
  Q 89.41 125.05 89.30 139.27
  Q 89.23 147.78 90.66 151.06
  Q 94.37 159.53 104.07 161.94
  A 7.87 7.59 -36.5 0 0 105.68 162.15
  Q 106.56 162.17 120.36 162.15
  Q 134.15 162.14 135.03 162.12
  A 7.87 7.59 36.3 0 0 136.64 161.90
  Q 146.34 159.47 150.03 150.99
  Q 151.45 147.71 151.36 139.20
  Q 151.22 124.98 151.31 87.38
  A 0.58 0.57 -81.1 0 0 150.92 86.83
  L 148.73 86.14
  A 0.38 0.37 9.9 0 0 148.24 86.48
  Q 148.07 91.62 146.88 96.64
  A 14.53 14.40 52.3 0 0 146.47 99.89
  Q 146.28 120.79 146.30 133.16
  C 146.31 137.33 146.75 139.78 147.36 144.03
  C 149.48 158.84 129.70 158.92 120.35 158.93
  Z
  M 120.31 136.25
  C 127.39 136.25 134.28 135.47 140.73 133.26
  A 1.19 1.18 -9.6 0 0 141.53 132.14
  L 141.53 102.96
  A 0.25 0.25 0.0 0 0 141.33 102.71
  Q 131.13 100.80 120.29 100.80
  Q 109.44 100.81 99.25 102.74
  A 0.25 0.25 0.0 0 0 99.05 102.98
  L 99.08 132.16
  A 1.19 1.18 9.6 0 0 99.88 133.28
  C 106.33 135.49 113.22 136.26 120.31 136.25
  Z
  M 120.37 141.08
  C 113.07 141.11 106.12 140.34 99.32 138.25
  A 0.34 0.34 0.0 0 0 98.88 138.55
  C 98.47 143.08 95.96 149.35 102.24 151.82
  C 107.95 154.07 113.60 154.19 120.43 154.16
  C 127.26 154.13 132.91 153.95 138.60 151.65
  C 144.86 149.12 142.29 142.87 141.83 138.34
  A 0.34 0.34 0.0 0 0 141.39 138.05
  C 134.62 140.20 127.67 141.04 120.37 141.08
  Z"
/>
<path fill="#ffffff" d="
  M 120.35 43.37
  Q 125.66 43.37 133.26 43.37
  A 0.56 0.55 -0.9 0 1 133.81 43.90
  Q 134.44 60.25 150.91 62.62
  A 0.51 0.50 -86.1 0 1 151.34 63.12
  L 151.34 81.15
  A 0.54 0.54 0.0 0 1 150.71 81.68
  Q 149.67 81.51 149.02 81.32
  Q 148.66 81.22 148.28 79.94
  C 145.16 69.41 128.36 69.75 120.36 69.76
  C 112.36 69.76 95.56 69.43 92.45 79.96
  Q 92.07 81.24 91.71 81.34
  Q 91.06 81.54 90.02 81.71
  A 0.54 0.54 0.0 0 1 89.39 81.18
  L 89.37 63.15
  A 0.51 0.50 86.0 0 1 89.80 62.65
  Q 106.27 60.26 106.89 43.91
  A 0.56 0.55 0.8 0 1 107.44 43.38
  Q 115.04 43.38 120.35 43.37
  Z"
/>
<path fill="#ffffff" d="
  M 98.83 53.72
  Q 95.60 57.13 89.79 57.67
  A 0.33 0.33 0.0 0 1 89.44 57.26
  Q 90.72 52.49 93.94 49.09
  Q 97.17 45.68 101.86 44.15
  A 0.33 0.33 0.0 0 1 102.30 44.48
  Q 102.06 50.30 98.83 53.72
  Z"
/>
<path fill="#ffffff" d="
  M 146.76 49.16
  Q 149.97 52.58 151.23 57.36
  A 0.33 0.33 0.0 0 1 150.88 57.78
  Q 145.07 57.20 141.85 53.78
  Q 138.63 50.35 138.43 44.52
  A 0.33 0.33 0.0 0 1 138.86 44.19
  Q 143.55 45.74 146.76 49.16
  Z"
/>
<path fill="#b2b0b4" d="
  M 34.77 100.62
  Q 34.78 103.16 35.45 108.51
  Q 37.78 126.84 50.52 139.82
  A 1.99 1.98 -39.4 0 1 50.22 142.85
  L 50.05 142.96
  A 2.66 2.66 0.0 0 1 46.59 142.57
  Q 32.15 126.94 30.61 105.72
  Q 30.44 103.32 30.43 100.63
  Q 30.43 97.94 30.59 95.54
  Q 32.06 74.31 46.45 58.63
  A 2.66 2.66 0.0 0 1 49.91 58.23
  L 50.08 58.34
  A 1.99 1.98 39.2 0 1 50.39 61.37
  Q 37.69 74.39 35.43 92.73
  Q 34.77 98.08 34.77 100.62
  Z"
/>
<path fill="#b2b0b4" d="
  M 50.50 100.42
  C 50.49 111.50 54.59 120.44 62.20 128.32
  A 2.04 2.03 48.0 0 1 62.05 131.29
  L 61.91 131.41
  A 2.35 2.34 47.1 0 1 58.75 131.29
  Q 53.36 125.99 50.31 119.71
  Q 45.89 110.63 45.90 100.42
  Q 45.91 90.21 50.34 81.14
  Q 53.40 74.86 58.80 69.57
  A 2.35 2.34 -47.0 0 1 61.96 69.46
  L 62.10 69.58
  A 2.04 2.03 -47.9 0 1 62.25 72.55
  C 54.63 80.42 50.51 89.35 50.50 100.42
  Z"
/>
<path fill="#ffffff" d="
  M 120.31 74.59
  Q 129.02 74.60 135.00 75.72
  Q 139.14 76.49 142.30 78.97
  A 3.96 3.96 0.0 0 1 143.81 82.06
  Q 143.84 89.11 141.94 96.74
  A 1.63 1.62 -77.4 0 1 140.06 97.94
  Q 132.96 96.54 128.26 96.18
  Q 124.26 95.86 120.27 95.86
  Q 116.28 95.85 112.27 96.14
  Q 107.57 96.49 100.47 97.86
  A 1.63 1.62 77.6 0 1 98.59 96.65
  Q 96.72 89.02 96.78 81.97
  A 3.96 3.96 0.0 0 1 98.30 78.88
  Q 101.47 76.41 105.62 75.66
  Q 111.61 74.57 120.31 74.59
  Z"
/>
<path fill="#b2b0b4" d="
  M 65.93 100.84
  C 65.93 107.69 68.33 113.68 72.98 118.31
  A 2.16 2.16 0.0 0 1 72.96 121.39
  L 72.85 121.50
  A 2.36 2.36 0.0 0 1 69.43 121.38
  C 64.19 115.48 61.29 108.84 61.28 100.84
  C 61.28 92.84 64.18 86.20 69.42 80.30
  A 2.36 2.36 0.0 0 1 72.84 80.18
  L 72.95 80.29
  A 2.16 2.16 0.0 0 1 72.97 83.36
  C 68.32 88.00 65.93 93.99 65.93 100.84
  Z"
/>
<path fill="#ffffff" d="
  M 120.36 162.15
  Q 106.56 162.17 105.68 162.15
  A 7.87 7.59 -36.5 0 1 104.07 161.94
  Q 94.37 159.53 90.66 151.06
  Q 89.23 147.78 89.30 139.27
  Q 89.41 125.05 89.24 87.45
  A 0.58 0.57 81.0 0 1 89.63 86.90
  L 91.81 86.20
  A 0.38 0.37 -10.1 0 1 92.30 86.54
  Q 92.49 91.68 93.69 96.70
  A 14.53 14.40 -52.4 0 1 94.10 99.95
  Q 94.34 120.85 94.35 133.22
  C 94.35 137.39 93.91 139.84 93.31 144.09
  C 91.22 158.90 111.01 158.94 120.35 158.93
  C 129.70 158.92 149.48 158.84 147.36 144.03
  C 146.75 139.78 146.31 137.33 146.30 133.16
  Q 146.28 120.79 146.47 99.89
  A 14.53 14.40 52.3 0 1 146.88 96.64
  Q 148.07 91.62 148.24 86.48
  A 0.38 0.37 9.9 0 1 148.73 86.14
  L 150.92 86.83
  A 0.58 0.57 -81.1 0 1 151.31 87.38
  Q 151.22 124.98 151.36 139.20
  Q 151.45 147.71 150.03 150.99
  Q 146.34 159.47 136.64 161.90
  A 7.87 7.59 36.3 0 1 135.03 162.12
  Q 134.15 162.14 120.36 162.15
  Z"
/>
<path fill="#ffffff" d="
  M 120.29 100.80
  Q 131.13 100.80 141.33 102.71
  A 0.25 0.25 0.0 0 1 141.53 102.96
  L 141.53 132.14
  A 1.19 1.18 -9.6 0 1 140.73 133.26
  C 134.28 135.47 127.39 136.25 120.31 136.25
  C 113.22 136.26 106.33 135.49 99.88 133.28
  A 1.19 1.18 9.6 0 1 99.08 132.16
  L 99.05 102.98
  A 0.25 0.25 0.0 0 1 99.25 102.74
  Q 109.44 100.81 120.29 100.80
  Z"
/>
<path fill="#ffffff" d="
  M 120.43 154.16
  C 113.60 154.19 107.95 154.07 102.24 151.82
  C 95.96 149.35 98.47 143.08 98.88 138.55
  A 0.34 0.34 0.0 0 1 99.32 138.25
  C 106.12 140.34 113.07 141.11 120.37 141.08
  C 127.67 141.04 134.62 140.20 141.39 138.05
  A 0.34 0.34 0.0 0 1 141.83 138.34
  C 142.29 142.87 144.86 149.12 138.60 151.65
  C 132.91 153.95 127.26 154.13 120.43 154.16
  Z"
/>
</svg>
