<?xml version="1.0" encoding="UTF-8" standalone="no"?>
<!DOCTYPE svg PUBLIC "-//W3C//DTD SVG 1.1//EN" "http://www.w3.org/Graphics/SVG/1.1/DTD/svg11.dtd">
<svg xmlns="http://www.w3.org/2000/svg" version="1.1" viewBox="0.00 0.00 209.00 197.00">
<g stroke-width="2.00" fill="none" stroke-linecap="butt">
<path stroke="#818182" vector-effect="non-scaling-stroke" d="
  M 60.90 115.75
  L 60.98 128.90
  A 1.77 1.77 0.0 0 0 62.27 130.59
  L 62.80 130.73
  A 1.71 1.71 0.0 0 0 64.97 129.10
  L 65.07 118.75"
/>
<path stroke="#fef6f6" vector-effect="non-scaling-stroke" d="
  M 65.07 118.75
  Q 81.35 129.98 101.65 128.88"
/>
<path stroke="#818182" vector-effect="non-scaling-stroke" d="
  M 101.65 128.88
  Q 97.48 135.04 91.02 138.65
  A 2.13 2.12 60.4 0 0 90.22 141.57
  L 90.25 141.62
  A 2.23 2.23 0.0 0 0 93.23 142.47
  Q 102.61 137.48 107.40 127.75"
/>
<path stroke="#fef6f6" vector-effect="non-scaling-stroke" d="
  M 107.40 127.75
  L 114.19 126.40"
/>
<path stroke="#818182" vector-effect="non-scaling-stroke" d="
  M 114.19 126.40
  Q 114.22 134.03 112.35 140.09
  A 2.20 2.20 0.0 0 0 114.88 142.90
  Q 116.88 142.51 117.49 139.88
  Q 119.18 132.60 117.34 125.80"
/>
<path stroke="#fef6f6" vector-effect="non-scaling-stroke" d="
  M 117.34 125.80
  Q 123.00 122.98 127.57 120.31
  Q 129.14 119.39 130.70 117.81"
/>
<path stroke="#818182" vector-effect="non-scaling-stroke" d="
  M 130.70 117.81
  Q 133.15 116.34 134.56 114.46"
/>
<path stroke="#fef6f6" vector-effect="non-scaling-stroke" d="
  M 134.56 114.46
  Q 144.39 107.02 149.56 94.34
  Q 152.71 86.62 153.05 80.30"
/>
<path stroke="#818182" vector-effect="non-scaling-stroke" d="
  M 153.05 80.30
  Q 154.49 79.46 154.65 78.48
  Q 155.28 74.72 153.52 72.71"
/>
<path stroke="#fef6f6" vector-effect="non-scaling-stroke" d="
  M 153.52 72.71
  L 153.13 64.56"
/>
<path stroke="#818182" vector-effect="non-scaling-stroke" d="
  M 153.13 64.56
  Q 154.62 63.48 154.61 62.50
  Q 154.52 51.53 154.41 40.05
  A 2.16 2.16 0.0 0 0 152.31 37.91
  L 152.28 37.91
  A 2.05 2.02 -88.8 0 0 150.20 39.93
  L 150.04 50.92"
/>
<path stroke="#fef6f6" vector-effect="non-scaling-stroke" d="
  M 150.04 50.92
  Q 138.98 26.97 116.30 19.18
  C 78.16 6.07 39.42 34.97 41.19 75.37
  Q 42.21 98.77 60.90 115.75"
/>
<path stroke="#807878" vector-effect="non-scaling-stroke" d="
  M 150.04 50.92
  L 150.33 62.51
  A 1.70 1.70 0.0 0 0 150.61 63.41
  Q 151.64 65.03 153.13 64.56"
/>
<path stroke="#807878" vector-effect="non-scaling-stroke" d="
  M 153.52 72.71
  Q 150.89 71.72 150.38 74.65
  Q 150.21 75.62 150.48 78.36
  A 1.83 1.80 25.2 0 0 150.78 79.17
  Q 151.61 80.43 153.05 80.30"
/>
<path stroke="#807878" vector-effect="non-scaling-stroke" d="
  M 134.56 114.46
  L 137.33 104.05
  A 1.08 1.02 69.9 0 1 137.45 103.77
  L 138.64 101.92
  A 0.17 0.02 -52.0 0 0 138.67 101.87
  Q 140.09 97.35 141.54 92.21
  C 142.88 87.46 143.99 84.74 139.37 82.77
  A 1.17 1.15 -78.5 0 1 138.66 81.68
  Q 138.73 77.76 139.06 74.36
  C 139.78 66.83 137.05 60.76 129.33 58.66
  Q 115.35 54.86 110.76 53.48
  Q 101.54 50.71 99.31 50.88
  Q 93.50 51.33 89.94 57.23
  Q 87.04 62.03 84.51 66.79
  A 0.95 0.93 15.3 0 1 83.63 67.28
  C 79.74 67.08 78.55 69.50 77.66 73.24
  C 76.30 78.99 75.12 82.15 75.16 84.90
  Q 75.18 86.12 74.29 87.97
  Q 73.29 90.06 72.05 95.81
  Q 70.80 101.56 76.29 103.74
  Q 79.03 104.82 81.42 105.08
  C 86.35 105.62 87.39 99.21 88.32 95.85
  Q 88.99 93.40 88.99 92.69
  A 0.45 0.45 0.0 0 1 89.56 92.25
  L 120.62 100.85
  A 0.57 0.55 -73.9 0 1 121.00 101.56
  L 118.45 109.73
  A 1.28 1.28 0.0 0 0 118.41 110.32
  Q 119.07 114.20 121.21 115.52
  Q 125.11 117.93 130.70 117.81"
/>
<path stroke="#807878" vector-effect="non-scaling-stroke" d="
  M 117.34 125.80
  L 114.19 126.40"
/>
<path stroke="#807878" vector-effect="non-scaling-stroke" d="
  M 107.40 127.75
  Q 109.67 123.03 110.21 118.44
  A 1.84 1.83 -78.9 0 0 108.88 116.46
  L 108.45 116.34
  A 2.06 2.06 0.0 0 0 105.88 117.93
  Q 104.67 124.00 101.65 128.88"
/>
<path stroke="#807878" vector-effect="non-scaling-stroke" d="
  M 65.07 118.75
  L 64.96 107.19
  A 1.78 1.78 0.0 0 0 63.66 105.50
  L 63.13 105.35
  A 1.69 1.69 0.0 0 0 60.99 106.97
  L 60.90 115.75"
/>
<path stroke="#818182" vector-effect="non-scaling-stroke" d="
  M 178.60 65.32
  C 174.54 61.48 170.99 63.85 168.72 67.90
  Q 155.37 91.78 145.07 110.24
  C 143.37 113.27 144.93 116.89 147.92 118.44
  Q 149.28 119.14 153.75 119.12
  Q 175.51 118.99 199.52 118.40
  A 2.58 2.50 -59.1 0 0 200.71 118.08
  Q 204.03 116.26 204.46 112.76
  Q 204.70 110.78 202.01 106.02
  Q 188.94 82.85 179.10 65.96
  A 2.62 2.59 -83.3 0 0 178.60 65.32"
/>
<path stroke="#818182" vector-effect="non-scaling-stroke" d="
  M 152.7001 124.0702
  A 3.28 2.19 -89.3 0 0 150.4702 127.3232
  A 3.28 2.19 -89.3 0 0 152.6199 130.6298
  A 3.28 2.19 -89.3 0 0 154.8498 127.3768
  A 3.28 2.19 -89.3 0 0 152.7001 124.0702"
/>
<path stroke="#818182" vector-effect="non-scaling-stroke" d="
  M 154.65 140.47
  A 1.95 1.95 0.0 0 0 152.70 138.52
  L 152.62 138.52
  A 1.95 1.95 0.0 0 0 150.67 140.47
  L 150.67 162.37
  A 1.95 1.95 0.0 0 0 152.62 164.32
  L 152.70 164.32
  A 1.95 1.95 0.0 0 0 154.65 162.37
  L 154.65 140.47"
/>
<path stroke="#818182" vector-effect="non-scaling-stroke" d="
  M 65.03 141.14
  A 2.01 2.01 0.0 0 0 63.02 139.13
  L 62.92 139.13
  A 2.01 2.01 0.0 0 0 60.91 141.14
  L 60.91 161.58
  A 2.01 2.01 0.0 0 0 62.92 163.59
  L 63.02 163.59
  A 2.01 2.01 0.0 0 0 65.03 161.58
  L 65.03 141.14"
/>
<path stroke="#807878" vector-effect="non-scaling-stroke" d="
  M 64.9909 39.7464
  A 2.05 2.05 0.0 0 0 62.9373 37.6999
  L 62.8373 37.7001
  A 2.05 2.05 0.0 0 0 60.7909 39.7537
  L 60.8291 61.6736
  A 2.05 2.05 0.0 0 0 62.8827 63.7201
  L 62.9827 63.7199
  A 2.05 2.05 0.0 0 0 65.0291 61.6663
  L 64.9909 39.7464"
/>
<path stroke="#807878" vector-effect="non-scaling-stroke" d="
  M 65.02 73.65
  A 2.02 2.02 0.0 0 0 63.00 71.63
  L 62.90 71.63
  A 2.02 2.02 0.0 0 0 60.88 73.65
  L 60.88 94.97
  A 2.02 2.02 0.0 0 0 62.90 96.99
  L 63.00 96.99
  A 2.02 2.02 0.0 0 0 65.02 94.97
  L 65.02 73.65"
/>
<path stroke="#807878" vector-effect="non-scaling-stroke" d="
  M 111.56 74.52
  Q 121.76 77.40 133.71 80.82
  A 0.47 0.46 10.5 0 0 134.30 80.42
  Q 134.92 74.46 134.63 70.47
  Q 134.24 64.89 129.71 63.46
  Q 127.63 62.81 115.82 59.47
  Q 104.01 56.13 101.89 55.60
  Q 97.29 54.44 94.03 58.99
  Q 91.70 62.24 89.10 67.64
  A 0.47 0.46 21.1 0 0 89.40 68.29
  Q 101.37 71.64 111.56 74.52"
/>
<path stroke="#818182" vector-effect="non-scaling-stroke" d="
  M 138.3267 88.2926
  A 1.84 1.84 0.0 0 0 137.0533 86.0234
  L 84.4325 71.2324
  A 1.84 1.84 0.0 0 0 82.1633 72.5058
  L 79.2733 82.7874
  A 1.84 1.84 0.0 0 0 80.5467 85.0566
  L 133.1675 99.8476
  A 1.84 1.84 0.0 0 0 135.4367 98.5742
  L 138.3267 88.2926"
/>
<path stroke="#818182" vector-effect="non-scaling-stroke" d="
  M 79.06 100.21
  Q 80.31 100.54 81.80 100.50
  A 1.30 1.30 0.0 0 0 83.02 99.53
  L 85.13 91.94
  A 0.80 0.80 0.0 0 0 84.54 90.95
  Q 83.11 90.60 81.74 90.23
  Q 80.38 89.86 78.96 89.45
  A 0.80 0.80 0.0 0 0 77.96 90.01
  L 75.98 97.64
  A 1.30 1.30 0.0 0 0 76.55 99.09
  Q 77.82 99.88 79.06 100.21"
/>
<path stroke="#818182" vector-effect="non-scaling-stroke" d="
  M 131.90 104.24
  L 126.23 102.54
  A 1.21 1.21 0.0 0 0 124.73 103.35
  L 122.89 109.48
  A 2.41 2.34 -73.3 0 0 124.44 112.46
  L 127.94 113.51
  A 2.41 2.34 -73.3 0 0 130.88 111.88
  L 132.72 105.75
  A 1.21 1.21 0.0 0 0 131.90 104.24"
/>
<path stroke="#818182" vector-effect="non-scaling-stroke" d="
  M 173.94 68.33
  Q 173.49 68.51 173.23 68.99
  Q 156.26 99.57 148.97 112.40
  A 1.32 1.32 0.0 0 0 150.12 114.37
  Q 172.91 114.40 197.60 114.19
  C 199.41 114.17 200.43 112.44 199.48 110.78
  Q 186.61 88.08 175.67 68.94
  A 1.41 1.40 -25.5 0 0 173.94 68.33"
/>
<path stroke="#818182" vector-effect="non-scaling-stroke" d="
  M 176.2674 85.5823
  A 2.25 2.25 0.0 0 0 173.9900 83.3599
  L 173.8701 83.3614
  A 2.25 2.25 0.0 0 0 171.6477 85.6387
  L 171.8126 99.1377
  A 2.25 2.25 0.0 0 0 174.0900 101.3601
  L 174.2099 101.3586
  A 2.25 2.25 0.0 0 0 176.4323 99.0813
  L 176.2674 85.5823"
/>
<path stroke="#818182" vector-effect="non-scaling-stroke" d="
  M 177.36 107.21
  A 2.74 2.74 0.0 0 0 174.62 104.47
  A 2.74 2.74 0.0 0 0 171.88 107.21
  A 2.74 2.74 0.0 0 0 174.62 109.95
  A 2.74 2.74 0.0 0 0 177.36 107.21"
/>
</g>
<path fill="#ffffff" d="
  M 209.00 0.00
  L 209.00 197.00
  L 0.00 197.00
  L 0.00 0.00
  L 209.00 0.00
  Z
  M 60.90 115.75
  L 60.98 128.90
  A 1.77 1.77 0.0 0 0 62.27 130.59
  L 62.80 130.73
  A 1.71 1.71 0.0 0 0 64.97 129.10
  L 65.07 118.75
  Q 81.35 129.98 101.65 128.88
  Q 97.48 135.04 91.02 138.65
  A 2.13 2.12 60.4 0 0 90.22 141.57
  L 90.25 141.62
  A 2.23 2.23 0.0 0 0 93.23 142.47
  Q 102.61 137.48 107.40 127.75
  L 114.19 126.40
  Q 114.22 134.03 112.35 140.09
  A 2.20 2.20 0.0 0 0 114.88 142.90
  Q 116.88 142.51 117.49 139.88
  Q 119.18 132.60 117.34 125.80
  Q 123.00 122.98 127.57 120.31
  Q 129.14 119.39 130.70 117.81
  Q 133.15 116.34 134.56 114.46
  Q 144.39 107.02 149.56 94.34
  Q 152.71 86.62 153.05 80.30
  Q 154.49 79.46 154.65 78.48
  Q 155.28 74.72 153.52 72.71
  L 153.13 64.56
  Q 154.62 63.48 154.61 62.50
  Q 154.52 51.53 154.41 40.05
  A 2.16 2.16 0.0 0 0 152.31 37.91
  L 152.28 37.91
  A 2.05 2.02 -88.8 0 0 150.20 39.93
  L 150.04 50.92
  Q 138.98 26.97 116.30 19.18
  C 78.16 6.07 39.42 34.97 41.19 75.37
  Q 42.21 98.77 60.90 115.75
  Z
  M 178.60 65.32
  C 174.54 61.48 170.99 63.85 168.72 67.90
  Q 155.37 91.78 145.07 110.24
  C 143.37 113.27 144.93 116.89 147.92 118.44
  Q 149.28 119.14 153.75 119.12
  Q 175.51 118.99 199.52 118.40
  A 2.58 2.50 -59.1 0 0 200.71 118.08
  Q 204.03 116.26 204.46 112.76
  Q 204.70 110.78 202.01 106.02
  Q 188.94 82.85 179.10 65.96
  A 2.62 2.59 -83.3 0 0 178.60 65.32
  Z
  M 152.7001 124.0702
  A 3.28 2.19 -89.3 0 0 150.4702 127.3232
  A 3.28 2.19 -89.3 0 0 152.6199 130.6298
  A 3.28 2.19 -89.3 0 0 154.8498 127.3768
  A 3.28 2.19 -89.3 0 0 152.7001 124.0702
  Z
  M 154.65 140.47
  A 1.95 1.95 0.0 0 0 152.70 138.52
  L 152.62 138.52
  A 1.95 1.95 0.0 0 0 150.67 140.47
  L 150.67 162.37
  A 1.95 1.95 0.0 0 0 152.62 164.32
  L 152.70 164.32
  A 1.95 1.95 0.0 0 0 154.65 162.37
  L 154.65 140.47
  Z
  M 65.03 141.14
  A 2.01 2.01 0.0 0 0 63.02 139.13
  L 62.92 139.13
  A 2.01 2.01 0.0 0 0 60.91 141.14
  L 60.91 161.58
  A 2.01 2.01 0.0 0 0 62.92 163.59
  L 63.02 163.59
  A 2.01 2.01 0.0 0 0 65.03 161.58
  L 65.03 141.14
  Z"
/>
<path fill="#fdedec" d="
  M 150.04 50.92
  L 150.33 62.51
  A 1.70 1.70 0.0 0 0 150.61 63.41
  Q 151.64 65.03 153.13 64.56
  L 153.52 72.71
  Q 150.89 71.72 150.38 74.65
  Q 150.21 75.62 150.48 78.36
  A 1.83 1.80 25.2 0 0 150.78 79.17
  Q 151.61 80.43 153.05 80.30
  Q 152.71 86.62 149.56 94.34
  Q 144.39 107.02 134.56 114.46
  L 137.33 104.05
  A 1.08 1.02 69.9 0 1 137.45 103.77
  L 138.64 101.92
  A 0.17 0.02 -52.0 0 0 138.67 101.87
  Q 140.09 97.35 141.54 92.21
  C 142.88 87.46 143.99 84.74 139.37 82.77
  A 1.17 1.15 -78.5 0 1 138.66 81.68
  Q 138.73 77.76 139.06 74.36
  C 139.78 66.83 137.05 60.76 129.33 58.66
  Q 115.35 54.86 110.76 53.48
  Q 101.54 50.71 99.31 50.88
  Q 93.50 51.33 89.94 57.23
  Q 87.04 62.03 84.51 66.79
  A 0.95 0.93 15.3 0 1 83.63 67.28
  C 79.74 67.08 78.55 69.50 77.66 73.24
  C 76.30 78.99 75.12 82.15 75.16 84.90
  Q 75.18 86.12 74.29 87.97
  Q 73.29 90.06 72.05 95.81
  Q 70.80 101.56 76.29 103.74
  Q 79.03 104.82 81.42 105.08
  C 86.35 105.62 87.39 99.21 88.32 95.85
  Q 88.99 93.40 88.99 92.69
  A 0.45 0.45 0.0 0 1 89.56 92.25
  L 120.62 100.85
  A 0.57 0.55 -73.9 0 1 121.00 101.56
  L 118.45 109.73
  A 1.28 1.28 0.0 0 0 118.41 110.32
  Q 119.07 114.20 121.21 115.52
  Q 125.11 117.93 130.70 117.81
  Q 129.14 119.39 127.57 120.31
  Q 123.00 122.98 117.34 125.80
  L 114.19 126.40
  L 107.40 127.75
  Q 109.67 123.03 110.21 118.44
  A 1.84 1.83 -78.9 0 0 108.88 116.46
  L 108.45 116.34
  A 2.06 2.06 0.0 0 0 105.88 117.93
  Q 104.67 124.00 101.65 128.88
  Q 81.35 129.98 65.07 118.75
  L 64.96 107.19
  A 1.78 1.78 0.0 0 0 63.66 105.50
  L 63.13 105.35
  A 1.69 1.69 0.0 0 0 60.99 106.97
  L 60.90 115.75
  Q 42.21 98.77 41.19 75.37
  C 39.42 34.97 78.16 6.07 116.30 19.18
  Q 138.98 26.97 150.04 50.92
  Z
  M 64.9909 39.7464
  A 2.05 2.05 0.0 0 0 62.9373 37.6999
  L 62.8373 37.7001
  A 2.05 2.05 0.0 0 0 60.7909 39.7537
  L 60.8291 61.6736
  A 2.05 2.05 0.0 0 0 62.8827 63.7201
  L 62.9827 63.7199
  A 2.05 2.05 0.0 0 0 65.0291 61.6663
  L 64.9909 39.7464
  Z
  M 65.02 73.65
  A 2.02 2.02 0.0 0 0 63.00 71.63
  L 62.90 71.63
  A 2.02 2.02 0.0 0 0 60.88 73.65
  L 60.88 94.97
  A 2.02 2.02 0.0 0 0 62.90 96.99
  L 63.00 96.99
  A 2.02 2.02 0.0 0 0 65.02 94.97
  L 65.02 73.65
  Z"
/>
<rect fill="#030304" x="-2.10" y="-13.01" transform="translate(62.91,50.71) rotate(-0.1)" width="4.20" height="26.02" rx="2.05"/>
<path fill="#030304" d="
  M 153.13 64.56
  Q 151.64 65.03 150.61 63.41
  A 1.70 1.70 0.0 0 1 150.33 62.51
  L 150.04 50.92
  L 150.20 39.93
  A 2.05 2.02 -88.8 0 1 152.28 37.91
  L 152.31 37.91
  A 2.16 2.16 0.0 0 1 154.41 40.05
  Q 154.52 51.53 154.61 62.50
  Q 154.62 63.48 153.13 64.56
  Z"
/>
<path fill="#030304" d="
  M 134.56 114.46
  Q 133.15 116.34 130.70 117.81
  Q 125.11 117.93 121.21 115.52
  Q 119.07 114.20 118.41 110.32
  A 1.28 1.28 0.0 0 1 118.45 109.73
  L 121.00 101.56
  A 0.57 0.55 -73.9 0 0 120.62 100.85
  L 89.56 92.25
  A 0.45 0.45 0.0 0 0 88.99 92.69
  Q 88.99 93.40 88.32 95.85
  C 87.39 99.21 86.35 105.62 81.42 105.08
  Q 79.03 104.82 76.29 103.74
  Q 70.80 101.56 72.05 95.81
  Q 73.29 90.06 74.29 87.97
  Q 75.18 86.12 75.16 84.90
  C 75.12 82.15 76.30 78.99 77.66 73.24
  C 78.55 69.50 79.74 67.08 83.63 67.28
  A 0.95 0.93 15.3 0 0 84.51 66.79
  Q 87.04 62.03 89.94 57.23
  Q 93.50 51.33 99.31 50.88
  Q 101.54 50.71 110.76 53.48
  Q 115.35 54.86 129.33 58.66
  C 137.05 60.76 139.78 66.83 139.06 74.36
  Q 138.73 77.76 138.66 81.68
  A 1.17 1.15 -78.5 0 0 139.37 82.77
  C 143.99 84.74 142.88 87.46 141.54 92.21
  Q 140.09 97.35 138.67 101.87
  A 0.17 0.02 -52.0 0 1 138.64 101.92
  L 137.45 103.77
  A 1.08 1.02 69.9 0 0 137.33 104.05
  L 134.56 114.46
  Z
  M 111.56 74.52
  Q 121.76 77.40 133.71 80.82
  A 0.47 0.46 10.5 0 0 134.30 80.42
  Q 134.92 74.46 134.63 70.47
  Q 134.24 64.89 129.71 63.46
  Q 127.63 62.81 115.82 59.47
  Q 104.01 56.13 101.89 55.60
  Q 97.29 54.44 94.03 58.99
  Q 91.70 62.24 89.10 67.64
  A 0.47 0.46 21.1 0 0 89.40 68.29
  Q 101.37 71.64 111.56 74.52
  Z
  M 138.3267 88.2926
  A 1.84 1.84 0.0 0 0 137.0533 86.0234
  L 84.4325 71.2324
  A 1.84 1.84 0.0 0 0 82.1633 72.5058
  L 79.2733 82.7874
  A 1.84 1.84 0.0 0 0 80.5467 85.0566
  L 133.1675 99.8476
  A 1.84 1.84 0.0 0 0 135.4367 98.5742
  L 138.3267 88.2926
  Z
  M 79.06 100.21
  Q 80.31 100.54 81.80 100.50
  A 1.30 1.30 0.0 0 0 83.02 99.53
  L 85.13 91.94
  A 0.80 0.80 0.0 0 0 84.54 90.95
  Q 83.11 90.60 81.74 90.23
  Q 80.38 89.86 78.96 89.45
  A 0.80 0.80 0.0 0 0 77.96 90.01
  L 75.98 97.64
  A 1.30 1.30 0.0 0 0 76.55 99.09
  Q 77.82 99.88 79.06 100.21
  Z
  M 131.90 104.24
  L 126.23 102.54
  A 1.21 1.21 0.0 0 0 124.73 103.35
  L 122.89 109.48
  A 2.41 2.34 -73.3 0 0 124.44 112.46
  L 127.94 113.51
  A 2.41 2.34 -73.3 0 0 130.88 111.88
  L 132.72 105.75
  A 1.21 1.21 0.0 0 0 131.90 104.24
  Z"
/>
<path fill="#fdedec" d="
  M 115.82 59.47
  Q 127.63 62.81 129.71 63.46
  Q 134.24 64.89 134.63 70.47
  Q 134.92 74.46 134.30 80.42
  A 0.47 0.46 10.5 0 1 133.71 80.82
  Q 121.76 77.40 111.56 74.52
  Q 101.37 71.64 89.40 68.29
  A 0.47 0.46 21.1 0 1 89.10 67.64
  Q 91.70 62.24 94.03 58.99
  Q 97.29 54.44 101.89 55.60
  Q 104.01 56.13 115.82 59.47
  Z"
/>
<path fill="#030304" d="
  M 168.72 67.90
  C 170.99 63.85 174.54 61.48 178.60 65.32
  A 2.62 2.59 -83.3 0 1 179.10 65.96
  Q 188.94 82.85 202.01 106.02
  Q 204.70 110.78 204.46 112.76
  Q 204.03 116.26 200.71 118.08
  A 2.58 2.50 -59.1 0 1 199.52 118.40
  Q 175.51 118.99 153.75 119.12
  Q 149.28 119.14 147.92 118.44
  C 144.93 116.89 143.37 113.27 145.07 110.24
  Q 155.37 91.78 168.72 67.90
  Z
  M 173.94 68.33
  Q 173.49 68.51 173.23 68.99
  Q 156.26 99.57 148.97 112.40
  A 1.32 1.32 0.0 0 0 150.12 114.37
  Q 172.91 114.40 197.60 114.19
  C 199.41 114.17 200.43 112.44 199.48 110.78
  Q 186.61 88.08 175.67 68.94
  A 1.41 1.40 -25.5 0 0 173.94 68.33
  Z"
/>
<path fill="#ffffff" d="
  M 173.94 68.33
  A 1.41 1.40 -25.5 0 1 175.67 68.94
  Q 186.61 88.08 199.48 110.78
  C 200.43 112.44 199.41 114.17 197.60 114.19
  Q 172.91 114.40 150.12 114.37
  A 1.32 1.32 0.0 0 1 148.97 112.40
  Q 156.26 99.57 173.23 68.99
  Q 173.49 68.51 173.94 68.33
  Z
  M 176.2674 85.5823
  A 2.25 2.25 0.0 0 0 173.9900 83.3599
  L 173.8701 83.3614
  A 2.25 2.25 0.0 0 0 171.6477 85.6387
  L 171.8126 99.1377
  A 2.25 2.25 0.0 0 0 174.0900 101.3601
  L 174.2099 101.3586
  A 2.25 2.25 0.0 0 0 176.4323 99.0813
  L 176.2674 85.5823
  Z
  M 177.36 107.21
  A 2.74 2.74 0.0 0 0 174.62 104.47
  A 2.74 2.74 0.0 0 0 171.88 107.21
  A 2.74 2.74 0.0 0 0 174.62 109.95
  A 2.74 2.74 0.0 0 0 177.36 107.21
  Z"
/>
<rect fill="#ffffff" x="-29.17" y="-7.18" transform="translate(108.80,85.54) rotate(15.7)" width="58.34" height="14.36" rx="1.84"/>
<rect fill="#030304" x="60.88" y="71.63" width="4.14" height="25.36" rx="2.02"/>
<path fill="#030304" d="
  M 153.52 72.71
  Q 155.28 74.72 154.65 78.48
  Q 154.49 79.46 153.05 80.30
  Q 151.61 80.43 150.78 79.17
  A 1.83 1.80 25.2 0 1 150.48 78.36
  Q 150.21 75.62 150.38 74.65
  Q 150.89 71.72 153.52 72.71
  Z"
/>
<rect fill="#030304" x="-2.31" y="-9.00" transform="translate(174.04,92.36) rotate(-0.7)" width="4.62" height="18.00" rx="2.25"/>
<path fill="#ffffff" d="
  M 81.74 90.23
  Q 83.11 90.60 84.54 90.95
  A 0.80 0.80 0.0 0 1 85.13 91.94
  L 83.02 99.53
  A 1.30 1.30 0.0 0 1 81.80 100.50
  Q 80.31 100.54 79.06 100.21
  Q 77.82 99.88 76.55 99.09
  A 1.30 1.30 0.0 0 1 75.98 97.64
  L 77.96 90.01
  A 0.80 0.80 0.0 0 1 78.96 89.45
  Q 80.38 89.86 81.74 90.23
  Z"
/>
<path fill="#ffffff" d="
  M 131.90 104.24
  A 1.21 1.21 0.0 0 1 132.72 105.75
  L 130.88 111.88
  A 2.41 2.34 -73.3 0 1 127.94 113.51
  L 124.44 112.46
  A 2.41 2.34 -73.3 0 1 122.89 109.48
  L 124.73 103.35
  A 1.21 1.21 0.0 0 1 126.23 102.54
  L 131.90 104.24
  Z"
/>
<circle fill="#030304" cx="174.62" cy="107.21" r="2.74"/>
<path fill="#030304" d="
  M 65.07 118.75
  L 64.97 129.10
  A 1.71 1.71 0.0 0 1 62.80 130.73
  L 62.27 130.59
  A 1.77 1.77 0.0 0 1 60.98 128.90
  L 60.90 115.75
  L 60.99 106.97
  A 1.69 1.69 0.0 0 1 63.13 105.35
  L 63.66 105.50
  A 1.78 1.78 0.0 0 1 64.96 107.19
  L 65.07 118.75
  Z"
/>
<path fill="#030304" d="
  M 107.40 127.75
  Q 102.61 137.48 93.23 142.47
  A 2.23 2.23 0.0 0 1 90.25 141.62
  L 90.22 141.57
  A 2.13 2.12 60.4 0 1 91.02 138.65
  Q 97.48 135.04 101.65 128.88
  Q 104.67 124.00 105.88 117.93
  A 2.06 2.06 0.0 0 1 108.45 116.34
  L 108.88 116.46
  A 1.84 1.83 -78.9 0 1 110.21 118.44
  Q 109.67 123.03 107.40 127.75
  Z"
/>
<ellipse fill="#030304" cx="0.00" cy="0.00" transform="translate(152.66,127.35) rotate(-89.3)" rx="3.28" ry="2.19"/>
<path fill="#030304" d="
  M 117.34 125.80
  Q 119.18 132.60 117.49 139.88
  Q 116.88 142.51 114.88 142.90
  A 2.20 2.20 0.0 0 1 112.35 140.09
  Q 114.22 134.03 114.19 126.40
  L 117.34 125.80
  Z"
/>
<rect fill="#030304" x="150.67" y="138.52" width="3.98" height="25.80" rx="1.95"/>
<rect fill="#030304" x="60.91" y="139.13" width="4.12" height="24.46" rx="2.01"/>
</svg>
