<?xml version="1.0" encoding="UTF-8" standalone="no"?>
<!DOCTYPE svg PUBLIC "-//W3C//DTD SVG 1.1//EN" "http://www.w3.org/Graphics/SVG/1.1/DTD/svg11.dtd">
<svg xmlns="http://www.w3.org/2000/svg" version="1.1" viewBox="0.00 0.00 209.00 212.00">
<g stroke-width="2.00" fill="none" stroke-linecap="butt">
<path stroke="#d9d8da" vector-effect="non-scaling-stroke" d="
  M 107.12 188.82
  Q 107.86 188.82 108.62 188.38
  C 111.43 186.75 116.20 183.56 116.37 180.37
  Q 116.50 177.87 116.46 170.20
  A 2.33 2.29 -22.8 0 1 117.14 168.57
  C 118.65 167.08 119.44 165.26 119.46 162.88
  Q 119.51 154.88 119.47 148.88
  A 0.85 0.85 0.0 0 1 120.27 148.02
  Q 135.04 146.97 142.32 134.67
  C 144.62 130.78 145.69 125.67 146.35 121.37
  C 149.63 100.01 150.35 77.98 146.49 57.02
  Q 145.18 49.90 144.08 46.84
  Q 137.59 28.82 118.23 27.97
  Q 114.13 27.79 107.33 27.78
  Q 100.53 27.77 96.43 27.94
  Q 77.07 28.74 70.53 46.74
  Q 69.42 49.80 68.09 56.92
  C 64.18 77.87 64.84 99.90 68.06 121.27
  C 68.71 125.57 69.77 130.68 72.06 134.58
  Q 79.30 146.90 94.07 147.99
  A 0.85 0.85 0.0 0 1 94.87 148.85
  Q 94.81 154.85 94.84 162.85
  C 94.85 165.23 95.64 167.05 97.15 168.54
  A 2.33 2.29 23.0 0 1 97.82 170.18
  Q 97.76 177.85 97.88 180.35
  C 98.05 183.54 102.81 186.74 105.61 188.37
  Q 106.37 188.82 107.12 188.82"
/>
<path stroke="#d9d8da" vector-effect="non-scaling-stroke" d="
  M 107.12 143.89
  Q 118.17 143.91 125.45 142.08
  Q 132.48 140.31 137.41 133.32
  C 141.11 128.07 141.87 119.75 142.66 112.75
  C 144.97 92.18 145.20 70.19 139.95 50.30
  Q 136.42 36.95 123.86 33.65
  C 119.17 32.41 113.39 32.79 107.33 32.78
  C 101.27 32.77 95.49 32.37 90.79 33.58
  Q 78.22 36.84 74.64 50.18
  C 69.32 70.05 69.47 92.04 71.70 112.62
  C 72.47 119.62 73.20 127.94 76.88 133.21
  Q 81.78 140.22 88.80 142.01
  Q 96.07 143.87 107.12 143.89"
/>
<path stroke="#d9d8da" vector-effect="non-scaling-stroke" d="
  M 102.81 179.11
  A 0.40 0.40 0.0 0 0 102.86 179.31
  L 104.21 181.65
  A 0.40 0.40 0.0 0 0 104.96 181.45
  L 104.96 149.10
  A 0.40 0.40 0.0 0 0 104.56 148.70
  L 100.25 148.70
  A 0.40 0.40 0.0 0 0 99.85 149.10
  L 99.85 163.04
  A 0.40 0.40 0.0 0 0 99.90 163.24
  L 102.76 168.19
  A 0.40 0.40 0.0 0 1 102.81 168.39
  L 102.81 179.11"
/>
<path stroke="#d9d8da" vector-effect="non-scaling-stroke" d="
  M 110.53 180.68
  Q 110.70 180.66 111.10 180.17
  Q 111.53 179.63 111.52 178.96
  C 111.37 173.11 110.73 169.14 114.09 164.09
  A 2.83 2.82 -28.3 0 0 114.56 162.53
  L 114.56 149.33
  A 0.64 0.64 0.0 0 0 113.92 148.69
  L 110.81 148.69
  A 0.57 0.57 0.0 0 0 110.24 149.25
  L 109.96 180.12
  A 0.56 0.56 0.0 0 0 110.53 180.68"
/>
<path stroke="#d9d8da" vector-effect="non-scaling-stroke" d="
  M 115.3006 43.1633
  A 2.01 2.01 0.0 0 0 113.2941 41.1498
  L 102.1141 41.1302
  A 2.01 2.01 0.0 0 0 100.1006 43.1367
  L 100.0994 43.8167
  A 2.01 2.01 0.0 0 0 102.1059 45.8302
  L 113.2859 45.8498
  A 2.01 2.01 0.0 0 0 115.2994 43.8433
  L 115.3006 43.1633"
/>
<path stroke="#d9d8da" vector-effect="non-scaling-stroke" d="
  M 106.96 135.44
  C 117.61 135.50 127.42 135.82 131.44 123.70
  Q 132.96 119.13 133.42 114.74
  Q 135.65 93.43 134.47 72.26
  C 133.95 62.95 129.70 55.50 119.58 54.71
  Q 111.20 54.05 107.45 54.03
  Q 103.70 54.01 95.32 54.56
  C 85.19 55.23 80.85 62.63 80.22 71.93
  Q 78.78 93.08 80.75 114.42
  Q 81.16 118.82 82.62 123.41
  C 86.50 135.58 96.31 135.37 106.96 135.44"
/>
<path stroke="#d9d8da" vector-effect="non-scaling-stroke" d="
  M 84.99 80.92
  L 129.61 80.92
  A 0.62 0.62 0.0 0 0 130.23 80.30
  L 130.23 72.02
  A 13.41 13.08 0.0 0 0 116.82 58.94
  L 97.78 58.94
  A 13.41 13.08 0.0 0 0 84.37 72.02
  L 84.37 80.30
  A 0.62 0.62 0.0 0 0 84.99 80.92"
/>
<path stroke="#d9d8da" vector-effect="non-scaling-stroke" d="
  M 130.18 86.10
  A 0.32 0.32 0.0 0 0 129.86 85.78
  L 84.64 85.78
  A 0.32 0.32 0.0 0 0 84.32 86.10
  L 84.32 106.03
  A 0.32 0.32 0.0 0 0 84.64 106.35
  L 129.86 106.35
  A 0.32 0.32 0.0 0 0 130.18 106.03
  L 130.18 86.10"
/>
<path stroke="#d9d8da" vector-effect="non-scaling-stroke" d="
  M 128.86 111.06
  L 85.44 111.14
  A 0.24 0.24 0.0 0 0 85.20 111.38
  L 85.21 114.73
  A 16.15 13.71 89.9 0 0 98.95 130.85
  L 115.43 130.83
  A 16.15 13.71 89.9 0 0 129.11 114.65
  L 129.10 111.30
  A 0.24 0.24 0.0 0 0 128.86 111.06"
/>
<path stroke="#d9d8da" vector-effect="non-scaling-stroke" d="
  M 117.0602 70.6431
  A 2.24 2.24 0.0 0 0 114.8280 68.3953
  L 100.3281 68.3447
  A 2.24 2.24 0.0 0 0 98.0803 70.5769
  L 98.0798 70.7169
  A 2.24 2.24 0.0 0 0 100.3120 72.9647
  L 114.8119 73.0153
  A 2.24 2.24 0.0 0 0 117.0597 70.7831
  L 117.0602 70.6431"
/>
<path stroke="#d9d8da" vector-effect="non-scaling-stroke" d="
  M 117.1397 96.5068
  A 2.19 2.19 0.0 0 0 114.9421 94.3244
  L 100.2822 94.3756
  A 2.19 2.19 0.0 0 0 98.0998 96.5732
  L 98.1003 96.7132
  A 2.19 2.19 0.0 0 0 100.2979 98.8956
  L 114.9578 98.8444
  A 2.19 2.19 0.0 0 0 117.1402 96.6468
  L 117.1397 96.5068"
/>
<path stroke="#d9d8da" vector-effect="non-scaling-stroke" d="
  M 116.8699 120.7429
  A 2.04 2.04 0.0 0 0 114.8263 118.7065
  L 99.3063 118.7335
  A 2.04 2.04 0.0 0 0 97.2699 120.7771
  L 97.2701 120.9171
  A 2.04 2.04 0.0 0 0 99.3137 122.9535
  L 114.8337 122.9265
  A 2.04 2.04 0.0 0 0 116.8701 120.8829
  L 116.8699 120.7429"
/>
</g>
<path fill="#ffffff" d="
  M 209.00 0.00
  L 209.00 212.00
  L 0.00 212.00
  L 0.00 0.00
  L 209.00 0.00
  Z
  M 107.12 188.82
  Q 107.86 188.82 108.62 188.38
  C 111.43 186.75 116.20 183.56 116.37 180.37
  Q 116.50 177.87 116.46 170.20
  A 2.33 2.29 -22.8 0 1 117.14 168.57
  C 118.65 167.08 119.44 165.26 119.46 162.88
  Q 119.51 154.88 119.47 148.88
  A 0.85 0.85 0.0 0 1 120.27 148.02
  Q 135.04 146.97 142.32 134.67
  C 144.62 130.78 145.69 125.67 146.35 121.37
  C 149.63 100.01 150.35 77.98 146.49 57.02
  Q 145.18 49.90 144.08 46.84
  Q 137.59 28.82 118.23 27.97
  Q 114.13 27.79 107.33 27.78
  Q 100.53 27.77 96.43 27.94
  Q 77.07 28.74 70.53 46.74
  Q 69.42 49.80 68.09 56.92
  C 64.18 77.87 64.84 99.90 68.06 121.27
  C 68.71 125.57 69.77 130.68 72.06 134.58
  Q 79.30 146.90 94.07 147.99
  A 0.85 0.85 0.0 0 1 94.87 148.85
  Q 94.81 154.85 94.84 162.85
  C 94.85 165.23 95.64 167.05 97.15 168.54
  A 2.33 2.29 23.0 0 1 97.82 170.18
  Q 97.76 177.85 97.88 180.35
  C 98.05 183.54 102.81 186.74 105.61 188.37
  Q 106.37 188.82 107.12 188.82
  Z"
/>
<path fill="#b2b0b4" d="
  M 107.33 27.78
  Q 114.13 27.79 118.23 27.97
  Q 137.59 28.82 144.08 46.84
  Q 145.18 49.90 146.49 57.02
  C 150.35 77.98 149.63 100.01 146.35 121.37
  C 145.69 125.67 144.62 130.78 142.32 134.67
  Q 135.04 146.97 120.27 148.02
  A 0.85 0.85 0.0 0 0 119.47 148.88
  Q 119.51 154.88 119.46 162.88
  C 119.44 165.26 118.65 167.08 117.14 168.57
  A 2.33 2.29 -22.8 0 0 116.46 170.20
  Q 116.50 177.87 116.37 180.37
  C 116.20 183.56 111.43 186.75 108.62 188.38
  Q 107.86 188.82 107.12 188.82
  Q 106.37 188.82 105.61 188.37
  C 102.81 186.74 98.05 183.54 97.88 180.35
  Q 97.76 177.85 97.82 170.18
  A 2.33 2.29 23.0 0 0 97.15 168.54
  C 95.64 167.05 94.85 165.23 94.84 162.85
  Q 94.81 154.85 94.87 148.85
  A 0.85 0.85 0.0 0 0 94.07 147.99
  Q 79.30 146.90 72.06 134.58
  C 69.77 130.68 68.71 125.57 68.06 121.27
  C 64.84 99.90 64.18 77.87 68.09 56.92
  Q 69.42 49.80 70.53 46.74
  Q 77.07 28.74 96.43 27.94
  Q 100.53 27.77 107.33 27.78
  Z
  M 107.12 143.89
  Q 118.17 143.91 125.45 142.08
  Q 132.48 140.31 137.41 133.32
  C 141.11 128.07 141.87 119.75 142.66 112.75
  C 144.97 92.18 145.20 70.19 139.95 50.30
  Q 136.42 36.95 123.86 33.65
  C 119.17 32.41 113.39 32.79 107.33 32.78
  C 101.27 32.77 95.49 32.37 90.79 33.58
  Q 78.22 36.84 74.64 50.18
  C 69.32 70.05 69.47 92.04 71.70 112.62
  C 72.47 119.62 73.20 127.94 76.88 133.21
  Q 81.78 140.22 88.80 142.01
  Q 96.07 143.87 107.12 143.89
  Z
  M 102.81 179.11
  A 0.40 0.40 0.0 0 0 102.86 179.31
  L 104.21 181.65
  A 0.40 0.40 0.0 0 0 104.96 181.45
  L 104.96 149.10
  A 0.40 0.40 0.0 0 0 104.56 148.70
  L 100.25 148.70
  A 0.40 0.40 0.0 0 0 99.85 149.10
  L 99.85 163.04
  A 0.40 0.40 0.0 0 0 99.90 163.24
  L 102.76 168.19
  A 0.40 0.40 0.0 0 1 102.81 168.39
  L 102.81 179.11
  Z
  M 110.53 180.68
  Q 110.70 180.66 111.10 180.17
  Q 111.53 179.63 111.52 178.96
  C 111.37 173.11 110.73 169.14 114.09 164.09
  A 2.83 2.82 -28.3 0 0 114.56 162.53
  L 114.56 149.33
  A 0.64 0.64 0.0 0 0 113.92 148.69
  L 110.81 148.69
  A 0.57 0.57 0.0 0 0 110.24 149.25
  L 109.96 180.12
  A 0.56 0.56 0.0 0 0 110.53 180.68
  Z"
/>
<path fill="#ffffff" d="
  M 107.33 32.78
  C 113.39 32.79 119.17 32.41 123.86 33.65
  Q 136.42 36.95 139.95 50.30
  C 145.20 70.19 144.97 92.18 142.66 112.75
  C 141.87 119.75 141.11 128.07 137.41 133.32
  Q 132.48 140.31 125.45 142.08
  Q 118.17 143.91 107.12 143.89
  Q 96.07 143.87 88.80 142.01
  Q 81.78 140.22 76.88 133.21
  C 73.20 127.94 72.47 119.62 71.70 112.62
  C 69.47 92.04 69.32 70.05 74.64 50.18
  Q 78.22 36.84 90.79 33.58
  C 95.49 32.37 101.27 32.77 107.33 32.78
  Z
  M 115.3006 43.1633
  A 2.01 2.01 0.0 0 0 113.2941 41.1498
  L 102.1141 41.1302
  A 2.01 2.01 0.0 0 0 100.1006 43.1367
  L 100.0994 43.8167
  A 2.01 2.01 0.0 0 0 102.1059 45.8302
  L 113.2859 45.8498
  A 2.01 2.01 0.0 0 0 115.2994 43.8433
  L 115.3006 43.1633
  Z
  M 106.96 135.44
  C 117.61 135.50 127.42 135.82 131.44 123.70
  Q 132.96 119.13 133.42 114.74
  Q 135.65 93.43 134.47 72.26
  C 133.95 62.95 129.70 55.50 119.58 54.71
  Q 111.20 54.05 107.45 54.03
  Q 103.70 54.01 95.32 54.56
  C 85.19 55.23 80.85 62.63 80.22 71.93
  Q 78.78 93.08 80.75 114.42
  Q 81.16 118.82 82.62 123.41
  C 86.50 135.58 96.31 135.37 106.96 135.44
  Z"
/>
<rect fill="#b2b0b4" x="-7.60" y="-2.35" transform="translate(107.70,43.49) rotate(0.1)" width="15.20" height="4.70" rx="2.01"/>
<path fill="#b2b0b4" d="
  M 107.45 54.03
  Q 111.20 54.05 119.58 54.71
  C 129.70 55.50 133.95 62.95 134.47 72.26
  Q 135.65 93.43 133.42 114.74
  Q 132.96 119.13 131.44 123.70
  C 127.42 135.82 117.61 135.50 106.96 135.44
  C 96.31 135.37 86.50 135.58 82.62 123.41
  Q 81.16 118.82 80.75 114.42
  Q 78.78 93.08 80.22 71.93
  C 80.85 62.63 85.19 55.23 95.32 54.56
  Q 103.70 54.01 107.45 54.03
  Z
  M 84.99 80.92
  L 129.61 80.92
  A 0.62 0.62 0.0 0 0 130.23 80.30
  L 130.23 72.02
  A 13.41 13.08 0.0 0 0 116.82 58.94
  L 97.78 58.94
  A 13.41 13.08 0.0 0 0 84.37 72.02
  L 84.37 80.30
  A 0.62 0.62 0.0 0 0 84.99 80.92
  Z
  M 130.18 86.10
  A 0.32 0.32 0.0 0 0 129.86 85.78
  L 84.64 85.78
  A 0.32 0.32 0.0 0 0 84.32 86.10
  L 84.32 106.03
  A 0.32 0.32 0.0 0 0 84.64 106.35
  L 129.86 106.35
  A 0.32 0.32 0.0 0 0 130.18 106.03
  L 130.18 86.10
  Z
  M 128.86 111.06
  L 85.44 111.14
  A 0.24 0.24 0.0 0 0 85.20 111.38
  L 85.21 114.73
  A 16.15 13.71 89.9 0 0 98.95 130.85
  L 115.43 130.83
  A 16.15 13.71 89.9 0 0 129.11 114.65
  L 129.10 111.30
  A 0.24 0.24 0.0 0 0 128.86 111.06
  Z"
/>
<path fill="#ffffff" d="
  M 84.99 80.92
  A 0.62 0.62 0.0 0 1 84.37 80.30
  L 84.37 72.02
  A 13.41 13.08 0.0 0 1 97.78 58.94
  L 116.82 58.94
  A 13.41 13.08 -0.0 0 1 130.23 72.02
  L 130.23 80.30
  A 0.62 0.62 0.0 0 1 129.61 80.92
  L 84.99 80.92
  Z
  M 117.0602 70.6431
  A 2.24 2.24 0.0 0 0 114.8280 68.3953
  L 100.3281 68.3447
  A 2.24 2.24 0.0 0 0 98.0803 70.5769
  L 98.0798 70.7169
  A 2.24 2.24 0.0 0 0 100.3120 72.9647
  L 114.8119 73.0153
  A 2.24 2.24 0.0 0 0 117.0597 70.7831
  L 117.0602 70.6431
  Z"
/>
<rect fill="#b2b0b4" x="-9.49" y="-2.31" transform="translate(107.57,70.68) rotate(0.2)" width="18.98" height="4.62" rx="2.24"/>
<path fill="#ffffff" d="
  M 130.18 86.10
  L 130.18 106.03
  A 0.32 0.32 0.0 0 1 129.86 106.35
  L 84.64 106.35
  A 0.32 0.32 0.0 0 1 84.32 106.03
  L 84.32 86.10
  A 0.32 0.32 0.0 0 1 84.64 85.78
  L 129.86 85.78
  A 0.32 0.32 0.0 0 1 130.18 86.10
  Z
  M 117.1397 96.5068
  A 2.19 2.19 0.0 0 0 114.9421 94.3244
  L 100.2822 94.3756
  A 2.19 2.19 0.0 0 0 98.0998 96.5732
  L 98.1003 96.7132
  A 2.19 2.19 0.0 0 0 100.2979 98.8956
  L 114.9578 98.8444
  A 2.19 2.19 0.0 0 0 117.1402 96.6468
  L 117.1397 96.5068
  Z"
/>
<rect fill="#b2b0b4" x="-9.52" y="-2.26" transform="translate(107.62,96.61) rotate(-0.2)" width="19.04" height="4.52" rx="2.19"/>
<path fill="#ffffff" d="
  M 128.86 111.06
  A 0.24 0.24 0.0 0 1 129.10 111.30
  L 129.11 114.65
  A 16.15 13.71 89.9 0 1 115.43 130.83
  L 98.95 130.85
  A 16.15 13.71 89.9 0 1 85.21 114.73
  L 85.20 111.38
  A 0.24 0.24 0.0 0 1 85.44 111.14
  L 128.86 111.06
  Z
  M 116.8699 120.7429
  A 2.04 2.04 0.0 0 0 114.8263 118.7065
  L 99.3063 118.7335
  A 2.04 2.04 0.0 0 0 97.2699 120.7771
  L 97.2701 120.9171
  A 2.04 2.04 0.0 0 0 99.3137 122.9535
  L 114.8337 122.9265
  A 2.04 2.04 0.0 0 0 116.8701 120.8829
  L 116.8699 120.7429
  Z"
/>
<rect fill="#b2b0b4" x="-9.80" y="-2.11" transform="translate(107.07,120.83) rotate(-0.1)" width="19.60" height="4.22" rx="2.04"/>
<path fill="#ffffff" d="
  M 102.81 179.11
  L 102.81 168.39
  A 0.40 0.40 0.0 0 0 102.76 168.19
  L 99.90 163.24
  A 0.40 0.40 0.0 0 1 99.85 163.04
  L 99.85 149.10
  A 0.40 0.40 0.0 0 1 100.25 148.70
  L 104.56 148.70
  A 0.40 0.40 0.0 0 1 104.96 149.10
  L 104.96 181.45
  A 0.40 0.40 0.0 0 1 104.21 181.65
  L 102.86 179.31
  A 0.40 0.40 0.0 0 1 102.81 179.11
  Z"
/>
<path fill="#ffffff" d="
  M 109.96 180.12
  L 110.24 149.25
  A 0.57 0.57 0.0 0 1 110.81 148.69
  L 113.92 148.69
  A 0.64 0.64 0.0 0 1 114.56 149.33
  L 114.56 162.53
  A 2.83 2.82 -28.3 0 1 114.09 164.09
  C 110.73 169.14 111.37 173.11 111.52 178.96
  Q 111.53 179.63 111.10 180.17
  Q 110.70 180.66 110.53 180.68
  A 0.56 0.56 0.0 0 1 109.96 180.12
  Z"
/>
</svg>
