<?xml version="1.0" encoding="UTF-8" standalone="no"?>
<!DOCTYPE svg PUBLIC "-//W3C//DTD SVG 1.1//EN" "http://www.w3.org/Graphics/SVG/1.1/DTD/svg11.dtd">
<svg xmlns="http://www.w3.org/2000/svg" version="1.1" viewBox="0.00 0.00 195.00 186.00">
<g stroke-width="2.00" fill="none" stroke-linecap="butt">
<path stroke="#818181" vector-effect="non-scaling-stroke" d="
  M 136.96 102.84
  C 144.34 112.82 158.02 112.34 164.17 101.29
  A 1.11 1.11 0.0 0 1 165.17 100.73
  C 169.86 100.87 174.33 100.27 178.36 97.93
  Q 183.03 95.23 183.79 91.48
  Q 184.39 88.55 183.82 78.70
  A 3.75 3.59 35.0 0 0 183.63 77.74
  C 180.79 69.30 170.14 68.00 162.56 67.11
  Q 157.85 66.55 154.60 64.66
  Q 145.51 59.40 137.80 51.69
  Q 135.92 49.81 129.48 46.58"
/>
<path stroke="#fef6f6" vector-effect="non-scaling-stroke" d="
  M 129.48 46.58
  Q 118.35 31.94 102.04 26.78
  C 61.10 13.82 20.91 48.54 29.20 91.35
  C 37.28 133.11 86.97 151.07 119.95 124.42
  Q 128.51 117.49 132.92 109.66
  Q 135.73 104.65 136.96 102.84"
/>
<path stroke="#807878" vector-effect="non-scaling-stroke" d="
  M 129.48 46.58
  Q 124.48 45.97 120.52 45.87
  Q 103.77 45.45 95.56 45.57
  C 90.45 45.65 85.69 46.45 81.80 48.56
  C 72.65 53.51 66.66 63.05 56.13 65.87
  Q 53.97 66.45 50.03 66.95
  C 44.19 67.69 39.06 70.41 35.81 75.04
  C 32.94 79.13 33.24 82.77 33.30 87.87
  Q 33.35 91.62 34.50 93.44
  C 38.75 100.23 49.52 99.16 55.40 99.06
  A 0.79 0.78 -12.2 0 1 56.14 99.53
  Q 59.69 107.68 66.66 109.34
  Q 72.95 110.85 77.64 108.42
  Q 86.38 103.90 86.36 93.25
  A 0.54 0.54 0.0 0 1 86.82 92.72
  Q 88.84 92.42 89.26 91.97
  Q 92.10 88.98 92.28 84.77
  A 0.71 0.71 0.0 0 1 93.59 84.41
  Q 95.38 87.13 96.03 90.24
  A 3.18 2.84 87.4 0 0 98.42 92.69
  Q 101.92 93.26 103.49 89.97
  Q 105.25 86.27 106.12 81.54
  Q 107.14 76.02 99.81 71.30
  A 2.46 2.46 0.0 0 0 96.64 71.73
  L 96.61 71.76
  A 2.00 2.00 0.0 0 0 96.96 74.73
  Q 102.60 78.66 101.64 81.51
  Q 100.73 84.19 100.38 86.80
  A 0.55 0.55 0.0 0 1 99.31 86.90
  Q 97.97 82.94 94.49 79.80
  C 92.43 77.95 89.92 78.73 89.22 81.11
  Q 88.11 84.94 86.57 88.43
  A 0.74 0.74 0.0 0 1 85.23 88.45
  C 77.90 73.11 56.68 76.79 55.42 93.90
  A 0.66 0.65 0.5 0 1 54.80 94.50
  Q 46.96 94.83 45.18 94.35
  C 42.07 93.53 38.61 92.55 38.00 89.52
  C 37.39 86.44 37.87 80.02 40.25 77.11
  C 43.84 72.73 47.64 71.88 54.03 70.77
  Q 61.60 69.47 66.28 66.24
  Q 71.11 62.90 77.40 57.18
  Q 81.80 53.19 87.48 51.17
  Q 90.70 50.02 99.13 50.03
  Q 118.74 50.06 121.25 50.07
  Q 129.71 50.10 136.57 56.94"
/>
<path stroke="#fef6f6" vector-effect="non-scaling-stroke" d="
  M 136.57 56.94
  Q 137.91 62.22 139.37 67.38
  Q 140.73 72.18 141.23 81.48"
/>
<path stroke="#807878" vector-effect="non-scaling-stroke" d="
  M 141.23 81.48
  Q 130.82 90.15 136.96 102.84"
/>
<path stroke="#818181" vector-effect="non-scaling-stroke" d="
  M 141.23 81.48
  Q 148.33 77.00 155.18 79.55
  Q 165.20 83.29 165.86 95.38
  A 0.58 0.58 0.0 0 0 166.38 95.93
  C 170.58 96.36 176.44 94.94 178.89 91.23
  A 2.02 1.89 65.7 0 0 179.21 90.29
  C 179.65 85.35 180.80 78.39 177.17 76.00
  Q 172.53 72.94 166.49 72.20
  Q 159.03 71.28 158.27 71.05
  C 150.00 68.57 142.85 62.65 136.57 56.94"
/>
<path stroke="#807878" vector-effect="non-scaling-stroke" d="
  M 120.41 79.63
  Q 120.59 83.63 120.19 85.25
  Q 118.52 91.96 114.40 97.69
  A 2.08 2.08 0.0 0 0 114.83 100.57
  L 114.90 100.61
  A 2.07 2.07 0.0 0 0 117.78 100.24
  Q 123.02 93.59 124.87 85.29
  Q 125.19 83.90 124.99 79.43
  Q 124.79 74.96 124.36 73.60
  Q 121.79 65.50 115.99 59.33
  A 2.07 2.07 0.0 0 0 113.09 59.21
  L 113.02 59.26
  A 2.08 2.08 0.0 0 0 112.85 62.17
  Q 117.45 67.51 119.70 74.06
  Q 120.24 75.63 120.41 79.63"
/>
<path stroke="#807878" vector-effect="non-scaling-stroke" d="
  M 104.82 68.12
  C 106.61 69.97 109.13 71.93 110.22 74.41
  C 113.21 81.19 110.25 88.14 106.48 93.89
  A 2.07 2.07 0.0 0 0 107.10 96.77
  L 107.12 96.78
  A 2.20 2.20 0.0 0 0 110.08 96.22
  C 117.62 85.86 119.08 74.45 108.35 65.27
  A 2.32 2.30 50.1 0 0 105.69 65.02
  L 105.21 65.30
  A 1.80 1.80 0.0 0 0 104.82 68.12"
/>
<path stroke="#818181" vector-effect="non-scaling-stroke" d="
  M 69.6849 83.6752
  A 10.80 10.59 -96.3 0 0 60.3440 95.5721
  A 10.80 10.59 -96.3 0 0 72.0551 105.1448
  A 10.80 10.59 -96.3 0 0 81.3960 93.2479
  A 10.80 10.59 -96.3 0 0 69.6849 83.6752"
/>
<path stroke="#818181" vector-effect="non-scaling-stroke" d="
  M 151.1703 83.7095
  A 10.75 10.63 -84.5 0 0 139.5589 93.3912
  A 10.75 10.63 -84.5 0 0 149.1097 105.1105
  A 10.75 10.63 -84.5 0 0 160.7211 95.4288
  A 10.75 10.63 -84.5 0 0 151.1703 83.7095"
/>
</g>
<path fill="#ffffff" d="
  M 195.00 0.00
  L 195.00 186.00
  L 0.00 186.00
  L 0.00 0.00
  L 195.00 0.00
  Z
  M 136.96 102.84
  C 144.34 112.82 158.02 112.34 164.17 101.29
  A 1.11 1.11 0.0 0 1 165.17 100.73
  C 169.86 100.87 174.33 100.27 178.36 97.93
  Q 183.03 95.23 183.79 91.48
  Q 184.39 88.55 183.82 78.70
  A 3.75 3.59 35.0 0 0 183.63 77.74
  C 180.79 69.30 170.14 68.00 162.56 67.11
  Q 157.85 66.55 154.60 64.66
  Q 145.51 59.40 137.80 51.69
  Q 135.92 49.81 129.48 46.58
  Q 118.35 31.94 102.04 26.78
  C 61.10 13.82 20.91 48.54 29.20 91.35
  C 37.28 133.11 86.97 151.07 119.95 124.42
  Q 128.51 117.49 132.92 109.66
  Q 135.73 104.65 136.96 102.84
  Z"
/>
<path fill="#fdedec" d="
  M 129.48 46.58
  Q 124.48 45.97 120.52 45.87
  Q 103.77 45.45 95.56 45.57
  C 90.45 45.65 85.69 46.45 81.80 48.56
  C 72.65 53.51 66.66 63.05 56.13 65.87
  Q 53.97 66.45 50.03 66.95
  C 44.19 67.69 39.06 70.41 35.81 75.04
  C 32.94 79.13 33.24 82.77 33.30 87.87
  Q 33.35 91.62 34.50 93.44
  C 38.75 100.23 49.52 99.16 55.40 99.06
  A 0.79 0.78 -12.2 0 1 56.14 99.53
  Q 59.69 107.68 66.66 109.34
  Q 72.95 110.85 77.64 108.42
  Q 86.38 103.90 86.36 93.25
  A 0.54 0.54 0.0 0 1 86.82 92.72
  Q 88.84 92.42 89.26 91.97
  Q 92.10 88.98 92.28 84.77
  A 0.71 0.71 0.0 0 1 93.59 84.41
  Q 95.38 87.13 96.03 90.24
  A 3.18 2.84 87.4 0 0 98.42 92.69
  Q 101.92 93.26 103.49 89.97
  Q 105.25 86.27 106.12 81.54
  Q 107.14 76.02 99.81 71.30
  A 2.46 2.46 0.0 0 0 96.64 71.73
  L 96.61 71.76
  A 2.00 2.00 0.0 0 0 96.96 74.73
  Q 102.60 78.66 101.64 81.51
  Q 100.73 84.19 100.38 86.80
  A 0.55 0.55 0.0 0 1 99.31 86.90
  Q 97.97 82.94 94.49 79.80
  C 92.43 77.95 89.92 78.73 89.22 81.11
  Q 88.11 84.94 86.57 88.43
  A 0.74 0.74 0.0 0 1 85.23 88.45
  C 77.90 73.11 56.68 76.79 55.42 93.90
  A 0.66 0.65 0.5 0 1 54.80 94.50
  Q 46.96 94.83 45.18 94.35
  C 42.07 93.53 38.61 92.55 38.00 89.52
  C 37.39 86.44 37.87 80.02 40.25 77.11
  C 43.84 72.73 47.64 71.88 54.03 70.77
  Q 61.60 69.47 66.28 66.24
  Q 71.11 62.90 77.40 57.18
  Q 81.80 53.19 87.48 51.17
  Q 90.70 50.02 99.13 50.03
  Q 118.74 50.06 121.25 50.07
  Q 129.71 50.10 136.57 56.94
  Q 137.91 62.22 139.37 67.38
  Q 140.73 72.18 141.23 81.48
  Q 130.82 90.15 136.96 102.84
  Q 135.73 104.65 132.92 109.66
  Q 128.51 117.49 119.95 124.42
  C 86.97 151.07 37.28 133.11 29.20 91.35
  C 20.91 48.54 61.10 13.82 102.04 26.78
  Q 118.35 31.94 129.48 46.58
  Z
  M 120.41 79.63
  Q 120.59 83.63 120.19 85.25
  Q 118.52 91.96 114.40 97.69
  A 2.08 2.08 0.0 0 0 114.83 100.57
  L 114.90 100.61
  A 2.07 2.07 0.0 0 0 117.78 100.24
  Q 123.02 93.59 124.87 85.29
  Q 125.19 83.90 124.99 79.43
  Q 124.79 74.96 124.36 73.60
  Q 121.79 65.50 115.99 59.33
  A 2.07 2.07 0.0 0 0 113.09 59.21
  L 113.02 59.26
  A 2.08 2.08 0.0 0 0 112.85 62.17
  Q 117.45 67.51 119.70 74.06
  Q 120.24 75.63 120.41 79.63
  Z
  M 104.82 68.12
  C 106.61 69.97 109.13 71.93 110.22 74.41
  C 113.21 81.19 110.25 88.14 106.48 93.89
  A 2.07 2.07 0.0 0 0 107.10 96.77
  L 107.12 96.78
  A 2.20 2.20 0.0 0 0 110.08 96.22
  C 117.62 85.86 119.08 74.45 108.35 65.27
  A 2.32 2.30 50.1 0 0 105.69 65.02
  L 105.21 65.30
  A 1.80 1.80 0.0 0 0 104.82 68.12
  Z"
/>
<path fill="#030303" d="
  M 129.48 46.58
  Q 135.92 49.81 137.80 51.69
  Q 145.51 59.40 154.60 64.66
  Q 157.85 66.55 162.56 67.11
  C 170.14 68.00 180.79 69.30 183.63 77.74
  A 3.75 3.59 35.0 0 1 183.82 78.70
  Q 184.39 88.55 183.79 91.48
  Q 183.03 95.23 178.36 97.93
  C 174.33 100.27 169.86 100.87 165.17 100.73
  A 1.11 1.11 0.0 0 0 164.17 101.29
  C 158.02 112.34 144.34 112.82 136.96 102.84
  Q 130.82 90.15 141.23 81.48
  Q 148.33 77.00 155.18 79.55
  Q 165.20 83.29 165.86 95.38
  A 0.58 0.58 0.0 0 0 166.38 95.93
  C 170.58 96.36 176.44 94.94 178.89 91.23
  A 2.02 1.89 65.7 0 0 179.21 90.29
  C 179.65 85.35 180.80 78.39 177.17 76.00
  Q 172.53 72.94 166.49 72.20
  Q 159.03 71.28 158.27 71.05
  C 150.00 68.57 142.85 62.65 136.57 56.94
  Q 129.71 50.10 121.25 50.07
  Q 118.74 50.06 99.13 50.03
  Q 90.70 50.02 87.48 51.17
  Q 81.80 53.19 77.40 57.18
  Q 71.11 62.90 66.28 66.24
  Q 61.60 69.47 54.03 70.77
  C 47.64 71.88 43.84 72.73 40.25 77.11
  C 37.87 80.02 37.39 86.44 38.00 89.52
  C 38.61 92.55 42.07 93.53 45.18 94.35
  Q 46.96 94.83 54.80 94.50
  A 0.66 0.65 0.5 0 0 55.42 93.90
  C 56.68 76.79 77.90 73.11 85.23 88.45
  A 0.74 0.74 0.0 0 0 86.57 88.43
  Q 88.11 84.94 89.22 81.11
  C 89.92 78.73 92.43 77.95 94.49 79.80
  Q 97.97 82.94 99.31 86.90
  A 0.55 0.55 0.0 0 0 100.38 86.80
  Q 100.73 84.19 101.64 81.51
  Q 102.60 78.66 96.96 74.73
  A 2.00 2.00 0.0 0 1 96.61 71.76
  L 96.64 71.73
  A 2.46 2.46 0.0 0 1 99.81 71.30
  Q 107.14 76.02 106.12 81.54
  Q 105.25 86.27 103.49 89.97
  Q 101.92 93.26 98.42 92.69
  A 3.18 2.84 87.4 0 1 96.03 90.24
  Q 95.38 87.13 93.59 84.41
  A 0.71 0.71 0.0 0 0 92.28 84.77
  Q 92.10 88.98 89.26 91.97
  Q 88.84 92.42 86.82 92.72
  A 0.54 0.54 0.0 0 0 86.36 93.25
  Q 86.38 103.90 77.64 108.42
  Q 72.95 110.85 66.66 109.34
  Q 59.69 107.68 56.14 99.53
  A 0.79 0.78 -12.2 0 0 55.40 99.06
  C 49.52 99.16 38.75 100.23 34.50 93.44
  Q 33.35 91.62 33.30 87.87
  C 33.24 82.77 32.94 79.13 35.81 75.04
  C 39.06 70.41 44.19 67.69 50.03 66.95
  Q 53.97 66.45 56.13 65.87
  C 66.66 63.05 72.65 53.51 81.80 48.56
  C 85.69 46.45 90.45 45.65 95.56 45.57
  Q 103.77 45.45 120.52 45.87
  Q 124.48 45.97 129.48 46.58
  Z
  M 69.6849 83.6752
  A 10.80 10.59 -96.3 0 0 60.3440 95.5721
  A 10.80 10.59 -96.3 0 0 72.0551 105.1448
  A 10.80 10.59 -96.3 0 0 81.3960 93.2479
  A 10.80 10.59 -96.3 0 0 69.6849 83.6752
  Z
  M 151.1703 83.7095
  A 10.75 10.63 -84.5 0 0 139.5589 93.3912
  A 10.75 10.63 -84.5 0 0 149.1097 105.1105
  A 10.75 10.63 -84.5 0 0 160.7211 95.4288
  A 10.75 10.63 -84.5 0 0 151.1703 83.7095
  Z"
/>
<path fill="#ffffff" d="
  M 141.23 81.48
  Q 140.73 72.18 139.37 67.38
  Q 137.91 62.22 136.57 56.94
  C 142.85 62.65 150.00 68.57 158.27 71.05
  Q 159.03 71.28 166.49 72.20
  Q 172.53 72.94 177.17 76.00
  C 180.80 78.39 179.65 85.35 179.21 90.29
  A 2.02 1.89 65.7 0 1 178.89 91.23
  C 176.44 94.94 170.58 96.36 166.38 95.93
  A 0.58 0.58 0.0 0 1 165.86 95.38
  Q 165.20 83.29 155.18 79.55
  Q 148.33 77.00 141.23 81.48
  Z"
/>
<path fill="#030303" d="
  M 124.99 79.43
  Q 125.19 83.90 124.87 85.29
  Q 123.02 93.59 117.78 100.24
  A 2.07 2.07 0.0 0 1 114.90 100.61
  L 114.83 100.57
  A 2.08 2.08 0.0 0 1 114.40 97.69
  Q 118.52 91.96 120.19 85.25
  Q 120.59 83.63 120.41 79.63
  Q 120.24 75.63 119.70 74.06
  Q 117.45 67.51 112.85 62.17
  A 2.08 2.08 0.0 0 1 113.02 59.26
  L 113.09 59.21
  A 2.07 2.07 0.0 0 1 115.99 59.33
  Q 121.79 65.50 124.36 73.60
  Q 124.79 74.96 124.99 79.43
  Z"
/>
<path fill="#030303" d="
  M 104.82 68.12
  A 1.80 1.80 0.0 0 1 105.21 65.30
  L 105.69 65.02
  A 2.32 2.30 50.1 0 1 108.35 65.27
  C 119.08 74.45 117.62 85.86 110.08 96.22
  A 2.20 2.20 0.0 0 1 107.12 96.78
  L 107.10 96.77
  A 2.07 2.07 0.0 0 1 106.48 93.89
  C 110.25 88.14 113.21 81.19 110.22 74.41
  C 109.13 71.93 106.61 69.97 104.82 68.12
  Z"
/>
<ellipse fill="#ffffff" cx="0.00" cy="0.00" transform="translate(70.87,94.41) rotate(-96.3)" rx="10.80" ry="10.59"/>
<ellipse fill="#ffffff" cx="0.00" cy="0.00" transform="translate(150.14,94.41) rotate(-84.5)" rx="10.75" ry="10.63"/>
</svg>
