<?xml version="1.0" encoding="UTF-8" standalone="no"?>
<!DOCTYPE svg PUBLIC "-//W3C//DTD SVG 1.1//EN" "http://www.w3.org/Graphics/SVG/1.1/DTD/svg11.dtd">
<svg xmlns="http://www.w3.org/2000/svg" version="1.1" viewBox="0.00 0.00 229.00 207.00">
<g stroke-width="2.00" fill="none" stroke-linecap="butt">
<path stroke="#808080" vector-effect="non-scaling-stroke" d="
  M 23.52 127.30
  Q 23.63 144.17 23.54 161.24
  Q 23.51 166.39 24.30 168.16
  C 26.33 172.71 30.29 173.94 35.40 173.89
  Q 40.92 173.85 41.66 173.72
  Q 48.68 172.52 50.65 165.56
  A 0.61 0.51 -40.3 0 0 50.68 165.38
  L 50.68 160.21
  A 0.55 0.54 90.0 0 1 51.22 159.66
  L 116.65 159.66
  A 0.54 0.54 0.0 0 1 117.19 160.23
  Q 116.92 165.11 117.35 166.71
  C 118.76 172.10 123.66 173.98 129.17 173.90
  Q 135.44 173.81 135.49 173.80
  Q 141.29 173.19 143.49 169.49
  Q 145.06 166.85 145.04 160.26
  Q 144.94 127.11 144.92 120.82
  A 0.68 0.68 0.0 0 1 145.48 120.15
  C 149.82 119.45 151.32 116.27 151.37 111.96
  C 151.42 107.99 151.34 104.17 147.74 103.26
  Q 142.98 102.05 137.36 103.99
  A 0.56 0.55 -16.9 0 1 136.64 103.61
  Q 136.37 102.54 132.93 95.82
  Q 129.72 89.56 124.67 85.85
  A 0.65 0.64 -56.7 0 1 124.50 85.01
  Q 129.78 76.08 134.40 67.64
  Q 135.68 65.31 135.84 63.20
  A 2.19 2.16 -54.9 0 0 135.68 62.24
  Q 134.72 59.94 131.46 59.52
  Q 116.16 57.58 110.45 57.13"
/>
<path stroke="#fef6f6" vector-effect="non-scaling-stroke" d="
  M 110.45 57.13
  Q 105.65 50.02 102.31 46.44
  Q 86.15 29.16 62.65 28.15
  C 32.37 26.86 5.82 50.34 4.09 80.90
  Q 2.54 108.30 23.52 127.30"
/>
<path stroke="#7f7777" vector-effect="non-scaling-stroke" d="
  M 110.45 57.13
  C 105.78 57.07 100.70 56.38 96.51 56.39
  C 81.33 56.42 70.95 55.89 58.31 57.01
  Q 45.74 58.13 41.93 58.71
  Q 37.37 59.40 35.84 59.74
  A 3.42 3.30 -64.4 0 0 34.98 60.06
  C 30.68 62.47 33.91 67.61 35.77 70.98
  Q 40.78 80.09 43.52 84.91
  A 0.69 0.68 55.9 0 1 43.36 85.78
  Q 39.29 89.01 37.98 91.03
  Q 36.55 93.25 31.43 103.18
  A 0.67 0.67 0.0 0 1 30.68 103.52
  Q 25.59 102.34 21.71 103.23
  Q 19.84 103.66 18.44 106.30
  A 2.18 2.14 59.6 0 0 18.18 107.33
  L 18.18 114.72
  A 3.03 2.85 35.5 0 0 18.40 115.83
  Q 19.69 119.06 23.07 120.10
  A 0.79 0.78 -81.3 0 1 23.63 120.87
  L 23.52 127.30"
/>
<path stroke="#808080" vector-effect="non-scaling-stroke" d="
  M 84.11 82.28
  Q 111.18 82.29 113.18 82.33
  C 115.43 82.36 117.28 82.71 119.08 83.07
  A 0.86 0.85 20.9 0 0 120.00 82.66
  L 130.18 65.03
  A 0.24 0.24 0.0 0 0 130.01 64.67
  Q 120.49 63.21 111.58 62.43
  C 102.49 61.64 93.54 61.69 84.12 61.69
  C 74.70 61.68 65.75 61.61 56.66 62.40
  Q 47.75 63.17 38.23 64.61
  A 0.24 0.24 0.0 0 0 38.06 64.97
  L 48.22 82.62
  A 0.86 0.85 -20.9 0 0 49.14 83.03
  C 50.94 82.67 52.79 82.32 55.04 82.29
  Q 57.04 82.26 84.11 82.28"
/>
<path stroke="#808080" vector-effect="non-scaling-stroke" d="
  M 93.64 130.81
  L 110.13 130.80
  A 2.21 1.98 34.1 0 0 110.71 130.72
  C 115.79 129.21 116.08 125.48 116.88 120.74
  C 117.77 115.44 119.89 112.17 125.15 110.99
  A 2.04 1.67 32.2 0 1 125.63 110.93
  L 133.60 110.93
  A 0.51 0.51 0.0 0 0 134.11 110.40
  Q 134.06 108.56 133.66 107.83
  Q 130.12 101.29 127.15 95.84
  Q 123.58 89.29 116.79 87.53"
/>
<path stroke="#7f7777" vector-effect="non-scaling-stroke" d="
  M 116.79 87.53
  C 93.78 86.99 72.37 87.30 54.01 87.32
  Q 47.63 87.32 43.35 92.37
  Q 41.44 94.62 40.99 95.52
  Q 37.18 103.25 34.73 107.72
  Q 34.44 108.24 34.20 110.33
  A 0.55 0.54 -86.7 0 0 34.74 110.94
  L 42.76 110.94
  A 2.86 2.53 -34.5 0 1 43.42 111.02
  C 55.06 114.13 48.75 125.98 55.77 129.87
  Q 57.49 130.83 62.05 130.86
  Q 78.00 130.97 93.64 130.81"
/>
<path stroke="#fef6f6" vector-effect="non-scaling-stroke" d="
  M 116.79 87.53
  Q 115.55 108.82 101.91 122.91
  Q 100.15 124.72 93.64 130.81"
/>
<path stroke="#808080" vector-effect="non-scaling-stroke" d="
  M 27.18 107.94
  L 24.39 107.45
  A 1.18 1.18 0.0 0 0 23.02 108.41
  L 22.95 108.82
  A 5.80 2.45 -80.1 0 0 24.37 114.96
  L 24.66 115.01
  A 5.80 2.45 -80.1 0 0 28.07 109.72
  L 28.14 109.30
  A 1.18 1.18 0.0 0 0 27.18 107.94"
/>
<path stroke="#808080" vector-effect="non-scaling-stroke" d="
  M 144.66 107.41
  L 141.52 108.03
  A 1.27 1.27 0.0 0 0 140.52 109.51
  L 140.56 109.75
  A 6.11 2.72 79.0 0 0 144.40 115.23
  L 144.69 115.17
  A 6.11 2.72 79.0 0 0 146.20 108.65
  L 146.15 108.42
  A 1.27 1.27 0.0 0 0 144.66 107.41"
/>
<path stroke="#808080" vector-effect="non-scaling-stroke" d="
  M 46.76 126.25
  A 0.58 0.57 -6.3 0 0 47.33 125.55
  Q 46.82 123.21 46.08 119.28
  C 45.29 115.12 37.07 116.23 34.38 116.12
  A 5.60 5.60 0.0 0 0 28.56 121.23
  L 28.54 121.44
  A 4.38 4.37 2.7 0 0 32.88 126.20
  L 46.76 126.25"
/>
<path stroke="#808080" vector-effect="non-scaling-stroke" d="
  M 121.66 126.18
  L 135.53 126.32
  A 4.38 4.37 -1.9 0 0 139.93 121.62
  L 139.91 121.41
  A 5.60 5.60 0.0 0 0 134.17 116.22
  C 131.48 116.30 123.28 115.07 122.43 119.22
  Q 121.64 123.14 121.10 125.47
  A 0.58 0.57 7.1 0 0 121.66 126.18"
/>
<path stroke="#808080" vector-effect="non-scaling-stroke" d="
  M 84.12 154.55
  Q 130.04 154.56 133.49 154.53
  Q 137.53 154.50 139.55 149.66
  A 2.18 2.11 57.3 0 0 139.72 148.82
  L 139.72 130.99
  A 0.38 0.37 -10.3 0 0 139.21 130.64
  L 136.98 131.48
  A 1.15 1.11 -54.2 0 1 136.59 131.55
  Q 127.77 131.57 122.28 131.55
  C 121.16 131.54 120.50 130.78 119.46 130.77
  A 1.05 1.03 18.3 0 0 118.63 131.18
  Q 116.17 134.38 112.68 135.40
  A 5.24 5.21 -55.2 0 1 111.58 135.60
  Q 110.69 135.66 84.12 135.66
  Q 57.55 135.65 56.66 135.59
  A 5.24 5.21 55.2 0 1 55.56 135.39
  Q 52.07 134.37 49.61 131.17
  A 1.05 1.03 -18.3 0 0 48.78 130.76
  C 47.74 130.77 47.08 131.53 45.96 131.54
  Q 40.47 131.55 31.65 131.53
  A 1.15 1.11 54.2 0 1 31.26 131.46
  L 29.03 130.62
  A 0.38 0.37 10.3 0 0 28.52 130.97
  L 28.51 148.80
  A 2.18 2.11 -57.3 0 0 28.68 149.64
  Q 30.70 154.48 34.74 154.51
  Q 38.19 154.54 84.12 154.55"
/>
<path stroke="#808080" vector-effect="non-scaling-stroke" d="
  M 139.72 158.08
  A 0.30 0.30 0.0 0 0 139.24 157.84
  Q 137.14 159.42 134.51 159.53
  Q 130.27 159.71 122.95 159.55
  A 0.60 0.59 0.5 0 0 122.34 160.14
  L 122.34 165.40
  A 1.56 1.55 -65.9 0 0 122.73 166.43
  Q 124.52 168.47 125.76 168.50
  Q 132.95 168.63 136.72 168.47
  Q 137.82 168.43 139.46 166.31
  A 1.21 1.21 0.0 0 0 139.72 165.56
  L 139.72 158.08"
/>
<path stroke="#808080" vector-effect="non-scaling-stroke" d="
  M 28.63 158.41
  L 28.63 165.30
  A 1.51 1.44 31.7 0 0 28.82 166.02
  Q 30.22 168.54 32.51 168.55
  Q 40.05 168.57 40.99 168.52
  A 3.26 3.24 -57.6 0 0 42.05 168.28
  Q 47.07 166.19 45.93 160.04
  A 0.59 0.59 0.0 0 0 45.35 159.56
  L 31.73 159.56
  A 1.32 1.28 59.1 0 1 31.09 159.39
  L 29.01 158.19
  A 0.25 0.25 0.0 0 0 28.63 158.41"
/>
</g>
<path fill="#ffffff" d="
  M 229.00 0.00
  L 229.00 207.00
  L 0.00 207.00
  L 0.00 0.00
  L 229.00 0.00
  Z
  M 23.52 127.30
  Q 23.63 144.17 23.54 161.24
  Q 23.51 166.39 24.30 168.16
  C 26.33 172.71 30.29 173.94 35.40 173.89
  Q 40.92 173.85 41.66 173.72
  Q 48.68 172.52 50.65 165.56
  A 0.61 0.51 -40.3 0 0 50.68 165.38
  L 50.68 160.21
  A 0.55 0.54 90.0 0 1 51.22 159.66
  L 116.65 159.66
  A 0.54 0.54 0.0 0 1 117.19 160.23
  Q 116.92 165.11 117.35 166.71
  C 118.76 172.10 123.66 173.98 129.17 173.90
  Q 135.44 173.81 135.49 173.80
  Q 141.29 173.19 143.49 169.49
  Q 145.06 166.85 145.04 160.26
  Q 144.94 127.11 144.92 120.82
  A 0.68 0.68 0.0 0 1 145.48 120.15
  C 149.82 119.45 151.32 116.27 151.37 111.96
  C 151.42 107.99 151.34 104.17 147.74 103.26
  Q 142.98 102.05 137.36 103.99
  A 0.56 0.55 -16.9 0 1 136.64 103.61
  Q 136.37 102.54 132.93 95.82
  Q 129.72 89.56 124.67 85.85
  A 0.65 0.64 -56.7 0 1 124.50 85.01
  Q 129.78 76.08 134.40 67.64
  Q 135.68 65.31 135.84 63.20
  A 2.19 2.16 -54.9 0 0 135.68 62.24
  Q 134.72 59.94 131.46 59.52
  Q 116.16 57.58 110.45 57.13
  Q 105.65 50.02 102.31 46.44
  Q 86.15 29.16 62.65 28.15
  C 32.37 26.86 5.82 50.34 4.09 80.90
  Q 2.54 108.30 23.52 127.30
  Z"
/>
<path fill="#fdedec" d="
  M 110.45 57.13
  C 105.78 57.07 100.70 56.38 96.51 56.39
  C 81.33 56.42 70.95 55.89 58.31 57.01
  Q 45.74 58.13 41.93 58.71
  Q 37.37 59.40 35.84 59.74
  A 3.42 3.30 -64.4 0 0 34.98 60.06
  C 30.68 62.47 33.91 67.61 35.77 70.98
  Q 40.78 80.09 43.52 84.91
  A 0.69 0.68 55.9 0 1 43.36 85.78
  Q 39.29 89.01 37.98 91.03
  Q 36.55 93.25 31.43 103.18
  A 0.67 0.67 0.0 0 1 30.68 103.52
  Q 25.59 102.34 21.71 103.23
  Q 19.84 103.66 18.44 106.30
  A 2.18 2.14 59.6 0 0 18.18 107.33
  L 18.18 114.72
  A 3.03 2.85 35.5 0 0 18.40 115.83
  Q 19.69 119.06 23.07 120.10
  A 0.79 0.78 -81.3 0 1 23.63 120.87
  L 23.52 127.30
  Q 2.54 108.30 4.09 80.90
  C 5.82 50.34 32.37 26.86 62.65 28.15
  Q 86.15 29.16 102.31 46.44
  Q 105.65 50.02 110.45 57.13
  Z"
/>
<path fill="#010101" d="
  M 110.45 57.13
  Q 116.16 57.58 131.46 59.52
  Q 134.72 59.94 135.68 62.24
  A 2.19 2.16 -54.9 0 1 135.84 63.20
  Q 135.68 65.31 134.40 67.64
  Q 129.78 76.08 124.50 85.01
  A 0.65 0.64 -56.7 0 0 124.67 85.85
  Q 129.72 89.56 132.93 95.82
  Q 136.37 102.54 136.64 103.61
  A 0.56 0.55 -16.9 0 0 137.36 103.99
  Q 142.98 102.05 147.74 103.26
  C 151.34 104.17 151.42 107.99 151.37 111.96
  C 151.32 116.27 149.82 119.45 145.48 120.15
  A 0.68 0.68 0.0 0 0 144.92 120.82
  Q 144.94 127.11 145.04 160.26
  Q 145.06 166.85 143.49 169.49
  Q 141.29 173.19 135.49 173.80
  Q 135.44 173.81 129.17 173.90
  C 123.66 173.98 118.76 172.10 117.35 166.71
  Q 116.92 165.11 117.19 160.23
  A 0.54 0.54 0.0 0 0 116.65 159.66
  L 51.22 159.66
  A 0.55 0.54 90.0 0 0 50.68 160.21
  L 50.68 165.38
  A 0.61 0.51 -40.3 0 1 50.65 165.56
  Q 48.68 172.52 41.66 173.72
  Q 40.92 173.85 35.40 173.89
  C 30.29 173.94 26.33 172.71 24.30 168.16
  Q 23.51 166.39 23.54 161.24
  Q 23.63 144.17 23.52 127.30
  L 23.63 120.87
  A 0.79 0.78 -81.3 0 0 23.07 120.10
  Q 19.69 119.06 18.40 115.83
  A 3.03 2.85 35.5 0 1 18.18 114.72
  L 18.18 107.33
  A 2.18 2.14 59.6 0 1 18.44 106.30
  Q 19.84 103.66 21.71 103.23
  Q 25.59 102.34 30.68 103.52
  A 0.67 0.67 0.0 0 0 31.43 103.18
  Q 36.55 93.25 37.98 91.03
  Q 39.29 89.01 43.36 85.78
  A 0.69 0.68 55.9 0 0 43.52 84.91
  Q 40.78 80.09 35.77 70.98
  C 33.91 67.61 30.68 62.47 34.98 60.06
  A 3.42 3.30 -64.4 0 1 35.84 59.74
  Q 37.37 59.40 41.93 58.71
  Q 45.74 58.13 58.31 57.01
  C 70.95 55.89 81.33 56.42 96.51 56.39
  C 100.70 56.38 105.78 57.07 110.45 57.13
  Z
  M 84.11 82.28
  Q 111.18 82.29 113.18 82.33
  C 115.43 82.36 117.28 82.71 119.08 83.07
  A 0.86 0.85 20.9 0 0 120.00 82.66
  L 130.18 65.03
  A 0.24 0.24 0.0 0 0 130.01 64.67
  Q 120.49 63.21 111.58 62.43
  C 102.49 61.64 93.54 61.69 84.12 61.69
  C 74.70 61.68 65.75 61.61 56.66 62.40
  Q 47.75 63.17 38.23 64.61
  A 0.24 0.24 0.0 0 0 38.06 64.97
  L 48.22 82.62
  A 0.86 0.85 -20.9 0 0 49.14 83.03
  C 50.94 82.67 52.79 82.32 55.04 82.29
  Q 57.04 82.26 84.11 82.28
  Z
  M 93.64 130.81
  L 110.13 130.80
  A 2.21 1.98 34.1 0 0 110.71 130.72
  C 115.79 129.21 116.08 125.48 116.88 120.74
  C 117.77 115.44 119.89 112.17 125.15 110.99
  A 2.04 1.67 32.2 0 1 125.63 110.93
  L 133.60 110.93
  A 0.51 0.51 0.0 0 0 134.11 110.40
  Q 134.06 108.56 133.66 107.83
  Q 130.12 101.29 127.15 95.84
  Q 123.58 89.29 116.79 87.53
  C 93.78 86.99 72.37 87.30 54.01 87.32
  Q 47.63 87.32 43.35 92.37
  Q 41.44 94.62 40.99 95.52
  Q 37.18 103.25 34.73 107.72
  Q 34.44 108.24 34.20 110.33
  A 0.55 0.54 -86.7 0 0 34.74 110.94
  L 42.76 110.94
  A 2.86 2.53 -34.5 0 1 43.42 111.02
  C 55.06 114.13 48.75 125.98 55.77 129.87
  Q 57.49 130.83 62.05 130.86
  Q 78.00 130.97 93.64 130.81
  Z
  M 27.18 107.94
  L 24.39 107.45
  A 1.18 1.18 0.0 0 0 23.02 108.41
  L 22.95 108.82
  A 5.80 2.45 -80.1 0 0 24.37 114.96
  L 24.66 115.01
  A 5.80 2.45 -80.1 0 0 28.07 109.72
  L 28.14 109.30
  A 1.18 1.18 0.0 0 0 27.18 107.94
  Z
  M 144.66 107.41
  L 141.52 108.03
  A 1.27 1.27 0.0 0 0 140.52 109.51
  L 140.56 109.75
  A 6.11 2.72 79.0 0 0 144.40 115.23
  L 144.69 115.17
  A 6.11 2.72 79.0 0 0 146.20 108.65
  L 146.15 108.42
  A 1.27 1.27 0.0 0 0 144.66 107.41
  Z
  M 46.76 126.25
  A 0.58 0.57 -6.3 0 0 47.33 125.55
  Q 46.82 123.21 46.08 119.28
  C 45.29 115.12 37.07 116.23 34.38 116.12
  A 5.60 5.60 0.0 0 0 28.56 121.23
  L 28.54 121.44
  A 4.38 4.37 2.7 0 0 32.88 126.20
  L 46.76 126.25
  Z
  M 121.66 126.18
  L 135.53 126.32
  A 4.38 4.37 -1.9 0 0 139.93 121.62
  L 139.91 121.41
  A 5.60 5.60 0.0 0 0 134.17 116.22
  C 131.48 116.30 123.28 115.07 122.43 119.22
  Q 121.64 123.14 121.10 125.47
  A 0.58 0.57 7.1 0 0 121.66 126.18
  Z
  M 84.12 154.55
  Q 130.04 154.56 133.49 154.53
  Q 137.53 154.50 139.55 149.66
  A 2.18 2.11 57.3 0 0 139.72 148.82
  L 139.72 130.99
  A 0.38 0.37 -10.3 0 0 139.21 130.64
  L 136.98 131.48
  A 1.15 1.11 -54.2 0 1 136.59 131.55
  Q 127.77 131.57 122.28 131.55
  C 121.16 131.54 120.50 130.78 119.46 130.77
  A 1.05 1.03 18.3 0 0 118.63 131.18
  Q 116.17 134.38 112.68 135.40
  A 5.24 5.21 -55.2 0 1 111.58 135.60
  Q 110.69 135.66 84.12 135.66
  Q 57.55 135.65 56.66 135.59
  A 5.24 5.21 55.2 0 1 55.56 135.39
  Q 52.07 134.37 49.61 131.17
  A 1.05 1.03 -18.3 0 0 48.78 130.76
  C 47.74 130.77 47.08 131.53 45.96 131.54
  Q 40.47 131.55 31.65 131.53
  A 1.15 1.11 54.2 0 1 31.26 131.46
  L 29.03 130.62
  A 0.38 0.37 10.3 0 0 28.52 130.97
  L 28.51 148.80
  A 2.18 2.11 -57.3 0 0 28.68 149.64
  Q 30.70 154.48 34.74 154.51
  Q 38.19 154.54 84.12 154.55
  Z
  M 139.72 158.08
  A 0.30 0.30 0.0 0 0 139.24 157.84
  Q 137.14 159.42 134.51 159.53
  Q 130.27 159.71 122.95 159.55
  A 0.60 0.59 0.5 0 0 122.34 160.14
  L 122.34 165.40
  A 1.56 1.55 -65.9 0 0 122.73 166.43
  Q 124.52 168.47 125.76 168.50
  Q 132.95 168.63 136.72 168.47
  Q 137.82 168.43 139.46 166.31
  A 1.21 1.21 0.0 0 0 139.72 165.56
  L 139.72 158.08
  Z
  M 28.63 158.41
  L 28.63 165.30
  A 1.51 1.44 31.7 0 0 28.82 166.02
  Q 30.22 168.54 32.51 168.55
  Q 40.05 168.57 40.99 168.52
  A 3.26 3.24 -57.6 0 0 42.05 168.28
  Q 47.07 166.19 45.93 160.04
  A 0.59 0.59 0.0 0 0 45.35 159.56
  L 31.73 159.56
  A 1.32 1.28 59.1 0 1 31.09 159.39
  L 29.01 158.19
  A 0.25 0.25 0.0 0 0 28.63 158.41
  Z"
/>
<path fill="#ffffff" d="
  M 84.12 61.69
  C 93.54 61.69 102.49 61.64 111.58 62.43
  Q 120.49 63.21 130.01 64.67
  A 0.24 0.24 0.0 0 1 130.18 65.03
  L 120.00 82.66
  A 0.86 0.85 20.9 0 1 119.08 83.07
  C 117.28 82.71 115.43 82.36 113.18 82.33
  Q 111.18 82.29 84.11 82.28
  Q 57.04 82.26 55.04 82.29
  C 52.79 82.32 50.94 82.67 49.14 83.03
  A 0.86 0.85 -20.9 0 1 48.22 82.62
  L 38.06 64.97
  A 0.24 0.24 0.0 0 1 38.23 64.61
  Q 47.75 63.17 56.66 62.40
  C 65.75 61.61 74.70 61.68 84.12 61.69
  Z"
/>
<path fill="#fdedec" d="
  M 116.79 87.53
  Q 115.55 108.82 101.91 122.91
  Q 100.15 124.72 93.64 130.81
  Q 78.00 130.97 62.05 130.86
  Q 57.49 130.83 55.77 129.87
  C 48.75 125.98 55.06 114.13 43.42 111.02
  A 2.86 2.53 -34.5 0 0 42.76 110.94
  L 34.74 110.94
  A 0.55 0.54 -86.7 0 1 34.20 110.33
  Q 34.44 108.24 34.73 107.72
  Q 37.18 103.25 40.99 95.52
  Q 41.44 94.62 43.35 92.37
  Q 47.63 87.32 54.01 87.32
  C 72.37 87.30 93.78 86.99 116.79 87.53
  Z"
/>
<path fill="#ffffff" d="
  M 93.64 130.81
  Q 100.15 124.72 101.91 122.91
  Q 115.55 108.82 116.79 87.53
  Q 123.58 89.29 127.15 95.84
  Q 130.12 101.29 133.66 107.83
  Q 134.06 108.56 134.11 110.40
  A 0.51 0.51 0.0 0 1 133.60 110.93
  L 125.63 110.93
  A 2.04 1.67 32.2 0 0 125.15 110.99
  C 119.89 112.17 117.77 115.44 116.88 120.74
  C 116.08 125.48 115.79 129.21 110.71 130.72
  A 2.21 1.98 34.1 0 1 110.13 130.80
  L 93.64 130.81
  Z"
/>
<path fill="#ffffff" d="
  M 27.18 107.94
  A 1.18 1.18 0.0 0 1 28.14 109.30
  L 28.07 109.72
  A 5.80 2.45 -80.1 0 1 24.66 115.01
  L 24.37 114.96
  A 5.80 2.45 -80.1 0 1 22.95 108.82
  L 23.02 108.41
  A 1.18 1.18 0.0 0 1 24.39 107.45
  L 27.18 107.94
  Z"
/>
<path fill="#ffffff" d="
  M 144.66 107.41
  A 1.27 1.27 0.0 0 1 146.15 108.42
  L 146.20 108.65
  A 6.11 2.72 79.0 0 1 144.69 115.17
  L 144.40 115.23
  A 6.11 2.72 79.0 0 1 140.56 109.75
  L 140.52 109.51
  A 1.27 1.27 0.0 0 1 141.52 108.03
  L 144.66 107.41
  Z"
/>
<path fill="#ffffff" d="
  M 46.76 126.25
  L 32.88 126.20
  A 4.38 4.37 2.7 0 1 28.54 121.44
  L 28.56 121.23
  A 5.60 5.60 0.0 0 1 34.38 116.12
  C 37.07 116.23 45.29 115.12 46.08 119.28
  Q 46.82 123.21 47.33 125.55
  A 0.58 0.57 -6.3 0 1 46.76 126.25
  Z"
/>
<path fill="#ffffff" d="
  M 121.66 126.18
  A 0.58 0.57 7.1 0 1 121.10 125.47
  Q 121.64 123.14 122.43 119.22
  C 123.28 115.07 131.48 116.30 134.17 116.22
  A 5.60 5.60 0.0 0 1 139.91 121.41
  L 139.93 121.62
  A 4.38 4.37 -1.9 0 1 135.53 126.32
  L 121.66 126.18
  Z"
/>
<path fill="#ffffff" d="
  M 84.12 135.66
  Q 110.69 135.66 111.58 135.60
  A 5.24 5.21 -55.2 0 0 112.68 135.40
  Q 116.17 134.38 118.63 131.18
  A 1.05 1.03 18.3 0 1 119.46 130.77
  C 120.50 130.78 121.16 131.54 122.28 131.55
  Q 127.77 131.57 136.59 131.55
  A 1.15 1.11 -54.2 0 0 136.98 131.48
  L 139.21 130.64
  A 0.38 0.37 -10.3 0 1 139.72 130.99
  L 139.72 148.82
  A 2.18 2.11 57.3 0 1 139.55 149.66
  Q 137.53 154.50 133.49 154.53
  Q 130.04 154.56 84.12 154.55
  Q 38.19 154.54 34.74 154.51
  Q 30.70 154.48 28.68 149.64
  A 2.18 2.11 -57.3 0 1 28.51 148.80
  L 28.52 130.97
  A 0.38 0.37 10.3 0 1 29.03 130.62
  L 31.26 131.46
  A 1.15 1.11 54.2 0 0 31.65 131.53
  Q 40.47 131.55 45.96 131.54
  C 47.08 131.53 47.74 130.77 48.78 130.76
  A 1.05 1.03 -18.3 0 1 49.61 131.17
  Q 52.07 134.37 55.56 135.39
  A 5.24 5.21 55.2 0 0 56.66 135.59
  Q 57.55 135.65 84.12 135.66
  Z"
/>
<path fill="#ffffff" d="
  M 139.72 158.08
  L 139.72 165.56
  A 1.21 1.21 0.0 0 1 139.46 166.31
  Q 137.82 168.43 136.72 168.47
  Q 132.95 168.63 125.76 168.50
  Q 124.52 168.47 122.73 166.43
  A 1.56 1.55 -65.9 0 1 122.34 165.40
  L 122.34 160.14
  A 0.60 0.59 0.5 0 1 122.95 159.55
  Q 130.27 159.71 134.51 159.53
  Q 137.14 159.42 139.24 157.84
  A 0.30 0.30 0.0 0 1 139.72 158.08
  Z"
/>
<path fill="#ffffff" d="
  M 29.01 158.19
  L 31.09 159.39
  A 1.32 1.28 59.1 0 0 31.73 159.56
  L 45.35 159.56
  A 0.59 0.59 0.0 0 1 45.93 160.04
  Q 47.07 166.19 42.05 168.28
  A 3.26 3.24 -57.6 0 1 40.99 168.52
  Q 40.05 168.57 32.51 168.55
  Q 30.22 168.54 28.82 166.02
  A 1.51 1.44 31.7 0 1 28.63 165.30
  L 28.63 158.41
  A 0.25 0.25 0.0 0 1 29.01 158.19
  Z"
/>
</svg>
