<?xml version="1.0" encoding="utf-8"?>
<svg version="1.1" viewBox="0.00 0.00 209.00 197.00" xmlns="http://www.w3.org/2000/svg"><g id="offState" style="display:inline"><g fill="none" stroke-linecap="butt" stroke-width="2.00">
<path class="icon-shape" d="   M 64.9710 39.8164   A 2.03 2.03 0.0 0 0 62.9374 37.7899   L 62.8374 37.7901   A 2.03 2.03 0.0 0 0 60.8110 39.8236   L 60.8490 61.6236   A 2.03 2.03 0.0 0 0 62.8826 63.6501   L 62.9826 63.6499   A 2.03 2.03 0.0 0 0 65.0090 61.6164   L 64.9710 39.8164" stroke="#dad8da" vector-effect="non-scaling-stroke"/>
<path class="icon-shape" d="   M 154.3405 39.8494   A 2.01 2.01 0.0 0 0 152.3200 37.8500   L 152.2400 37.8504   A 2.01 2.01 0.0 0 0 150.2406 39.8709   L 150.3595 62.5706   A 2.01 2.01 0.0 0 0 152.3800 64.5700   L 152.4600 64.5696   A 2.01 2.01 0.0 0 0 154.4594 62.5491   L 154.3405 39.8494" stroke="#dad8da" vector-effect="non-scaling-stroke"/>
<path class="icon-shape" d="   M 120.99 101.61   Q 120.15 104.82 119.16 107.45   Q 117.56 111.71 120.40 114.76   C 121.71 116.16 124.56 116.81 126.62 117.40   C 134.47 119.65 135.51 110.93 137.13 104.42   A 3.94 3.91 68.4 0 1 137.59 103.35   L 138.31 102.21   A 6.24 6.00 70.5 0 0 138.99 100.71   Q 139.50 99.08 142.03 90.36   C 143.24 86.17 142.88 84.48 139.05 82.64   A 0.76 0.75 13.3 0 1 138.61 81.94   C 138.63 77.52 139.92 71.38 138.61 67.45   C 136.55 61.31 132.67 59.48 126.25 57.91   Q 125.67 57.77 103.43 51.54   Q 95.74 49.39 91.12 55.65   Q 88.91 58.65 84.64 66.73   A 1.17 1.17 0.0 0 1 83.86 67.33   C 82.89 67.53 81.68 67.25 80.89 67.80   Q 78.72 69.31 78.43 70.48   C 76.65 77.76 75.29 81.78 75.24 84.69   Q 75.21 86.03 74.32 88.01   Q 73.34 90.19 72.07 96.05   C 70.83 101.80 75.08 103.42 79.63 104.75   C 86.93 106.89 88.01 97.25 89.07 92.48   A 0.41 0.40 13.7 0 1 89.57 92.18   L 120.48 100.73   A 0.73 0.73 0.0 0 1 120.99 101.61" stroke="#dad8da" vector-effect="non-scaling-stroke"/>
<path class="icon-shape" d="   M 178.23 65.01   C 175.30 62.75 171.64 63.09 169.70 66.46   Q 166.14 72.65 145.55 109.52   C 142.55 114.90 146.52 119.19 151.99 119.14   Q 174.99 118.91 197.03 118.39   Q 200.34 118.31 201.37 117.67   C 204.23 115.87 205.12 111.91 203.50 108.96   Q 194.66 92.90 178.97 65.86   A 3.00 2.90 -87.1 0 0 178.23 65.01" stroke="#dad8da" vector-effect="non-scaling-stroke"/>
<path class="icon-shape" d="   M 65.00 73.72   A 1.99 1.99 0.0 0 0 63.01 71.73   L 62.91 71.73   A 1.99 1.99 0.0 0 0 60.92 73.72   L 60.92 94.96   A 1.99 1.99 0.0 0 0 62.91 96.95   L 63.01 96.95   A 1.99 1.99 0.0 0 0 65.00 94.96   L 65.00 73.72" stroke="#dad8da" vector-effect="non-scaling-stroke"/>
<path class="icon-shape" d="   M 152.4894 72.4801   A 3.94 2.22 -90.3 0 0 150.2900 76.4316   A 3.94 2.22 -90.3 0 0 152.5306 80.3599   A 3.94 2.22 -90.3 0 0 154.7300 76.4084   A 3.94 2.22 -90.3 0 0 152.4894 72.4801" stroke="#dad8da" vector-effect="non-scaling-stroke"/>
<path class="icon-shape" d="   M 64.9812 107.2665   A 1.98 1.98 0.0 0 0 62.9977 105.2899   L 62.8977 105.2901   A 1.98 1.98 0.0 0 0 60.9212 107.2736   L 60.9588 128.8535   A 1.98 1.98 0.0 0 0 62.9423 130.8301   L 63.0423 130.8299   A 1.98 1.98 0.0 0 0 65.0188 128.8464   L 64.9812 107.2665" stroke="#dad8da" vector-effect="non-scaling-stroke"/>
<path class="icon-shape" d="   M 100.88 130.12   Q 97.48 134.84 91.42 138.46   C 90.15 139.22 89.55 139.85 90.05 141.31   A 2.13 2.08 66.9 0 0 93.01 142.54   Q 99.90 138.90 104.40 132.66   Q 108.90 126.42 110.17 118.74   A 2.13 2.08 4.7 0 0 108.07 116.31   C 106.53 116.30 106.12 117.07 105.80 118.52   Q 104.28 125.41 100.88 130.12" stroke="#dad8da" vector-effect="non-scaling-stroke"/>
<path class="icon-shape" d="   M 152.7324 124.1608   A 3.19 2.07 -88.7 0 0 150.5905 127.3030   A 3.19 2.07 -88.7 0 0 152.5876 130.5392   A 3.19 2.07 -88.7 0 0 154.7295 127.3970   A 3.19 2.07 -88.7 0 0 152.7324 124.1608" stroke="#dad8da" vector-effect="non-scaling-stroke"/>
<path class="icon-shape" d="   M 113.89 142.66   L 114.03 142.70   A 2.32 2.31 -75.3 0 0 116.85 141.05   Q 118.62 134.39 118.06 127.88   A 1.95 1.95 0.0 0 0 115.82 126.12   L 115.79 126.12   A 2.35 2.34 -6.3 0 0 113.81 128.59   Q 114.23 135.46 112.50 139.93   A 2.05 2.05 0.0 0 0 113.89 142.66" stroke="#dad8da" vector-effect="non-scaling-stroke"/>
<path class="icon-shape" d="   M 154.5509 140.4867   A 1.86 1.86 0.0 0 0 152.6876 138.6299   L 152.5876 138.6301   A 1.86 1.86 0.0 0 0 150.7309 140.4934   L 150.7691 162.3933   A 1.86 1.86 0.0 0 0 152.6324 164.2501   L 152.7324 164.2499   A 1.86 1.86 0.0 0 0 154.5891 162.3866   L 154.5509 140.4867" stroke="#dad8da" vector-effect="non-scaling-stroke"/>
<path class="icon-shape" d="   M 64.9745 141.1630   A 1.97 1.97 0.0 0 0 62.9976 139.1999   L 62.8776 139.2003   A 1.97 1.97 0.0 0 0 60.9145 141.1771   L 60.9855 161.5370   A 1.97 1.97 0.0 0 0 62.9624 163.5001   L 63.0824 163.4997   A 1.97 1.97 0.0 0 0 65.0455 161.5229   L 64.9745 141.1630" stroke="#dad8da" vector-effect="non-scaling-stroke"/>
<path class="icon-shape" d="   M 111.52 74.61   Q 122.12 77.60 133.54 80.85   A 0.70 0.70 0.0 0 0 134.43 80.23   Q 134.67 76.83 134.75 72.11   C 134.81 68.15 133.38 64.37 129.70 63.32   Q 122.69 61.32 115.82 59.38   Q 108.95 57.44 101.92 55.48   C 98.24 54.46 95.05 56.93 93.03 60.34   Q 90.63 64.41 89.06 67.43   A 0.70 0.70 0.0 0 0 89.49 68.42   Q 100.93 71.62 111.52 74.61" stroke="#dad8da" vector-effect="non-scaling-stroke"/>
<path class="icon-shape" d="   M 138.3371 88.3323   A 1.93 1.93 0.0 0 0 137.0014 85.9521   L 84.4769 71.1881   A 1.93 1.93 0.0 0 0 82.0967 72.5239   L 79.2229 82.7477   A 1.93 1.93 0.0 0 0 80.5586 85.1279   L 133.0831 99.8919   A 1.93 1.93 0.0 0 0 135.4633 98.5561   L 138.3371 88.3323" stroke="#dad8da" vector-effect="non-scaling-stroke"/>
<path class="icon-shape" d="   M 84.9957 92.5122   A 1.49 1.49 0.0 0 0 83.9421 90.6873   L 79.6148 89.5278   A 1.49 1.49 0.0 0 0 77.7899 90.5814   L 75.8643 97.7678   A 1.49 1.49 0.0 0 0 76.9179 99.5927   L 81.2452 100.7522   A 1.49 1.49 0.0 0 0 83.0701 99.6986   L 84.9957 92.5122" stroke="#dad8da" vector-effect="non-scaling-stroke"/>
<path class="icon-shape" d="   M 131.92 104.15   L 126.28 102.48   A 1.29 1.29 0.0 0 0 124.68 103.35   L 122.86 109.46   A 2.53 2.41 -73.5 0 0 124.46 112.57   L 127.95 113.61   A 2.53 2.41 -73.5 0 0 130.98 111.87   L 132.79 105.75   A 1.29 1.29 0.0 0 0 131.92 104.15" stroke="#dad8da" vector-effect="non-scaling-stroke"/>
<path class="icon-shape" d="   M 148.81 112.52   A 1.33 1.32 14.6 0 0 149.97 114.49   Q 162.80 114.51 196.75 114.29   Q 198.53 114.28 199.38 113.41   A 1.99 1.98 52.6 0 0 199.69 111.05   Q 187.88 90.04 175.49 68.55   A 1.17 1.17 0.0 0 0 173.45 68.56   L 148.81 112.52" stroke="#dad8da" vector-effect="non-scaling-stroke"/>
<path class="icon-shape" d="   M 176.1751 85.5394   A 2.17 2.17 0.0 0 0 173.9750 83.3999   L 173.8350 83.4018   A 2.17 2.17 0.0 0 0 171.6956 85.6019   L 171.8849 99.1606   A 2.17 2.17 0.0 0 0 174.0850 101.3001   L 174.2250 101.2982   A 2.17 2.17 0.0 0 0 176.3644 99.0981   L 176.1751 85.5394" stroke="#dad8da" vector-effect="non-scaling-stroke"/>
<path class="icon-shape" d="   M 177.27 107.21   A 2.65 2.65 0.0 0 0 174.62 104.56   A 2.65 2.65 0.0 0 0 171.97 107.21   A 2.65 2.65 0.0 0 0 174.62 109.86   A 2.65 2.65 0.0 0 0 177.27 107.21" stroke="#dad8da" vector-effect="non-scaling-stroke"/>
</g>
<path class="icon-shape" d="   M 209.00 0.00   L 209.00 197.00   L 0.00 197.00   L 0.00 0.00   L 209.00 0.00   Z   M 64.9710 39.8164   A 2.03 2.03 0.0 0 0 62.9374 37.7899   L 62.8374 37.7901   A 2.03 2.03 0.0 0 0 60.8110 39.8236   L 60.8490 61.6236   A 2.03 2.03 0.0 0 0 62.8826 63.6501   L 62.9826 63.6499   A 2.03 2.03 0.0 0 0 65.0090 61.6164   L 64.9710 39.8164   Z   M 154.3405 39.8494   A 2.01 2.01 0.0 0 0 152.3200 37.8500   L 152.2400 37.8504   A 2.01 2.01 0.0 0 0 150.2406 39.8709   L 150.3595 62.5706   A 2.01 2.01 0.0 0 0 152.3800 64.5700   L 152.4600 64.5696   A 2.01 2.01 0.0 0 0 154.4594 62.5491   L 154.3405 39.8494   Z   M 120.99 101.61   Q 120.15 104.82 119.16 107.45   Q 117.56 111.71 120.40 114.76   C 121.71 116.16 124.56 116.81 126.62 117.40   C 134.47 119.65 135.51 110.93 137.13 104.42   A 3.94 3.91 68.4 0 1 137.59 103.35   L 138.31 102.21   A 6.24 6.00 70.5 0 0 138.99 100.71   Q 139.50 99.08 142.03 90.36   C 143.24 86.17 142.88 84.48 139.05 82.64   A 0.76 0.75 13.3 0 1 138.61 81.94   C 138.63 77.52 139.92 71.38 138.61 67.45   C 136.55 61.31 132.67 59.48 126.25 57.91   Q 125.67 57.77 103.43 51.54   Q 95.74 49.39 91.12 55.65   Q 88.91 58.65 84.64 66.73   A 1.17 1.17 0.0 0 1 83.86 67.33   C 82.89 67.53 81.68 67.25 80.89 67.80   Q 78.72 69.31 78.43 70.48   C 76.65 77.76 75.29 81.78 75.24 84.69   Q 75.21 86.03 74.32 88.01   Q 73.34 90.19 72.07 96.05   C 70.83 101.80 75.08 103.42 79.63 104.75   C 86.93 106.89 88.01 97.25 89.07 92.48   A 0.41 0.40 13.7 0 1 89.57 92.18   L 120.48 100.73   A 0.73 0.73 0.0 0 1 120.99 101.61   Z   M 178.23 65.01   C 175.30 62.75 171.64 63.09 169.70 66.46   Q 166.14 72.65 145.55 109.52   C 142.55 114.90 146.52 119.19 151.99 119.14   Q 174.99 118.91 197.03 118.39   Q 200.34 118.31 201.37 117.67   C 204.23 115.87 205.12 111.91 203.50 108.96   Q 194.66 92.90 178.97 65.86   A 3.00 2.90 -87.1 0 0 178.23 65.01   Z   M 65.00 73.72   A 1.99 1.99 0.0 0 0 63.01 71.73   L 62.91 71.73   A 1.99 1.99 0.0 0 0 60.92 73.72   L 60.92 94.96   A 1.99 1.99 0.0 0 0 62.91 96.95   L 63.01 96.95   A 1.99 1.99 0.0 0 0 65.00 94.96   L 65.00 73.72   Z   M 152.4894 72.4801   A 3.94 2.22 -90.3 0 0 150.2900 76.4316   A 3.94 2.22 -90.3 0 0 152.5306 80.3599   A 3.94 2.22 -90.3 0 0 154.7300 76.4084   A 3.94 2.22 -90.3 0 0 152.4894 72.4801   Z   M 64.9812 107.2665   A 1.98 1.98 0.0 0 0 62.9977 105.2899   L 62.8977 105.2901   A 1.98 1.98 0.0 0 0 60.9212 107.2736   L 60.9588 128.8535   A 1.98 1.98 0.0 0 0 62.9423 130.8301   L 63.0423 130.8299   A 1.98 1.98 0.0 0 0 65.0188 128.8464   L 64.9812 107.2665   Z   M 100.88 130.12   Q 97.48 134.84 91.42 138.46   C 90.15 139.22 89.55 139.85 90.05 141.31   A 2.13 2.08 66.9 0 0 93.01 142.54   Q 99.90 138.90 104.40 132.66   Q 108.90 126.42 110.17 118.74   A 2.13 2.08 4.7 0 0 108.07 116.31   C 106.53 116.30 106.12 117.07 105.80 118.52   Q 104.28 125.41 100.88 130.12   Z   M 152.7324 124.1608   A 3.19 2.07 -88.7 0 0 150.5905 127.3030   A 3.19 2.07 -88.7 0 0 152.5876 130.5392   A 3.19 2.07 -88.7 0 0 154.7295 127.3970   A 3.19 2.07 -88.7 0 0 152.7324 124.1608   Z   M 113.89 142.66   L 114.03 142.70   A 2.32 2.31 -75.3 0 0 116.85 141.05   Q 118.62 134.39 118.06 127.88   A 1.95 1.95 0.0 0 0 115.82 126.12   L 115.79 126.12   A 2.35 2.34 -6.3 0 0 113.81 128.59   Q 114.23 135.46 112.50 139.93   A 2.05 2.05 0.0 0 0 113.89 142.66   Z   M 154.5509 140.4867   A 1.86 1.86 0.0 0 0 152.6876 138.6299   L 152.5876 138.6301   A 1.86 1.86 0.0 0 0 150.7309 140.4934   L 150.7691 162.3933   A 1.86 1.86 0.0 0 0 152.6324 164.2501   L 152.7324 164.2499   A 1.86 1.86 0.0 0 0 154.5891 162.3866   L 154.5509 140.4867   Z   M 64.9745 141.1630   A 1.97 1.97 0.0 0 0 62.9976 139.1999   L 62.8776 139.2003   A 1.97 1.97 0.0 0 0 60.9145 141.1771   L 60.9855 161.5370   A 1.97 1.97 0.0 0 0 62.9624 163.5001   L 63.0824 163.4997   A 1.97 1.97 0.0 0 0 65.0455 161.5229   L 64.9745 141.1630   Z" fill="#ffffff"/>
<rect fill="#b4b1b4" height="25.86" rx="2.03" transform="translate(62.91,50.72) rotate(-0.1)" width="4.16" x="-2.08" y="-12.93"/>
<rect fill="#b4b1b4" height="26.72" rx="2.01" transform="translate(152.35,51.21) rotate(-0.3)" width="4.10" x="-2.05" y="-13.36"/>
<path class="icon-shape" d="   M 120.48 100.73   L 89.57 92.18   A 0.41 0.40 13.7 0 0 89.07 92.48   C 88.01 97.25 86.93 106.89 79.63 104.75   C 75.08 103.42 70.83 101.80 72.07 96.05   Q 73.34 90.19 74.32 88.01   Q 75.21 86.03 75.24 84.69   C 75.29 81.78 76.65 77.76 78.43 70.48   Q 78.72 69.31 80.89 67.80   C 81.68 67.25 82.89 67.53 83.86 67.33   A 1.17 1.17 0.0 0 0 84.64 66.73   Q 88.91 58.65 91.12 55.65   Q 95.74 49.39 103.43 51.54   Q 125.67 57.77 126.25 57.91   C 132.67 59.48 136.55 61.31 138.61 67.45   C 139.92 71.38 138.63 77.52 138.61 81.94   A 0.76 0.75 13.3 0 0 139.05 82.64   C 142.88 84.48 143.24 86.17 142.03 90.36   Q 139.50 99.08 138.99 100.71   A 6.24 6.00 70.5 0 1 138.31 102.21   L 137.59 103.35   A 3.94 3.91 68.4 0 0 137.13 104.42   C 135.51 110.93 134.47 119.65 126.62 117.40   C 124.56 116.81 121.71 116.16 120.40 114.76   Q 117.56 111.71 119.16 107.45   Q 120.15 104.82 120.99 101.61   A 0.73 0.73 0.0 0 0 120.48 100.73   Z   M 111.52 74.61   Q 122.12 77.60 133.54 80.85   A 0.70 0.70 0.0 0 0 134.43 80.23   Q 134.67 76.83 134.75 72.11   C 134.81 68.15 133.38 64.37 129.70 63.32   Q 122.69 61.32 115.82 59.38   Q 108.95 57.44 101.92 55.48   C 98.24 54.46 95.05 56.93 93.03 60.34   Q 90.63 64.41 89.06 67.43   A 0.70 0.70 0.0 0 0 89.49 68.42   Q 100.93 71.62 111.52 74.61   Z   M 138.3371 88.3323   A 1.93 1.93 0.0 0 0 137.0014 85.9521   L 84.4769 71.1881   A 1.93 1.93 0.0 0 0 82.0967 72.5239   L 79.2229 82.7477   A 1.93 1.93 0.0 0 0 80.5586 85.1279   L 133.0831 99.8919   A 1.93 1.93 0.0 0 0 135.4633 98.5561   L 138.3371 88.3323   Z   M 84.9957 92.5122   A 1.49 1.49 0.0 0 0 83.9421 90.6873   L 79.6148 89.5278   A 1.49 1.49 0.0 0 0 77.7899 90.5814   L 75.8643 97.7678   A 1.49 1.49 0.0 0 0 76.9179 99.5927   L 81.2452 100.7522   A 1.49 1.49 0.0 0 0 83.0701 99.6986   L 84.9957 92.5122   Z   M 131.92 104.15   L 126.28 102.48   A 1.29 1.29 0.0 0 0 124.68 103.35   L 122.86 109.46   A 2.53 2.41 -73.5 0 0 124.46 112.57   L 127.95 113.61   A 2.53 2.41 -73.5 0 0 130.98 111.87   L 132.79 105.75   A 1.29 1.29 0.0 0 0 131.92 104.15   Z" fill="#b4b1b4"/>
<path class="icon-shape" d="   M 115.82 59.38   Q 122.69 61.32 129.70 63.32   C 133.38 64.37 134.81 68.15 134.75 72.11   Q 134.67 76.83 134.43 80.23   A 0.70 0.70 0.0 0 1 133.54 80.85   Q 122.12 77.60 111.52 74.61   Q 100.93 71.62 89.49 68.42   A 0.70 0.70 0.0 0 1 89.06 67.43   Q 90.63 64.41 93.03 60.34   C 95.05 56.93 98.24 54.46 101.92 55.48   Q 108.95 57.44 115.82 59.38   Z" fill="#ffffff"/>
<path class="icon-shape" d="   M 169.70 66.46   C 171.64 63.09 175.30 62.75 178.23 65.01   A 3.00 2.90 -87.1 0 1 178.97 65.86   Q 194.66 92.90 203.50 108.96   C 205.12 111.91 204.23 115.87 201.37 117.67   Q 200.34 118.31 197.03 118.39   Q 174.99 118.91 151.99 119.14   C 146.52 119.19 142.55 114.90 145.55 109.52   Q 166.14 72.65 169.70 66.46   Z   M 148.81 112.52   A 1.33 1.32 14.6 0 0 149.97 114.49   Q 162.80 114.51 196.75 114.29   Q 198.53 114.28 199.38 113.41   A 1.99 1.98 52.6 0 0 199.69 111.05   Q 187.88 90.04 175.49 68.55   A 1.17 1.17 0.0 0 0 173.45 68.56   L 148.81 112.52   Z" fill="#b4b1b4"/>
<path class="icon-shape" d="   M 148.81 112.52   L 173.45 68.56   A 1.17 1.17 0.0 0 1 175.49 68.55   Q 187.88 90.04 199.69 111.05   A 1.99 1.98 52.6 0 1 199.38 113.41   Q 198.53 114.28 196.75 114.29   Q 162.80 114.51 149.97 114.49   A 1.33 1.32 14.6 0 1 148.81 112.52   Z   M 176.1751 85.5394   A 2.17 2.17 0.0 0 0 173.9750 83.3999   L 173.8350 83.4018   A 2.17 2.17 0.0 0 0 171.6956 85.6019   L 171.8849 99.1606   A 2.17 2.17 0.0 0 0 174.0850 101.3001   L 174.2250 101.2982   A 2.17 2.17 0.0 0 0 176.3644 99.0981   L 176.1751 85.5394   Z   M 177.27 107.21   A 2.65 2.65 0.0 0 0 174.62 104.56   A 2.65 2.65 0.0 0 0 171.97 107.21   A 2.65 2.65 0.0 0 0 174.62 109.86   A 2.65 2.65 0.0 0 0 177.27 107.21   Z" fill="#ffffff"/>
<rect fill="#ffffff" height="14.48" rx="1.93" transform="translate(108.78,85.54) rotate(15.7)" width="58.42" x="-29.21" y="-7.24"/>
<rect fill="#b4b1b4" height="25.22" rx="1.99" width="4.08" x="60.92" y="71.73"/>
<ellipse cx="0.00" cy="0.00" fill="#b4b1b4" rx="3.94" ry="2.22" transform="translate(152.51,76.42) rotate(-90.3)"/>
<rect fill="#b4b1b4" height="17.90" rx="2.17" transform="translate(174.03,92.35) rotate(-0.8)" width="4.48" x="-2.24" y="-8.95"/>
<rect fill="#ffffff" height="10.42" rx="1.49" transform="translate(80.43,95.14) rotate(15.0)" width="7.46" x="-3.73" y="-5.21"/>
<path class="icon-shape" d="   M 131.92 104.15   A 1.29 1.29 0.0 0 1 132.79 105.75   L 130.98 111.87   A 2.53 2.41 -73.5 0 1 127.95 113.61   L 124.46 112.57   A 2.53 2.41 -73.5 0 1 122.86 109.46   L 124.68 103.35   A 1.29 1.29 0.0 0 1 126.28 102.48   L 131.92 104.15   Z" fill="#ffffff"/>
<circle cx="174.62" cy="107.21" fill="#b4b1b4" r="2.65"/>
<rect fill="#b4b1b4" height="25.54" rx="1.98" transform="translate(62.97,118.06) rotate(-0.1)" width="4.06" x="-2.03" y="-12.77"/>
<path class="icon-shape" d="   M 104.40 132.66   Q 99.90 138.90 93.01 142.54   A 2.13 2.08 66.9 0 1 90.05 141.31   C 89.55 139.85 90.15 139.22 91.42 138.46   Q 97.48 134.84 100.88 130.12   Q 104.28 125.41 105.80 118.52   C 106.12 117.07 106.53 116.30 108.07 116.31   A 2.13 2.08 4.7 0 1 110.17 118.74   Q 108.90 126.42 104.40 132.66   Z" fill="#b4b1b4"/>
<ellipse cx="0.00" cy="0.00" fill="#b4b1b4" rx="3.19" ry="2.07" transform="translate(152.66,127.35) rotate(-88.7)"/>
<path class="icon-shape" d="   M 112.50 139.93   Q 114.23 135.46 113.81 128.59   A 2.35 2.34 -6.3 0 1 115.79 126.12   L 115.82 126.12   A 1.95 1.95 0.0 0 1 118.06 127.88   Q 118.62 134.39 116.85 141.05   A 2.32 2.31 -75.3 0 1 114.03 142.70   L 113.89 142.66   A 2.05 2.05 0.0 0 1 112.50 139.93   Z" fill="#b4b1b4"/>
<rect fill="#b4b1b4" height="25.62" rx="1.86" transform="translate(152.66,151.44) rotate(-0.1)" width="3.82" x="-1.91" y="-12.81"/>
<rect fill="#b4b1b4" height="24.30" rx="1.97" transform="translate(62.98,151.35) rotate(-0.2)" width="4.06" x="-2.03" y="-12.15"/>
</g><g id="onState" style="display:none"><g fill="none" stroke-linecap="butt" stroke-width="2.00">
<path class="icon-shape" d="   M 60.90 115.75   L 60.98 128.90   A 1.77 1.77 0.0 0 0 62.27 130.59   L 62.80 130.73   A 1.71 1.71 0.0 0 0 64.97 129.10   L 65.07 118.75" stroke="#818182" vector-effect="non-scaling-stroke"/>
<path class="icon-shape" d="   M 65.07 118.75   Q 81.35 129.98 101.65 128.88" stroke="#fef6f6" vector-effect="non-scaling-stroke"/>
<path class="icon-shape" d="   M 101.65 128.88   Q 97.48 135.04 91.02 138.65   A 2.13 2.12 60.4 0 0 90.22 141.57   L 90.25 141.62   A 2.23 2.23 0.0 0 0 93.23 142.47   Q 102.61 137.48 107.40 127.75" stroke="#818182" vector-effect="non-scaling-stroke"/>
<path class="icon-shape" d="   M 107.40 127.75   L 114.19 126.40" stroke="#fef6f6" vector-effect="non-scaling-stroke"/>
<path class="icon-shape" d="   M 114.19 126.40   Q 114.22 134.03 112.35 140.09   A 2.20 2.20 0.0 0 0 114.88 142.90   Q 116.88 142.51 117.49 139.88   Q 119.18 132.60 117.34 125.80" stroke="#818182" vector-effect="non-scaling-stroke"/>
<path class="icon-shape" d="   M 117.34 125.80   Q 123.00 122.98 127.57 120.31   Q 129.14 119.39 130.70 117.81" stroke="#fef6f6" vector-effect="non-scaling-stroke"/>
<path class="icon-shape" d="   M 130.70 117.81   Q 133.15 116.34 134.56 114.46" stroke="#818182" vector-effect="non-scaling-stroke"/>
<path class="icon-shape" d="   M 134.56 114.46   Q 144.39 107.02 149.56 94.34   Q 152.71 86.62 153.05 80.30" stroke="#fef6f6" vector-effect="non-scaling-stroke"/>
<path class="icon-shape" d="   M 153.05 80.30   Q 154.49 79.46 154.65 78.48   Q 155.28 74.72 153.52 72.71" stroke="#818182" vector-effect="non-scaling-stroke"/>
<path class="icon-shape" d="   M 153.52 72.71   L 153.13 64.56" stroke="#fef6f6" vector-effect="non-scaling-stroke"/>
<path class="icon-shape" d="   M 153.13 64.56   Q 154.62 63.48 154.61 62.50   Q 154.52 51.53 154.41 40.05   A 2.16 2.16 0.0 0 0 152.31 37.91   L 152.28 37.91   A 2.05 2.02 -88.8 0 0 150.20 39.93   L 150.04 50.92" stroke="#818182" vector-effect="non-scaling-stroke"/>
<path class="icon-shape" d="   M 150.04 50.92   Q 138.98 26.97 116.30 19.18   C 78.16 6.07 39.42 34.97 41.19 75.37   Q 42.21 98.77 60.90 115.75" stroke="#fef6f6" vector-effect="non-scaling-stroke"/>
<path class="icon-shape" d="   M 150.04 50.92   L 150.33 62.51   A 1.70 1.70 0.0 0 0 150.61 63.41   Q 151.64 65.03 153.13 64.56" stroke="#807878" vector-effect="non-scaling-stroke"/>
<path class="icon-shape" d="   M 153.52 72.71   Q 150.89 71.72 150.38 74.65   Q 150.21 75.62 150.48 78.36   A 1.83 1.80 25.2 0 0 150.78 79.17   Q 151.61 80.43 153.05 80.30" stroke="#807878" vector-effect="non-scaling-stroke"/>
<path class="icon-shape" d="   M 134.56 114.46   L 137.33 104.05   A 1.08 1.02 69.9 0 1 137.45 103.77   L 138.64 101.92   A 0.17 0.02 -52.0 0 0 138.67 101.87   Q 140.09 97.35 141.54 92.21   C 142.88 87.46 143.99 84.74 139.37 82.77   A 1.17 1.15 -78.5 0 1 138.66 81.68   Q 138.73 77.76 139.06 74.36   C 139.78 66.83 137.05 60.76 129.33 58.66   Q 115.35 54.86 110.76 53.48   Q 101.54 50.71 99.31 50.88   Q 93.50 51.33 89.94 57.23   Q 87.04 62.03 84.51 66.79   A 0.95 0.93 15.3 0 1 83.63 67.28   C 79.74 67.08 78.55 69.50 77.66 73.24   C 76.30 78.99 75.12 82.15 75.16 84.90   Q 75.18 86.12 74.29 87.97   Q 73.29 90.06 72.05 95.81   Q 70.80 101.56 76.29 103.74   Q 79.03 104.82 81.42 105.08   C 86.35 105.62 87.39 99.21 88.32 95.85   Q 88.99 93.40 88.99 92.69   A 0.45 0.45 0.0 0 1 89.56 92.25   L 120.62 100.85   A 0.57 0.55 -73.9 0 1 121.00 101.56   L 118.45 109.73   A 1.28 1.28 0.0 0 0 118.41 110.32   Q 119.07 114.20 121.21 115.52   Q 125.11 117.93 130.70 117.81" stroke="#807878" vector-effect="non-scaling-stroke"/>
<path class="icon-shape" d="   M 117.34 125.80   L 114.19 126.40" stroke="#807878" vector-effect="non-scaling-stroke"/>
<path class="icon-shape" d="   M 107.40 127.75   Q 109.67 123.03 110.21 118.44   A 1.84 1.83 -78.9 0 0 108.88 116.46   L 108.45 116.34   A 2.06 2.06 0.0 0 0 105.88 117.93   Q 104.67 124.00 101.65 128.88" stroke="#807878" vector-effect="non-scaling-stroke"/>
<path class="icon-shape" d="   M 65.07 118.75   L 64.96 107.19   A 1.78 1.78 0.0 0 0 63.66 105.50   L 63.13 105.35   A 1.69 1.69 0.0 0 0 60.99 106.97   L 60.90 115.75" stroke="#807878" vector-effect="non-scaling-stroke"/>
<path class="icon-shape" d="   M 178.60 65.32   C 174.54 61.48 170.99 63.85 168.72 67.90   Q 155.37 91.78 145.07 110.24   C 143.37 113.27 144.93 116.89 147.92 118.44   Q 149.28 119.14 153.75 119.12   Q 175.51 118.99 199.52 118.40   A 2.58 2.50 -59.1 0 0 200.71 118.08   Q 204.03 116.26 204.46 112.76   Q 204.70 110.78 202.01 106.02   Q 188.94 82.85 179.10 65.96   A 2.62 2.59 -83.3 0 0 178.60 65.32" stroke="#818182" vector-effect="non-scaling-stroke"/>
<path class="icon-shape" d="   M 152.7001 124.0702   A 3.28 2.19 -89.3 0 0 150.4702 127.3232   A 3.28 2.19 -89.3 0 0 152.6199 130.6298   A 3.28 2.19 -89.3 0 0 154.8498 127.3768   A 3.28 2.19 -89.3 0 0 152.7001 124.0702" stroke="#818182" vector-effect="non-scaling-stroke"/>
<path class="icon-shape" d="   M 154.65 140.47   A 1.95 1.95 0.0 0 0 152.70 138.52   L 152.62 138.52   A 1.95 1.95 0.0 0 0 150.67 140.47   L 150.67 162.37   A 1.95 1.95 0.0 0 0 152.62 164.32   L 152.70 164.32   A 1.95 1.95 0.0 0 0 154.65 162.37   L 154.65 140.47" stroke="#818182" vector-effect="non-scaling-stroke"/>
<path class="icon-shape" d="   M 65.03 141.14   A 2.01 2.01 0.0 0 0 63.02 139.13   L 62.92 139.13   A 2.01 2.01 0.0 0 0 60.91 141.14   L 60.91 161.58   A 2.01 2.01 0.0 0 0 62.92 163.59   L 63.02 163.59   A 2.01 2.01 0.0 0 0 65.03 161.58   L 65.03 141.14" stroke="#818182" vector-effect="non-scaling-stroke"/>
<path class="icon-shape" d="   M 64.9909 39.7464   A 2.05 2.05 0.0 0 0 62.9373 37.6999   L 62.8373 37.7001   A 2.05 2.05 0.0 0 0 60.7909 39.7537   L 60.8291 61.6736   A 2.05 2.05 0.0 0 0 62.8827 63.7201   L 62.9827 63.7199   A 2.05 2.05 0.0 0 0 65.0291 61.6663   L 64.9909 39.7464" stroke="#807878" vector-effect="non-scaling-stroke"/>
<path class="icon-shape" d="   M 65.02 73.65   A 2.02 2.02 0.0 0 0 63.00 71.63   L 62.90 71.63   A 2.02 2.02 0.0 0 0 60.88 73.65   L 60.88 94.97   A 2.02 2.02 0.0 0 0 62.90 96.99   L 63.00 96.99   A 2.02 2.02 0.0 0 0 65.02 94.97   L 65.02 73.65" stroke="#807878" vector-effect="non-scaling-stroke"/>
<path class="icon-shape" d="   M 111.56 74.52   Q 121.76 77.40 133.71 80.82   A 0.47 0.46 10.5 0 0 134.30 80.42   Q 134.92 74.46 134.63 70.47   Q 134.24 64.89 129.71 63.46   Q 127.63 62.81 115.82 59.47   Q 104.01 56.13 101.89 55.60   Q 97.29 54.44 94.03 58.99   Q 91.70 62.24 89.10 67.64   A 0.47 0.46 21.1 0 0 89.40 68.29   Q 101.37 71.64 111.56 74.52" stroke="#807878" vector-effect="non-scaling-stroke"/>
<path class="icon-shape" d="   M 138.3267 88.2926   A 1.84 1.84 0.0 0 0 137.0533 86.0234   L 84.4325 71.2324   A 1.84 1.84 0.0 0 0 82.1633 72.5058   L 79.2733 82.7874   A 1.84 1.84 0.0 0 0 80.5467 85.0566   L 133.1675 99.8476   A 1.84 1.84 0.0 0 0 135.4367 98.5742   L 138.3267 88.2926" stroke="#818182" vector-effect="non-scaling-stroke"/>
<path class="icon-shape" d="   M 79.06 100.21   Q 80.31 100.54 81.80 100.50   A 1.30 1.30 0.0 0 0 83.02 99.53   L 85.13 91.94   A 0.80 0.80 0.0 0 0 84.54 90.95   Q 83.11 90.60 81.74 90.23   Q 80.38 89.86 78.96 89.45   A 0.80 0.80 0.0 0 0 77.96 90.01   L 75.98 97.64   A 1.30 1.30 0.0 0 0 76.55 99.09   Q 77.82 99.88 79.06 100.21" stroke="#818182" vector-effect="non-scaling-stroke"/>
<path class="icon-shape" d="   M 131.90 104.24   L 126.23 102.54   A 1.21 1.21 0.0 0 0 124.73 103.35   L 122.89 109.48   A 2.41 2.34 -73.3 0 0 124.44 112.46   L 127.94 113.51   A 2.41 2.34 -73.3 0 0 130.88 111.88   L 132.72 105.75   A 1.21 1.21 0.0 0 0 131.90 104.24" stroke="#818182" vector-effect="non-scaling-stroke"/>
<path class="icon-shape" d="   M 173.94 68.33   Q 173.49 68.51 173.23 68.99   Q 156.26 99.57 148.97 112.40   A 1.32 1.32 0.0 0 0 150.12 114.37   Q 172.91 114.40 197.60 114.19   C 199.41 114.17 200.43 112.44 199.48 110.78   Q 186.61 88.08 175.67 68.94   A 1.41 1.40 -25.5 0 0 173.94 68.33" stroke="#818182" vector-effect="non-scaling-stroke"/>
<path class="icon-shape" d="   M 176.2674 85.5823   A 2.25 2.25 0.0 0 0 173.9900 83.3599   L 173.8701 83.3614   A 2.25 2.25 0.0 0 0 171.6477 85.6387   L 171.8126 99.1377   A 2.25 2.25 0.0 0 0 174.0900 101.3601   L 174.2099 101.3586   A 2.25 2.25 0.0 0 0 176.4323 99.0813   L 176.2674 85.5823" stroke="#818182" vector-effect="non-scaling-stroke"/>
<path class="icon-shape" d="   M 177.36 107.21   A 2.74 2.74 0.0 0 0 174.62 104.47   A 2.74 2.74 0.0 0 0 171.88 107.21   A 2.74 2.74 0.0 0 0 174.62 109.95   A 2.74 2.74 0.0 0 0 177.36 107.21" stroke="#818182" vector-effect="non-scaling-stroke"/>
</g>
<path class="icon-shape" d="   M 209.00 0.00   L 209.00 197.00   L 0.00 197.00   L 0.00 0.00   L 209.00 0.00   Z   M 60.90 115.75   L 60.98 128.90   A 1.77 1.77 0.0 0 0 62.27 130.59   L 62.80 130.73   A 1.71 1.71 0.0 0 0 64.97 129.10   L 65.07 118.75   Q 81.35 129.98 101.65 128.88   Q 97.48 135.04 91.02 138.65   A 2.13 2.12 60.4 0 0 90.22 141.57   L 90.25 141.62   A 2.23 2.23 0.0 0 0 93.23 142.47   Q 102.61 137.48 107.40 127.75   L 114.19 126.40   Q 114.22 134.03 112.35 140.09   A 2.20 2.20 0.0 0 0 114.88 142.90   Q 116.88 142.51 117.49 139.88   Q 119.18 132.60 117.34 125.80   Q 123.00 122.98 127.57 120.31   Q 129.14 119.39 130.70 117.81   Q 133.15 116.34 134.56 114.46   Q 144.39 107.02 149.56 94.34   Q 152.71 86.62 153.05 80.30   Q 154.49 79.46 154.65 78.48   Q 155.28 74.72 153.52 72.71   L 153.13 64.56   Q 154.62 63.48 154.61 62.50   Q 154.52 51.53 154.41 40.05   A 2.16 2.16 0.0 0 0 152.31 37.91   L 152.28 37.91   A 2.05 2.02 -88.8 0 0 150.20 39.93   L 150.04 50.92   Q 138.98 26.97 116.30 19.18   C 78.16 6.07 39.42 34.97 41.19 75.37   Q 42.21 98.77 60.90 115.75   Z   M 178.60 65.32   C 174.54 61.48 170.99 63.85 168.72 67.90   Q 155.37 91.78 145.07 110.24   C 143.37 113.27 144.93 116.89 147.92 118.44   Q 149.28 119.14 153.75 119.12   Q 175.51 118.99 199.52 118.40   A 2.58 2.50 -59.1 0 0 200.71 118.08   Q 204.03 116.26 204.46 112.76   Q 204.70 110.78 202.01 106.02   Q 188.94 82.85 179.10 65.96   A 2.62 2.59 -83.3 0 0 178.60 65.32   Z   M 152.7001 124.0702   A 3.28 2.19 -89.3 0 0 150.4702 127.3232   A 3.28 2.19 -89.3 0 0 152.6199 130.6298   A 3.28 2.19 -89.3 0 0 154.8498 127.3768   A 3.28 2.19 -89.3 0 0 152.7001 124.0702   Z   M 154.65 140.47   A 1.95 1.95 0.0 0 0 152.70 138.52   L 152.62 138.52   A 1.95 1.95 0.0 0 0 150.67 140.47   L 150.67 162.37   A 1.95 1.95 0.0 0 0 152.62 164.32   L 152.70 164.32   A 1.95 1.95 0.0 0 0 154.65 162.37   L 154.65 140.47   Z   M 65.03 141.14   A 2.01 2.01 0.0 0 0 63.02 139.13   L 62.92 139.13   A 2.01 2.01 0.0 0 0 60.91 141.14   L 60.91 161.58   A 2.01 2.01 0.0 0 0 62.92 163.59   L 63.02 163.59   A 2.01 2.01 0.0 0 0 65.03 161.58   L 65.03 141.14   Z" fill="#ffffff"/>
<path class="icon-shape" d="   M 150.04 50.92   L 150.33 62.51   A 1.70 1.70 0.0 0 0 150.61 63.41   Q 151.64 65.03 153.13 64.56   L 153.52 72.71   Q 150.89 71.72 150.38 74.65   Q 150.21 75.62 150.48 78.36   A 1.83 1.80 25.2 0 0 150.78 79.17   Q 151.61 80.43 153.05 80.30   Q 152.71 86.62 149.56 94.34   Q 144.39 107.02 134.56 114.46   L 137.33 104.05   A 1.08 1.02 69.9 0 1 137.45 103.77   L 138.64 101.92   A 0.17 0.02 -52.0 0 0 138.67 101.87   Q 140.09 97.35 141.54 92.21   C 142.88 87.46 143.99 84.74 139.37 82.77   A 1.17 1.15 -78.5 0 1 138.66 81.68   Q 138.73 77.76 139.06 74.36   C 139.78 66.83 137.05 60.76 129.33 58.66   Q 115.35 54.86 110.76 53.48   Q 101.54 50.71 99.31 50.88   Q 93.50 51.33 89.94 57.23   Q 87.04 62.03 84.51 66.79   A 0.95 0.93 15.3 0 1 83.63 67.28   C 79.74 67.08 78.55 69.50 77.66 73.24   C 76.30 78.99 75.12 82.15 75.16 84.90   Q 75.18 86.12 74.29 87.97   Q 73.29 90.06 72.05 95.81   Q 70.80 101.56 76.29 103.74   Q 79.03 104.82 81.42 105.08   C 86.35 105.62 87.39 99.21 88.32 95.85   Q 88.99 93.40 88.99 92.69   A 0.45 0.45 0.0 0 1 89.56 92.25   L 120.62 100.85   A 0.57 0.55 -73.9 0 1 121.00 101.56   L 118.45 109.73   A 1.28 1.28 0.0 0 0 118.41 110.32   Q 119.07 114.20 121.21 115.52   Q 125.11 117.93 130.70 117.81   Q 129.14 119.39 127.57 120.31   Q 123.00 122.98 117.34 125.80   L 114.19 126.40   L 107.40 127.75   Q 109.67 123.03 110.21 118.44   A 1.84 1.83 -78.9 0 0 108.88 116.46   L 108.45 116.34   A 2.06 2.06 0.0 0 0 105.88 117.93   Q 104.67 124.00 101.65 128.88   Q 81.35 129.98 65.07 118.75   L 64.96 107.19   A 1.78 1.78 0.0 0 0 63.66 105.50   L 63.13 105.35   A 1.69 1.69 0.0 0 0 60.99 106.97   L 60.90 115.75   Q 42.21 98.77 41.19 75.37   C 39.42 34.97 78.16 6.07 116.30 19.18   Q 138.98 26.97 150.04 50.92   Z   M 64.9909 39.7464   A 2.05 2.05 0.0 0 0 62.9373 37.6999   L 62.8373 37.7001   A 2.05 2.05 0.0 0 0 60.7909 39.7537   L 60.8291 61.6736   A 2.05 2.05 0.0 0 0 62.8827 63.7201   L 62.9827 63.7199   A 2.05 2.05 0.0 0 0 65.0291 61.6663   L 64.9909 39.7464   Z   M 65.02 73.65   A 2.02 2.02 0.0 0 0 63.00 71.63   L 62.90 71.63   A 2.02 2.02 0.0 0 0 60.88 73.65   L 60.88 94.97   A 2.02 2.02 0.0 0 0 62.90 96.99   L 63.00 96.99   A 2.02 2.02 0.0 0 0 65.02 94.97   L 65.02 73.65   Z" fill="#fdedec"/>
<rect fill="#030304" height="26.02" rx="2.05" transform="translate(62.91,50.71) rotate(-0.1)" width="4.20" x="-2.10" y="-13.01"/>
<path class="icon-shape" d="   M 153.13 64.56   Q 151.64 65.03 150.61 63.41   A 1.70 1.70 0.0 0 1 150.33 62.51   L 150.04 50.92   L 150.20 39.93   A 2.05 2.02 -88.8 0 1 152.28 37.91   L 152.31 37.91   A 2.16 2.16 0.0 0 1 154.41 40.05   Q 154.52 51.53 154.61 62.50   Q 154.62 63.48 153.13 64.56   Z" fill="#030304"/>
<path class="icon-shape" d="   M 134.56 114.46   Q 133.15 116.34 130.70 117.81   Q 125.11 117.93 121.21 115.52   Q 119.07 114.20 118.41 110.32   A 1.28 1.28 0.0 0 1 118.45 109.73   L 121.00 101.56   A 0.57 0.55 -73.9 0 0 120.62 100.85   L 89.56 92.25   A 0.45 0.45 0.0 0 0 88.99 92.69   Q 88.99 93.40 88.32 95.85   C 87.39 99.21 86.35 105.62 81.42 105.08   Q 79.03 104.82 76.29 103.74   Q 70.80 101.56 72.05 95.81   Q 73.29 90.06 74.29 87.97   Q 75.18 86.12 75.16 84.90   C 75.12 82.15 76.30 78.99 77.66 73.24   C 78.55 69.50 79.74 67.08 83.63 67.28   A 0.95 0.93 15.3 0 0 84.51 66.79   Q 87.04 62.03 89.94 57.23   Q 93.50 51.33 99.31 50.88   Q 101.54 50.71 110.76 53.48   Q 115.35 54.86 129.33 58.66   C 137.05 60.76 139.78 66.83 139.06 74.36   Q 138.73 77.76 138.66 81.68   A 1.17 1.15 -78.5 0 0 139.37 82.77   C 143.99 84.74 142.88 87.46 141.54 92.21   Q 140.09 97.35 138.67 101.87   A 0.17 0.02 -52.0 0 1 138.64 101.92   L 137.45 103.77   A 1.08 1.02 69.9 0 0 137.33 104.05   L 134.56 114.46   Z   M 111.56 74.52   Q 121.76 77.40 133.71 80.82   A 0.47 0.46 10.5 0 0 134.30 80.42   Q 134.92 74.46 134.63 70.47   Q 134.24 64.89 129.71 63.46   Q 127.63 62.81 115.82 59.47   Q 104.01 56.13 101.89 55.60   Q 97.29 54.44 94.03 58.99   Q 91.70 62.24 89.10 67.64   A 0.47 0.46 21.1 0 0 89.40 68.29   Q 101.37 71.64 111.56 74.52   Z   M 138.3267 88.2926   A 1.84 1.84 0.0 0 0 137.0533 86.0234   L 84.4325 71.2324   A 1.84 1.84 0.0 0 0 82.1633 72.5058   L 79.2733 82.7874   A 1.84 1.84 0.0 0 0 80.5467 85.0566   L 133.1675 99.8476   A 1.84 1.84 0.0 0 0 135.4367 98.5742   L 138.3267 88.2926   Z   M 79.06 100.21   Q 80.31 100.54 81.80 100.50   A 1.30 1.30 0.0 0 0 83.02 99.53   L 85.13 91.94   A 0.80 0.80 0.0 0 0 84.54 90.95   Q 83.11 90.60 81.74 90.23   Q 80.38 89.86 78.96 89.45   A 0.80 0.80 0.0 0 0 77.96 90.01   L 75.98 97.64   A 1.30 1.30 0.0 0 0 76.55 99.09   Q 77.82 99.88 79.06 100.21   Z   M 131.90 104.24   L 126.23 102.54   A 1.21 1.21 0.0 0 0 124.73 103.35   L 122.89 109.48   A 2.41 2.34 -73.3 0 0 124.44 112.46   L 127.94 113.51   A 2.41 2.34 -73.3 0 0 130.88 111.88   L 132.72 105.75   A 1.21 1.21 0.0 0 0 131.90 104.24   Z" fill="#030304"/>
<path class="icon-shape" d="   M 115.82 59.47   Q 127.63 62.81 129.71 63.46   Q 134.24 64.89 134.63 70.47   Q 134.92 74.46 134.30 80.42   A 0.47 0.46 10.5 0 1 133.71 80.82   Q 121.76 77.40 111.56 74.52   Q 101.37 71.64 89.40 68.29   A 0.47 0.46 21.1 0 1 89.10 67.64   Q 91.70 62.24 94.03 58.99   Q 97.29 54.44 101.89 55.60   Q 104.01 56.13 115.82 59.47   Z" fill="#fdedec"/>
<path class="icon-shape" d="   M 168.72 67.90   C 170.99 63.85 174.54 61.48 178.60 65.32   A 2.62 2.59 -83.3 0 1 179.10 65.96   Q 188.94 82.85 202.01 106.02   Q 204.70 110.78 204.46 112.76   Q 204.03 116.26 200.71 118.08   A 2.58 2.50 -59.1 0 1 199.52 118.40   Q 175.51 118.99 153.75 119.12   Q 149.28 119.14 147.92 118.44   C 144.93 116.89 143.37 113.27 145.07 110.24   Q 155.37 91.78 168.72 67.90   Z   M 173.94 68.33   Q 173.49 68.51 173.23 68.99   Q 156.26 99.57 148.97 112.40   A 1.32 1.32 0.0 0 0 150.12 114.37   Q 172.91 114.40 197.60 114.19   C 199.41 114.17 200.43 112.44 199.48 110.78   Q 186.61 88.08 175.67 68.94   A 1.41 1.40 -25.5 0 0 173.94 68.33   Z" fill="#030304"/>
<path class="icon-shape" d="   M 173.94 68.33   A 1.41 1.40 -25.5 0 1 175.67 68.94   Q 186.61 88.08 199.48 110.78   C 200.43 112.44 199.41 114.17 197.60 114.19   Q 172.91 114.40 150.12 114.37   A 1.32 1.32 0.0 0 1 148.97 112.40   Q 156.26 99.57 173.23 68.99   Q 173.49 68.51 173.94 68.33   Z   M 176.2674 85.5823   A 2.25 2.25 0.0 0 0 173.9900 83.3599   L 173.8701 83.3614   A 2.25 2.25 0.0 0 0 171.6477 85.6387   L 171.8126 99.1377   A 2.25 2.25 0.0 0 0 174.0900 101.3601   L 174.2099 101.3586   A 2.25 2.25 0.0 0 0 176.4323 99.0813   L 176.2674 85.5823   Z   M 177.36 107.21   A 2.74 2.74 0.0 0 0 174.62 104.47   A 2.74 2.74 0.0 0 0 171.88 107.21   A 2.74 2.74 0.0 0 0 174.62 109.95   A 2.74 2.74 0.0 0 0 177.36 107.21   Z" fill="#ffffff"/>
<rect fill="#ffffff" height="14.36" rx="1.84" transform="translate(108.80,85.54) rotate(15.7)" width="58.34" x="-29.17" y="-7.18"/>
<rect fill="#030304" height="25.36" rx="2.02" width="4.14" x="60.88" y="71.63"/>
<path class="icon-shape" d="   M 153.52 72.71   Q 155.28 74.72 154.65 78.48   Q 154.49 79.46 153.05 80.30   Q 151.61 80.43 150.78 79.17   A 1.83 1.80 25.2 0 1 150.48 78.36   Q 150.21 75.62 150.38 74.65   Q 150.89 71.72 153.52 72.71   Z" fill="#030304"/>
<rect fill="#030304" height="18.00" rx="2.25" transform="translate(174.04,92.36) rotate(-0.7)" width="4.62" x="-2.31" y="-9.00"/>
<path class="icon-shape" d="   M 81.74 90.23   Q 83.11 90.60 84.54 90.95   A 0.80 0.80 0.0 0 1 85.13 91.94   L 83.02 99.53   A 1.30 1.30 0.0 0 1 81.80 100.50   Q 80.31 100.54 79.06 100.21   Q 77.82 99.88 76.55 99.09   A 1.30 1.30 0.0 0 1 75.98 97.64   L 77.96 90.01   A 0.80 0.80 0.0 0 1 78.96 89.45   Q 80.38 89.86 81.74 90.23   Z" fill="#ffffff"/>
<path class="icon-shape" d="   M 131.90 104.24   A 1.21 1.21 0.0 0 1 132.72 105.75   L 130.88 111.88   A 2.41 2.34 -73.3 0 1 127.94 113.51   L 124.44 112.46   A 2.41 2.34 -73.3 0 1 122.89 109.48   L 124.73 103.35   A 1.21 1.21 0.0 0 1 126.23 102.54   L 131.90 104.24   Z" fill="#ffffff"/>
<circle cx="174.62" cy="107.21" fill="#030304" r="2.74"/>
<path class="icon-shape" d="   M 65.07 118.75   L 64.97 129.10   A 1.71 1.71 0.0 0 1 62.80 130.73   L 62.27 130.59   A 1.77 1.77 0.0 0 1 60.98 128.90   L 60.90 115.75   L 60.99 106.97   A 1.69 1.69 0.0 0 1 63.13 105.35   L 63.66 105.50   A 1.78 1.78 0.0 0 1 64.96 107.19   L 65.07 118.75   Z" fill="#030304"/>
<path class="icon-shape" d="   M 107.40 127.75   Q 102.61 137.48 93.23 142.47   A 2.23 2.23 0.0 0 1 90.25 141.62   L 90.22 141.57   A 2.13 2.12 60.4 0 1 91.02 138.65   Q 97.48 135.04 101.65 128.88   Q 104.67 124.00 105.88 117.93   A 2.06 2.06 0.0 0 1 108.45 116.34   L 108.88 116.46   A 1.84 1.83 -78.9 0 1 110.21 118.44   Q 109.67 123.03 107.40 127.75   Z" fill="#030304"/>
<ellipse cx="0.00" cy="0.00" fill="#030304" rx="3.28" ry="2.19" transform="translate(152.66,127.35) rotate(-89.3)"/>
<path class="icon-shape" d="   M 117.34 125.80   Q 119.18 132.60 117.49 139.88   Q 116.88 142.51 114.88 142.90   A 2.20 2.20 0.0 0 1 112.35 140.09   Q 114.22 134.03 114.19 126.40   L 117.34 125.80   Z" fill="#030304"/>
<rect fill="#030304" height="25.80" rx="1.95" width="3.98" x="150.67" y="138.52"/>
<rect fill="#030304" height="24.46" rx="2.01" width="4.12" x="60.91" y="139.13"/>
</g></svg>