<?xml version="1.0" encoding="UTF-8" standalone="no"?>
<!DOCTYPE svg PUBLIC "-//W3C//DTD SVG 1.1//EN" "http://www.w3.org/Graphics/SVG/1.1/DTD/svg11.dtd">
<svg xmlns="http://www.w3.org/2000/svg" version="1.1" viewBox="0.00 0.00 195.00 209.00">
<g stroke-width="2.00" fill="none" stroke-linecap="butt">
<path stroke="#d9d8da" vector-effect="non-scaling-stroke" d="
  M 139.04 83.15
  C 132.90 85.36 129.67 91.27 127.48 97.22
  Q 121.37 113.82 118.26 125.19
  A 1.26 1.26 0.0 0 1 116.86 126.11
  Q 90.11 122.07 75.61 119.59
  Q 66.31 118.00 62.26 118.98
  Q 55.18 120.68 51.60 126.84
  C 49.30 130.81 49.93 136.66 51.31 140.91
  Q 53.59 147.97 55.52 152.93
  Q 58.17 159.77 64.36 162.74
  Q 67.59 164.30 75.83 164.20
  Q 90.16 164.02 123.80 164.23
  Q 132.50 164.28 135.74 162.76
  Q 143.45 159.15 145.28 150.24
  Q 148.87 132.72 162.84 61.11
  A 2.50 2.27 53.6 0 0 162.89 60.62
  C 162.64 51.50 153.46 48.46 145.83 50.21
  Q 139.43 51.68 137.36 58.41
  Q 136.03 62.77 135.37 69.52
  Q 134.66 76.81 139.29 82.22
  A 0.59 0.58 -30.2 0 1 139.04 83.15"
/>
<path stroke="#d9d8da" vector-effect="non-scaling-stroke" d="
  M 89.45 59.83
  C 88.60 57.78 86.12 57.87 85.08 59.64
  C 81.33 66.05 83.16 71.73 86.67 77.84
  C 89.70 83.12 86.97 87.86 84.45 92.90
  A 2.33 2.33 0.0 0 0 85.40 95.98
  L 85.48 96.03
  A 2.50 2.49 31.2 0 0 88.77 95.23
  C 91.99 90.37 94.55 83.28 92.35 77.71
  Q 91.90 76.55 88.88 71.01
  C 87.34 68.17 88.28 64.65 89.50 60.96
  A 1.61 1.57 -48.3 0 0 89.45 59.83"
/>
<path stroke="#d9d8da" vector-effect="non-scaling-stroke" d="
  M 105.82 59.98
  C 105.01 57.91 102.52 57.96 101.45 59.71
  C 97.59 66.07 99.33 71.78 102.74 77.96
  C 105.68 83.29 102.87 87.99 100.26 93.00
  A 2.34 2.33 28.9 0 0 101.16 96.10
  L 101.24 96.15
  A 2.50 2.49 32.2 0 0 104.55 95.40
  C 107.85 90.59 110.53 83.54 108.43 77.92
  Q 107.99 76.75 105.06 71.16
  C 103.57 68.29 104.57 64.78 105.85 61.11
  A 1.61 1.57 -47.3 0 0 105.82 59.98"
/>
<path stroke="#d9d8da" vector-effect="non-scaling-stroke" d="
  M 73.24 59.92
  C 72.38 57.88 69.91 57.98 68.88 59.75
  C 65.18 66.16 67.04 71.80 70.57 77.87
  C 73.61 83.11 70.92 87.85 68.44 92.88
  A 2.33 2.32 27.6 0 0 69.40 95.95
  L 69.48 95.99
  A 2.49 2.48 30.9 0 0 72.76 95.18
  C 75.94 90.32 78.45 83.25 76.22 77.71
  Q 75.77 76.56 72.73 71.06
  C 71.18 68.23 72.10 64.72 73.29 61.04
  A 1.60 1.56 -48.6 0 0 73.24 59.92"
/>
<path stroke="#d9d8da" vector-effect="non-scaling-stroke" d="
  M 154.21 80.49
  Q 155.50 72.73 157.53 63.24
  Q 159.14 55.69 151.79 54.72
  C 144.46 53.75 142.07 57.23 140.98 64.06
  C 139.93 70.69 139.09 77.23 145.79 81.17
  A 1.26 1.26 0.0 0 0 146.44 81.35
  L 153.19 81.35
  A 1.03 1.02 4.6 0 0 154.21 80.49"
/>
<path stroke="#d9d8da" vector-effect="non-scaling-stroke" d="
  M 152.29 86.54
  L 143.56 86.54
  A 3.20 3.16 32.2 0 0 142.21 86.84
  C 135.34 89.98 133.42 94.67 131.07 101.35
  Q 126.83 113.41 122.65 127.34
  C 121.93 129.74 120.82 131.54 118.24 131.17
  Q 107.11 129.58 71.68 123.88
  C 62.87 122.46 53.93 124.56 54.88 135.78
  A 5.01 4.74 -58.3 0 0 55.13 136.98
  Q 59.59 150.39 60.10 151.50
  Q 62.04 155.71 65.48 157.85
  Q 67.58 159.16 73.34 159.16
  Q 87.79 159.15 127.97 159.12
  Q 138.66 159.11 140.68 148.87
  Q 148.94 106.96 152.80 87.17
  A 0.52 0.52 0.0 0 0 152.29 86.54"
/>
</g>
<path fill="#ffffff" d="
  M 195.00 0.00
  L 195.00 209.00
  L 0.00 209.00
  L 0.00 0.00
  L 195.00 0.00
  Z
  M 139.04 83.15
  C 132.90 85.36 129.67 91.27 127.48 97.22
  Q 121.37 113.82 118.26 125.19
  A 1.26 1.26 0.0 0 1 116.86 126.11
  Q 90.11 122.07 75.61 119.59
  Q 66.31 118.00 62.26 118.98
  Q 55.18 120.68 51.60 126.84
  C 49.30 130.81 49.93 136.66 51.31 140.91
  Q 53.59 147.97 55.52 152.93
  Q 58.17 159.77 64.36 162.74
  Q 67.59 164.30 75.83 164.20
  Q 90.16 164.02 123.80 164.23
  Q 132.50 164.28 135.74 162.76
  Q 143.45 159.15 145.28 150.24
  Q 148.87 132.72 162.84 61.11
  A 2.50 2.27 53.6 0 0 162.89 60.62
  C 162.64 51.50 153.46 48.46 145.83 50.21
  Q 139.43 51.68 137.36 58.41
  Q 136.03 62.77 135.37 69.52
  Q 134.66 76.81 139.29 82.22
  A 0.59 0.58 -30.2 0 1 139.04 83.15
  Z
  M 89.45 59.83
  C 88.60 57.78 86.12 57.87 85.08 59.64
  C 81.33 66.05 83.16 71.73 86.67 77.84
  C 89.70 83.12 86.97 87.86 84.45 92.90
  A 2.33 2.33 0.0 0 0 85.40 95.98
  L 85.48 96.03
  A 2.50 2.49 31.2 0 0 88.77 95.23
  C 91.99 90.37 94.55 83.28 92.35 77.71
  Q 91.90 76.55 88.88 71.01
  C 87.34 68.17 88.28 64.65 89.50 60.96
  A 1.61 1.57 -48.3 0 0 89.45 59.83
  Z
  M 105.82 59.98
  C 105.01 57.91 102.52 57.96 101.45 59.71
  C 97.59 66.07 99.33 71.78 102.74 77.96
  C 105.68 83.29 102.87 87.99 100.26 93.00
  A 2.34 2.33 28.9 0 0 101.16 96.10
  L 101.24 96.15
  A 2.50 2.49 32.2 0 0 104.55 95.40
  C 107.85 90.59 110.53 83.54 108.43 77.92
  Q 107.99 76.75 105.06 71.16
  C 103.57 68.29 104.57 64.78 105.85 61.11
  A 1.61 1.57 -47.3 0 0 105.82 59.98
  Z
  M 73.24 59.92
  C 72.38 57.88 69.91 57.98 68.88 59.75
  C 65.18 66.16 67.04 71.80 70.57 77.87
  C 73.61 83.11 70.92 87.85 68.44 92.88
  A 2.33 2.32 27.6 0 0 69.40 95.95
  L 69.48 95.99
  A 2.49 2.48 30.9 0 0 72.76 95.18
  C 75.94 90.32 78.45 83.25 76.22 77.71
  Q 75.77 76.56 72.73 71.06
  C 71.18 68.23 72.10 64.72 73.29 61.04
  A 1.60 1.56 -48.6 0 0 73.24 59.92
  Z"
/>
<path fill="#b2b0b4" d="
  M 139.04 83.15
  A 0.59 0.58 -30.2 0 0 139.29 82.22
  Q 134.66 76.81 135.37 69.52
  Q 136.03 62.77 137.36 58.41
  Q 139.43 51.68 145.83 50.21
  C 153.46 48.46 162.64 51.50 162.89 60.62
  A 2.50 2.27 53.6 0 1 162.84 61.11
  Q 148.87 132.72 145.28 150.24
  Q 143.45 159.15 135.74 162.76
  Q 132.50 164.28 123.80 164.23
  Q 90.16 164.02 75.83 164.20
  Q 67.59 164.30 64.36 162.74
  Q 58.17 159.77 55.52 152.93
  Q 53.59 147.97 51.31 140.91
  C 49.93 136.66 49.30 130.81 51.60 126.84
  Q 55.18 120.68 62.26 118.98
  Q 66.31 118.00 75.61 119.59
  Q 90.11 122.07 116.86 126.11
  A 1.26 1.26 0.0 0 0 118.26 125.19
  Q 121.37 113.82 127.48 97.22
  C 129.67 91.27 132.90 85.36 139.04 83.15
  Z
  M 154.21 80.49
  Q 155.50 72.73 157.53 63.24
  Q 159.14 55.69 151.79 54.72
  C 144.46 53.75 142.07 57.23 140.98 64.06
  C 139.93 70.69 139.09 77.23 145.79 81.17
  A 1.26 1.26 0.0 0 0 146.44 81.35
  L 153.19 81.35
  A 1.03 1.02 4.6 0 0 154.21 80.49
  Z
  M 152.29 86.54
  L 143.56 86.54
  A 3.20 3.16 32.2 0 0 142.21 86.84
  C 135.34 89.98 133.42 94.67 131.07 101.35
  Q 126.83 113.41 122.65 127.34
  C 121.93 129.74 120.82 131.54 118.24 131.17
  Q 107.11 129.58 71.68 123.88
  C 62.87 122.46 53.93 124.56 54.88 135.78
  A 5.01 4.74 -58.3 0 0 55.13 136.98
  Q 59.59 150.39 60.10 151.50
  Q 62.04 155.71 65.48 157.85
  Q 67.58 159.16 73.34 159.16
  Q 87.79 159.15 127.97 159.12
  Q 138.66 159.11 140.68 148.87
  Q 148.94 106.96 152.80 87.17
  A 0.52 0.52 0.0 0 0 152.29 86.54
  Z"
/>
<path fill="#ffffff" d="
  M 153.19 81.35
  L 146.44 81.35
  A 1.26 1.26 0.0 0 1 145.79 81.17
  C 139.09 77.23 139.93 70.69 140.98 64.06
  C 142.07 57.23 144.46 53.75 151.79 54.72
  Q 159.14 55.69 157.53 63.24
  Q 155.50 72.73 154.21 80.49
  A 1.03 1.02 4.6 0 1 153.19 81.35
  Z"
/>
<path fill="#b2b0b4" d="
  M 85.08 59.64
  C 86.12 57.87 88.60 57.78 89.45 59.83
  A 1.61 1.57 -48.3 0 1 89.50 60.96
  C 88.28 64.65 87.34 68.17 88.88 71.01
  Q 91.90 76.55 92.35 77.71
  C 94.55 83.28 91.99 90.37 88.77 95.23
  A 2.50 2.49 31.2 0 1 85.48 96.03
  L 85.40 95.98
  A 2.33 2.33 0.0 0 1 84.45 92.90
  C 86.97 87.86 89.70 83.12 86.67 77.84
  C 83.16 71.73 81.33 66.05 85.08 59.64
  Z"
/>
<path fill="#b2b0b4" d="
  M 105.82 59.98
  A 1.61 1.57 -47.3 0 1 105.85 61.11
  C 104.57 64.78 103.57 68.29 105.06 71.16
  Q 107.99 76.75 108.43 77.92
  C 110.53 83.54 107.85 90.59 104.55 95.40
  A 2.50 2.49 32.2 0 1 101.24 96.15
  L 101.16 96.10
  A 2.34 2.33 28.9 0 1 100.26 93.00
  C 102.87 87.99 105.68 83.29 102.74 77.96
  C 99.33 71.78 97.59 66.07 101.45 59.71
  C 102.52 57.96 105.01 57.91 105.82 59.98
  Z"
/>
<path fill="#b2b0b4" d="
  M 73.24 59.92
  A 1.60 1.56 -48.6 0 1 73.29 61.04
  C 72.10 64.72 71.18 68.23 72.73 71.06
  Q 75.77 76.56 76.22 77.71
  C 78.45 83.25 75.94 90.32 72.76 95.18
  A 2.49 2.48 30.9 0 1 69.48 95.99
  L 69.40 95.95
  A 2.33 2.32 27.6 0 1 68.44 92.88
  C 70.92 87.85 73.61 83.11 70.57 77.87
  C 67.04 71.80 65.18 66.16 68.88 59.75
  C 69.91 57.98 72.38 57.88 73.24 59.92
  Z"
/>
<path fill="#ffffff" d="
  M 152.80 87.17
  Q 148.94 106.96 140.68 148.87
  Q 138.66 159.11 127.97 159.12
  Q 87.79 159.15 73.34 159.16
  Q 67.58 159.16 65.48 157.85
  Q 62.04 155.71 60.10 151.50
  Q 59.59 150.39 55.13 136.98
  A 5.01 4.74 -58.3 0 1 54.88 135.78
  C 53.93 124.56 62.87 122.46 71.68 123.88
  Q 107.11 129.58 118.24 131.17
  C 120.82 131.54 121.93 129.74 122.65 127.34
  Q 126.83 113.41 131.07 101.35
  C 133.42 94.67 135.34 89.98 142.21 86.84
  A 3.20 3.16 32.2 0 1 143.56 86.54
  L 152.29 86.54
  A 0.52 0.52 0.0 0 1 152.80 87.17
  Z"
/>
</svg>
