<?xml version="1.0" encoding="UTF-8" standalone="no"?>
<!DOCTYPE svg PUBLIC "-//W3C//DTD SVG 1.1//EN" "http://www.w3.org/Graphics/SVG/1.1/DTD/svg11.dtd">
<svg xmlns="http://www.w3.org/2000/svg" version="1.1" viewBox="0.00 0.00 195.00 209.00">
<g stroke-width="2.00" fill="none" stroke-linecap="butt">
<path stroke="#808080" vector-effect="non-scaling-stroke" d="
  M 51.01 127.69
  Q 49.11 133.75 51.44 141.36
  C 54.15 150.16 56.23 159.01 64.46 162.90
  Q 67.17 164.18 74.20 164.17
  Q 126.35 164.10 130.72 164.15
  A 4.64 4.39 -50.1 0 0 131.91 164.01
  Q 143.09 161.18 145.24 150.72
  Q 148.61 134.43 162.21 64.81
  Q 163.26 59.42 162.53 57.22
  C 160.42 50.86 152.78 48.93 146.77 49.88
  C 141.30 50.75 137.93 54.85 136.69 60.10"
/>
<path stroke="#fef6f6" vector-effect="non-scaling-stroke" d="
  M 136.69 60.10
  C 134.83 56.98 133.13 53.46 131.28 50.78
  Q 119.20 33.25 98.68 27.89
  C 70.49 20.52 40.66 36.06 31.19 63.91
  C 23.72 85.87 29.94 109.88 47.49 125.27
  Q 48.62 126.26 51.01 127.69"
/>
<path stroke="#7f7777" vector-effect="non-scaling-stroke" d="
  M 136.69 60.10
  Q 136.29 63.10 135.77 66.21
  C 134.71 72.54 135.09 77.26 139.17 82.26
  A 0.48 0.48 0.0 0 1 138.99 83.00
  C 132.45 85.78 129.61 91.31 127.23 97.72
  Q 121.87 112.20 118.11 125.41
  A 0.97 0.97 0.0 0 1 117.03 126.10
  Q 77.24 119.90 75.18 119.50
  Q 66.56 117.83 61.81 119.02
  Q 54.88 120.76 51.01 127.69"
/>
<path stroke="#7f7777" vector-effect="non-scaling-stroke" d="
  M 105.92 59.96
  C 104.96 57.96 102.56 57.79 101.46 59.67
  Q 98.67 64.41 99.34 69.97
  C 99.89 74.49 105.01 79.65 103.96 83.97
  Q 102.95 88.11 100.27 92.83
  A 2.49 2.48 -58.3 0 0 101.04 96.12
  L 101.11 96.17
  A 2.46 2.46 0.0 0 0 104.46 95.58
  Q 108.40 90.24 109.14 83.56
  C 109.62 79.27 107.92 76.32 105.85 72.71
  C 103.51 68.60 104.46 65.34 105.97 61.08
  A 1.48 1.43 -48.8 0 0 105.92 59.96"
/>
<path stroke="#7f7777" vector-effect="non-scaling-stroke" d="
  M 73.31 59.83
  C 72.31 57.86 69.92 57.75 68.87 59.64
  Q 66.20 64.43 67.00 69.94
  C 67.65 74.43 72.86 79.45 71.92 83.77
  Q 71.01 87.92 68.45 92.68
  A 2.48 2.47 -59.6 0 0 69.29 95.93
  L 69.36 95.98
  A 2.45 2.45 0.0 0 0 72.69 95.32
  Q 76.48 89.91 77.07 83.24
  C 77.44 78.96 75.68 76.07 73.54 72.52
  C 71.11 68.48 71.99 65.22 73.39 60.94
  A 1.48 1.42 -50.2 0 0 73.31 59.83"
/>
<path stroke="#7f7777" vector-effect="non-scaling-stroke" d="
  M 89.53 59.75
  C 88.54 57.77 86.14 57.65 85.08 59.54
  Q 82.38 64.32 83.15 69.85
  C 83.77 74.35 88.97 79.41 88.00 83.74
  Q 87.07 87.89 84.48 92.65
  A 2.48 2.47 -59.3 0 0 85.30 95.91
  L 85.37 95.96
  A 2.46 2.45 -55.9 0 0 88.71 95.32
  Q 92.54 89.91 93.17 83.23
  C 93.56 78.95 91.81 76.04 89.69 72.47
  C 87.27 68.41 88.17 65.15 89.60 60.87
  A 1.48 1.43 -49.8 0 0 89.53 59.75"
/>
<path stroke="#808080" vector-effect="non-scaling-stroke" d="
  M 154.10 80.61
  Q 155.38 73.49 157.62 62.22
  C 158.71 56.73 154.62 54.78 149.99 54.65
  Q 143.85 54.47 142.16 59.57
  Q 140.57 64.37 140.38 71.06
  Q 140.18 77.83 145.60 80.93
  A 1.94 1.87 -27.8 0 0 146.47 81.18
  L 153.19 81.35
  A 0.90 0.89 5.5 0 0 154.10 80.61"
/>
<path stroke="#808080" vector-effect="non-scaling-stroke" d="
  M 152.44 86.65
  L 143.02 86.65
  A 0.96 0.77 29.4 0 0 142.72 86.70
  Q 135.81 89.34 133.08 96.37
  Q 127.37 111.09 123.06 126.38
  C 122.09 129.84 121.05 131.72 117.19 131.13
  Q 97.19 128.02 71.20 123.90
  C 65.07 122.93 58.58 123.44 55.68 129.48
  C 54.17 132.62 54.72 135.64 55.88 139.12
  Q 59.50 150.03 60.33 151.85
  Q 62.65 156.97 67.35 158.61
  Q 68.73 159.09 77.23 159.09
  Q 114.93 159.06 126.48 159.12
  C 132.10 159.15 135.83 158.46 138.75 153.78
  Q 140.16 151.52 141.14 146.42
  Q 142.77 137.93 152.51 88.29
  Q 152.61 87.76 152.66 87.74
  Q 153.59 87.24 152.78 86.74
  A 0.70 0.60 -25.6 0 0 152.44 86.65"
/>
</g>
<path fill="#ffffff" d="
  M 195.00 0.00
  L 195.00 209.00
  L 0.00 209.00
  L 0.00 0.00
  L 195.00 0.00
  Z
  M 51.01 127.69
  Q 49.11 133.75 51.44 141.36
  C 54.15 150.16 56.23 159.01 64.46 162.90
  Q 67.17 164.18 74.20 164.17
  Q 126.35 164.10 130.72 164.15
  A 4.64 4.39 -50.1 0 0 131.91 164.01
  Q 143.09 161.18 145.24 150.72
  Q 148.61 134.43 162.21 64.81
  Q 163.26 59.42 162.53 57.22
  C 160.42 50.86 152.78 48.93 146.77 49.88
  C 141.30 50.75 137.93 54.85 136.69 60.10
  C 134.83 56.98 133.13 53.46 131.28 50.78
  Q 119.20 33.25 98.68 27.89
  C 70.49 20.52 40.66 36.06 31.19 63.91
  C 23.72 85.87 29.94 109.88 47.49 125.27
  Q 48.62 126.26 51.01 127.69
  Z"
/>
<path fill="#fdedec" d="
  M 136.69 60.10
  Q 136.29 63.10 135.77 66.21
  C 134.71 72.54 135.09 77.26 139.17 82.26
  A 0.48 0.48 0.0 0 1 138.99 83.00
  C 132.45 85.78 129.61 91.31 127.23 97.72
  Q 121.87 112.20 118.11 125.41
  A 0.97 0.97 0.0 0 1 117.03 126.10
  Q 77.24 119.90 75.18 119.50
  Q 66.56 117.83 61.81 119.02
  Q 54.88 120.76 51.01 127.69
  Q 48.62 126.26 47.49 125.27
  C 29.94 109.88 23.72 85.87 31.19 63.91
  C 40.66 36.06 70.49 20.52 98.68 27.89
  Q 119.20 33.25 131.28 50.78
  C 133.13 53.46 134.83 56.98 136.69 60.10
  Z
  M 105.92 59.96
  C 104.96 57.96 102.56 57.79 101.46 59.67
  Q 98.67 64.41 99.34 69.97
  C 99.89 74.49 105.01 79.65 103.96 83.97
  Q 102.95 88.11 100.27 92.83
  A 2.49 2.48 -58.3 0 0 101.04 96.12
  L 101.11 96.17
  A 2.46 2.46 0.0 0 0 104.46 95.58
  Q 108.40 90.24 109.14 83.56
  C 109.62 79.27 107.92 76.32 105.85 72.71
  C 103.51 68.60 104.46 65.34 105.97 61.08
  A 1.48 1.43 -48.8 0 0 105.92 59.96
  Z
  M 73.31 59.83
  C 72.31 57.86 69.92 57.75 68.87 59.64
  Q 66.20 64.43 67.00 69.94
  C 67.65 74.43 72.86 79.45 71.92 83.77
  Q 71.01 87.92 68.45 92.68
  A 2.48 2.47 -59.6 0 0 69.29 95.93
  L 69.36 95.98
  A 2.45 2.45 0.0 0 0 72.69 95.32
  Q 76.48 89.91 77.07 83.24
  C 77.44 78.96 75.68 76.07 73.54 72.52
  C 71.11 68.48 71.99 65.22 73.39 60.94
  A 1.48 1.42 -50.2 0 0 73.31 59.83
  Z
  M 89.53 59.75
  C 88.54 57.77 86.14 57.65 85.08 59.54
  Q 82.38 64.32 83.15 69.85
  C 83.77 74.35 88.97 79.41 88.00 83.74
  Q 87.07 87.89 84.48 92.65
  A 2.48 2.47 -59.3 0 0 85.30 95.91
  L 85.37 95.96
  A 2.46 2.45 -55.9 0 0 88.71 95.32
  Q 92.54 89.91 93.17 83.23
  C 93.56 78.95 91.81 76.04 89.69 72.47
  C 87.27 68.41 88.17 65.15 89.60 60.87
  A 1.48 1.43 -49.8 0 0 89.53 59.75
  Z"
/>
<path fill="#010001" d="
  M 51.01 127.69
  Q 54.88 120.76 61.81 119.02
  Q 66.56 117.83 75.18 119.50
  Q 77.24 119.90 117.03 126.10
  A 0.97 0.97 0.0 0 0 118.11 125.41
  Q 121.87 112.20 127.23 97.72
  C 129.61 91.31 132.45 85.78 138.99 83.00
  A 0.48 0.48 0.0 0 0 139.17 82.26
  C 135.09 77.26 134.71 72.54 135.77 66.21
  Q 136.29 63.10 136.69 60.10
  C 137.93 54.85 141.30 50.75 146.77 49.88
  C 152.78 48.93 160.42 50.86 162.53 57.22
  Q 163.26 59.42 162.21 64.81
  Q 148.61 134.43 145.24 150.72
  Q 143.09 161.18 131.91 164.01
  A 4.64 4.39 -50.1 0 1 130.72 164.15
  Q 126.35 164.10 74.20 164.17
  Q 67.17 164.18 64.46 162.90
  C 56.23 159.01 54.15 150.16 51.44 141.36
  Q 49.11 133.75 51.01 127.69
  Z
  M 154.10 80.61
  Q 155.38 73.49 157.62 62.22
  C 158.71 56.73 154.62 54.78 149.99 54.65
  Q 143.85 54.47 142.16 59.57
  Q 140.57 64.37 140.38 71.06
  Q 140.18 77.83 145.60 80.93
  A 1.94 1.87 -27.8 0 0 146.47 81.18
  L 153.19 81.35
  A 0.90 0.89 5.5 0 0 154.10 80.61
  Z
  M 152.44 86.65
  L 143.02 86.65
  A 0.96 0.77 29.4 0 0 142.72 86.70
  Q 135.81 89.34 133.08 96.37
  Q 127.37 111.09 123.06 126.38
  C 122.09 129.84 121.05 131.72 117.19 131.13
  Q 97.19 128.02 71.20 123.90
  C 65.07 122.93 58.58 123.44 55.68 129.48
  C 54.17 132.62 54.72 135.64 55.88 139.12
  Q 59.50 150.03 60.33 151.85
  Q 62.65 156.97 67.35 158.61
  Q 68.73 159.09 77.23 159.09
  Q 114.93 159.06 126.48 159.12
  C 132.10 159.15 135.83 158.46 138.75 153.78
  Q 140.16 151.52 141.14 146.42
  Q 142.77 137.93 152.51 88.29
  Q 152.61 87.76 152.66 87.74
  Q 153.59 87.24 152.78 86.74
  A 0.70 0.60 -25.6 0 0 152.44 86.65
  Z"
/>
<path fill="#ffffff" d="
  M 153.19 81.35
  L 146.47 81.18
  A 1.94 1.87 -27.8 0 1 145.60 80.93
  Q 140.18 77.83 140.38 71.06
  Q 140.57 64.37 142.16 59.57
  Q 143.85 54.47 149.99 54.65
  C 154.62 54.78 158.71 56.73 157.62 62.22
  Q 155.38 73.49 154.10 80.61
  A 0.90 0.89 5.5 0 1 153.19 81.35
  Z"
/>
<path fill="#010001" d="
  M 105.92 59.96
  A 1.48 1.43 -48.8 0 1 105.97 61.08
  C 104.46 65.34 103.51 68.60 105.85 72.71
  C 107.92 76.32 109.62 79.27 109.14 83.56
  Q 108.40 90.24 104.46 95.58
  A 2.46 2.46 0.0 0 1 101.11 96.17
  L 101.04 96.12
  A 2.49 2.48 -58.3 0 1 100.27 92.83
  Q 102.95 88.11 103.96 83.97
  C 105.01 79.65 99.89 74.49 99.34 69.97
  Q 98.67 64.41 101.46 59.67
  C 102.56 57.79 104.96 57.96 105.92 59.96
  Z"
/>
<path fill="#010001" d="
  M 68.87 59.64
  C 69.92 57.75 72.31 57.86 73.31 59.83
  A 1.48 1.42 -50.2 0 1 73.39 60.94
  C 71.99 65.22 71.11 68.48 73.54 72.52
  C 75.68 76.07 77.44 78.96 77.07 83.24
  Q 76.48 89.91 72.69 95.32
  A 2.45 2.45 0.0 0 1 69.36 95.98
  L 69.29 95.93
  A 2.48 2.47 -59.6 0 1 68.45 92.68
  Q 71.01 87.92 71.92 83.77
  C 72.86 79.45 67.65 74.43 67.00 69.94
  Q 66.20 64.43 68.87 59.64
  Z"
/>
<path fill="#010001" d="
  M 89.53 59.75
  A 1.48 1.43 -49.8 0 1 89.60 60.87
  C 88.17 65.15 87.27 68.41 89.69 72.47
  C 91.81 76.04 93.56 78.95 93.17 83.23
  Q 92.54 89.91 88.71 95.32
  A 2.46 2.45 -55.9 0 1 85.37 95.96
  L 85.30 95.91
  A 2.48 2.47 -59.3 0 1 84.48 92.65
  Q 87.07 87.89 88.00 83.74
  C 88.97 79.41 83.77 74.35 83.15 69.85
  Q 82.38 64.32 85.08 59.54
  C 86.14 57.65 88.54 57.77 89.53 59.75
  Z"
/>
<path fill="#ffffff" d="
  M 152.78 86.74
  Q 153.59 87.24 152.66 87.74
  Q 152.61 87.76 152.51 88.29
  Q 142.77 137.93 141.14 146.42
  Q 140.16 151.52 138.75 153.78
  C 135.83 158.46 132.10 159.15 126.48 159.12
  Q 114.93 159.06 77.23 159.09
  Q 68.73 159.09 67.35 158.61
  Q 62.65 156.97 60.33 151.85
  Q 59.50 150.03 55.88 139.12
  C 54.72 135.64 54.17 132.62 55.68 129.48
  C 58.58 123.44 65.07 122.93 71.20 123.90
  Q 97.19 128.02 117.19 131.13
  C 121.05 131.72 122.09 129.84 123.06 126.38
  Q 127.37 111.09 133.08 96.37
  Q 135.81 89.34 142.72 86.70
  A 0.96 0.77 29.4 0 1 143.02 86.65
  L 152.44 86.65
  A 0.70 0.60 -25.6 0 1 152.78 86.74
  Z"
/>
</svg>
