<?xml version="1.0" encoding="UTF-8" standalone="no"?>
<!DOCTYPE svg PUBLIC "-//W3C//DTD SVG 1.1//EN" "http://www.w3.org/Graphics/SVG/1.1/DTD/svg11.dtd">
<svg xmlns="http://www.w3.org/2000/svg" version="1.1" viewBox="0.00 0.00 209.00 207.00">
<g stroke-width="2.00" fill="none" stroke-linecap="butt">
<path stroke="#d9d8da" vector-effect="non-scaling-stroke" d="
  M 100.71 156.52
  Q 119.59 156.54 132.51 156.55
  Q 144.31 156.56 147.84 155.19
  Q 155.21 152.34 159.64 145.39
  Q 161.08 143.14 164.82 127.84
  Q 167.88 115.31 172.31 98.13
  Q 175.19 86.97 166.58 79.66
  Q 156.81 71.38 142.42 60.96
  Q 139.39 58.77 134.87 57.55
  Q 131.39 56.61 126.58 56.53
  Q 113.65 56.30 100.79 56.29
  Q 87.93 56.28 75.00 56.48
  Q 70.19 56.56 66.71 57.49
  Q 62.19 58.71 59.15 60.89
  Q 44.75 71.29 34.96 79.55
  Q 26.34 86.85 29.20 98.01
  Q 33.61 115.20 36.64 127.74
  Q 40.36 143.04 41.80 145.29
  Q 46.21 152.25 53.58 155.11
  Q 57.11 156.49 68.91 156.50
  Q 81.82 156.51 100.71 156.52"
/>
<path stroke="#d9d8da" vector-effect="non-scaling-stroke" d="
  M 100.77 150.90
  Q 129.97 150.89 138.20 150.82
  Q 144.63 150.77 147.63 149.44
  Q 154.71 146.27 156.84 137.81
  Q 166.17 100.85 167.29 96.24
  Q 169.23 88.28 162.35 82.82
  Q 145.40 69.38 139.76 65.55
  Q 134.15 61.73 128.24 61.66
  Q 124.78 61.61 100.73 61.62
  Q 76.68 61.63 73.22 61.68
  Q 67.31 61.76 61.70 65.58
  Q 56.06 69.42 39.13 82.87
  Q 32.25 88.34 34.20 96.30
  Q 35.32 100.91 44.68 137.86
  Q 46.82 146.32 53.90 149.48
  Q 56.90 150.81 63.34 150.86
  Q 71.56 150.91 100.77 150.90"
/>
<path stroke="#d9d8da" vector-effect="non-scaling-stroke" d="
  M 66.78 103.69
  Q 59.16 103.69 58.80 103.64
  A 0.57 0.56 -85.9 0 1 58.32 103.08
  L 58.32 89.41
  A 2.80 2.80 0.0 0 0 55.52 86.61
  L 55.20 86.61
  A 2.86 2.86 0.0 0 0 52.34 89.47
  L 52.34 124.37
  A 2.63 2.62 0.0 0 0 54.97 126.99
  L 55.39 126.99
  A 2.93 2.93 0.0 0 0 58.32 124.06
  L 58.32 109.54
  A 0.57 0.57 0.0 0 1 58.89 108.97
  Q 59.96 108.96 66.78 108.96
  Q 73.61 108.96 74.68 108.97
  A 0.57 0.57 0.0 0 1 75.25 109.54
  L 75.25 124.06
  A 2.93 2.93 0.0 0 0 78.18 126.99
  L 78.60 126.99
  A 2.63 2.62 -0.0 0 0 81.23 124.37
  L 81.22 89.47
  A 2.86 2.86 0.0 0 0 78.36 86.61
  L 78.04 86.61
  A 2.80 2.80 0.0 0 0 75.24 89.41
  L 75.25 103.08
  A 0.57 0.56 85.9 0 1 74.76 103.64
  Q 74.41 103.69 66.78 103.69"
/>
<path stroke="#d9d8da" vector-effect="non-scaling-stroke" d="
  M 102.82 127.32
  C 108.49 127.31 113.71 125.07 115.98 119.77
  Q 117.14 117.06 117.10 110.58
  Q 117.03 97.67 117.04 89.48
  A 2.85 2.84 -1.0 0 0 114.08 86.63
  L 113.93 86.63
  A 3.03 3.03 0.0 0 0 111.01 89.66
  Q 111.03 110.34 111.05 112.39
  C 111.10 118.35 109.24 122.00 102.82 122.00
  C 96.40 122.00 94.54 118.36 94.58 112.40
  Q 94.60 110.35 94.60 89.67
  A 3.03 3.03 0.0 0 0 91.68 86.64
  L 91.53 86.64
  A 2.85 2.84 0.9 0 0 88.57 89.49
  Q 88.59 97.68 88.53 110.59
  Q 88.50 117.07 89.66 119.78
  C 91.94 125.08 97.16 127.32 102.82 127.32"
/>
<path stroke="#d9d8da" vector-effect="non-scaling-stroke" d="
  M 124.37 89.67
  L 124.19 123.81
  A 2.86 2.86 0.0 0 0 127.04 126.68
  L 137.73 126.74
  A 14.89 14.88 0.3 0 0 152.69 111.93
  L 152.75 101.83
  A 14.89 14.88 0.3 0 0 137.93 86.88
  L 127.24 86.82
  A 2.86 2.86 0.0 0 0 124.37 89.67"
/>
<path stroke="#d9d8da" vector-effect="non-scaling-stroke" d="
  M 130.14 92.88
  L 130.10 120.66
  A 0.76 0.76 0.0 0 0 130.85 121.42
  L 137.40 121.43
  A 9.64 9.35 -89.9 0 0 146.77 111.80
  L 146.79 101.78
  A 9.64 9.35 -89.9 0 0 137.46 92.13
  L 130.91 92.12
  A 0.76 0.76 0.0 0 0 130.14 92.88"
/>
</g>
<path fill="#ffffff" d="
  M 209.00 0.00
  L 209.00 207.00
  L 0.00 207.00
  L 0.00 0.00
  L 209.00 0.00
  Z
  M 100.71 156.52
  Q 119.59 156.54 132.51 156.55
  Q 144.31 156.56 147.84 155.19
  Q 155.21 152.34 159.64 145.39
  Q 161.08 143.14 164.82 127.84
  Q 167.88 115.31 172.31 98.13
  Q 175.19 86.97 166.58 79.66
  Q 156.81 71.38 142.42 60.96
  Q 139.39 58.77 134.87 57.55
  Q 131.39 56.61 126.58 56.53
  Q 113.65 56.30 100.79 56.29
  Q 87.93 56.28 75.00 56.48
  Q 70.19 56.56 66.71 57.49
  Q 62.19 58.71 59.15 60.89
  Q 44.75 71.29 34.96 79.55
  Q 26.34 86.85 29.20 98.01
  Q 33.61 115.20 36.64 127.74
  Q 40.36 143.04 41.80 145.29
  Q 46.21 152.25 53.58 155.11
  Q 57.11 156.49 68.91 156.50
  Q 81.82 156.51 100.71 156.52
  Z"
/>
<path fill="#b2b0b4" d="
  M 100.79 56.29
  Q 113.65 56.30 126.58 56.53
  Q 131.39 56.61 134.87 57.55
  Q 139.39 58.77 142.42 60.96
  Q 156.81 71.38 166.58 79.66
  Q 175.19 86.97 172.31 98.13
  Q 167.88 115.31 164.82 127.84
  Q 161.08 143.14 159.64 145.39
  Q 155.21 152.34 147.84 155.19
  Q 144.31 156.56 132.51 156.55
  Q 119.59 156.54 100.71 156.52
  Q 81.82 156.51 68.91 156.50
  Q 57.11 156.49 53.58 155.11
  Q 46.21 152.25 41.80 145.29
  Q 40.36 143.04 36.64 127.74
  Q 33.61 115.20 29.20 98.01
  Q 26.34 86.85 34.96 79.55
  Q 44.75 71.29 59.15 60.89
  Q 62.19 58.71 66.71 57.49
  Q 70.19 56.56 75.00 56.48
  Q 87.93 56.28 100.79 56.29
  Z
  M 100.77 150.90
  Q 129.97 150.89 138.20 150.82
  Q 144.63 150.77 147.63 149.44
  Q 154.71 146.27 156.84 137.81
  Q 166.17 100.85 167.29 96.24
  Q 169.23 88.28 162.35 82.82
  Q 145.40 69.38 139.76 65.55
  Q 134.15 61.73 128.24 61.66
  Q 124.78 61.61 100.73 61.62
  Q 76.68 61.63 73.22 61.68
  Q 67.31 61.76 61.70 65.58
  Q 56.06 69.42 39.13 82.87
  Q 32.25 88.34 34.20 96.30
  Q 35.32 100.91 44.68 137.86
  Q 46.82 146.32 53.90 149.48
  Q 56.90 150.81 63.34 150.86
  Q 71.56 150.91 100.77 150.90
  Z"
/>
<path fill="#ffffff" d="
  M 100.73 61.62
  Q 124.78 61.61 128.24 61.66
  Q 134.15 61.73 139.76 65.55
  Q 145.40 69.38 162.35 82.82
  Q 169.23 88.28 167.29 96.24
  Q 166.17 100.85 156.84 137.81
  Q 154.71 146.27 147.63 149.44
  Q 144.63 150.77 138.20 150.82
  Q 129.97 150.89 100.77 150.90
  Q 71.56 150.91 63.34 150.86
  Q 56.90 150.81 53.90 149.48
  Q 46.82 146.32 44.68 137.86
  Q 35.32 100.91 34.20 96.30
  Q 32.25 88.34 39.13 82.87
  Q 56.06 69.42 61.70 65.58
  Q 67.31 61.76 73.22 61.68
  Q 76.68 61.63 100.73 61.62
  Z
  M 66.78 103.69
  Q 59.16 103.69 58.80 103.64
  A 0.57 0.56 -85.9 0 1 58.32 103.08
  L 58.32 89.41
  A 2.80 2.80 0.0 0 0 55.52 86.61
  L 55.20 86.61
  A 2.86 2.86 0.0 0 0 52.34 89.47
  L 52.34 124.37
  A 2.63 2.62 0.0 0 0 54.97 126.99
  L 55.39 126.99
  A 2.93 2.93 0.0 0 0 58.32 124.06
  L 58.32 109.54
  A 0.57 0.57 0.0 0 1 58.89 108.97
  Q 59.96 108.96 66.78 108.96
  Q 73.61 108.96 74.68 108.97
  A 0.57 0.57 0.0 0 1 75.25 109.54
  L 75.25 124.06
  A 2.93 2.93 0.0 0 0 78.18 126.99
  L 78.60 126.99
  A 2.63 2.62 -0.0 0 0 81.23 124.37
  L 81.22 89.47
  A 2.86 2.86 0.0 0 0 78.36 86.61
  L 78.04 86.61
  A 2.80 2.80 0.0 0 0 75.24 89.41
  L 75.25 103.08
  A 0.57 0.56 85.9 0 1 74.76 103.64
  Q 74.41 103.69 66.78 103.69
  Z
  M 102.82 127.32
  C 108.49 127.31 113.71 125.07 115.98 119.77
  Q 117.14 117.06 117.10 110.58
  Q 117.03 97.67 117.04 89.48
  A 2.85 2.84 -1.0 0 0 114.08 86.63
  L 113.93 86.63
  A 3.03 3.03 0.0 0 0 111.01 89.66
  Q 111.03 110.34 111.05 112.39
  C 111.10 118.35 109.24 122.00 102.82 122.00
  C 96.40 122.00 94.54 118.36 94.58 112.40
  Q 94.60 110.35 94.60 89.67
  A 3.03 3.03 0.0 0 0 91.68 86.64
  L 91.53 86.64
  A 2.85 2.84 0.9 0 0 88.57 89.49
  Q 88.59 97.68 88.53 110.59
  Q 88.50 117.07 89.66 119.78
  C 91.94 125.08 97.16 127.32 102.82 127.32
  Z
  M 124.37 89.67
  L 124.19 123.81
  A 2.86 2.86 0.0 0 0 127.04 126.68
  L 137.73 126.74
  A 14.89 14.88 0.3 0 0 152.69 111.93
  L 152.75 101.83
  A 14.89 14.88 0.3 0 0 137.93 86.88
  L 127.24 86.82
  A 2.86 2.86 0.0 0 0 124.37 89.67
  Z"
/>
<path fill="#b2b0b4" d="
  M 66.78 108.96
  Q 59.96 108.96 58.89 108.97
  A 0.57 0.57 0.0 0 0 58.32 109.54
  L 58.32 124.06
  A 2.93 2.93 0.0 0 1 55.39 126.99
  L 54.97 126.99
  A 2.63 2.62 0.0 0 1 52.34 124.37
  L 52.34 89.47
  A 2.86 2.86 0.0 0 1 55.20 86.61
  L 55.52 86.61
  A 2.80 2.80 0.0 0 1 58.32 89.41
  L 58.32 103.08
  A 0.57 0.56 -85.9 0 0 58.80 103.64
  Q 59.16 103.69 66.78 103.69
  Q 74.41 103.69 74.76 103.64
  A 0.57 0.56 85.9 0 0 75.25 103.08
  L 75.24 89.41
  A 2.80 2.80 0.0 0 1 78.04 86.61
  L 78.36 86.61
  A 2.86 2.86 0.0 0 1 81.22 89.47
  L 81.23 124.37
  A 2.63 2.62 -0.0 0 1 78.60 126.99
  L 78.18 126.99
  A 2.93 2.93 0.0 0 1 75.25 124.06
  L 75.25 109.54
  A 0.57 0.57 0.0 0 0 74.68 108.97
  Q 73.61 108.96 66.78 108.96
  Z"
/>
<path fill="#b2b0b4" d="
  M 102.82 122.00
  C 109.24 122.00 111.10 118.35 111.05 112.39
  Q 111.03 110.34 111.01 89.66
  A 3.03 3.03 0.0 0 1 113.93 86.63
  L 114.08 86.63
  A 2.85 2.84 -1.0 0 1 117.04 89.48
  Q 117.03 97.67 117.10 110.58
  Q 117.14 117.06 115.98 119.77
  C 113.71 125.07 108.49 127.31 102.82 127.32
  C 97.16 127.32 91.94 125.08 89.66 119.78
  Q 88.50 117.07 88.53 110.59
  Q 88.59 97.68 88.57 89.49
  A 2.85 2.84 0.9 0 1 91.53 86.64
  L 91.68 86.64
  A 3.03 3.03 0.0 0 1 94.60 89.67
  Q 94.60 110.35 94.58 112.40
  C 94.54 118.36 96.40 122.00 102.82 122.00
  Z"
/>
<path fill="#b2b0b4" d="
  M 124.37 89.67
  A 2.86 2.86 0.0 0 1 127.24 86.82
  L 137.93 86.88
  A 14.89 14.88 0.3 0 1 152.75 101.83
  L 152.69 111.93
  A 14.89 14.88 0.3 0 1 137.73 126.74
  L 127.04 126.68
  A 2.86 2.86 0.0 0 1 124.19 123.81
  L 124.37 89.67
  Z
  M 130.14 92.88
  L 130.10 120.66
  A 0.76 0.76 0.0 0 0 130.85 121.42
  L 137.40 121.43
  A 9.64 9.35 -89.9 0 0 146.77 111.80
  L 146.79 101.78
  A 9.64 9.35 -89.9 0 0 137.46 92.13
  L 130.91 92.12
  A 0.76 0.76 0.0 0 0 130.14 92.88
  Z"
/>
<path fill="#ffffff" d="
  M 130.14 92.88
  A 0.76 0.76 0.0 0 1 130.91 92.12
  L 137.46 92.13
  A 9.64 9.35 -89.9 0 1 146.79 101.78
  L 146.77 111.80
  A 9.64 9.35 -89.9 0 1 137.40 121.43
  L 130.85 121.42
  A 0.76 0.76 0.0 0 1 130.10 120.66
  L 130.14 92.88
  Z"
/>
</svg>
