<?xml version="1.0" encoding="UTF-8" standalone="no"?>
<!DOCTYPE svg PUBLIC "-//W3C//DTD SVG 1.1//EN" "http://www.w3.org/Graphics/SVG/1.1/DTD/svg11.dtd">
<svg xmlns="http://www.w3.org/2000/svg" version="1.1" viewBox="0.00 0.00 128.00 136.00">
<path fill="#000000" d="
  M 60.94 14.80
  Q 63.74 14.79 67.52 15.66
  Q 82.84 19.16 89.79 32.72
  C 96.87 46.55 92.71 59.22 85.68 71.86
  Q 79.49 83.00 72.23 93.01
  A 0.13 0.12 10.5 0 0 72.33 93.21
  Q 87.83 93.15 91.49 93.20
  C 95.69 93.25 97.31 94.96 99.42 98.57
  Q 105.25 108.56 107.18 111.84
  A 3.30 2.84 -85.7 0 0 107.57 112.37
  C 109.85 114.92 108.90 117.52 106.30 119.08
  Q 105.55 119.52 103.12 119.56
  Q 100.29 119.61 61.07 119.65
  Q 21.85 119.70 19.02 119.66
  Q 16.59 119.63 15.84 119.19
  C 13.23 117.64 12.28 115.04 14.55 112.48
  A 3.30 2.84 85.5 0 0 14.94 111.95
  Q 16.86 108.67 22.67 98.66
  C 24.77 95.05 26.38 93.34 30.58 93.27
  Q 34.24 93.22 49.74 93.24
  A 0.12 0.12 0.0 0 0 49.84 93.04
  Q 42.56 83.05 36.34 71.92
  C 29.28 59.30 25.09 46.64 32.14 32.79
  Q 39.05 19.21 54.36 15.68
  Q 58.14 14.80 60.94 14.80
  Z
  M 60.86 100.90
  Q 61.06 100.90 61.25 100.83
  Q 61.38 100.78 61.52 100.58
  C 71.15 86.87 78.67 76.63 84.89 64.15
  Q 87.14 59.65 88.20 55.76
  C 92.65 39.48 82.79 23.22 66.22 19.90
  Q 64.47 19.55 61.06 19.54
  Q 57.64 19.53 55.90 19.87
  C 39.31 23.11 29.37 39.32 33.74 55.63
  Q 34.78 59.52 37.00 64.03
  C 43.16 76.54 50.63 86.82 60.20 100.58
  Q 60.33 100.78 60.47 100.83
  Q 60.66 100.90 60.86 100.90
  Z
  M 61.08 115.55
  Q 102.49 115.54 103.71 115.54
  A 0.52 0.52 0.0 0 0 104.15 114.76
  L 95.01 98.93
  A 2.97 2.95 -14.8 0 0 92.44 97.45
  Q 83.04 97.46 72.45 97.47
  C 71.51 97.48 70.63 96.80 69.85 97.02
  A 1.48 1.46 9.7 0 0 69.05 97.58
  Q 64.89 103.60 63.18 105.39
  Q 62.47 106.12 61.08 106.12
  Q 59.68 106.13 58.97 105.39
  Q 57.26 103.60 53.09 97.59
  A 1.48 1.46 -9.8 0 0 52.29 97.03
  C 51.51 96.81 50.63 97.49 49.69 97.48
  Q 39.10 97.48 29.70 97.48
  A 2.97 2.95 14.8 0 0 27.13 98.96
  L 18.01 114.80
  A 0.52 0.52 0.0 0 0 18.45 115.57
  Q 19.67 115.57 61.08 115.55
  Z"
/>
<path fill="#000000" d="
  M 58.9911 30.9488
  A 17.39 17.12 -96.7 0 1 78.0231 46.2226
  A 17.39 17.12 -96.7 0 1 63.0489 65.4912
  A 17.39 17.12 -96.7 0 1 44.0169 50.2174
  A 17.39 17.12 -96.7 0 1 58.9911 30.9488
  Z
  M 73.93 48.21
  A 12.88 12.88 0.0 0 0 61.05 35.33
  A 12.88 12.88 0.0 0 0 48.17 48.21
  A 12.88 12.88 0.0 0 0 61.05 61.09
  A 12.88 12.88 0.0 0 0 73.93 48.21
  Z"
/>
</svg>
