<?xml version="1.0" encoding="UTF-8" standalone="no"?>
<!DOCTYPE svg PUBLIC "-//W3C//DTD SVG 1.1//EN" "http://www.w3.org/Graphics/SVG/1.1/DTD/svg11.dtd">
<svg xmlns="http://www.w3.org/2000/svg" version="1.1" viewBox="0.00 0.00 195.00 204.00">
<g stroke-width="2.00" fill="none" stroke-linecap="butt">
<path stroke="#d9d8da" vector-effect="non-scaling-stroke" d="
  M 63.65 63.40
  Q 67.15 59.13 67.18 56.24
  Q 67.26 47.97 67.31 44.37
  C 67.39 39.17 66.66 36.12 62.75 33.31
  Q 60.44 31.64 54.17 31.79
  Q 50.99 31.87 44.85 31.87
  A 4.70 4.52 35.3 0 0 43.47 32.08
  C 36.38 34.35 35.11 39.85 35.92 46.45
  Q 35.94 46.56 36.55 52.36
  Q 38.40 69.86 43.20 111.31
  Q 44.05 118.61 44.24 124.00
  C 44.56 132.66 46.02 140.03 53.68 144.97
  A 1.27 1.25 15.7 0 1 54.26 145.99
  C 54.39 149.79 53.65 154.80 54.82 158.16
  Q 56.59 163.24 61.22 165.70
  Q 63.94 167.15 71.03 167.12
  Q 100.35 167.03 119.19 167.13
  Q 127.79 167.18 130.60 165.78
  Q 136.10 163.04 137.69 156.19
  A 1.63 1.46 -41.9 0 0 137.74 155.73
  L 137.66 150.11
  A 1.20 1.20 0.0 0 1 138.52 148.93
  C 144.37 147.16 148.73 143.72 149.62 137.44
  C 150.98 127.88 143.63 121.15 134.22 121.04
  Q 116.42 120.83 78.31 120.96
  A 0.31 0.29 -4.4 0 1 78.01 120.72
  Q 72.38 89.05 70.34 76.48
  Q 69.00 68.25 63.76 64.30
  A 0.63 0.63 0.0 0 1 63.65 63.40"
/>
<path stroke="#d9d8da" vector-effect="non-scaling-stroke" d="
  M 101.24 70.97
  C 106.08 70.94 112.13 71.16 117.32 72.44
  Q 142.49 78.62 150.29 104.23
  Q 151.57 108.44 152.00 112.63
  A 0.63 0.63 0.0 0 1 151.01 113.20
  L 143.59 107.82
  A 2.30 2.30 0.0 0 0 140.28 108.46
  L 140.22 108.56
  A 2.47 2.47 0.0 0 0 140.87 111.93
  Q 145.97 115.52 151.69 119.59
  Q 154.70 121.73 157.52 119.27
  Q 164.01 113.62 166.93 111.01
  A 1.92 1.91 42.7 0 0 166.81 108.05
  L 166.70 107.96
  A 2.70 2.70 0.0 0 0 163.24 107.96
  L 157.52 112.69
  A 0.51 0.51 0.0 0 1 156.69 112.34
  Q 156.29 107.77 155.07 103.45
  C 148.01 78.40 127.33 65.11 101.85 66.18
  A 0.54 0.54 0.0 0 1 101.44 65.26
  L 109.88 56.90
  A 2.08 2.08 0.0 0 0 109.73 53.81
  L 109.54 53.62
  A 2.15 2.14 45.1 0 0 106.56 53.61
  L 92.66 66.98
  A 1.06 1.02 77.5 0 0 92.38 67.44
  Q 91.61 69.86 92.95 71.29
  Q 96.40 75.00 106.47 84.09
  A 2.23 2.22 43.4 0 0 109.54 84.01
  L 109.83 83.72
  A 2.01 2.01 0.0 0 0 109.83 80.88
  L 100.86 71.90
  A 0.54 0.54 0.0 0 1 101.24 70.97"
/>
<path stroke="#d9d8da" vector-effect="non-scaling-stroke" d="
  M 43.02 61.43
  Q 47.45 61.37 52.58 61.49
  C 58.54 61.63 62.38 60.06 62.36 53.80
  Q 62.33 44.46 62.34 42.80
  C 62.34 36.84 58.57 36.83 53.39 36.86
  C 49.30 36.89 40.42 35.41 40.75 42.77
  Q 41.04 49.31 42.41 60.89
  A 0.61 0.60 86.4 0 0 43.02 61.43"
/>
<path stroke="#d9d8da" vector-effect="non-scaling-stroke" d="
  M 51.49 134.75
  C 51.57 134.60 51.53 132.17 51.86 131.18
  Q 55.05 121.62 65.07 120.35
  A 4.82 4.36 41.5 0 1 65.98 120.34
  L 71.75 120.85
  A 0.95 0.94 -2.6 0 0 72.76 119.75
  Q 67.78 90.70 64.90 74.89
  Q 63.99 69.94 58.39 66.92
  A 3.60 3.54 -30.2 0 0 56.67 66.48
  L 43.66 66.48
  A 0.61 0.60 86.6 0 0 43.06 67.16
  Q 46.68 97.45 48.46 114.54
  Q 48.78 117.60 49.84 130.98
  Q 50.04 133.45 50.87 134.78
  A 0.36 0.36 0.0 0 0 51.49 134.75"
/>
<path stroke="#d9d8da" vector-effect="non-scaling-stroke" d="
  M 75.7262 133.8497
  A 9.63 9.46 -7.1 0 0 65.0007 125.6525
  A 9.63 9.46 -7.1 0 0 56.6138 136.2303
  A 9.63 9.46 -7.1 0 0 67.3393 144.4275
  A 9.63 9.46 -7.1 0 0 75.7262 133.8497"
/>
<path stroke="#d9d8da" vector-effect="non-scaling-stroke" d="
  M 81.02 135.14
  C 81.01 138.52 80.09 141.05 78.19 143.56
  A 0.44 0.43 -71.2 0 0 78.53 144.26
  Q 132.20 144.31 132.46 144.32
  C 138.59 144.55 144.81 142.27 144.82 135.21
  C 144.83 128.16 138.61 125.87 132.48 126.08
  Q 132.22 126.09 78.55 126.01
  A 0.44 0.43 71.4 0 0 78.21 126.71
  C 80.11 129.22 81.02 131.76 81.02 135.14"
/>
<path stroke="#d9d8da" vector-effect="non-scaling-stroke" d="
  M 58.89 148.88
  C 59.39 153.02 58.23 157.41 62.36 160.54
  Q 64.21 161.94 69.43 161.94
  Q 121.27 161.86 123.36 161.92
  C 127.81 162.05 130.53 160.74 132.23 156.89
  A 2.29 2.18 59.5 0 0 132.41 156.11
  L 132.65 149.79
  A 0.38 0.38 0.0 0 0 132.26 149.39
  Q 67.82 149.43 64.50 149.49
  Q 62.03 149.54 59.60 148.38
  A 0.50 0.50 0.0 0 0 58.89 148.88"
/>
</g>
<path fill="#ffffff" d="
  M 195.00 0.00
  L 195.00 204.00
  L 0.00 204.00
  L 0.00 0.00
  L 195.00 0.00
  Z
  M 63.65 63.40
  Q 67.15 59.13 67.18 56.24
  Q 67.26 47.97 67.31 44.37
  C 67.39 39.17 66.66 36.12 62.75 33.31
  Q 60.44 31.64 54.17 31.79
  Q 50.99 31.87 44.85 31.87
  A 4.70 4.52 35.3 0 0 43.47 32.08
  C 36.38 34.35 35.11 39.85 35.92 46.45
  Q 35.94 46.56 36.55 52.36
  Q 38.40 69.86 43.20 111.31
  Q 44.05 118.61 44.24 124.00
  C 44.56 132.66 46.02 140.03 53.68 144.97
  A 1.27 1.25 15.7 0 1 54.26 145.99
  C 54.39 149.79 53.65 154.80 54.82 158.16
  Q 56.59 163.24 61.22 165.70
  Q 63.94 167.15 71.03 167.12
  Q 100.35 167.03 119.19 167.13
  Q 127.79 167.18 130.60 165.78
  Q 136.10 163.04 137.69 156.19
  A 1.63 1.46 -41.9 0 0 137.74 155.73
  L 137.66 150.11
  A 1.20 1.20 0.0 0 1 138.52 148.93
  C 144.37 147.16 148.73 143.72 149.62 137.44
  C 150.98 127.88 143.63 121.15 134.22 121.04
  Q 116.42 120.83 78.31 120.96
  A 0.31 0.29 -4.4 0 1 78.01 120.72
  Q 72.38 89.05 70.34 76.48
  Q 69.00 68.25 63.76 64.30
  A 0.63 0.63 0.0 0 1 63.65 63.40
  Z
  M 101.24 70.97
  C 106.08 70.94 112.13 71.16 117.32 72.44
  Q 142.49 78.62 150.29 104.23
  Q 151.57 108.44 152.00 112.63
  A 0.63 0.63 0.0 0 1 151.01 113.20
  L 143.59 107.82
  A 2.30 2.30 0.0 0 0 140.28 108.46
  L 140.22 108.56
  A 2.47 2.47 0.0 0 0 140.87 111.93
  Q 145.97 115.52 151.69 119.59
  Q 154.70 121.73 157.52 119.27
  Q 164.01 113.62 166.93 111.01
  A 1.92 1.91 42.7 0 0 166.81 108.05
  L 166.70 107.96
  A 2.70 2.70 0.0 0 0 163.24 107.96
  L 157.52 112.69
  A 0.51 0.51 0.0 0 1 156.69 112.34
  Q 156.29 107.77 155.07 103.45
  C 148.01 78.40 127.33 65.11 101.85 66.18
  A 0.54 0.54 0.0 0 1 101.44 65.26
  L 109.88 56.90
  A 2.08 2.08 0.0 0 0 109.73 53.81
  L 109.54 53.62
  A 2.15 2.14 45.1 0 0 106.56 53.61
  L 92.66 66.98
  A 1.06 1.02 77.5 0 0 92.38 67.44
  Q 91.61 69.86 92.95 71.29
  Q 96.40 75.00 106.47 84.09
  A 2.23 2.22 43.4 0 0 109.54 84.01
  L 109.83 83.72
  A 2.01 2.01 0.0 0 0 109.83 80.88
  L 100.86 71.90
  A 0.54 0.54 0.0 0 1 101.24 70.97
  Z"
/>
<path fill="#b2b0b4" d="
  M 63.76 64.30
  Q 69.00 68.25 70.34 76.48
  Q 72.38 89.05 78.01 120.72
  A 0.31 0.29 -4.4 0 0 78.31 120.96
  Q 116.42 120.83 134.22 121.04
  C 143.63 121.15 150.98 127.88 149.62 137.44
  C 148.73 143.72 144.37 147.16 138.52 148.93
  A 1.20 1.20 0.0 0 0 137.66 150.11
  L 137.74 155.73
  A 1.63 1.46 -41.9 0 1 137.69 156.19
  Q 136.10 163.04 130.60 165.78
  Q 127.79 167.18 119.19 167.13
  Q 100.35 167.03 71.03 167.12
  Q 63.94 167.15 61.22 165.70
  Q 56.59 163.24 54.82 158.16
  C 53.65 154.80 54.39 149.79 54.26 145.99
  A 1.27 1.25 15.7 0 0 53.68 144.97
  C 46.02 140.03 44.56 132.66 44.24 124.00
  Q 44.05 118.61 43.20 111.31
  Q 38.40 69.86 36.55 52.36
  Q 35.94 46.56 35.92 46.45
  C 35.11 39.85 36.38 34.35 43.47 32.08
  A 4.70 4.52 35.3 0 1 44.85 31.87
  Q 50.99 31.87 54.17 31.79
  Q 60.44 31.64 62.75 33.31
  C 66.66 36.12 67.39 39.17 67.31 44.37
  Q 67.26 47.97 67.18 56.24
  Q 67.15 59.13 63.65 63.40
  A 0.63 0.63 0.0 0 0 63.76 64.30
  Z
  M 43.02 61.43
  Q 47.45 61.37 52.58 61.49
  C 58.54 61.63 62.38 60.06 62.36 53.80
  Q 62.33 44.46 62.34 42.80
  C 62.34 36.84 58.57 36.83 53.39 36.86
  C 49.30 36.89 40.42 35.41 40.75 42.77
  Q 41.04 49.31 42.41 60.89
  A 0.61 0.60 86.4 0 0 43.02 61.43
  Z
  M 51.49 134.75
  C 51.57 134.60 51.53 132.17 51.86 131.18
  Q 55.05 121.62 65.07 120.35
  A 4.82 4.36 41.5 0 1 65.98 120.34
  L 71.75 120.85
  A 0.95 0.94 -2.6 0 0 72.76 119.75
  Q 67.78 90.70 64.90 74.89
  Q 63.99 69.94 58.39 66.92
  A 3.60 3.54 -30.2 0 0 56.67 66.48
  L 43.66 66.48
  A 0.61 0.60 86.6 0 0 43.06 67.16
  Q 46.68 97.45 48.46 114.54
  Q 48.78 117.60 49.84 130.98
  Q 50.04 133.45 50.87 134.78
  A 0.36 0.36 0.0 0 0 51.49 134.75
  Z
  M 75.7262 133.8497
  A 9.63 9.46 -7.1 0 0 65.0007 125.6525
  A 9.63 9.46 -7.1 0 0 56.6138 136.2303
  A 9.63 9.46 -7.1 0 0 67.3393 144.4275
  A 9.63 9.46 -7.1 0 0 75.7262 133.8497
  Z
  M 81.02 135.14
  C 81.01 138.52 80.09 141.05 78.19 143.56
  A 0.44 0.43 -71.2 0 0 78.53 144.26
  Q 132.20 144.31 132.46 144.32
  C 138.59 144.55 144.81 142.27 144.82 135.21
  C 144.83 128.16 138.61 125.87 132.48 126.08
  Q 132.22 126.09 78.55 126.01
  A 0.44 0.43 71.4 0 0 78.21 126.71
  C 80.11 129.22 81.02 131.76 81.02 135.14
  Z
  M 58.89 148.88
  C 59.39 153.02 58.23 157.41 62.36 160.54
  Q 64.21 161.94 69.43 161.94
  Q 121.27 161.86 123.36 161.92
  C 127.81 162.05 130.53 160.74 132.23 156.89
  A 2.29 2.18 59.5 0 0 132.41 156.11
  L 132.65 149.79
  A 0.38 0.38 0.0 0 0 132.26 149.39
  Q 67.82 149.43 64.50 149.49
  Q 62.03 149.54 59.60 148.38
  A 0.50 0.50 0.0 0 0 58.89 148.88
  Z"
/>
<path fill="#ffffff" d="
  M 43.02 61.43
  A 0.61 0.60 86.4 0 1 42.41 60.89
  Q 41.04 49.31 40.75 42.77
  C 40.42 35.41 49.30 36.89 53.39 36.86
  C 58.57 36.83 62.34 36.84 62.34 42.80
  Q 62.33 44.46 62.36 53.80
  C 62.38 60.06 58.54 61.63 52.58 61.49
  Q 47.45 61.37 43.02 61.43
  Z"
/>
<path fill="#b2b0b4" d="
  M 101.24 70.97
  A 0.54 0.54 0.0 0 0 100.86 71.90
  L 109.83 80.88
  A 2.01 2.01 0.0 0 1 109.83 83.72
  L 109.54 84.01
  A 2.23 2.22 43.4 0 1 106.47 84.09
  Q 96.40 75.00 92.95 71.29
  Q 91.61 69.86 92.38 67.44
  A 1.06 1.02 77.5 0 1 92.66 66.98
  L 106.56 53.61
  A 2.15 2.14 45.1 0 1 109.54 53.62
  L 109.73 53.81
  A 2.08 2.08 0.0 0 1 109.88 56.90
  L 101.44 65.26
  A 0.54 0.54 0.0 0 0 101.85 66.18
  C 127.33 65.11 148.01 78.40 155.07 103.45
  Q 156.29 107.77 156.69 112.34
  A 0.51 0.51 0.0 0 0 157.52 112.69
  L 163.24 107.96
  A 2.70 2.70 0.0 0 1 166.70 107.96
  L 166.81 108.05
  A 1.92 1.91 42.7 0 1 166.93 111.01
  Q 164.01 113.62 157.52 119.27
  Q 154.70 121.73 151.69 119.59
  Q 145.97 115.52 140.87 111.93
  A 2.47 2.47 0.0 0 1 140.22 108.56
  L 140.28 108.46
  A 2.30 2.30 0.0 0 1 143.59 107.82
  L 151.01 113.20
  A 0.63 0.63 0.0 0 0 152.00 112.63
  Q 151.57 108.44 150.29 104.23
  Q 142.49 78.62 117.32 72.44
  C 112.13 71.16 106.08 70.94 101.24 70.97
  Z"
/>
<path fill="#ffffff" d="
  M 50.87 134.78
  Q 50.04 133.45 49.84 130.98
  Q 48.78 117.60 48.46 114.54
  Q 46.68 97.45 43.06 67.16
  A 0.61 0.60 86.6 0 1 43.66 66.48
  L 56.67 66.48
  A 3.60 3.54 -30.2 0 1 58.39 66.92
  Q 63.99 69.94 64.90 74.89
  Q 67.78 90.70 72.76 119.75
  A 0.95 0.94 -2.6 0 1 71.75 120.85
  L 65.98 120.34
  A 4.82 4.36 41.5 0 0 65.07 120.35
  Q 55.05 121.62 51.86 131.18
  C 51.53 132.17 51.57 134.60 51.49 134.75
  A 0.36 0.36 0.0 0 1 50.87 134.78
  Z"
/>
<ellipse fill="#ffffff" cx="0.00" cy="0.00" transform="translate(66.17,135.04) rotate(-7.1)" rx="9.63" ry="9.46"/>
<path fill="#ffffff" d="
  M 144.82 135.21
  C 144.81 142.27 138.59 144.55 132.46 144.32
  Q 132.20 144.31 78.53 144.26
  A 0.44 0.43 -71.2 0 1 78.19 143.56
  C 80.09 141.05 81.01 138.52 81.02 135.14
  C 81.02 131.76 80.11 129.22 78.21 126.71
  A 0.44 0.43 71.4 0 1 78.55 126.01
  Q 132.22 126.09 132.48 126.08
  C 138.61 125.87 144.83 128.16 144.82 135.21
  Z"
/>
<path fill="#ffffff" d="
  M 58.89 148.88
  A 0.50 0.50 0.0 0 1 59.60 148.38
  Q 62.03 149.54 64.50 149.49
  Q 67.82 149.43 132.26 149.39
  A 0.38 0.38 0.0 0 1 132.65 149.79
  L 132.41 156.11
  A 2.29 2.18 59.5 0 1 132.23 156.89
  C 130.53 160.74 127.81 162.05 123.36 161.92
  Q 121.27 161.86 69.43 161.94
  Q 64.21 161.94 62.36 160.54
  C 58.23 157.41 59.39 153.02 58.89 148.88
  Z"
/>
</svg>
