<?xml version="1.0" encoding="utf-8"?>
<svg version="1.1" viewBox="0.00 0.00 195.00 197.00" xmlns="http://www.w3.org/2000/svg"><g id="offState" style="display:inline"><g fill="none" stroke-linecap="butt" stroke-width="2.00">
<path class="icon-shape" d="   M 133.41 74.70   A 6.49 6.49 0.0 0 0 139.03 84.43   L 178.57 84.43   A 6.49 6.49 0.0 0 0 184.19 74.70   L 164.42 40.46   A 6.49 6.49 0.0 0 0 153.18 40.46   L 133.41 74.70" stroke="#dad9da" vector-effect="non-scaling-stroke"/>
<path class="icon-shape" d="   M 113.63 67.60   Q 109.11 67.56 98.52 67.59   Q 94.85 67.60 92.74 65.68   Q 91.76 64.79 84.45 57.32   Q 80.73 53.51 75.30 53.40   Q 66.43 53.22 52.27 53.32   A 2.20 2.20 0.0 0 0 50.08 55.48   L 50.08 55.53   A 2.13 2.12 0.5 0 0 52.21 57.69   Q 62.24 57.67 72.25 57.65   C 77.03 57.64 79.37 58.27 82.59 61.71   C 87.17 66.61 91.00 71.63 96.58 71.94   Q 100.43 72.15 113.55 72.01   A 2.16 2.15 -89.4 0 0 115.68 69.91   L 115.68 69.73   A 2.06 2.06 0.0 0 0 113.63 67.60" stroke="#dad9da" vector-effect="non-scaling-stroke"/>
<path class="icon-shape" d="   M 86.03 95.12   C 87.31 99.87 90.98 104.41 96.10 104.75   C 103.39 105.24 108.94 104.89 110.86 96.59   Q 112.05 91.46 111.14 87.38   C 110.20 83.20 107.14 79.41 103.09 78.78   Q 99.90 78.28 93.97 78.91   A 4.01 3.94 27.7 0 0 92.52 79.35   Q 88.07 81.74 86.67 86.42   Q 85.78 89.37 85.71 89.53   A 0.94 0.93 9.1 0 1 84.94 90.08   Q 71.08 91.39 69.74 91.35   Q 56.55 90.99 52.77 91.02   A 2.69 2.68 2.9 0 0 50.11 93.42   L 50.10 93.52   A 2.24 2.24 0.0 0 0 52.29 96.00   C 63.68 96.17 72.56 95.54 85.10 94.46   A 0.89 0.89 0.0 0 1 86.03 95.12" stroke="#dad9da" vector-effect="non-scaling-stroke"/>
<path class="icon-shape" d="   M 148.77 157.78   A 2.00 2.00 0.0 0 0 148.08 154.93   C 136.30 148.38 126.72 138.51 129.98 123.70   C 131.99 114.54 141.00 107.36 148.58 102.64   A 1.58 1.58 0.0 0 0 149.11 100.51   L 148.87 100.10   A 2.17 2.17 0.0 0 0 145.91 99.30   Q 135.30 105.36 129.30 114.30   C 121.99 125.18 124.18 139.52 132.71 148.87   Q 137.84 154.49 145.71 158.59   A 2.35 2.34 30.7 0 0 148.75 157.82   L 148.77 157.78" stroke="#dad9da" vector-effect="non-scaling-stroke"/>
<path class="icon-shape" d="   M 144.84 115.08   A 2.08 2.08 0.0 0 0 141.97 115.67   C 137.39 122.55 134.09 129.26 138.19 137.10   C 139.18 139.00 142.21 144.99 144.87 142.18   A 2.13 1.91 -44.6 0 0 145.04 139.44   C 137.86 131.46 141.01 125.90 145.58 117.96   A 2.12 2.12 0.0 0 0 144.90 115.12   L 144.84 115.08" stroke="#dad9da" vector-effect="non-scaling-stroke"/>
<path class="icon-shape" d="   M 183.15 138.27   L 183.15 121.17   A 5.39 5.39 0.0 0 0 177.76 115.78   L 159.36 115.78   A 9.74 8.45 -90.0 0 0 150.91 125.52   L 150.91 133.92   A 9.74 8.45 90.0 0 0 159.36 143.66   L 177.76 143.66   A 5.39 5.39 0.0 0 0 183.15 138.27" stroke="#dad9da" vector-effect="non-scaling-stroke"/>
<path class="icon-shape" d="   M 113.53 129.16   Q 113.66 133.61 114.43 137.02   A 2.49 2.21 83.2 0 0 116.61 138.96   Q 118.06 138.97 118.64 137.48   A 1.58 1.55 50.4 0 0 118.72 136.59   C 118.23 134.07 117.66 131.41 117.59 129.04   C 117.52 126.67 117.93 123.98 118.27 121.44   A 1.58 1.55 -53.8 0 0 118.14 120.55   Q 117.48 119.10 116.03 119.20   A 2.49 2.21 -86.5 0 0 113.96 121.27   Q 113.40 124.71 113.53 129.16" stroke="#dad9da" vector-effect="non-scaling-stroke"/>
<path class="icon-shape" d="   M 158.77 80.50   Q 175.71 80.48 178.00 80.40   C 179.65 80.34 181.46 78.80 180.47 77.08   Q 170.03 58.94 160.15 42.13   Q 159.59 41.17 158.72 41.17   Q 157.85 41.17 157.30 42.13   Q 147.46 58.97 137.07 77.14   C 136.08 78.86 137.90 80.40 139.54 80.45   Q 141.83 80.52 158.77 80.50" stroke="#dad9da" vector-effect="non-scaling-stroke"/>
<path class="icon-shape" d="   M 160.4391 56.0138   A 1.98 1.98 0.0 0 0 158.4626 54.0304   L 158.0226 54.0296   A 1.98 1.98 0.0 0 0 156.0391 56.0062   L 156.0209 66.4462   A 1.98 1.98 0.0 0 0 157.9974 68.4296   L 158.4374 68.4304   A 1.98 1.98 0.0 0 0 160.4209 66.4538   L 160.4391 56.0138" stroke="#dad9da" vector-effect="non-scaling-stroke"/>
<path class="icon-shape" d="   M 158.3783 70.6704   A 2.77 2.46 -89.0 0 0 155.8704 73.3971   A 2.77 2.46 -89.0 0 0 158.2817 76.2096   A 2.77 2.46 -89.0 0 0 160.7896 73.4829   A 2.77 2.46 -89.0 0 0 158.3783 70.6704" stroke="#dad9da" vector-effect="non-scaling-stroke"/>
<path class="icon-shape" d="   M 102.75 100.33   C 106.43 98.48 107.06 94.48 107.01 90.72   C 106.94 85.03 102.98 81.88 97.28 82.84   Q 91.76 83.77 90.61 88.79   Q 88.77 96.84 96.24 100.29   A 2.94 2.89 58.0 0 0 97.24 100.53   Q 101.96 100.73 102.75 100.33" stroke="#dad9da" vector-effect="non-scaling-stroke"/>
<path class="icon-shape" d="   M 178.58 138.40   L 178.62 121.06   A 1.04 1.04 0.0 0 0 177.58 120.02   L 160.86 119.99   A 5.88 5.64 -89.9 0 0 155.21 125.86   L 155.19 133.52   A 5.88 5.64 -89.9 0 0 160.82 139.41   L 177.54 139.44   A 1.04 1.04 0.0 0 0 178.58 138.40" stroke="#dad9da" vector-effect="non-scaling-stroke"/>
</g>
<path class="icon-shape" d="   M 195.00 0.00   L 195.00 197.00   L 0.00 197.00   L 0.00 0.00   L 195.00 0.00   Z   M 133.41 74.70   A 6.49 6.49 0.0 0 0 139.03 84.43   L 178.57 84.43   A 6.49 6.49 0.0 0 0 184.19 74.70   L 164.42 40.46   A 6.49 6.49 0.0 0 0 153.18 40.46   L 133.41 74.70   Z   M 113.63 67.60   Q 109.11 67.56 98.52 67.59   Q 94.85 67.60 92.74 65.68   Q 91.76 64.79 84.45 57.32   Q 80.73 53.51 75.30 53.40   Q 66.43 53.22 52.27 53.32   A 2.20 2.20 0.0 0 0 50.08 55.48   L 50.08 55.53   A 2.13 2.12 0.5 0 0 52.21 57.69   Q 62.24 57.67 72.25 57.65   C 77.03 57.64 79.37 58.27 82.59 61.71   C 87.17 66.61 91.00 71.63 96.58 71.94   Q 100.43 72.15 113.55 72.01   A 2.16 2.15 -89.4 0 0 115.68 69.91   L 115.68 69.73   A 2.06 2.06 0.0 0 0 113.63 67.60   Z   M 86.03 95.12   C 87.31 99.87 90.98 104.41 96.10 104.75   C 103.39 105.24 108.94 104.89 110.86 96.59   Q 112.05 91.46 111.14 87.38   C 110.20 83.20 107.14 79.41 103.09 78.78   Q 99.90 78.28 93.97 78.91   A 4.01 3.94 27.7 0 0 92.52 79.35   Q 88.07 81.74 86.67 86.42   Q 85.78 89.37 85.71 89.53   A 0.94 0.93 9.1 0 1 84.94 90.08   Q 71.08 91.39 69.74 91.35   Q 56.55 90.99 52.77 91.02   A 2.69 2.68 2.9 0 0 50.11 93.42   L 50.10 93.52   A 2.24 2.24 0.0 0 0 52.29 96.00   C 63.68 96.17 72.56 95.54 85.10 94.46   A 0.89 0.89 0.0 0 1 86.03 95.12   Z   M 148.77 157.78   A 2.00 2.00 0.0 0 0 148.08 154.93   C 136.30 148.38 126.72 138.51 129.98 123.70   C 131.99 114.54 141.00 107.36 148.58 102.64   A 1.58 1.58 0.0 0 0 149.11 100.51   L 148.87 100.10   A 2.17 2.17 0.0 0 0 145.91 99.30   Q 135.30 105.36 129.30 114.30   C 121.99 125.18 124.18 139.52 132.71 148.87   Q 137.84 154.49 145.71 158.59   A 2.35 2.34 30.7 0 0 148.75 157.82   L 148.77 157.78   Z   M 144.84 115.08   A 2.08 2.08 0.0 0 0 141.97 115.67   C 137.39 122.55 134.09 129.26 138.19 137.10   C 139.18 139.00 142.21 144.99 144.87 142.18   A 2.13 1.91 -44.6 0 0 145.04 139.44   C 137.86 131.46 141.01 125.90 145.58 117.96   A 2.12 2.12 0.0 0 0 144.90 115.12   L 144.84 115.08   Z   M 183.15 138.27   L 183.15 121.17   A 5.39 5.39 0.0 0 0 177.76 115.78   L 159.36 115.78   A 9.74 8.45 -90.0 0 0 150.91 125.52   L 150.91 133.92   A 9.74 8.45 90.0 0 0 159.36 143.66   L 177.76 143.66   A 5.39 5.39 0.0 0 0 183.15 138.27   Z   M 113.53 129.16   Q 113.66 133.61 114.43 137.02   A 2.49 2.21 83.2 0 0 116.61 138.96   Q 118.06 138.97 118.64 137.48   A 1.58 1.55 50.4 0 0 118.72 136.59   C 118.23 134.07 117.66 131.41 117.59 129.04   C 117.52 126.67 117.93 123.98 118.27 121.44   A 1.58 1.55 -53.8 0 0 118.14 120.55   Q 117.48 119.10 116.03 119.20   A 2.49 2.21 -86.5 0 0 113.96 121.27   Q 113.40 124.71 113.53 129.16   Z" fill="#ffffff"/>
<path class="icon-shape" d="   M 133.41 74.70   L 153.18 40.46   A 6.49 6.49 0.0 0 1 164.42 40.46   L 184.19 74.70   A 6.49 6.49 0.0 0 1 178.57 84.43   L 139.03 84.43   A 6.49 6.49 0.0 0 1 133.41 74.70   Z   M 158.77 80.50   Q 175.71 80.48 178.00 80.40   C 179.65 80.34 181.46 78.80 180.47 77.08   Q 170.03 58.94 160.15 42.13   Q 159.59 41.17 158.72 41.17   Q 157.85 41.17 157.30 42.13   Q 147.46 58.97 137.07 77.14   C 136.08 78.86 137.90 80.40 139.54 80.45   Q 141.83 80.52 158.77 80.50   Z" fill="#b4b2b5"/>
<path class="icon-shape" d="   M 158.72 41.17   Q 159.59 41.17 160.15 42.13   Q 170.03 58.94 180.47 77.08   C 181.46 78.80 179.65 80.34 178.00 80.40   Q 175.71 80.48 158.77 80.50   Q 141.83 80.52 139.54 80.45   C 137.90 80.40 136.08 78.86 137.07 77.14   Q 147.46 58.97 157.30 42.13   Q 157.85 41.17 158.72 41.17   Z   M 160.4391 56.0138   A 1.98 1.98 0.0 0 0 158.4626 54.0304   L 158.0226 54.0296   A 1.98 1.98 0.0 0 0 156.0391 56.0062   L 156.0209 66.4462   A 1.98 1.98 0.0 0 0 157.9974 68.4296   L 158.4374 68.4304   A 1.98 1.98 0.0 0 0 160.4209 66.4538   L 160.4391 56.0138   Z   M 158.3783 70.6704   A 2.77 2.46 -89.0 0 0 155.8704 73.3971   A 2.77 2.46 -89.0 0 0 158.2817 76.2096   A 2.77 2.46 -89.0 0 0 160.7896 73.4829   A 2.77 2.46 -89.0 0 0 158.3783 70.6704   Z" fill="#ffffff"/>
<path class="icon-shape" d="   M 113.63 67.60   A 2.06 2.06 0.0 0 1 115.68 69.73   L 115.68 69.91   A 2.16 2.15 -89.4 0 1 113.55 72.01   Q 100.43 72.15 96.58 71.94   C 91.00 71.63 87.17 66.61 82.59 61.71   C 79.37 58.27 77.03 57.64 72.25 57.65   Q 62.24 57.67 52.21 57.69   A 2.13 2.12 0.5 0 1 50.08 55.53   L 50.08 55.48   A 2.20 2.20 0.0 0 1 52.27 53.32   Q 66.43 53.22 75.30 53.40   Q 80.73 53.51 84.45 57.32   Q 91.76 64.79 92.74 65.68   Q 94.85 67.60 98.52 67.59   Q 109.11 67.56 113.63 67.60   Z" fill="#b4b2b5"/>
<rect fill="#b4b2b5" height="14.40" rx="1.98" transform="translate(158.23,61.23) rotate(0.1)" width="4.40" x="-2.20" y="-7.20"/>
<ellipse cx="0.00" cy="0.00" fill="#b4b2b5" rx="2.77" ry="2.46" transform="translate(158.33,73.44) rotate(-89.0)"/>
<path class="icon-shape" d="   M 85.10 94.46   C 72.56 95.54 63.68 96.17 52.29 96.00   A 2.24 2.24 0.0 0 1 50.10 93.52   L 50.11 93.42   A 2.69 2.68 2.9 0 1 52.77 91.02   Q 56.55 90.99 69.74 91.35   Q 71.08 91.39 84.94 90.08   A 0.94 0.93 9.1 0 0 85.71 89.53   Q 85.78 89.37 86.67 86.42   Q 88.07 81.74 92.52 79.35   A 4.01 3.94 27.7 0 1 93.97 78.91   Q 99.90 78.28 103.09 78.78   C 107.14 79.41 110.20 83.20 111.14 87.38   Q 112.05 91.46 110.86 96.59   C 108.94 104.89 103.39 105.24 96.10 104.75   C 90.98 104.41 87.31 99.87 86.03 95.12   A 0.89 0.89 0.0 0 0 85.10 94.46   Z   M 102.75 100.33   C 106.43 98.48 107.06 94.48 107.01 90.72   C 106.94 85.03 102.98 81.88 97.28 82.84   Q 91.76 83.77 90.61 88.79   Q 88.77 96.84 96.24 100.29   A 2.94 2.89 58.0 0 0 97.24 100.53   Q 101.96 100.73 102.75 100.33   Z" fill="#b4b2b5"/>
<path class="icon-shape" d="   M 102.75 100.33   Q 101.96 100.73 97.24 100.53   A 2.94 2.89 58.0 0 1 96.24 100.29   Q 88.77 96.84 90.61 88.79   Q 91.76 83.77 97.28 82.84   C 102.98 81.88 106.94 85.03 107.01 90.72   C 107.06 94.48 106.43 98.48 102.75 100.33   Z" fill="#ffffff"/>
<path class="icon-shape" d="   M 148.77 157.78   L 148.75 157.82   A 2.35 2.34 30.7 0 1 145.71 158.59   Q 137.84 154.49 132.71 148.87   C 124.18 139.52 121.99 125.18 129.30 114.30   Q 135.30 105.36 145.91 99.30   A 2.17 2.17 0.0 0 1 148.87 100.10   L 149.11 100.51   A 1.58 1.58 0.0 0 1 148.58 102.64   C 141.00 107.36 131.99 114.54 129.98 123.70   C 126.72 138.51 136.30 148.38 148.08 154.93   A 2.00 2.00 0.0 0 1 148.77 157.78   Z" fill="#b4b2b5"/>
<path class="icon-shape" d="   M 144.84 115.08   L 144.90 115.12   A 2.12 2.12 0.0 0 1 145.58 117.96   C 141.01 125.90 137.86 131.46 145.04 139.44   A 2.13 1.91 -44.6 0 1 144.87 142.18   C 142.21 144.99 139.18 139.00 138.19 137.10   C 134.09 129.26 137.39 122.55 141.97 115.67   A 2.08 2.08 0.0 0 1 144.84 115.08   Z" fill="#b4b2b5"/>
<path class="icon-shape" d="   M 183.15 138.27   A 5.39 5.39 0.0 0 1 177.76 143.66   L 159.36 143.66   A 9.74 8.45 -90.0 0 1 150.91 133.92   L 150.91 125.52   A 9.74 8.45 -90.0 0 1 159.36 115.78   L 177.76 115.78   A 5.39 5.39 0.0 0 1 183.15 121.17   L 183.15 138.27   Z   M 178.58 138.40   L 178.62 121.06   A 1.04 1.04 0.0 0 0 177.58 120.02   L 160.86 119.99   A 5.88 5.64 -89.9 0 0 155.21 125.86   L 155.19 133.52   A 5.88 5.64 -89.9 0 0 160.82 139.41   L 177.54 139.44   A 1.04 1.04 0.0 0 0 178.58 138.40   Z" fill="#b4b2b5"/>
<path class="icon-shape" d="   M 117.59 129.04   C 117.66 131.41 118.23 134.07 118.72 136.59   A 1.58 1.55 50.4 0 1 118.64 137.48   Q 118.06 138.97 116.61 138.96   A 2.49 2.21 83.2 0 1 114.43 137.02   Q 113.66 133.61 113.53 129.16   Q 113.40 124.71 113.96 121.27   A 2.49 2.21 -86.5 0 1 116.03 119.20   Q 117.48 119.10 118.14 120.55   A 1.58 1.55 -53.8 0 1 118.27 121.44   C 117.93 123.98 117.52 126.67 117.59 129.04   Z" fill="#b4b2b5"/>
<path class="icon-shape" d="   M 178.58 138.40   A 1.04 1.04 0.0 0 1 177.54 139.44   L 160.82 139.41   A 5.88 5.64 -89.9 0 1 155.19 133.52   L 155.21 125.86   A 5.88 5.64 -89.9 0 1 160.86 119.99   L 177.58 120.02   A 1.04 1.04 0.0 0 1 178.62 121.06   L 178.58 138.40   Z" fill="#ffffff"/>
</g><g id="onState" style="display:none"><g fill="none" stroke-linecap="butt" stroke-width="2.00">
<path class="icon-shape" d="   M 135.42 71.07   C 133.10 67.80 130.83 63.93 128.62 61.20   C 107.36 35.01 68.22 32.69 44.26 56.83   C 24.81 76.44 22.75 107.58 38.79 129.71   C 56.38 153.97 89.78 160.01 115.11 143.98   C 118.48 141.84 122.15 138.61 125.66 135.90" stroke="#fef6f6" vector-effect="non-scaling-stroke"/>
<path class="icon-shape" d="   M 125.66 135.90   Q 127.76 143.76 132.96 149.29   Q 137.82 154.47 145.63 158.66   A 2.42 2.42 0.0 0 0 148.64 158.08   L 148.76 157.93   A 1.89 1.88 -54.7 0 0 148.28 155.10   Q 145.46 153.31 142.73 151.53   Q 130.67 143.70 129.35 130.37" stroke="#818181" vector-effect="non-scaling-stroke"/>
<path class="icon-shape" d="   M 129.35 130.37   Q 137.11 121.17 138.99 109.99" stroke="#fef6f6" vector-effect="non-scaling-stroke"/>
<path class="icon-shape" d="   M 138.99 109.99   L 148.33 102.87   A 2.22 1.97 -35.0 0 0 148.99 100.12   L 148.95 100.05   A 2.22 2.02 58.2 0 0 146.07 99.23   L 141.03 102.30" stroke="#818181" vector-effect="non-scaling-stroke"/>
<path class="icon-shape" d="   M 141.03 102.30   L 139.96 84.66" stroke="#fef6f6" vector-effect="non-scaling-stroke"/>
<path class="icon-shape" d="   M 139.96 84.66   L 179.10 84.60   A 2.25 2.00 -48.4 0 0 179.60 84.54   Q 186.89 82.47 184.58 75.51   A 1.13 0.79 -80.0 0 0 184.51 75.36   L 164.12 40.08   A 0.94 0.49 27.5 0 0 164.05 39.98   Q 159.25 34.29 153.73 39.56   A 2.93 2.78 84.7 0 0 153.25 40.17   L 135.42 71.07" stroke="#818181" vector-effect="non-scaling-stroke"/>
<path class="icon-shape" d="   M 139.96 84.66   Q 131.29 83.77 133.05 75.54   Q 133.29 74.45 135.42 71.07" stroke="#807878" vector-effect="non-scaling-stroke"/>
<path class="icon-shape" d="   M 141.03 102.30   C 129.85 110.60 122.29 121.11 125.66 135.90" stroke="#807878" vector-effect="non-scaling-stroke"/>
<path class="icon-shape" d="   M 138.99 109.99   Q 132.44 115.57 130.10 123.08   Q 129.27 125.75 129.35 130.37" stroke="#807878" vector-effect="non-scaling-stroke"/>
<path class="icon-shape" d="   M 145.43 140.05   Q 145.19 139.53 143.30 137.01   Q 138.90 131.15 142.10 124.37   Q 143.32 121.78 145.63 118.11   A 2.27 2.27 0.0 0 0 145.02 115.06   L 144.99 115.04   A 2.14 2.13 -54.5 0 0 142.02 115.54   C 138.93 119.89 135.63 126.00 136.29 131.23   C 136.76 134.92 138.80 139.73 142.00 142.44   C 143.52 143.72 145.00 142.64 145.49 141.08   A 1.45 1.40 42.6 0 0 145.43 140.05" stroke="#818181" vector-effect="non-scaling-stroke"/>
<path class="icon-shape" d="   M 183.11 138.61   L 183.17 120.97   A 5.16 5.16 0.0 0 0 178.03 115.79   L 159.58 115.72   A 9.29 8.63 -89.8 0 0 150.92 124.98   L 150.88 134.36   A 9.29 8.63 -89.8 0 0 159.48 143.68   L 177.93 143.75   A 5.16 5.16 0.0 0 0 183.11 138.61" stroke="#818181" vector-effect="non-scaling-stroke"/>
<path class="icon-shape" d="   M 158.77 80.40   Q 177.04 80.37 178.29 80.33   A 2.45 2.43 5.7 0 0 180.60 78.46   Q 180.78 77.70 180.06 76.46   Q 167.70 55.18 160.28 42.49   Q 159.60 41.32 158.71 41.32   Q 157.81 41.32 157.14 42.50   Q 149.76 55.21 137.46 76.53   Q 136.75 77.77 136.93 78.53   A 2.45 2.43 -5.9 0 0 139.24 80.39   Q 140.49 80.42 158.77 80.40" stroke="#818181" vector-effect="non-scaling-stroke"/>
<path class="icon-shape" d="   M 50.06 55.53   A 2.15 2.15 0.0 0 0 52.22 57.74   Q 73.87 57.67 75.24 57.81   Q 78.86 58.18 80.50 59.79   Q 85.22 64.41 88.01 67.45   Q 90.01 69.64 91.76 70.47   Q 94.95 71.98 96.03 71.98   Q 109.73 72.07 113.65 72.03   A 2.18 2.18 0.0 0 0 115.80 69.81   L 115.80 69.69   A 2.29 2.29 0.0 0 0 113.47 67.45   Q 104.78 67.59 97.02 67.42   Q 94.65 67.37 92.97 65.76   Q 89.43 62.35 86.11 58.87   C 82.13 54.68 79.18 53.26 73.76 53.23   Q 61.51 53.17 52.31 53.26   A 2.28 2.28 0.0 0 0 50.06 55.48   L 50.06 55.53" stroke="#807878" vector-effect="non-scaling-stroke"/>
<path class="icon-shape" d="   M 86.02 95.11   Q 87.17 100.26 91.82 103.39   C 94.51 105.19 98.62 105.01 101.71 104.91   C 110.52 104.63 112.66 94.39 111.23 87.60   Q 110.50 84.15 108.70 82.14   C 105.09 78.11 101.47 78.27 96.48 78.56   C 90.10 78.93 86.86 83.32 85.80 89.22   A 0.91 0.91 0.0 0 1 85.08 89.95   Q 83.80 90.20 79.95 90.56   Q 67.89 91.70 52.62 91.22   A 2.34 2.34 0.0 0 0 50.21 93.44   L 50.21 93.51   A 2.20 2.19 2.4 0 0 52.34 95.82   Q 68.89 96.30 85.14 94.48   A 0.81 0.81 0.0 0 1 86.02 95.11" stroke="#807878" vector-effect="non-scaling-stroke"/>
<path class="icon-shape" d="   M 114.33 136.94   C 114.83 139.17 117.56 139.86 118.78 137.48   A 1.28 1.26 -39.0 0 0 118.88 136.61   Q 117.51 130.69 117.65 128.96   Q 117.97 124.81 118.20 121.23   A 1.92 1.92 0.0 0 0 116.37 119.18   L 116.24 119.18   A 2.14 2.14 0.0 0 0 114.02 121.00   Q 112.71 129.64 114.33 136.94" stroke="#807878" vector-effect="non-scaling-stroke"/>
<path class="icon-shape" d="   M 160.5167 56.1319   A 2.15 2.15 0.0 0 0 158.3780 53.9706   L 158.1780 53.9696   A 2.15 2.15 0.0 0 0 156.0168 56.1083   L 155.9633 66.3281   A 2.15 2.15 0.0 0 0 158.1020 68.4894   L 158.3020 68.4904   A 2.15 2.15 0.0 0 0 160.4632 66.3517   L 160.5167 56.1319" stroke="#818181" vector-effect="non-scaling-stroke"/>
<path class="icon-shape" d="   M 158.3449 70.6000   A 2.83 2.54 -89.9 0 0 155.8000 73.4256   A 2.83 2.54 -89.9 0 0 158.3351 76.2600   A 2.83 2.54 -89.9 0 0 160.8800 73.4344   A 2.83 2.54 -89.9 0 0 158.3449 70.6000" stroke="#818181" vector-effect="non-scaling-stroke"/>
<path class="icon-shape" d="   M 101.22 82.91   Q 95.35 82.18 92.72 85.02   Q 89.58 88.42 90.47 93.59   Q 91.23 98.06 96.49 100.36   A 1.43 1.38 -32.0 0 0 97.06 100.48   L 101.98 100.48   A 1.16 1.11 31.0 0 0 102.47 100.37   C 106.42 98.54 107.07 94.59 106.95 90.42   C 106.85 86.86 104.59 83.33 101.22 82.91" stroke="#818181" vector-effect="non-scaling-stroke"/>
<path class="icon-shape" d="   M 178.52 138.33   L 178.55 121.15   A 1.05 1.05 0.0 0 0 177.51 120.10   L 160.63 120.07   A 5.42 5.31 -89.9 0 0 155.31 125.48   L 155.29 133.92   A 5.42 5.31 -89.9 0 0 160.59 139.35   L 177.47 139.38   A 1.05 1.05 0.0 0 0 178.52 138.33" stroke="#818181" vector-effect="non-scaling-stroke"/>
</g>
<path class="icon-shape" d="   M 195.00 0.00   L 195.00 197.00   L 0.00 197.00   L 0.00 0.00   L 195.00 0.00   Z   M 135.42 71.07   C 133.10 67.80 130.83 63.93 128.62 61.20   C 107.36 35.01 68.22 32.69 44.26 56.83   C 24.81 76.44 22.75 107.58 38.79 129.71   C 56.38 153.97 89.78 160.01 115.11 143.98   C 118.48 141.84 122.15 138.61 125.66 135.90   Q 127.76 143.76 132.96 149.29   Q 137.82 154.47 145.63 158.66   A 2.42 2.42 0.0 0 0 148.64 158.08   L 148.76 157.93   A 1.89 1.88 -54.7 0 0 148.28 155.10   Q 145.46 153.31 142.73 151.53   Q 130.67 143.70 129.35 130.37   Q 137.11 121.17 138.99 109.99   L 148.33 102.87   A 2.22 1.97 -35.0 0 0 148.99 100.12   L 148.95 100.05   A 2.22 2.02 58.2 0 0 146.07 99.23   L 141.03 102.30   L 139.96 84.66   L 179.10 84.60   A 2.25 2.00 -48.4 0 0 179.60 84.54   Q 186.89 82.47 184.58 75.51   A 1.13 0.79 -80.0 0 0 184.51 75.36   L 164.12 40.08   A 0.94 0.49 27.5 0 0 164.05 39.98   Q 159.25 34.29 153.73 39.56   A 2.93 2.78 84.7 0 0 153.25 40.17   L 135.42 71.07   Z   M 145.43 140.05   Q 145.19 139.53 143.30 137.01   Q 138.90 131.15 142.10 124.37   Q 143.32 121.78 145.63 118.11   A 2.27 2.27 0.0 0 0 145.02 115.06   L 144.99 115.04   A 2.14 2.13 -54.5 0 0 142.02 115.54   C 138.93 119.89 135.63 126.00 136.29 131.23   C 136.76 134.92 138.80 139.73 142.00 142.44   C 143.52 143.72 145.00 142.64 145.49 141.08   A 1.45 1.40 42.6 0 0 145.43 140.05   Z   M 183.11 138.61   L 183.17 120.97   A 5.16 5.16 0.0 0 0 178.03 115.79   L 159.58 115.72   A 9.29 8.63 -89.8 0 0 150.92 124.98   L 150.88 134.36   A 9.29 8.63 -89.8 0 0 159.48 143.68   L 177.93 143.75   A 5.16 5.16 0.0 0 0 183.11 138.61   Z" fill="#ffffff"/>
<path class="icon-shape" d="   M 139.96 84.66   Q 131.29 83.77 133.05 75.54   Q 133.29 74.45 135.42 71.07   L 153.25 40.17   A 2.93 2.78 84.7 0 1 153.73 39.56   Q 159.25 34.29 164.05 39.98   A 0.94 0.49 27.5 0 1 164.12 40.08   L 184.51 75.36   A 1.13 0.79 -80.0 0 1 184.58 75.51   Q 186.89 82.47 179.60 84.54   A 2.25 2.00 -48.4 0 1 179.10 84.60   L 139.96 84.66   Z   M 158.77 80.40   Q 177.04 80.37 178.29 80.33   A 2.45 2.43 5.7 0 0 180.60 78.46   Q 180.78 77.70 180.06 76.46   Q 167.70 55.18 160.28 42.49   Q 159.60 41.32 158.71 41.32   Q 157.81 41.32 157.14 42.50   Q 149.76 55.21 137.46 76.53   Q 136.75 77.77 136.93 78.53   A 2.45 2.43 -5.9 0 0 139.24 80.39   Q 140.49 80.42 158.77 80.40   Z" fill="#020303"/>
<path class="icon-shape" d="   M 135.42 71.07   Q 133.29 74.45 133.05 75.54   Q 131.29 83.77 139.96 84.66   L 141.03 102.30   C 129.85 110.60 122.29 121.11 125.66 135.90   C 122.15 138.61 118.48 141.84 115.11 143.98   C 89.78 160.01 56.38 153.97 38.79 129.71   C 22.75 107.58 24.81 76.44 44.26 56.83   C 68.22 32.69 107.36 35.01 128.62 61.20   C 130.83 63.93 133.10 67.80 135.42 71.07   Z   M 50.06 55.53   A 2.15 2.15 0.0 0 0 52.22 57.74   Q 73.87 57.67 75.24 57.81   Q 78.86 58.18 80.50 59.79   Q 85.22 64.41 88.01 67.45   Q 90.01 69.64 91.76 70.47   Q 94.95 71.98 96.03 71.98   Q 109.73 72.07 113.65 72.03   A 2.18 2.18 0.0 0 0 115.80 69.81   L 115.80 69.69   A 2.29 2.29 0.0 0 0 113.47 67.45   Q 104.78 67.59 97.02 67.42   Q 94.65 67.37 92.97 65.76   Q 89.43 62.35 86.11 58.87   C 82.13 54.68 79.18 53.26 73.76 53.23   Q 61.51 53.17 52.31 53.26   A 2.28 2.28 0.0 0 0 50.06 55.48   L 50.06 55.53   Z   M 86.02 95.11   Q 87.17 100.26 91.82 103.39   C 94.51 105.19 98.62 105.01 101.71 104.91   C 110.52 104.63 112.66 94.39 111.23 87.60   Q 110.50 84.15 108.70 82.14   C 105.09 78.11 101.47 78.27 96.48 78.56   C 90.10 78.93 86.86 83.32 85.80 89.22   A 0.91 0.91 0.0 0 1 85.08 89.95   Q 83.80 90.20 79.95 90.56   Q 67.89 91.70 52.62 91.22   A 2.34 2.34 0.0 0 0 50.21 93.44   L 50.21 93.51   A 2.20 2.19 2.4 0 0 52.34 95.82   Q 68.89 96.30 85.14 94.48   A 0.81 0.81 0.0 0 1 86.02 95.11   Z   M 114.33 136.94   C 114.83 139.17 117.56 139.86 118.78 137.48   A 1.28 1.26 -39.0 0 0 118.88 136.61   Q 117.51 130.69 117.65 128.96   Q 117.97 124.81 118.20 121.23   A 1.92 1.92 0.0 0 0 116.37 119.18   L 116.24 119.18   A 2.14 2.14 0.0 0 0 114.02 121.00   Q 112.71 129.64 114.33 136.94   Z" fill="#fdedec"/>
<path class="icon-shape" d="   M 158.71 41.32   Q 159.60 41.32 160.28 42.49   Q 167.70 55.18 180.06 76.46   Q 180.78 77.70 180.60 78.46   A 2.45 2.43 5.7 0 1 178.29 80.33   Q 177.04 80.37 158.77 80.40   Q 140.49 80.42 139.24 80.39   A 2.45 2.43 -5.9 0 1 136.93 78.53   Q 136.75 77.77 137.46 76.53   Q 149.76 55.21 157.14 42.50   Q 157.81 41.32 158.71 41.32   Z   M 160.5167 56.1319   A 2.15 2.15 0.0 0 0 158.3780 53.9706   L 158.1780 53.9696   A 2.15 2.15 0.0 0 0 156.0168 56.1083   L 155.9633 66.3281   A 2.15 2.15 0.0 0 0 158.1020 68.4894   L 158.3020 68.4904   A 2.15 2.15 0.0 0 0 160.4632 66.3517   L 160.5167 56.1319   Z   M 158.3449 70.6000   A 2.83 2.54 -89.9 0 0 155.8000 73.4256   A 2.83 2.54 -89.9 0 0 158.3351 76.2600   A 2.83 2.54 -89.9 0 0 160.8800 73.4344   A 2.83 2.54 -89.9 0 0 158.3449 70.6000   Z" fill="#ffffff"/>
<path class="icon-shape" d="   M 50.06 55.53   L 50.06 55.48   A 2.28 2.28 0.0 0 1 52.31 53.26   Q 61.51 53.17 73.76 53.23   C 79.18 53.26 82.13 54.68 86.11 58.87   Q 89.43 62.35 92.97 65.76   Q 94.65 67.37 97.02 67.42   Q 104.78 67.59 113.47 67.45   A 2.29 2.29 0.0 0 1 115.80 69.69   L 115.80 69.81   A 2.18 2.18 0.0 0 1 113.65 72.03   Q 109.73 72.07 96.03 71.98   Q 94.95 71.98 91.76 70.47   Q 90.01 69.64 88.01 67.45   Q 85.22 64.41 80.50 59.79   Q 78.86 58.18 75.24 57.81   Q 73.87 57.67 52.22 57.74   A 2.15 2.15 0.0 0 1 50.06 55.53   Z" fill="#020303"/>
<rect fill="#020303" height="14.52" rx="2.15" transform="translate(158.24,61.23) rotate(0.3)" width="4.50" x="-2.25" y="-7.26"/>
<ellipse cx="0.00" cy="0.00" fill="#020303" rx="2.83" ry="2.54" transform="translate(158.34,73.43) rotate(-89.9)"/>
<path class="icon-shape" d="   M 86.02 95.11   A 0.81 0.81 0.0 0 0 85.14 94.48   Q 68.89 96.30 52.34 95.82   A 2.20 2.19 2.4 0 1 50.21 93.51   L 50.21 93.44   A 2.34 2.34 0.0 0 1 52.62 91.22   Q 67.89 91.70 79.95 90.56   Q 83.80 90.20 85.08 89.95   A 0.91 0.91 0.0 0 0 85.80 89.22   C 86.86 83.32 90.10 78.93 96.48 78.56   C 101.47 78.27 105.09 78.11 108.70 82.14   Q 110.50 84.15 111.23 87.60   C 112.66 94.39 110.52 104.63 101.71 104.91   C 98.62 105.01 94.51 105.19 91.82 103.39   Q 87.17 100.26 86.02 95.11   Z   M 101.22 82.91   Q 95.35 82.18 92.72 85.02   Q 89.58 88.42 90.47 93.59   Q 91.23 98.06 96.49 100.36   A 1.43 1.38 -32.0 0 0 97.06 100.48   L 101.98 100.48   A 1.16 1.11 31.0 0 0 102.47 100.37   C 106.42 98.54 107.07 94.59 106.95 90.42   C 106.85 86.86 104.59 83.33 101.22 82.91   Z" fill="#020303"/>
<path class="icon-shape" d="   M 101.22 82.91   C 104.59 83.33 106.85 86.86 106.95 90.42   C 107.07 94.59 106.42 98.54 102.47 100.37   A 1.16 1.11 31.0 0 1 101.98 100.48   L 97.06 100.48   A 1.43 1.38 -32.0 0 1 96.49 100.36   Q 91.23 98.06 90.47 93.59   Q 89.58 88.42 92.72 85.02   Q 95.35 82.18 101.22 82.91   Z" fill="#ffffff"/>
<path class="icon-shape" d="   M 138.99 109.99   Q 132.44 115.57 130.10 123.08   Q 129.27 125.75 129.35 130.37   Q 130.67 143.70 142.73 151.53   Q 145.46 153.31 148.28 155.10   A 1.89 1.88 -54.7 0 1 148.76 157.93   L 148.64 158.08   A 2.42 2.42 0.0 0 1 145.63 158.66   Q 137.82 154.47 132.96 149.29   Q 127.76 143.76 125.66 135.90   C 122.29 121.11 129.85 110.60 141.03 102.30   L 146.07 99.23   A 2.22 2.02 58.2 0 1 148.95 100.05   L 148.99 100.12   A 2.22 1.97 -35.0 0 1 148.33 102.87   L 138.99 109.99   Z" fill="#020303"/>
<path class="icon-shape" d="   M 138.99 109.99   Q 137.11 121.17 129.35 130.37   Q 129.27 125.75 130.10 123.08   Q 132.44 115.57 138.99 109.99   Z" fill="#fdedec"/>
<path class="icon-shape" d="   M 145.49 141.08   C 145.00 142.64 143.52 143.72 142.00 142.44   C 138.80 139.73 136.76 134.92 136.29 131.23   C 135.63 126.00 138.93 119.89 142.02 115.54   A 2.14 2.13 -54.5 0 1 144.99 115.04   L 145.02 115.06   A 2.27 2.27 0.0 0 1 145.63 118.11   Q 143.32 121.78 142.10 124.37   Q 138.90 131.15 143.30 137.01   Q 145.19 139.53 145.43 140.05   A 1.45 1.40 42.6 0 1 145.49 141.08   Z" fill="#020303"/>
<path class="icon-shape" d="   M 183.11 138.61   A 5.16 5.16 0.0 0 1 177.93 143.75   L 159.48 143.68   A 9.29 8.63 -89.8 0 1 150.88 134.36   L 150.92 124.98   A 9.29 8.63 -89.8 0 1 159.58 115.72   L 178.03 115.79   A 5.16 5.16 0.0 0 1 183.17 120.97   L 183.11 138.61   Z   M 178.52 138.33   L 178.55 121.15   A 1.05 1.05 0.0 0 0 177.51 120.10   L 160.63 120.07   A 5.42 5.31 -89.9 0 0 155.31 125.48   L 155.29 133.92   A 5.42 5.31 -89.9 0 0 160.59 139.35   L 177.47 139.38   A 1.05 1.05 0.0 0 0 178.52 138.33   Z" fill="#020303"/>
<path class="icon-shape" d="   M 118.78 137.48   C 117.56 139.86 114.83 139.17 114.33 136.94   Q 112.71 129.64 114.02 121.00   A 2.14 2.14 0.0 0 1 116.24 119.18   L 116.37 119.18   A 1.92 1.92 0.0 0 1 118.20 121.23   Q 117.97 124.81 117.65 128.96   Q 117.51 130.69 118.88 136.61   A 1.28 1.26 -39.0 0 1 118.78 137.48   Z" fill="#020303"/>
<path class="icon-shape" d="   M 178.52 138.33   A 1.05 1.05 0.0 0 1 177.47 139.38   L 160.59 139.35   A 5.42 5.31 -89.9 0 1 155.29 133.92   L 155.31 125.48   A 5.42 5.31 -89.9 0 1 160.63 120.07   L 177.51 120.10   A 1.05 1.05 0.0 0 1 178.55 121.15   L 178.52 138.33   Z" fill="#ffffff"/>
</g></svg>