<?xml version="1.0" encoding="utf-8"?>
<svg version="1.1" viewBox="0.00 0.00 229.00 197.00" xmlns="http://www.w3.org/2000/svg"><g id="offState" style="display:inline"><g fill="none" stroke-linecap="butt" stroke-width="2.00">
<path class="icon-shape" d="   M 96.98 48.20   Q 127.11 48.20 128.79 48.25   A 2.33 2.33 0.0 0 1 130.92 49.81   C 131.58 51.67 132.05 53.81 133.75 53.78   A 2.20 1.98 -3.3 0 0 135.92 51.59   Q 135.40 46.77 132.47 44.66   Q 131.20 43.75 124.81 43.75   Q 124.79 43.75 96.98 43.75   Q 69.18 43.75 69.16 43.75   Q 62.77 43.76 61.50 44.67   Q 58.57 46.78 58.05 51.60   A 2.20 1.98 3.3 0 0 60.22 53.79   C 61.92 53.82 62.39 51.68 63.05 49.82   A 2.33 2.33 0.0 0 1 65.18 48.26   Q 66.86 48.20 96.98 48.20" stroke="#d9d8da" vector-effect="non-scaling-stroke"/>
<path class="icon-shape" d="   M 34.06 98.43   C 29.33 103.81 27.85 108.15 27.86 116.05   Q 27.90 149.52 27.93 152.47   Q 28.03 161.70 37.24 161.97   Q 38.56 162.01 43.31 161.96   C 48.01 161.91 51.15 161.27 53.28 157.22   C 54.42 155.04 54.01 151.97 53.85 149.75   A 0.62 0.61 -2.1 0 1 54.47 149.09   L 140.11 149.09   A 0.61 0.61 0.0 0 1 140.72 149.70   L 140.72 155.19   A 2.89 2.84 34.2 0 0 140.94 156.29   Q 143.26 161.76 148.79 161.88   C 156.31 162.04 164.55 163.49 166.67 155.49   A 1.90 1.82 53.4 0 0 166.73 155.02   L 166.73 109.28   A 2.43 2.37 37.9 0 0 166.64 108.63   Q 164.90 102.87 160.51 98.62   A 0.47 0.46 67.1 0 1 160.83 97.82   Q 165.99 97.85 166.08 97.85   C 170.35 97.91 174.03 95.76 174.50 91.50   C 175.60 81.75 164.78 84.36 159.31 84.03   A 1.99 1.96 24.4 0 0 157.82 84.58   L 153.69 88.53   A 0.53 0.53 0.0 0 1 152.83 88.34   Q 145.31 68.80 144.65 67.38   Q 142.34 62.41 137.94 60.64   A 4.62 4.42 -32.2 0 0 136.37 60.32   Q 135.84 60.30 64.68 60.30   Q 57.95 60.30 56.39 60.76   Q 52.32 61.96 50.51 66.30   Q 44.33 81.04 41.84 88.04   A 0.83 0.82 32.5 0 1 40.48 88.34   L 36.33 84.20   A 0.79 0.79 0.0 0 0 35.75 83.97   Q 32.37 84.00 29.32 83.93   C 24.80 83.83 21.63 84.84 20.48 89.27   C 19.69 92.34 22.15 96.23 25.13 97.42   C 27.26 98.27 30.94 97.82 33.75 97.77   A 0.40 0.40 0.0 0 1 34.06 98.43" stroke="#d9d8da" vector-effect="non-scaling-stroke"/>
<path class="icon-shape" d="   M 97.27 90.83   Q 126.64 90.83 147.98 90.86   A 0.63 0.63 0.0 0 0 148.57 90.00   Q 143.42 76.94 140.60 69.63   C 138.97 65.38 136.67 64.68 132.06 64.68   Q 111.21 64.68 97.27 64.68   Q 83.33 64.68 62.48 64.67   C 57.86 64.68 55.56 65.38 53.93 69.63   Q 51.11 76.94 45.96 90.00   A 0.63 0.63 0.0 0 0 46.55 90.86   Q 67.89 90.83 97.27 90.83" stroke="#d9d8da" vector-effect="non-scaling-stroke"/>
<path class="icon-shape" d="   M 38.33 93.47   A 0.49 0.49 0.0 0 0 38.68 92.63   L 35.31 89.24   A 2.53 2.53 0.0 0 0 33.52 88.49   L 26.90 88.51   A 1.88 1.87 82.4 0 0 25.09 90.88   L 25.13 91.03   A 3.09 3.09 0.0 0 0 28.10 93.37   L 38.33 93.47" stroke="#d9d8da" vector-effect="non-scaling-stroke"/>
<path class="icon-shape" d="   M 156.17 93.51   L 166.80 93.45   A 3.21 3.21 0.0 0 0 169.90 91.03   L 169.94 90.87   A 1.95 1.95 0.0 0 0 168.07 88.40   L 161.19 88.36   A 2.63 2.63 0.0 0 0 159.33 89.13   L 155.81 92.64   A 0.51 0.51 0.0 0 0 156.17 93.51" stroke="#d9d8da" vector-effect="non-scaling-stroke"/>
<path class="icon-shape" d="   M 97.53 144.20   Q 136.08 144.24 142.49 144.28   Q 144.37 144.29 145.69 146.80   A 1.29 1.28 30.7 0 1 145.85 147.42   L 145.85 154.50   A 2.52 2.51 -87.4 0 0 148.13 157.01   Q 152.39 157.40 159.10 157.00   Q 162.06 156.82 162.07 154.44   Q 162.19 118.73 162.15 110.82   A 3.44 3.19 38.8 0 0 162.01 109.87   C 160.32 104.19 155.94 99.64 151.34 96.05   A 2.53 2.53 0.0 0 0 149.75 95.51   Q 145.89 95.55 97.58 95.50   Q 49.27 95.46 45.40 95.41   A 2.53 2.53 0.0 0 0 43.81 95.94   C 39.20 99.53 34.82 104.07 33.11 109.74   A 3.44 3.19 -38.7 0 0 32.97 110.69   Q 32.92 118.60 32.97 154.31   Q 32.97 156.69 35.93 156.88   Q 42.64 157.29 46.90 156.91   A 2.52 2.51 87.5 0 0 49.19 154.41   L 49.20 147.33   A 1.29 1.28 -30.6 0 1 49.36 146.71   Q 50.69 144.20 52.56 144.19   Q 58.97 144.16 97.53 144.20" stroke="#d9d8da" vector-effect="non-scaling-stroke"/>
<path class="icon-shape" d="   M 60.09 112.08   Q 58.75 110.89 55.36 110.35   Q 49.99 109.51 44.58 108.90   C 41.44 108.55 38.40 109.00 37.54 112.37   C 35.96 118.51 36.10 125.93 44.58 126.04   Q 55.43 126.18 58.22 126.11   C 67.27 125.86 63.63 115.25 60.09 112.08" stroke="#d9d8da" vector-effect="non-scaling-stroke"/>
<path class="icon-shape" d="   M 134.45 112.22   C 130.92 115.45 127.37 126.16 136.48 126.32   Q 139.29 126.36 150.21 126.10   C 158.74 125.90 158.80 118.43 157.15 112.27   C 156.25 108.88 153.18 108.46 150.02 108.85   Q 144.59 109.52 139.19 110.43   Q 135.78 111.01 134.45 112.22" stroke="#d9d8da" vector-effect="non-scaling-stroke"/>
<path class="icon-shape" d="   M 121.22 113.36   L 73.46 113.28   A 2.64 2.64 0.0 0 0 70.82 115.91   L 70.82 116.95   A 10.68 8.04 -89.9 0 0 78.84 127.65   L 115.80 127.71   A 10.68 8.04 -89.9 0 0 123.86 117.05   L 123.86 116.01   A 2.64 2.64 0.0 0 0 121.22 113.36" stroke="#d9d8da" vector-effect="non-scaling-stroke"/>
<path class="icon-shape" d="   M 58.11 117.41   A 3.48 3.48 0.0 0 0 55.38 115.16   L 43.50 113.31   A 1.62 1.62 0.0 0 0 41.63 114.91   L 41.63 118.83   A 2.19 2.18 0.0 0 0 43.82 121.01   L 57.56 121.01   A 1.29 1.29 0.0 0 0 58.78 119.29   L 58.11 117.41" stroke="#d9d8da" vector-effect="non-scaling-stroke"/>
<path class="icon-shape" d="   M 136.21 120.98   L 151.05 120.98   A 1.85 1.84 -90.0 0 0 152.89 119.13   L 152.89 114.60   A 1.22 1.22 0.0 0 0 151.50 113.39   L 139.14 115.16   A 2.31 2.31 0.0 0 0 137.47 116.29   L 135.49 119.72   A 0.84 0.84 0.0 0 0 136.21 120.98" stroke="#d9d8da" vector-effect="non-scaling-stroke"/>
<path class="icon-shape" d="   M 118.70 118.32   L 75.96 118.32   A 0.10 0.10 0.0 0 0 75.86 118.42   L 75.86 118.44   A 4.48 4.08 -90.0 0 0 79.94 122.92   L 114.72 122.92   A 4.48 4.08 -90.0 0 0 118.80 118.44   L 118.80 118.42   A 0.10 0.10 0.0 0 0 118.70 118.32" stroke="#d9d8da" vector-effect="non-scaling-stroke"/>
</g>
<path class="icon-shape" d="   M 229.00 0.00   L 229.00 197.00   L 0.00 197.00   L 0.00 0.00   L 229.00 0.00   Z   M 96.98 48.20   Q 127.11 48.20 128.79 48.25   A 2.33 2.33 0.0 0 1 130.92 49.81   C 131.58 51.67 132.05 53.81 133.75 53.78   A 2.20 1.98 -3.3 0 0 135.92 51.59   Q 135.40 46.77 132.47 44.66   Q 131.20 43.75 124.81 43.75   Q 124.79 43.75 96.98 43.75   Q 69.18 43.75 69.16 43.75   Q 62.77 43.76 61.50 44.67   Q 58.57 46.78 58.05 51.60   A 2.20 1.98 3.3 0 0 60.22 53.79   C 61.92 53.82 62.39 51.68 63.05 49.82   A 2.33 2.33 0.0 0 1 65.18 48.26   Q 66.86 48.20 96.98 48.20   Z   M 34.06 98.43   C 29.33 103.81 27.85 108.15 27.86 116.05   Q 27.90 149.52 27.93 152.47   Q 28.03 161.70 37.24 161.97   Q 38.56 162.01 43.31 161.96   C 48.01 161.91 51.15 161.27 53.28 157.22   C 54.42 155.04 54.01 151.97 53.85 149.75   A 0.62 0.61 -2.1 0 1 54.47 149.09   L 140.11 149.09   A 0.61 0.61 0.0 0 1 140.72 149.70   L 140.72 155.19   A 2.89 2.84 34.2 0 0 140.94 156.29   Q 143.26 161.76 148.79 161.88   C 156.31 162.04 164.55 163.49 166.67 155.49   A 1.90 1.82 53.4 0 0 166.73 155.02   L 166.73 109.28   A 2.43 2.37 37.9 0 0 166.64 108.63   Q 164.90 102.87 160.51 98.62   A 0.47 0.46 67.1 0 1 160.83 97.82   Q 165.99 97.85 166.08 97.85   C 170.35 97.91 174.03 95.76 174.50 91.50   C 175.60 81.75 164.78 84.36 159.31 84.03   A 1.99 1.96 24.4 0 0 157.82 84.58   L 153.69 88.53   A 0.53 0.53 0.0 0 1 152.83 88.34   Q 145.31 68.80 144.65 67.38   Q 142.34 62.41 137.94 60.64   A 4.62 4.42 -32.2 0 0 136.37 60.32   Q 135.84 60.30 64.68 60.30   Q 57.95 60.30 56.39 60.76   Q 52.32 61.96 50.51 66.30   Q 44.33 81.04 41.84 88.04   A 0.83 0.82 32.5 0 1 40.48 88.34   L 36.33 84.20   A 0.79 0.79 0.0 0 0 35.75 83.97   Q 32.37 84.00 29.32 83.93   C 24.80 83.83 21.63 84.84 20.48 89.27   C 19.69 92.34 22.15 96.23 25.13 97.42   C 27.26 98.27 30.94 97.82 33.75 97.77   A 0.40 0.40 0.0 0 1 34.06 98.43   Z" fill="#ffffff"/>
<path class="icon-shape" d="   M 96.98 43.75   Q 124.79 43.75 124.81 43.75   Q 131.20 43.75 132.47 44.66   Q 135.40 46.77 135.92 51.59   A 2.20 1.98 -3.3 0 1 133.75 53.78   C 132.05 53.81 131.58 51.67 130.92 49.81   A 2.33 2.33 0.0 0 0 128.79 48.25   Q 127.11 48.20 96.98 48.20   Q 66.86 48.20 65.18 48.26   A 2.33 2.33 0.0 0 0 63.05 49.82   C 62.39 51.68 61.92 53.82 60.22 53.79   A 2.20 1.98 3.3 0 1 58.05 51.60   Q 58.57 46.78 61.50 44.67   Q 62.77 43.76 69.16 43.75   Q 69.18 43.75 96.98 43.75   Z" fill="#b2b0b4"/>
<path class="icon-shape" d="   M 34.06 98.43   A 0.40 0.40 0.0 0 0 33.75 97.77   C 30.94 97.82 27.26 98.27 25.13 97.42   C 22.15 96.23 19.69 92.34 20.48 89.27   C 21.63 84.84 24.80 83.83 29.32 83.93   Q 32.37 84.00 35.75 83.97   A 0.79 0.79 0.0 0 1 36.33 84.20   L 40.48 88.34   A 0.83 0.82 32.5 0 0 41.84 88.04   Q 44.33 81.04 50.51 66.30   Q 52.32 61.96 56.39 60.76   Q 57.95 60.30 64.68 60.30   Q 135.84 60.30 136.37 60.32   A 4.62 4.42 -32.2 0 1 137.94 60.64   Q 142.34 62.41 144.65 67.38   Q 145.31 68.80 152.83 88.34   A 0.53 0.53 0.0 0 0 153.69 88.53   L 157.82 84.58   A 1.99 1.96 24.4 0 1 159.31 84.03   C 164.78 84.36 175.60 81.75 174.50 91.50   C 174.03 95.76 170.35 97.91 166.08 97.85   Q 165.99 97.85 160.83 97.82   A 0.47 0.46 67.1 0 0 160.51 98.62   Q 164.90 102.87 166.64 108.63   A 2.43 2.37 37.9 0 1 166.73 109.28   L 166.73 155.02   A 1.90 1.82 53.4 0 1 166.67 155.49   C 164.55 163.49 156.31 162.04 148.79 161.88   Q 143.26 161.76 140.94 156.29   A 2.89 2.84 34.2 0 1 140.72 155.19   L 140.72 149.70   A 0.61 0.61 0.0 0 0 140.11 149.09   L 54.47 149.09   A 0.62 0.61 -2.1 0 0 53.85 149.75   C 54.01 151.97 54.42 155.04 53.28 157.22   C 51.15 161.27 48.01 161.91 43.31 161.96   Q 38.56 162.01 37.24 161.97   Q 28.03 161.70 27.93 152.47   Q 27.90 149.52 27.86 116.05   C 27.85 108.15 29.33 103.81 34.06 98.43   Z   M 97.27 90.83   Q 126.64 90.83 147.98 90.86   A 0.63 0.63 0.0 0 0 148.57 90.00   Q 143.42 76.94 140.60 69.63   C 138.97 65.38 136.67 64.68 132.06 64.68   Q 111.21 64.68 97.27 64.68   Q 83.33 64.68 62.48 64.67   C 57.86 64.68 55.56 65.38 53.93 69.63   Q 51.11 76.94 45.96 90.00   A 0.63 0.63 0.0 0 0 46.55 90.86   Q 67.89 90.83 97.27 90.83   Z   M 38.33 93.47   A 0.49 0.49 0.0 0 0 38.68 92.63   L 35.31 89.24   A 2.53 2.53 0.0 0 0 33.52 88.49   L 26.90 88.51   A 1.88 1.87 82.4 0 0 25.09 90.88   L 25.13 91.03   A 3.09 3.09 0.0 0 0 28.10 93.37   L 38.33 93.47   Z   M 156.17 93.51   L 166.80 93.45   A 3.21 3.21 0.0 0 0 169.90 91.03   L 169.94 90.87   A 1.95 1.95 0.0 0 0 168.07 88.40   L 161.19 88.36   A 2.63 2.63 0.0 0 0 159.33 89.13   L 155.81 92.64   A 0.51 0.51 0.0 0 0 156.17 93.51   Z   M 97.53 144.20   Q 136.08 144.24 142.49 144.28   Q 144.37 144.29 145.69 146.80   A 1.29 1.28 30.7 0 1 145.85 147.42   L 145.85 154.50   A 2.52 2.51 -87.4 0 0 148.13 157.01   Q 152.39 157.40 159.10 157.00   Q 162.06 156.82 162.07 154.44   Q 162.19 118.73 162.15 110.82   A 3.44 3.19 38.8 0 0 162.01 109.87   C 160.32 104.19 155.94 99.64 151.34 96.05   A 2.53 2.53 0.0 0 0 149.75 95.51   Q 145.89 95.55 97.58 95.50   Q 49.27 95.46 45.40 95.41   A 2.53 2.53 0.0 0 0 43.81 95.94   C 39.20 99.53 34.82 104.07 33.11 109.74   A 3.44 3.19 -38.7 0 0 32.97 110.69   Q 32.92 118.60 32.97 154.31   Q 32.97 156.69 35.93 156.88   Q 42.64 157.29 46.90 156.91   A 2.52 2.51 87.5 0 0 49.19 154.41   L 49.20 147.33   A 1.29 1.28 -30.6 0 1 49.36 146.71   Q 50.69 144.20 52.56 144.19   Q 58.97 144.16 97.53 144.20   Z" fill="#b2b0b4"/>
<path class="icon-shape" d="   M 97.27 64.68   Q 111.21 64.68 132.06 64.68   C 136.67 64.68 138.97 65.38 140.60 69.63   Q 143.42 76.94 148.57 90.00   A 0.63 0.63 0.0 0 1 147.98 90.86   Q 126.64 90.83 97.27 90.83   Q 67.89 90.83 46.55 90.86   A 0.63 0.63 0.0 0 1 45.96 90.00   Q 51.11 76.94 53.93 69.63   C 55.56 65.38 57.86 64.68 62.48 64.67   Q 83.33 64.68 97.27 64.68   Z" fill="#ffffff"/>
<path class="icon-shape" d="   M 38.33 93.47   L 28.10 93.37   A 3.09 3.09 0.0 0 1 25.13 91.03   L 25.09 90.88   A 1.88 1.87 82.4 0 1 26.90 88.51   L 33.52 88.49   A 2.53 2.53 0.0 0 1 35.31 89.24   L 38.68 92.63   A 0.49 0.49 0.0 0 1 38.33 93.47   Z" fill="#ffffff"/>
<path class="icon-shape" d="   M 156.17 93.51   A 0.51 0.51 0.0 0 1 155.81 92.64   L 159.33 89.13   A 2.63 2.63 0.0 0 1 161.19 88.36   L 168.07 88.40   A 1.95 1.95 0.0 0 1 169.94 90.87   L 169.90 91.03   A 3.21 3.21 0.0 0 1 166.80 93.45   L 156.17 93.51   Z" fill="#ffffff"/>
<path class="icon-shape" d="   M 97.58 95.50   Q 145.89 95.55 149.75 95.51   A 2.53 2.53 0.0 0 1 151.34 96.05   C 155.94 99.64 160.32 104.19 162.01 109.87   A 3.44 3.19 38.8 0 1 162.15 110.82   Q 162.19 118.73 162.07 154.44   Q 162.06 156.82 159.10 157.00   Q 152.39 157.40 148.13 157.01   A 2.52 2.51 -87.4 0 1 145.85 154.50   L 145.85 147.42   A 1.29 1.28 30.7 0 0 145.69 146.80   Q 144.37 144.29 142.49 144.28   Q 136.08 144.24 97.53 144.20   Q 58.97 144.16 52.56 144.19   Q 50.69 144.20 49.36 146.71   A 1.29 1.28 -30.6 0 0 49.20 147.33   L 49.19 154.41   A 2.52 2.51 87.5 0 1 46.90 156.91   Q 42.64 157.29 35.93 156.88   Q 32.97 156.69 32.97 154.31   Q 32.92 118.60 32.97 110.69   A 3.44 3.19 -38.7 0 1 33.11 109.74   C 34.82 104.07 39.20 99.53 43.81 95.94   A 2.53 2.53 0.0 0 1 45.40 95.41   Q 49.27 95.46 97.58 95.50   Z   M 60.09 112.08   Q 58.75 110.89 55.36 110.35   Q 49.99 109.51 44.58 108.90   C 41.44 108.55 38.40 109.00 37.54 112.37   C 35.96 118.51 36.10 125.93 44.58 126.04   Q 55.43 126.18 58.22 126.11   C 67.27 125.86 63.63 115.25 60.09 112.08   Z   M 134.45 112.22   C 130.92 115.45 127.37 126.16 136.48 126.32   Q 139.29 126.36 150.21 126.10   C 158.74 125.90 158.80 118.43 157.15 112.27   C 156.25 108.88 153.18 108.46 150.02 108.85   Q 144.59 109.52 139.19 110.43   Q 135.78 111.01 134.45 112.22   Z   M 121.22 113.36   L 73.46 113.28   A 2.64 2.64 0.0 0 0 70.82 115.91   L 70.82 116.95   A 10.68 8.04 -89.9 0 0 78.84 127.65   L 115.80 127.71   A 10.68 8.04 -89.9 0 0 123.86 117.05   L 123.86 116.01   A 2.64 2.64 0.0 0 0 121.22 113.36   Z" fill="#ffffff"/>
<path class="icon-shape" d="   M 60.09 112.08   C 63.63 115.25 67.27 125.86 58.22 126.11   Q 55.43 126.18 44.58 126.04   C 36.10 125.93 35.96 118.51 37.54 112.37   C 38.40 109.00 41.44 108.55 44.58 108.90   Q 49.99 109.51 55.36 110.35   Q 58.75 110.89 60.09 112.08   Z   M 58.11 117.41   A 3.48 3.48 0.0 0 0 55.38 115.16   L 43.50 113.31   A 1.62 1.62 0.0 0 0 41.63 114.91   L 41.63 118.83   A 2.19 2.18 0.0 0 0 43.82 121.01   L 57.56 121.01   A 1.29 1.29 0.0 0 0 58.78 119.29   L 58.11 117.41   Z" fill="#b2b0b4"/>
<path class="icon-shape" d="   M 136.48 126.32   C 127.37 126.16 130.92 115.45 134.45 112.22   Q 135.78 111.01 139.19 110.43   Q 144.59 109.52 150.02 108.85   C 153.18 108.46 156.25 108.88 157.15 112.27   C 158.80 118.43 158.74 125.90 150.21 126.10   Q 139.29 126.36 136.48 126.32   Z   M 136.21 120.98   L 151.05 120.98   A 1.85 1.84 -90.0 0 0 152.89 119.13   L 152.89 114.60   A 1.22 1.22 0.0 0 0 151.50 113.39   L 139.14 115.16   A 2.31 2.31 0.0 0 0 137.47 116.29   L 135.49 119.72   A 0.84 0.84 0.0 0 0 136.21 120.98   Z" fill="#b2b0b4"/>
<path class="icon-shape" d="   M 58.11 117.41   L 58.78 119.29   A 1.29 1.29 0.0 0 1 57.56 121.01   L 43.82 121.01   A 2.19 2.18 -0.0 0 1 41.63 118.83   L 41.63 114.91   A 1.62 1.62 0.0 0 1 43.50 113.31   L 55.38 115.16   A 3.48 3.48 0.0 0 1 58.11 117.41   Z" fill="#ffffff"/>
<path class="icon-shape" d="   M 121.22 113.36   A 2.64 2.64 0.0 0 1 123.86 116.01   L 123.86 117.05   A 10.68 8.04 -89.9 0 1 115.80 127.71   L 78.84 127.65   A 10.68 8.04 -89.9 0 1 70.82 116.95   L 70.82 115.91   A 2.64 2.64 0.0 0 1 73.46 113.28   L 121.22 113.36   Z   M 118.70 118.32   L 75.96 118.32   A 0.10 0.10 0.0 0 0 75.86 118.42   L 75.86 118.44   A 4.48 4.08 -90.0 0 0 79.94 122.92   L 114.72 122.92   A 4.48 4.08 -90.0 0 0 118.80 118.44   L 118.80 118.42   A 0.10 0.10 0.0 0 0 118.70 118.32   Z" fill="#b2b0b4"/>
<path class="icon-shape" d="   M 136.21 120.98   A 0.84 0.84 0.0 0 1 135.49 119.72   L 137.47 116.29   A 2.31 2.31 0.0 0 1 139.14 115.16   L 151.50 113.39   A 1.22 1.22 0.0 0 1 152.89 114.60   L 152.89 119.13   A 1.85 1.84 90.0 0 1 151.05 120.98   L 136.21 120.98   Z" fill="#ffffff"/>
<path class="icon-shape" d="   M 118.70 118.32   A 0.10 0.10 0.0 0 1 118.80 118.42   L 118.80 118.44   A 4.48 4.08 90.0 0 1 114.72 122.92   L 79.94 122.92   A 4.48 4.08 90.0 0 1 75.86 118.44   L 75.86 118.42   A 0.10 0.10 0.0 0 1 75.96 118.32   L 118.70 118.32   Z" fill="#ffffff"/>
</g><g id="onState" style="display:none"><g fill="none" stroke-linecap="butt" stroke-width="2.00">
<path class="icon-shape" d="   M 0.00 76.86   Q 2.76 106.60 27.85 122.35" stroke="#fef6f6" vector-effect="non-scaling-stroke"/>
<path class="icon-shape" d="   M 27.85 122.35   Q 27.90 137.73 27.87 153.25   Q 27.86 159.69 34.14 161.75   A 3.50 3.38 53.6 0 0 35.14 161.92   Q 45.28 162.09 47.23 161.80   C 51.16 161.23 54.22 157.81 54.08 153.63   Q 54.06 153.30 53.92 149.90   A 0.77 0.77 0.0 0 1 54.69 149.10   L 139.91 149.10   A 0.74 0.74 0.0 0 1 140.65 149.84   L 140.65 155.41   A 1.61 1.44 -58.5 0 0 140.75 155.96   C 143.48 163.26 149.62 161.98 157.49 161.94   C 161.19 161.92 163.70 161.05 165.70 158.28   Q 166.84 156.70 166.83 151.52   Q 166.80 109.57 166.79 109.26   A 3.01 2.78 -56.8 0 0 166.65 108.43   Q 164.70 102.44 160.43 98.39   A 0.33 0.32 -22.8 0 1 160.66 97.83   C 164.44 97.88 168.24 98.42 170.72 97.04   C 175.37 94.44 176.24 87.69 171.73 84.88   C 169.17 83.29 163.69 83.97 159.14 83.97   A 2.15 2.14 -67.0 0 0 157.60 84.60   L 153.80 88.40   A 0.53 0.53 0.0 0 1 152.93 88.23   Q 149.01 78.55 145.46 69.02   Q 143.16 62.82 137.82 60.43   A 2.51 2.38 -31.3 0 0 136.80 60.21   L 111.11 60.20" stroke="#808080" vector-effect="non-scaling-stroke"/>
<path class="icon-shape" d="   M 111.11 60.20   Q 110.08 54.05 107.13 48.28" stroke="#fef6f6" vector-effect="non-scaling-stroke"/>
<path class="icon-shape" d="   M 107.13 48.28   L 128.48 48.29   A 2.10 2.10 0.0 0 1 130.28 49.34   L 132.48 53.15   A 1.44 1.44 0.0 0 0 134.33 53.74   C 137.05 52.50 135.94 50.03 135.04 47.81   Q 133.86 44.91 130.76 43.84   A 2.95 2.87 53.4 0 0 129.84 43.69   L 104.42 43.65" stroke="#808080" vector-effect="non-scaling-stroke"/>
<path class="icon-shape" d="   M 104.42 43.65   Q 93.72 27.06 76.65 20.72   C 40.23 7.20 3.31 31.95 0.00 70.03" stroke="#fef6f6" vector-effect="non-scaling-stroke"/>
<path class="icon-shape" d="   M 104.42 43.65   L 64.16 43.67   A 2.84 2.69 33.4 0 0 63.20 43.84   Q 59.66 45.13 58.54 48.85   C 58.03 50.52 57.48 51.70 58.61 53.02   A 2.09 1.69 44.2 0 0 61.58 53.29   Q 62.69 51.75 63.00 50.19   A 2.38 2.38 0.0 0 1 65.33 48.29   L 107.13 48.28" stroke="#7f7776" vector-effect="non-scaling-stroke"/>
<path class="icon-shape" d="   M 111.11 60.20   L 58.41 60.21   A 3.07 2.98 -51.6 0 0 57.64 60.31   Q 52.44 61.66 50.67 65.79   Q 46.33 75.91 41.80 87.94   A 0.82 0.82 0.0 0 1 40.45 88.23   L 36.60 84.38   A 1.19 1.16 -22.0 0 0 35.77 84.04   Q 31.86 84.03 27.97 83.89   Q 22.04 83.69 20.42 89.28   A 3.33 3.31 -39.1 0 0 20.30 90.42   Q 20.75 96.15 26.15 97.84   A 1.17 1.05 -33.9 0 0 26.57 97.90   L 33.86 97.83   A 0.35 0.35 0.0 0 1 34.11 98.43   Q 28.31 104.17 28.08 112.75   Q 27.95 117.48 27.85 122.35" stroke="#7f7776" vector-effect="non-scaling-stroke"/>
<path class="icon-shape" d="   M 110.72 90.79   L 147.67 90.78   A 0.74 0.73 -10.4 0 0 148.36 89.79   Q 144.04 78.56 140.66 69.89   Q 139.59 67.16 137.43 65.77   Q 135.77 64.70 132.37 64.72   Q 122.32 64.77 112.28 64.74" stroke="#808080" vector-effect="non-scaling-stroke"/>
<path class="icon-shape" d="   M 112.28 64.74   Q 87.08 64.68 61.84 64.76   C 58.08 64.77 55.73 65.35 54.37 68.87   Q 51.26 76.90 45.81 90.34   A 0.33 0.32 -79.0 0 0 46.11 90.79   L 110.72 90.79" stroke="#7f7776" vector-effect="non-scaling-stroke"/>
<path class="icon-shape" d="   M 112.28 64.74   C 113.63 73.75 112.62 81.71 110.72 90.79" stroke="#fef6f6" vector-effect="non-scaling-stroke"/>
<path class="icon-shape" d="   M 38.55 93.36   A 0.34 0.34 0.0 0 0 38.79 92.78   L 35.06 89.05   A 1.67 1.66 67.4 0 0 33.88 88.56   L 26.84 88.56   A 1.80 1.80 0.0 0 0 25.10 90.80   L 25.18 91.11   A 2.98 2.98 0.0 0 0 28.07 93.36   L 38.55 93.36" stroke="#808080" vector-effect="non-scaling-stroke"/>
<path class="icon-shape" d="   M 156.02 93.37   L 166.83 93.42   A 3.08 3.07 -82.6 0 0 169.82 91.11   L 169.91 90.79   A 1.85 1.85 0.0 0 0 168.12 88.47   L 160.86 88.44   A 1.73 1.72 -67.1 0 0 159.64 88.94   L 155.78 92.77   A 0.35 0.35 0.0 0 0 156.02 93.37" stroke="#808080" vector-effect="non-scaling-stroke"/>
<path class="icon-shape" d="   M 97.55 144.16   Q 138.45 144.20 142.74 144.23   Q 144.07 144.24 145.70 146.57   A 1.33 1.31 -63.0 0 1 145.94 147.33   L 145.94 154.58   A 2.35 2.34 -88.0 0 0 148.12 156.92   Q 152.71 157.24 158.53 157.06   C 161.23 156.97 162.21 155.71 162.12 153.06   Q 162.07 151.78 162.14 110.83   A 3.80 3.53 -55.0 0 0 162.00 109.82   C 160.31 104.17 156.14 99.97 151.21 95.97   A 1.56 1.52 -24.3 0 0 150.29 95.64   Q 148.35 95.59 97.59 95.55   Q 46.82 95.51 44.88 95.55   A 1.56 1.52 24.4 0 0 43.96 95.89   C 39.03 99.88 34.85 104.07 33.15 109.72   A 3.80 3.53 55.1 0 0 33.01 110.73   Q 33.01 151.68 32.96 152.96   C 32.87 155.61 33.85 156.87 36.55 156.96   Q 42.37 157.15 46.96 156.84   A 2.35 2.34 88.1 0 0 49.14 154.50   L 49.15 147.25   A 1.33 1.31 63.1 0 1 49.39 146.49   Q 51.03 144.17 52.36 144.15   Q 56.64 144.13 97.55 144.16" stroke="#808080" vector-effect="non-scaling-stroke"/>
<path class="icon-shape" d="   M 63.73 119.05   C 62.81 115.26 61.19 111.34 56.88 110.57   Q 50.65 109.44 43.62 108.80   C 37.47 108.22 37.02 112.87 36.75 117.72   C 36.46 122.92 39.31 125.97 44.44 126.13   Q 49.46 126.29 59.40 126.08   C 63.11 126.01 64.51 122.31 63.73 119.05" stroke="#808080" vector-effect="non-scaling-stroke"/>
<path class="icon-shape" d="   M 130.87 119.27   C 130.12 122.55 131.57 126.26 135.30 126.29   Q 145.30 126.39 150.35 126.17   C 155.50 125.95 158.34 122.85 157.99 117.63   C 157.66 112.75 157.16 108.08 150.98 108.73   Q 143.92 109.46 137.66 110.66   C 133.34 111.48 131.75 115.44 130.87 119.27" stroke="#808080" vector-effect="non-scaling-stroke"/>
<path class="icon-shape" d="   M 121.10 113.28   L 73.62 113.20   A 2.83 2.83 0.0 0 0 70.79 116.02   L 70.79 116.96   A 10.69 8.00 -89.9 0 0 78.77 127.67   L 115.91 127.73   A 10.69 8.00 -89.9 0 0 123.93 117.06   L 123.93 116.12   A 2.83 2.83 0.0 0 0 121.10 113.28" stroke="#808080" vector-effect="non-scaling-stroke"/>
<path class="icon-shape" d="   M 41.68 115.00   L 41.68 118.77   A 2.20 2.19 90.0 0 0 43.87 120.97   L 57.45 120.97   A 1.43 1.43 0.0 0 0 58.69 118.82   L 57.45 116.67   A 2.98 2.97 -10.5 0 0 55.33 115.22   L 43.54 113.39   A 1.63 1.61 -85.6 0 0 41.68 115.00" stroke="#808080" vector-effect="non-scaling-stroke"/>
<path class="icon-shape" d="   M 136.19 120.95   L 150.92 120.95   A 1.96 1.96 0.0 0 0 152.88 118.99   L 152.88 114.66   A 1.21 1.20 -4.1 0 0 151.50 113.47   L 139.09 115.22   A 2.09 2.08 10.9 0 0 137.56 116.25   L 135.52 119.78   A 0.78 0.78 0.0 0 0 136.19 120.95" stroke="#808080" vector-effect="non-scaling-stroke"/>
<path class="icon-shape" d="   M 97.34 122.88   Q 115.53 122.88 115.86 122.82   A 2.14 2.11 27.1 0 0 116.36 122.66   Q 118.26 121.77 118.73 118.84   A 0.43 0.43 0.0 0 0 118.30 118.34   Q 115.69 118.42 97.34 118.42   Q 78.99 118.42 76.38 118.34   A 0.43 0.43 0.0 0 0 75.94 118.84   Q 76.41 121.77 78.31 122.66   A 2.14 2.11 -27.1 0 0 78.82 122.82   Q 79.14 122.88 97.34 122.88" stroke="#808080" vector-effect="non-scaling-stroke"/>
</g>
<path class="icon-shape" d="   M 229.00 0.00   L 229.00 197.00   L 0.00 197.00   L 0.00 76.86   Q 2.76 106.60 27.85 122.35   Q 27.90 137.73 27.87 153.25   Q 27.86 159.69 34.14 161.75   A 3.50 3.38 53.6 0 0 35.14 161.92   Q 45.28 162.09 47.23 161.80   C 51.16 161.23 54.22 157.81 54.08 153.63   Q 54.06 153.30 53.92 149.90   A 0.77 0.77 0.0 0 1 54.69 149.10   L 139.91 149.10   A 0.74 0.74 0.0 0 1 140.65 149.84   L 140.65 155.41   A 1.61 1.44 -58.5 0 0 140.75 155.96   C 143.48 163.26 149.62 161.98 157.49 161.94   C 161.19 161.92 163.70 161.05 165.70 158.28   Q 166.84 156.70 166.83 151.52   Q 166.80 109.57 166.79 109.26   A 3.01 2.78 -56.8 0 0 166.65 108.43   Q 164.70 102.44 160.43 98.39   A 0.33 0.32 -22.8 0 1 160.66 97.83   C 164.44 97.88 168.24 98.42 170.72 97.04   C 175.37 94.44 176.24 87.69 171.73 84.88   C 169.17 83.29 163.69 83.97 159.14 83.97   A 2.15 2.14 -67.0 0 0 157.60 84.60   L 153.80 88.40   A 0.53 0.53 0.0 0 1 152.93 88.23   Q 149.01 78.55 145.46 69.02   Q 143.16 62.82 137.82 60.43   A 2.51 2.38 -31.3 0 0 136.80 60.21   L 111.11 60.20   Q 110.08 54.05 107.13 48.28   L 128.48 48.29   A 2.10 2.10 0.0 0 1 130.28 49.34   L 132.48 53.15   A 1.44 1.44 0.0 0 0 134.33 53.74   C 137.05 52.50 135.94 50.03 135.04 47.81   Q 133.86 44.91 130.76 43.84   A 2.95 2.87 53.4 0 0 129.84 43.69   L 104.42 43.65   Q 93.72 27.06 76.65 20.72   C 40.23 7.20 3.31 31.95 0.00 70.03   L 0.00 0.00   L 229.00 0.00   Z" fill="#ffffff"/>
<path class="icon-shape" d="   M 104.42 43.65   L 64.16 43.67   A 2.84 2.69 33.4 0 0 63.20 43.84   Q 59.66 45.13 58.54 48.85   C 58.03 50.52 57.48 51.70 58.61 53.02   A 2.09 1.69 44.2 0 0 61.58 53.29   Q 62.69 51.75 63.00 50.19   A 2.38 2.38 0.0 0 1 65.33 48.29   L 107.13 48.28   Q 110.08 54.05 111.11 60.20   L 58.41 60.21   A 3.07 2.98 -51.6 0 0 57.64 60.31   Q 52.44 61.66 50.67 65.79   Q 46.33 75.91 41.80 87.94   A 0.82 0.82 0.0 0 1 40.45 88.23   L 36.60 84.38   A 1.19 1.16 -22.0 0 0 35.77 84.04   Q 31.86 84.03 27.97 83.89   Q 22.04 83.69 20.42 89.28   A 3.33 3.31 -39.1 0 0 20.30 90.42   Q 20.75 96.15 26.15 97.84   A 1.17 1.05 -33.9 0 0 26.57 97.90   L 33.86 97.83   A 0.35 0.35 0.0 0 1 34.11 98.43   Q 28.31 104.17 28.08 112.75   Q 27.95 117.48 27.85 122.35   Q 2.76 106.60 0.00 76.86   L 0.00 70.03   C 3.31 31.95 40.23 7.20 76.65 20.72   Q 93.72 27.06 104.42 43.65   Z" fill="#fdedec"/>
<path class="icon-shape" d="   M 104.42 43.65   L 129.84 43.69   A 2.95 2.87 53.4 0 1 130.76 43.84   Q 133.86 44.91 135.04 47.81   C 135.94 50.03 137.05 52.50 134.33 53.74   A 1.44 1.44 0.0 0 1 132.48 53.15   L 130.28 49.34   A 2.10 2.10 0.0 0 0 128.48 48.29   L 107.13 48.28   L 65.33 48.29   A 2.38 2.38 0.0 0 0 63.00 50.19   Q 62.69 51.75 61.58 53.29   A 2.09 1.69 44.2 0 1 58.61 53.02   C 57.48 51.70 58.03 50.52 58.54 48.85   Q 59.66 45.13 63.20 43.84   A 2.84 2.69 33.4 0 1 64.16 43.67   L 104.42 43.65   Z" fill="#000000"/>
<path class="icon-shape" d="   M 111.11 60.20   L 136.80 60.21   A 2.51 2.38 -31.3 0 1 137.82 60.43   Q 143.16 62.82 145.46 69.02   Q 149.01 78.55 152.93 88.23   A 0.53 0.53 0.0 0 0 153.80 88.40   L 157.60 84.60   A 2.15 2.14 -67.0 0 1 159.14 83.97   C 163.69 83.97 169.17 83.29 171.73 84.88   C 176.24 87.69 175.37 94.44 170.72 97.04   C 168.24 98.42 164.44 97.88 160.66 97.83   A 0.33 0.32 -22.8 0 0 160.43 98.39   Q 164.70 102.44 166.65 108.43   A 3.01 2.78 -56.8 0 1 166.79 109.26   Q 166.80 109.57 166.83 151.52   Q 166.84 156.70 165.70 158.28   C 163.70 161.05 161.19 161.92 157.49 161.94   C 149.62 161.98 143.48 163.26 140.75 155.96   A 1.61 1.44 -58.5 0 1 140.65 155.41   L 140.65 149.84   A 0.74 0.74 0.0 0 0 139.91 149.10   L 54.69 149.10   A 0.77 0.77 0.0 0 0 53.92 149.90   Q 54.06 153.30 54.08 153.63   C 54.22 157.81 51.16 161.23 47.23 161.80   Q 45.28 162.09 35.14 161.92   A 3.50 3.38 53.6 0 1 34.14 161.75   Q 27.86 159.69 27.87 153.25   Q 27.90 137.73 27.85 122.35   Q 27.95 117.48 28.08 112.75   Q 28.31 104.17 34.11 98.43   A 0.35 0.35 0.0 0 0 33.86 97.83   L 26.57 97.90   A 1.17 1.05 -33.9 0 1 26.15 97.84   Q 20.75 96.15 20.30 90.42   A 3.33 3.31 -39.1 0 1 20.42 89.28   Q 22.04 83.69 27.97 83.89   Q 31.86 84.03 35.77 84.04   A 1.19 1.16 -22.0 0 1 36.60 84.38   L 40.45 88.23   A 0.82 0.82 0.0 0 0 41.80 87.94   Q 46.33 75.91 50.67 65.79   Q 52.44 61.66 57.64 60.31   A 3.07 2.98 -51.6 0 1 58.41 60.21   L 111.11 60.20   Z   M 110.72 90.79   L 147.67 90.78   A 0.74 0.73 -10.4 0 0 148.36 89.79   Q 144.04 78.56 140.66 69.89   Q 139.59 67.16 137.43 65.77   Q 135.77 64.70 132.37 64.72   Q 122.32 64.77 112.28 64.74   Q 87.08 64.68 61.84 64.76   C 58.08 64.77 55.73 65.35 54.37 68.87   Q 51.26 76.90 45.81 90.34   A 0.33 0.32 -79.0 0 0 46.11 90.79   L 110.72 90.79   Z   M 38.55 93.36   A 0.34 0.34 0.0 0 0 38.79 92.78   L 35.06 89.05   A 1.67 1.66 67.4 0 0 33.88 88.56   L 26.84 88.56   A 1.80 1.80 0.0 0 0 25.10 90.80   L 25.18 91.11   A 2.98 2.98 0.0 0 0 28.07 93.36   L 38.55 93.36   Z   M 156.02 93.37   L 166.83 93.42   A 3.08 3.07 -82.6 0 0 169.82 91.11   L 169.91 90.79   A 1.85 1.85 0.0 0 0 168.12 88.47   L 160.86 88.44   A 1.73 1.72 -67.1 0 0 159.64 88.94   L 155.78 92.77   A 0.35 0.35 0.0 0 0 156.02 93.37   Z   M 97.55 144.16   Q 138.45 144.20 142.74 144.23   Q 144.07 144.24 145.70 146.57   A 1.33 1.31 -63.0 0 1 145.94 147.33   L 145.94 154.58   A 2.35 2.34 -88.0 0 0 148.12 156.92   Q 152.71 157.24 158.53 157.06   C 161.23 156.97 162.21 155.71 162.12 153.06   Q 162.07 151.78 162.14 110.83   A 3.80 3.53 -55.0 0 0 162.00 109.82   C 160.31 104.17 156.14 99.97 151.21 95.97   A 1.56 1.52 -24.3 0 0 150.29 95.64   Q 148.35 95.59 97.59 95.55   Q 46.82 95.51 44.88 95.55   A 1.56 1.52 24.4 0 0 43.96 95.89   C 39.03 99.88 34.85 104.07 33.15 109.72   A 3.80 3.53 55.1 0 0 33.01 110.73   Q 33.01 151.68 32.96 152.96   C 32.87 155.61 33.85 156.87 36.55 156.96   Q 42.37 157.15 46.96 156.84   A 2.35 2.34 88.1 0 0 49.14 154.50   L 49.15 147.25   A 1.33 1.31 63.1 0 1 49.39 146.49   Q 51.03 144.17 52.36 144.15   Q 56.64 144.13 97.55 144.16   Z" fill="#000000"/>
<path class="icon-shape" d="   M 112.28 64.74   C 113.63 73.75 112.62 81.71 110.72 90.79   L 46.11 90.79   A 0.33 0.32 -79.0 0 1 45.81 90.34   Q 51.26 76.90 54.37 68.87   C 55.73 65.35 58.08 64.77 61.84 64.76   Q 87.08 64.68 112.28 64.74   Z" fill="#fdedec"/>
<path class="icon-shape" d="   M 110.72 90.79   C 112.62 81.71 113.63 73.75 112.28 64.74   Q 122.32 64.77 132.37 64.72   Q 135.77 64.70 137.43 65.77   Q 139.59 67.16 140.66 69.89   Q 144.04 78.56 148.36 89.79   A 0.74 0.73 -10.4 0 1 147.67 90.78   L 110.72 90.79   Z" fill="#ffffff"/>
<path class="icon-shape" d="   M 38.55 93.36   L 28.07 93.36   A 2.98 2.98 0.0 0 1 25.18 91.11   L 25.10 90.80   A 1.80 1.80 0.0 0 1 26.84 88.56   L 33.88 88.56   A 1.67 1.66 67.4 0 1 35.06 89.05   L 38.79 92.78   A 0.34 0.34 0.0 0 1 38.55 93.36   Z" fill="#ffffff"/>
<path class="icon-shape" d="   M 156.02 93.37   A 0.35 0.35 0.0 0 1 155.78 92.77   L 159.64 88.94   A 1.73 1.72 -67.1 0 1 160.86 88.44   L 168.12 88.47   A 1.85 1.85 0.0 0 1 169.91 90.79   L 169.82 91.11   A 3.08 3.07 -82.6 0 1 166.83 93.42   L 156.02 93.37   Z" fill="#ffffff"/>
<path class="icon-shape" d="   M 97.59 95.55   Q 148.35 95.59 150.29 95.64   A 1.56 1.52 -24.3 0 1 151.21 95.97   C 156.14 99.97 160.31 104.17 162.00 109.82   A 3.80 3.53 -55.0 0 1 162.14 110.83   Q 162.07 151.78 162.12 153.06   C 162.21 155.71 161.23 156.97 158.53 157.06   Q 152.71 157.24 148.12 156.92   A 2.35 2.34 -88.0 0 1 145.94 154.58   L 145.94 147.33   A 1.33 1.31 -63.0 0 0 145.70 146.57   Q 144.07 144.24 142.74 144.23   Q 138.45 144.20 97.55 144.16   Q 56.64 144.13 52.36 144.15   Q 51.03 144.17 49.39 146.49   A 1.33 1.31 63.1 0 0 49.15 147.25   L 49.14 154.50   A 2.35 2.34 88.1 0 1 46.96 156.84   Q 42.37 157.15 36.55 156.96   C 33.85 156.87 32.87 155.61 32.96 152.96   Q 33.01 151.68 33.01 110.73   A 3.80 3.53 55.1 0 1 33.15 109.72   C 34.85 104.07 39.03 99.88 43.96 95.89   A 1.56 1.52 24.4 0 1 44.88 95.55   Q 46.82 95.51 97.59 95.55   Z   M 63.73 119.05   C 62.81 115.26 61.19 111.34 56.88 110.57   Q 50.65 109.44 43.62 108.80   C 37.47 108.22 37.02 112.87 36.75 117.72   C 36.46 122.92 39.31 125.97 44.44 126.13   Q 49.46 126.29 59.40 126.08   C 63.11 126.01 64.51 122.31 63.73 119.05   Z   M 130.87 119.27   C 130.12 122.55 131.57 126.26 135.30 126.29   Q 145.30 126.39 150.35 126.17   C 155.50 125.95 158.34 122.85 157.99 117.63   C 157.66 112.75 157.16 108.08 150.98 108.73   Q 143.92 109.46 137.66 110.66   C 133.34 111.48 131.75 115.44 130.87 119.27   Z   M 121.10 113.28   L 73.62 113.20   A 2.83 2.83 0.0 0 0 70.79 116.02   L 70.79 116.96   A 10.69 8.00 -89.9 0 0 78.77 127.67   L 115.91 127.73   A 10.69 8.00 -89.9 0 0 123.93 117.06   L 123.93 116.12   A 2.83 2.83 0.0 0 0 121.10 113.28   Z" fill="#ffffff"/>
<path class="icon-shape" d="   M 63.73 119.05   C 64.51 122.31 63.11 126.01 59.40 126.08   Q 49.46 126.29 44.44 126.13   C 39.31 125.97 36.46 122.92 36.75 117.72   C 37.02 112.87 37.47 108.22 43.62 108.80   Q 50.65 109.44 56.88 110.57   C 61.19 111.34 62.81 115.26 63.73 119.05   Z   M 41.68 115.00   L 41.68 118.77   A 2.20 2.19 90.0 0 0 43.87 120.97   L 57.45 120.97   A 1.43 1.43 0.0 0 0 58.69 118.82   L 57.45 116.67   A 2.98 2.97 -10.5 0 0 55.33 115.22   L 43.54 113.39   A 1.63 1.61 -85.6 0 0 41.68 115.00   Z" fill="#000000"/>
<path class="icon-shape" d="   M 135.30 126.29   C 131.57 126.26 130.12 122.55 130.87 119.27   C 131.75 115.44 133.34 111.48 137.66 110.66   Q 143.92 109.46 150.98 108.73   C 157.16 108.08 157.66 112.75 157.99 117.63   C 158.34 122.85 155.50 125.95 150.35 126.17   Q 145.30 126.39 135.30 126.29   Z   M 136.19 120.95   L 150.92 120.95   A 1.96 1.96 0.0 0 0 152.88 118.99   L 152.88 114.66   A 1.21 1.20 -4.1 0 0 151.50 113.47   L 139.09 115.22   A 2.09 2.08 10.9 0 0 137.56 116.25   L 135.52 119.78   A 0.78 0.78 0.0 0 0 136.19 120.95   Z" fill="#000000"/>
<path class="icon-shape" d="   M 121.10 113.28   A 2.83 2.83 0.0 0 1 123.93 116.12   L 123.93 117.06   A 10.69 8.00 -89.9 0 1 115.91 127.73   L 78.77 127.67   A 10.69 8.00 -89.9 0 1 70.79 116.96   L 70.79 116.02   A 2.83 2.83 0.0 0 1 73.62 113.20   L 121.10 113.28   Z   M 97.34 122.88   Q 115.53 122.88 115.86 122.82   A 2.14 2.11 27.1 0 0 116.36 122.66   Q 118.26 121.77 118.73 118.84   A 0.43 0.43 0.0 0 0 118.30 118.34   Q 115.69 118.42 97.34 118.42   Q 78.99 118.42 76.38 118.34   A 0.43 0.43 0.0 0 0 75.94 118.84   Q 76.41 121.77 78.31 122.66   A 2.14 2.11 -27.1 0 0 78.82 122.82   Q 79.14 122.88 97.34 122.88   Z" fill="#000000"/>
<path class="icon-shape" d="   M 41.68 115.00   A 1.63 1.61 -85.6 0 1 43.54 113.39   L 55.33 115.22   A 2.98 2.97 -10.5 0 1 57.45 116.67   L 58.69 118.82   A 1.43 1.43 0.0 0 1 57.45 120.97   L 43.87 120.97   A 2.20 2.19 90.0 0 1 41.68 118.77   L 41.68 115.00   Z" fill="#ffffff"/>
<path class="icon-shape" d="   M 136.19 120.95   A 0.78 0.78 0.0 0 1 135.52 119.78   L 137.56 116.25   A 2.09 2.08 10.9 0 1 139.09 115.22   L 151.50 113.47   A 1.21 1.20 -4.1 0 1 152.88 114.66   L 152.88 118.99   A 1.96 1.96 0.0 0 1 150.92 120.95   L 136.19 120.95   Z" fill="#ffffff"/>
<path class="icon-shape" d="   M 97.34 118.42   Q 115.69 118.42 118.30 118.34   A 0.43 0.43 0.0 0 1 118.73 118.84   Q 118.26 121.77 116.36 122.66   A 2.14 2.11 27.1 0 1 115.86 122.82   Q 115.53 122.88 97.34 122.88   Q 79.14 122.88 78.82 122.82   A 2.14 2.11 -27.1 0 1 78.31 122.66   Q 76.41 121.77 75.94 118.84   A 0.43 0.43 0.0 0 1 76.38 118.34   Q 78.99 118.42 97.34 118.42   Z" fill="#ffffff"/>
</g></svg>