<?xml version="1.0" encoding="UTF-8" standalone="no"?>
<!DOCTYPE svg PUBLIC "-//W3C//DTD SVG 1.1//EN" "http://www.w3.org/Graphics/SVG/1.1/DTD/svg11.dtd">
<svg xmlns="http://www.w3.org/2000/svg" version="1.1" viewBox="0.00 0.00 129.00 136.00">
<path fill="#000000" d="
  M 54.96 82.97
  Q 88.61 82.15 94.56 81.86
  Q 100.64 81.56 103.21 82.93
  C 113.09 88.17 110.83 100.55 101.02 104.16
  A 0.72 0.72 0.0 0 0 100.55 104.86
  Q 100.63 107.42 100.59 110.03
  Q 100.55 113.10 97.75 114.97
  Q 96.47 115.83 92.09 115.82
  Q 79.20 115.79 45.02 115.80
  C 36.88 115.80 38.28 109.02 38.05 103.52
  A 1.06 1.05 15.5 0 0 37.56 102.67
  C 32.52 99.46 32.08 94.98 30.82 88.07
  Q 22.96 44.98 20.31 30.58
  Q 19.46 25.94 20.10 23.95
  C 21.80 18.74 25.58 18.24 31.01 18.20
  Q 36.56 18.16 39.51 22.09
  Q 41.33 24.53 41.74 31.29
  Q 42.17 38.41 42.59 43.29
  A 7.30 7.25 28.4 0 0 43.46 46.17
  C 47.69 53.92 51.36 61.40 52.87 69.60
  Q 53.84 74.87 54.47 82.53
  A 0.47 0.47 0.0 0 0 54.96 82.97
  Z
  M 50.73 83.03
  Q 50.67 78.19 49.48 71.10
  Q 48.40 64.69 46.18 59.64
  Q 43.57 53.69 40.81 48.88
  A 14.01 13.74 -65.1 0 1 39.17 44.27
  Q 38.30 39.02 38.17 30.98
  C 38.09 26.75 37.04 22.36 32.49 21.85
  C 28.00 21.34 22.39 21.89 23.47 28.01
  Q 25.49 39.53 35.73 94.87
  A 3.35 3.16 -63.9 0 0 35.95 95.58
  C 37.95 100.11 41.25 101.22 46.33 101.21
  Q 66.96 101.19 98.05 101.20
  A 3.21 3.17 38.2 0 0 98.76 101.12
  Q 102.61 100.28 104.73 97.29
  Q 106.92 94.22 106.04 91.56
  Q 103.96 85.27 97.03 85.43
  Q 78.29 85.88 47.90 86.81
  A 1.60 1.59 -89.7 0 1 46.26 85.15
  L 46.26 84.93
  A 1.77 1.77 0.0 0 1 48.07 83.23
  Q 50.73 83.28 50.73 83.03
  Z
  M 97.01 104.63
  L 41.79 104.53
  A 0.29 0.29 0.0 0 0 41.50 104.82
  L 41.49 108.78
  A 3.74 3.57 0.1 0 0 45.22 112.36
  L 93.54 112.44
  A 3.74 3.57 0.1 0 0 97.29 108.88
  L 97.30 104.92
  A 0.29 0.29 0.0 0 0 97.01 104.63
  Z"
/>
<path fill="#000000" d="
  M 104.66 52.71
  Q 104.67 54.80 102.79 56.54
  Q 96.08 62.76 91.46 67.17
  C 88.81 69.72 86.23 71.06 83.75 67.64
  A 1.02 0.98 28.5 0 1 83.57 67.07
  L 83.57 61.06
  A 0.37 0.36 89.2 0 0 83.20 60.69
  Q 76.49 60.91 66.51 60.81
  C 61.38 60.76 61.43 56.81 61.41 52.91
  C 61.39 49.00 61.31 45.05 66.44 44.96
  Q 76.42 44.77 83.13 44.93
  A 0.37 0.36 -89.8 0 0 83.50 44.55
  L 83.44 38.54
  A 1.02 0.98 -29.0 0 1 83.62 37.97
  C 86.07 34.53 88.66 35.85 91.33 38.37
  Q 95.99 42.74 102.76 48.90
  Q 104.65 50.62 104.66 52.71
  Z
  M 65.15 52.82
  Q 65.14 56.19 65.17 56.39
  A 0.76 0.75 85.3 0 0 65.93 57.03
  Q 68.51 56.99 82.82 56.96
  C 85.15 56.96 86.75 57.27 87.08 59.72
  Q 87.30 61.34 87.03 65.16
  A 0.47 0.47 0.0 0 0 87.82 65.54
  L 101.02 53.17
  A 0.41 0.33 79.1 0 0 101.14 52.96
  Q 101.15 52.91 101.15 52.84
  Q 101.15 52.76 101.14 52.71
  A 0.41 0.33 -79.0 0 0 101.02 52.50
  L 87.83 40.12
  A 0.47 0.47 0.0 0 0 87.04 40.50
  Q 87.31 44.32 87.09 45.94
  C 86.75 48.39 85.15 48.69 82.82 48.69
  Q 68.51 48.65 65.93 48.60
  A 0.76 0.75 -85.3 0 0 65.18 49.25
  Q 65.15 49.44 65.15 52.82
  Z"
/>
<circle fill="#000000" cx="74.48" cy="93.22" r="2.44"/>
<circle fill="#000000" cx="84.38" cy="93.22" r="2.46"/>
<circle fill="#000000" cx="94.34" cy="93.24" r="2.44"/>
</svg>
