<?xml version="1.0" encoding="UTF-8" standalone="no"?>
<!DOCTYPE svg PUBLIC "-//W3C//DTD SVG 1.1//EN" "http://www.w3.org/Graphics/SVG/1.1/DTD/svg11.dtd">
<svg xmlns="http://www.w3.org/2000/svg" version="1.1" viewBox="0.00 0.00 129.00 136.00">
<path fill="#000000" d="
  M 111.47 92.26
  C 109.62 98.07 104.01 102.04 97.85 100.62
  Q 91.26 99.10 88.87 92.14
  A 0.65 0.64 -9.5 0 0 88.26 91.71
  L 42.71 91.71
  A 0.45 0.44 7.7 0 0 42.28 92.03
  C 40.76 97.50 35.38 101.51 29.67 100.84
  C 24.80 100.26 21.48 96.89 19.72 92.22
  A 0.82 0.81 -9.2 0 0 18.99 91.70
  C 16.76 91.65 13.08 92.10 11.39 91.37
  C 7.91 89.87 6.96 87.37 7.02 83.52
  Q 7.06 80.81 7.04 66.26
  A 12.92 12.69 55.9 0 1 7.88 61.69
  Q 10.02 56.09 12.88 48.61
  Q 14.09 45.46 16.79 43.83
  Q 18.74 42.65 22.87 42.73
  Q 33.48 42.94 66.85 42.81
  A 5.06 4.77 -36.0 0 1 68.10 42.97
  Q 74.49 44.65 78.91 48.36
  Q 83.95 52.60 93.27 60.49
  Q 95.85 62.67 98.43 63.13
  Q 103.92 64.12 109.35 65.05
  C 116.78 66.34 120.62 68.71 122.46 75.81
  Q 124.24 82.67 123.53 88.08
  A 2.05 2.03 -22.7 0 1 123.12 89.07
  C 120.36 92.75 117.26 91.74 112.27 91.68
  A 0.84 0.82 -80.5 0 0 111.47 92.26
  Z
  M 112.30 87.97
  L 118.41 87.97
  A 1.18 1.17 -89.8 0 0 119.58 86.80
  C 119.63 80.96 119.38 71.74 113.11 70.00
  Q 108.66 68.76 100.81 67.71
  Q 94.66 66.89 90.45 63.28
  Q 78.04 52.65 76.81 51.66
  Q 74.50 49.80 72.65 48.89
  Q 69.09 47.12 67.86 47.12
  Q 54.72 47.05 19.53 47.08
  A 1.76 1.74 -58.8 0 0 18.70 47.29
  Q 17.29 48.02 16.70 49.48
  Q 13.80 56.67 10.99 64.33
  A 3.59 3.49 58.2 0 0 10.79 65.24
  Q 10.62 67.42 10.69 84.28
  C 10.70 88.84 15.26 87.87 18.60 88.13
  A 0.74 0.74 0.0 0 0 19.38 87.55
  Q 20.79 80.97 26.87 78.36
  A 0.44 0.10 -31.7 0 1 26.96 78.33
  L 29.63 77.63
  A 0.86 0.85 82.0 0 0 30.27 76.77
  Q 30.12 70.93 30.25 58.53
  C 30.29 54.68 33.54 53.33 37.23 53.38
  Q 44.18 53.48 63.68 53.40
  C 73.90 53.36 81.07 58.34 86.20 67.09
  C 87.54 69.38 86.65 70.41 84.56 71.41
  A 0.70 0.63 29.7 0 1 84.28 71.47
  L 60.62 71.47
  A 0.44 0.43 90.0 0 0 60.19 71.91
  L 60.19 87.31
  A 0.64 0.64 0.0 0 0 60.83 87.95
  L 87.88 87.95
  A 0.72 0.72 0.0 0 0 88.58 87.41
  Q 90.19 81.10 95.48 78.73
  C 102.63 75.53 110.20 80.15 111.79 87.56
  A 0.52 0.52 0.0 0 0 112.30 87.97
  Z
  M 81.16 67.68
  A 0.47 0.47 0.0 0 0 81.54 66.94
  Q 73.73 55.64 60.62 57.57
  A 0.55 0.55 0.0 0 0 60.15 58.11
  L 60.15 67.07
  A 0.61 0.60 -90.0 0 0 60.75 67.68
  L 81.16 67.68
  Z
  M 43.19 87.96
  L 55.63 87.96
  A 0.66 0.66 0.0 0 0 56.29 87.30
  L 56.29 58.08
  A 0.55 0.54 -0.0 0 0 55.74 57.54
  L 34.90 57.54
  A 0.58 0.57 0.0 0 0 34.32 58.11
  L 34.32 77.52
  A 0.88 0.86 11.1 0 0 34.87 78.32
  Q 41.19 80.74 42.70 87.57
  A 0.50 0.49 -5.6 0 0 43.19 87.96
  Z
  M 38.66 89.25
  A 7.64 7.64 0.0 0 0 31.02 81.61
  A 7.64 7.64 0.0 0 0 23.38 89.25
  A 7.64 7.64 0.0 0 0 31.02 96.89
  A 7.64 7.64 0.0 0 0 38.66 89.25
  Z
  M 107.80 89.29
  A 7.62 7.62 0.0 0 0 100.18 81.67
  A 7.62 7.62 0.0 0 0 92.56 89.29
  A 7.62 7.62 0.0 0 0 100.18 96.91
  A 7.62 7.62 0.0 0 0 107.80 89.29
  Z"
/>
</svg>
