<?xml version="1.0" encoding="UTF-8" standalone="no"?>
<!DOCTYPE svg PUBLIC "-//W3C//DTD SVG 1.1//EN" "http://www.w3.org/Graphics/SVG/1.1/DTD/svg11.dtd">
<svg xmlns="http://www.w3.org/2000/svg" version="1.1" viewBox="0.00 0.00 209.00 212.00">
<g stroke-width="2.00" fill="none" stroke-linecap="butt">
<path stroke="#808080" vector-effect="non-scaling-stroke" d="
  M 72.23 135.02
  Q 79.72 147.21 94.21 148.02
  A 0.64 0.64 0.0 0 1 94.82 148.67
  Q 94.73 163.63 94.87 164.74
  Q 95.10 166.52 97.37 168.85
  A 1.34 1.33 23.1 0 1 97.75 169.78
  L 97.75 180.23
  A 1.90 1.82 37.3 0 0 97.84 180.80
  C 99.00 184.36 102.45 186.49 105.77 188.60
  A 2.52 2.50 46.0 0 0 108.33 188.66
  C 111.36 186.94 116.24 183.73 116.48 180.21
  Q 116.61 178.38 116.52 169.92
  A 1.47 1.46 -23.1 0 1 116.95 168.86
  Q 119.27 166.48 119.42 164.76
  Q 119.62 162.55 119.51 148.83
  A 0.66 0.66 0.0 0 1 120.12 148.17
  Q 134.72 146.90 142.00 135.48
  Q 145.11 130.60 146.81 118.91
  C 149.97 97.29 150.40 74.88 145.89 53.65
  C 143.10 40.53 136.99 30.74 122.73 28.31
  Q 117.07 27.35 103.05 27.78"
/>
<path stroke="#fef6f6" vector-effect="non-scaling-stroke" d="
  M 103.05 27.78
  C 85.60 20.52 65.67 21.64 49.73 31.50
  C 16.90 51.82 14.41 96.90 42.39 122.12
  C 49.63 128.65 61.85 134.94 72.23 135.02"
/>
<path stroke="#7f7777" vector-effect="non-scaling-stroke" d="
  M 103.05 27.78
  Q 95.13 27.49 90.52 28.54
  C 77.17 31.58 71.40 40.67 68.71 53.48
  C 64.54 73.32 64.58 93.94 67.01 114.27
  C 67.93 121.95 68.86 129.28 72.23 135.02"
/>
<path stroke="#808080" vector-effect="non-scaling-stroke" d="
  M 107.12 143.80
  Q 112.27 143.81 119.97 143.10
  Q 131.65 142.02 137.53 133.09
  Q 140.66 128.33 142.06 117.27
  C 144.67 96.66 145.24 76.01 141.27 56.01
  Q 140.00 49.59 138.72 46.73
  Q 133.01 34.00 119.93 33.10
  Q 115.19 32.78 107.33 32.77
  Q 99.47 32.75 94.73 33.06
  Q 81.64 33.90 75.88 46.61
  Q 74.59 49.47 73.30 55.88
  C 69.25 75.87 69.75 96.52 72.28 117.14
  Q 73.64 128.20 76.75 132.98
  Q 82.60 141.93 94.27 143.05
  Q 101.97 143.80 107.12 143.80"
/>
<path stroke="#808080" vector-effect="non-scaling-stroke" d="
  M 99.89 149.02
  L 99.89 162.89
  A 1.62 1.60 -62.5 0 0 100.17 163.80
  Q 102.77 167.64 102.82 169.02
  Q 102.91 171.34 102.86 178.93
  A 2.42 2.40 -70.2 0 0 103.72 180.78
  L 104.28 181.30
  A 0.39 0.39 0.0 0 0 104.94 181.01
  L 104.94 149.00
  A 0.23 0.22 0.0 0 0 104.71 148.78
  L 100.13 148.78
  A 0.24 0.24 0.0 0 0 99.89 149.02"
/>
<path stroke="#808080" vector-effect="non-scaling-stroke" d="
  M 110.55 180.50
  Q 111.42 180.23 111.41 179.16
  C 111.33 172.65 110.66 168.75 114.19 163.97
  A 1.59 1.58 -26.9 0 0 114.50 163.03
  L 114.50 149.00
  A 0.24 0.23 0.0 0 0 114.26 148.77
  L 110.37 148.77
  A 0.25 0.25 0.0 0 0 110.12 149.02
  L 110.12 180.19
  A 0.33 0.33 0.0 0 0 110.55 180.50"
/>
<path stroke="#808080" vector-effect="non-scaling-stroke" d="
  M 115.38 43.15
  A 2.06 2.06 0.0 0 0 113.32 41.09
  L 102.14 41.09
  A 2.06 2.06 0.0 0 0 100.08 43.15
  L 100.08 43.83
  A 2.06 2.06 0.0 0 0 102.14 45.89
  L 113.32 45.89
  A 2.06 2.06 0.0 0 0 115.38 43.83
  L 115.38 43.15"
/>
<path stroke="#808080" vector-effect="non-scaling-stroke" d="
  M 106.96 135.48
  C 117.72 135.54 127.07 135.90 131.37 124.11
  Q 132.97 119.73 133.51 114.52
  Q 135.75 92.98 134.54 72.25
  C 134.00 62.96 129.99 55.94 120.20 54.66
  Q 114.82 53.96 107.46 53.92
  Q 100.10 53.87 94.71 54.51
  C 84.90 55.67 80.81 62.64 80.16 71.92
  Q 78.69 92.63 80.67 114.20
  Q 81.15 119.42 82.70 123.81
  C 86.85 135.66 96.21 135.41 106.96 135.48"
/>
<path stroke="#7f7777" vector-effect="non-scaling-stroke" d="
  M 84.78 80.95
  L 129.82 80.87
  A 0.42 0.42 0.0 0 0 130.24 80.45
  L 130.22 72.19
  A 13.48 13.28 -0.1 0 0 116.72 58.93
  L 97.80 58.97
  A 13.48 13.28 -0.1 0 0 84.34 72.27
  L 84.36 80.53
  A 0.42 0.42 0.0 0 0 84.78 80.95"
/>
<path stroke="#7f7777" vector-effect="non-scaling-stroke" d="
  M 84.35 105.95
  A 0.34 0.34 0.0 0 0 84.69 106.29
  L 129.78 106.29
  A 0.34 0.34 0.0 0 0 130.12 105.95
  L 130.12 86.18
  A 0.34 0.34 0.0 0 0 129.78 85.84
  L 84.69 85.84
  A 0.34 0.34 0.0 0 0 84.35 86.18
  L 84.35 105.95"
/>
<path stroke="#808080" vector-effect="non-scaling-stroke" d="
  M 104.35 130.82
  Q 107.49 130.90 114.73 130.77
  C 126.14 130.57 128.83 121.08 129.40 111.76
  A 0.72 0.71 -89.3 0 0 128.66 111.00
  L 126.38 111.10"
/>
<path stroke="#7f7777" vector-effect="non-scaling-stroke" d="
  M 126.38 111.10
  L 85.75 111.12
  A 0.82 0.82 0.0 0 0 84.93 112.00
  C 85.40 119.13 86.91 127.25 94.46 129.80
  Q 98.54 131.19 104.35 130.82"
/>
<path stroke="#fef6f6" vector-effect="non-scaling-stroke" d="
  M 126.38 111.10
  Q 122.63 117.06 117.18 121.10"
/>
<path stroke="#7f7777" vector-effect="non-scaling-stroke" d="
  M 117.18 121.10
  C 116.78 119.45 115.98 118.61 114.17 118.63
  Q 106.87 118.70 99.51 118.64
  A 2.18 2.17 -89.3 0 0 97.31 120.80
  L 97.31 120.84
  A 2.11 2.10 0.3 0 0 99.41 122.95
  L 114.72 123.05"
/>
<path stroke="#fef6f6" vector-effect="non-scaling-stroke" d="
  M 114.72 123.05
  Q 110.23 127.50 104.35 130.82"
/>
<path stroke="#808080" vector-effect="non-scaling-stroke" d="
  M 114.72 123.05
  Q 116.04 123.04 117.18 121.10"
/>
<path stroke="#7f7777" vector-effect="non-scaling-stroke" d="
  M 117.0802 70.6132
  A 2.27 2.27 0.0 0 0 114.8181 68.3353
  L 100.3382 68.2847
  A 2.27 2.27 0.0 0 0 98.0603 70.5468
  L 98.0598 70.6868
  A 2.27 2.27 0.0 0 0 100.3219 72.9647
  L 114.8018 73.0153
  A 2.27 2.27 0.0 0 0 117.0797 70.7532
  L 117.0802 70.6132"
/>
<path stroke="#7f7777" vector-effect="non-scaling-stroke" d="
  M 117.1695 96.4599
  A 2.24 2.24 0.0 0 0 114.9178 94.2317
  L 100.2780 94.3084
  A 2.24 2.24 0.0 0 0 98.0498 96.5601
  L 98.0505 96.7001
  A 2.24 2.24 0.0 0 0 100.3022 98.9283
  L 114.9420 98.8516
  A 2.24 2.24 0.0 0 0 117.1702 96.5999
  L 117.1695 96.4599"
/>
</g>
<path fill="#ffffff" d="
  M 209.00 0.00
  L 209.00 212.00
  L 0.00 212.00
  L 0.00 0.00
  L 209.00 0.00
  Z
  M 72.23 135.02
  Q 79.72 147.21 94.21 148.02
  A 0.64 0.64 0.0 0 1 94.82 148.67
  Q 94.73 163.63 94.87 164.74
  Q 95.10 166.52 97.37 168.85
  A 1.34 1.33 23.1 0 1 97.75 169.78
  L 97.75 180.23
  A 1.90 1.82 37.3 0 0 97.84 180.80
  C 99.00 184.36 102.45 186.49 105.77 188.60
  A 2.52 2.50 46.0 0 0 108.33 188.66
  C 111.36 186.94 116.24 183.73 116.48 180.21
  Q 116.61 178.38 116.52 169.92
  A 1.47 1.46 -23.1 0 1 116.95 168.86
  Q 119.27 166.48 119.42 164.76
  Q 119.62 162.55 119.51 148.83
  A 0.66 0.66 0.0 0 1 120.12 148.17
  Q 134.72 146.90 142.00 135.48
  Q 145.11 130.60 146.81 118.91
  C 149.97 97.29 150.40 74.88 145.89 53.65
  C 143.10 40.53 136.99 30.74 122.73 28.31
  Q 117.07 27.35 103.05 27.78
  C 85.60 20.52 65.67 21.64 49.73 31.50
  C 16.90 51.82 14.41 96.90 42.39 122.12
  C 49.63 128.65 61.85 134.94 72.23 135.02
  Z"
/>
<path fill="#fdedec" d="
  M 103.05 27.78
  Q 95.13 27.49 90.52 28.54
  C 77.17 31.58 71.40 40.67 68.71 53.48
  C 64.54 73.32 64.58 93.94 67.01 114.27
  C 67.93 121.95 68.86 129.28 72.23 135.02
  C 61.85 134.94 49.63 128.65 42.39 122.12
  C 14.41 96.90 16.90 51.82 49.73 31.50
  C 65.67 21.64 85.60 20.52 103.05 27.78
  Z"
/>
<path fill="#010101" d="
  M 103.05 27.78
  Q 117.07 27.35 122.73 28.31
  C 136.99 30.74 143.10 40.53 145.89 53.65
  C 150.40 74.88 149.97 97.29 146.81 118.91
  Q 145.11 130.60 142.00 135.48
  Q 134.72 146.90 120.12 148.17
  A 0.66 0.66 0.0 0 0 119.51 148.83
  Q 119.62 162.55 119.42 164.76
  Q 119.27 166.48 116.95 168.86
  A 1.47 1.46 -23.1 0 0 116.52 169.92
  Q 116.61 178.38 116.48 180.21
  C 116.24 183.73 111.36 186.94 108.33 188.66
  A 2.52 2.50 46.0 0 1 105.77 188.60
  C 102.45 186.49 99.00 184.36 97.84 180.80
  A 1.90 1.82 37.3 0 1 97.75 180.23
  L 97.75 169.78
  A 1.34 1.33 23.1 0 0 97.37 168.85
  Q 95.10 166.52 94.87 164.74
  Q 94.73 163.63 94.82 148.67
  A 0.64 0.64 0.0 0 0 94.21 148.02
  Q 79.72 147.21 72.23 135.02
  C 68.86 129.28 67.93 121.95 67.01 114.27
  C 64.58 93.94 64.54 73.32 68.71 53.48
  C 71.40 40.67 77.17 31.58 90.52 28.54
  Q 95.13 27.49 103.05 27.78
  Z
  M 107.12 143.80
  Q 112.27 143.81 119.97 143.10
  Q 131.65 142.02 137.53 133.09
  Q 140.66 128.33 142.06 117.27
  C 144.67 96.66 145.24 76.01 141.27 56.01
  Q 140.00 49.59 138.72 46.73
  Q 133.01 34.00 119.93 33.10
  Q 115.19 32.78 107.33 32.77
  Q 99.47 32.75 94.73 33.06
  Q 81.64 33.90 75.88 46.61
  Q 74.59 49.47 73.30 55.88
  C 69.25 75.87 69.75 96.52 72.28 117.14
  Q 73.64 128.20 76.75 132.98
  Q 82.60 141.93 94.27 143.05
  Q 101.97 143.80 107.12 143.80
  Z
  M 99.89 149.02
  L 99.89 162.89
  A 1.62 1.60 -62.5 0 0 100.17 163.80
  Q 102.77 167.64 102.82 169.02
  Q 102.91 171.34 102.86 178.93
  A 2.42 2.40 -70.2 0 0 103.72 180.78
  L 104.28 181.30
  A 0.39 0.39 0.0 0 0 104.94 181.01
  L 104.94 149.00
  A 0.23 0.22 0.0 0 0 104.71 148.78
  L 100.13 148.78
  A 0.24 0.24 0.0 0 0 99.89 149.02
  Z
  M 110.55 180.50
  Q 111.42 180.23 111.41 179.16
  C 111.33 172.65 110.66 168.75 114.19 163.97
  A 1.59 1.58 -26.9 0 0 114.50 163.03
  L 114.50 149.00
  A 0.24 0.23 0.0 0 0 114.26 148.77
  L 110.37 148.77
  A 0.25 0.25 0.0 0 0 110.12 149.02
  L 110.12 180.19
  A 0.33 0.33 0.0 0 0 110.55 180.50
  Z"
/>
<path fill="#ffffff" d="
  M 107.33 32.77
  Q 115.19 32.78 119.93 33.10
  Q 133.01 34.00 138.72 46.73
  Q 140.00 49.59 141.27 56.01
  C 145.24 76.01 144.67 96.66 142.06 117.27
  Q 140.66 128.33 137.53 133.09
  Q 131.65 142.02 119.97 143.10
  Q 112.27 143.81 107.12 143.80
  Q 101.97 143.80 94.27 143.05
  Q 82.60 141.93 76.75 132.98
  Q 73.64 128.20 72.28 117.14
  C 69.75 96.52 69.25 75.87 73.30 55.88
  Q 74.59 49.47 75.88 46.61
  Q 81.64 33.90 94.73 33.06
  Q 99.47 32.75 107.33 32.77
  Z
  M 115.38 43.15
  A 2.06 2.06 0.0 0 0 113.32 41.09
  L 102.14 41.09
  A 2.06 2.06 0.0 0 0 100.08 43.15
  L 100.08 43.83
  A 2.06 2.06 0.0 0 0 102.14 45.89
  L 113.32 45.89
  A 2.06 2.06 0.0 0 0 115.38 43.83
  L 115.38 43.15
  Z
  M 106.96 135.48
  C 117.72 135.54 127.07 135.90 131.37 124.11
  Q 132.97 119.73 133.51 114.52
  Q 135.75 92.98 134.54 72.25
  C 134.00 62.96 129.99 55.94 120.20 54.66
  Q 114.82 53.96 107.46 53.92
  Q 100.10 53.87 94.71 54.51
  C 84.90 55.67 80.81 62.64 80.16 71.92
  Q 78.69 92.63 80.67 114.20
  Q 81.15 119.42 82.70 123.81
  C 86.85 135.66 96.21 135.41 106.96 135.48
  Z"
/>
<rect fill="#010101" x="100.08" y="41.09" width="15.30" height="4.80" rx="2.06"/>
<path fill="#010101" d="
  M 107.46 53.92
  Q 114.82 53.96 120.20 54.66
  C 129.99 55.94 134.00 62.96 134.54 72.25
  Q 135.75 92.98 133.51 114.52
  Q 132.97 119.73 131.37 124.11
  C 127.07 135.90 117.72 135.54 106.96 135.48
  C 96.21 135.41 86.85 135.66 82.70 123.81
  Q 81.15 119.42 80.67 114.20
  Q 78.69 92.63 80.16 71.92
  C 80.81 62.64 84.90 55.67 94.71 54.51
  Q 100.10 53.87 107.46 53.92
  Z
  M 84.78 80.95
  L 129.82 80.87
  A 0.42 0.42 0.0 0 0 130.24 80.45
  L 130.22 72.19
  A 13.48 13.28 -0.1 0 0 116.72 58.93
  L 97.80 58.97
  A 13.48 13.28 -0.1 0 0 84.34 72.27
  L 84.36 80.53
  A 0.42 0.42 0.0 0 0 84.78 80.95
  Z
  M 84.35 105.95
  A 0.34 0.34 0.0 0 0 84.69 106.29
  L 129.78 106.29
  A 0.34 0.34 0.0 0 0 130.12 105.95
  L 130.12 86.18
  A 0.34 0.34 0.0 0 0 129.78 85.84
  L 84.69 85.84
  A 0.34 0.34 0.0 0 0 84.35 86.18
  L 84.35 105.95
  Z
  M 104.35 130.82
  Q 107.49 130.90 114.73 130.77
  C 126.14 130.57 128.83 121.08 129.40 111.76
  A 0.72 0.71 -89.3 0 0 128.66 111.00
  L 126.38 111.10
  L 85.75 111.12
  A 0.82 0.82 0.0 0 0 84.93 112.00
  C 85.40 119.13 86.91 127.25 94.46 129.80
  Q 98.54 131.19 104.35 130.82
  Z"
/>
<path fill="#fdedec" d="
  M 84.78 80.95
  A 0.42 0.42 0.0 0 1 84.36 80.53
  L 84.34 72.27
  A 13.48 13.28 -0.1 0 1 97.80 58.97
  L 116.72 58.93
  A 13.48 13.28 -0.1 0 1 130.22 72.19
  L 130.24 80.45
  A 0.42 0.42 0.0 0 1 129.82 80.87
  L 84.78 80.95
  Z
  M 117.0802 70.6132
  A 2.27 2.27 0.0 0 0 114.8181 68.3353
  L 100.3382 68.2847
  A 2.27 2.27 0.0 0 0 98.0603 70.5468
  L 98.0598 70.6868
  A 2.27 2.27 0.0 0 0 100.3219 72.9647
  L 114.8018 73.0153
  A 2.27 2.27 0.0 0 0 117.0797 70.7532
  L 117.0802 70.6132
  Z"
/>
<rect fill="#010101" x="-9.51" y="-2.34" transform="translate(107.57,70.65) rotate(0.2)" width="19.02" height="4.68" rx="2.27"/>
<path fill="#fdedec" d="
  M 84.35 105.95
  L 84.35 86.18
  A 0.34 0.34 0.0 0 1 84.69 85.84
  L 129.78 85.84
  A 0.34 0.34 0.0 0 1 130.12 86.18
  L 130.12 105.95
  A 0.34 0.34 0.0 0 1 129.78 106.29
  L 84.69 106.29
  A 0.34 0.34 0.0 0 1 84.35 105.95
  Z
  M 117.1695 96.4599
  A 2.24 2.24 0.0 0 0 114.9178 94.2317
  L 100.2780 94.3084
  A 2.24 2.24 0.0 0 0 98.0498 96.5601
  L 98.0505 96.7001
  A 2.24 2.24 0.0 0 0 100.3022 98.9283
  L 114.9420 98.8516
  A 2.24 2.24 0.0 0 0 117.1702 96.5999
  L 117.1695 96.4599
  Z"
/>
<rect fill="#010101" x="-9.56" y="-2.31" transform="translate(107.61,96.58) rotate(-0.3)" width="19.12" height="4.62" rx="2.24"/>
<path fill="#fdedec" d="
  M 126.38 111.10
  Q 122.63 117.06 117.18 121.10
  C 116.78 119.45 115.98 118.61 114.17 118.63
  Q 106.87 118.70 99.51 118.64
  A 2.18 2.17 -89.3 0 0 97.31 120.80
  L 97.31 120.84
  A 2.11 2.10 0.3 0 0 99.41 122.95
  L 114.72 123.05
  Q 110.23 127.50 104.35 130.82
  Q 98.54 131.19 94.46 129.80
  C 86.91 127.25 85.40 119.13 84.93 112.00
  A 0.82 0.82 0.0 0 1 85.75 111.12
  L 126.38 111.10
  Z"
/>
<path fill="#ffffff" d="
  M 104.35 130.82
  Q 110.23 127.50 114.72 123.05
  Q 116.04 123.04 117.18 121.10
  Q 122.63 117.06 126.38 111.10
  L 128.66 111.00
  A 0.72 0.71 -89.3 0 1 129.40 111.76
  C 128.83 121.08 126.14 130.57 114.73 130.77
  Q 107.49 130.90 104.35 130.82
  Z"
/>
<path fill="#010101" d="
  M 117.18 121.10
  Q 116.04 123.04 114.72 123.05
  L 99.41 122.95
  A 2.11 2.10 0.3 0 1 97.31 120.84
  L 97.31 120.80
  A 2.18 2.17 -89.3 0 1 99.51 118.64
  Q 106.87 118.70 114.17 118.63
  C 115.98 118.61 116.78 119.45 117.18 121.10
  Z"
/>
<path fill="#ffffff" d="
  M 99.89 149.02
  A 0.24 0.24 0.0 0 1 100.13 148.78
  L 104.71 148.78
  A 0.23 0.22 0.0 0 1 104.94 149.00
  L 104.94 181.01
  A 0.39 0.39 0.0 0 1 104.28 181.30
  L 103.72 180.78
  A 2.42 2.40 -70.2 0 1 102.86 178.93
  Q 102.91 171.34 102.82 169.02
  Q 102.77 167.64 100.17 163.80
  A 1.62 1.60 -62.5 0 1 99.89 162.89
  L 99.89 149.02
  Z"
/>
<path fill="#ffffff" d="
  M 110.12 180.19
  L 110.12 149.02
  A 0.25 0.25 0.0 0 1 110.37 148.77
  L 114.26 148.77
  A 0.24 0.23 0.0 0 1 114.50 149.00
  L 114.50 163.03
  A 1.59 1.58 -26.9 0 1 114.19 163.97
  C 110.66 168.75 111.33 172.65 111.41 179.16
  Q 111.42 180.23 110.55 180.50
  A 0.33 0.33 0.0 0 1 110.12 180.19
  Z"
/>
</svg>
