<?xml version="1.0" encoding="utf-8"?>
<svg version="1.1" viewBox="0.00 0.00 209.00 212.00" xmlns="http://www.w3.org/2000/svg"><g id="offState" style="display:inline"><g fill="none" stroke-linecap="butt" stroke-width="2.00">
<path class="icon-shape" d="   M 107.12 188.82   Q 107.86 188.82 108.62 188.38   C 111.43 186.75 116.20 183.56 116.37 180.37   Q 116.50 177.87 116.46 170.20   A 2.33 2.29 -22.8 0 1 117.14 168.57   C 118.65 167.08 119.44 165.26 119.46 162.88   Q 119.51 154.88 119.47 148.88   A 0.85 0.85 0.0 0 1 120.27 148.02   Q 135.04 146.97 142.32 134.67   C 144.62 130.78 145.69 125.67 146.35 121.37   C 149.63 100.01 150.35 77.98 146.49 57.02   Q 145.18 49.90 144.08 46.84   Q 137.59 28.82 118.23 27.97   Q 114.13 27.79 107.33 27.78   Q 100.53 27.77 96.43 27.94   Q 77.07 28.74 70.53 46.74   Q 69.42 49.80 68.09 56.92   C 64.18 77.87 64.84 99.90 68.06 121.27   C 68.71 125.57 69.77 130.68 72.06 134.58   Q 79.30 146.90 94.07 147.99   A 0.85 0.85 0.0 0 1 94.87 148.85   Q 94.81 154.85 94.84 162.85   C 94.85 165.23 95.64 167.05 97.15 168.54   A 2.33 2.29 23.0 0 1 97.82 170.18   Q 97.76 177.85 97.88 180.35   C 98.05 183.54 102.81 186.74 105.61 188.37   Q 106.37 188.82 107.12 188.82" stroke="#d9d8da" vector-effect="non-scaling-stroke"/>
<path class="icon-shape" d="   M 107.12 143.89   Q 118.17 143.91 125.45 142.08   Q 132.48 140.31 137.41 133.32   C 141.11 128.07 141.87 119.75 142.66 112.75   C 144.97 92.18 145.20 70.19 139.95 50.30   Q 136.42 36.95 123.86 33.65   C 119.17 32.41 113.39 32.79 107.33 32.78   C 101.27 32.77 95.49 32.37 90.79 33.58   Q 78.22 36.84 74.64 50.18   C 69.32 70.05 69.47 92.04 71.70 112.62   C 72.47 119.62 73.20 127.94 76.88 133.21   Q 81.78 140.22 88.80 142.01   Q 96.07 143.87 107.12 143.89" stroke="#d9d8da" vector-effect="non-scaling-stroke"/>
<path class="icon-shape" d="   M 102.81 179.11   A 0.40 0.40 0.0 0 0 102.86 179.31   L 104.21 181.65   A 0.40 0.40 0.0 0 0 104.96 181.45   L 104.96 149.10   A 0.40 0.40 0.0 0 0 104.56 148.70   L 100.25 148.70   A 0.40 0.40 0.0 0 0 99.85 149.10   L 99.85 163.04   A 0.40 0.40 0.0 0 0 99.90 163.24   L 102.76 168.19   A 0.40 0.40 0.0 0 1 102.81 168.39   L 102.81 179.11" stroke="#d9d8da" vector-effect="non-scaling-stroke"/>
<path class="icon-shape" d="   M 110.53 180.68   Q 110.70 180.66 111.10 180.17   Q 111.53 179.63 111.52 178.96   C 111.37 173.11 110.73 169.14 114.09 164.09   A 2.83 2.82 -28.3 0 0 114.56 162.53   L 114.56 149.33   A 0.64 0.64 0.0 0 0 113.92 148.69   L 110.81 148.69   A 0.57 0.57 0.0 0 0 110.24 149.25   L 109.96 180.12   A 0.56 0.56 0.0 0 0 110.53 180.68" stroke="#d9d8da" vector-effect="non-scaling-stroke"/>
<path class="icon-shape" d="   M 115.3006 43.1633   A 2.01 2.01 0.0 0 0 113.2941 41.1498   L 102.1141 41.1302   A 2.01 2.01 0.0 0 0 100.1006 43.1367   L 100.0994 43.8167   A 2.01 2.01 0.0 0 0 102.1059 45.8302   L 113.2859 45.8498   A 2.01 2.01 0.0 0 0 115.2994 43.8433   L 115.3006 43.1633" stroke="#d9d8da" vector-effect="non-scaling-stroke"/>
<path class="icon-shape" d="   M 106.96 135.44   C 117.61 135.50 127.42 135.82 131.44 123.70   Q 132.96 119.13 133.42 114.74   Q 135.65 93.43 134.47 72.26   C 133.95 62.95 129.70 55.50 119.58 54.71   Q 111.20 54.05 107.45 54.03   Q 103.70 54.01 95.32 54.56   C 85.19 55.23 80.85 62.63 80.22 71.93   Q 78.78 93.08 80.75 114.42   Q 81.16 118.82 82.62 123.41   C 86.50 135.58 96.31 135.37 106.96 135.44" stroke="#d9d8da" vector-effect="non-scaling-stroke"/>
<path class="icon-shape" d="   M 84.99 80.92   L 129.61 80.92   A 0.62 0.62 0.0 0 0 130.23 80.30   L 130.23 72.02   A 13.41 13.08 0.0 0 0 116.82 58.94   L 97.78 58.94   A 13.41 13.08 0.0 0 0 84.37 72.02   L 84.37 80.30   A 0.62 0.62 0.0 0 0 84.99 80.92" stroke="#d9d8da" vector-effect="non-scaling-stroke"/>
<path class="icon-shape" d="   M 130.18 86.10   A 0.32 0.32 0.0 0 0 129.86 85.78   L 84.64 85.78   A 0.32 0.32 0.0 0 0 84.32 86.10   L 84.32 106.03   A 0.32 0.32 0.0 0 0 84.64 106.35   L 129.86 106.35   A 0.32 0.32 0.0 0 0 130.18 106.03   L 130.18 86.10" stroke="#d9d8da" vector-effect="non-scaling-stroke"/>
<path class="icon-shape" d="   M 128.86 111.06   L 85.44 111.14   A 0.24 0.24 0.0 0 0 85.20 111.38   L 85.21 114.73   A 16.15 13.71 89.9 0 0 98.95 130.85   L 115.43 130.83   A 16.15 13.71 89.9 0 0 129.11 114.65   L 129.10 111.30   A 0.24 0.24 0.0 0 0 128.86 111.06" stroke="#d9d8da" vector-effect="non-scaling-stroke"/>
<path class="icon-shape" d="   M 117.0602 70.6431   A 2.24 2.24 0.0 0 0 114.8280 68.3953   L 100.3281 68.3447   A 2.24 2.24 0.0 0 0 98.0803 70.5769   L 98.0798 70.7169   A 2.24 2.24 0.0 0 0 100.3120 72.9647   L 114.8119 73.0153   A 2.24 2.24 0.0 0 0 117.0597 70.7831   L 117.0602 70.6431" stroke="#d9d8da" vector-effect="non-scaling-stroke"/>
<path class="icon-shape" d="   M 117.1397 96.5068   A 2.19 2.19 0.0 0 0 114.9421 94.3244   L 100.2822 94.3756   A 2.19 2.19 0.0 0 0 98.0998 96.5732   L 98.1003 96.7132   A 2.19 2.19 0.0 0 0 100.2979 98.8956   L 114.9578 98.8444   A 2.19 2.19 0.0 0 0 117.1402 96.6468   L 117.1397 96.5068" stroke="#d9d8da" vector-effect="non-scaling-stroke"/>
<path class="icon-shape" d="   M 116.8699 120.7429   A 2.04 2.04 0.0 0 0 114.8263 118.7065   L 99.3063 118.7335   A 2.04 2.04 0.0 0 0 97.2699 120.7771   L 97.2701 120.9171   A 2.04 2.04 0.0 0 0 99.3137 122.9535   L 114.8337 122.9265   A 2.04 2.04 0.0 0 0 116.8701 120.8829   L 116.8699 120.7429" stroke="#d9d8da" vector-effect="non-scaling-stroke"/>
</g>
<path class="icon-shape" d="   M 209.00 0.00   L 209.00 212.00   L 0.00 212.00   L 0.00 0.00   L 209.00 0.00   Z   M 107.12 188.82   Q 107.86 188.82 108.62 188.38   C 111.43 186.75 116.20 183.56 116.37 180.37   Q 116.50 177.87 116.46 170.20   A 2.33 2.29 -22.8 0 1 117.14 168.57   C 118.65 167.08 119.44 165.26 119.46 162.88   Q 119.51 154.88 119.47 148.88   A 0.85 0.85 0.0 0 1 120.27 148.02   Q 135.04 146.97 142.32 134.67   C 144.62 130.78 145.69 125.67 146.35 121.37   C 149.63 100.01 150.35 77.98 146.49 57.02   Q 145.18 49.90 144.08 46.84   Q 137.59 28.82 118.23 27.97   Q 114.13 27.79 107.33 27.78   Q 100.53 27.77 96.43 27.94   Q 77.07 28.74 70.53 46.74   Q 69.42 49.80 68.09 56.92   C 64.18 77.87 64.84 99.90 68.06 121.27   C 68.71 125.57 69.77 130.68 72.06 134.58   Q 79.30 146.90 94.07 147.99   A 0.85 0.85 0.0 0 1 94.87 148.85   Q 94.81 154.85 94.84 162.85   C 94.85 165.23 95.64 167.05 97.15 168.54   A 2.33 2.29 23.0 0 1 97.82 170.18   Q 97.76 177.85 97.88 180.35   C 98.05 183.54 102.81 186.74 105.61 188.37   Q 106.37 188.82 107.12 188.82   Z" fill="#ffffff"/>
<path class="icon-shape" d="   M 107.33 27.78   Q 114.13 27.79 118.23 27.97   Q 137.59 28.82 144.08 46.84   Q 145.18 49.90 146.49 57.02   C 150.35 77.98 149.63 100.01 146.35 121.37   C 145.69 125.67 144.62 130.78 142.32 134.67   Q 135.04 146.97 120.27 148.02   A 0.85 0.85 0.0 0 0 119.47 148.88   Q 119.51 154.88 119.46 162.88   C 119.44 165.26 118.65 167.08 117.14 168.57   A 2.33 2.29 -22.8 0 0 116.46 170.20   Q 116.50 177.87 116.37 180.37   C 116.20 183.56 111.43 186.75 108.62 188.38   Q 107.86 188.82 107.12 188.82   Q 106.37 188.82 105.61 188.37   C 102.81 186.74 98.05 183.54 97.88 180.35   Q 97.76 177.85 97.82 170.18   A 2.33 2.29 23.0 0 0 97.15 168.54   C 95.64 167.05 94.85 165.23 94.84 162.85   Q 94.81 154.85 94.87 148.85   A 0.85 0.85 0.0 0 0 94.07 147.99   Q 79.30 146.90 72.06 134.58   C 69.77 130.68 68.71 125.57 68.06 121.27   C 64.84 99.90 64.18 77.87 68.09 56.92   Q 69.42 49.80 70.53 46.74   Q 77.07 28.74 96.43 27.94   Q 100.53 27.77 107.33 27.78   Z   M 107.12 143.89   Q 118.17 143.91 125.45 142.08   Q 132.48 140.31 137.41 133.32   C 141.11 128.07 141.87 119.75 142.66 112.75   C 144.97 92.18 145.20 70.19 139.95 50.30   Q 136.42 36.95 123.86 33.65   C 119.17 32.41 113.39 32.79 107.33 32.78   C 101.27 32.77 95.49 32.37 90.79 33.58   Q 78.22 36.84 74.64 50.18   C 69.32 70.05 69.47 92.04 71.70 112.62   C 72.47 119.62 73.20 127.94 76.88 133.21   Q 81.78 140.22 88.80 142.01   Q 96.07 143.87 107.12 143.89   Z   M 102.81 179.11   A 0.40 0.40 0.0 0 0 102.86 179.31   L 104.21 181.65   A 0.40 0.40 0.0 0 0 104.96 181.45   L 104.96 149.10   A 0.40 0.40 0.0 0 0 104.56 148.70   L 100.25 148.70   A 0.40 0.40 0.0 0 0 99.85 149.10   L 99.85 163.04   A 0.40 0.40 0.0 0 0 99.90 163.24   L 102.76 168.19   A 0.40 0.40 0.0 0 1 102.81 168.39   L 102.81 179.11   Z   M 110.53 180.68   Q 110.70 180.66 111.10 180.17   Q 111.53 179.63 111.52 178.96   C 111.37 173.11 110.73 169.14 114.09 164.09   A 2.83 2.82 -28.3 0 0 114.56 162.53   L 114.56 149.33   A 0.64 0.64 0.0 0 0 113.92 148.69   L 110.81 148.69   A 0.57 0.57 0.0 0 0 110.24 149.25   L 109.96 180.12   A 0.56 0.56 0.0 0 0 110.53 180.68   Z" fill="#b2b0b4"/>
<path class="icon-shape" d="   M 107.33 32.78   C 113.39 32.79 119.17 32.41 123.86 33.65   Q 136.42 36.95 139.95 50.30   C 145.20 70.19 144.97 92.18 142.66 112.75   C 141.87 119.75 141.11 128.07 137.41 133.32   Q 132.48 140.31 125.45 142.08   Q 118.17 143.91 107.12 143.89   Q 96.07 143.87 88.80 142.01   Q 81.78 140.22 76.88 133.21   C 73.20 127.94 72.47 119.62 71.70 112.62   C 69.47 92.04 69.32 70.05 74.64 50.18   Q 78.22 36.84 90.79 33.58   C 95.49 32.37 101.27 32.77 107.33 32.78   Z   M 115.3006 43.1633   A 2.01 2.01 0.0 0 0 113.2941 41.1498   L 102.1141 41.1302   A 2.01 2.01 0.0 0 0 100.1006 43.1367   L 100.0994 43.8167   A 2.01 2.01 0.0 0 0 102.1059 45.8302   L 113.2859 45.8498   A 2.01 2.01 0.0 0 0 115.2994 43.8433   L 115.3006 43.1633   Z   M 106.96 135.44   C 117.61 135.50 127.42 135.82 131.44 123.70   Q 132.96 119.13 133.42 114.74   Q 135.65 93.43 134.47 72.26   C 133.95 62.95 129.70 55.50 119.58 54.71   Q 111.20 54.05 107.45 54.03   Q 103.70 54.01 95.32 54.56   C 85.19 55.23 80.85 62.63 80.22 71.93   Q 78.78 93.08 80.75 114.42   Q 81.16 118.82 82.62 123.41   C 86.50 135.58 96.31 135.37 106.96 135.44   Z" fill="#ffffff"/>
<rect fill="#b2b0b4" height="4.70" rx="2.01" transform="translate(107.70,43.49) rotate(0.1)" width="15.20" x="-7.60" y="-2.35"/>
<path class="icon-shape" d="   M 107.45 54.03   Q 111.20 54.05 119.58 54.71   C 129.70 55.50 133.95 62.95 134.47 72.26   Q 135.65 93.43 133.42 114.74   Q 132.96 119.13 131.44 123.70   C 127.42 135.82 117.61 135.50 106.96 135.44   C 96.31 135.37 86.50 135.58 82.62 123.41   Q 81.16 118.82 80.75 114.42   Q 78.78 93.08 80.22 71.93   C 80.85 62.63 85.19 55.23 95.32 54.56   Q 103.70 54.01 107.45 54.03   Z   M 84.99 80.92   L 129.61 80.92   A 0.62 0.62 0.0 0 0 130.23 80.30   L 130.23 72.02   A 13.41 13.08 0.0 0 0 116.82 58.94   L 97.78 58.94   A 13.41 13.08 0.0 0 0 84.37 72.02   L 84.37 80.30   A 0.62 0.62 0.0 0 0 84.99 80.92   Z   M 130.18 86.10   A 0.32 0.32 0.0 0 0 129.86 85.78   L 84.64 85.78   A 0.32 0.32 0.0 0 0 84.32 86.10   L 84.32 106.03   A 0.32 0.32 0.0 0 0 84.64 106.35   L 129.86 106.35   A 0.32 0.32 0.0 0 0 130.18 106.03   L 130.18 86.10   Z   M 128.86 111.06   L 85.44 111.14   A 0.24 0.24 0.0 0 0 85.20 111.38   L 85.21 114.73   A 16.15 13.71 89.9 0 0 98.95 130.85   L 115.43 130.83   A 16.15 13.71 89.9 0 0 129.11 114.65   L 129.10 111.30   A 0.24 0.24 0.0 0 0 128.86 111.06   Z" fill="#b2b0b4"/>
<path class="icon-shape" d="   M 84.99 80.92   A 0.62 0.62 0.0 0 1 84.37 80.30   L 84.37 72.02   A 13.41 13.08 0.0 0 1 97.78 58.94   L 116.82 58.94   A 13.41 13.08 -0.0 0 1 130.23 72.02   L 130.23 80.30   A 0.62 0.62 0.0 0 1 129.61 80.92   L 84.99 80.92   Z   M 117.0602 70.6431   A 2.24 2.24 0.0 0 0 114.8280 68.3953   L 100.3281 68.3447   A 2.24 2.24 0.0 0 0 98.0803 70.5769   L 98.0798 70.7169   A 2.24 2.24 0.0 0 0 100.3120 72.9647   L 114.8119 73.0153   A 2.24 2.24 0.0 0 0 117.0597 70.7831   L 117.0602 70.6431   Z" fill="#ffffff"/>
<rect fill="#b2b0b4" height="4.62" rx="2.24" transform="translate(107.57,70.68) rotate(0.2)" width="18.98" x="-9.49" y="-2.31"/>
<path class="icon-shape" d="   M 130.18 86.10   L 130.18 106.03   A 0.32 0.32 0.0 0 1 129.86 106.35   L 84.64 106.35   A 0.32 0.32 0.0 0 1 84.32 106.03   L 84.32 86.10   A 0.32 0.32 0.0 0 1 84.64 85.78   L 129.86 85.78   A 0.32 0.32 0.0 0 1 130.18 86.10   Z   M 117.1397 96.5068   A 2.19 2.19 0.0 0 0 114.9421 94.3244   L 100.2822 94.3756   A 2.19 2.19 0.0 0 0 98.0998 96.5732   L 98.1003 96.7132   A 2.19 2.19 0.0 0 0 100.2979 98.8956   L 114.9578 98.8444   A 2.19 2.19 0.0 0 0 117.1402 96.6468   L 117.1397 96.5068   Z" fill="#ffffff"/>
<rect fill="#b2b0b4" height="4.52" rx="2.19" transform="translate(107.62,96.61) rotate(-0.2)" width="19.04" x="-9.52" y="-2.26"/>
<path class="icon-shape" d="   M 128.86 111.06   A 0.24 0.24 0.0 0 1 129.10 111.30   L 129.11 114.65   A 16.15 13.71 89.9 0 1 115.43 130.83   L 98.95 130.85   A 16.15 13.71 89.9 0 1 85.21 114.73   L 85.20 111.38   A 0.24 0.24 0.0 0 1 85.44 111.14   L 128.86 111.06   Z   M 116.8699 120.7429   A 2.04 2.04 0.0 0 0 114.8263 118.7065   L 99.3063 118.7335   A 2.04 2.04 0.0 0 0 97.2699 120.7771   L 97.2701 120.9171   A 2.04 2.04 0.0 0 0 99.3137 122.9535   L 114.8337 122.9265   A 2.04 2.04 0.0 0 0 116.8701 120.8829   L 116.8699 120.7429   Z" fill="#ffffff"/>
<rect fill="#b2b0b4" height="4.22" rx="2.04" transform="translate(107.07,120.83) rotate(-0.1)" width="19.60" x="-9.80" y="-2.11"/>
<path class="icon-shape" d="   M 102.81 179.11   L 102.81 168.39   A 0.40 0.40 0.0 0 0 102.76 168.19   L 99.90 163.24   A 0.40 0.40 0.0 0 1 99.85 163.04   L 99.85 149.10   A 0.40 0.40 0.0 0 1 100.25 148.70   L 104.56 148.70   A 0.40 0.40 0.0 0 1 104.96 149.10   L 104.96 181.45   A 0.40 0.40 0.0 0 1 104.21 181.65   L 102.86 179.31   A 0.40 0.40 0.0 0 1 102.81 179.11   Z" fill="#ffffff"/>
<path class="icon-shape" d="   M 109.96 180.12   L 110.24 149.25   A 0.57 0.57 0.0 0 1 110.81 148.69   L 113.92 148.69   A 0.64 0.64 0.0 0 1 114.56 149.33   L 114.56 162.53   A 2.83 2.82 -28.3 0 1 114.09 164.09   C 110.73 169.14 111.37 173.11 111.52 178.96   Q 111.53 179.63 111.10 180.17   Q 110.70 180.66 110.53 180.68   A 0.56 0.56 0.0 0 1 109.96 180.12   Z" fill="#ffffff"/>
</g><g id="onState" style="display:none"><g fill="none" stroke-linecap="butt" stroke-width="2.00">
<path class="icon-shape" d="   M 72.23 135.02   Q 79.72 147.21 94.21 148.02   A 0.64 0.64 0.0 0 1 94.82 148.67   Q 94.73 163.63 94.87 164.74   Q 95.10 166.52 97.37 168.85   A 1.34 1.33 23.1 0 1 97.75 169.78   L 97.75 180.23   A 1.90 1.82 37.3 0 0 97.84 180.80   C 99.00 184.36 102.45 186.49 105.77 188.60   A 2.52 2.50 46.0 0 0 108.33 188.66   C 111.36 186.94 116.24 183.73 116.48 180.21   Q 116.61 178.38 116.52 169.92   A 1.47 1.46 -23.1 0 1 116.95 168.86   Q 119.27 166.48 119.42 164.76   Q 119.62 162.55 119.51 148.83   A 0.66 0.66 0.0 0 1 120.12 148.17   Q 134.72 146.90 142.00 135.48   Q 145.11 130.60 146.81 118.91   C 149.97 97.29 150.40 74.88 145.89 53.65   C 143.10 40.53 136.99 30.74 122.73 28.31   Q 117.07 27.35 103.05 27.78" stroke="#808080" vector-effect="non-scaling-stroke"/>
<path class="icon-shape" d="   M 103.05 27.78   C 85.60 20.52 65.67 21.64 49.73 31.50   C 16.90 51.82 14.41 96.90 42.39 122.12   C 49.63 128.65 61.85 134.94 72.23 135.02" stroke="#fef6f6" vector-effect="non-scaling-stroke"/>
<path class="icon-shape" d="   M 103.05 27.78   Q 95.13 27.49 90.52 28.54   C 77.17 31.58 71.40 40.67 68.71 53.48   C 64.54 73.32 64.58 93.94 67.01 114.27   C 67.93 121.95 68.86 129.28 72.23 135.02" stroke="#7f7777" vector-effect="non-scaling-stroke"/>
<path class="icon-shape" d="   M 107.12 143.80   Q 112.27 143.81 119.97 143.10   Q 131.65 142.02 137.53 133.09   Q 140.66 128.33 142.06 117.27   C 144.67 96.66 145.24 76.01 141.27 56.01   Q 140.00 49.59 138.72 46.73   Q 133.01 34.00 119.93 33.10   Q 115.19 32.78 107.33 32.77   Q 99.47 32.75 94.73 33.06   Q 81.64 33.90 75.88 46.61   Q 74.59 49.47 73.30 55.88   C 69.25 75.87 69.75 96.52 72.28 117.14   Q 73.64 128.20 76.75 132.98   Q 82.60 141.93 94.27 143.05   Q 101.97 143.80 107.12 143.80" stroke="#808080" vector-effect="non-scaling-stroke"/>
<path class="icon-shape" d="   M 99.89 149.02   L 99.89 162.89   A 1.62 1.60 -62.5 0 0 100.17 163.80   Q 102.77 167.64 102.82 169.02   Q 102.91 171.34 102.86 178.93   A 2.42 2.40 -70.2 0 0 103.72 180.78   L 104.28 181.30   A 0.39 0.39 0.0 0 0 104.94 181.01   L 104.94 149.00   A 0.23 0.22 0.0 0 0 104.71 148.78   L 100.13 148.78   A 0.24 0.24 0.0 0 0 99.89 149.02" stroke="#808080" vector-effect="non-scaling-stroke"/>
<path class="icon-shape" d="   M 110.55 180.50   Q 111.42 180.23 111.41 179.16   C 111.33 172.65 110.66 168.75 114.19 163.97   A 1.59 1.58 -26.9 0 0 114.50 163.03   L 114.50 149.00   A 0.24 0.23 0.0 0 0 114.26 148.77   L 110.37 148.77   A 0.25 0.25 0.0 0 0 110.12 149.02   L 110.12 180.19   A 0.33 0.33 0.0 0 0 110.55 180.50" stroke="#808080" vector-effect="non-scaling-stroke"/>
<path class="icon-shape" d="   M 115.38 43.15   A 2.06 2.06 0.0 0 0 113.32 41.09   L 102.14 41.09   A 2.06 2.06 0.0 0 0 100.08 43.15   L 100.08 43.83   A 2.06 2.06 0.0 0 0 102.14 45.89   L 113.32 45.89   A 2.06 2.06 0.0 0 0 115.38 43.83   L 115.38 43.15" stroke="#808080" vector-effect="non-scaling-stroke"/>
<path class="icon-shape" d="   M 106.96 135.48   C 117.72 135.54 127.07 135.90 131.37 124.11   Q 132.97 119.73 133.51 114.52   Q 135.75 92.98 134.54 72.25   C 134.00 62.96 129.99 55.94 120.20 54.66   Q 114.82 53.96 107.46 53.92   Q 100.10 53.87 94.71 54.51   C 84.90 55.67 80.81 62.64 80.16 71.92   Q 78.69 92.63 80.67 114.20   Q 81.15 119.42 82.70 123.81   C 86.85 135.66 96.21 135.41 106.96 135.48" stroke="#808080" vector-effect="non-scaling-stroke"/>
<path class="icon-shape" d="   M 84.78 80.95   L 129.82 80.87   A 0.42 0.42 0.0 0 0 130.24 80.45   L 130.22 72.19   A 13.48 13.28 -0.1 0 0 116.72 58.93   L 97.80 58.97   A 13.48 13.28 -0.1 0 0 84.34 72.27   L 84.36 80.53   A 0.42 0.42 0.0 0 0 84.78 80.95" stroke="#7f7777" vector-effect="non-scaling-stroke"/>
<path class="icon-shape" d="   M 84.35 105.95   A 0.34 0.34 0.0 0 0 84.69 106.29   L 129.78 106.29   A 0.34 0.34 0.0 0 0 130.12 105.95   L 130.12 86.18   A 0.34 0.34 0.0 0 0 129.78 85.84   L 84.69 85.84   A 0.34 0.34 0.0 0 0 84.35 86.18   L 84.35 105.95" stroke="#7f7777" vector-effect="non-scaling-stroke"/>
<path class="icon-shape" d="   M 104.35 130.82   Q 107.49 130.90 114.73 130.77   C 126.14 130.57 128.83 121.08 129.40 111.76   A 0.72 0.71 -89.3 0 0 128.66 111.00   L 126.38 111.10" stroke="#808080" vector-effect="non-scaling-stroke"/>
<path class="icon-shape" d="   M 126.38 111.10   L 85.75 111.12   A 0.82 0.82 0.0 0 0 84.93 112.00   C 85.40 119.13 86.91 127.25 94.46 129.80   Q 98.54 131.19 104.35 130.82" stroke="#7f7777" vector-effect="non-scaling-stroke"/>
<path class="icon-shape" d="   M 126.38 111.10   Q 122.63 117.06 117.18 121.10" stroke="#fef6f6" vector-effect="non-scaling-stroke"/>
<path class="icon-shape" d="   M 117.18 121.10   C 116.78 119.45 115.98 118.61 114.17 118.63   Q 106.87 118.70 99.51 118.64   A 2.18 2.17 -89.3 0 0 97.31 120.80   L 97.31 120.84   A 2.11 2.10 0.3 0 0 99.41 122.95   L 114.72 123.05" stroke="#7f7777" vector-effect="non-scaling-stroke"/>
<path class="icon-shape" d="   M 114.72 123.05   Q 110.23 127.50 104.35 130.82" stroke="#fef6f6" vector-effect="non-scaling-stroke"/>
<path class="icon-shape" d="   M 114.72 123.05   Q 116.04 123.04 117.18 121.10" stroke="#808080" vector-effect="non-scaling-stroke"/>
<path class="icon-shape" d="   M 117.0802 70.6132   A 2.27 2.27 0.0 0 0 114.8181 68.3353   L 100.3382 68.2847   A 2.27 2.27 0.0 0 0 98.0603 70.5468   L 98.0598 70.6868   A 2.27 2.27 0.0 0 0 100.3219 72.9647   L 114.8018 73.0153   A 2.27 2.27 0.0 0 0 117.0797 70.7532   L 117.0802 70.6132" stroke="#7f7777" vector-effect="non-scaling-stroke"/>
<path class="icon-shape" d="   M 117.1695 96.4599   A 2.24 2.24 0.0 0 0 114.9178 94.2317   L 100.2780 94.3084   A 2.24 2.24 0.0 0 0 98.0498 96.5601   L 98.0505 96.7001   A 2.24 2.24 0.0 0 0 100.3022 98.9283   L 114.9420 98.8516   A 2.24 2.24 0.0 0 0 117.1702 96.5999   L 117.1695 96.4599" stroke="#7f7777" vector-effect="non-scaling-stroke"/>
</g>
<path class="icon-shape" d="   M 209.00 0.00   L 209.00 212.00   L 0.00 212.00   L 0.00 0.00   L 209.00 0.00   Z   M 72.23 135.02   Q 79.72 147.21 94.21 148.02   A 0.64 0.64 0.0 0 1 94.82 148.67   Q 94.73 163.63 94.87 164.74   Q 95.10 166.52 97.37 168.85   A 1.34 1.33 23.1 0 1 97.75 169.78   L 97.75 180.23   A 1.90 1.82 37.3 0 0 97.84 180.80   C 99.00 184.36 102.45 186.49 105.77 188.60   A 2.52 2.50 46.0 0 0 108.33 188.66   C 111.36 186.94 116.24 183.73 116.48 180.21   Q 116.61 178.38 116.52 169.92   A 1.47 1.46 -23.1 0 1 116.95 168.86   Q 119.27 166.48 119.42 164.76   Q 119.62 162.55 119.51 148.83   A 0.66 0.66 0.0 0 1 120.12 148.17   Q 134.72 146.90 142.00 135.48   Q 145.11 130.60 146.81 118.91   C 149.97 97.29 150.40 74.88 145.89 53.65   C 143.10 40.53 136.99 30.74 122.73 28.31   Q 117.07 27.35 103.05 27.78   C 85.60 20.52 65.67 21.64 49.73 31.50   C 16.90 51.82 14.41 96.90 42.39 122.12   C 49.63 128.65 61.85 134.94 72.23 135.02   Z" fill="#ffffff"/>
<path class="icon-shape" d="   M 103.05 27.78   Q 95.13 27.49 90.52 28.54   C 77.17 31.58 71.40 40.67 68.71 53.48   C 64.54 73.32 64.58 93.94 67.01 114.27   C 67.93 121.95 68.86 129.28 72.23 135.02   C 61.85 134.94 49.63 128.65 42.39 122.12   C 14.41 96.90 16.90 51.82 49.73 31.50   C 65.67 21.64 85.60 20.52 103.05 27.78   Z" fill="#fdedec"/>
<path class="icon-shape" d="   M 103.05 27.78   Q 117.07 27.35 122.73 28.31   C 136.99 30.74 143.10 40.53 145.89 53.65   C 150.40 74.88 149.97 97.29 146.81 118.91   Q 145.11 130.60 142.00 135.48   Q 134.72 146.90 120.12 148.17   A 0.66 0.66 0.0 0 0 119.51 148.83   Q 119.62 162.55 119.42 164.76   Q 119.27 166.48 116.95 168.86   A 1.47 1.46 -23.1 0 0 116.52 169.92   Q 116.61 178.38 116.48 180.21   C 116.24 183.73 111.36 186.94 108.33 188.66   A 2.52 2.50 46.0 0 1 105.77 188.60   C 102.45 186.49 99.00 184.36 97.84 180.80   A 1.90 1.82 37.3 0 1 97.75 180.23   L 97.75 169.78   A 1.34 1.33 23.1 0 0 97.37 168.85   Q 95.10 166.52 94.87 164.74   Q 94.73 163.63 94.82 148.67   A 0.64 0.64 0.0 0 0 94.21 148.02   Q 79.72 147.21 72.23 135.02   C 68.86 129.28 67.93 121.95 67.01 114.27   C 64.58 93.94 64.54 73.32 68.71 53.48   C 71.40 40.67 77.17 31.58 90.52 28.54   Q 95.13 27.49 103.05 27.78   Z   M 107.12 143.80   Q 112.27 143.81 119.97 143.10   Q 131.65 142.02 137.53 133.09   Q 140.66 128.33 142.06 117.27   C 144.67 96.66 145.24 76.01 141.27 56.01   Q 140.00 49.59 138.72 46.73   Q 133.01 34.00 119.93 33.10   Q 115.19 32.78 107.33 32.77   Q 99.47 32.75 94.73 33.06   Q 81.64 33.90 75.88 46.61   Q 74.59 49.47 73.30 55.88   C 69.25 75.87 69.75 96.52 72.28 117.14   Q 73.64 128.20 76.75 132.98   Q 82.60 141.93 94.27 143.05   Q 101.97 143.80 107.12 143.80   Z   M 99.89 149.02   L 99.89 162.89   A 1.62 1.60 -62.5 0 0 100.17 163.80   Q 102.77 167.64 102.82 169.02   Q 102.91 171.34 102.86 178.93   A 2.42 2.40 -70.2 0 0 103.72 180.78   L 104.28 181.30   A 0.39 0.39 0.0 0 0 104.94 181.01   L 104.94 149.00   A 0.23 0.22 0.0 0 0 104.71 148.78   L 100.13 148.78   A 0.24 0.24 0.0 0 0 99.89 149.02   Z   M 110.55 180.50   Q 111.42 180.23 111.41 179.16   C 111.33 172.65 110.66 168.75 114.19 163.97   A 1.59 1.58 -26.9 0 0 114.50 163.03   L 114.50 149.00   A 0.24 0.23 0.0 0 0 114.26 148.77   L 110.37 148.77   A 0.25 0.25 0.0 0 0 110.12 149.02   L 110.12 180.19   A 0.33 0.33 0.0 0 0 110.55 180.50   Z" fill="#010101"/>
<path class="icon-shape" d="   M 107.33 32.77   Q 115.19 32.78 119.93 33.10   Q 133.01 34.00 138.72 46.73   Q 140.00 49.59 141.27 56.01   C 145.24 76.01 144.67 96.66 142.06 117.27   Q 140.66 128.33 137.53 133.09   Q 131.65 142.02 119.97 143.10   Q 112.27 143.81 107.12 143.80   Q 101.97 143.80 94.27 143.05   Q 82.60 141.93 76.75 132.98   Q 73.64 128.20 72.28 117.14   C 69.75 96.52 69.25 75.87 73.30 55.88   Q 74.59 49.47 75.88 46.61   Q 81.64 33.90 94.73 33.06   Q 99.47 32.75 107.33 32.77   Z   M 115.38 43.15   A 2.06 2.06 0.0 0 0 113.32 41.09   L 102.14 41.09   A 2.06 2.06 0.0 0 0 100.08 43.15   L 100.08 43.83   A 2.06 2.06 0.0 0 0 102.14 45.89   L 113.32 45.89   A 2.06 2.06 0.0 0 0 115.38 43.83   L 115.38 43.15   Z   M 106.96 135.48   C 117.72 135.54 127.07 135.90 131.37 124.11   Q 132.97 119.73 133.51 114.52   Q 135.75 92.98 134.54 72.25   C 134.00 62.96 129.99 55.94 120.20 54.66   Q 114.82 53.96 107.46 53.92   Q 100.10 53.87 94.71 54.51   C 84.90 55.67 80.81 62.64 80.16 71.92   Q 78.69 92.63 80.67 114.20   Q 81.15 119.42 82.70 123.81   C 86.85 135.66 96.21 135.41 106.96 135.48   Z" fill="#ffffff"/>
<rect fill="#010101" height="4.80" rx="2.06" width="15.30" x="100.08" y="41.09"/>
<path class="icon-shape" d="   M 107.46 53.92   Q 114.82 53.96 120.20 54.66   C 129.99 55.94 134.00 62.96 134.54 72.25   Q 135.75 92.98 133.51 114.52   Q 132.97 119.73 131.37 124.11   C 127.07 135.90 117.72 135.54 106.96 135.48   C 96.21 135.41 86.85 135.66 82.70 123.81   Q 81.15 119.42 80.67 114.20   Q 78.69 92.63 80.16 71.92   C 80.81 62.64 84.90 55.67 94.71 54.51   Q 100.10 53.87 107.46 53.92   Z   M 84.78 80.95   L 129.82 80.87   A 0.42 0.42 0.0 0 0 130.24 80.45   L 130.22 72.19   A 13.48 13.28 -0.1 0 0 116.72 58.93   L 97.80 58.97   A 13.48 13.28 -0.1 0 0 84.34 72.27   L 84.36 80.53   A 0.42 0.42 0.0 0 0 84.78 80.95   Z   M 84.35 105.95   A 0.34 0.34 0.0 0 0 84.69 106.29   L 129.78 106.29   A 0.34 0.34 0.0 0 0 130.12 105.95   L 130.12 86.18   A 0.34 0.34 0.0 0 0 129.78 85.84   L 84.69 85.84   A 0.34 0.34 0.0 0 0 84.35 86.18   L 84.35 105.95   Z   M 104.35 130.82   Q 107.49 130.90 114.73 130.77   C 126.14 130.57 128.83 121.08 129.40 111.76   A 0.72 0.71 -89.3 0 0 128.66 111.00   L 126.38 111.10   L 85.75 111.12   A 0.82 0.82 0.0 0 0 84.93 112.00   C 85.40 119.13 86.91 127.25 94.46 129.80   Q 98.54 131.19 104.35 130.82   Z" fill="#010101"/>
<path class="icon-shape" d="   M 84.78 80.95   A 0.42 0.42 0.0 0 1 84.36 80.53   L 84.34 72.27   A 13.48 13.28 -0.1 0 1 97.80 58.97   L 116.72 58.93   A 13.48 13.28 -0.1 0 1 130.22 72.19   L 130.24 80.45   A 0.42 0.42 0.0 0 1 129.82 80.87   L 84.78 80.95   Z   M 117.0802 70.6132   A 2.27 2.27 0.0 0 0 114.8181 68.3353   L 100.3382 68.2847   A 2.27 2.27 0.0 0 0 98.0603 70.5468   L 98.0598 70.6868   A 2.27 2.27 0.0 0 0 100.3219 72.9647   L 114.8018 73.0153   A 2.27 2.27 0.0 0 0 117.0797 70.7532   L 117.0802 70.6132   Z" fill="#fdedec"/>
<rect fill="#010101" height="4.68" rx="2.27" transform="translate(107.57,70.65) rotate(0.2)" width="19.02" x="-9.51" y="-2.34"/>
<path class="icon-shape" d="   M 84.35 105.95   L 84.35 86.18   A 0.34 0.34 0.0 0 1 84.69 85.84   L 129.78 85.84   A 0.34 0.34 0.0 0 1 130.12 86.18   L 130.12 105.95   A 0.34 0.34 0.0 0 1 129.78 106.29   L 84.69 106.29   A 0.34 0.34 0.0 0 1 84.35 105.95   Z   M 117.1695 96.4599   A 2.24 2.24 0.0 0 0 114.9178 94.2317   L 100.2780 94.3084   A 2.24 2.24 0.0 0 0 98.0498 96.5601   L 98.0505 96.7001   A 2.24 2.24 0.0 0 0 100.3022 98.9283   L 114.9420 98.8516   A 2.24 2.24 0.0 0 0 117.1702 96.5999   L 117.1695 96.4599   Z" fill="#fdedec"/>
<rect fill="#010101" height="4.62" rx="2.24" transform="translate(107.61,96.58) rotate(-0.3)" width="19.12" x="-9.56" y="-2.31"/>
<path class="icon-shape" d="   M 126.38 111.10   Q 122.63 117.06 117.18 121.10   C 116.78 119.45 115.98 118.61 114.17 118.63   Q 106.87 118.70 99.51 118.64   A 2.18 2.17 -89.3 0 0 97.31 120.80   L 97.31 120.84   A 2.11 2.10 0.3 0 0 99.41 122.95   L 114.72 123.05   Q 110.23 127.50 104.35 130.82   Q 98.54 131.19 94.46 129.80   C 86.91 127.25 85.40 119.13 84.93 112.00   A 0.82 0.82 0.0 0 1 85.75 111.12   L 126.38 111.10   Z" fill="#fdedec"/>
<path class="icon-shape" d="   M 104.35 130.82   Q 110.23 127.50 114.72 123.05   Q 116.04 123.04 117.18 121.10   Q 122.63 117.06 126.38 111.10   L 128.66 111.00   A 0.72 0.71 -89.3 0 1 129.40 111.76   C 128.83 121.08 126.14 130.57 114.73 130.77   Q 107.49 130.90 104.35 130.82   Z" fill="#ffffff"/>
<path class="icon-shape" d="   M 117.18 121.10   Q 116.04 123.04 114.72 123.05   L 99.41 122.95   A 2.11 2.10 0.3 0 1 97.31 120.84   L 97.31 120.80   A 2.18 2.17 -89.3 0 1 99.51 118.64   Q 106.87 118.70 114.17 118.63   C 115.98 118.61 116.78 119.45 117.18 121.10   Z" fill="#010101"/>
<path class="icon-shape" d="   M 99.89 149.02   A 0.24 0.24 0.0 0 1 100.13 148.78   L 104.71 148.78   A 0.23 0.22 0.0 0 1 104.94 149.00   L 104.94 181.01   A 0.39 0.39 0.0 0 1 104.28 181.30   L 103.72 180.78   A 2.42 2.40 -70.2 0 1 102.86 178.93   Q 102.91 171.34 102.82 169.02   Q 102.77 167.64 100.17 163.80   A 1.62 1.60 -62.5 0 1 99.89 162.89   L 99.89 149.02   Z" fill="#ffffff"/>
<path class="icon-shape" d="   M 110.12 180.19   L 110.12 149.02   A 0.25 0.25 0.0 0 1 110.37 148.77   L 114.26 148.77   A 0.24 0.23 0.0 0 1 114.50 149.00   L 114.50 163.03   A 1.59 1.58 -26.9 0 1 114.19 163.97   C 110.66 168.75 111.33 172.65 111.41 179.16   Q 111.42 180.23 110.55 180.50   A 0.33 0.33 0.0 0 1 110.12 180.19   Z" fill="#ffffff"/>
</g></svg>