<?xml version="1.0" encoding="utf-8"?>
<svg version="1.1" viewBox="0.00 0.00 229.00 204.00" xmlns="http://www.w3.org/2000/svg"><g id="offState" style="display:inline"><g fill="none" stroke-linecap="butt" stroke-width="2.00">
<path class="icon-shape" d="   M 156.70 88.05   L 161.41 89.49   A 1.83 1.83 0.0 0 0 163.69 88.29   L 163.82 87.90   A 2.09 2.09 0.0 0 0 162.46 85.28   L 156.64 83.42   A 0.88 0.86 -81.7 0 1 156.04 82.60   Q 155.96 72.92 156.06 67.70   Q 156.28 56.77 154.85 52.92   C 152.33 46.10 145.95 40.25 138.40 39.04   C 130.12 37.71 121.41 38.13 108.01 38.34   C 98.07 38.49 89.41 43.05 85.73 52.38   Q 84.23 56.18 84.28 64.43   Q 84.39 82.66 84.40 82.90   A 0.74 0.74 0.0 0 1 83.89 83.63   L 78.54 85.36   A 2.07 2.07 0.0 0 0 77.26 88.12   L 77.31 88.24   A 2.14 2.13 -20.5 0 0 79.95 89.44   L 83.59 88.24   A 0.59 0.59 0.0 0 1 84.37 88.80   Q 84.38 129.79 84.31 141.71   Q 84.28 147.41 85.22 150.45   C 87.42 157.56 92.54 163.03 99.17 165.81   Q 102.77 167.31 111.06 167.25   Q 126.47 167.13 130.44 167.21   Q 136.83 167.35 140.33 166.15   C 150.33 162.70 156.12 154.09 156.09 143.51   Q 155.97 88.71 155.99 88.53   A 0.55 0.55 0.0 0 1 156.70 88.05" stroke="#d9d8da" vector-effect="non-scaling-stroke"/>
<path class="icon-shape" d="   M 30.43 100.63   Q 30.44 103.32 30.61 105.72   Q 32.15 126.94 46.59 142.57   A 2.66 2.66 0.0 0 0 50.05 142.96   L 50.22 142.85   A 1.99 1.98 -39.4 0 0 50.52 139.82   Q 37.78 126.84 35.45 108.51   Q 34.78 103.16 34.77 100.62   Q 34.77 98.08 35.43 92.73   Q 37.69 74.39 50.39 61.37   A 1.99 1.98 39.2 0 0 50.08 58.34   L 49.91 58.23   A 2.66 2.66 0.0 0 0 46.45 58.63   Q 32.06 74.31 30.59 95.54   Q 30.43 97.94 30.43 100.63" stroke="#d9d8da" vector-effect="non-scaling-stroke"/>
<path class="icon-shape" d="   M 45.90 100.42   Q 45.89 110.63 50.31 119.71   Q 53.36 125.99 58.75 131.29   A 2.35 2.34 47.1 0 0 61.91 131.41   L 62.05 131.29   A 2.04 2.03 48.0 0 0 62.20 128.32   C 54.59 120.44 50.49 111.50 50.50 100.42   C 50.51 89.35 54.63 80.42 62.25 72.55   A 2.04 2.03 -47.9 0 0 62.10 69.58   L 61.96 69.46   A 2.35 2.34 -47.0 0 0 58.80 69.57   Q 53.40 74.86 50.34 81.14   Q 45.91 90.21 45.90 100.42" stroke="#d9d8da" vector-effect="non-scaling-stroke"/>
<path class="icon-shape" d="   M 61.28 100.84   C 61.29 108.84 64.19 115.48 69.43 121.38   A 2.36 2.36 0.0 0 0 72.85 121.50   L 72.96 121.39   A 2.16 2.16 0.0 0 0 72.98 118.31   C 68.33 113.68 65.93 107.69 65.93 100.84   C 65.93 93.99 68.32 88.00 72.97 83.36   A 2.16 2.16 0.0 0 0 72.95 80.29   L 72.84 80.18   A 2.36 2.36 0.0 0 0 69.42 80.30   C 64.18 86.20 61.28 92.84 61.28 100.84" stroke="#d9d8da" vector-effect="non-scaling-stroke"/>
<path class="icon-shape" d="   M 120.36 69.76   C 128.36 69.75 145.16 69.41 148.28 79.94   Q 148.66 81.22 149.02 81.32   Q 149.67 81.51 150.71 81.68   A 0.54 0.54 0.0 0 0 151.34 81.15   L 151.34 63.12   A 0.51 0.50 -86.1 0 0 150.91 62.62   Q 134.44 60.25 133.81 43.90   A 0.56 0.55 -0.9 0 0 133.26 43.37   Q 125.66 43.37 120.35 43.37   Q 115.04 43.38 107.44 43.38   A 0.56 0.55 0.8 0 0 106.89 43.91   Q 106.27 60.26 89.80 62.65   A 0.51 0.50 86.0 0 0 89.37 63.15   L 89.39 81.18   A 0.54 0.54 0.0 0 0 90.02 81.71   Q 91.06 81.54 91.71 81.34   Q 92.07 81.24 92.45 79.96   C 95.56 69.43 112.36 69.76 120.36 69.76" stroke="#d9d8da" vector-effect="non-scaling-stroke"/>
<path class="icon-shape" d="   M 98.83 53.72   Q 102.06 50.30 102.30 44.48   A 0.33 0.33 0.0 0 0 101.86 44.15   Q 97.17 45.68 93.94 49.09   Q 90.72 52.49 89.44 57.26   A 0.33 0.33 0.0 0 0 89.79 57.67   Q 95.60 57.13 98.83 53.72" stroke="#d9d8da" vector-effect="non-scaling-stroke"/>
<path class="icon-shape" d="   M 141.85 53.78   Q 145.07 57.20 150.88 57.78   A 0.33 0.33 0.0 0 0 151.23 57.36   Q 149.97 52.58 146.76 49.16   Q 143.55 45.74 138.86 44.19   A 0.33 0.33 0.0 0 0 138.43 44.52   Q 138.63 50.35 141.85 53.78" stroke="#d9d8da" vector-effect="non-scaling-stroke"/>
<path class="icon-shape" d="   M 120.27 95.86   Q 124.26 95.86 128.26 96.18   Q 132.96 96.54 140.06 97.94   A 1.63 1.62 -77.4 0 0 141.94 96.74   Q 143.84 89.11 143.81 82.06   A 3.96 3.96 0.0 0 0 142.30 78.97   Q 139.14 76.49 135.00 75.72   Q 129.02 74.60 120.31 74.59   Q 111.61 74.57 105.62 75.66   Q 101.47 76.41 98.30 78.88   A 3.96 3.96 0.0 0 0 96.78 81.97   Q 96.72 89.02 98.59 96.65   A 1.63 1.62 77.6 0 0 100.47 97.86   Q 107.57 96.49 112.27 96.14   Q 116.28 95.85 120.27 95.86" stroke="#d9d8da" vector-effect="non-scaling-stroke"/>
<path class="icon-shape" d="   M 120.35 158.93   C 111.01 158.94 91.22 158.90 93.31 144.09   C 93.91 139.84 94.35 137.39 94.35 133.22   Q 94.34 120.85 94.10 99.95   A 14.53 14.40 -52.4 0 0 93.69 96.70   Q 92.49 91.68 92.30 86.54   A 0.38 0.37 -10.1 0 0 91.81 86.20   L 89.63 86.90   A 0.58 0.57 81.0 0 0 89.24 87.45   Q 89.41 125.05 89.30 139.27   Q 89.23 147.78 90.66 151.06   Q 94.37 159.53 104.07 161.94   A 7.87 7.59 -36.5 0 0 105.68 162.15   Q 106.56 162.17 120.36 162.15   Q 134.15 162.14 135.03 162.12   A 7.87 7.59 36.3 0 0 136.64 161.90   Q 146.34 159.47 150.03 150.99   Q 151.45 147.71 151.36 139.20   Q 151.22 124.98 151.31 87.38   A 0.58 0.57 -81.1 0 0 150.92 86.83   L 148.73 86.14   A 0.38 0.37 9.9 0 0 148.24 86.48   Q 148.07 91.62 146.88 96.64   A 14.53 14.40 52.3 0 0 146.47 99.89   Q 146.28 120.79 146.30 133.16   C 146.31 137.33 146.75 139.78 147.36 144.03   C 149.48 158.84 129.70 158.92 120.35 158.93" stroke="#d9d8da" vector-effect="non-scaling-stroke"/>
<path class="icon-shape" d="   M 120.31 136.25   C 127.39 136.25 134.28 135.47 140.73 133.26   A 1.19 1.18 -9.6 0 0 141.53 132.14   L 141.53 102.96   A 0.25 0.25 0.0 0 0 141.33 102.71   Q 131.13 100.80 120.29 100.80   Q 109.44 100.81 99.25 102.74   A 0.25 0.25 0.0 0 0 99.05 102.98   L 99.08 132.16   A 1.19 1.18 9.6 0 0 99.88 133.28   C 106.33 135.49 113.22 136.26 120.31 136.25" stroke="#d9d8da" vector-effect="non-scaling-stroke"/>
<path class="icon-shape" d="   M 120.37 141.08   C 113.07 141.11 106.12 140.34 99.32 138.25   A 0.34 0.34 0.0 0 0 98.88 138.55   C 98.47 143.08 95.96 149.35 102.24 151.82   C 107.95 154.07 113.60 154.19 120.43 154.16   C 127.26 154.13 132.91 153.95 138.60 151.65   C 144.86 149.12 142.29 142.87 141.83 138.34   A 0.34 0.34 0.0 0 0 141.39 138.05   C 134.62 140.20 127.67 141.04 120.37 141.08" stroke="#d9d8da" vector-effect="non-scaling-stroke"/>
</g>
<path class="icon-shape" d="   M 229.00 0.00   L 229.00 204.00   L 0.00 204.00   L 0.00 0.00   L 229.00 0.00   Z   M 156.70 88.05   L 161.41 89.49   A 1.83 1.83 0.0 0 0 163.69 88.29   L 163.82 87.90   A 2.09 2.09 0.0 0 0 162.46 85.28   L 156.64 83.42   A 0.88 0.86 -81.7 0 1 156.04 82.60   Q 155.96 72.92 156.06 67.70   Q 156.28 56.77 154.85 52.92   C 152.33 46.10 145.95 40.25 138.40 39.04   C 130.12 37.71 121.41 38.13 108.01 38.34   C 98.07 38.49 89.41 43.05 85.73 52.38   Q 84.23 56.18 84.28 64.43   Q 84.39 82.66 84.40 82.90   A 0.74 0.74 0.0 0 1 83.89 83.63   L 78.54 85.36   A 2.07 2.07 0.0 0 0 77.26 88.12   L 77.31 88.24   A 2.14 2.13 -20.5 0 0 79.95 89.44   L 83.59 88.24   A 0.59 0.59 0.0 0 1 84.37 88.80   Q 84.38 129.79 84.31 141.71   Q 84.28 147.41 85.22 150.45   C 87.42 157.56 92.54 163.03 99.17 165.81   Q 102.77 167.31 111.06 167.25   Q 126.47 167.13 130.44 167.21   Q 136.83 167.35 140.33 166.15   C 150.33 162.70 156.12 154.09 156.09 143.51   Q 155.97 88.71 155.99 88.53   A 0.55 0.55 0.0 0 1 156.70 88.05   Z   M 30.43 100.63   Q 30.44 103.32 30.61 105.72   Q 32.15 126.94 46.59 142.57   A 2.66 2.66 0.0 0 0 50.05 142.96   L 50.22 142.85   A 1.99 1.98 -39.4 0 0 50.52 139.82   Q 37.78 126.84 35.45 108.51   Q 34.78 103.16 34.77 100.62   Q 34.77 98.08 35.43 92.73   Q 37.69 74.39 50.39 61.37   A 1.99 1.98 39.2 0 0 50.08 58.34   L 49.91 58.23   A 2.66 2.66 0.0 0 0 46.45 58.63   Q 32.06 74.31 30.59 95.54   Q 30.43 97.94 30.43 100.63   Z   M 45.90 100.42   Q 45.89 110.63 50.31 119.71   Q 53.36 125.99 58.75 131.29   A 2.35 2.34 47.1 0 0 61.91 131.41   L 62.05 131.29   A 2.04 2.03 48.0 0 0 62.20 128.32   C 54.59 120.44 50.49 111.50 50.50 100.42   C 50.51 89.35 54.63 80.42 62.25 72.55   A 2.04 2.03 -47.9 0 0 62.10 69.58   L 61.96 69.46   A 2.35 2.34 -47.0 0 0 58.80 69.57   Q 53.40 74.86 50.34 81.14   Q 45.91 90.21 45.90 100.42   Z   M 61.28 100.84   C 61.29 108.84 64.19 115.48 69.43 121.38   A 2.36 2.36 0.0 0 0 72.85 121.50   L 72.96 121.39   A 2.16 2.16 0.0 0 0 72.98 118.31   C 68.33 113.68 65.93 107.69 65.93 100.84   C 65.93 93.99 68.32 88.00 72.97 83.36   A 2.16 2.16 0.0 0 0 72.95 80.29   L 72.84 80.18   A 2.36 2.36 0.0 0 0 69.42 80.30   C 64.18 86.20 61.28 92.84 61.28 100.84   Z" fill="#ffffff"/>
<path class="icon-shape" d="   M 155.99 88.53   Q 155.97 88.71 156.09 143.51   C 156.12 154.09 150.33 162.70 140.33 166.15   Q 136.83 167.35 130.44 167.21   Q 126.47 167.13 111.06 167.25   Q 102.77 167.31 99.17 165.81   C 92.54 163.03 87.42 157.56 85.22 150.45   Q 84.28 147.41 84.31 141.71   Q 84.38 129.79 84.37 88.80   A 0.59 0.59 0.0 0 0 83.59 88.24   L 79.95 89.44   A 2.14 2.13 -20.5 0 1 77.31 88.24   L 77.26 88.12   A 2.07 2.07 0.0 0 1 78.54 85.36   L 83.89 83.63   A 0.74 0.74 0.0 0 0 84.40 82.90   Q 84.39 82.66 84.28 64.43   Q 84.23 56.18 85.73 52.38   C 89.41 43.05 98.07 38.49 108.01 38.34   C 121.41 38.13 130.12 37.71 138.40 39.04   C 145.95 40.25 152.33 46.10 154.85 52.92   Q 156.28 56.77 156.06 67.70   Q 155.96 72.92 156.04 82.60   A 0.88 0.86 -81.7 0 0 156.64 83.42   L 162.46 85.28   A 2.09 2.09 0.0 0 1 163.82 87.90   L 163.69 88.29   A 1.83 1.83 0.0 0 1 161.41 89.49   L 156.70 88.05   A 0.55 0.55 0.0 0 0 155.99 88.53   Z   M 120.36 69.76   C 128.36 69.75 145.16 69.41 148.28 79.94   Q 148.66 81.22 149.02 81.32   Q 149.67 81.51 150.71 81.68   A 0.54 0.54 0.0 0 0 151.34 81.15   L 151.34 63.12   A 0.51 0.50 -86.1 0 0 150.91 62.62   Q 134.44 60.25 133.81 43.90   A 0.56 0.55 -0.9 0 0 133.26 43.37   Q 125.66 43.37 120.35 43.37   Q 115.04 43.38 107.44 43.38   A 0.56 0.55 0.8 0 0 106.89 43.91   Q 106.27 60.26 89.80 62.65   A 0.51 0.50 86.0 0 0 89.37 63.15   L 89.39 81.18   A 0.54 0.54 0.0 0 0 90.02 81.71   Q 91.06 81.54 91.71 81.34   Q 92.07 81.24 92.45 79.96   C 95.56 69.43 112.36 69.76 120.36 69.76   Z   M 98.83 53.72   Q 102.06 50.30 102.30 44.48   A 0.33 0.33 0.0 0 0 101.86 44.15   Q 97.17 45.68 93.94 49.09   Q 90.72 52.49 89.44 57.26   A 0.33 0.33 0.0 0 0 89.79 57.67   Q 95.60 57.13 98.83 53.72   Z   M 141.85 53.78   Q 145.07 57.20 150.88 57.78   A 0.33 0.33 0.0 0 0 151.23 57.36   Q 149.97 52.58 146.76 49.16   Q 143.55 45.74 138.86 44.19   A 0.33 0.33 0.0 0 0 138.43 44.52   Q 138.63 50.35 141.85 53.78   Z   M 120.27 95.86   Q 124.26 95.86 128.26 96.18   Q 132.96 96.54 140.06 97.94   A 1.63 1.62 -77.4 0 0 141.94 96.74   Q 143.84 89.11 143.81 82.06   A 3.96 3.96 0.0 0 0 142.30 78.97   Q 139.14 76.49 135.00 75.72   Q 129.02 74.60 120.31 74.59   Q 111.61 74.57 105.62 75.66   Q 101.47 76.41 98.30 78.88   A 3.96 3.96 0.0 0 0 96.78 81.97   Q 96.72 89.02 98.59 96.65   A 1.63 1.62 77.6 0 0 100.47 97.86   Q 107.57 96.49 112.27 96.14   Q 116.28 95.85 120.27 95.86   Z   M 120.35 158.93   C 111.01 158.94 91.22 158.90 93.31 144.09   C 93.91 139.84 94.35 137.39 94.35 133.22   Q 94.34 120.85 94.10 99.95   A 14.53 14.40 -52.4 0 0 93.69 96.70   Q 92.49 91.68 92.30 86.54   A 0.38 0.37 -10.1 0 0 91.81 86.20   L 89.63 86.90   A 0.58 0.57 81.0 0 0 89.24 87.45   Q 89.41 125.05 89.30 139.27   Q 89.23 147.78 90.66 151.06   Q 94.37 159.53 104.07 161.94   A 7.87 7.59 -36.5 0 0 105.68 162.15   Q 106.56 162.17 120.36 162.15   Q 134.15 162.14 135.03 162.12   A 7.87 7.59 36.3 0 0 136.64 161.90   Q 146.34 159.47 150.03 150.99   Q 151.45 147.71 151.36 139.20   Q 151.22 124.98 151.31 87.38   A 0.58 0.57 -81.1 0 0 150.92 86.83   L 148.73 86.14   A 0.38 0.37 9.9 0 0 148.24 86.48   Q 148.07 91.62 146.88 96.64   A 14.53 14.40 52.3 0 0 146.47 99.89   Q 146.28 120.79 146.30 133.16   C 146.31 137.33 146.75 139.78 147.36 144.03   C 149.48 158.84 129.70 158.92 120.35 158.93   Z   M 120.31 136.25   C 127.39 136.25 134.28 135.47 140.73 133.26   A 1.19 1.18 -9.6 0 0 141.53 132.14   L 141.53 102.96   A 0.25 0.25 0.0 0 0 141.33 102.71   Q 131.13 100.80 120.29 100.80   Q 109.44 100.81 99.25 102.74   A 0.25 0.25 0.0 0 0 99.05 102.98   L 99.08 132.16   A 1.19 1.18 9.6 0 0 99.88 133.28   C 106.33 135.49 113.22 136.26 120.31 136.25   Z   M 120.37 141.08   C 113.07 141.11 106.12 140.34 99.32 138.25   A 0.34 0.34 0.0 0 0 98.88 138.55   C 98.47 143.08 95.96 149.35 102.24 151.82   C 107.95 154.07 113.60 154.19 120.43 154.16   C 127.26 154.13 132.91 153.95 138.60 151.65   C 144.86 149.12 142.29 142.87 141.83 138.34   A 0.34 0.34 0.0 0 0 141.39 138.05   C 134.62 140.20 127.67 141.04 120.37 141.08   Z" fill="#b2b0b4"/>
<path class="icon-shape" d="   M 120.35 43.37   Q 125.66 43.37 133.26 43.37   A 0.56 0.55 -0.9 0 1 133.81 43.90   Q 134.44 60.25 150.91 62.62   A 0.51 0.50 -86.1 0 1 151.34 63.12   L 151.34 81.15   A 0.54 0.54 0.0 0 1 150.71 81.68   Q 149.67 81.51 149.02 81.32   Q 148.66 81.22 148.28 79.94   C 145.16 69.41 128.36 69.75 120.36 69.76   C 112.36 69.76 95.56 69.43 92.45 79.96   Q 92.07 81.24 91.71 81.34   Q 91.06 81.54 90.02 81.71   A 0.54 0.54 0.0 0 1 89.39 81.18   L 89.37 63.15   A 0.51 0.50 86.0 0 1 89.80 62.65   Q 106.27 60.26 106.89 43.91   A 0.56 0.55 0.8 0 1 107.44 43.38   Q 115.04 43.38 120.35 43.37   Z" fill="#ffffff"/>
<path class="icon-shape" d="   M 98.83 53.72   Q 95.60 57.13 89.79 57.67   A 0.33 0.33 0.0 0 1 89.44 57.26   Q 90.72 52.49 93.94 49.09   Q 97.17 45.68 101.86 44.15   A 0.33 0.33 0.0 0 1 102.30 44.48   Q 102.06 50.30 98.83 53.72   Z" fill="#ffffff"/>
<path class="icon-shape" d="   M 146.76 49.16   Q 149.97 52.58 151.23 57.36   A 0.33 0.33 0.0 0 1 150.88 57.78   Q 145.07 57.20 141.85 53.78   Q 138.63 50.35 138.43 44.52   A 0.33 0.33 0.0 0 1 138.86 44.19   Q 143.55 45.74 146.76 49.16   Z" fill="#ffffff"/>
<path class="icon-shape" d="   M 34.77 100.62   Q 34.78 103.16 35.45 108.51   Q 37.78 126.84 50.52 139.82   A 1.99 1.98 -39.4 0 1 50.22 142.85   L 50.05 142.96   A 2.66 2.66 0.0 0 1 46.59 142.57   Q 32.15 126.94 30.61 105.72   Q 30.44 103.32 30.43 100.63   Q 30.43 97.94 30.59 95.54   Q 32.06 74.31 46.45 58.63   A 2.66 2.66 0.0 0 1 49.91 58.23   L 50.08 58.34   A 1.99 1.98 39.2 0 1 50.39 61.37   Q 37.69 74.39 35.43 92.73   Q 34.77 98.08 34.77 100.62   Z" fill="#b2b0b4"/>
<path class="icon-shape" d="   M 50.50 100.42   C 50.49 111.50 54.59 120.44 62.20 128.32   A 2.04 2.03 48.0 0 1 62.05 131.29   L 61.91 131.41   A 2.35 2.34 47.1 0 1 58.75 131.29   Q 53.36 125.99 50.31 119.71   Q 45.89 110.63 45.90 100.42   Q 45.91 90.21 50.34 81.14   Q 53.40 74.86 58.80 69.57   A 2.35 2.34 -47.0 0 1 61.96 69.46   L 62.10 69.58   A 2.04 2.03 -47.9 0 1 62.25 72.55   C 54.63 80.42 50.51 89.35 50.50 100.42   Z" fill="#b2b0b4"/>
<path class="icon-shape" d="   M 120.31 74.59   Q 129.02 74.60 135.00 75.72   Q 139.14 76.49 142.30 78.97   A 3.96 3.96 0.0 0 1 143.81 82.06   Q 143.84 89.11 141.94 96.74   A 1.63 1.62 -77.4 0 1 140.06 97.94   Q 132.96 96.54 128.26 96.18   Q 124.26 95.86 120.27 95.86   Q 116.28 95.85 112.27 96.14   Q 107.57 96.49 100.47 97.86   A 1.63 1.62 77.6 0 1 98.59 96.65   Q 96.72 89.02 96.78 81.97   A 3.96 3.96 0.0 0 1 98.30 78.88   Q 101.47 76.41 105.62 75.66   Q 111.61 74.57 120.31 74.59   Z" fill="#ffffff"/>
<path class="icon-shape" d="   M 65.93 100.84   C 65.93 107.69 68.33 113.68 72.98 118.31   A 2.16 2.16 0.0 0 1 72.96 121.39   L 72.85 121.50   A 2.36 2.36 0.0 0 1 69.43 121.38   C 64.19 115.48 61.29 108.84 61.28 100.84   C 61.28 92.84 64.18 86.20 69.42 80.30   A 2.36 2.36 0.0 0 1 72.84 80.18   L 72.95 80.29   A 2.16 2.16 0.0 0 1 72.97 83.36   C 68.32 88.00 65.93 93.99 65.93 100.84   Z" fill="#b2b0b4"/>
<path class="icon-shape" d="   M 120.36 162.15   Q 106.56 162.17 105.68 162.15   A 7.87 7.59 -36.5 0 1 104.07 161.94   Q 94.37 159.53 90.66 151.06   Q 89.23 147.78 89.30 139.27   Q 89.41 125.05 89.24 87.45   A 0.58 0.57 81.0 0 1 89.63 86.90   L 91.81 86.20   A 0.38 0.37 -10.1 0 1 92.30 86.54   Q 92.49 91.68 93.69 96.70   A 14.53 14.40 -52.4 0 1 94.10 99.95   Q 94.34 120.85 94.35 133.22   C 94.35 137.39 93.91 139.84 93.31 144.09   C 91.22 158.90 111.01 158.94 120.35 158.93   C 129.70 158.92 149.48 158.84 147.36 144.03   C 146.75 139.78 146.31 137.33 146.30 133.16   Q 146.28 120.79 146.47 99.89   A 14.53 14.40 52.3 0 1 146.88 96.64   Q 148.07 91.62 148.24 86.48   A 0.38 0.37 9.9 0 1 148.73 86.14   L 150.92 86.83   A 0.58 0.57 -81.1 0 1 151.31 87.38   Q 151.22 124.98 151.36 139.20   Q 151.45 147.71 150.03 150.99   Q 146.34 159.47 136.64 161.90   A 7.87 7.59 36.3 0 1 135.03 162.12   Q 134.15 162.14 120.36 162.15   Z" fill="#ffffff"/>
<path class="icon-shape" d="   M 120.29 100.80   Q 131.13 100.80 141.33 102.71   A 0.25 0.25 0.0 0 1 141.53 102.96   L 141.53 132.14   A 1.19 1.18 -9.6 0 1 140.73 133.26   C 134.28 135.47 127.39 136.25 120.31 136.25   C 113.22 136.26 106.33 135.49 99.88 133.28   A 1.19 1.18 9.6 0 1 99.08 132.16   L 99.05 102.98   A 0.25 0.25 0.0 0 1 99.25 102.74   Q 109.44 100.81 120.29 100.80   Z" fill="#ffffff"/>
<path class="icon-shape" d="   M 120.43 154.16   C 113.60 154.19 107.95 154.07 102.24 151.82   C 95.96 149.35 98.47 143.08 98.88 138.55   A 0.34 0.34 0.0 0 1 99.32 138.25   C 106.12 140.34 113.07 141.11 120.37 141.08   C 127.67 141.04 134.62 140.20 141.39 138.05   A 0.34 0.34 0.0 0 1 141.83 138.34   C 142.29 142.87 144.86 149.12 138.60 151.65   C 132.91 153.95 127.26 154.13 120.43 154.16   Z" fill="#ffffff"/>
</g><g id="onState" style="display:none"><g fill="none" stroke-linecap="butt" stroke-width="2.00">
<path class="icon-shape" d="   M 39.70 134.30   Q 43.28 139.06 46.50 142.49   Q 48.74 144.87 50.76 142.62   A 1.42 1.42 0.0 0 0 51.12 141.73   Q 51.22 139.68 49.04 138.19" stroke="#808080" vector-effect="non-scaling-stroke"/>
<path class="icon-shape" d="   M 49.04 138.19   C 61.30 139.29 73.69 139.48 84.28 133.29" stroke="#fef6f6" vector-effect="non-scaling-stroke"/>
<path class="icon-shape" d="   M 84.28 133.29   C 84.25 139.10 83.63 145.95 85.37 151.07   Q 89.73 163.92 103.71 167.10   A 5.59 5.26 -37.3 0 0 104.85 167.22   Q 120.66 167.12 130.52 167.25   Q 137.67 167.34 141.54 165.81   C 150.36 162.32 155.97 154.20 156.06 144.50   Q 156.07 144.24 156.02 88.23   A 0.24 0.24 0.0 0 1 156.33 88.00   L 161.23 89.53   A 2.12 2.11 17.3 0 0 163.87 88.15   L 163.88 88.13   A 2.34 2.34 0.0 0 0 162.37 85.15   L 156.56 83.29   A 0.82 0.82 0.0 0 1 156.00 82.50   Q 156.10 77.66 156.05 59.75   C 156.02 49.23 148.03 40.44 137.74 38.82   C 130.57 37.70 122.21 38.10 107.25 38.19   Q 103.17 38.21 97.98 40.06" stroke="#808080" vector-effect="non-scaling-stroke"/>
<path class="icon-shape" d="   M 97.98 40.06   C 82.35 26.83 61.77 22.59 42.46 28.98   C 13.92 38.43 -1.69 68.68 6.06 97.51   Q 10.35 113.51 23.76 125.49   Q 31.06 132.01 39.70 134.30" stroke="#fef6f6" vector-effect="non-scaling-stroke"/>
<path class="icon-shape" d="   M 97.98 40.06   Q 88.85 44.01 85.70 52.53   Q 84.04 57.03 84.21 65.14   Q 84.39 73.51 84.30 82.86   A 0.80 0.79 -9.2 0 1 83.75 83.61   L 78.37 85.39   A 1.90 1.89 -18.4 0 0 77.17 87.78   L 77.32 88.24   A 2.03 2.03 0.0 0 0 79.89 89.53   L 83.87 88.21   A 0.31 0.31 0.0 0 1 84.28 88.51   L 84.28 133.29" stroke="#7f7777" vector-effect="non-scaling-stroke"/>
<path class="icon-shape" d="   M 49.04 138.19   C 36.08 124.03 32.19 104.05 36.85 85.53   Q 40.36 71.58 50.35 61.60   A 2.21 2.20 -47.7 0 0 50.20 58.35   L 50.07 58.24   A 2.54 2.53 -48.3 0 0 46.61 58.45   Q 36.15 69.52 32.47 83.71   Q 25.69 109.88 39.70 134.30" stroke="#7f7777" vector-effect="non-scaling-stroke"/>
<path class="icon-shape" d="   M 45.92 100.43   C 45.91 112.22 50.14 122.70 58.55 131.20   A 2.56 2.55 48.9 0 0 61.91 131.43   L 62.07 131.30   A 2.00 2.00 0.0 0 0 62.26 128.29   C 54.64 120.74 50.54 111.26 50.55 100.43   C 50.55 89.61 54.66 80.13 62.30 72.59   A 2.00 2.00 0.0 0 0 62.11 69.58   L 61.95 69.45   A 2.56 2.55 -48.8 0 0 58.58 69.68   C 50.17 78.17 45.92 88.64 45.92 100.43" stroke="#7f7777" vector-effect="non-scaling-stroke"/>
<path class="icon-shape" d="   M 61.22 100.82   Q 61.21 111.66 68.24 120.05   C 70.26 122.47 71.89 123.38 73.84 120.27   A 0.82 0.81 40.0 0 0 73.75 119.27   C 68.78 113.98 65.95 108.37 65.95 100.82   C 65.96 93.28 68.79 87.67 73.77 82.38   A 0.82 0.81 -39.9 0 0 73.86 81.39   C 71.91 78.27 70.28 79.18 68.26 81.60   Q 61.22 89.98 61.22 100.82" stroke="#7f7777" vector-effect="non-scaling-stroke"/>
<path class="icon-shape" d="   M 120.35 43.44   Q 108.37 43.44 107.63 43.51   A 0.75 0.74 1.8 0 0 106.96 44.13   C 106.62 46.15 106.71 48.22 105.99 50.41   C 103.65 57.49 97.44 61.94 89.93 62.71   A 0.59 0.57 -3.4 0 0 89.41 63.28   L 89.41 81.40   A 0.37 0.37 0.0 0 0 89.90 81.75   L 91.95 81.07   A 0.49 0.47 85.4 0 0 92.28 80.67   C 93.26 73.56 102.99 70.47 109.02 70.13   Q 117.46 69.66 120.35 69.66   Q 123.25 69.66 131.68 70.13   C 137.72 70.47 147.45 73.55 148.43 80.66   A 0.49 0.47 -85.4 0 0 148.76 81.06   L 150.81 81.74   A 0.37 0.37 0.0 0 0 151.30 81.39   L 151.30 63.27   A 0.59 0.57 3.4 0 0 150.78 62.70   C 143.27 61.94 137.06 57.49 134.71 50.41   C 133.99 48.22 134.08 46.15 133.74 44.13   A 0.75 0.74 -1.8 0 0 133.07 43.50   Q 132.34 43.44 120.35 43.44" stroke="#808080" vector-effect="non-scaling-stroke"/>
<path class="icon-shape" d="   M 93.95 49.12   Q 90.94 52.29 89.44 57.16   A 0.36 0.36 0.0 0 0 89.82 57.63   Q 95.62 57.04 98.78 53.70   Q 101.95 50.36 102.22 44.55   A 0.36 0.36 0.0 0 0 101.73 44.19   Q 96.96 45.95 93.95 49.12" stroke="#808080" vector-effect="non-scaling-stroke"/>
<path class="icon-shape" d="   M 146.73 49.20   Q 143.76 46.02 139.02 44.24   A 0.36 0.36 0.0 0 0 138.53 44.60   Q 138.77 50.39 141.90 53.73   Q 145.03 57.07 150.79 57.69   A 0.36 0.36 0.0 0 0 151.18 57.22   Q 149.71 52.37 146.73 49.20" stroke="#808080" vector-effect="non-scaling-stroke"/>
<path class="icon-shape" d="   M 115.70 95.98   Q 126.48 95.60 131.13 96.43   Q 135.64 97.23 140.43 97.72   A 1.43 1.42 -81.6 0 0 141.97 96.57   Q 143.33 89.60 143.94 83.62   C 144.43 78.79 139.52 76.65 135.56 75.94   Q 126.12 74.24 116.53 74.79" stroke="#808080" vector-effect="non-scaling-stroke"/>
<path class="icon-shape" d="   M 116.53 74.79   C 110.21 74.58 101.65 75.19 97.26 80.31   A 1.40 1.40 0.0 0 0 96.92 81.17   Q 96.64 89.54 98.75 97.04   A 1.01 1.01 0.0 0 0 99.84 97.77   L 115.70 95.98" stroke="#7f7777" vector-effect="non-scaling-stroke"/>
<path class="icon-shape" d="   M 116.53 74.79   Q 117.50 85.36 115.70 95.98" stroke="#fef6f6" vector-effect="non-scaling-stroke"/>
<path class="icon-shape" d="   M 120.37 158.96   C 111.33 158.97 95.69 159.22 93.11 147.92   Q 92.85 146.75 93.81 140.12   Q 94.37 136.27 94.34 132.25   Q 94.18 105.67 94.05 99.06   A 7.59 7.58 -53.1 0 0 93.80 97.29   Q 92.33 91.68 92.28 86.50   A 0.29 0.29 0.0 0 0 91.90 86.23   L 89.54 87.01   A 0.32 0.31 -8.9 0 0 89.32 87.31   L 89.43 146.15   A 4.05 3.66 42.1 0 0 89.51 146.93   Q 92.03 158.82 104.08 161.98   A 3.60 3.39 51.0 0 0 104.93 162.09   Q 107.94 162.16 120.38 162.14   Q 132.82 162.12 135.83 162.05   A 3.60 3.39 -51.2 0 0 136.68 161.93   Q 148.72 158.74 151.20 146.84   A 4.05 3.66 -42.2 0 0 151.28 146.06   L 151.23 87.22   A 0.32 0.31 8.7 0 0 151.01 86.92   L 148.64 86.15   A 0.29 0.29 0.0 0 0 148.27 86.42   Q 148.23 91.60 146.78 97.22   A 7.59 7.58 52.9 0 0 146.53 98.99   Q 146.42 105.60 146.33 132.18   Q 146.31 136.20 146.88 140.05   Q 147.86 146.67 147.60 147.85   C 145.06 159.15 129.42 158.95 120.37 158.96" stroke="#808080" vector-effect="non-scaling-stroke"/>
<path class="icon-shape" d="   M 120.31 136.19   C 127.47 136.19 134.04 135.46 140.86 133.14   A 0.92 0.91 80.8 0 0 141.48 132.27   L 141.48 103.30   A 0.57 0.57 0.0 0 0 141.02 102.74   Q 130.89 100.84 120.30 100.84   Q 109.70 100.84 99.58 102.75   A 0.57 0.57 0.0 0 0 99.11 103.31   L 99.13 132.28   A 0.92 0.91 -80.8 0 0 99.75 133.15   C 106.57 135.47 113.14 136.19 120.31 136.19" stroke="#808080" vector-effect="non-scaling-stroke"/>
<path class="icon-shape" d="   M 120.33 141.09   C 113.05 141.12 106.32 140.46 99.55 138.37   A 0.54 0.54 0.0 0 0 98.85 138.82   Q 98.34 143.44 98.09 145.78   C 97.43 152.06 105.96 152.88 110.01 153.71   C 113.21 154.37 117.04 154.11 120.38 154.10   C 123.71 154.09 127.54 154.32 130.74 153.64   C 134.78 152.78 143.31 151.90 142.60 145.62   Q 142.34 143.28 141.79 138.67   A 0.54 0.54 0.0 0 0 141.09 138.22   C 134.33 140.36 127.61 141.07 120.33 141.09" stroke="#808080" vector-effect="non-scaling-stroke"/>
</g>
<path class="icon-shape" d="   M 229.00 0.00   L 229.00 204.00   L 0.00 204.00   L 0.00 0.00   L 229.00 0.00   Z   M 39.70 134.30   Q 43.28 139.06 46.50 142.49   Q 48.74 144.87 50.76 142.62   A 1.42 1.42 0.0 0 0 51.12 141.73   Q 51.22 139.68 49.04 138.19   C 61.30 139.29 73.69 139.48 84.28 133.29   C 84.25 139.10 83.63 145.95 85.37 151.07   Q 89.73 163.92 103.71 167.10   A 5.59 5.26 -37.3 0 0 104.85 167.22   Q 120.66 167.12 130.52 167.25   Q 137.67 167.34 141.54 165.81   C 150.36 162.32 155.97 154.20 156.06 144.50   Q 156.07 144.24 156.02 88.23   A 0.24 0.24 0.0 0 1 156.33 88.00   L 161.23 89.53   A 2.12 2.11 17.3 0 0 163.87 88.15   L 163.88 88.13   A 2.34 2.34 0.0 0 0 162.37 85.15   L 156.56 83.29   A 0.82 0.82 0.0 0 1 156.00 82.50   Q 156.10 77.66 156.05 59.75   C 156.02 49.23 148.03 40.44 137.74 38.82   C 130.57 37.70 122.21 38.10 107.25 38.19   Q 103.17 38.21 97.98 40.06   C 82.35 26.83 61.77 22.59 42.46 28.98   C 13.92 38.43 -1.69 68.68 6.06 97.51   Q 10.35 113.51 23.76 125.49   Q 31.06 132.01 39.70 134.30   Z" fill="#ffffff"/>
<path class="icon-shape" d="   M 97.98 40.06   Q 88.85 44.01 85.70 52.53   Q 84.04 57.03 84.21 65.14   Q 84.39 73.51 84.30 82.86   A 0.80 0.79 -9.2 0 1 83.75 83.61   L 78.37 85.39   A 1.90 1.89 -18.4 0 0 77.17 87.78   L 77.32 88.24   A 2.03 2.03 0.0 0 0 79.89 89.53   L 83.87 88.21   A 0.31 0.31 0.0 0 1 84.28 88.51   L 84.28 133.29   C 73.69 139.48 61.30 139.29 49.04 138.19   C 36.08 124.03 32.19 104.05 36.85 85.53   Q 40.36 71.58 50.35 61.60   A 2.21 2.20 -47.7 0 0 50.20 58.35   L 50.07 58.24   A 2.54 2.53 -48.3 0 0 46.61 58.45   Q 36.15 69.52 32.47 83.71   Q 25.69 109.88 39.70 134.30   Q 31.06 132.01 23.76 125.49   Q 10.35 113.51 6.06 97.51   C -1.69 68.68 13.92 38.43 42.46 28.98   C 61.77 22.59 82.35 26.83 97.98 40.06   Z   M 45.92 100.43   C 45.91 112.22 50.14 122.70 58.55 131.20   A 2.56 2.55 48.9 0 0 61.91 131.43   L 62.07 131.30   A 2.00 2.00 0.0 0 0 62.26 128.29   C 54.64 120.74 50.54 111.26 50.55 100.43   C 50.55 89.61 54.66 80.13 62.30 72.59   A 2.00 2.00 0.0 0 0 62.11 69.58   L 61.95 69.45   A 2.56 2.55 -48.8 0 0 58.58 69.68   C 50.17 78.17 45.92 88.64 45.92 100.43   Z   M 61.22 100.82   Q 61.21 111.66 68.24 120.05   C 70.26 122.47 71.89 123.38 73.84 120.27   A 0.82 0.81 40.0 0 0 73.75 119.27   C 68.78 113.98 65.95 108.37 65.95 100.82   C 65.96 93.28 68.79 87.67 73.77 82.38   A 0.82 0.81 -39.9 0 0 73.86 81.39   C 71.91 78.27 70.28 79.18 68.26 81.60   Q 61.22 89.98 61.22 100.82   Z" fill="#fdedec"/>
<path class="icon-shape" d="   M 84.28 133.29   L 84.28 88.51   A 0.31 0.31 0.0 0 0 83.87 88.21   L 79.89 89.53   A 2.03 2.03 0.0 0 1 77.32 88.24   L 77.17 87.78   A 1.90 1.89 -18.4 0 1 78.37 85.39   L 83.75 83.61   A 0.80 0.79 -9.2 0 0 84.30 82.86   Q 84.39 73.51 84.21 65.14   Q 84.04 57.03 85.70 52.53   Q 88.85 44.01 97.98 40.06   Q 103.17 38.21 107.25 38.19   C 122.21 38.10 130.57 37.70 137.74 38.82   C 148.03 40.44 156.02 49.23 156.05 59.75   Q 156.10 77.66 156.00 82.50   A 0.82 0.82 0.0 0 0 156.56 83.29   L 162.37 85.15   A 2.34 2.34 0.0 0 1 163.88 88.13   L 163.87 88.15   A 2.12 2.11 17.3 0 1 161.23 89.53   L 156.33 88.00   A 0.24 0.24 0.0 0 0 156.02 88.23   Q 156.07 144.24 156.06 144.50   C 155.97 154.20 150.36 162.32 141.54 165.81   Q 137.67 167.34 130.52 167.25   Q 120.66 167.12 104.85 167.22   A 5.59 5.26 -37.3 0 1 103.71 167.10   Q 89.73 163.92 85.37 151.07   C 83.63 145.95 84.25 139.10 84.28 133.29   Z   M 120.35 43.44   Q 108.37 43.44 107.63 43.51   A 0.75 0.74 1.8 0 0 106.96 44.13   C 106.62 46.15 106.71 48.22 105.99 50.41   C 103.65 57.49 97.44 61.94 89.93 62.71   A 0.59 0.57 -3.4 0 0 89.41 63.28   L 89.41 81.40   A 0.37 0.37 0.0 0 0 89.90 81.75   L 91.95 81.07   A 0.49 0.47 85.4 0 0 92.28 80.67   C 93.26 73.56 102.99 70.47 109.02 70.13   Q 117.46 69.66 120.35 69.66   Q 123.25 69.66 131.68 70.13   C 137.72 70.47 147.45 73.55 148.43 80.66   A 0.49 0.47 -85.4 0 0 148.76 81.06   L 150.81 81.74   A 0.37 0.37 0.0 0 0 151.30 81.39   L 151.30 63.27   A 0.59 0.57 3.4 0 0 150.78 62.70   C 143.27 61.94 137.06 57.49 134.71 50.41   C 133.99 48.22 134.08 46.15 133.74 44.13   A 0.75 0.74 -1.8 0 0 133.07 43.50   Q 132.34 43.44 120.35 43.44   Z   M 93.95 49.12   Q 90.94 52.29 89.44 57.16   A 0.36 0.36 0.0 0 0 89.82 57.63   Q 95.62 57.04 98.78 53.70   Q 101.95 50.36 102.22 44.55   A 0.36 0.36 0.0 0 0 101.73 44.19   Q 96.96 45.95 93.95 49.12   Z   M 146.73 49.20   Q 143.76 46.02 139.02 44.24   A 0.36 0.36 0.0 0 0 138.53 44.60   Q 138.77 50.39 141.90 53.73   Q 145.03 57.07 150.79 57.69   A 0.36 0.36 0.0 0 0 151.18 57.22   Q 149.71 52.37 146.73 49.20   Z   M 115.70 95.98   Q 126.48 95.60 131.13 96.43   Q 135.64 97.23 140.43 97.72   A 1.43 1.42 -81.6 0 0 141.97 96.57   Q 143.33 89.60 143.94 83.62   C 144.43 78.79 139.52 76.65 135.56 75.94   Q 126.12 74.24 116.53 74.79   C 110.21 74.58 101.65 75.19 97.26 80.31   A 1.40 1.40 0.0 0 0 96.92 81.17   Q 96.64 89.54 98.75 97.04   A 1.01 1.01 0.0 0 0 99.84 97.77   L 115.70 95.98   Z   M 120.37 158.96   C 111.33 158.97 95.69 159.22 93.11 147.92   Q 92.85 146.75 93.81 140.12   Q 94.37 136.27 94.34 132.25   Q 94.18 105.67 94.05 99.06   A 7.59 7.58 -53.1 0 0 93.80 97.29   Q 92.33 91.68 92.28 86.50   A 0.29 0.29 0.0 0 0 91.90 86.23   L 89.54 87.01   A 0.32 0.31 -8.9 0 0 89.32 87.31   L 89.43 146.15   A 4.05 3.66 42.1 0 0 89.51 146.93   Q 92.03 158.82 104.08 161.98   A 3.60 3.39 51.0 0 0 104.93 162.09   Q 107.94 162.16 120.38 162.14   Q 132.82 162.12 135.83 162.05   A 3.60 3.39 -51.2 0 0 136.68 161.93   Q 148.72 158.74 151.20 146.84   A 4.05 3.66 -42.2 0 0 151.28 146.06   L 151.23 87.22   A 0.32 0.31 8.7 0 0 151.01 86.92   L 148.64 86.15   A 0.29 0.29 0.0 0 0 148.27 86.42   Q 148.23 91.60 146.78 97.22   A 7.59 7.58 52.9 0 0 146.53 98.99   Q 146.42 105.60 146.33 132.18   Q 146.31 136.20 146.88 140.05   Q 147.86 146.67 147.60 147.85   C 145.06 159.15 129.42 158.95 120.37 158.96   Z   M 120.31 136.19   C 127.47 136.19 134.04 135.46 140.86 133.14   A 0.92 0.91 80.8 0 0 141.48 132.27   L 141.48 103.30   A 0.57 0.57 0.0 0 0 141.02 102.74   Q 130.89 100.84 120.30 100.84   Q 109.70 100.84 99.58 102.75   A 0.57 0.57 0.0 0 0 99.11 103.31   L 99.13 132.28   A 0.92 0.91 -80.8 0 0 99.75 133.15   C 106.57 135.47 113.14 136.19 120.31 136.19   Z   M 120.33 141.09   C 113.05 141.12 106.32 140.46 99.55 138.37   A 0.54 0.54 0.0 0 0 98.85 138.82   Q 98.34 143.44 98.09 145.78   C 97.43 152.06 105.96 152.88 110.01 153.71   C 113.21 154.37 117.04 154.11 120.38 154.10   C 123.71 154.09 127.54 154.32 130.74 153.64   C 134.78 152.78 143.31 151.90 142.60 145.62   Q 142.34 143.28 141.79 138.67   A 0.54 0.54 0.0 0 0 141.09 138.22   C 134.33 140.36 127.61 141.07 120.33 141.09   Z" fill="#010101"/>
<path class="icon-shape" d="   M 120.35 69.66   Q 117.46 69.66 109.02 70.13   C 102.99 70.47 93.26 73.56 92.28 80.67   A 0.49 0.47 85.4 0 1 91.95 81.07   L 89.90 81.75   A 0.37 0.37 0.0 0 1 89.41 81.40   L 89.41 63.28   A 0.59 0.57 -3.4 0 1 89.93 62.71   C 97.44 61.94 103.65 57.49 105.99 50.41   C 106.71 48.22 106.62 46.15 106.96 44.13   A 0.75 0.74 1.8 0 1 107.63 43.51   Q 108.37 43.44 120.35 43.44   Q 132.34 43.44 133.07 43.50   A 0.75 0.74 -1.8 0 1 133.74 44.13   C 134.08 46.15 133.99 48.22 134.71 50.41   C 137.06 57.49 143.27 61.94 150.78 62.70   A 0.59 0.57 3.4 0 1 151.30 63.27   L 151.30 81.39   A 0.37 0.37 0.0 0 1 150.81 81.74   L 148.76 81.06   A 0.49 0.47 -85.4 0 1 148.43 80.66   C 147.45 73.55 137.72 70.47 131.68 70.13   Q 123.25 69.66 120.35 69.66   Z" fill="#ffffff"/>
<path class="icon-shape" d="   M 98.78 53.70   Q 95.62 57.04 89.82 57.63   A 0.36 0.36 0.0 0 1 89.44 57.16   Q 90.94 52.29 93.95 49.12   Q 96.96 45.95 101.73 44.19   A 0.36 0.36 0.0 0 1 102.22 44.55   Q 101.95 50.36 98.78 53.70   Z" fill="#ffffff"/>
<path class="icon-shape" d="   M 146.73 49.20   Q 149.71 52.37 151.18 57.22   A 0.36 0.36 0.0 0 1 150.79 57.69   Q 145.03 57.07 141.90 53.73   Q 138.77 50.39 138.53 44.60   A 0.36 0.36 0.0 0 1 139.02 44.24   Q 143.76 46.02 146.73 49.20   Z" fill="#ffffff"/>
<path class="icon-shape" d="   M 49.04 138.19   Q 51.22 139.68 51.12 141.73   A 1.42 1.42 0.0 0 1 50.76 142.62   Q 48.74 144.87 46.50 142.49   Q 43.28 139.06 39.70 134.30   Q 25.69 109.88 32.47 83.71   Q 36.15 69.52 46.61 58.45   A 2.54 2.53 -48.3 0 1 50.07 58.24   L 50.20 58.35   A 2.21 2.20 -47.7 0 1 50.35 61.60   Q 40.36 71.58 36.85 85.53   C 32.19 104.05 36.08 124.03 49.04 138.19   Z" fill="#010101"/>
<path class="icon-shape" d="   M 50.55 100.43   C 50.54 111.26 54.64 120.74 62.26 128.29   A 2.00 2.00 0.0 0 1 62.07 131.30   L 61.91 131.43   A 2.56 2.55 48.9 0 1 58.55 131.20   C 50.14 122.70 45.91 112.22 45.92 100.43   C 45.92 88.64 50.17 78.17 58.58 69.68   A 2.56 2.55 -48.8 0 1 61.95 69.45   L 62.11 69.58   A 2.00 2.00 0.0 0 1 62.30 72.59   C 54.66 80.13 50.55 89.61 50.55 100.43   Z" fill="#010101"/>
<path class="icon-shape" d="   M 116.53 74.79   Q 117.50 85.36 115.70 95.98   L 99.84 97.77   A 1.01 1.01 0.0 0 1 98.75 97.04   Q 96.64 89.54 96.92 81.17   A 1.40 1.40 0.0 0 1 97.26 80.31   C 101.65 75.19 110.21 74.58 116.53 74.79   Z" fill="#fdedec"/>
<path class="icon-shape" d="   M 115.70 95.98   Q 117.50 85.36 116.53 74.79   Q 126.12 74.24 135.56 75.94   C 139.52 76.65 144.43 78.79 143.94 83.62   Q 143.33 89.60 141.97 96.57   A 1.43 1.42 -81.6 0 1 140.43 97.72   Q 135.64 97.23 131.13 96.43   Q 126.48 95.60 115.70 95.98   Z" fill="#ffffff"/>
<path class="icon-shape" d="   M 65.95 100.82   C 65.95 108.37 68.78 113.98 73.75 119.27   A 0.82 0.81 40.0 0 1 73.84 120.27   C 71.89 123.38 70.26 122.47 68.24 120.05   Q 61.21 111.66 61.22 100.82   Q 61.22 89.98 68.26 81.60   C 70.28 79.18 71.91 78.27 73.86 81.39   A 0.82 0.81 -39.9 0 1 73.77 82.38   C 68.79 87.67 65.96 93.28 65.95 100.82   Z" fill="#010101"/>
<path class="icon-shape" d="   M 120.38 162.14   Q 107.94 162.16 104.93 162.09   A 3.60 3.39 51.0 0 1 104.08 161.98   Q 92.03 158.82 89.51 146.93   A 4.05 3.66 42.1 0 1 89.43 146.15   L 89.32 87.31   A 0.32 0.31 -8.9 0 1 89.54 87.01   L 91.90 86.23   A 0.29 0.29 0.0 0 1 92.28 86.50   Q 92.33 91.68 93.80 97.29   A 7.59 7.58 -53.1 0 1 94.05 99.06   Q 94.18 105.67 94.34 132.25   Q 94.37 136.27 93.81 140.12   Q 92.85 146.75 93.11 147.92   C 95.69 159.22 111.33 158.97 120.37 158.96   C 129.42 158.95 145.06 159.15 147.60 147.85   Q 147.86 146.67 146.88 140.05   Q 146.31 136.20 146.33 132.18   Q 146.42 105.60 146.53 98.99   A 7.59 7.58 52.9 0 1 146.78 97.22   Q 148.23 91.60 148.27 86.42   A 0.29 0.29 0.0 0 1 148.64 86.15   L 151.01 86.92   A 0.32 0.31 8.7 0 1 151.23 87.22   L 151.28 146.06   A 4.05 3.66 -42.2 0 1 151.20 146.84   Q 148.72 158.74 136.68 161.93   A 3.60 3.39 -51.2 0 1 135.83 162.05   Q 132.82 162.12 120.38 162.14   Z" fill="#ffffff"/>
<path class="icon-shape" d="   M 120.30 100.84   Q 130.89 100.84 141.02 102.74   A 0.57 0.57 0.0 0 1 141.48 103.30   L 141.48 132.27   A 0.92 0.91 80.8 0 1 140.86 133.14   C 134.04 135.46 127.47 136.19 120.31 136.19   C 113.14 136.19 106.57 135.47 99.75 133.15   A 0.92 0.91 -80.8 0 1 99.13 132.28   L 99.11 103.31   A 0.57 0.57 0.0 0 1 99.58 102.75   Q 109.70 100.84 120.30 100.84   Z" fill="#ffffff"/>
<path class="icon-shape" d="   M 120.38 154.10   C 117.04 154.11 113.21 154.37 110.01 153.71   C 105.96 152.88 97.43 152.06 98.09 145.78   Q 98.34 143.44 98.85 138.82   A 0.54 0.54 0.0 0 1 99.55 138.37   C 106.32 140.46 113.05 141.12 120.33 141.09   C 127.61 141.07 134.33 140.36 141.09 138.22   A 0.54 0.54 0.0 0 1 141.79 138.67   Q 142.34 143.28 142.60 145.62   C 143.31 151.90 134.78 152.78 130.74 153.64   C 127.54 154.32 123.71 154.09 120.38 154.10   Z" fill="#ffffff"/>
</g></svg>