<?xml version="1.0" encoding="UTF-8" standalone="no"?>
<!DOCTYPE svg PUBLIC "-//W3C//DTD SVG 1.1//EN" "http://www.w3.org/Graphics/SVG/1.1/DTD/svg11.dtd">
<svg xmlns="http://www.w3.org/2000/svg" version="1.1" viewBox="0.00 0.00 129.00 136.00">
<path fill="#000000" d="
  M 23.59 63.97
  C 19.70 64.39 15.29 65.16 12.74 61.69
  A 2.24 2.18 21.4 0 1 12.35 60.83
  Q 11.01 54.73 16.28 53.31
  C 17.79 52.90 20.31 53.11 22.16 53.17
  Q 25.31 53.29 26.60 56.19
  A 0.30 0.30 0.0 0 0 27.16 56.16
  Q 29.74 48.36 33.02 40.24
  Q 35.44 34.25 42.24 34.22
  Q 67.95 34.08 87.25 34.24
  C 94.15 34.30 96.23 37.52 98.40 43.78
  Q 100.03 48.50 102.53 55.45
  A 0.53 0.52 -42.5 0 0 103.50 55.49
  Q 104.25 53.87 106.11 53.26
  A 2.19 1.90 30.7 0 1 106.72 53.15
  C 111.68 53.04 117.24 52.13 117.82 58.00
  Q 118.28 62.61 114.40 64.10
  A 3.27 3.22 -53.8 0 1 113.10 64.31
  L 106.72 64.07
  A 0.44 0.44 0.0 0 0 106.29 64.68
  L 108.84 70.64
  A 0.88 0.81 -58.8 0 1 108.91 70.98
  Q 108.72 83.25 108.91 100.54
  C 108.94 103.13 107.87 107.47 104.65 107.69
  Q 100.23 108.00 94.82 107.67
  A 1.81 1.77 66.6 0 1 93.79 107.25
  C 92.32 106.01 91.35 105.06 91.34 102.97
  Q 91.32 98.52 91.37 94.95
  A 0.34 0.33 87.7 0 0 91.01 94.61
  C 77.02 95.73 62.92 95.27 46.70 95.21
  C 44.33 95.20 41.47 94.77 39.10 94.65
  A 0.42 0.42 0.0 0 0 38.65 95.07
  C 38.65 100.04 40.60 107.88 32.75 107.84
  Q 28.88 107.83 25.28 107.69
  A 2.51 2.47 59.4 0 1 24.22 107.41
  C 22.22 106.39 21.25 104.41 21.28 101.95
  Q 21.50 85.96 21.05 72.03
  C 20.96 69.38 23.01 66.99 24.03 64.55
  A 0.42 0.42 0.0 0 0 23.59 63.97
  Z
  M 65.01 91.75
  Q 85.00 91.74 102.88 91.29
  A 2.59 2.59 0.0 0 0 105.41 88.70
  L 105.41 82.46
  A 0.39 0.38 -3.3 0 0 104.98 82.08
  Q 101.62 82.48 97.51 82.31
  Q 92.98 82.11 92.47 77.77
  C 92.12 74.75 92.50 71.48 95.46 70.14
  A 1.14 1.09 -56.6 0 1 95.94 70.03
  L 104.59 69.97
  A 0.36 0.35 -11.6 0 0 104.92 69.48
  C 104.34 68.08 103.52 66.78 102.89 65.21
  Q 100.52 59.32 95.03 43.97
  C 93.61 39.98 92.09 37.41 87.76 37.41
  C 80.90 37.42 73.28 37.12 64.98 37.12
  C 56.68 37.13 49.06 37.43 42.21 37.43
  C 37.87 37.44 36.35 40.01 34.94 44.00
  Q 29.46 59.35 27.10 65.25
  C 26.47 66.82 25.65 68.12 25.07 69.52
  A 0.36 0.35 11.6 0 0 25.40 70.01
  L 34.05 70.06
  A 1.14 1.09 56.6 0 1 34.53 70.17
  C 37.49 71.51 37.88 74.78 37.53 77.80
  Q 37.02 82.14 32.49 82.34
  Q 28.38 82.51 25.02 82.12
  A 0.39 0.38 3.3 0 0 24.59 82.50
  L 24.60 88.74
  A 2.59 2.59 0.0 0 0 27.13 91.33
  Q 45.02 91.76 65.01 91.75
  Z
  M 15.61 57.46
  L 15.61 59.96
  A 0.88 0.88 0.0 0 0 16.49 60.84
  L 22.68 60.85
  A 2.09 2.02 0.1 0 0 24.77 58.84
  L 24.77 58.62
  A 2.09 2.02 0.1 0 0 22.68 56.59
  L 16.49 56.58
  A 0.88 0.88 0.0 0 0 15.61 57.46
  Z
  M 114.5889 57.6889
  A 1.10 1.10 0.0 0 0 113.4985 56.5793
  L 106.7988 56.5208
  A 1.10 1.10 0.0 0 0 105.6892 57.6112
  L 105.6711 59.6911
  A 1.10 1.10 0.0 0 0 106.7615 60.8007
  L 113.4612 60.8592
  A 1.10 1.10 0.0 0 0 114.5708 59.7688
  L 114.5889 57.6889
  Z
  M 24.32 73.02
  L 24.26 78.92
  A 0.24 0.24 0.0 0 0 24.50 79.16
  L 32.55 79.23
  A 1.85 1.81 -89.5 0 0 34.38 77.39
  L 34.40 74.71
  A 1.85 1.81 -89.5 0 0 32.61 72.85
  L 24.56 72.78
  A 0.24 0.24 0.0 0 0 24.32 73.02
  Z
  M 105.56 78.91
  L 105.50 73.01
  A 0.24 0.24 0.0 0 0 105.26 72.77
  L 97.39 72.85
  A 1.86 1.79 89.4 0 0 95.62 74.73
  L 95.64 77.39
  A 1.86 1.79 89.4 0 0 97.45 79.23
  L 105.32 79.15
  A 0.24 0.24 0.0 0 0 105.56 78.91
  Z
  M 35.21 94.70
  L 24.77 94.50
  A 0.28 0.28 0.0 0 0 24.48 94.78
  L 24.33 102.62
  A 2.48 2.19 1.1 0 0 26.77 104.86
  L 32.81 104.98
  A 2.48 2.19 1.1 0 0 35.33 102.84
  L 35.48 94.99
  A 0.28 0.28 0.0 0 0 35.21 94.70
  Z
  M 105.3017 94.7482
  A 0.26 0.26 0.0 0 0 105.0350 94.4951
  L 94.5985 94.7684
  A 0.26 0.26 0.0 0 0 94.3454 95.0351
  L 94.5983 104.6918
  A 0.26 0.26 0.0 0 0 94.8650 104.9449
  L 105.3015 104.6716
  A 0.26 0.26 0.0 0 0 105.5546 104.4049
  L 105.3017 94.7482
  Z"
/>
<path fill="#000000" d="
  M 64.91 87.56
  Q 61.03 87.56 58.48 86.49
  Q 43.50 80.25 45.47 63.57
  A 0.23 0.23 0.0 0 0 45.23 63.31
  Q 41.78 63.46 38.55 63.22
  Q 32.63 62.78 34.46 56.87
  Q 36.00 51.90 38.99 44.27
  C 40.10 41.44 42.46 40.86 45.50 40.75
  Q 55.25 40.37 64.93 40.37
  Q 74.62 40.38 84.37 40.77
  C 87.41 40.88 89.77 41.47 90.87 44.30
  Q 93.86 51.93 95.39 56.90
  Q 97.21 62.82 91.29 63.25
  Q 88.06 63.49 84.61 63.33
  A 0.23 0.23 0.0 0 0 84.37 63.59
  Q 86.32 80.27 71.34 86.50
  Q 68.78 87.56 64.91 87.56
  Z
  M 45.63 60.05
  A 0.63 0.62 39.3 0 0 46.68 59.95
  Q 52.20 49.06 63.24 48.01
  C 71.56 47.22 79.34 51.71 82.76 59.30
  A 1.00 0.99 -11.8 0 0 83.67 59.89
  L 92.09 59.89
  A 0.76 0.76 0.0 0 0 92.80 58.86
  Q 90.00 51.35 88.78 47.67
  C 87.77 44.59 87.15 43.93 83.69 43.89
  Q 66.99 43.68 44.43 43.90
  A 2.86 2.85 9.5 0 0 41.77 45.79
  L 37.20 58.62
  A 1.00 1.00 0.0 0 0 38.20 59.96
  Q 43.04 59.71 45.13 59.90
  Q 45.54 59.93 45.63 60.05
  Z
  M 81.35 67.69
  A 16.42 16.42 0.0 0 0 64.93 51.27
  A 16.42 16.42 0.0 0 0 48.51 67.69
  A 16.42 16.42 0.0 0 0 64.93 84.11
  A 16.42 16.42 0.0 0 0 81.35 67.69
  Z"
/>
<path fill="#000000" d="
  M 75.19 67.63
  A 10.27 10.27 0.0 0 1 64.92 77.90
  A 10.27 10.27 0.0 0 1 54.65 67.63
  A 10.27 10.27 0.0 0 1 64.92 57.36
  A 10.27 10.27 0.0 0 1 75.19 67.63
  Z
  M 71.82 67.63
  A 6.93 6.93 0.0 0 0 64.89 60.70
  A 6.93 6.93 0.0 0 0 57.96 67.63
  A 6.93 6.93 0.0 0 0 64.89 74.56
  A 6.93 6.93 0.0 0 0 71.82 67.63
  Z"
/>
</svg>
