<?xml version="1.0" encoding="UTF-8" standalone="no"?>
<!DOCTYPE svg PUBLIC "-//W3C//DTD SVG 1.1//EN" "http://www.w3.org/Graphics/SVG/1.1/DTD/svg11.dtd">
<svg xmlns="http://www.w3.org/2000/svg" version="1.1" viewBox="0.00 0.00 229.00 212.00">
<g stroke-width="2.00" fill="none" stroke-linecap="butt">
<path stroke="#d9d8da" vector-effect="non-scaling-stroke" d="
  M 68.70 99.28
  A 0.32 0.32 0.0 0 1 68.87 99.56
  Q 69.03 136.71 68.80 156.24
  Q 68.75 160.40 70.79 162.81
  Q 72.21 164.50 78.92 171.73
  C 81.11 174.09 83.42 175.14 85.83 172.53
  Q 89.87 168.16 94.80 163.17
  A 5.25 4.96 -10.3 0 0 95.72 161.92
  Q 97.90 157.77 96.50 151.55
  A 1.46 1.36 23.1 0 0 96.27 151.03
  L 91.61 144.49
  A 2.60 2.59 -45.7 0 1 91.58 141.52
  L 96.67 134.00
  A 3.46 3.46 0.0 0 0 96.80 130.32
  L 91.93 121.87
  A 0.96 0.96 0.0 0 1 92.14 120.66
  C 94.67 118.51 96.82 116.63 96.90 113.43
  Q 97.06 107.20 96.81 100.08
  A 0.98 0.96 -13.3 0 1 97.38 99.17
  C 118.91 89.38 127.49 62.67 113.32 43.17
  Q 100.49 25.51 78.45 27.37
  C 62.31 28.73 48.65 42.48 46.24 57.84
  C 43.39 75.92 52.13 91.47 68.70 99.28"
/>
<path stroke="#d9d8da" vector-effect="non-scaling-stroke" d="
  M 83.42 167.44
  L 91.29 159.20
  A 1.44 1.38 -18.5 0 0 91.64 158.53
  Q 92.47 154.55 90.57 151.93
  Q 86.13 145.83 85.59 145.03
  A 3.01 3.00 44.1 0 1 85.53 141.58
  L 91.72 132.44
  A 0.86 0.86 0.0 0 0 91.73 131.49
  Q 89.37 127.88 86.36 122.64
  C 84.56 119.51 88.93 116.79 90.87 114.85
  A 3.21 3.20 67.7 0 0 91.82 112.57
  L 91.82 98.21
  A 3.41 3.41 0.0 0 1 93.93 95.06
  C 118.94 84.73 122.91 52.29 99.97 37.22
  C 84.34 26.95 64.31 32.79 55.12 48.27
  Q 49.63 57.52 51.00 68.60
  C 52.57 81.27 60.44 89.71 72.09 95.04
  A 3.26 3.26 0.0 0 1 73.99 98.00
  L 73.99 157.19
  A 4.37 4.37 0.0 0 0 75.27 160.28
  L 82.45 167.45
  A 0.68 0.68 0.0 0 0 83.42 167.44"
/>
<path stroke="#d9d8da" vector-effect="non-scaling-stroke" d="
  M 94.9931 49.4999
  A 12.53 12.17 -13.9 0 0 79.9064 40.6964
  A 12.53 12.17 -13.9 0 0 70.6669 55.5201
  A 12.53 12.17 -13.9 0 0 85.7536 64.3236
  A 12.53 12.17 -13.9 0 0 94.9931 49.4999"
/>
<path stroke="#d9d8da" vector-effect="non-scaling-stroke" d="
  M 90.0551 51.0495
  A 7.34 6.92 -11.0 0 0 81.5296 45.6571
  A 7.34 6.92 -11.0 0 0 75.6449 53.8505
  A 7.34 6.92 -11.0 0 0 84.1704 59.2429
  A 7.34 6.92 -11.0 0 0 90.0551 51.0495"
/>
</g>
<path fill="#ffffff" d="
  M 229.00 0.00
  L 229.00 212.00
  L 0.00 212.00
  L 0.00 0.00
  L 229.00 0.00
  Z
  M 68.70 99.28
  A 0.32 0.32 0.0 0 1 68.87 99.56
  Q 69.03 136.71 68.80 156.24
  Q 68.75 160.40 70.79 162.81
  Q 72.21 164.50 78.92 171.73
  C 81.11 174.09 83.42 175.14 85.83 172.53
  Q 89.87 168.16 94.80 163.17
  A 5.25 4.96 -10.3 0 0 95.72 161.92
  Q 97.90 157.77 96.50 151.55
  A 1.46 1.36 23.1 0 0 96.27 151.03
  L 91.61 144.49
  A 2.60 2.59 -45.7 0 1 91.58 141.52
  L 96.67 134.00
  A 3.46 3.46 0.0 0 0 96.80 130.32
  L 91.93 121.87
  A 0.96 0.96 0.0 0 1 92.14 120.66
  C 94.67 118.51 96.82 116.63 96.90 113.43
  Q 97.06 107.20 96.81 100.08
  A 0.98 0.96 -13.3 0 1 97.38 99.17
  C 118.91 89.38 127.49 62.67 113.32 43.17
  Q 100.49 25.51 78.45 27.37
  C 62.31 28.73 48.65 42.48 46.24 57.84
  C 43.39 75.92 52.13 91.47 68.70 99.28
  Z"
/>
<path fill="#b3b0b4" d="
  M 68.70 99.28
  C 52.13 91.47 43.39 75.92 46.24 57.84
  C 48.65 42.48 62.31 28.73 78.45 27.37
  Q 100.49 25.51 113.32 43.17
  C 127.49 62.67 118.91 89.38 97.38 99.17
  A 0.98 0.96 -13.3 0 0 96.81 100.08
  Q 97.06 107.20 96.90 113.43
  C 96.82 116.63 94.67 118.51 92.14 120.66
  A 0.96 0.96 0.0 0 0 91.93 121.87
  L 96.80 130.32
  A 3.46 3.46 0.0 0 1 96.67 134.00
  L 91.58 141.52
  A 2.60 2.59 -45.7 0 0 91.61 144.49
  L 96.27 151.03
  A 1.46 1.36 23.1 0 1 96.50 151.55
  Q 97.90 157.77 95.72 161.92
  A 5.25 4.96 -10.3 0 1 94.80 163.17
  Q 89.87 168.16 85.83 172.53
  C 83.42 175.14 81.11 174.09 78.92 171.73
  Q 72.21 164.50 70.79 162.81
  Q 68.75 160.40 68.80 156.24
  Q 69.03 136.71 68.87 99.56
  A 0.32 0.32 0.0 0 0 68.70 99.28
  Z
  M 83.42 167.44
  L 91.29 159.20
  A 1.44 1.38 -18.5 0 0 91.64 158.53
  Q 92.47 154.55 90.57 151.93
  Q 86.13 145.83 85.59 145.03
  A 3.01 3.00 44.1 0 1 85.53 141.58
  L 91.72 132.44
  A 0.86 0.86 0.0 0 0 91.73 131.49
  Q 89.37 127.88 86.36 122.64
  C 84.56 119.51 88.93 116.79 90.87 114.85
  A 3.21 3.20 67.7 0 0 91.82 112.57
  L 91.82 98.21
  A 3.41 3.41 0.0 0 1 93.93 95.06
  C 118.94 84.73 122.91 52.29 99.97 37.22
  C 84.34 26.95 64.31 32.79 55.12 48.27
  Q 49.63 57.52 51.00 68.60
  C 52.57 81.27 60.44 89.71 72.09 95.04
  A 3.26 3.26 0.0 0 1 73.99 98.00
  L 73.99 157.19
  A 4.37 4.37 0.0 0 0 75.27 160.28
  L 82.45 167.45
  A 0.68 0.68 0.0 0 0 83.42 167.44
  Z"
/>
<path fill="#ffffff" d="
  M 83.42 167.44
  A 0.68 0.68 0.0 0 1 82.45 167.45
  L 75.27 160.28
  A 4.37 4.37 0.0 0 1 73.99 157.19
  L 73.99 98.00
  A 3.26 3.26 0.0 0 0 72.09 95.04
  C 60.44 89.71 52.57 81.27 51.00 68.60
  Q 49.63 57.52 55.12 48.27
  C 64.31 32.79 84.34 26.95 99.97 37.22
  C 122.91 52.29 118.94 84.73 93.93 95.06
  A 3.41 3.41 0.0 0 0 91.82 98.21
  L 91.82 112.57
  A 3.21 3.20 67.7 0 1 90.87 114.85
  C 88.93 116.79 84.56 119.51 86.36 122.64
  Q 89.37 127.88 91.73 131.49
  A 0.86 0.86 0.0 0 1 91.72 132.44
  L 85.53 141.58
  A 3.01 3.00 44.1 0 0 85.59 145.03
  Q 86.13 145.83 90.57 151.93
  Q 92.47 154.55 91.64 158.53
  A 1.44 1.38 -18.5 0 1 91.29 159.20
  L 83.42 167.44
  Z
  M 94.9931 49.4999
  A 12.53 12.17 -13.9 0 0 79.9064 40.6964
  A 12.53 12.17 -13.9 0 0 70.6669 55.5201
  A 12.53 12.17 -13.9 0 0 85.7536 64.3236
  A 12.53 12.17 -13.9 0 0 94.9931 49.4999
  Z"
/>
<path fill="#b3b0b4" d="
  M 94.9931 49.4999
  A 12.53 12.17 -13.9 0 1 85.7536 64.3236
  A 12.53 12.17 -13.9 0 1 70.6669 55.5201
  A 12.53 12.17 -13.9 0 1 79.9064 40.6964
  A 12.53 12.17 -13.9 0 1 94.9931 49.4999
  Z
  M 90.0551 51.0495
  A 7.34 6.92 -11.0 0 0 81.5296 45.6571
  A 7.34 6.92 -11.0 0 0 75.6449 53.8505
  A 7.34 6.92 -11.0 0 0 84.1704 59.2429
  A 7.34 6.92 -11.0 0 0 90.0551 51.0495
  Z"
/>
<ellipse fill="#ffffff" cx="0.00" cy="0.00" transform="translate(82.85,52.45) rotate(-11.0)" rx="7.34" ry="6.92"/>
</svg>
