<?xml version="1.0" encoding="utf-8"?>
<svg version="1.1" viewBox="0.00 0.00 209.00 197.00" xmlns="http://www.w3.org/2000/svg"><g id="offState" style="display:inline"><g fill="none" stroke-linecap="butt" stroke-width="2.00">
<path class="icon-shape" d="   M 170.10 99.04   Q 174.83 98.92 175.76 98.92   C 183.79 98.92 185.95 88.15 178.44 85.19   A 1.15 1.11 54.2 0 0 178.05 85.12   L 166.80 85.05   A 1.64 1.61 -67.1 0 0 165.65 85.53   L 161.74 89.44   A 0.56 0.56 0.0 0 1 160.82 89.24   Q 156.92 78.95 153.02 69.25   Q 150.89 63.95 145.52 62.86   A 1.68 1.67 -0.2 0 1 144.22 61.58   Q 143.05 56.05 139.60 39.47   C 138.32 33.30 135.83 29.35 129.46 29.10   Q 120.34 28.74 87.53 29.02   Q 81.00 29.07 77.68 33.42   C 75.90 35.74 75.15 40.12 74.56 43.04   Q 72.43 53.69 70.39 62.31   A 0.70 0.69 -85.4 0 1 69.77 62.84   Q 63.89 63.25 61.78 68.56   Q 54.17 87.73 54.01 88.34   A 0.70 0.70 0.0 0 1 52.84 88.67   L 49.75 85.61   A 1.40 1.34 67.8 0 0 48.88 85.22   Q 45.33 84.97 39.18 85.02   Q 32.80 85.07 32.10 91.23   C 31.80 93.86 33.30 96.11 35.33 97.64   C 37.30 99.13 43.02 98.68 45.54 98.40   A 0.52 0.52 0.0 0 1 45.99 99.25   Q 42.38 103.47 40.45 108.70   Q 39.17 112.14 39.20 119.46   Q 39.27 140.71 39.22 151.80   C 39.20 155.93 40.03 159.82 43.73 161.76   C 46.45 163.20 55.60 162.54 58.12 162.50   A 2.84 2.67 35.5 0 0 58.86 162.40   C 64.85 160.74 65.15 156.27 65.10 150.90   A 0.62 0.62 0.0 0 1 65.72 150.27   L 149.65 150.27   A 0.67 0.66 5.0 0 1 150.31 151.05   Q 148.71 159.86 156.13 162.33   A 4.32 4.11 -34.7 0 0 157.54 162.55   Q 158.68 162.54 168.48 162.50   C 174.89 162.48 176.52 156.64 176.44 151.25   Q 176.31 143.49 176.45 120.44   Q 176.49 113.12 175.22 109.57   Q 173.36 104.34 169.65 100.05   A 0.61 0.61 0.0 0 1 170.10 99.04" stroke="#d9d8da" vector-effect="non-scaling-stroke"/>
<path class="icon-shape" d="   M 107.49 62.69   Q 127.40 62.69 139.29 62.71   A 0.49 0.48 83.7 0 0 139.76 62.12   Q 138.04 54.32 134.69 38.81   Q 133.64 33.94 129.24 33.95   Q 118.26 33.96 107.49 33.96   Q 96.73 33.96 85.74 33.95   Q 81.34 33.94 80.29 38.81   Q 76.94 54.32 75.22 62.12   A 0.49 0.48 -83.7 0 0 75.69 62.71   Q 87.59 62.69 107.49 62.69" stroke="#d9d8da" vector-effect="non-scaling-stroke"/>
<path class="icon-shape" d="   M 107.26 91.73   Q 120.42 91.73 156.56 91.80   A 0.37 0.37 0.0 0 0 156.90 91.29   Q 149.86 73.58 148.64 70.69   Q 147.24 67.40 144.00 67.42   Q 137.46 67.48 107.26 67.48   Q 77.06 67.48 70.53 67.42   Q 67.29 67.39 65.89 70.68   Q 64.67 73.57 57.62 91.28   A 0.37 0.37 0.0 0 0 57.96 91.79   Q 94.11 91.73 107.26 91.73" stroke="#d9d8da" vector-effect="non-scaling-stroke"/>
<path class="icon-shape" d="   M 50.71 94.30   A 0.56 0.56 0.0 0 0 51.11 93.34   L 48.22 90.42   A 2.45 2.43 67.3 0 0 46.48 89.69   L 38.39 89.66   A 1.83 1.83 0.0 0 0 36.59 91.83   L 36.62 92.06   A 2.83 2.83 0.0 0 0 39.40 94.34   L 50.71 94.30" stroke="#d9d8da" vector-effect="non-scaling-stroke"/>
<path class="icon-shape" d="   M 164.23 94.40   L 175.77 94.49   A 2.89 2.88 5.8 0 0 178.61 92.18   L 178.65 91.95   A 1.87 1.86 -84.5 0 0 176.82 89.73   L 168.57 89.72   A 2.50 2.47 -67.1 0 0 166.79 90.45   L 163.83 93.42   A 0.57 0.57 0.0 0 0 164.23 94.40" stroke="#d9d8da" vector-effect="non-scaling-stroke"/>
<path class="icon-shape" d="   M 60.60 148.05   A 2.68 2.68 0.0 0 1 63.28 145.39   L 152.39 145.39   A 0.12 0.06 -16.8 0 1 152.44 145.40   Q 154.87 146.26 155.06 148.28   Q 155.18 149.57 155.26 155.62   A 1.98 1.98 0.0 0 0 157.19 157.58   Q 161.90 157.71 168.33 157.60   C 170.05 157.57 171.60 156.76 171.59 155.00   Q 171.48 135.57 171.59 118.32   Q 171.63 112.64 170.40 109.86   C 168.02 104.50 164.92 101.82 160.56 97.67   A 3.19 3.18 -23.2 0 0 158.37 96.80   L 55.60 96.80   A 1.41 1.38 26.0 0 0 54.76 97.08   Q 47.31 102.72 44.48 111.37   A 5.71 5.45 -37.3 0 0 44.21 113.08   L 44.21 154.96   A 2.64 2.64 0.0 0 0 46.82 157.60   Q 53.57 157.68 57.58 157.63   Q 60.24 157.59 60.37 155.06   Q 60.57 151.19 60.60 148.05" stroke="#d9d8da" vector-effect="non-scaling-stroke"/>
<path class="icon-shape" d="   M 105.93 53.12   L 97.94 47.08   A 2.23 2.23 0.0 0 0 94.78 47.55   L 94.65 47.73   A 2.27 2.26 -53.4 0 0 95.12 50.95   Q 101.40 55.49 104.77 58.23   Q 106.99 60.05 108.84 58.09   Q 114.98 51.59 122.62 44.38   A 2.00 1.99 -44.2 0 0 122.66 41.52   L 122.14 41.01   A 2.13 2.12 -44.9 0 0 119.13 41.01   L 107.10 53.04   A 0.89 0.89 0.0 0 1 105.93 53.12" stroke="#d9d8da" vector-effect="non-scaling-stroke"/>
<path class="icon-shape" d="   M 47.72 114.81   C 47.93 119.95 47.42 126.95 52.35 127.40   C 56.37 127.77 62.00 127.50 68.93 127.66   C 71.70 127.72 75.31 126.23 74.81 122.97   C 74.14 118.60 73.26 115.41 68.49 114.27   Q 62.12 112.75 52.25 111.38   Q 49.69 111.02 47.98 113.80   A 1.85 1.78 60.6 0 0 47.72 114.81" stroke="#d9d8da" vector-effect="non-scaling-stroke"/>
<path class="icon-shape" d="   M 163.07 111.35   Q 155.05 112.32 147.14 114.11   Q 143.31 114.97 142.01 116.91   C 139.82 120.18 138.38 127.16 144.24 127.55   Q 150.90 128.01 159.96 127.68   C 168.49 127.37 167.54 121.48 166.87 114.70   Q 166.67 112.69 164.31 111.55   A 2.26 2.24 -35.7 0 0 163.07 111.35" stroke="#d9d8da" vector-effect="non-scaling-stroke"/>
<path class="icon-shape" d="   M 132.86 115.98   A 2.47 2.47 0.0 0 0 130.39 113.51   L 84.33 113.51   A 2.47 2.47 0.0 0 0 81.86 115.98   L 81.86 116.06   A 2.47 2.47 0.0 0 0 84.33 118.53   L 130.39 118.53   A 2.47 2.47 0.0 0 0 132.86 116.06   L 132.86 115.98" stroke="#d9d8da" vector-effect="non-scaling-stroke"/>
<path class="icon-shape" d="   M 52.95 117.05   L 52.95 121.92   A 0.86 0.85 -0.0 0 0 53.81 122.77   L 69.21 122.77   A 0.57 0.56 -4.0 0 0 69.77 122.13   C 69.53 120.39 68.40 119.14 66.47 118.72   Q 59.68 117.24 53.50 116.56   A 0.50 0.49 3.1 0 0 52.95 117.05" stroke="#d9d8da" vector-effect="non-scaling-stroke"/>
<path class="icon-shape" d="   M 162.00 117.05   A 0.50 0.50 0.0 0 0 161.44 116.55   Q 155.20 117.23 148.33 118.71   C 146.38 119.13 145.24 120.39 144.99 122.15   A 0.57 0.57 0.0 0 0 145.56 122.80   L 161.12 122.82   A 0.87 0.86 0.1 0 0 161.99 121.97   L 162.00 117.05" stroke="#d9d8da" vector-effect="non-scaling-stroke"/>
</g>
<path class="icon-shape" d="   M 209.00 0.00   L 209.00 197.00   L 0.00 197.00   L 0.00 0.00   L 209.00 0.00   Z   M 170.10 99.04   Q 174.83 98.92 175.76 98.92   C 183.79 98.92 185.95 88.15 178.44 85.19   A 1.15 1.11 54.2 0 0 178.05 85.12   L 166.80 85.05   A 1.64 1.61 -67.1 0 0 165.65 85.53   L 161.74 89.44   A 0.56 0.56 0.0 0 1 160.82 89.24   Q 156.92 78.95 153.02 69.25   Q 150.89 63.95 145.52 62.86   A 1.68 1.67 -0.2 0 1 144.22 61.58   Q 143.05 56.05 139.60 39.47   C 138.32 33.30 135.83 29.35 129.46 29.10   Q 120.34 28.74 87.53 29.02   Q 81.00 29.07 77.68 33.42   C 75.90 35.74 75.15 40.12 74.56 43.04   Q 72.43 53.69 70.39 62.31   A 0.70 0.69 -85.4 0 1 69.77 62.84   Q 63.89 63.25 61.78 68.56   Q 54.17 87.73 54.01 88.34   A 0.70 0.70 0.0 0 1 52.84 88.67   L 49.75 85.61   A 1.40 1.34 67.8 0 0 48.88 85.22   Q 45.33 84.97 39.18 85.02   Q 32.80 85.07 32.10 91.23   C 31.80 93.86 33.30 96.11 35.33 97.64   C 37.30 99.13 43.02 98.68 45.54 98.40   A 0.52 0.52 0.0 0 1 45.99 99.25   Q 42.38 103.47 40.45 108.70   Q 39.17 112.14 39.20 119.46   Q 39.27 140.71 39.22 151.80   C 39.20 155.93 40.03 159.82 43.73 161.76   C 46.45 163.20 55.60 162.54 58.12 162.50   A 2.84 2.67 35.5 0 0 58.86 162.40   C 64.85 160.74 65.15 156.27 65.10 150.90   A 0.62 0.62 0.0 0 1 65.72 150.27   L 149.65 150.27   A 0.67 0.66 5.0 0 1 150.31 151.05   Q 148.71 159.86 156.13 162.33   A 4.32 4.11 -34.7 0 0 157.54 162.55   Q 158.68 162.54 168.48 162.50   C 174.89 162.48 176.52 156.64 176.44 151.25   Q 176.31 143.49 176.45 120.44   Q 176.49 113.12 175.22 109.57   Q 173.36 104.34 169.65 100.05   A 0.61 0.61 0.0 0 1 170.10 99.04   Z" fill="#ffffff"/>
<path class="icon-shape" d="   M 170.10 99.04   A 0.61 0.61 0.0 0 0 169.65 100.05   Q 173.36 104.34 175.22 109.57   Q 176.49 113.12 176.45 120.44   Q 176.31 143.49 176.44 151.25   C 176.52 156.64 174.89 162.48 168.48 162.50   Q 158.68 162.54 157.54 162.55   A 4.32 4.11 -34.7 0 1 156.13 162.33   Q 148.71 159.86 150.31 151.05   A 0.67 0.66 5.0 0 0 149.65 150.27   L 65.72 150.27   A 0.62 0.62 0.0 0 0 65.10 150.90   C 65.15 156.27 64.85 160.74 58.86 162.40   A 2.84 2.67 35.5 0 1 58.12 162.50   C 55.60 162.54 46.45 163.20 43.73 161.76   C 40.03 159.82 39.20 155.93 39.22 151.80   Q 39.27 140.71 39.20 119.46   Q 39.17 112.14 40.45 108.70   Q 42.38 103.47 45.99 99.25   A 0.52 0.52 0.0 0 0 45.54 98.40   C 43.02 98.68 37.30 99.13 35.33 97.64   C 33.30 96.11 31.80 93.86 32.10 91.23   Q 32.80 85.07 39.18 85.02   Q 45.33 84.97 48.88 85.22   A 1.40 1.34 67.8 0 1 49.75 85.61   L 52.84 88.67   A 0.70 0.70 0.0 0 0 54.01 88.34   Q 54.17 87.73 61.78 68.56   Q 63.89 63.25 69.77 62.84   A 0.70 0.69 -85.4 0 0 70.39 62.31   Q 72.43 53.69 74.56 43.04   C 75.15 40.12 75.90 35.74 77.68 33.42   Q 81.00 29.07 87.53 29.02   Q 120.34 28.74 129.46 29.10   C 135.83 29.35 138.32 33.30 139.60 39.47   Q 143.05 56.05 144.22 61.58   A 1.68 1.67 -0.2 0 0 145.52 62.86   Q 150.89 63.95 153.02 69.25   Q 156.92 78.95 160.82 89.24   A 0.56 0.56 0.0 0 0 161.74 89.44   L 165.65 85.53   A 1.64 1.61 -67.1 0 1 166.80 85.05   L 178.05 85.12   A 1.15 1.11 54.2 0 1 178.44 85.19   C 185.95 88.15 183.79 98.92 175.76 98.92   Q 174.83 98.92 170.10 99.04   Z   M 107.49 62.69   Q 127.40 62.69 139.29 62.71   A 0.49 0.48 83.7 0 0 139.76 62.12   Q 138.04 54.32 134.69 38.81   Q 133.64 33.94 129.24 33.95   Q 118.26 33.96 107.49 33.96   Q 96.73 33.96 85.74 33.95   Q 81.34 33.94 80.29 38.81   Q 76.94 54.32 75.22 62.12   A 0.49 0.48 -83.7 0 0 75.69 62.71   Q 87.59 62.69 107.49 62.69   Z   M 107.26 91.73   Q 120.42 91.73 156.56 91.80   A 0.37 0.37 0.0 0 0 156.90 91.29   Q 149.86 73.58 148.64 70.69   Q 147.24 67.40 144.00 67.42   Q 137.46 67.48 107.26 67.48   Q 77.06 67.48 70.53 67.42   Q 67.29 67.39 65.89 70.68   Q 64.67 73.57 57.62 91.28   A 0.37 0.37 0.0 0 0 57.96 91.79   Q 94.11 91.73 107.26 91.73   Z   M 50.71 94.30   A 0.56 0.56 0.0 0 0 51.11 93.34   L 48.22 90.42   A 2.45 2.43 67.3 0 0 46.48 89.69   L 38.39 89.66   A 1.83 1.83 0.0 0 0 36.59 91.83   L 36.62 92.06   A 2.83 2.83 0.0 0 0 39.40 94.34   L 50.71 94.30   Z   M 164.23 94.40   L 175.77 94.49   A 2.89 2.88 5.8 0 0 178.61 92.18   L 178.65 91.95   A 1.87 1.86 -84.5 0 0 176.82 89.73   L 168.57 89.72   A 2.50 2.47 -67.1 0 0 166.79 90.45   L 163.83 93.42   A 0.57 0.57 0.0 0 0 164.23 94.40   Z   M 60.60 148.05   A 2.68 2.68 0.0 0 1 63.28 145.39   L 152.39 145.39   A 0.12 0.06 -16.8 0 1 152.44 145.40   Q 154.87 146.26 155.06 148.28   Q 155.18 149.57 155.26 155.62   A 1.98 1.98 0.0 0 0 157.19 157.58   Q 161.90 157.71 168.33 157.60   C 170.05 157.57 171.60 156.76 171.59 155.00   Q 171.48 135.57 171.59 118.32   Q 171.63 112.64 170.40 109.86   C 168.02 104.50 164.92 101.82 160.56 97.67   A 3.19 3.18 -23.2 0 0 158.37 96.80   L 55.60 96.80   A 1.41 1.38 26.0 0 0 54.76 97.08   Q 47.31 102.72 44.48 111.37   A 5.71 5.45 -37.3 0 0 44.21 113.08   L 44.21 154.96   A 2.64 2.64 0.0 0 0 46.82 157.60   Q 53.57 157.68 57.58 157.63   Q 60.24 157.59 60.37 155.06   Q 60.57 151.19 60.60 148.05   Z" fill="#b2b0b4"/>
<path class="icon-shape" d="   M 107.49 33.96   Q 118.26 33.96 129.24 33.95   Q 133.64 33.94 134.69 38.81   Q 138.04 54.32 139.76 62.12   A 0.49 0.48 83.7 0 1 139.29 62.71   Q 127.40 62.69 107.49 62.69   Q 87.59 62.69 75.69 62.71   A 0.49 0.48 -83.7 0 1 75.22 62.12   Q 76.94 54.32 80.29 38.81   Q 81.34 33.94 85.74 33.95   Q 96.73 33.96 107.49 33.96   Z   M 105.93 53.12   L 97.94 47.08   A 2.23 2.23 0.0 0 0 94.78 47.55   L 94.65 47.73   A 2.27 2.26 -53.4 0 0 95.12 50.95   Q 101.40 55.49 104.77 58.23   Q 106.99 60.05 108.84 58.09   Q 114.98 51.59 122.62 44.38   A 2.00 1.99 -44.2 0 0 122.66 41.52   L 122.14 41.01   A 2.13 2.12 -44.9 0 0 119.13 41.01   L 107.10 53.04   A 0.89 0.89 0.0 0 1 105.93 53.12   Z" fill="#ffffff"/>
<path class="icon-shape" d="   M 105.93 53.12   A 0.89 0.89 0.0 0 0 107.10 53.04   L 119.13 41.01   A 2.13 2.12 -44.9 0 1 122.14 41.01   L 122.66 41.52   A 2.00 1.99 -44.2 0 1 122.62 44.38   Q 114.98 51.59 108.84 58.09   Q 106.99 60.05 104.77 58.23   Q 101.40 55.49 95.12 50.95   A 2.27 2.26 -53.4 0 1 94.65 47.73   L 94.78 47.55   A 2.23 2.23 0.0 0 1 97.94 47.08   L 105.93 53.12   Z" fill="#b2b0b4"/>
<path class="icon-shape" d="   M 107.26 67.48   Q 137.46 67.48 144.00 67.42   Q 147.24 67.40 148.64 70.69   Q 149.86 73.58 156.90 91.29   A 0.37 0.37 0.0 0 1 156.56 91.80   Q 120.42 91.73 107.26 91.73   Q 94.11 91.73 57.96 91.79   A 0.37 0.37 0.0 0 1 57.62 91.28   Q 64.67 73.57 65.89 70.68   Q 67.29 67.39 70.53 67.42   Q 77.06 67.48 107.26 67.48   Z" fill="#ffffff"/>
<path class="icon-shape" d="   M 50.71 94.30   L 39.40 94.34   A 2.83 2.83 0.0 0 1 36.62 92.06   L 36.59 91.83   A 1.83 1.83 0.0 0 1 38.39 89.66   L 46.48 89.69   A 2.45 2.43 67.3 0 1 48.22 90.42   L 51.11 93.34   A 0.56 0.56 0.0 0 1 50.71 94.30   Z" fill="#ffffff"/>
<path class="icon-shape" d="   M 164.23 94.40   A 0.57 0.57 0.0 0 1 163.83 93.42   L 166.79 90.45   A 2.50 2.47 -67.1 0 1 168.57 89.72   L 176.82 89.73   A 1.87 1.86 -84.5 0 1 178.65 91.95   L 178.61 92.18   A 2.89 2.88 5.8 0 1 175.77 94.49   L 164.23 94.40   Z" fill="#ffffff"/>
<path class="icon-shape" d="   M 60.60 148.05   Q 60.57 151.19 60.37 155.06   Q 60.24 157.59 57.58 157.63   Q 53.57 157.68 46.82 157.60   A 2.64 2.64 0.0 0 1 44.21 154.96   L 44.21 113.08   A 5.71 5.45 -37.3 0 1 44.48 111.37   Q 47.31 102.72 54.76 97.08   A 1.41 1.38 26.0 0 1 55.60 96.80   L 158.37 96.80   A 3.19 3.18 -23.2 0 1 160.56 97.67   C 164.92 101.82 168.02 104.50 170.40 109.86   Q 171.63 112.64 171.59 118.32   Q 171.48 135.57 171.59 155.00   C 171.60 156.76 170.05 157.57 168.33 157.60   Q 161.90 157.71 157.19 157.58   A 1.98 1.98 0.0 0 1 155.26 155.62   Q 155.18 149.57 155.06 148.28   Q 154.87 146.26 152.44 145.40   A 0.12 0.06 -16.8 0 0 152.39 145.39   L 63.28 145.39   A 2.68 2.68 0.0 0 0 60.60 148.05   Z   M 47.72 114.81   C 47.93 119.95 47.42 126.95 52.35 127.40   C 56.37 127.77 62.00 127.50 68.93 127.66   C 71.70 127.72 75.31 126.23 74.81 122.97   C 74.14 118.60 73.26 115.41 68.49 114.27   Q 62.12 112.75 52.25 111.38   Q 49.69 111.02 47.98 113.80   A 1.85 1.78 60.6 0 0 47.72 114.81   Z   M 163.07 111.35   Q 155.05 112.32 147.14 114.11   Q 143.31 114.97 142.01 116.91   C 139.82 120.18 138.38 127.16 144.24 127.55   Q 150.90 128.01 159.96 127.68   C 168.49 127.37 167.54 121.48 166.87 114.70   Q 166.67 112.69 164.31 111.55   A 2.26 2.24 -35.7 0 0 163.07 111.35   Z   M 132.86 115.98   A 2.47 2.47 0.0 0 0 130.39 113.51   L 84.33 113.51   A 2.47 2.47 0.0 0 0 81.86 115.98   L 81.86 116.06   A 2.47 2.47 0.0 0 0 84.33 118.53   L 130.39 118.53   A 2.47 2.47 0.0 0 0 132.86 116.06   L 132.86 115.98   Z" fill="#ffffff"/>
<path class="icon-shape" d="   M 47.98 113.80   Q 49.69 111.02 52.25 111.38   Q 62.12 112.75 68.49 114.27   C 73.26 115.41 74.14 118.60 74.81 122.97   C 75.31 126.23 71.70 127.72 68.93 127.66   C 62.00 127.50 56.37 127.77 52.35 127.40   C 47.42 126.95 47.93 119.95 47.72 114.81   A 1.85 1.78 60.6 0 1 47.98 113.80   Z   M 52.95 117.05   L 52.95 121.92   A 0.86 0.85 -0.0 0 0 53.81 122.77   L 69.21 122.77   A 0.57 0.56 -4.0 0 0 69.77 122.13   C 69.53 120.39 68.40 119.14 66.47 118.72   Q 59.68 117.24 53.50 116.56   A 0.50 0.49 3.1 0 0 52.95 117.05   Z" fill="#b2b0b4"/>
<path class="icon-shape" d="   M 164.31 111.55   Q 166.67 112.69 166.87 114.70   C 167.54 121.48 168.49 127.37 159.96 127.68   Q 150.90 128.01 144.24 127.55   C 138.38 127.16 139.82 120.18 142.01 116.91   Q 143.31 114.97 147.14 114.11   Q 155.05 112.32 163.07 111.35   A 2.26 2.24 -35.7 0 1 164.31 111.55   Z   M 162.00 117.05   A 0.50 0.50 0.0 0 0 161.44 116.55   Q 155.20 117.23 148.33 118.71   C 146.38 119.13 145.24 120.39 144.99 122.15   A 0.57 0.57 0.0 0 0 145.56 122.80   L 161.12 122.82   A 0.87 0.86 0.1 0 0 161.99 121.97   L 162.00 117.05   Z" fill="#b2b0b4"/>
<rect fill="#b2b0b4" height="5.02" rx="2.47" width="51.00" x="81.86" y="113.51"/>
<path class="icon-shape" d="   M 52.95 117.05   A 0.50 0.49 3.1 0 1 53.50 116.56   Q 59.68 117.24 66.47 118.72   C 68.40 119.14 69.53 120.39 69.77 122.13   A 0.57 0.56 -4.0 0 1 69.21 122.77   L 53.81 122.77   A 0.86 0.85 -0.0 0 1 52.95 121.92   L 52.95 117.05   Z" fill="#ffffff"/>
<path class="icon-shape" d="   M 162.00 117.05   L 161.99 121.97   A 0.87 0.86 0.1 0 1 161.12 122.82   L 145.56 122.80   A 0.57 0.57 0.0 0 1 144.99 122.15   C 145.24 120.39 146.38 119.13 148.33 118.71   Q 155.20 117.23 161.44 116.55   A 0.50 0.50 0.0 0 1 162.00 117.05   Z" fill="#ffffff"/>
</g><g id="onState" style="display:none"><g fill="none" stroke-linecap="butt" stroke-width="2.00">
<path class="icon-shape" d="   M 39.25 113.13   Q 39.02 131.67 39.21 150.51   Q 39.28 156.88 40.74 159.16   Q 42.99 162.69 48.48 162.70   Q 49.42 162.70 58.18 162.59   A 2.29 2.22 -52.2 0 0 58.81 162.50   C 64.71 160.88 65.50 156.41 65.04 151.06   A 0.61 0.61 0.0 0 1 65.65 150.40   L 149.65 150.40   A 0.59 0.58 -85.3 0 1 150.22 151.08   Q 148.64 160.35 156.60 162.51   A 4.37 4.27 51.4 0 0 157.90 162.67   C 165.00 162.53 176.12 164.82 176.40 154.10   Q 176.45 152.23 176.51 119.68   Q 176.52 112.78 175.17 109.18   Q 173.27 104.07 169.72 100.06   A 0.60 0.60 0.0 0 1 170.15 99.06   Q 170.18 99.06 176.28 98.94   C 184.58 98.77 185.77 86.12 177.35 85.09   C 175.41 84.86 169.32 84.89 166.90 85.10   A 2.27 2.21 -67.3 0 0 165.61 85.65   L 161.57 89.22   A 0.49 0.49 0.0 0 1 160.79 89.02   Q 157.36 79.90 154.58 72.89   C 152.58 67.87 150.97 63.52 145.65 62.88   A 1.60 1.60 0.0 0 1 144.28 61.61   Q 142.14 51.02 140.17 41.97   C 138.98 36.54 138.48 31.32 132.45 29.54   Q 130.58 28.99 126.47 28.99   Q 119.84 28.99 114.01 28.78" stroke="#808080" vector-effect="non-scaling-stroke"/>
<path class="icon-shape" d="   M 114.01 28.78   Q 93.66 13.98 70.68 17.78   C 35.09 23.65 15.09 58.64 26.24 92.48   Q 29.90 103.58 39.25 113.13" stroke="#fef6f6" vector-effect="non-scaling-stroke"/>
<path class="icon-shape" d="   M 114.01 28.78   Q 100.04 29.05 87.26 28.98   Q 79.60 28.94 76.35 35.51   A 2.79 2.37 -30.9 0 0 76.17 36.04   L 70.29 62.36   A 0.59 0.58 -84.7 0 1 69.75 62.82   Q 63.96 63.13 61.90 68.21   Q 56.48 81.56 53.96 88.33   A 0.69 0.69 0.0 0 1 52.83 88.58   L 49.84 85.59   A 1.74 1.74 0.0 0 0 48.61 85.08   L 36.76 85.08   A 1.62 1.55 28.6 0 0 35.95 85.30   C 29.87 88.92 31.08 96.51 37.67 98.66   A 1.06 0.96 -33.7 0 0 38.07 98.72   L 45.76 98.58   A 0.33 0.33 0.0 0 1 46.01 99.13   Q 40.94 104.92 39.25 113.13" stroke="#7f7776" vector-effect="non-scaling-stroke"/>
<path class="icon-shape" d="   M 107.48 62.69   Q 137.85 62.69 139.45 62.64   A 0.30 0.30 0.0 0 0 139.74 62.28   Q 137.70 53.29 134.61 38.65   C 133.80 34.80 131.48 34.09 127.65 34.03   Q 126.56 34.02 107.47 34.02   Q 88.39 34.02 87.30 34.04   C 83.47 34.09 81.15 34.81 80.34 38.66   Q 77.25 53.30 75.21 62.29   A 0.30 0.30 0.0 0 0 75.50 62.65   Q 77.11 62.69 107.48 62.69" stroke="#808080" vector-effect="non-scaling-stroke"/>
<path class="icon-shape" d="   M 133.22 91.74   L 156.47 91.75   A 0.39 0.39 0.0 0 0 156.83 91.21   Q 152.83 81.26 148.81 71.21   Q 147.33 67.49 143.52 67.55   Q 139.77 67.60 135.89 67.57" stroke="#808080" vector-effect="non-scaling-stroke"/>
<path class="icon-shape" d="   M 135.89 67.57   Q 104.72 67.59 73.38 67.53   C 69.89 67.52 67.39 67.18 66.10 70.38   Q 61.85 80.88 57.69 91.30   A 0.32 0.32 0.0 0 0 57.99 91.74   L 133.22 91.74" stroke="#7f7776" vector-effect="non-scaling-stroke"/>
<path class="icon-shape" d="   M 135.89 67.57   Q 136.47 79.81 133.22 91.74" stroke="#fef6f6" vector-effect="non-scaling-stroke"/>
<path class="icon-shape" d="   M 51.04 93.33   L 48.14 90.42   A 2.17 2.16 -22.0 0 0 46.60 89.77   L 38.41 89.73   A 1.80 1.80 0.0 0 0 36.64 91.84   L 36.67 91.98   A 2.68 2.67 85.5 0 0 39.33 94.26   L 50.68 94.22   A 0.52 0.52 0.0 0 0 51.04 93.33" stroke="#808080" vector-effect="non-scaling-stroke"/>
<path class="icon-shape" d="   M 163.84 93.43   A 0.53 0.53 0.0 0 0 164.21 94.34   L 175.82 94.41   A 2.75 2.74 -85.4 0 0 178.55 92.08   L 178.58 91.94   A 1.84 1.84 0.0 0 0 176.77 89.78   L 168.39 89.80   A 2.22 2.21 22.2 0 0 166.81 90.46   L 163.84 93.43" stroke="#808080" vector-effect="non-scaling-stroke"/>
<path class="icon-shape" d="   M 46.43 157.52   L 58.17 157.52   A 2.23 2.23 0.0 0 0 60.40 155.29   L 60.40 148.28   A 3.00 3.00 0.0 0 1 63.40 145.28   L 151.98 145.28   A 1.59 1.58 55.5 0 1 152.56 145.39   C 156.23 146.82 155.28 151.17 155.36 155.60   A 1.97 1.97 0.0 0 0 157.33 157.53   L 169.12 157.53   A 2.34 2.33 -90.0 0 0 171.45 155.19   L 171.45 113.71   A 3.08 2.91 -55.4 0 0 171.31 112.80   C 169.02 105.50 165.45 102.04 159.80 97.21   A 1.56 1.56 0.0 0 0 158.78 96.83   L 55.65 96.83   A 1.44 1.36 25.2 0 0 54.80 97.11   Q 47.08 102.89 44.42 111.79   A 3.52 3.42 -37.1 0 0 44.26 112.83   L 44.26 155.35   A 2.17 2.17 0.0 0 0 46.43 157.52" stroke="#808080" vector-effect="non-scaling-stroke"/>
<path class="icon-shape" d="   M 106.86 53.13   A 0.50 0.49 -48.7 0 1 106.21 53.18   L 97.95 47.04   A 2.27 2.27 0.0 0 0 94.81 47.47   L 94.63 47.71   A 2.26 2.26 0.0 0 0 95.06 50.96   Q 101.71 55.79 104.73 58.29   Q 106.90 60.08 108.61 58.36   Q 118.89 48.00 122.81 44.24   A 1.76 1.76 0.0 0 0 122.83 41.72   L 121.88 40.76   A 1.88 1.87 44.9 0 0 119.23 40.76   L 106.86 53.13" stroke="#808080" vector-effect="non-scaling-stroke"/>
<path class="icon-shape" d="   M 52.77 111.33   C 50.58 110.96 49.48 111.87 48.06 113.44   A 2.15 2.14 63.7 0 0 47.51 115.09   L 48.38 123.89   A 2.55 2.43 -63.1 0 0 48.65 124.79   Q 50.08 127.43 53.50 127.59   Q 63.42 128.05 70.98 127.55   Q 73.23 127.40 74.80 124.44   A 1.81 1.77 -38.0 0 0 74.96 123.23   C 73.46 116.17 72.52 114.73 64.71 113.38   Q 58.73 112.34 52.77 111.33" stroke="#808080" vector-effect="non-scaling-stroke"/>
<path class="icon-shape" d="   M 140.66 125.58   Q 142.08 127.61 144.76 127.71   Q 156.48 128.14 162.14 127.51   Q 165.15 127.17 166.88 124.00   A 2.15 2.14 -29.6 0 0 167.14 123.06   C 167.27 118.09 168.33 110.08 161.32 111.43   C 158.34 112.01 155.39 112.54 149.11 113.54   Q 139.22 115.10 140.19 124.32   A 2.67 2.65 24.8 0 0 140.66 125.58" stroke="#808080" vector-effect="non-scaling-stroke"/>
<path class="icon-shape" d="   M 132.87 115.98   A 2.54 2.54 0.0 0 0 130.33 113.44   L 84.37 113.44   A 2.54 2.54 0.0 0 0 81.83 115.98   L 81.83 116.06   A 2.54 2.54 0.0 0 0 84.37 118.60   L 130.33 118.60   A 2.54 2.54 0.0 0 0 132.87 116.06   L 132.87 115.98" stroke="#808080" vector-effect="non-scaling-stroke"/>
<path class="icon-shape" d="   M 52.75 116.96   L 53.27 122.31   A 0.42 0.41 -3.0 0 0 53.69 122.68   L 69.21 122.68   A 0.49 0.49 0.0 0 0 69.69 122.11   Q 69.23 119.43 66.86 118.88   Q 60.20 117.35 53.13 116.58   A 0.34 0.34 0.0 0 0 52.75 116.96" stroke="#808080" vector-effect="non-scaling-stroke"/>
<path class="icon-shape" d="   M 162.20 116.93   A 0.35 0.35 0.0 0 0 161.81 116.54   Q 154.65 117.33 147.91 118.88   Q 145.50 119.44 145.04 122.16   A 0.49 0.49 0.0 0 0 145.53 122.73   L 161.25 122.72   A 0.43 0.42 3.0 0 0 161.67 122.35   L 162.20 116.93" stroke="#808080" vector-effect="non-scaling-stroke"/>
</g>
<path class="icon-shape" d="   M 209.00 0.00   L 209.00 197.00   L 0.00 197.00   L 0.00 0.00   L 209.00 0.00   Z   M 39.25 113.13   Q 39.02 131.67 39.21 150.51   Q 39.28 156.88 40.74 159.16   Q 42.99 162.69 48.48 162.70   Q 49.42 162.70 58.18 162.59   A 2.29 2.22 -52.2 0 0 58.81 162.50   C 64.71 160.88 65.50 156.41 65.04 151.06   A 0.61 0.61 0.0 0 1 65.65 150.40   L 149.65 150.40   A 0.59 0.58 -85.3 0 1 150.22 151.08   Q 148.64 160.35 156.60 162.51   A 4.37 4.27 51.4 0 0 157.90 162.67   C 165.00 162.53 176.12 164.82 176.40 154.10   Q 176.45 152.23 176.51 119.68   Q 176.52 112.78 175.17 109.18   Q 173.27 104.07 169.72 100.06   A 0.60 0.60 0.0 0 1 170.15 99.06   Q 170.18 99.06 176.28 98.94   C 184.58 98.77 185.77 86.12 177.35 85.09   C 175.41 84.86 169.32 84.89 166.90 85.10   A 2.27 2.21 -67.3 0 0 165.61 85.65   L 161.57 89.22   A 0.49 0.49 0.0 0 1 160.79 89.02   Q 157.36 79.90 154.58 72.89   C 152.58 67.87 150.97 63.52 145.65 62.88   A 1.60 1.60 0.0 0 1 144.28 61.61   Q 142.14 51.02 140.17 41.97   C 138.98 36.54 138.48 31.32 132.45 29.54   Q 130.58 28.99 126.47 28.99   Q 119.84 28.99 114.01 28.78   Q 93.66 13.98 70.68 17.78   C 35.09 23.65 15.09 58.64 26.24 92.48   Q 29.90 103.58 39.25 113.13   Z" fill="#ffffff"/>
<path class="icon-shape" d="   M 114.01 28.78   Q 100.04 29.05 87.26 28.98   Q 79.60 28.94 76.35 35.51   A 2.79 2.37 -30.9 0 0 76.17 36.04   L 70.29 62.36   A 0.59 0.58 -84.7 0 1 69.75 62.82   Q 63.96 63.13 61.90 68.21   Q 56.48 81.56 53.96 88.33   A 0.69 0.69 0.0 0 1 52.83 88.58   L 49.84 85.59   A 1.74 1.74 0.0 0 0 48.61 85.08   L 36.76 85.08   A 1.62 1.55 28.6 0 0 35.95 85.30   C 29.87 88.92 31.08 96.51 37.67 98.66   A 1.06 0.96 -33.7 0 0 38.07 98.72   L 45.76 98.58   A 0.33 0.33 0.0 0 1 46.01 99.13   Q 40.94 104.92 39.25 113.13   Q 29.90 103.58 26.24 92.48   C 15.09 58.64 35.09 23.65 70.68 17.78   Q 93.66 13.98 114.01 28.78   Z" fill="#fdedec"/>
<path class="icon-shape" d="   M 114.01 28.78   Q 119.84 28.99 126.47 28.99   Q 130.58 28.99 132.45 29.54   C 138.48 31.32 138.98 36.54 140.17 41.97   Q 142.14 51.02 144.28 61.61   A 1.60 1.60 0.0 0 0 145.65 62.88   C 150.97 63.52 152.58 67.87 154.58 72.89   Q 157.36 79.90 160.79 89.02   A 0.49 0.49 0.0 0 0 161.57 89.22   L 165.61 85.65   A 2.27 2.21 -67.3 0 1 166.90 85.10   C 169.32 84.89 175.41 84.86 177.35 85.09   C 185.77 86.12 184.58 98.77 176.28 98.94   Q 170.18 99.06 170.15 99.06   A 0.60 0.60 0.0 0 0 169.72 100.06   Q 173.27 104.07 175.17 109.18   Q 176.52 112.78 176.51 119.68   Q 176.45 152.23 176.40 154.10   C 176.12 164.82 165.00 162.53 157.90 162.67   A 4.37 4.27 51.4 0 1 156.60 162.51   Q 148.64 160.35 150.22 151.08   A 0.59 0.58 -85.3 0 0 149.65 150.40   L 65.65 150.40   A 0.61 0.61 0.0 0 0 65.04 151.06   C 65.50 156.41 64.71 160.88 58.81 162.50   A 2.29 2.22 -52.2 0 1 58.18 162.59   Q 49.42 162.70 48.48 162.70   Q 42.99 162.69 40.74 159.16   Q 39.28 156.88 39.21 150.51   Q 39.02 131.67 39.25 113.13   Q 40.94 104.92 46.01 99.13   A 0.33 0.33 0.0 0 0 45.76 98.58   L 38.07 98.72   A 1.06 0.96 -33.7 0 1 37.67 98.66   C 31.08 96.51 29.87 88.92 35.95 85.30   A 1.62 1.55 28.6 0 1 36.76 85.08   L 48.61 85.08   A 1.74 1.74 0.0 0 1 49.84 85.59   L 52.83 88.58   A 0.69 0.69 0.0 0 0 53.96 88.33   Q 56.48 81.56 61.90 68.21   Q 63.96 63.13 69.75 62.82   A 0.59 0.58 -84.7 0 0 70.29 62.36   L 76.17 36.04   A 2.79 2.37 -30.9 0 1 76.35 35.51   Q 79.60 28.94 87.26 28.98   Q 100.04 29.05 114.01 28.78   Z   M 107.48 62.69   Q 137.85 62.69 139.45 62.64   A 0.30 0.30 0.0 0 0 139.74 62.28   Q 137.70 53.29 134.61 38.65   C 133.80 34.80 131.48 34.09 127.65 34.03   Q 126.56 34.02 107.47 34.02   Q 88.39 34.02 87.30 34.04   C 83.47 34.09 81.15 34.81 80.34 38.66   Q 77.25 53.30 75.21 62.29   A 0.30 0.30 0.0 0 0 75.50 62.65   Q 77.11 62.69 107.48 62.69   Z   M 133.22 91.74   L 156.47 91.75   A 0.39 0.39 0.0 0 0 156.83 91.21   Q 152.83 81.26 148.81 71.21   Q 147.33 67.49 143.52 67.55   Q 139.77 67.60 135.89 67.57   Q 104.72 67.59 73.38 67.53   C 69.89 67.52 67.39 67.18 66.10 70.38   Q 61.85 80.88 57.69 91.30   A 0.32 0.32 0.0 0 0 57.99 91.74   L 133.22 91.74   Z   M 51.04 93.33   L 48.14 90.42   A 2.17 2.16 -22.0 0 0 46.60 89.77   L 38.41 89.73   A 1.80 1.80 0.0 0 0 36.64 91.84   L 36.67 91.98   A 2.68 2.67 85.5 0 0 39.33 94.26   L 50.68 94.22   A 0.52 0.52 0.0 0 0 51.04 93.33   Z   M 163.84 93.43   A 0.53 0.53 0.0 0 0 164.21 94.34   L 175.82 94.41   A 2.75 2.74 -85.4 0 0 178.55 92.08   L 178.58 91.94   A 1.84 1.84 0.0 0 0 176.77 89.78   L 168.39 89.80   A 2.22 2.21 22.2 0 0 166.81 90.46   L 163.84 93.43   Z   M 46.43 157.52   L 58.17 157.52   A 2.23 2.23 0.0 0 0 60.40 155.29   L 60.40 148.28   A 3.00 3.00 0.0 0 1 63.40 145.28   L 151.98 145.28   A 1.59 1.58 55.5 0 1 152.56 145.39   C 156.23 146.82 155.28 151.17 155.36 155.60   A 1.97 1.97 0.0 0 0 157.33 157.53   L 169.12 157.53   A 2.34 2.33 -90.0 0 0 171.45 155.19   L 171.45 113.71   A 3.08 2.91 -55.4 0 0 171.31 112.80   C 169.02 105.50 165.45 102.04 159.80 97.21   A 1.56 1.56 0.0 0 0 158.78 96.83   L 55.65 96.83   A 1.44 1.36 25.2 0 0 54.80 97.11   Q 47.08 102.89 44.42 111.79   A 3.52 3.42 -37.1 0 0 44.26 112.83   L 44.26 155.35   A 2.17 2.17 0.0 0 0 46.43 157.52   Z" fill="#000000"/>
<path class="icon-shape" d="   M 107.47 34.02   Q 126.56 34.02 127.65 34.03   C 131.48 34.09 133.80 34.80 134.61 38.65   Q 137.70 53.29 139.74 62.28   A 0.30 0.30 0.0 0 1 139.45 62.64   Q 137.85 62.69 107.48 62.69   Q 77.11 62.69 75.50 62.65   A 0.30 0.30 0.0 0 1 75.21 62.29   Q 77.25 53.30 80.34 38.66   C 81.15 34.81 83.47 34.09 87.30 34.04   Q 88.39 34.02 107.47 34.02   Z   M 106.86 53.13   A 0.50 0.49 -48.7 0 1 106.21 53.18   L 97.95 47.04   A 2.27 2.27 0.0 0 0 94.81 47.47   L 94.63 47.71   A 2.26 2.26 0.0 0 0 95.06 50.96   Q 101.71 55.79 104.73 58.29   Q 106.90 60.08 108.61 58.36   Q 118.89 48.00 122.81 44.24   A 1.76 1.76 0.0 0 0 122.83 41.72   L 121.88 40.76   A 1.88 1.87 44.9 0 0 119.23 40.76   L 106.86 53.13   Z" fill="#ffffff"/>
<path class="icon-shape" d="   M 106.86 53.13   L 119.23 40.76   A 1.88 1.87 44.9 0 1 121.88 40.76   L 122.83 41.72   A 1.76 1.76 0.0 0 1 122.81 44.24   Q 118.89 48.00 108.61 58.36   Q 106.90 60.08 104.73 58.29   Q 101.71 55.79 95.06 50.96   A 2.26 2.26 0.0 0 1 94.63 47.71   L 94.81 47.47   A 2.27 2.27 0.0 0 1 97.95 47.04   L 106.21 53.18   A 0.50 0.49 -48.7 0 0 106.86 53.13   Z" fill="#000000"/>
<path class="icon-shape" d="   M 135.89 67.57   Q 136.47 79.81 133.22 91.74   L 57.99 91.74   A 0.32 0.32 0.0 0 1 57.69 91.30   Q 61.85 80.88 66.10 70.38   C 67.39 67.18 69.89 67.52 73.38 67.53   Q 104.72 67.59 135.89 67.57   Z" fill="#fdedec"/>
<path class="icon-shape" d="   M 133.22 91.74   Q 136.47 79.81 135.89 67.57   Q 139.77 67.60 143.52 67.55   Q 147.33 67.49 148.81 71.21   Q 152.83 81.26 156.83 91.21   A 0.39 0.39 0.0 0 1 156.47 91.75   L 133.22 91.74   Z" fill="#ffffff"/>
<path class="icon-shape" d="   M 51.04 93.33   A 0.52 0.52 0.0 0 1 50.68 94.22   L 39.33 94.26   A 2.68 2.67 85.5 0 1 36.67 91.98   L 36.64 91.84   A 1.80 1.80 0.0 0 1 38.41 89.73   L 46.60 89.77   A 2.17 2.16 -22.0 0 1 48.14 90.42   L 51.04 93.33   Z" fill="#ffffff"/>
<path class="icon-shape" d="   M 163.84 93.43   L 166.81 90.46   A 2.22 2.21 22.2 0 1 168.39 89.80   L 176.77 89.78   A 1.84 1.84 0.0 0 1 178.58 91.94   L 178.55 92.08   A 2.75 2.74 -85.4 0 1 175.82 94.41   L 164.21 94.34   A 0.53 0.53 0.0 0 1 163.84 93.43   Z" fill="#ffffff"/>
<path class="icon-shape" d="   M 46.43 157.52   A 2.17 2.17 0.0 0 1 44.26 155.35   L 44.26 112.83   A 3.52 3.42 -37.1 0 1 44.42 111.79   Q 47.08 102.89 54.80 97.11   A 1.44 1.36 25.2 0 1 55.65 96.83   L 158.78 96.83   A 1.56 1.56 0.0 0 1 159.80 97.21   C 165.45 102.04 169.02 105.50 171.31 112.80   A 3.08 2.91 -55.4 0 1 171.45 113.71   L 171.45 155.19   A 2.34 2.33 90.0 0 1 169.12 157.53   L 157.33 157.53   A 1.97 1.97 0.0 0 1 155.36 155.60   C 155.28 151.17 156.23 146.82 152.56 145.39   A 1.59 1.58 55.5 0 0 151.98 145.28   L 63.40 145.28   A 3.00 3.00 0.0 0 0 60.40 148.28   L 60.40 155.29   A 2.23 2.23 0.0 0 1 58.17 157.52   L 46.43 157.52   Z   M 52.77 111.33   C 50.58 110.96 49.48 111.87 48.06 113.44   A 2.15 2.14 63.7 0 0 47.51 115.09   L 48.38 123.89   A 2.55 2.43 -63.1 0 0 48.65 124.79   Q 50.08 127.43 53.50 127.59   Q 63.42 128.05 70.98 127.55   Q 73.23 127.40 74.80 124.44   A 1.81 1.77 -38.0 0 0 74.96 123.23   C 73.46 116.17 72.52 114.73 64.71 113.38   Q 58.73 112.34 52.77 111.33   Z   M 140.66 125.58   Q 142.08 127.61 144.76 127.71   Q 156.48 128.14 162.14 127.51   Q 165.15 127.17 166.88 124.00   A 2.15 2.14 -29.6 0 0 167.14 123.06   C 167.27 118.09 168.33 110.08 161.32 111.43   C 158.34 112.01 155.39 112.54 149.11 113.54   Q 139.22 115.10 140.19 124.32   A 2.67 2.65 24.8 0 0 140.66 125.58   Z   M 132.87 115.98   A 2.54 2.54 0.0 0 0 130.33 113.44   L 84.37 113.44   A 2.54 2.54 0.0 0 0 81.83 115.98   L 81.83 116.06   A 2.54 2.54 0.0 0 0 84.37 118.60   L 130.33 118.60   A 2.54 2.54 0.0 0 0 132.87 116.06   L 132.87 115.98   Z" fill="#ffffff"/>
<path class="icon-shape" d="   M 48.06 113.44   C 49.48 111.87 50.58 110.96 52.77 111.33   Q 58.73 112.34 64.71 113.38   C 72.52 114.73 73.46 116.17 74.96 123.23   A 1.81 1.77 -38.0 0 1 74.80 124.44   Q 73.23 127.40 70.98 127.55   Q 63.42 128.05 53.50 127.59   Q 50.08 127.43 48.65 124.79   A 2.55 2.43 -63.1 0 1 48.38 123.89   L 47.51 115.09   A 2.15 2.14 63.7 0 1 48.06 113.44   Z   M 52.75 116.96   L 53.27 122.31   A 0.42 0.41 -3.0 0 0 53.69 122.68   L 69.21 122.68   A 0.49 0.49 0.0 0 0 69.69 122.11   Q 69.23 119.43 66.86 118.88   Q 60.20 117.35 53.13 116.58   A 0.34 0.34 0.0 0 0 52.75 116.96   Z" fill="#000000"/>
<path class="icon-shape" d="   M 140.19 124.32   Q 139.22 115.10 149.11 113.54   C 155.39 112.54 158.34 112.01 161.32 111.43   C 168.33 110.08 167.27 118.09 167.14 123.06   A 2.15 2.14 -29.6 0 1 166.88 124.00   Q 165.15 127.17 162.14 127.51   Q 156.48 128.14 144.76 127.71   Q 142.08 127.61 140.66 125.58   A 2.67 2.65 24.8 0 1 140.19 124.32   Z   M 162.20 116.93   A 0.35 0.35 0.0 0 0 161.81 116.54   Q 154.65 117.33 147.91 118.88   Q 145.50 119.44 145.04 122.16   A 0.49 0.49 0.0 0 0 145.53 122.73   L 161.25 122.72   A 0.43 0.42 3.0 0 0 161.67 122.35   L 162.20 116.93   Z" fill="#000000"/>
<rect fill="#000000" height="5.16" rx="2.54" width="51.04" x="81.83" y="113.44"/>
<path class="icon-shape" d="   M 53.13 116.58   Q 60.20 117.35 66.86 118.88   Q 69.23 119.43 69.69 122.11   A 0.49 0.49 0.0 0 1 69.21 122.68   L 53.69 122.68   A 0.42 0.41 -3.0 0 1 53.27 122.31   L 52.75 116.96   A 0.34 0.34 0.0 0 1 53.13 116.58   Z" fill="#ffffff"/>
<path class="icon-shape" d="   M 162.20 116.93   L 161.67 122.35   A 0.43 0.42 3.0 0 1 161.25 122.72   L 145.53 122.73   A 0.49 0.49 0.0 0 1 145.04 122.16   Q 145.50 119.44 147.91 118.88   Q 154.65 117.33 161.81 116.54   A 0.35 0.35 0.0 0 1 162.20 116.93   Z" fill="#ffffff"/>
</g></svg>