<?xml version="1.0" encoding="UTF-8" standalone="no"?>
<!DOCTYPE svg PUBLIC "-//W3C//DTD SVG 1.1//EN" "http://www.w3.org/Graphics/SVG/1.1/DTD/svg11.dtd">
<svg xmlns="http://www.w3.org/2000/svg" version="1.1" viewBox="0.00 0.00 130.00 136.00">
<path fill="#000000" d="
  M 90.72 50.34
  A 0.34 0.33 -32.8 0 0 90.84 49.82
  Q 86.88 45.24 87.82 39.01
  Q 88.04 37.51 88.37 34.81
  Q 88.75 31.55 89.14 30.61
  Q 93.23 20.58 104.40 24.12
  Q 111.34 26.31 110.03 34.33
  Q 109.63 36.73 96.37 104.01
  Q 95.80 106.89 94.75 109.03
  Q 92.59 113.42 88.57 115.41
  Q 86.14 116.61 79.74 116.60
  Q 41.48 116.51 39.37 116.58
  Q 32.34 116.81 29.83 115.41
  Q 24.87 112.65 23.25 108.50
  Q 20.36 101.14 18.94 96.32
  Q 18.08 93.42 18.55 88.56
  A 2.96 2.91 -29.3 0 1 18.87 87.46
  Q 23.87 77.75 34.72 79.42
  Q 44.29 80.89 45.22 80.86
  A 0.51 0.49 68.0 0 1 45.62 81.04
  Q 45.81 81.26 46.03 81.29
  Q 49.47 81.67 56.21 82.78
  Q 66.31 84.44 72.94 85.32
  A 0.75 0.75 0.0 0 0 73.76 84.79
  Q 76.90 73.89 80.96 62.97
  C 82.98 57.53 85.17 52.80 90.72 50.34
  Z
  M 105.83 30.24
  Q 104.64 27.93 101.04 27.50
  Q 94.10 26.65 92.91 32.89
  C 91.73 39.11 90.30 45.63 96.56 48.94
  Q 97.20 49.28 102.43 49.13
  A 0.71 0.71 0.0 0 0 103.12 48.54
  Q 104.07 43.48 105.29 37.02
  C 105.71 34.82 106.44 33.28 106.10 31.06
  A 2.78 2.48 -66.5 0 0 105.83 30.24
  Z
  M 102.02 53.82
  A 0.37 0.36 5.8 0 0 101.66 53.39
  L 94.58 53.45
  A 0.74 0.64 -49.3 0 0 94.38 53.48
  C 89.27 54.78 86.68 58.81 85.03 63.56
  Q 80.15 77.53 77.29 87.35
  Q 76.47 90.15 73.13 89.61
  Q 41.29 84.51 36.23 83.92
  Q 33.98 83.65 32.83 83.51
  C 28.08 82.93 23.60 85.13 22.52 89.73
  Q 21.82 92.69 23.74 98.03
  Q 26.19 104.84 26.67 106.06
  Q 29.16 112.30 35.26 112.30
  Q 58.61 112.30 78.10 112.32
  Q 84.79 112.33 85.38 112.13
  C 90.56 110.42 91.74 106.50 92.80 101.05
  Q 93.33 98.29 102.02 53.82
  Z"
/>
<path fill="#000000" d="
  M 34.24 61.20
  L 34.17 61.16
  A 2.10 2.09 27.4 0 1 33.38 58.68
  L 36.06 51.66
  A 4.15 4.12 44.3 0 0 36.01 48.61
  Q 34.94 46.05 33.73 43.93
  C 31.37 39.84 31.37 35.67 33.65 31.39
  A 2.10 2.09 25.5 0 1 36.33 30.45
  L 36.41 30.49
  A 1.94 1.93 -66.8 0 1 37.42 33.03
  Q 35.86 36.68 36.67 39.63
  A 7.01 5.80 48.9 0 0 36.97 40.54
  C 37.83 42.72 40.15 45.33 40.49 48.56
  Q 41.06 54.05 36.96 60.54
  A 2.00 2.00 0.0 0 1 34.24 61.20
  Z"
/>
<path fill="#000000" d="
  M 47.28 61.19
  L 47.21 61.15
  A 2.10 2.09 27.7 0 1 46.43 58.67
  L 49.15 51.65
  A 4.16 4.12 44.6 0 0 49.12 48.60
  Q 48.06 46.03 46.86 43.90
  C 44.52 39.80 44.54 35.62 46.85 31.35
  A 2.11 2.09 25.8 0 1 49.54 30.43
  L 49.62 30.47
  A 1.94 1.93 -66.5 0 1 50.61 33.01
  Q 49.03 36.66 49.83 39.62
  A 7.01 5.80 49.2 0 0 50.12 40.53
  C 50.97 42.72 53.28 45.34 53.60 48.57
  Q 54.14 54.07 50.00 60.55
  A 2.01 2.00 -58.3 0 1 47.28 61.19
  Z"
/>
<path fill="#000000" d="
  M 60.10 61.32
  L 60.03 61.28
  A 2.10 2.10 0.0 0 1 59.30 58.78
  L 62.14 51.80
  A 4.16 4.13 45.5 0 0 62.15 48.74
  Q 61.13 46.15 59.97 44.00
  C 57.69 39.85 57.78 35.67 60.16 31.43
  A 2.11 2.10 26.7 0 1 62.87 30.54
  L 62.95 30.58
  A 1.94 1.94 0.0 0 1 63.90 33.15
  Q 62.26 36.78 63.01 39.75
  A 7.03 5.81 50.1 0 0 63.29 40.67
  C 64.10 42.87 66.37 45.54 66.64 48.79
  Q 67.10 54.30 62.84 60.72
  A 2.01 2.01 0.0 0 1 60.10 61.32
  Z"
/>
</svg>
