<?xml version="1.0" encoding="UTF-8" standalone="no"?>
<!DOCTYPE svg PUBLIC "-//W3C//DTD SVG 1.1//EN" "http://www.w3.org/Graphics/SVG/1.1/DTD/svg11.dtd">
<svg xmlns="http://www.w3.org/2000/svg" version="1.1" viewBox="0.00 0.00 127.00 136.00">
<g stroke-width="2.00" fill="none" stroke-linecap="butt">
<path stroke="#7b7b7a" vector-effect="non-scaling-stroke" d="
  M 76.89 61.97
  L 74.60 66.81"
/>
<path stroke="#7b7b7a" vector-effect="non-scaling-stroke" d="
  M 75.53 67.17
  L 77.81 62.46"
/>
</g>
<path fill="#000000" d="
  M 76.89 61.97
  L 74.60 66.81
  L 71.42 73.22
  A 0.44 0.43 13.2 0 0 71.82 73.85
  L 73.53 73.85
  A 0.79 0.78 5.9 0 0 74.30 73.23
  L 75.53 67.17
  L 77.81 62.46
  Q 80.71 58.50 82.75 57.02
  C 93.62 49.13 109.10 53.53 113.85 66.46
  Q 117.98 77.70 109.82 88.00
  A 0.58 0.57 -37.4 0 0 109.74 88.56
  L 118.74 112.22
  A 1.00 0.95 39.6 0 1 118.80 112.73
  Q 118.05 117.62 113.80 117.62
  Q 80.51 117.65 12.43 117.63
  Q 9.83 117.63 7.78 114.89
  A 2.00 2.00 0.0 0 1 7.38 113.72
  Q 7.36 111.81 8.77 109.60
  A 3.35 3.04 -20.4 0 0 9.04 109.08
  Q 18.22 85.19 21.39 77.14
  Q 22.59 74.08 25.56 73.96
  Q 33.27 73.65 38.41 73.97
  A 0.44 0.44 0.0 0 0 38.82 73.32
  Q 33.58 63.93 29.66 54.58
  Q 25.83 45.42 28.56 36.52
  Q 33.49 20.44 49.77 16.65
  Q 51.40 16.27 56.92 16.36
  Q 60.38 16.42 63.98 17.67
  Q 78.60 22.75 82.27 38.48
  Q 83.24 42.60 82.33 49.00
  Q 81.80 52.72 76.89 61.97
  Z
  M 54.94 91.38
  Q 55.88 91.38 56.30 89.96
  A 1.86 1.84 70.2 0 1 56.54 89.44
  Q 67.30 73.46 74.71 57.46
  Q 77.50 51.44 77.93 49.65
  C 81.52 34.91 70.65 20.49 55.19 20.43
  C 39.73 20.38 28.75 34.73 32.24 49.49
  Q 32.66 51.29 35.41 57.33
  Q 42.71 73.38 53.36 89.43
  A 1.86 1.84 -69.8 0 1 53.60 89.95
  Q 54.00 91.37 54.94 91.38
  Z
  M 93.4752 57.1657
  A 16.59 16.32 -95.1 0 0 78.6946 75.1408
  A 16.59 16.32 -95.1 0 0 96.4248 90.2143
  A 16.59 16.32 -95.1 0 0 111.2054 72.2392
  A 16.59 16.32 -95.1 0 0 93.4752 57.1657
  Z
  M 74.60 77.73
  L 69.40 77.73
  A 1.09 1.07 -75.3 0 0 68.46 78.29
  Q 67.10 80.81 57.98 95.28
  C 56.59 97.48 53.81 97.39 52.30 95.19
  Q 47.26 87.89 41.49 78.22
  A 1.03 1.02 74.1 0 0 40.62 77.73
  L 25.89 77.73
  A 0.90 0.90 0.0 0 0 25.05 78.31
  L 11.57 113.08
  A 0.47 0.47 0.0 0 0 12.01 113.72
  L 49.28 113.72
  A 0.98 0.96 -72.7 0 0 50.08 113.29
  Q 56.17 104.21 66.27 100.74
  Q 73.27 98.33 81.78 98.25
  A 0.80 0.80 0.0 0 0 82.55 97.66
  L 84.17 91.92
  A 0.92 0.91 25.2 0 0 83.81 90.93
  Q 77.06 86.24 75.25 78.25
  A 0.67 0.67 0.0 0 0 74.60 77.73
  Z
  M 55.30 113.66
  L 113.62 113.66
  A 1.03 1.03 0.0 0 0 114.58 112.27
  L 106.68 91.52
  A 0.67 0.66 63.6 0 0 105.71 91.19
  Q 97.58 96.21 88.54 93.35
  A 0.60 0.60 0.0 0 0 87.80 93.71
  Q 87.02 95.77 86.16 99.88
  Q 85.58 102.65 82.85 102.48
  C 72.70 101.82 61.61 104.98 55.12 113.29
  A 0.23 0.23 0.0 0 0 55.30 113.66
  Z"
/>
<path fill="#000000" d="
  M 68.37 43.83
  A 13.19 13.19 0.0 0 1 55.18 57.02
  A 13.19 13.19 0.0 0 1 41.99 43.83
  A 13.19 13.19 0.0 0 1 55.18 30.64
  A 13.19 13.19 0.0 0 1 68.37 43.83
  Z
  M 64.13 43.87
  A 8.90 8.90 0.0 0 0 55.23 34.97
  A 8.90 8.90 0.0 0 0 46.33 43.87
  A 8.90 8.90 0.0 0 0 55.23 52.77
  A 8.90 8.90 0.0 0 0 64.13 43.87
  Z"
/>
<path fill="#f5f5f4" d="
  M 76.89 61.97
  Q 77.60 62.22 77.81 62.46
  L 75.53 67.17
  Q 75.20 67.17 74.60 66.81
  L 76.89 61.97
  Z"
/>
<path fill="#000000" d="
  M 87.69 72.36
  L 92.44 76.49
  A 0.87 0.87 0.0 0 0 93.62 76.45
  L 102.43 67.63
  A 0.87 0.87 0.0 0 1 103.67 67.63
  L 105.22 69.18
  A 0.87 0.87 0.0 0 1 105.22 70.41
  L 93.97 81.66
  A 0.87 0.87 0.0 0 1 92.79 81.70
  L 85.26 75.16
  A 0.87 0.87 0.0 0 1 85.17 73.93
  L 86.46 72.45
  A 0.87 0.87 0.0 0 1 87.69 72.36
  Z"
/>
</svg>
