<?xml version="1.0" encoding="UTF-8" standalone="no"?>
<!DOCTYPE svg PUBLIC "-//W3C//DTD SVG 1.1//EN" "http://www.w3.org/Graphics/SVG/1.1/DTD/svg11.dtd">
<svg xmlns="http://www.w3.org/2000/svg" version="1.1" viewBox="0.00 0.00 128.00 136.00">
<path fill="#000000" d="
  M 62.46 8.00
  Q 71.22 8.02 76.79 8.24
  Q 84.83 8.56 88.49 10.39
  Q 98.93 15.59 100.98 27.00
  Q 103.36 40.27 103.58 58.03
  C 103.82 77.22 103.60 91.20 101.46 103.40
  C 99.47 114.69 92.14 122.25 80.71 123.37
  Q 74.94 123.94 62.20 123.91
  Q 49.45 123.88 43.69 123.29
  C 32.26 122.11 24.97 114.52 23.03 103.22
  C 20.95 91.01 20.79 77.03 21.12 57.84
  Q 21.42 40.08 23.86 26.82
  Q 25.97 15.42 36.43 10.27
  Q 40.10 8.46 48.14 8.17
  Q 53.71 7.98 62.46 8.00
  Z
  M 62.36 119.46
  Q 70.68 119.46 74.62 119.23
  Q 81.68 118.83 83.76 118.30
  C 97.75 114.69 98.42 102.46 99.20 90.51
  Q 100.73 67.33 98.92 42.53
  Q 97.81 27.22 95.66 22.94
  Q 91.08 13.80 79.29 12.74
  Q 72.84 12.16 62.30 12.17
  Q 51.75 12.17 45.31 12.76
  Q 33.51 13.83 28.94 22.98
  Q 26.80 27.26 25.71 42.57
  Q 23.93 67.37 25.48 90.55
  C 26.28 102.50 26.96 114.73 40.95 118.32
  Q 43.03 118.85 50.09 119.25
  Q 54.04 119.47 62.36 119.46
  Z"
/>
<path fill="#000000" d="
  M 62.11 20.16
  Q 68.13 20.15 74.25 20.21
  C 84.17 20.31 90.65 28.03 91.65 37.52
  Q 94.36 63.44 92.16 91.63
  Q 91.63 98.48 89.79 101.77
  Q 84.83 110.62 73.51 111.28
  Q 72.80 111.33 62.22 111.34
  Q 51.64 111.35 50.93 111.31
  Q 39.61 110.68 34.63 101.84
  Q 32.78 98.55 32.23 91.70
  Q 29.96 63.52 32.61 37.59
  C 33.59 28.10 40.05 20.36 49.96 20.24
  Q 56.09 20.17 62.11 20.16
  Z
  M 36.00 61.44
  L 88.46 61.34
  A 0.24 0.24 0.0 0 0 88.70 61.10
  L 88.67 41.72
  A 17.10 14.78 89.9 0 0 73.86 24.65
  L 50.48 24.69
  A 17.10 14.78 89.9 0 0 35.73 41.82
  L 35.76 61.20
  A 0.24 0.24 0.0 0 0 36.00 61.44
  Z
  M 88.63 65.81
  L 36.03 65.81
  A 0.25 0.25 0.0 0 0 35.78 66.06
  L 35.78 90.48
  A 16.15 14.25 90.0 0 0 50.03 106.63
  L 74.63 106.63
  A 16.15 14.25 -90.0 0 0 88.88 90.48
  L 88.88 66.06
  A 0.25 0.25 0.0 0 0 88.63 65.81
  Z"
/>
<path fill="#000000" d="
  M 62.69 32.29
  Q 67.76 32.38 68.42 39.57
  A 0.99 0.99 0.0 0 0 68.95 40.36
  Q 71.29 41.60 71.33 43.36
  Q 71.41 46.85 70.88 50.43
  C 70.21 54.99 66.12 54.46 62.29 54.39
  C 58.46 54.32 54.36 54.70 53.85 50.12
  Q 53.45 46.53 53.65 43.04
  Q 53.75 41.29 56.14 40.13
  A 0.99 0.99 0.0 0 0 56.69 39.36
  Q 57.61 32.20 62.69 32.29
  Z
  M 60.14 39.65
  L 65.08 39.63
  A 0.34 0.34 0.0 0 0 65.42 39.29
  L 65.42 39.02
  A 3.65 2.57 89.8 0 0 62.83 35.38
  L 62.35 35.38
  A 3.65 2.57 89.8 0 0 59.80 39.04
  L 59.80 39.31
  A 0.34 0.34 0.0 0 0 60.14 39.65
  Z
  M 67.51 43.12
  L 57.33 43.10
  A 0.63 0.63 0.0 0 0 56.70 43.73
  L 56.69 48.75
  A 2.47 1.88 -89.9 0 0 58.56 51.22
  L 66.24 51.24
  A 2.47 1.88 -89.9 0 0 68.13 48.77
  L 68.14 43.75
  A 0.63 0.63 0.0 0 0 67.51 43.12
  Z"
/>
<path fill="#000000" d="
  M 72.48 85.59
  L 72.48 95.49
  A 1.80 1.80 0.0 0 1 72.25 96.37
  Q 71.01 98.60 68.47 98.64
  Q 60.52 98.78 56.22 98.58
  Q 54.56 98.50 53.18 96.68
  A 1.54 1.49 -64.2 0 1 52.88 95.77
  Q 52.80 86.32 52.87 85.34
  Q 53.06 83.03 55.36 82.77
  Q 61.87 82.05 67.63 82.60
  A 0.65 0.64 7.7 0 0 68.33 82.07
  Q 69.08 77.60 65.76 75.44
  C 63.20 73.79 61.29 75.91 59.89 78.19
  A 1.31 1.31 0.0 0 1 58.08 78.62
  L 58.02 78.58
  A 1.49 1.49 0.0 0 1 57.47 76.66
  C 62.23 66.87 72.49 73.48 71.34 82.24
  C 71.20 83.27 71.44 83.80 72.05 84.48
  A 1.65 1.64 -66.4 0 1 72.48 85.59
  Z
  M 69.0973 86.4211
  A 0.47 0.47 0.0 0 0 68.6281 85.9503
  L 56.8281 85.9297
  A 0.47 0.47 0.0 0 0 56.3573 86.3989
  L 56.3427 94.7789
  A 0.47 0.47 0.0 0 0 56.8119 95.2497
  L 68.6119 95.2703
  A 0.47 0.47 0.0 0 0 69.0827 94.8011
  L 69.0973 86.4211
  Z"
/>
</svg>
