<?xml version="1.0" encoding="UTF-8" standalone="no"?>
<!DOCTYPE svg PUBLIC "-//W3C//DTD SVG 1.1//EN" "http://www.w3.org/Graphics/SVG/1.1/DTD/svg11.dtd">
<svg xmlns="http://www.w3.org/2000/svg" version="1.1" viewBox="0.00 0.00 229.00 186.00">
<g stroke-width="2.00" fill="none" stroke-linecap="butt">
<path stroke="#818181" vector-effect="non-scaling-stroke" d="
  M 88.20 129.63
  Q 90.46 134.26 94.14 134.85
  Q 96.91 135.30 107.35 134.99"
/>
<path stroke="#fef6f6" vector-effect="non-scaling-stroke" d="
  M 107.35 134.99
  Q 112.57 136.53 118.74 135.79
  Q 141.02 133.14 156.00 117.01
  A 1.21 1.21 0.0 0 1 156.79 116.62
  L 160.22 116.31"
/>
<path stroke="#818181" vector-effect="non-scaling-stroke" d="
  M 160.22 116.31
  L 189.89 115.70
  A 0.32 0.32 0.0 0 1 190.22 116.02
  L 190.22 128.99
  A 1.26 1.22 36.1 0 0 190.29 129.40
  C 192.62 135.37 196.11 135.08 202.31 135.08
  Q 206.09 135.07 209.00 135.00
  A 2.73 2.62 30.3 0 0 210.04 134.75
  Q 215.03 132.48 215.35 127.40
  Q 215.75 121.06 215.45 106.59
  C 215.28 98.18 215.66 89.96 215.53 81.03
  A 2.15 2.13 -57.2 0 0 215.35 80.17
  L 210.79 69.64
  A 0.16 0.16 0.0 0 1 211.05 69.46
  C 212.26 70.68 213.14 71.19 215.01 71.21
  Q 218.41 71.25 222.85 71.22
  A 2.88 2.82 36.1 0 0 223.67 71.10
  Q 228.11 69.77 228.58 64.65
  Q 229.28 57.10 222.64 55.54
  A 2.61 2.33 48.2 0 0 222.10 55.48
  L 212.20 55.48
  A 0.96 0.66 28.7 0 0 212.01 55.50
  Q 208.46 56.43 207.41 59.80
  A 0.35 0.35 0.0 0 1 206.75 59.81
  Q 202.45 47.38 198.76 37.50
  Q 195.25 28.08 185.44 27.85
  Q 165.99 27.38 136.79 27.69"
/>
<path stroke="#fef6f6" vector-effect="non-scaling-stroke" d="
  M 136.79 27.69
  Q 133.79 26.18 128.38 24.93
  C 106.20 19.79 84.67 26.02 70.21 43.21
  C 52.23 64.58 52.90 95.12 70.78 116.47
  Q 78.10 125.21 88.20 129.63"
/>
<path stroke="#807878" vector-effect="non-scaling-stroke" d="
  M 136.79 27.69
  Q 129.77 27.66 122.75 27.77
  Q 114.82 27.88 112.19 29.09
  Q 107.33 31.33 105.14 36.89
  Q 100.51 48.62 96.39 60.46
  A 0.38 0.38 0.0 0 1 95.65 60.40
  Q 94.80 55.79 89.60 55.58
  C 83.44 55.33 75.62 54.42 75.20 62.23
  C 74.63 72.79 82.31 71.31 90.49 71.16
  A 1.89 1.81 -62.0 0 0 91.52 70.82
  L 93.21 69.65
  A 0.25 0.25 0.0 0 1 93.57 69.98
  L 88.50 78.75
  A 4.25 4.22 60.0 0 0 87.93 80.91
  L 88.20 129.63"
/>
<path stroke="#807878" vector-effect="non-scaling-stroke" d="
  M 160.22 116.31
  L 114.04 115.89
  A 0.52 0.52 0.0 0 0 113.51 116.38
  Q 113.12 121.77 113.35 126.00
  Q 113.72 132.93 107.35 134.99"
/>
<path stroke="#818181" vector-effect="non-scaling-stroke" d="
  M 92.75 81.03
  L 93.79 80.11
  A 1.35 1.33 24.2 0 1 94.71 79.77
  L 106.14 79.89
  A 2.30 2.25 -35.4 0 1 106.84 80.00
  Q 111.37 81.50 111.59 86.25
  Q 111.77 90.25 111.57 92.26
  A 3.18 3.11 58.5 0 1 111.41 92.96
  Q 109.67 97.71 104.52 97.74
  Q 94.71 97.79 93.24 97.36
  A 0.30 0.30 0.0 0 0 92.86 97.65
  L 92.86 108.34
  A 0.73 0.71 -63.8 0 0 93.00 108.77
  Q 94.64 110.92 95.76 110.96
  Q 139.80 112.45 206.65 111.02
  A 2.60 2.58 30.7 0 0 207.80 110.73
  Q 209.50 109.87 210.66 108.03
  A 0.66 0.62 61.8 0 0 210.75 107.70
  L 210.75 97.94
  A 0.46 0.46 0.0 0 0 210.27 97.48
  Q 200.82 97.86 198.31 97.66
  Q 193.32 97.28 192.17 92.88
  C 190.87 87.88 191.43 81.68 197.23 79.89
  A 0.88 0.77 -48.9 0 1 197.45 79.86
  L 209.95 79.86
  A 0.26 0.26 0.0 0 0 210.18 79.48
  Q 208.45 76.06 205.00 67.52
  Q 204.90 67.27 194.36 38.93
  Q 191.94 32.41 185.40 32.41
  Q 172.00 32.40 166.47 32.19
  C 149.27 31.53 134.12 32.46 117.29 32.37
  A 4.59 4.21 35.4 0 0 116.18 32.51
  Q 110.95 33.89 108.85 39.61
  Q 102.78 56.22 96.63 73.36
  Q 95.72 75.89 92.35 80.46
  A 0.04 0.04 0.0 0 0 92.35 80.50
  L 92.49 80.96
  A 0.16 0.16 0.0 0 0 92.75 81.03"
/>
<path stroke="#818181" vector-effect="non-scaling-stroke" d="
  M 79.73 61.58
  L 79.71 65.14
  A 1.44 1.44 0.0 0 0 81.14 66.59
  L 90.39 66.66
  A 3.14 2.93 -89.6 0 0 93.34 63.54
  L 93.34 63.38
  A 3.14 2.93 -89.6 0 0 90.43 60.22
  L 81.18 60.15
  A 1.44 1.44 0.0 0 0 79.73 61.58"
/>
<path stroke="#818181" vector-effect="non-scaling-stroke" d="
  M 224.2156 62.3443
  A 2.13 2.13 0.0 0 0 222.0968 60.2032
  L 213.2569 60.1569
  A 2.13 2.13 0.0 0 0 211.1158 62.2757
  L 211.1044 64.4557
  A 2.13 2.13 0.0 0 0 213.2232 66.5968
  L 222.0631 66.6431
  A 2.13 2.13 0.0 0 0 224.2042 64.5243
  L 224.2156 62.3443"
/>
<path stroke="#818181" vector-effect="non-scaling-stroke" d="
  M 92.46 84.20
  L 92.38 92.91
  A 0.21 0.21 0.0 0 0 92.59 93.13
  L 104.30 93.23
  A 2.94 2.82 0.5 0 0 107.26 90.43
  L 107.29 86.93
  A 2.94 2.82 0.5 0 0 104.38 84.09
  L 92.67 83.99
  A 0.21 0.21 0.0 0 0 92.46 84.20"
/>
<path stroke="#818181" vector-effect="non-scaling-stroke" d="
  M 211.02 92.86
  L 210.90 84.20
  A 0.24 0.24 0.0 0 0 210.66 83.96
  L 199.17 84.12
  A 2.85 2.62 -0.8 0 0 196.35 86.78
  L 196.41 90.68
  A 2.85 2.62 -0.8 0 0 199.29 93.26
  L 210.78 93.10
  A 0.24 0.24 0.0 0 0 211.02 92.86"
/>
<path stroke="#818181" vector-effect="non-scaling-stroke" d="
  M 210.30 114.82
  C 209.07 115.13 207.84 115.83 206.28 115.83
  Q 195.51 115.83 195.06 115.84
  A 0.59 0.59 0.0 0 0 194.49 116.47
  Q 194.67 119.83 194.58 126.74
  C 194.55 128.95 195.38 130.47 197.52 130.74
  Q 199.25 130.96 207.49 130.70
  C 210.04 130.62 210.92 128.93 210.89 126.47
  Q 210.79 116.87 210.92 115.35
  A 0.50 0.50 0.0 0 0 210.30 114.82"
/>
<path stroke="#818181" vector-effect="non-scaling-stroke" d="
  M 93.19 114.88
  A 0.49 0.49 0.0 0 0 92.57 115.41
  Q 92.70 116.91 92.61 126.44
  C 92.58 128.88 93.46 130.55 95.99 130.63
  Q 104.16 130.88 105.88 130.66
  C 108.00 130.40 108.82 128.89 108.79 126.69
  Q 108.70 119.84 108.88 116.51
  A 0.59 0.59 0.0 0 0 108.31 115.88
  Q 107.86 115.87 97.18 115.88
  C 95.63 115.88 94.41 115.19 93.19 114.88"
/>
<path stroke="#818181" vector-effect="non-scaling-stroke" d="
  M 151.68 105.36
  Q 162.80 105.36 171.15 97.69
  Q 182.33 87.43 179.89 70.63
  A 0.45 0.44 85.4 0 1 180.32 70.12
  C 186.62 70.01 199.81 72.28 196.06 60.66
  Q 195.07 57.58 189.90 43.36
  Q 188.22 38.75 183.63 37.52
  A 3.33 3.20 -35.8 0 0 182.92 37.42
  C 171.66 37.15 161.20 36.79 151.69 36.79
  C 142.18 36.79 131.71 37.14 120.46 37.41
  A 3.33 3.20 35.8 0 0 119.75 37.51
  Q 115.16 38.74 113.48 43.35
  Q 108.30 57.57 107.31 60.65
  C 103.56 72.27 116.75 70.00 123.05 70.11
  A 0.45 0.44 -85.4 0 1 123.48 70.62
  Q 121.04 87.42 132.21 97.69
  Q 140.56 105.36 151.68 105.36"
/>
<path stroke="#818181" vector-effect="non-scaling-stroke" d="
  M 159.90 48.77
  Q 172.49 52.91 177.92 64.89
  A 0.87 0.87 0.0 0 0 178.71 65.40
  L 190.76 65.40
  A 1.59 1.58 79.6 0 0 192.24 63.25
  Q 190.36 58.33 186.25 46.51
  C 184.94 42.76 183.91 41.91 180.00 41.76
  Q 168.06 41.30 155.58 41.50"
/>
<path stroke="#807878" vector-effect="non-scaling-stroke" d="
  M 155.58 41.50
  Q 139.17 41.25 122.25 41.65
  Q 118.97 41.73 117.89 44.63
  Q 114.44 54.01 111.24 63.15
  A 1.75 1.75 0.0 0 0 112.89 65.48
  L 124.72 65.48
  A 0.61 0.59 -75.9 0 0 125.25 65.15
  Q 135.87 44.31 159.90 48.77"
/>
<path stroke="#fef6f6" vector-effect="non-scaling-stroke" d="
  M 155.58 41.50
  Q 159.32 45.42 159.90 48.77"
/>
<path stroke="#818181" vector-effect="non-scaling-stroke" d="
  M 175.61 76.50
  A 23.91 23.91 0.0 0 0 151.70 52.59
  A 23.91 23.91 0.0 0 0 127.79 76.50
  A 23.91 23.91 0.0 0 0 151.70 100.41
  A 23.91 23.91 0.0 0 0 175.61 76.50"
/>
<path stroke="#818181" vector-effect="non-scaling-stroke" d="
  M 166.64 76.42
  A 14.94 14.94 0.0 0 0 151.70 61.48
  A 14.94 14.94 0.0 0 0 136.76 76.42
  A 14.94 14.94 0.0 0 0 151.70 91.36
  A 14.94 14.94 0.0 0 0 166.64 76.42"
/>
<path stroke="#818181" vector-effect="non-scaling-stroke" d="
  M 161.78 76.42
  A 10.10 10.10 0.0 0 0 151.68 66.32
  A 10.10 10.10 0.0 0 0 141.58 76.42
  A 10.10 10.10 0.0 0 0 151.68 86.52
  A 10.10 10.10 0.0 0 0 161.78 76.42"
/>
</g>
<path fill="#ffffff" d="
  M 229.00 0.00
  L 229.00 186.00
  L 0.00 186.00
  L 0.00 0.00
  L 229.00 0.00
  Z
  M 88.20 129.63
  Q 90.46 134.26 94.14 134.85
  Q 96.91 135.30 107.35 134.99
  Q 112.57 136.53 118.74 135.79
  Q 141.02 133.14 156.00 117.01
  A 1.21 1.21 0.0 0 1 156.79 116.62
  L 160.22 116.31
  L 189.89 115.70
  A 0.32 0.32 0.0 0 1 190.22 116.02
  L 190.22 128.99
  A 1.26 1.22 36.1 0 0 190.29 129.40
  C 192.62 135.37 196.11 135.08 202.31 135.08
  Q 206.09 135.07 209.00 135.00
  A 2.73 2.62 30.3 0 0 210.04 134.75
  Q 215.03 132.48 215.35 127.40
  Q 215.75 121.06 215.45 106.59
  C 215.28 98.18 215.66 89.96 215.53 81.03
  A 2.15 2.13 -57.2 0 0 215.35 80.17
  L 210.79 69.64
  A 0.16 0.16 0.0 0 1 211.05 69.46
  C 212.26 70.68 213.14 71.19 215.01 71.21
  Q 218.41 71.25 222.85 71.22
  A 2.88 2.82 36.1 0 0 223.67 71.10
  Q 228.11 69.77 228.58 64.65
  Q 229.28 57.10 222.64 55.54
  A 2.61 2.33 48.2 0 0 222.10 55.48
  L 212.20 55.48
  A 0.96 0.66 28.7 0 0 212.01 55.50
  Q 208.46 56.43 207.41 59.80
  A 0.35 0.35 0.0 0 1 206.75 59.81
  Q 202.45 47.38 198.76 37.50
  Q 195.25 28.08 185.44 27.85
  Q 165.99 27.38 136.79 27.69
  Q 133.79 26.18 128.38 24.93
  C 106.20 19.79 84.67 26.02 70.21 43.21
  C 52.23 64.58 52.90 95.12 70.78 116.47
  Q 78.10 125.21 88.20 129.63
  Z"
/>
<path fill="#fdedec" d="
  M 136.79 27.69
  Q 129.77 27.66 122.75 27.77
  Q 114.82 27.88 112.19 29.09
  Q 107.33 31.33 105.14 36.89
  Q 100.51 48.62 96.39 60.46
  A 0.38 0.38 0.0 0 1 95.65 60.40
  Q 94.80 55.79 89.60 55.58
  C 83.44 55.33 75.62 54.42 75.20 62.23
  C 74.63 72.79 82.31 71.31 90.49 71.16
  A 1.89 1.81 -62.0 0 0 91.52 70.82
  L 93.21 69.65
  A 0.25 0.25 0.0 0 1 93.57 69.98
  L 88.50 78.75
  A 4.25 4.22 60.0 0 0 87.93 80.91
  L 88.20 129.63
  Q 78.10 125.21 70.78 116.47
  C 52.90 95.12 52.23 64.58 70.21 43.21
  C 84.67 26.02 106.20 19.79 128.38 24.93
  Q 133.79 26.18 136.79 27.69
  Z"
/>
<path fill="#030303" d="
  M 160.22 116.31
  L 114.04 115.89
  A 0.52 0.52 0.0 0 0 113.51 116.38
  Q 113.12 121.77 113.35 126.00
  Q 113.72 132.93 107.35 134.99
  Q 96.91 135.30 94.14 134.85
  Q 90.46 134.26 88.20 129.63
  L 87.93 80.91
  A 4.25 4.22 60.0 0 1 88.50 78.75
  L 93.57 69.98
  A 0.25 0.25 0.0 0 0 93.21 69.65
  L 91.52 70.82
  A 1.89 1.81 -62.0 0 1 90.49 71.16
  C 82.31 71.31 74.63 72.79 75.20 62.23
  C 75.62 54.42 83.44 55.33 89.60 55.58
  Q 94.80 55.79 95.65 60.40
  A 0.38 0.38 0.0 0 0 96.39 60.46
  Q 100.51 48.62 105.14 36.89
  Q 107.33 31.33 112.19 29.09
  Q 114.82 27.88 122.75 27.77
  Q 129.77 27.66 136.79 27.69
  Q 165.99 27.38 185.44 27.85
  Q 195.25 28.08 198.76 37.50
  Q 202.45 47.38 206.75 59.81
  A 0.35 0.35 0.0 0 0 207.41 59.80
  Q 208.46 56.43 212.01 55.50
  A 0.96 0.66 28.7 0 1 212.20 55.48
  L 222.10 55.48
  A 2.61 2.33 48.2 0 1 222.64 55.54
  Q 229.28 57.10 228.58 64.65
  Q 228.11 69.77 223.67 71.10
  A 2.88 2.82 36.1 0 1 222.85 71.22
  Q 218.41 71.25 215.01 71.21
  C 213.14 71.19 212.26 70.68 211.05 69.46
  A 0.16 0.16 0.0 0 0 210.79 69.64
  L 215.35 80.17
  A 2.15 2.13 -57.2 0 1 215.53 81.03
  C 215.66 89.96 215.28 98.18 215.45 106.59
  Q 215.75 121.06 215.35 127.40
  Q 215.03 132.48 210.04 134.75
  A 2.73 2.62 30.3 0 1 209.00 135.00
  Q 206.09 135.07 202.31 135.08
  C 196.11 135.08 192.62 135.37 190.29 129.40
  A 1.26 1.22 36.1 0 1 190.22 128.99
  L 190.22 116.02
  A 0.32 0.32 0.0 0 0 189.89 115.70
  L 160.22 116.31
  Z
  M 92.75 81.03
  L 93.79 80.11
  A 1.35 1.33 24.2 0 1 94.71 79.77
  L 106.14 79.89
  A 2.30 2.25 -35.4 0 1 106.84 80.00
  Q 111.37 81.50 111.59 86.25
  Q 111.77 90.25 111.57 92.26
  A 3.18 3.11 58.5 0 1 111.41 92.96
  Q 109.67 97.71 104.52 97.74
  Q 94.71 97.79 93.24 97.36
  A 0.30 0.30 0.0 0 0 92.86 97.65
  L 92.86 108.34
  A 0.73 0.71 -63.8 0 0 93.00 108.77
  Q 94.64 110.92 95.76 110.96
  Q 139.80 112.45 206.65 111.02
  A 2.60 2.58 30.7 0 0 207.80 110.73
  Q 209.50 109.87 210.66 108.03
  A 0.66 0.62 61.8 0 0 210.75 107.70
  L 210.75 97.94
  A 0.46 0.46 0.0 0 0 210.27 97.48
  Q 200.82 97.86 198.31 97.66
  Q 193.32 97.28 192.17 92.88
  C 190.87 87.88 191.43 81.68 197.23 79.89
  A 0.88 0.77 -48.9 0 1 197.45 79.86
  L 209.95 79.86
  A 0.26 0.26 0.0 0 0 210.18 79.48
  Q 208.45 76.06 205.00 67.52
  Q 204.90 67.27 194.36 38.93
  Q 191.94 32.41 185.40 32.41
  Q 172.00 32.40 166.47 32.19
  C 149.27 31.53 134.12 32.46 117.29 32.37
  A 4.59 4.21 35.4 0 0 116.18 32.51
  Q 110.95 33.89 108.85 39.61
  Q 102.78 56.22 96.63 73.36
  Q 95.72 75.89 92.35 80.46
  A 0.04 0.04 0.0 0 0 92.35 80.50
  L 92.49 80.96
  A 0.16 0.16 0.0 0 0 92.75 81.03
  Z
  M 79.73 61.58
  L 79.71 65.14
  A 1.44 1.44 0.0 0 0 81.14 66.59
  L 90.39 66.66
  A 3.14 2.93 -89.6 0 0 93.34 63.54
  L 93.34 63.38
  A 3.14 2.93 -89.6 0 0 90.43 60.22
  L 81.18 60.15
  A 1.44 1.44 0.0 0 0 79.73 61.58
  Z
  M 224.2156 62.3443
  A 2.13 2.13 0.0 0 0 222.0968 60.2032
  L 213.2569 60.1569
  A 2.13 2.13 0.0 0 0 211.1158 62.2757
  L 211.1044 64.4557
  A 2.13 2.13 0.0 0 0 213.2232 66.5968
  L 222.0631 66.6431
  A 2.13 2.13 0.0 0 0 224.2042 64.5243
  L 224.2156 62.3443
  Z
  M 92.46 84.20
  L 92.38 92.91
  A 0.21 0.21 0.0 0 0 92.59 93.13
  L 104.30 93.23
  A 2.94 2.82 0.5 0 0 107.26 90.43
  L 107.29 86.93
  A 2.94 2.82 0.5 0 0 104.38 84.09
  L 92.67 83.99
  A 0.21 0.21 0.0 0 0 92.46 84.20
  Z
  M 211.02 92.86
  L 210.90 84.20
  A 0.24 0.24 0.0 0 0 210.66 83.96
  L 199.17 84.12
  A 2.85 2.62 -0.8 0 0 196.35 86.78
  L 196.41 90.68
  A 2.85 2.62 -0.8 0 0 199.29 93.26
  L 210.78 93.10
  A 0.24 0.24 0.0 0 0 211.02 92.86
  Z
  M 210.30 114.82
  C 209.07 115.13 207.84 115.83 206.28 115.83
  Q 195.51 115.83 195.06 115.84
  A 0.59 0.59 0.0 0 0 194.49 116.47
  Q 194.67 119.83 194.58 126.74
  C 194.55 128.95 195.38 130.47 197.52 130.74
  Q 199.25 130.96 207.49 130.70
  C 210.04 130.62 210.92 128.93 210.89 126.47
  Q 210.79 116.87 210.92 115.35
  A 0.50 0.50 0.0 0 0 210.30 114.82
  Z
  M 93.19 114.88
  A 0.49 0.49 0.0 0 0 92.57 115.41
  Q 92.70 116.91 92.61 126.44
  C 92.58 128.88 93.46 130.55 95.99 130.63
  Q 104.16 130.88 105.88 130.66
  C 108.00 130.40 108.82 128.89 108.79 126.69
  Q 108.70 119.84 108.88 116.51
  A 0.59 0.59 0.0 0 0 108.31 115.88
  Q 107.86 115.87 97.18 115.88
  C 95.63 115.88 94.41 115.19 93.19 114.88
  Z"
/>
<path fill="#ffffff" d="
  M 92.75 81.03
  A 0.16 0.16 0.0 0 1 92.49 80.96
  L 92.35 80.50
  A 0.04 0.04 0.0 0 1 92.35 80.46
  Q 95.72 75.89 96.63 73.36
  Q 102.78 56.22 108.85 39.61
  Q 110.95 33.89 116.18 32.51
  A 4.59 4.21 35.4 0 1 117.29 32.37
  C 134.12 32.46 149.27 31.53 166.47 32.19
  Q 172.00 32.40 185.40 32.41
  Q 191.94 32.41 194.36 38.93
  Q 204.90 67.27 205.00 67.52
  Q 208.45 76.06 210.18 79.48
  A 0.26 0.26 0.0 0 1 209.95 79.86
  L 197.45 79.86
  A 0.88 0.77 -48.9 0 0 197.23 79.89
  C 191.43 81.68 190.87 87.88 192.17 92.88
  Q 193.32 97.28 198.31 97.66
  Q 200.82 97.86 210.27 97.48
  A 0.46 0.46 0.0 0 1 210.75 97.94
  L 210.75 107.70
  A 0.66 0.62 61.8 0 1 210.66 108.03
  Q 209.50 109.87 207.80 110.73
  A 2.60 2.58 30.7 0 1 206.65 111.02
  Q 139.80 112.45 95.76 110.96
  Q 94.64 110.92 93.00 108.77
  A 0.73 0.71 -63.8 0 1 92.86 108.34
  L 92.86 97.65
  A 0.30 0.30 0.0 0 1 93.24 97.36
  Q 94.71 97.79 104.52 97.74
  Q 109.67 97.71 111.41 92.96
  A 3.18 3.11 58.5 0 0 111.57 92.26
  Q 111.77 90.25 111.59 86.25
  Q 111.37 81.50 106.84 80.00
  A 2.30 2.25 -35.4 0 0 106.14 79.89
  L 94.71 79.77
  A 1.35 1.33 24.2 0 0 93.79 80.11
  L 92.75 81.03
  Z
  M 151.68 105.36
  Q 162.80 105.36 171.15 97.69
  Q 182.33 87.43 179.89 70.63
  A 0.45 0.44 85.4 0 1 180.32 70.12
  C 186.62 70.01 199.81 72.28 196.06 60.66
  Q 195.07 57.58 189.90 43.36
  Q 188.22 38.75 183.63 37.52
  A 3.33 3.20 -35.8 0 0 182.92 37.42
  C 171.66 37.15 161.20 36.79 151.69 36.79
  C 142.18 36.79 131.71 37.14 120.46 37.41
  A 3.33 3.20 35.8 0 0 119.75 37.51
  Q 115.16 38.74 113.48 43.35
  Q 108.30 57.57 107.31 60.65
  C 103.56 72.27 116.75 70.00 123.05 70.11
  A 0.45 0.44 -85.4 0 1 123.48 70.62
  Q 121.04 87.42 132.21 97.69
  Q 140.56 105.36 151.68 105.36
  Z"
/>
<path fill="#030303" d="
  M 151.69 36.79
  C 161.20 36.79 171.66 37.15 182.92 37.42
  A 3.33 3.20 -35.8 0 1 183.63 37.52
  Q 188.22 38.75 189.90 43.36
  Q 195.07 57.58 196.06 60.66
  C 199.81 72.28 186.62 70.01 180.32 70.12
  A 0.45 0.44 85.4 0 0 179.89 70.63
  Q 182.33 87.43 171.15 97.69
  Q 162.80 105.36 151.68 105.36
  Q 140.56 105.36 132.21 97.69
  Q 121.04 87.42 123.48 70.62
  A 0.45 0.44 -85.4 0 0 123.05 70.11
  C 116.75 70.00 103.56 72.27 107.31 60.65
  Q 108.30 57.57 113.48 43.35
  Q 115.16 38.74 119.75 37.51
  A 3.33 3.20 35.8 0 1 120.46 37.41
  C 131.71 37.14 142.18 36.79 151.69 36.79
  Z
  M 159.90 48.77
  Q 172.49 52.91 177.92 64.89
  A 0.87 0.87 0.0 0 0 178.71 65.40
  L 190.76 65.40
  A 1.59 1.58 79.6 0 0 192.24 63.25
  Q 190.36 58.33 186.25 46.51
  C 184.94 42.76 183.91 41.91 180.00 41.76
  Q 168.06 41.30 155.58 41.50
  Q 139.17 41.25 122.25 41.65
  Q 118.97 41.73 117.89 44.63
  Q 114.44 54.01 111.24 63.15
  A 1.75 1.75 0.0 0 0 112.89 65.48
  L 124.72 65.48
  A 0.61 0.59 -75.9 0 0 125.25 65.15
  Q 135.87 44.31 159.90 48.77
  Z
  M 175.61 76.50
  A 23.91 23.91 0.0 0 0 151.70 52.59
  A 23.91 23.91 0.0 0 0 127.79 76.50
  A 23.91 23.91 0.0 0 0 151.70 100.41
  A 23.91 23.91 0.0 0 0 175.61 76.50
  Z"
/>
<path fill="#fdedec" d="
  M 155.58 41.50
  Q 159.32 45.42 159.90 48.77
  Q 135.87 44.31 125.25 65.15
  A 0.61 0.59 -75.9 0 1 124.72 65.48
  L 112.89 65.48
  A 1.75 1.75 0.0 0 1 111.24 63.15
  Q 114.44 54.01 117.89 44.63
  Q 118.97 41.73 122.25 41.65
  Q 139.17 41.25 155.58 41.50
  Z"
/>
<path fill="#ffffff" d="
  M 159.90 48.77
  Q 159.32 45.42 155.58 41.50
  Q 168.06 41.30 180.00 41.76
  C 183.91 41.91 184.94 42.76 186.25 46.51
  Q 190.36 58.33 192.24 63.25
  A 1.59 1.58 79.6 0 1 190.76 65.40
  L 178.71 65.40
  A 0.87 0.87 0.0 0 1 177.92 64.89
  Q 172.49 52.91 159.90 48.77
  Z"
/>
<path fill="#ffffff" d="
  M 175.61 76.50
  A 23.91 23.91 0.0 0 1 151.70 100.41
  A 23.91 23.91 0.0 0 1 127.79 76.50
  A 23.91 23.91 0.0 0 1 151.70 52.59
  A 23.91 23.91 0.0 0 1 175.61 76.50
  Z
  M 166.64 76.42
  A 14.94 14.94 0.0 0 0 151.70 61.48
  A 14.94 14.94 0.0 0 0 136.76 76.42
  A 14.94 14.94 0.0 0 0 151.70 91.36
  A 14.94 14.94 0.0 0 0 166.64 76.42
  Z"
/>
<path fill="#ffffff" d="
  M 79.73 61.58
  A 1.44 1.44 0.0 0 1 81.18 60.15
  L 90.43 60.22
  A 3.14 2.93 -89.6 0 1 93.34 63.38
  L 93.34 63.54
  A 3.14 2.93 -89.6 0 1 90.39 66.66
  L 81.14 66.59
  A 1.44 1.44 0.0 0 1 79.71 65.14
  L 79.73 61.58
  Z"
/>
<rect fill="#ffffff" x="-6.55" y="-3.22" transform="translate(217.66,63.40) rotate(0.3)" width="13.10" height="6.44" rx="2.13"/>
<path fill="#030303" d="
  M 166.64 76.42
  A 14.94 14.94 0.0 0 1 151.70 91.36
  A 14.94 14.94 0.0 0 1 136.76 76.42
  A 14.94 14.94 0.0 0 1 151.70 61.48
  A 14.94 14.94 0.0 0 1 166.64 76.42
  Z
  M 161.78 76.42
  A 10.10 10.10 0.0 0 0 151.68 66.32
  A 10.10 10.10 0.0 0 0 141.58 76.42
  A 10.10 10.10 0.0 0 0 151.68 86.52
  A 10.10 10.10 0.0 0 0 161.78 76.42
  Z"
/>
<circle fill="#ffffff" cx="151.68" cy="76.42" r="10.10"/>
<path fill="#ffffff" d="
  M 92.46 84.20
  A 0.21 0.21 0.0 0 1 92.67 83.99
  L 104.38 84.09
  A 2.94 2.82 0.5 0 1 107.29 86.93
  L 107.26 90.43
  A 2.94 2.82 0.5 0 1 104.30 93.23
  L 92.59 93.13
  A 0.21 0.21 0.0 0 1 92.38 92.91
  L 92.46 84.20
  Z"
/>
<path fill="#ffffff" d="
  M 211.02 92.86
  A 0.24 0.24 0.0 0 1 210.78 93.10
  L 199.29 93.26
  A 2.85 2.62 -0.8 0 1 196.41 90.68
  L 196.35 86.78
  A 2.85 2.62 -0.8 0 1 199.17 84.12
  L 210.66 83.96
  A 0.24 0.24 0.0 0 1 210.90 84.20
  L 211.02 92.86
  Z"
/>
<path fill="#ffffff" d="
  M 210.92 115.35
  Q 210.79 116.87 210.89 126.47
  C 210.92 128.93 210.04 130.62 207.49 130.70
  Q 199.25 130.96 197.52 130.74
  C 195.38 130.47 194.55 128.95 194.58 126.74
  Q 194.67 119.83 194.49 116.47
  A 0.59 0.59 0.0 0 1 195.06 115.84
  Q 195.51 115.83 206.28 115.83
  C 207.84 115.83 209.07 115.13 210.30 114.82
  A 0.50 0.50 0.0 0 1 210.92 115.35
  Z"
/>
<path fill="#ffffff" d="
  M 93.19 114.88
  C 94.41 115.19 95.63 115.88 97.18 115.88
  Q 107.86 115.87 108.31 115.88
  A 0.59 0.59 0.0 0 1 108.88 116.51
  Q 108.70 119.84 108.79 126.69
  C 108.82 128.89 108.00 130.40 105.88 130.66
  Q 104.16 130.88 95.99 130.63
  C 93.46 130.55 92.58 128.88 92.61 126.44
  Q 92.70 116.91 92.57 115.41
  A 0.49 0.49 0.0 0 1 93.19 114.88
  Z"
/>
<path fill="#fdedec" d="
  M 160.22 116.31
  L 156.79 116.62
  A 1.21 1.21 0.0 0 0 156.00 117.01
  Q 141.02 133.14 118.74 135.79
  Q 112.57 136.53 107.35 134.99
  Q 113.72 132.93 113.35 126.00
  Q 113.12 121.77 113.51 116.38
  A 0.52 0.52 0.0 0 1 114.04 115.89
  L 160.22 116.31
  Z"
/>
</svg>
