<?xml version="1.0" encoding="UTF-8" standalone="no"?>
<!DOCTYPE svg PUBLIC "-//W3C//DTD SVG 1.1//EN" "http://www.w3.org/Graphics/SVG/1.1/DTD/svg11.dtd">
<svg xmlns="http://www.w3.org/2000/svg" version="1.1" viewBox="0.00 0.00 195.00 186.00">
<g stroke-width="2.00" fill="none" stroke-linecap="butt">
<path stroke="#dad8da" vector-effect="non-scaling-stroke" d="
  M 85.13 88.40
  C 78.01 72.97 56.86 77.02 55.42 94.00
  A 0.64 0.64 0.0 0 1 54.79 94.58
  C 49.19 94.67 44.96 95.18 40.34 92.64
  A 4.77 4.77 0.0 0 1 37.87 88.82
  C 37.59 84.99 37.96 79.33 40.69 76.43
  Q 44.99 71.88 51.82 71.14
  C 63.79 69.83 69.77 63.64 79.32 55.59
  C 84.67 51.09 90.25 50.02 97.79 50.02
  Q 116.52 50.00 121.26 50.16
  Q 128.77 50.40 133.93 54.60
  C 138.78 58.55 145.93 65.36 153.65 69.21
  C 157.88 71.33 161.68 71.52 166.65 72.17
  Q 170.81 72.70 174.81 74.43
  Q 179.96 76.66 179.76 82.21
  Q 179.62 86.26 179.34 89.72
  A 4.33 4.32 73.3 0 1 177.69 92.79
  Q 172.86 96.54 166.35 95.92
  A 0.63 0.62 -88.5 0 1 165.79 95.32
  Q 165.52 86.52 159.34 81.92
  C 150.67 75.46 137.95 79.70 135.29 90.19
  C 133.02 99.13 138.51 108.27 147.48 109.61
  Q 158.33 111.23 164.25 101.23
  A 0.99 0.99 0.0 0 1 165.03 100.74
  Q 166.42 100.61 168.96 100.54
  C 174.45 100.39 183.04 97.12 183.83 90.78
  Q 184.29 87.12 183.97 81.27
  C 183.67 75.64 181.15 72.23 176.24 70.30
  Q 170.52 68.06 164.40 67.43
  Q 159.90 66.96 157.78 66.10
  C 150.80 63.28 144.82 58.40 139.41 53.28
  C 134.95 49.04 129.93 46.44 123.60 45.95
  C 113.92 45.20 104.06 45.52 93.77 45.76
  Q 83.91 45.99 76.99 51.76
  Q 66.63 60.41 65.96 60.93
  Q 60.25 65.36 53.91 66.38
  Q 47.41 67.43 46.27 67.75
  C 41.21 69.18 35.01 73.78 33.73 79.45
  C 33.18 81.93 33.10 88.98 33.46 90.54
  C 35.66 100.05 48.07 99.20 55.36 99.00
  A 0.98 0.98 0.0 0 1 56.29 99.60
  C 63.24 116.39 86.47 111.51 86.29 93.33
  A 0.69 0.69 0.0 0 1 86.92 92.63
  C 90.73 92.26 91.87 88.01 92.25 84.74
  A 0.76 0.76 0.0 0 1 93.62 84.37
  Q 95.28 86.59 96.03 90.13
  A 3.27 2.98 87.8 0 0 98.52 92.65
  C 102.22 93.24 103.46 90.33 104.60 87.11
  C 107.44 79.15 106.36 75.47 99.28 71.05
  A 1.76 1.75 -51.4 0 0 97.11 71.30
  L 96.58 71.83
  A 1.51 1.51 0.0 0 0 96.58 73.97
  L 100.70 78.09
  A 3.48 3.47 28.9 0 1 101.63 81.29
  L 100.40 86.77
  A 0.61 0.60 -48.3 0 1 99.24 86.84
  Q 97.68 82.29 93.46 79.08
  A 1.49 1.49 0.0 0 0 92.44 78.77
  Q 89.98 78.91 89.26 81.25
  Q 88.04 85.22 86.67 88.38
  A 0.84 0.84 0.0 0 1 85.13 88.40"
/>
<path stroke="#dad8da" vector-effect="non-scaling-stroke" d="
  M 120.48 79.66
  C 120.78 86.66 118.29 92.11 114.28 98.01
  A 1.73 1.73 0.0 0 0 114.49 100.20
  L 114.82 100.53
  A 1.90 1.89 41.6 0 0 117.65 100.37
  C 122.48 94.24 125.30 87.41 124.96 79.47
  C 124.62 71.53 121.24 64.96 115.91 59.26
  A 1.90 1.89 -46.4 0 0 113.08 59.34
  L 112.77 59.69
  A 1.73 1.73 0.0 0 0 112.76 61.90
  C 117.24 67.43 120.18 72.65 120.48 79.66"
/>
<path stroke="#dad8da" vector-effect="non-scaling-stroke" d="
  M 107.02 96.61
  A 1.99 1.98 -50.6 0 0 110.08 96.30
  C 117.39 85.36 119.21 74.44 108.30 65.36
  A 2.49 2.48 45.6 0 0 105.18 65.32
  L 105.11 65.38
  A 1.88 1.88 0.0 0 0 104.89 68.12
  C 106.35 69.72 108.39 71.23 109.56 73.16
  C 113.73 80.05 110.55 87.75 106.45 93.94
  A 1.85 1.84 39.2 0 0 106.69 96.27
  L 107.02 96.61"
/>
<path stroke="#dad8da" vector-effect="non-scaling-stroke" d="
  M 69.3065 83.6763
  A 10.84 10.63 -98.4 0 0 60.3740 95.9529
  A 10.84 10.63 -98.4 0 0 72.4735 105.1237
  A 10.84 10.63 -98.4 0 0 81.4060 92.8471
  A 10.84 10.63 -98.4 0 0 69.3065 83.6763"
/>
<path stroke="#dad8da" vector-effect="non-scaling-stroke" d="
  M 151.1832 83.6696
  A 10.78 10.66 -84.5 0 0 139.5391 93.3783
  A 10.78 10.66 -84.5 0 0 149.1168 105.1304
  A 10.78 10.66 -84.5 0 0 160.7609 95.4217
  A 10.78 10.66 -84.5 0 0 151.1832 83.6696"
/>
</g>
<path fill="#ffffff" d="
  M 195.00 0.00
  L 195.00 186.00
  L 0.00 186.00
  L 0.00 0.00
  L 195.00 0.00
  Z
  M 85.13 88.40
  C 78.01 72.97 56.86 77.02 55.42 94.00
  A 0.64 0.64 0.0 0 1 54.79 94.58
  C 49.19 94.67 44.96 95.18 40.34 92.64
  A 4.77 4.77 0.0 0 1 37.87 88.82
  C 37.59 84.99 37.96 79.33 40.69 76.43
  Q 44.99 71.88 51.82 71.14
  C 63.79 69.83 69.77 63.64 79.32 55.59
  C 84.67 51.09 90.25 50.02 97.79 50.02
  Q 116.52 50.00 121.26 50.16
  Q 128.77 50.40 133.93 54.60
  C 138.78 58.55 145.93 65.36 153.65 69.21
  C 157.88 71.33 161.68 71.52 166.65 72.17
  Q 170.81 72.70 174.81 74.43
  Q 179.96 76.66 179.76 82.21
  Q 179.62 86.26 179.34 89.72
  A 4.33 4.32 73.3 0 1 177.69 92.79
  Q 172.86 96.54 166.35 95.92
  A 0.63 0.62 -88.5 0 1 165.79 95.32
  Q 165.52 86.52 159.34 81.92
  C 150.67 75.46 137.95 79.70 135.29 90.19
  C 133.02 99.13 138.51 108.27 147.48 109.61
  Q 158.33 111.23 164.25 101.23
  A 0.99 0.99 0.0 0 1 165.03 100.74
  Q 166.42 100.61 168.96 100.54
  C 174.45 100.39 183.04 97.12 183.83 90.78
  Q 184.29 87.12 183.97 81.27
  C 183.67 75.64 181.15 72.23 176.24 70.30
  Q 170.52 68.06 164.40 67.43
  Q 159.90 66.96 157.78 66.10
  C 150.80 63.28 144.82 58.40 139.41 53.28
  C 134.95 49.04 129.93 46.44 123.60 45.95
  C 113.92 45.20 104.06 45.52 93.77 45.76
  Q 83.91 45.99 76.99 51.76
  Q 66.63 60.41 65.96 60.93
  Q 60.25 65.36 53.91 66.38
  Q 47.41 67.43 46.27 67.75
  C 41.21 69.18 35.01 73.78 33.73 79.45
  C 33.18 81.93 33.10 88.98 33.46 90.54
  C 35.66 100.05 48.07 99.20 55.36 99.00
  A 0.98 0.98 0.0 0 1 56.29 99.60
  C 63.24 116.39 86.47 111.51 86.29 93.33
  A 0.69 0.69 0.0 0 1 86.92 92.63
  C 90.73 92.26 91.87 88.01 92.25 84.74
  A 0.76 0.76 0.0 0 1 93.62 84.37
  Q 95.28 86.59 96.03 90.13
  A 3.27 2.98 87.8 0 0 98.52 92.65
  C 102.22 93.24 103.46 90.33 104.60 87.11
  C 107.44 79.15 106.36 75.47 99.28 71.05
  A 1.76 1.75 -51.4 0 0 97.11 71.30
  L 96.58 71.83
  A 1.51 1.51 0.0 0 0 96.58 73.97
  L 100.70 78.09
  A 3.48 3.47 28.9 0 1 101.63 81.29
  L 100.40 86.77
  A 0.61 0.60 -48.3 0 1 99.24 86.84
  Q 97.68 82.29 93.46 79.08
  A 1.49 1.49 0.0 0 0 92.44 78.77
  Q 89.98 78.91 89.26 81.25
  Q 88.04 85.22 86.67 88.38
  A 0.84 0.84 0.0 0 1 85.13 88.40
  Z
  M 120.48 79.66
  C 120.78 86.66 118.29 92.11 114.28 98.01
  A 1.73 1.73 0.0 0 0 114.49 100.20
  L 114.82 100.53
  A 1.90 1.89 41.6 0 0 117.65 100.37
  C 122.48 94.24 125.30 87.41 124.96 79.47
  C 124.62 71.53 121.24 64.96 115.91 59.26
  A 1.90 1.89 -46.4 0 0 113.08 59.34
  L 112.77 59.69
  A 1.73 1.73 0.0 0 0 112.76 61.90
  C 117.24 67.43 120.18 72.65 120.48 79.66
  Z
  M 107.02 96.61
  A 1.99 1.98 -50.6 0 0 110.08 96.30
  C 117.39 85.36 119.21 74.44 108.30 65.36
  A 2.49 2.48 45.6 0 0 105.18 65.32
  L 105.11 65.38
  A 1.88 1.88 0.0 0 0 104.89 68.12
  C 106.35 69.72 108.39 71.23 109.56 73.16
  C 113.73 80.05 110.55 87.75 106.45 93.94
  A 1.85 1.84 39.2 0 0 106.69 96.27
  L 107.02 96.61
  Z"
/>
<path fill="#b4b1b5" d="
  M 85.13 88.40
  A 0.84 0.84 0.0 0 0 86.67 88.38
  Q 88.04 85.22 89.26 81.25
  Q 89.98 78.91 92.44 78.77
  A 1.49 1.49 0.0 0 1 93.46 79.08
  Q 97.68 82.29 99.24 86.84
  A 0.61 0.60 -48.3 0 0 100.40 86.77
  L 101.63 81.29
  A 3.48 3.47 28.9 0 0 100.70 78.09
  L 96.58 73.97
  A 1.51 1.51 0.0 0 1 96.58 71.83
  L 97.11 71.30
  A 1.76 1.75 -51.4 0 1 99.28 71.05
  C 106.36 75.47 107.44 79.15 104.60 87.11
  C 103.46 90.33 102.22 93.24 98.52 92.65
  A 3.27 2.98 87.8 0 1 96.03 90.13
  Q 95.28 86.59 93.62 84.37
  A 0.76 0.76 0.0 0 0 92.25 84.74
  C 91.87 88.01 90.73 92.26 86.92 92.63
  A 0.69 0.69 0.0 0 0 86.29 93.33
  C 86.47 111.51 63.24 116.39 56.29 99.60
  A 0.98 0.98 0.0 0 0 55.36 99.00
  C 48.07 99.20 35.66 100.05 33.46 90.54
  C 33.10 88.98 33.18 81.93 33.73 79.45
  C 35.01 73.78 41.21 69.18 46.27 67.75
  Q 47.41 67.43 53.91 66.38
  Q 60.25 65.36 65.96 60.93
  Q 66.63 60.41 76.99 51.76
  Q 83.91 45.99 93.77 45.76
  C 104.06 45.52 113.92 45.20 123.60 45.95
  C 129.93 46.44 134.95 49.04 139.41 53.28
  C 144.82 58.40 150.80 63.28 157.78 66.10
  Q 159.90 66.96 164.40 67.43
  Q 170.52 68.06 176.24 70.30
  C 181.15 72.23 183.67 75.64 183.97 81.27
  Q 184.29 87.12 183.83 90.78
  C 183.04 97.12 174.45 100.39 168.96 100.54
  Q 166.42 100.61 165.03 100.74
  A 0.99 0.99 0.0 0 0 164.25 101.23
  Q 158.33 111.23 147.48 109.61
  C 138.51 108.27 133.02 99.13 135.29 90.19
  C 137.95 79.70 150.67 75.46 159.34 81.92
  Q 165.52 86.52 165.79 95.32
  A 0.63 0.62 -88.5 0 0 166.35 95.92
  Q 172.86 96.54 177.69 92.79
  A 4.33 4.32 73.3 0 0 179.34 89.72
  Q 179.62 86.26 179.76 82.21
  Q 179.96 76.66 174.81 74.43
  Q 170.81 72.70 166.65 72.17
  C 161.68 71.52 157.88 71.33 153.65 69.21
  C 145.93 65.36 138.78 58.55 133.93 54.60
  Q 128.77 50.40 121.26 50.16
  Q 116.52 50.00 97.79 50.02
  C 90.25 50.02 84.67 51.09 79.32 55.59
  C 69.77 63.64 63.79 69.83 51.82 71.14
  Q 44.99 71.88 40.69 76.43
  C 37.96 79.33 37.59 84.99 37.87 88.82
  A 4.77 4.77 0.0 0 0 40.34 92.64
  C 44.96 95.18 49.19 94.67 54.79 94.58
  A 0.64 0.64 0.0 0 0 55.42 94.00
  C 56.86 77.02 78.01 72.97 85.13 88.40
  Z
  M 69.3065 83.6763
  A 10.84 10.63 -98.4 0 0 60.3740 95.9529
  A 10.84 10.63 -98.4 0 0 72.4735 105.1237
  A 10.84 10.63 -98.4 0 0 81.4060 92.8471
  A 10.84 10.63 -98.4 0 0 69.3065 83.6763
  Z
  M 151.1832 83.6696
  A 10.78 10.66 -84.5 0 0 139.5391 93.3783
  A 10.78 10.66 -84.5 0 0 149.1168 105.1304
  A 10.78 10.66 -84.5 0 0 160.7609 95.4217
  A 10.78 10.66 -84.5 0 0 151.1832 83.6696
  Z"
/>
<path fill="#b4b1b5" d="
  M 124.96 79.47
  C 125.30 87.41 122.48 94.24 117.65 100.37
  A 1.90 1.89 41.6 0 1 114.82 100.53
  L 114.49 100.20
  A 1.73 1.73 0.0 0 1 114.28 98.01
  C 118.29 92.11 120.78 86.66 120.48 79.66
  C 120.18 72.65 117.24 67.43 112.76 61.90
  A 1.73 1.73 0.0 0 1 112.77 59.69
  L 113.08 59.34
  A 1.90 1.89 -46.4 0 1 115.91 59.26
  C 121.24 64.96 124.62 71.53 124.96 79.47
  Z"
/>
<path fill="#b4b1b5" d="
  M 107.02 96.61
  L 106.69 96.27
  A 1.85 1.84 39.2 0 1 106.45 93.94
  C 110.55 87.75 113.73 80.05 109.56 73.16
  C 108.39 71.23 106.35 69.72 104.89 68.12
  A 1.88 1.88 0.0 0 1 105.11 65.38
  L 105.18 65.32
  A 2.49 2.48 45.6 0 1 108.30 65.36
  C 119.21 74.44 117.39 85.36 110.08 96.30
  A 1.99 1.98 -50.6 0 1 107.02 96.61
  Z"
/>
<ellipse fill="#ffffff" cx="0.00" cy="0.00" transform="translate(70.89,94.40) rotate(-98.4)" rx="10.84" ry="10.63"/>
<ellipse fill="#ffffff" cx="0.00" cy="0.00" transform="translate(150.15,94.40) rotate(-84.5)" rx="10.78" ry="10.66"/>
</svg>
