<?xml version="1.0" encoding="utf-8"?>
<svg version="1.1" viewBox="0.00 0.00 195.00 204.00" xmlns="http://www.w3.org/2000/svg"><g id="offState" style="display:inline"><g fill="none" stroke-linecap="butt" stroke-width="2.00">
<path class="icon-shape" d="   M 102.09 162.23   Q 151.44 162.17 153.50 162.14   Q 156.82 162.08 157.58 161.41   C 160.76 158.61 159.91 155.68 157.62 151.87   Q 150.40 139.82 149.09 137.44   C 146.72 133.13 144.50 130.47 139.72 130.41   Q 125.58 130.22 115.97 130.39   A 0.39 0.39 0.0 0 1 115.65 129.78   Q 124.14 117.95 131.38 105.12   C 138.21 93.03 143.81 80.13 140.43 65.90   Q 136.12 47.72 119.81 39.28   Q 111.35 34.90 101.94 34.91   Q 92.52 34.92 84.07 39.32   Q 67.79 47.80 63.52 65.99   C 60.17 80.23 65.80 93.12 72.66 105.19   Q 79.93 118.00 88.45 129.81   A 0.39 0.39 0.0 0 1 88.13 130.42   Q 78.52 130.28 64.38 130.50   C 59.60 130.57 57.39 133.24 55.03 137.55   Q 53.73 139.94 46.53 152.00   C 44.25 155.82 43.41 158.75 46.60 161.54   Q 47.36 162.21 50.68 162.26   Q 52.74 162.29 102.09 162.23" stroke="#d9d8da" vector-effect="non-scaling-stroke"/>
<path class="icon-shape" d="   M 101.91 139.96   Q 102.01 139.96 102.11 139.94   Q 102.18 139.92 102.24 139.82   C 113.93 123.22 121.25 113.21 129.35 98.31   Q 133.84 90.05 135.27 84.28   Q 139.75 66.15 127.96 52.03   C 121.50 44.30 112.04 40.27 102.05 40.25   C 92.05 40.24 82.58 44.25 76.10 51.96   Q 64.27 66.05 68.70 84.19   Q 70.12 89.96 74.58 98.24   C 82.64 113.16 89.94 123.19 101.58 139.82   Q 101.64 139.92 101.72 139.94   Q 101.81 139.96 101.91 139.96" stroke="#d9d8da" vector-effect="non-scaling-stroke"/>
<path class="icon-shape" d="   M 102.09 145.93   Q 99.96 145.93 98.68 144.32   Q 97.64 143.01 92.01 135.08   A 1.05 1.02 -20.0 0 0 91.08 134.66   C 90.22 134.74 89.33 135.33 88.36 135.34   Q 78.83 135.43 65.61 135.36   C 63.70 135.35 62.05 135.19 60.95 136.99   Q 57.21 143.11 49.32 156.80   A 0.53 0.52 -75.2 0 0 49.78 157.59   Q 53.74 157.57 102.10 157.54   Q 150.45 157.52 154.42 157.53   A 0.53 0.52 75.2 0 0 154.88 156.74   Q 146.97 143.06 143.22 136.94   C 142.12 135.15 140.47 135.31 138.56 135.32   Q 125.34 135.40 115.81 135.32   C 114.84 135.32 113.95 134.73 113.09 134.65   A 1.05 1.02 19.9 0 0 112.16 135.07   Q 106.54 143.01 105.50 144.32   Q 104.22 145.93 102.09 145.93" stroke="#d9d8da" vector-effect="non-scaling-stroke"/>
<path class="icon-shape" d="   M 98.9991 54.3565   A 21.18 20.86 -98.2 0 0 81.3733 78.2952   A 21.18 20.86 -98.2 0 0 105.0409 96.2835   A 21.18 20.86 -98.2 0 0 122.6667 72.3448   A 21.18 20.86 -98.2 0 0 98.9991 54.3565" stroke="#d9d8da" vector-effect="non-scaling-stroke"/>
<path class="icon-shape" d="   M 105.3305 59.6520   A 15.98 15.81 -78.3 0 0 86.6085 72.0939   A 15.98 15.81 -78.3 0 0 98.8495 90.9480   A 15.98 15.81 -78.3 0 0 117.5715 78.5061   A 15.98 15.81 -78.3 0 0 105.3305 59.6520" stroke="#d9d8da" vector-effect="non-scaling-stroke"/>
</g>
<path class="icon-shape" d="   M 195.00 0.00   L 195.00 204.00   L 0.00 204.00   L 0.00 0.00   L 195.00 0.00   Z   M 102.09 162.23   Q 151.44 162.17 153.50 162.14   Q 156.82 162.08 157.58 161.41   C 160.76 158.61 159.91 155.68 157.62 151.87   Q 150.40 139.82 149.09 137.44   C 146.72 133.13 144.50 130.47 139.72 130.41   Q 125.58 130.22 115.97 130.39   A 0.39 0.39 0.0 0 1 115.65 129.78   Q 124.14 117.95 131.38 105.12   C 138.21 93.03 143.81 80.13 140.43 65.90   Q 136.12 47.72 119.81 39.28   Q 111.35 34.90 101.94 34.91   Q 92.52 34.92 84.07 39.32   Q 67.79 47.80 63.52 65.99   C 60.17 80.23 65.80 93.12 72.66 105.19   Q 79.93 118.00 88.45 129.81   A 0.39 0.39 0.0 0 1 88.13 130.42   Q 78.52 130.28 64.38 130.50   C 59.60 130.57 57.39 133.24 55.03 137.55   Q 53.73 139.94 46.53 152.00   C 44.25 155.82 43.41 158.75 46.60 161.54   Q 47.36 162.21 50.68 162.26   Q 52.74 162.29 102.09 162.23   Z" fill="#ffffff"/>
<path class="icon-shape" d="   M 101.94 34.91   Q 111.35 34.90 119.81 39.28   Q 136.12 47.72 140.43 65.90   C 143.81 80.13 138.21 93.03 131.38 105.12   Q 124.14 117.95 115.65 129.78   A 0.39 0.39 0.0 0 0 115.97 130.39   Q 125.58 130.22 139.72 130.41   C 144.50 130.47 146.72 133.13 149.09 137.44   Q 150.40 139.82 157.62 151.87   C 159.91 155.68 160.76 158.61 157.58 161.41   Q 156.82 162.08 153.50 162.14   Q 151.44 162.17 102.09 162.23   Q 52.74 162.29 50.68 162.26   Q 47.36 162.21 46.60 161.54   C 43.41 158.75 44.25 155.82 46.53 152.00   Q 53.73 139.94 55.03 137.55   C 57.39 133.24 59.60 130.57 64.38 130.50   Q 78.52 130.28 88.13 130.42   A 0.39 0.39 0.0 0 0 88.45 129.81   Q 79.93 118.00 72.66 105.19   C 65.80 93.12 60.17 80.23 63.52 65.99   Q 67.79 47.80 84.07 39.32   Q 92.52 34.92 101.94 34.91   Z   M 101.91 139.96   Q 102.01 139.96 102.11 139.94   Q 102.18 139.92 102.24 139.82   C 113.93 123.22 121.25 113.21 129.35 98.31   Q 133.84 90.05 135.27 84.28   Q 139.75 66.15 127.96 52.03   C 121.50 44.30 112.04 40.27 102.05 40.25   C 92.05 40.24 82.58 44.25 76.10 51.96   Q 64.27 66.05 68.70 84.19   Q 70.12 89.96 74.58 98.24   C 82.64 113.16 89.94 123.19 101.58 139.82   Q 101.64 139.92 101.72 139.94   Q 101.81 139.96 101.91 139.96   Z   M 102.09 145.93   Q 99.96 145.93 98.68 144.32   Q 97.64 143.01 92.01 135.08   A 1.05 1.02 -20.0 0 0 91.08 134.66   C 90.22 134.74 89.33 135.33 88.36 135.34   Q 78.83 135.43 65.61 135.36   C 63.70 135.35 62.05 135.19 60.95 136.99   Q 57.21 143.11 49.32 156.80   A 0.53 0.52 -75.2 0 0 49.78 157.59   Q 53.74 157.57 102.10 157.54   Q 150.45 157.52 154.42 157.53   A 0.53 0.52 75.2 0 0 154.88 156.74   Q 146.97 143.06 143.22 136.94   C 142.12 135.15 140.47 135.31 138.56 135.32   Q 125.34 135.40 115.81 135.32   C 114.84 135.32 113.95 134.73 113.09 134.65   A 1.05 1.02 19.9 0 0 112.16 135.07   Q 106.54 143.01 105.50 144.32   Q 104.22 145.93 102.09 145.93   Z" fill="#b2b0b4"/>
<path class="icon-shape" d="   M 102.05 40.25   C 112.04 40.27 121.50 44.30 127.96 52.03   Q 139.75 66.15 135.27 84.28   Q 133.84 90.05 129.35 98.31   C 121.25 113.21 113.93 123.22 102.24 139.82   Q 102.18 139.92 102.11 139.94   Q 102.01 139.96 101.91 139.96   Q 101.81 139.96 101.72 139.94   Q 101.64 139.92 101.58 139.82   C 89.94 123.19 82.64 113.16 74.58 98.24   Q 70.12 89.96 68.70 84.19   Q 64.27 66.05 76.10 51.96   C 82.58 44.25 92.05 40.24 102.05 40.25   Z   M 98.9991 54.3565   A 21.18 20.86 -98.2 0 0 81.3733 78.2952   A 21.18 20.86 -98.2 0 0 105.0409 96.2835   A 21.18 20.86 -98.2 0 0 122.6667 72.3448   A 21.18 20.86 -98.2 0 0 98.9991 54.3565   Z" fill="#ffffff"/>
<path class="icon-shape" d="   M 98.9991 54.3565   A 21.18 20.86 -98.2 0 1 122.6667 72.3448   A 21.18 20.86 -98.2 0 1 105.0409 96.2835   A 21.18 20.86 -98.2 0 1 81.3733 78.2952   A 21.18 20.86 -98.2 0 1 98.9991 54.3565   Z   M 105.3305 59.6520   A 15.98 15.81 -78.3 0 0 86.6085 72.0939   A 15.98 15.81 -78.3 0 0 98.8495 90.9480   A 15.98 15.81 -78.3 0 0 117.5715 78.5061   A 15.98 15.81 -78.3 0 0 105.3305 59.6520   Z" fill="#b2b0b4"/>
<ellipse cx="0.00" cy="0.00" fill="#ffffff" rx="15.98" ry="15.81" transform="translate(102.09,75.30) rotate(-78.3)"/>
<path class="icon-shape" d="   M 102.10 157.54   Q 53.74 157.57 49.78 157.59   A 0.53 0.52 -75.2 0 1 49.32 156.80   Q 57.21 143.11 60.95 136.99   C 62.05 135.19 63.70 135.35 65.61 135.36   Q 78.83 135.43 88.36 135.34   C 89.33 135.33 90.22 134.74 91.08 134.66   A 1.05 1.02 -20.0 0 1 92.01 135.08   Q 97.64 143.01 98.68 144.32   Q 99.96 145.93 102.09 145.93   Q 104.22 145.93 105.50 144.32   Q 106.54 143.01 112.16 135.07   A 1.05 1.02 19.9 0 1 113.09 134.65   C 113.95 134.73 114.84 135.32 115.81 135.32   Q 125.34 135.40 138.56 135.32   C 140.47 135.31 142.12 135.15 143.22 136.94   Q 146.97 143.06 154.88 156.74   A 0.53 0.52 75.2 0 1 154.42 157.53   Q 150.45 157.52 102.10 157.54   Z" fill="#ffffff"/>
</g><g id="onState" style="display:none"><g fill="none" stroke-linecap="butt" stroke-width="2.00">
<path class="icon-shape" d="   M 58.24 132.38   Q 51.59 143.00 45.43 154.13   Q 42.79 158.91 46.75 161.69   Q 47.74 162.38 49.04 162.38   Q 70.00 162.40 154.74 162.26   C 159.63 162.26 160.87 157.13 158.62 153.44   Q 155.70 148.66 148.60 136.38   C 146.25 132.33 144.02 130.39 139.47 130.31   Q 131.45 130.17 116.00 130.30   A 0.33 0.32 -70.6 0 1 115.75 129.77   L 117.90 127.17" stroke="#808080" vector-effect="non-scaling-stroke"/>
<path class="icon-shape" d="   M 117.90 127.17   Q 139.38 112.57 140.12 85.77" stroke="#fef6f6" vector-effect="non-scaling-stroke"/>
<path class="icon-shape" d="   M 140.12 85.77   Q 145.15 65.15 132.59 49.41   Q 127.62 43.18 118.88 38.22" stroke="#808080" vector-effect="non-scaling-stroke"/>
<path class="icon-shape" d="   M 118.88 38.22   Q 104.37 26.38 86.22 26.02   C 47.80 25.26 19.46 61.22 30.36 98.47   Q 34.90 114.01 47.22 125.02   Q 52.16 129.44 58.24 132.38" stroke="#fef6f6" vector-effect="non-scaling-stroke"/>
<path class="icon-shape" d="   M 118.88 38.22   Q 101.88 31.79 87.38 37.64   C 67.83 45.52 58.00 67.22 64.50 87.50   Q 66.46 93.59 68.86 98.21   Q 77.40 114.63 88.38 129.85   A 0.30 0.30 0.0 0 1 88.14 130.32   Q 75.12 130.26 63.86 130.39   Q 61.77 130.41 58.24 132.38" stroke="#7f7777" vector-effect="non-scaling-stroke"/>
<path class="icon-shape" d="   M 140.12 85.77   Q 137.93 92.54 136.46 95.46   Q 128.46 111.38 117.90 127.17" stroke="#7f7777" vector-effect="non-scaling-stroke"/>
<path class="icon-shape" d="   M 101.91 139.98   Q 101.99 139.98 102.08 139.94   Q 102.12 139.93 102.19 139.83   C 113.82 123.35 121.71 112.48 129.82 97.39   Q 135.69 86.48 136.35 77.68   C 137.87 57.45 122.46 40.37 102.04 40.34   C 81.62 40.32 66.17 57.35 67.63 77.59   Q 68.27 86.39 74.11 97.32   C 82.18 112.43 90.04 123.32 101.63 139.83   Q 101.70 139.93 101.74 139.94   Q 101.82 139.98 101.91 139.98" stroke="#808080" vector-effect="non-scaling-stroke"/>
<path class="icon-shape" d="   M 102.08 145.93   Q 99.89 145.93 98.98 144.73   Q 95.52 140.14 91.98 135.13   A 1.09 1.06 -18.0 0 0 91.06 134.68   C 90.26 134.71 89.54 135.41 88.39 135.41   Q 79.53 135.44 63.77 135.43   A 3.48 3.46 -74.8 0 0 60.75 137.17   L 49.37 156.87   A 0.39 0.39 0.0 0 0 49.71 157.46   Q 51.87 157.49 102.09 157.46   Q 152.31 157.43 154.47 157.39   A 0.39 0.39 0.0 0 0 154.80 156.80   L 143.40 137.12   A 3.48 3.46 74.7 0 0 140.38 135.38   Q 124.62 135.41 115.76 135.39   C 114.61 135.39 113.89 134.70 113.09 134.67   A 1.09 1.06 17.9 0 0 112.17 135.12   Q 108.63 140.13 105.17 144.73   Q 104.27 145.93 102.08 145.93" stroke="#808080" vector-effect="non-scaling-stroke"/>
<path class="icon-shape" d="   M 99.6256 54.2065   A 21.24 20.91 -96.5 0 0 81.2544 77.6771   A 21.24 20.91 -96.5 0 0 104.4344 96.4135   A 21.24 20.91 -96.5 0 0 122.8056 72.9429   A 21.24 20.91 -96.5 0 0 99.6256 54.2065" stroke="#808080" vector-effect="non-scaling-stroke"/>
<path class="icon-shape" d="   M 117.92 75.32   A 15.84 15.84 0.0 0 0 102.08 59.48   A 15.84 15.84 0.0 0 0 86.24 75.32   A 15.84 15.84 0.0 0 0 102.08 91.16   A 15.84 15.84 0.0 0 0 117.92 75.32" stroke="#7f7777" vector-effect="non-scaling-stroke"/>
</g>
<path class="icon-shape" d="   M 195.00 0.00   L 195.00 204.00   L 0.00 204.00   L 0.00 0.00   L 195.00 0.00   Z   M 58.24 132.38   Q 51.59 143.00 45.43 154.13   Q 42.79 158.91 46.75 161.69   Q 47.74 162.38 49.04 162.38   Q 70.00 162.40 154.74 162.26   C 159.63 162.26 160.87 157.13 158.62 153.44   Q 155.70 148.66 148.60 136.38   C 146.25 132.33 144.02 130.39 139.47 130.31   Q 131.45 130.17 116.00 130.30   A 0.33 0.32 -70.6 0 1 115.75 129.77   L 117.90 127.17   Q 139.38 112.57 140.12 85.77   Q 145.15 65.15 132.59 49.41   Q 127.62 43.18 118.88 38.22   Q 104.37 26.38 86.22 26.02   C 47.80 25.26 19.46 61.22 30.36 98.47   Q 34.90 114.01 47.22 125.02   Q 52.16 129.44 58.24 132.38   Z" fill="#ffffff"/>
<path class="icon-shape" d="   M 118.88 38.22   Q 101.88 31.79 87.38 37.64   C 67.83 45.52 58.00 67.22 64.50 87.50   Q 66.46 93.59 68.86 98.21   Q 77.40 114.63 88.38 129.85   A 0.30 0.30 0.0 0 1 88.14 130.32   Q 75.12 130.26 63.86 130.39   Q 61.77 130.41 58.24 132.38   Q 52.16 129.44 47.22 125.02   Q 34.90 114.01 30.36 98.47   C 19.46 61.22 47.80 25.26 86.22 26.02   Q 104.37 26.38 118.88 38.22   Z" fill="#fdedec"/>
<path class="icon-shape" d="   M 118.88 38.22   Q 127.62 43.18 132.59 49.41   Q 145.15 65.15 140.12 85.77   Q 137.93 92.54 136.46 95.46   Q 128.46 111.38 117.90 127.17   L 115.75 129.77   A 0.33 0.32 -70.6 0 0 116.00 130.30   Q 131.45 130.17 139.47 130.31   C 144.02 130.39 146.25 132.33 148.60 136.38   Q 155.70 148.66 158.62 153.44   C 160.87 157.13 159.63 162.26 154.74 162.26   Q 70.00 162.40 49.04 162.38   Q 47.74 162.38 46.75 161.69   Q 42.79 158.91 45.43 154.13   Q 51.59 143.00 58.24 132.38   Q 61.77 130.41 63.86 130.39   Q 75.12 130.26 88.14 130.32   A 0.30 0.30 0.0 0 0 88.38 129.85   Q 77.40 114.63 68.86 98.21   Q 66.46 93.59 64.50 87.50   C 58.00 67.22 67.83 45.52 87.38 37.64   Q 101.88 31.79 118.88 38.22   Z   M 101.91 139.98   Q 101.99 139.98 102.08 139.94   Q 102.12 139.93 102.19 139.83   C 113.82 123.35 121.71 112.48 129.82 97.39   Q 135.69 86.48 136.35 77.68   C 137.87 57.45 122.46 40.37 102.04 40.34   C 81.62 40.32 66.17 57.35 67.63 77.59   Q 68.27 86.39 74.11 97.32   C 82.18 112.43 90.04 123.32 101.63 139.83   Q 101.70 139.93 101.74 139.94   Q 101.82 139.98 101.91 139.98   Z   M 102.08 145.93   Q 99.89 145.93 98.98 144.73   Q 95.52 140.14 91.98 135.13   A 1.09 1.06 -18.0 0 0 91.06 134.68   C 90.26 134.71 89.54 135.41 88.39 135.41   Q 79.53 135.44 63.77 135.43   A 3.48 3.46 -74.8 0 0 60.75 137.17   L 49.37 156.87   A 0.39 0.39 0.0 0 0 49.71 157.46   Q 51.87 157.49 102.09 157.46   Q 152.31 157.43 154.47 157.39   A 0.39 0.39 0.0 0 0 154.80 156.80   L 143.40 137.12   A 3.48 3.46 74.7 0 0 140.38 135.38   Q 124.62 135.41 115.76 135.39   C 114.61 135.39 113.89 134.70 113.09 134.67   A 1.09 1.06 17.9 0 0 112.17 135.12   Q 108.63 140.13 105.17 144.73   Q 104.27 145.93 102.08 145.93   Z" fill="#010101"/>
<path class="icon-shape" d="   M 102.04 40.34   C 122.46 40.37 137.87 57.45 136.35 77.68   Q 135.69 86.48 129.82 97.39   C 121.71 112.48 113.82 123.35 102.19 139.83   Q 102.12 139.93 102.08 139.94   Q 101.99 139.98 101.91 139.98   Q 101.82 139.98 101.74 139.94   Q 101.70 139.93 101.63 139.83   C 90.04 123.32 82.18 112.43 74.11 97.32   Q 68.27 86.39 67.63 77.59   C 66.17 57.35 81.62 40.32 102.04 40.34   Z   M 99.6256 54.2065   A 21.24 20.91 -96.5 0 0 81.2544 77.6771   A 21.24 20.91 -96.5 0 0 104.4344 96.4135   A 21.24 20.91 -96.5 0 0 122.8056 72.9429   A 21.24 20.91 -96.5 0 0 99.6256 54.2065   Z" fill="#ffffff"/>
<path class="icon-shape" d="   M 99.6256 54.2065   A 21.24 20.91 -96.5 0 1 122.8056 72.9429   A 21.24 20.91 -96.5 0 1 104.4344 96.4135   A 21.24 20.91 -96.5 0 1 81.2544 77.6771   A 21.24 20.91 -96.5 0 1 99.6256 54.2065   Z   M 117.92 75.32   A 15.84 15.84 0.0 0 0 102.08 59.48   A 15.84 15.84 0.0 0 0 86.24 75.32   A 15.84 15.84 0.0 0 0 102.08 91.16   A 15.84 15.84 0.0 0 0 117.92 75.32   Z" fill="#010101"/>
<circle cx="102.08" cy="75.32" fill="#fdedec" r="15.84"/>
<path class="icon-shape" d="   M 117.90 127.17   Q 128.46 111.38 136.46 95.46   Q 137.93 92.54 140.12 85.77   Q 139.38 112.57 117.90 127.17   Z" fill="#fdedec"/>
<path class="icon-shape" d="   M 102.09 157.46   Q 51.87 157.49 49.71 157.46   A 0.39 0.39 0.0 0 1 49.37 156.87   L 60.75 137.17   A 3.48 3.46 -74.8 0 1 63.77 135.43   Q 79.53 135.44 88.39 135.41   C 89.54 135.41 90.26 134.71 91.06 134.68   A 1.09 1.06 -18.0 0 1 91.98 135.13   Q 95.52 140.14 98.98 144.73   Q 99.89 145.93 102.08 145.93   Q 104.27 145.93 105.17 144.73   Q 108.63 140.13 112.17 135.12   A 1.09 1.06 17.9 0 1 113.09 134.67   C 113.89 134.70 114.61 135.39 115.76 135.39   Q 124.62 135.41 140.38 135.38   A 3.48 3.46 74.7 0 1 143.40 137.12   L 154.80 156.80   A 0.39 0.39 0.0 0 1 154.47 157.39   Q 152.31 157.43 102.09 157.46   Z" fill="#ffffff"/>
</g></svg>