<?xml version="1.0" encoding="utf-8"?>
<svg version="1.1" viewBox="0.00 0.00 195.00 209.00" xmlns="http://www.w3.org/2000/svg"><g id="offState" style="display:inline"><g fill="none" stroke-linecap="butt" stroke-width="2.00">
<path class="icon-shape" d="   M 139.04 83.15   C 132.90 85.36 129.67 91.27 127.48 97.22   Q 121.37 113.82 118.26 125.19   A 1.26 1.26 0.0 0 1 116.86 126.11   Q 90.11 122.07 75.61 119.59   Q 66.31 118.00 62.26 118.98   Q 55.18 120.68 51.60 126.84   C 49.30 130.81 49.93 136.66 51.31 140.91   Q 53.59 147.97 55.52 152.93   Q 58.17 159.77 64.36 162.74   Q 67.59 164.30 75.83 164.20   Q 90.16 164.02 123.80 164.23   Q 132.50 164.28 135.74 162.76   Q 143.45 159.15 145.28 150.24   Q 148.87 132.72 162.84 61.11   A 2.50 2.27 53.6 0 0 162.89 60.62   C 162.64 51.50 153.46 48.46 145.83 50.21   Q 139.43 51.68 137.36 58.41   Q 136.03 62.77 135.37 69.52   Q 134.66 76.81 139.29 82.22   A 0.59 0.58 -30.2 0 1 139.04 83.15" stroke="#d9d8da" vector-effect="non-scaling-stroke"/>
<path class="icon-shape" d="   M 89.45 59.83   C 88.60 57.78 86.12 57.87 85.08 59.64   C 81.33 66.05 83.16 71.73 86.67 77.84   C 89.70 83.12 86.97 87.86 84.45 92.90   A 2.33 2.33 0.0 0 0 85.40 95.98   L 85.48 96.03   A 2.50 2.49 31.2 0 0 88.77 95.23   C 91.99 90.37 94.55 83.28 92.35 77.71   Q 91.90 76.55 88.88 71.01   C 87.34 68.17 88.28 64.65 89.50 60.96   A 1.61 1.57 -48.3 0 0 89.45 59.83" stroke="#d9d8da" vector-effect="non-scaling-stroke"/>
<path class="icon-shape" d="   M 105.82 59.98   C 105.01 57.91 102.52 57.96 101.45 59.71   C 97.59 66.07 99.33 71.78 102.74 77.96   C 105.68 83.29 102.87 87.99 100.26 93.00   A 2.34 2.33 28.9 0 0 101.16 96.10   L 101.24 96.15   A 2.50 2.49 32.2 0 0 104.55 95.40   C 107.85 90.59 110.53 83.54 108.43 77.92   Q 107.99 76.75 105.06 71.16   C 103.57 68.29 104.57 64.78 105.85 61.11   A 1.61 1.57 -47.3 0 0 105.82 59.98" stroke="#d9d8da" vector-effect="non-scaling-stroke"/>
<path class="icon-shape" d="   M 73.24 59.92   C 72.38 57.88 69.91 57.98 68.88 59.75   C 65.18 66.16 67.04 71.80 70.57 77.87   C 73.61 83.11 70.92 87.85 68.44 92.88   A 2.33 2.32 27.6 0 0 69.40 95.95   L 69.48 95.99   A 2.49 2.48 30.9 0 0 72.76 95.18   C 75.94 90.32 78.45 83.25 76.22 77.71   Q 75.77 76.56 72.73 71.06   C 71.18 68.23 72.10 64.72 73.29 61.04   A 1.60 1.56 -48.6 0 0 73.24 59.92" stroke="#d9d8da" vector-effect="non-scaling-stroke"/>
<path class="icon-shape" d="   M 154.21 80.49   Q 155.50 72.73 157.53 63.24   Q 159.14 55.69 151.79 54.72   C 144.46 53.75 142.07 57.23 140.98 64.06   C 139.93 70.69 139.09 77.23 145.79 81.17   A 1.26 1.26 0.0 0 0 146.44 81.35   L 153.19 81.35   A 1.03 1.02 4.6 0 0 154.21 80.49" stroke="#d9d8da" vector-effect="non-scaling-stroke"/>
<path class="icon-shape" d="   M 152.29 86.54   L 143.56 86.54   A 3.20 3.16 32.2 0 0 142.21 86.84   C 135.34 89.98 133.42 94.67 131.07 101.35   Q 126.83 113.41 122.65 127.34   C 121.93 129.74 120.82 131.54 118.24 131.17   Q 107.11 129.58 71.68 123.88   C 62.87 122.46 53.93 124.56 54.88 135.78   A 5.01 4.74 -58.3 0 0 55.13 136.98   Q 59.59 150.39 60.10 151.50   Q 62.04 155.71 65.48 157.85   Q 67.58 159.16 73.34 159.16   Q 87.79 159.15 127.97 159.12   Q 138.66 159.11 140.68 148.87   Q 148.94 106.96 152.80 87.17   A 0.52 0.52 0.0 0 0 152.29 86.54" stroke="#d9d8da" vector-effect="non-scaling-stroke"/>
</g>
<path class="icon-shape" d="   M 195.00 0.00   L 195.00 209.00   L 0.00 209.00   L 0.00 0.00   L 195.00 0.00   Z   M 139.04 83.15   C 132.90 85.36 129.67 91.27 127.48 97.22   Q 121.37 113.82 118.26 125.19   A 1.26 1.26 0.0 0 1 116.86 126.11   Q 90.11 122.07 75.61 119.59   Q 66.31 118.00 62.26 118.98   Q 55.18 120.68 51.60 126.84   C 49.30 130.81 49.93 136.66 51.31 140.91   Q 53.59 147.97 55.52 152.93   Q 58.17 159.77 64.36 162.74   Q 67.59 164.30 75.83 164.20   Q 90.16 164.02 123.80 164.23   Q 132.50 164.28 135.74 162.76   Q 143.45 159.15 145.28 150.24   Q 148.87 132.72 162.84 61.11   A 2.50 2.27 53.6 0 0 162.89 60.62   C 162.64 51.50 153.46 48.46 145.83 50.21   Q 139.43 51.68 137.36 58.41   Q 136.03 62.77 135.37 69.52   Q 134.66 76.81 139.29 82.22   A 0.59 0.58 -30.2 0 1 139.04 83.15   Z   M 89.45 59.83   C 88.60 57.78 86.12 57.87 85.08 59.64   C 81.33 66.05 83.16 71.73 86.67 77.84   C 89.70 83.12 86.97 87.86 84.45 92.90   A 2.33 2.33 0.0 0 0 85.40 95.98   L 85.48 96.03   A 2.50 2.49 31.2 0 0 88.77 95.23   C 91.99 90.37 94.55 83.28 92.35 77.71   Q 91.90 76.55 88.88 71.01   C 87.34 68.17 88.28 64.65 89.50 60.96   A 1.61 1.57 -48.3 0 0 89.45 59.83   Z   M 105.82 59.98   C 105.01 57.91 102.52 57.96 101.45 59.71   C 97.59 66.07 99.33 71.78 102.74 77.96   C 105.68 83.29 102.87 87.99 100.26 93.00   A 2.34 2.33 28.9 0 0 101.16 96.10   L 101.24 96.15   A 2.50 2.49 32.2 0 0 104.55 95.40   C 107.85 90.59 110.53 83.54 108.43 77.92   Q 107.99 76.75 105.06 71.16   C 103.57 68.29 104.57 64.78 105.85 61.11   A 1.61 1.57 -47.3 0 0 105.82 59.98   Z   M 73.24 59.92   C 72.38 57.88 69.91 57.98 68.88 59.75   C 65.18 66.16 67.04 71.80 70.57 77.87   C 73.61 83.11 70.92 87.85 68.44 92.88   A 2.33 2.32 27.6 0 0 69.40 95.95   L 69.48 95.99   A 2.49 2.48 30.9 0 0 72.76 95.18   C 75.94 90.32 78.45 83.25 76.22 77.71   Q 75.77 76.56 72.73 71.06   C 71.18 68.23 72.10 64.72 73.29 61.04   A 1.60 1.56 -48.6 0 0 73.24 59.92   Z" fill="#ffffff"/>
<path class="icon-shape" d="   M 139.04 83.15   A 0.59 0.58 -30.2 0 0 139.29 82.22   Q 134.66 76.81 135.37 69.52   Q 136.03 62.77 137.36 58.41   Q 139.43 51.68 145.83 50.21   C 153.46 48.46 162.64 51.50 162.89 60.62   A 2.50 2.27 53.6 0 1 162.84 61.11   Q 148.87 132.72 145.28 150.24   Q 143.45 159.15 135.74 162.76   Q 132.50 164.28 123.80 164.23   Q 90.16 164.02 75.83 164.20   Q 67.59 164.30 64.36 162.74   Q 58.17 159.77 55.52 152.93   Q 53.59 147.97 51.31 140.91   C 49.93 136.66 49.30 130.81 51.60 126.84   Q 55.18 120.68 62.26 118.98   Q 66.31 118.00 75.61 119.59   Q 90.11 122.07 116.86 126.11   A 1.26 1.26 0.0 0 0 118.26 125.19   Q 121.37 113.82 127.48 97.22   C 129.67 91.27 132.90 85.36 139.04 83.15   Z   M 154.21 80.49   Q 155.50 72.73 157.53 63.24   Q 159.14 55.69 151.79 54.72   C 144.46 53.75 142.07 57.23 140.98 64.06   C 139.93 70.69 139.09 77.23 145.79 81.17   A 1.26 1.26 0.0 0 0 146.44 81.35   L 153.19 81.35   A 1.03 1.02 4.6 0 0 154.21 80.49   Z   M 152.29 86.54   L 143.56 86.54   A 3.20 3.16 32.2 0 0 142.21 86.84   C 135.34 89.98 133.42 94.67 131.07 101.35   Q 126.83 113.41 122.65 127.34   C 121.93 129.74 120.82 131.54 118.24 131.17   Q 107.11 129.58 71.68 123.88   C 62.87 122.46 53.93 124.56 54.88 135.78   A 5.01 4.74 -58.3 0 0 55.13 136.98   Q 59.59 150.39 60.10 151.50   Q 62.04 155.71 65.48 157.85   Q 67.58 159.16 73.34 159.16   Q 87.79 159.15 127.97 159.12   Q 138.66 159.11 140.68 148.87   Q 148.94 106.96 152.80 87.17   A 0.52 0.52 0.0 0 0 152.29 86.54   Z" fill="#b2b0b4"/>
<path class="icon-shape" d="   M 153.19 81.35   L 146.44 81.35   A 1.26 1.26 0.0 0 1 145.79 81.17   C 139.09 77.23 139.93 70.69 140.98 64.06   C 142.07 57.23 144.46 53.75 151.79 54.72   Q 159.14 55.69 157.53 63.24   Q 155.50 72.73 154.21 80.49   A 1.03 1.02 4.6 0 1 153.19 81.35   Z" fill="#ffffff"/>
<path class="icon-shape" d="   M 85.08 59.64   C 86.12 57.87 88.60 57.78 89.45 59.83   A 1.61 1.57 -48.3 0 1 89.50 60.96   C 88.28 64.65 87.34 68.17 88.88 71.01   Q 91.90 76.55 92.35 77.71   C 94.55 83.28 91.99 90.37 88.77 95.23   A 2.50 2.49 31.2 0 1 85.48 96.03   L 85.40 95.98   A 2.33 2.33 0.0 0 1 84.45 92.90   C 86.97 87.86 89.70 83.12 86.67 77.84   C 83.16 71.73 81.33 66.05 85.08 59.64   Z" fill="#b2b0b4"/>
<path class="icon-shape" d="   M 105.82 59.98   A 1.61 1.57 -47.3 0 1 105.85 61.11   C 104.57 64.78 103.57 68.29 105.06 71.16   Q 107.99 76.75 108.43 77.92   C 110.53 83.54 107.85 90.59 104.55 95.40   A 2.50 2.49 32.2 0 1 101.24 96.15   L 101.16 96.10   A 2.34 2.33 28.9 0 1 100.26 93.00   C 102.87 87.99 105.68 83.29 102.74 77.96   C 99.33 71.78 97.59 66.07 101.45 59.71   C 102.52 57.96 105.01 57.91 105.82 59.98   Z" fill="#b2b0b4"/>
<path class="icon-shape" d="   M 73.24 59.92   A 1.60 1.56 -48.6 0 1 73.29 61.04   C 72.10 64.72 71.18 68.23 72.73 71.06   Q 75.77 76.56 76.22 77.71   C 78.45 83.25 75.94 90.32 72.76 95.18   A 2.49 2.48 30.9 0 1 69.48 95.99   L 69.40 95.95   A 2.33 2.32 27.6 0 1 68.44 92.88   C 70.92 87.85 73.61 83.11 70.57 77.87   C 67.04 71.80 65.18 66.16 68.88 59.75   C 69.91 57.98 72.38 57.88 73.24 59.92   Z" fill="#b2b0b4"/>
<path class="icon-shape" d="   M 152.80 87.17   Q 148.94 106.96 140.68 148.87   Q 138.66 159.11 127.97 159.12   Q 87.79 159.15 73.34 159.16   Q 67.58 159.16 65.48 157.85   Q 62.04 155.71 60.10 151.50   Q 59.59 150.39 55.13 136.98   A 5.01 4.74 -58.3 0 1 54.88 135.78   C 53.93 124.56 62.87 122.46 71.68 123.88   Q 107.11 129.58 118.24 131.17   C 120.82 131.54 121.93 129.74 122.65 127.34   Q 126.83 113.41 131.07 101.35   C 133.42 94.67 135.34 89.98 142.21 86.84   A 3.20 3.16 32.2 0 1 143.56 86.54   L 152.29 86.54   A 0.52 0.52 0.0 0 1 152.80 87.17   Z" fill="#ffffff"/>
</g><g id="onState" style="display:none"><g fill="none" stroke-linecap="butt" stroke-width="2.00">
<path class="icon-shape" d="   M 51.01 127.69   Q 49.11 133.75 51.44 141.36   C 54.15 150.16 56.23 159.01 64.46 162.90   Q 67.17 164.18 74.20 164.17   Q 126.35 164.10 130.72 164.15   A 4.64 4.39 -50.1 0 0 131.91 164.01   Q 143.09 161.18 145.24 150.72   Q 148.61 134.43 162.21 64.81   Q 163.26 59.42 162.53 57.22   C 160.42 50.86 152.78 48.93 146.77 49.88   C 141.30 50.75 137.93 54.85 136.69 60.10" stroke="#808080" vector-effect="non-scaling-stroke"/>
<path class="icon-shape" d="   M 136.69 60.10   C 134.83 56.98 133.13 53.46 131.28 50.78   Q 119.20 33.25 98.68 27.89   C 70.49 20.52 40.66 36.06 31.19 63.91   C 23.72 85.87 29.94 109.88 47.49 125.27   Q 48.62 126.26 51.01 127.69" stroke="#fef6f6" vector-effect="non-scaling-stroke"/>
<path class="icon-shape" d="   M 136.69 60.10   Q 136.29 63.10 135.77 66.21   C 134.71 72.54 135.09 77.26 139.17 82.26   A 0.48 0.48 0.0 0 1 138.99 83.00   C 132.45 85.78 129.61 91.31 127.23 97.72   Q 121.87 112.20 118.11 125.41   A 0.97 0.97 0.0 0 1 117.03 126.10   Q 77.24 119.90 75.18 119.50   Q 66.56 117.83 61.81 119.02   Q 54.88 120.76 51.01 127.69" stroke="#7f7777" vector-effect="non-scaling-stroke"/>
<path class="icon-shape" d="   M 105.92 59.96   C 104.96 57.96 102.56 57.79 101.46 59.67   Q 98.67 64.41 99.34 69.97   C 99.89 74.49 105.01 79.65 103.96 83.97   Q 102.95 88.11 100.27 92.83   A 2.49 2.48 -58.3 0 0 101.04 96.12   L 101.11 96.17   A 2.46 2.46 0.0 0 0 104.46 95.58   Q 108.40 90.24 109.14 83.56   C 109.62 79.27 107.92 76.32 105.85 72.71   C 103.51 68.60 104.46 65.34 105.97 61.08   A 1.48 1.43 -48.8 0 0 105.92 59.96" stroke="#7f7777" vector-effect="non-scaling-stroke"/>
<path class="icon-shape" d="   M 73.31 59.83   C 72.31 57.86 69.92 57.75 68.87 59.64   Q 66.20 64.43 67.00 69.94   C 67.65 74.43 72.86 79.45 71.92 83.77   Q 71.01 87.92 68.45 92.68   A 2.48 2.47 -59.6 0 0 69.29 95.93   L 69.36 95.98   A 2.45 2.45 0.0 0 0 72.69 95.32   Q 76.48 89.91 77.07 83.24   C 77.44 78.96 75.68 76.07 73.54 72.52   C 71.11 68.48 71.99 65.22 73.39 60.94   A 1.48 1.42 -50.2 0 0 73.31 59.83" stroke="#7f7777" vector-effect="non-scaling-stroke"/>
<path class="icon-shape" d="   M 89.53 59.75   C 88.54 57.77 86.14 57.65 85.08 59.54   Q 82.38 64.32 83.15 69.85   C 83.77 74.35 88.97 79.41 88.00 83.74   Q 87.07 87.89 84.48 92.65   A 2.48 2.47 -59.3 0 0 85.30 95.91   L 85.37 95.96   A 2.46 2.45 -55.9 0 0 88.71 95.32   Q 92.54 89.91 93.17 83.23   C 93.56 78.95 91.81 76.04 89.69 72.47   C 87.27 68.41 88.17 65.15 89.60 60.87   A 1.48 1.43 -49.8 0 0 89.53 59.75" stroke="#7f7777" vector-effect="non-scaling-stroke"/>
<path class="icon-shape" d="   M 154.10 80.61   Q 155.38 73.49 157.62 62.22   C 158.71 56.73 154.62 54.78 149.99 54.65   Q 143.85 54.47 142.16 59.57   Q 140.57 64.37 140.38 71.06   Q 140.18 77.83 145.60 80.93   A 1.94 1.87 -27.8 0 0 146.47 81.18   L 153.19 81.35   A 0.90 0.89 5.5 0 0 154.10 80.61" stroke="#808080" vector-effect="non-scaling-stroke"/>
<path class="icon-shape" d="   M 152.44 86.65   L 143.02 86.65   A 0.96 0.77 29.4 0 0 142.72 86.70   Q 135.81 89.34 133.08 96.37   Q 127.37 111.09 123.06 126.38   C 122.09 129.84 121.05 131.72 117.19 131.13   Q 97.19 128.02 71.20 123.90   C 65.07 122.93 58.58 123.44 55.68 129.48   C 54.17 132.62 54.72 135.64 55.88 139.12   Q 59.50 150.03 60.33 151.85   Q 62.65 156.97 67.35 158.61   Q 68.73 159.09 77.23 159.09   Q 114.93 159.06 126.48 159.12   C 132.10 159.15 135.83 158.46 138.75 153.78   Q 140.16 151.52 141.14 146.42   Q 142.77 137.93 152.51 88.29   Q 152.61 87.76 152.66 87.74   Q 153.59 87.24 152.78 86.74   A 0.70 0.60 -25.6 0 0 152.44 86.65" stroke="#808080" vector-effect="non-scaling-stroke"/>
</g>
<path class="icon-shape" d="   M 195.00 0.00   L 195.00 209.00   L 0.00 209.00   L 0.00 0.00   L 195.00 0.00   Z   M 51.01 127.69   Q 49.11 133.75 51.44 141.36   C 54.15 150.16 56.23 159.01 64.46 162.90   Q 67.17 164.18 74.20 164.17   Q 126.35 164.10 130.72 164.15   A 4.64 4.39 -50.1 0 0 131.91 164.01   Q 143.09 161.18 145.24 150.72   Q 148.61 134.43 162.21 64.81   Q 163.26 59.42 162.53 57.22   C 160.42 50.86 152.78 48.93 146.77 49.88   C 141.30 50.75 137.93 54.85 136.69 60.10   C 134.83 56.98 133.13 53.46 131.28 50.78   Q 119.20 33.25 98.68 27.89   C 70.49 20.52 40.66 36.06 31.19 63.91   C 23.72 85.87 29.94 109.88 47.49 125.27   Q 48.62 126.26 51.01 127.69   Z" fill="#ffffff"/>
<path class="icon-shape" d="   M 136.69 60.10   Q 136.29 63.10 135.77 66.21   C 134.71 72.54 135.09 77.26 139.17 82.26   A 0.48 0.48 0.0 0 1 138.99 83.00   C 132.45 85.78 129.61 91.31 127.23 97.72   Q 121.87 112.20 118.11 125.41   A 0.97 0.97 0.0 0 1 117.03 126.10   Q 77.24 119.90 75.18 119.50   Q 66.56 117.83 61.81 119.02   Q 54.88 120.76 51.01 127.69   Q 48.62 126.26 47.49 125.27   C 29.94 109.88 23.72 85.87 31.19 63.91   C 40.66 36.06 70.49 20.52 98.68 27.89   Q 119.20 33.25 131.28 50.78   C 133.13 53.46 134.83 56.98 136.69 60.10   Z   M 105.92 59.96   C 104.96 57.96 102.56 57.79 101.46 59.67   Q 98.67 64.41 99.34 69.97   C 99.89 74.49 105.01 79.65 103.96 83.97   Q 102.95 88.11 100.27 92.83   A 2.49 2.48 -58.3 0 0 101.04 96.12   L 101.11 96.17   A 2.46 2.46 0.0 0 0 104.46 95.58   Q 108.40 90.24 109.14 83.56   C 109.62 79.27 107.92 76.32 105.85 72.71   C 103.51 68.60 104.46 65.34 105.97 61.08   A 1.48 1.43 -48.8 0 0 105.92 59.96   Z   M 73.31 59.83   C 72.31 57.86 69.92 57.75 68.87 59.64   Q 66.20 64.43 67.00 69.94   C 67.65 74.43 72.86 79.45 71.92 83.77   Q 71.01 87.92 68.45 92.68   A 2.48 2.47 -59.6 0 0 69.29 95.93   L 69.36 95.98   A 2.45 2.45 0.0 0 0 72.69 95.32   Q 76.48 89.91 77.07 83.24   C 77.44 78.96 75.68 76.07 73.54 72.52   C 71.11 68.48 71.99 65.22 73.39 60.94   A 1.48 1.42 -50.2 0 0 73.31 59.83   Z   M 89.53 59.75   C 88.54 57.77 86.14 57.65 85.08 59.54   Q 82.38 64.32 83.15 69.85   C 83.77 74.35 88.97 79.41 88.00 83.74   Q 87.07 87.89 84.48 92.65   A 2.48 2.47 -59.3 0 0 85.30 95.91   L 85.37 95.96   A 2.46 2.45 -55.9 0 0 88.71 95.32   Q 92.54 89.91 93.17 83.23   C 93.56 78.95 91.81 76.04 89.69 72.47   C 87.27 68.41 88.17 65.15 89.60 60.87   A 1.48 1.43 -49.8 0 0 89.53 59.75   Z" fill="#fdedec"/>
<path class="icon-shape" d="   M 51.01 127.69   Q 54.88 120.76 61.81 119.02   Q 66.56 117.83 75.18 119.50   Q 77.24 119.90 117.03 126.10   A 0.97 0.97 0.0 0 0 118.11 125.41   Q 121.87 112.20 127.23 97.72   C 129.61 91.31 132.45 85.78 138.99 83.00   A 0.48 0.48 0.0 0 0 139.17 82.26   C 135.09 77.26 134.71 72.54 135.77 66.21   Q 136.29 63.10 136.69 60.10   C 137.93 54.85 141.30 50.75 146.77 49.88   C 152.78 48.93 160.42 50.86 162.53 57.22   Q 163.26 59.42 162.21 64.81   Q 148.61 134.43 145.24 150.72   Q 143.09 161.18 131.91 164.01   A 4.64 4.39 -50.1 0 1 130.72 164.15   Q 126.35 164.10 74.20 164.17   Q 67.17 164.18 64.46 162.90   C 56.23 159.01 54.15 150.16 51.44 141.36   Q 49.11 133.75 51.01 127.69   Z   M 154.10 80.61   Q 155.38 73.49 157.62 62.22   C 158.71 56.73 154.62 54.78 149.99 54.65   Q 143.85 54.47 142.16 59.57   Q 140.57 64.37 140.38 71.06   Q 140.18 77.83 145.60 80.93   A 1.94 1.87 -27.8 0 0 146.47 81.18   L 153.19 81.35   A 0.90 0.89 5.5 0 0 154.10 80.61   Z   M 152.44 86.65   L 143.02 86.65   A 0.96 0.77 29.4 0 0 142.72 86.70   Q 135.81 89.34 133.08 96.37   Q 127.37 111.09 123.06 126.38   C 122.09 129.84 121.05 131.72 117.19 131.13   Q 97.19 128.02 71.20 123.90   C 65.07 122.93 58.58 123.44 55.68 129.48   C 54.17 132.62 54.72 135.64 55.88 139.12   Q 59.50 150.03 60.33 151.85   Q 62.65 156.97 67.35 158.61   Q 68.73 159.09 77.23 159.09   Q 114.93 159.06 126.48 159.12   C 132.10 159.15 135.83 158.46 138.75 153.78   Q 140.16 151.52 141.14 146.42   Q 142.77 137.93 152.51 88.29   Q 152.61 87.76 152.66 87.74   Q 153.59 87.24 152.78 86.74   A 0.70 0.60 -25.6 0 0 152.44 86.65   Z" fill="#010001"/>
<path class="icon-shape" d="   M 153.19 81.35   L 146.47 81.18   A 1.94 1.87 -27.8 0 1 145.60 80.93   Q 140.18 77.83 140.38 71.06   Q 140.57 64.37 142.16 59.57   Q 143.85 54.47 149.99 54.65   C 154.62 54.78 158.71 56.73 157.62 62.22   Q 155.38 73.49 154.10 80.61   A 0.90 0.89 5.5 0 1 153.19 81.35   Z" fill="#ffffff"/>
<path class="icon-shape" d="   M 105.92 59.96   A 1.48 1.43 -48.8 0 1 105.97 61.08   C 104.46 65.34 103.51 68.60 105.85 72.71   C 107.92 76.32 109.62 79.27 109.14 83.56   Q 108.40 90.24 104.46 95.58   A 2.46 2.46 0.0 0 1 101.11 96.17   L 101.04 96.12   A 2.49 2.48 -58.3 0 1 100.27 92.83   Q 102.95 88.11 103.96 83.97   C 105.01 79.65 99.89 74.49 99.34 69.97   Q 98.67 64.41 101.46 59.67   C 102.56 57.79 104.96 57.96 105.92 59.96   Z" fill="#010001"/>
<path class="icon-shape" d="   M 68.87 59.64   C 69.92 57.75 72.31 57.86 73.31 59.83   A 1.48 1.42 -50.2 0 1 73.39 60.94   C 71.99 65.22 71.11 68.48 73.54 72.52   C 75.68 76.07 77.44 78.96 77.07 83.24   Q 76.48 89.91 72.69 95.32   A 2.45 2.45 0.0 0 1 69.36 95.98   L 69.29 95.93   A 2.48 2.47 -59.6 0 1 68.45 92.68   Q 71.01 87.92 71.92 83.77   C 72.86 79.45 67.65 74.43 67.00 69.94   Q 66.20 64.43 68.87 59.64   Z" fill="#010001"/>
<path class="icon-shape" d="   M 89.53 59.75   A 1.48 1.43 -49.8 0 1 89.60 60.87   C 88.17 65.15 87.27 68.41 89.69 72.47   C 91.81 76.04 93.56 78.95 93.17 83.23   Q 92.54 89.91 88.71 95.32   A 2.46 2.45 -55.9 0 1 85.37 95.96   L 85.30 95.91   A 2.48 2.47 -59.3 0 1 84.48 92.65   Q 87.07 87.89 88.00 83.74   C 88.97 79.41 83.77 74.35 83.15 69.85   Q 82.38 64.32 85.08 59.54   C 86.14 57.65 88.54 57.77 89.53 59.75   Z" fill="#010001"/>
<path class="icon-shape" d="   M 152.78 86.74   Q 153.59 87.24 152.66 87.74   Q 152.61 87.76 152.51 88.29   Q 142.77 137.93 141.14 146.42   Q 140.16 151.52 138.75 153.78   C 135.83 158.46 132.10 159.15 126.48 159.12   Q 114.93 159.06 77.23 159.09   Q 68.73 159.09 67.35 158.61   Q 62.65 156.97 60.33 151.85   Q 59.50 150.03 55.88 139.12   C 54.72 135.64 54.17 132.62 55.68 129.48   C 58.58 123.44 65.07 122.93 71.20 123.90   Q 97.19 128.02 117.19 131.13   C 121.05 131.72 122.09 129.84 123.06 126.38   Q 127.37 111.09 133.08 96.37   Q 135.81 89.34 142.72 86.70   A 0.96 0.77 29.4 0 1 143.02 86.65   L 152.44 86.65   A 0.70 0.60 -25.6 0 1 152.78 86.74   Z" fill="#ffffff"/>
</g></svg>