<?xml version="1.0" encoding="utf-8"?>
<svg version="1.1" viewBox="0.00 0.00 229.00 197.00" xmlns="http://www.w3.org/2000/svg"><g id="offState" style="display:inline"><g fill="none" stroke-linecap="butt" stroke-width="2.00">
<path class="icon-shape" d="   M 194.9603 37.3466   A 1.92 1.92 0.0 0 0 192.7092 35.8282   L 116.4761 50.6464   A 1.92 1.92 0.0 0 0 114.9577 52.8975   L 114.9997 53.1134   A 1.92 1.92 0.0 0 0 117.2508 54.6318   L 193.4839 39.8136   A 1.92 1.92 0.0 0 0 195.0023 37.5625   L 194.9603 37.3466" stroke="#d9d8da" vector-effect="non-scaling-stroke"/>
<path class="icon-shape" d="   M 78.12 47.48   C 72.38 52.98 69.31 59.84 69.73 67.88   A 2.29 2.28 -1.5 0 0 72.01 70.04   L 72.04 70.04   A 2.23 2.23 0.0 0 0 74.27 67.89   C 74.54 60.37 75.89 55.78 81.20 50.70   C 86.50 45.61 91.15 44.45 98.67 44.50   A 2.23 2.23 0.0 0 0 100.91 42.36   L 100.91 42.33   A 2.29 2.28 -86.1 0 0 98.84 39.96   C 90.83 39.20 83.85 41.99 78.12 47.48" stroke="#d9d8da" vector-effect="non-scaling-stroke"/>
<path class="icon-shape" d="   M 85.72 55.79   Q 81.72 59.61 80.27 66.51   Q 79.65 69.46 81.72 70.43   A 2.14 2.03 -75.0 0 0 84.62 68.66   Q 85.28 62.33 88.78 58.98   Q 92.28 55.64 98.63 55.25   A 2.14 2.03 -12.5 0 0 100.53 52.43   Q 99.65 50.32 96.68 50.81   Q 89.72 51.96 85.72 55.79" stroke="#d9d8da" vector-effect="non-scaling-stroke"/>
<path class="icon-shape" d="   M 118.48 146.18   Q 127.14 146.19 136.25 146.27   Q 138.59 146.29 140.50 146.09   A 2.06 2.05 89.8 0 0 142.32 144.25   Q 142.53 142.07 142.53 137.99   C 142.53 135.26 141.37 134.25 138.74 134.15   Q 135.71 134.02 129.23 134.17   A 0.53 0.53 0.0 0 1 128.69 133.64   L 128.69 118.85   A 0.48 0.47 90.0 0 1 129.16 118.37   L 151.71 118.42   A 1.62 1.40 -49.1 0 0 152.13 118.36   C 158.17 116.79 157.68 112.27 156.12 106.90   Q 146.06 72.43 144.25 67.00   Q 142.91 62.96 139.55 62.90   Q 136.38 62.85 118.58 62.83   Q 100.78 62.81 97.61 62.85   Q 94.25 62.90 92.90 66.94   Q 91.07 72.36 80.93 106.81   C 79.36 112.17 78.86 116.69 84.89 118.28   A 1.62 1.40 49.2 0 0 85.31 118.34   L 107.86 118.34   A 0.48 0.47 -89.9 0 1 108.33 118.83   L 108.29 133.62   A 0.53 0.53 0.0 0 1 107.75 134.14   Q 101.27 133.98 98.24 134.10   C 95.61 134.19 94.45 135.20 94.44 137.93   Q 94.43 142.01 94.64 144.19   A 2.06 2.05 -89.7 0 0 96.45 146.04   Q 98.36 146.24 100.70 146.23   Q 109.81 146.17 118.48 146.18" stroke="#d9d8da" vector-effect="non-scaling-stroke"/>
<path class="icon-shape" d="   M 196.2176 144.6692   A 1.96 1.96 0.0 0 0 194.6516 142.3821   L 146.9006 133.4458   A 1.96 1.96 0.0 0 0 144.6135 135.0118   L 144.6024 135.0708   A 1.96 1.96 0.0 0 0 146.1684 137.3579   L 193.9194 146.2942   A 1.96 1.96 0.0 0 0 196.2065 144.7282   L 196.2176 144.6692" stroke="#d9d8da" vector-effect="non-scaling-stroke"/>
<path class="icon-shape" d="   M 140.51 68.62   A 2.55 2.55 0.0 0 0 138.07 66.80   L 99.06 66.80   A 2.55 2.55 0.0 0 0 96.62 68.62   L 84.03 111.04   A 2.55 2.55 0.0 0 0 86.48 114.32   L 150.74 114.32   A 2.55 2.55 0.0 0 0 153.18 111.04   L 140.51 68.62" stroke="#d9d8da" vector-effect="non-scaling-stroke"/>
<path class="icon-shape" d="   M 124.5729 118.9307   A 0.36 0.36 0.0 0 0 124.2135 118.5700   L 112.7335 118.5500   A 0.36 0.36 0.0 0 0 112.3729 118.9094   L 112.3471 133.6693   A 0.36 0.36 0.0 0 0 112.7065 134.0300   L 124.1865 134.0500   A 0.36 0.36 0.0 0 0 124.5471 133.6906   L 124.5729 118.9307" stroke="#d9d8da" vector-effect="non-scaling-stroke"/>
<path class="icon-shape" d="   M 138.04 139.17   A 0.96 0.96 0.0 0 0 137.08 138.21   L 99.22 138.21   A 0.96 0.96 0.0 0 0 98.26 139.17   L 98.26 141.57   A 0.96 0.96 0.0 0 0 99.22 142.53   L 137.08 142.53   A 0.96 0.96 0.0 0 0 138.04 141.57   L 138.04 139.17" stroke="#d9d8da" vector-effect="non-scaling-stroke"/>
<path class="icon-shape" d="   M 134.6681 83.1239   A 7.26 7.26 0.0 0 0 127.3828 75.8893   L 109.7229 75.9509   A 7.26 7.26 0.0 0 0 102.4883 83.2362   L 102.5319 95.7161   A 7.26 7.26 0.0 0 0 109.8172 102.9507   L 127.4771 102.8891   A 7.26 7.26 0.0 0 0 134.7117 95.6038   L 134.6681 83.1239" stroke="#d9d8da" vector-effect="non-scaling-stroke"/>
<path class="icon-shape" d="   M 130.23 83.83   A 3.53 3.53 0.0 0 0 126.70 80.30   L 110.30 80.30   A 3.53 3.53 0.0 0 0 106.77 83.83   L 106.77 95.09   A 3.53 3.53 0.0 0 0 110.30 98.62   L 126.70 98.62   A 3.53 3.53 0.0 0 0 130.23 95.09   L 130.23 83.83" stroke="#d9d8da" vector-effect="non-scaling-stroke"/>
</g>
<path class="icon-shape" d="   M 229.00 0.00   L 229.00 197.00   L 0.00 197.00   L 0.00 0.00   L 229.00 0.00   Z   M 194.9603 37.3466   A 1.92 1.92 0.0 0 0 192.7092 35.8282   L 116.4761 50.6464   A 1.92 1.92 0.0 0 0 114.9577 52.8975   L 114.9997 53.1134   A 1.92 1.92 0.0 0 0 117.2508 54.6318   L 193.4839 39.8136   A 1.92 1.92 0.0 0 0 195.0023 37.5625   L 194.9603 37.3466   Z   M 78.12 47.48   C 72.38 52.98 69.31 59.84 69.73 67.88   A 2.29 2.28 -1.5 0 0 72.01 70.04   L 72.04 70.04   A 2.23 2.23 0.0 0 0 74.27 67.89   C 74.54 60.37 75.89 55.78 81.20 50.70   C 86.50 45.61 91.15 44.45 98.67 44.50   A 2.23 2.23 0.0 0 0 100.91 42.36   L 100.91 42.33   A 2.29 2.28 -86.1 0 0 98.84 39.96   C 90.83 39.20 83.85 41.99 78.12 47.48   Z   M 85.72 55.79   Q 81.72 59.61 80.27 66.51   Q 79.65 69.46 81.72 70.43   A 2.14 2.03 -75.0 0 0 84.62 68.66   Q 85.28 62.33 88.78 58.98   Q 92.28 55.64 98.63 55.25   A 2.14 2.03 -12.5 0 0 100.53 52.43   Q 99.65 50.32 96.68 50.81   Q 89.72 51.96 85.72 55.79   Z   M 118.48 146.18   Q 127.14 146.19 136.25 146.27   Q 138.59 146.29 140.50 146.09   A 2.06 2.05 89.8 0 0 142.32 144.25   Q 142.53 142.07 142.53 137.99   C 142.53 135.26 141.37 134.25 138.74 134.15   Q 135.71 134.02 129.23 134.17   A 0.53 0.53 0.0 0 1 128.69 133.64   L 128.69 118.85   A 0.48 0.47 90.0 0 1 129.16 118.37   L 151.71 118.42   A 1.62 1.40 -49.1 0 0 152.13 118.36   C 158.17 116.79 157.68 112.27 156.12 106.90   Q 146.06 72.43 144.25 67.00   Q 142.91 62.96 139.55 62.90   Q 136.38 62.85 118.58 62.83   Q 100.78 62.81 97.61 62.85   Q 94.25 62.90 92.90 66.94   Q 91.07 72.36 80.93 106.81   C 79.36 112.17 78.86 116.69 84.89 118.28   A 1.62 1.40 49.2 0 0 85.31 118.34   L 107.86 118.34   A 0.48 0.47 -89.9 0 1 108.33 118.83   L 108.29 133.62   A 0.53 0.53 0.0 0 1 107.75 134.14   Q 101.27 133.98 98.24 134.10   C 95.61 134.19 94.45 135.20 94.44 137.93   Q 94.43 142.01 94.64 144.19   A 2.06 2.05 -89.7 0 0 96.45 146.04   Q 98.36 146.24 100.70 146.23   Q 109.81 146.17 118.48 146.18   Z   M 196.2176 144.6692   A 1.96 1.96 0.0 0 0 194.6516 142.3821   L 146.9006 133.4458   A 1.96 1.96 0.0 0 0 144.6135 135.0118   L 144.6024 135.0708   A 1.96 1.96 0.0 0 0 146.1684 137.3579   L 193.9194 146.2942   A 1.96 1.96 0.0 0 0 196.2065 144.7282   L 196.2176 144.6692   Z" fill="#ffffff"/>
<rect fill="#b3b0b4" height="4.06" rx="1.92" transform="translate(154.98,45.23) rotate(-11.0)" width="81.50" x="-40.75" y="-2.03"/>
<path class="icon-shape" d="   M 81.20 50.70   C 75.89 55.78 74.54 60.37 74.27 67.89   A 2.23 2.23 0.0 0 1 72.04 70.04   L 72.01 70.04   A 2.29 2.28 -1.5 0 1 69.73 67.88   C 69.31 59.84 72.38 52.98 78.12 47.48   C 83.85 41.99 90.83 39.20 98.84 39.96   A 2.29 2.28 -86.1 0 1 100.91 42.33   L 100.91 42.36   A 2.23 2.23 0.0 0 1 98.67 44.50   C 91.15 44.45 86.50 45.61 81.20 50.70   Z" fill="#b3b0b4"/>
<path class="icon-shape" d="   M 88.78 58.98   Q 85.28 62.33 84.62 68.66   A 2.14 2.03 -75.0 0 1 81.72 70.43   Q 79.65 69.46 80.27 66.51   Q 81.72 59.61 85.72 55.79   Q 89.72 51.96 96.68 50.81   Q 99.65 50.32 100.53 52.43   A 2.14 2.03 -12.5 0 1 98.63 55.25   Q 92.28 55.64 88.78 58.98   Z" fill="#b3b0b4"/>
<path class="icon-shape" d="   M 118.58 62.83   Q 136.38 62.85 139.55 62.90   Q 142.91 62.96 144.25 67.00   Q 146.06 72.43 156.12 106.90   C 157.68 112.27 158.17 116.79 152.13 118.36   A 1.62 1.40 -49.1 0 1 151.71 118.42   L 129.16 118.37   A 0.48 0.47 90.0 0 0 128.69 118.85   L 128.69 133.64   A 0.53 0.53 0.0 0 0 129.23 134.17   Q 135.71 134.02 138.74 134.15   C 141.37 134.25 142.53 135.26 142.53 137.99   Q 142.53 142.07 142.32 144.25   A 2.06 2.05 89.8 0 1 140.50 146.09   Q 138.59 146.29 136.25 146.27   Q 127.14 146.19 118.48 146.18   Q 109.81 146.17 100.70 146.23   Q 98.36 146.24 96.45 146.04   A 2.06 2.05 -89.7 0 1 94.64 144.19   Q 94.43 142.01 94.44 137.93   C 94.45 135.20 95.61 134.19 98.24 134.10   Q 101.27 133.98 107.75 134.14   A 0.53 0.53 0.0 0 0 108.29 133.62   L 108.33 118.83   A 0.48 0.47 -89.9 0 0 107.86 118.34   L 85.31 118.34   A 1.62 1.40 49.2 0 1 84.89 118.28   C 78.86 116.69 79.36 112.17 80.93 106.81   Q 91.07 72.36 92.90 66.94   Q 94.25 62.90 97.61 62.85   Q 100.78 62.81 118.58 62.83   Z   M 140.51 68.62   A 2.55 2.55 0.0 0 0 138.07 66.80   L 99.06 66.80   A 2.55 2.55 0.0 0 0 96.62 68.62   L 84.03 111.04   A 2.55 2.55 0.0 0 0 86.48 114.32   L 150.74 114.32   A 2.55 2.55 0.0 0 0 153.18 111.04   L 140.51 68.62   Z   M 124.5729 118.9307   A 0.36 0.36 0.0 0 0 124.2135 118.5700   L 112.7335 118.5500   A 0.36 0.36 0.0 0 0 112.3729 118.9094   L 112.3471 133.6693   A 0.36 0.36 0.0 0 0 112.7065 134.0300   L 124.1865 134.0500   A 0.36 0.36 0.0 0 0 124.5471 133.6906   L 124.5729 118.9307   Z   M 138.04 139.17   A 0.96 0.96 0.0 0 0 137.08 138.21   L 99.22 138.21   A 0.96 0.96 0.0 0 0 98.26 139.17   L 98.26 141.57   A 0.96 0.96 0.0 0 0 99.22 142.53   L 137.08 142.53   A 0.96 0.96 0.0 0 0 138.04 141.57   L 138.04 139.17   Z" fill="#b3b0b4"/>
<path class="icon-shape" d="   M 140.51 68.62   L 153.18 111.04   A 2.55 2.55 0.0 0 1 150.74 114.32   L 86.48 114.32   A 2.55 2.55 0.0 0 1 84.03 111.04   L 96.62 68.62   A 2.55 2.55 0.0 0 1 99.06 66.80   L 138.07 66.80   A 2.55 2.55 0.0 0 1 140.51 68.62   Z   M 134.6681 83.1239   A 7.26 7.26 0.0 0 0 127.3828 75.8893   L 109.7229 75.9509   A 7.26 7.26 0.0 0 0 102.4883 83.2362   L 102.5319 95.7161   A 7.26 7.26 0.0 0 0 109.8172 102.9507   L 127.4771 102.8891   A 7.26 7.26 0.0 0 0 134.7117 95.6038   L 134.6681 83.1239   Z" fill="#ffffff"/>
<path class="icon-shape" d="   M 134.7117 95.6038   A 7.26 7.26 0.0 0 1 127.4771 102.8891   L 109.8172 102.9507   A 7.26 7.26 0.0 0 1 102.5319 95.7161   L 102.4883 83.2362   A 7.26 7.26 0.0 0 1 109.7229 75.9509   L 127.3828 75.8893   A 7.26 7.26 0.0 0 1 134.6681 83.1239   L 134.7117 95.6038   Z   M 130.23 83.83   A 3.53 3.53 0.0 0 0 126.70 80.30   L 110.30 80.30   A 3.53 3.53 0.0 0 0 106.77 83.83   L 106.77 95.09   A 3.53 3.53 0.0 0 0 110.30 98.62   L 126.70 98.62   A 3.53 3.53 0.0 0 0 130.23 95.09   L 130.23 83.83   Z" fill="#b3b0b4"/>
<rect fill="#ffffff" height="18.32" rx="3.53" width="23.46" x="106.77" y="80.30"/>
<rect fill="#ffffff" height="15.48" rx="0.36" transform="translate(118.46,126.30) rotate(0.1)" width="12.20" x="-6.10" y="-7.74"/>
<rect fill="#b3b0b4" height="3.98" rx="1.96" transform="translate(170.41,139.87) rotate(10.6)" width="52.50" x="-26.25" y="-1.99"/>
<rect fill="#ffffff" height="4.32" rx="0.96" width="39.78" x="98.26" y="138.21"/>
</g><g id="onState" style="display:none"><g fill="none" stroke-linecap="butt" stroke-width="2.00">
<path class="icon-shape" d="   M 125.78 48.76   Q 122.20 45.76 116.73 43.78   Q 108.46 40.78 100.43 40.48" stroke="#fef6f6" vector-effect="non-scaling-stroke"/>
<path class="icon-shape" d="   M 100.43 40.48   Q 93.68 38.74 84.43 42.00" stroke="#818182" vector-effect="non-scaling-stroke"/>
<path class="icon-shape" d="   M 84.43 42.00   Q 63.27 45.60 50.57 63.57   C 33.72 87.40 37.36 121.90 60.75 140.24   Q 84.64 158.97 114.56 150.11   Q 118.11 149.06 121.99 146.58" stroke="#fef6f6" vector-effect="non-scaling-stroke"/>
<path class="icon-shape" d="   M 121.99 146.58   Q 130.33 146.67 138.75 146.70   Q 141.92 146.70 142.44 143.72   Q 142.69 142.35 142.57 137.77   C 142.51 135.75 141.63 134.63 139.82 133.99" stroke="#818182" vector-effect="non-scaling-stroke"/>
<path class="icon-shape" d="   M 139.82 133.99   Q 142.74 128.86 145.91 123.91   Q 147.23 121.85 148.27 118.40" stroke="#fef6f6" vector-effect="non-scaling-stroke"/>
<path class="icon-shape" d="   M 148.27 118.40   C 157.39 119.33 158.21 113.64 156.24 106.56   C 153.03 95.01 149.13 83.01 144.27 66.71   Q 143.59 64.42 140.97 62.87" stroke="#818182" vector-effect="non-scaling-stroke"/>
<path class="icon-shape" d="   M 140.97 62.87   Q 141.71 62.82 140.93 61.85   Q 136.81 56.73 132.07 51.85" stroke="#fef6f6" vector-effect="non-scaling-stroke"/>
<path class="icon-shape" d="   M 132.07 51.85   L 193.45 39.89   A 1.81 1.81 0.0 0 0 194.92 38.11   L 194.92 37.60   A 1.92 1.92 0.0 0 0 192.64 35.72   L 125.78 48.76" stroke="#818182" vector-effect="non-scaling-stroke"/>
<path class="icon-shape" d="   M 132.07 51.85   L 117.45 54.70   A 2.12 2.11 -11.3 0 1 114.97 53.05   L 114.97 53.01   A 2.08 2.07 78.7 0 1 116.60 50.55   L 125.78 48.76" stroke="#807878" vector-effect="non-scaling-stroke"/>
<path class="icon-shape" d="   M 140.97 62.87   Q 121.47 62.71 101.79 62.82   C 97.65 62.85 94.10 62.45 92.70 67.18   Q 82.15 102.76 80.28 109.02   Q 78.07 116.42 84.68 118.34   A 1.62 1.61 53.3 0 0 85.15 118.41   L 107.66 118.41   A 0.54 0.53 -0.0 0 1 108.20 118.94   L 108.20 133.66   A 0.53 0.52 1.1 0 1 107.65 134.18   Q 100.89 133.91 97.72 133.99   Q 95.49 134.04 94.45 136.12   A 2.19 2.08 -33.3 0 0 94.23 137.06   L 94.23 143.88   A 2.56 2.55 -89.9 0 0 96.77 146.44   L 121.99 146.58" stroke="#807878" vector-effect="non-scaling-stroke"/>
<path class="icon-shape" d="   M 100.43 40.48   C 101.34 42.41 101.21 44.21 98.91 44.48   Q 95.56 44.88 91.68 44.87   A 3.53 3.36 35.1 0 0 90.67 45.02   C 80.98 47.97 73.88 57.42 74.15 67.92   A 2.05 2.04 90.0 0 1 72.06 70.02   L 71.98 70.02   A 2.25 2.24 89.5 0 1 69.78 67.86   Q 69.31 55.58 78.47 47.47   Q 81.28 44.97 84.43 42.00" stroke="#807878" vector-effect="non-scaling-stroke"/>
<path class="icon-shape" d="   M 148.27 118.40   L 129.11 118.41   A 0.40 0.40 0.0 0 0 128.71 118.81   L 128.71 133.69   A 0.41 0.41 0.0 0 0 129.13 134.10   L 139.82 133.99" stroke="#807878" vector-effect="non-scaling-stroke"/>
<path class="icon-shape" d="   M 169.97 141.87   Q 183.70 144.44 193.75 146.37   A 2.11 2.08 4.1 0 0 196.26 144.22   Q 196.19 142.81 194.47 142.38   Q 192.89 141.99 170.72 137.84   Q 148.56 133.69 146.94 133.49   Q 145.18 133.27 144.61 134.56   A 2.11 2.08 17.1 0 0 146.17 137.47   Q 156.24 139.30 169.97 141.87" stroke="#818182" vector-effect="non-scaling-stroke"/>
<path class="icon-shape" d="   M 85.73 55.74   Q 80.39 60.83 80.28 68.34   A 2.23 2.15 81.3 0 0 83.13 70.51   Q 83.80 70.28 84.50 69.13   A 1.70 1.62 -28.8 0 0 84.75 68.33   Q 85.08 62.69 88.89 59.06   Q 92.70 55.43 98.35 55.37   A 1.70 1.62 -58.5 0 0 99.16 55.15   Q 100.34 54.51 100.60 53.85   A 2.23 2.15 11.4 0 0 98.57 50.91   Q 91.06 50.65 85.73 55.74" stroke="#807878" vector-effect="non-scaling-stroke"/>
<path class="icon-shape" d="   M 84.06 111.15   A 2.40 2.40 0.0 0 0 86.36 114.23   L 150.78 114.23   A 2.40 2.40 0.0 0 0 153.08 111.15   L 140.45 68.57   A 2.40 2.40 0.0 0 0 138.15 66.85   L 98.97 66.85   A 2.40 2.40 0.0 0 0 96.67 68.57   L 84.06 111.15" stroke="#818182" vector-effect="non-scaling-stroke"/>
<path class="icon-shape" d="   M 124.4771 118.8995   A 0.27 0.27 0.0 0 0 124.2067 118.6300   L 112.7267 118.6500   A 0.27 0.27 0.0 0 0 112.4571 118.9205   L 112.4829 133.6605   A 0.27 0.27 0.0 0 0 112.7533 133.9300   L 124.2333 133.9100   A 0.27 0.27 0.0 0 0 124.5029 133.6395   L 124.4771 118.8995" stroke="#818182" vector-effect="non-scaling-stroke"/>
<path class="icon-shape" d="   M 138.02 138.78   A 0.30 0.30 0.0 0 0 137.72 138.48   L 98.92 138.48   A 0.30 0.30 0.0 0 0 98.62 138.78   L 98.62 141.94   A 0.30 0.30 0.0 0 0 98.92 142.24   L 137.72 142.24   A 0.30 0.30 0.0 0 0 138.02 141.94   L 138.02 138.78" stroke="#818182" vector-effect="non-scaling-stroke"/>
<path class="icon-shape" d="   M 134.7916 83.2665   A 7.35 7.35 0.0 0 0 127.4673 75.8909   L 109.8274 75.8293   A 7.35 7.35 0.0 0 0 102.4518 83.1536   L 102.4084 95.5735   A 7.35 7.35 0.0 0 0 109.7327 102.9491   L 127.3726 103.0107   A 7.35 7.35 0.0 0 0 134.7482 95.6864   L 134.7916 83.2665" stroke="#818182" vector-effect="non-scaling-stroke"/>
<path class="icon-shape" d="   M 130.1602 83.7996   A 3.47 3.47 0.0 0 0 126.6841 80.3357   L 110.2841 80.3643   A 3.47 3.47 0.0 0 0 106.8202 83.8404   L 106.8398 95.1004   A 3.47 3.47 0.0 0 0 110.3159 98.5643   L 126.7159 98.5357   A 3.47 3.47 0.0 0 0 130.1798 95.0596   L 130.1602 83.7996" stroke="#807878" vector-effect="non-scaling-stroke"/>
</g>
<path class="icon-shape" d="   M 229.00 0.00   L 229.00 197.00   L 0.00 197.00   L 0.00 0.00   L 229.00 0.00   Z   M 125.78 48.76   Q 122.20 45.76 116.73 43.78   Q 108.46 40.78 100.43 40.48   Q 93.68 38.74 84.43 42.00   Q 63.27 45.60 50.57 63.57   C 33.72 87.40 37.36 121.90 60.75 140.24   Q 84.64 158.97 114.56 150.11   Q 118.11 149.06 121.99 146.58   Q 130.33 146.67 138.75 146.70   Q 141.92 146.70 142.44 143.72   Q 142.69 142.35 142.57 137.77   C 142.51 135.75 141.63 134.63 139.82 133.99   Q 142.74 128.86 145.91 123.91   Q 147.23 121.85 148.27 118.40   C 157.39 119.33 158.21 113.64 156.24 106.56   C 153.03 95.01 149.13 83.01 144.27 66.71   Q 143.59 64.42 140.97 62.87   Q 141.71 62.82 140.93 61.85   Q 136.81 56.73 132.07 51.85   L 193.45 39.89   A 1.81 1.81 0.0 0 0 194.92 38.11   L 194.92 37.60   A 1.92 1.92 0.0 0 0 192.64 35.72   L 125.78 48.76   Z   M 169.97 141.87   Q 183.70 144.44 193.75 146.37   A 2.11 2.08 4.1 0 0 196.26 144.22   Q 196.19 142.81 194.47 142.38   Q 192.89 141.99 170.72 137.84   Q 148.56 133.69 146.94 133.49   Q 145.18 133.27 144.61 134.56   A 2.11 2.08 17.1 0 0 146.17 137.47   Q 156.24 139.30 169.97 141.87   Z" fill="#ffffff"/>
<path class="icon-shape" d="   M 132.07 51.85   L 117.45 54.70   A 2.12 2.11 -11.3 0 1 114.97 53.05   L 114.97 53.01   A 2.08 2.07 78.7 0 1 116.60 50.55   L 125.78 48.76   L 192.64 35.72   A 1.92 1.92 0.0 0 1 194.92 37.60   L 194.92 38.11   A 1.81 1.81 0.0 0 1 193.45 39.89   L 132.07 51.85   Z" fill="#030304"/>
<path class="icon-shape" d="   M 100.43 40.48   C 101.34 42.41 101.21 44.21 98.91 44.48   Q 95.56 44.88 91.68 44.87   A 3.53 3.36 35.1 0 0 90.67 45.02   C 80.98 47.97 73.88 57.42 74.15 67.92   A 2.05 2.04 90.0 0 1 72.06 70.02   L 71.98 70.02   A 2.25 2.24 89.5 0 1 69.78 67.86   Q 69.31 55.58 78.47 47.47   Q 81.28 44.97 84.43 42.00   Q 93.68 38.74 100.43 40.48   Z" fill="#030304"/>
<path class="icon-shape" d="   M 125.78 48.76   L 116.60 50.55   A 2.08 2.07 78.7 0 0 114.97 53.01   L 114.97 53.05   A 2.12 2.11 -11.3 0 0 117.45 54.70   L 132.07 51.85   Q 136.81 56.73 140.93 61.85   Q 141.71 62.82 140.97 62.87   Q 121.47 62.71 101.79 62.82   C 97.65 62.85 94.10 62.45 92.70 67.18   Q 82.15 102.76 80.28 109.02   Q 78.07 116.42 84.68 118.34   A 1.62 1.61 53.3 0 0 85.15 118.41   L 107.66 118.41   A 0.54 0.53 -0.0 0 1 108.20 118.94   L 108.20 133.66   A 0.53 0.52 1.1 0 1 107.65 134.18   Q 100.89 133.91 97.72 133.99   Q 95.49 134.04 94.45 136.12   A 2.19 2.08 -33.3 0 0 94.23 137.06   L 94.23 143.88   A 2.56 2.55 -89.9 0 0 96.77 146.44   L 121.99 146.58   Q 118.11 149.06 114.56 150.11   Q 84.64 158.97 60.75 140.24   C 37.36 121.90 33.72 87.40 50.57 63.57   Q 63.27 45.60 84.43 42.00   Q 81.28 44.97 78.47 47.47   Q 69.31 55.58 69.78 67.86   A 2.25 2.24 89.5 0 0 71.98 70.02   L 72.06 70.02   A 2.05 2.04 90.0 0 0 74.15 67.92   C 73.88 57.42 80.98 47.97 90.67 45.02   A 3.53 3.36 35.1 0 1 91.68 44.87   Q 95.56 44.88 98.91 44.48   C 101.21 44.21 101.34 42.41 100.43 40.48   Q 108.46 40.78 116.73 43.78   Q 122.20 45.76 125.78 48.76   Z   M 85.73 55.74   Q 80.39 60.83 80.28 68.34   A 2.23 2.15 81.3 0 0 83.13 70.51   Q 83.80 70.28 84.50 69.13   A 1.70 1.62 -28.8 0 0 84.75 68.33   Q 85.08 62.69 88.89 59.06   Q 92.70 55.43 98.35 55.37   A 1.70 1.62 -58.5 0 0 99.16 55.15   Q 100.34 54.51 100.60 53.85   A 2.23 2.15 11.4 0 0 98.57 50.91   Q 91.06 50.65 85.73 55.74   Z" fill="#fdedec"/>
<path class="icon-shape" d="   M 88.89 59.06   Q 85.08 62.69 84.75 68.33   A 1.70 1.62 -28.8 0 1 84.50 69.13   Q 83.80 70.28 83.13 70.51   A 2.23 2.15 81.3 0 1 80.28 68.34   Q 80.39 60.83 85.73 55.74   Q 91.06 50.65 98.57 50.91   A 2.23 2.15 11.4 0 1 100.60 53.85   Q 100.34 54.51 99.16 55.15   A 1.70 1.62 -58.5 0 1 98.35 55.37   Q 92.70 55.43 88.89 59.06   Z" fill="#030304"/>
<path class="icon-shape" d="   M 140.97 62.87   Q 143.59 64.42 144.27 66.71   C 149.13 83.01 153.03 95.01 156.24 106.56   C 158.21 113.64 157.39 119.33 148.27 118.40   L 129.11 118.41   A 0.40 0.40 0.0 0 0 128.71 118.81   L 128.71 133.69   A 0.41 0.41 0.0 0 0 129.13 134.10   L 139.82 133.99   C 141.63 134.63 142.51 135.75 142.57 137.77   Q 142.69 142.35 142.44 143.72   Q 141.92 146.70 138.75 146.70   Q 130.33 146.67 121.99 146.58   L 96.77 146.44   A 2.56 2.55 -89.9 0 1 94.23 143.88   L 94.23 137.06   A 2.19 2.08 -33.3 0 1 94.45 136.12   Q 95.49 134.04 97.72 133.99   Q 100.89 133.91 107.65 134.18   A 0.53 0.52 1.1 0 0 108.20 133.66   L 108.20 118.94   A 0.54 0.53 0.0 0 0 107.66 118.41   L 85.15 118.41   A 1.62 1.61 53.3 0 1 84.68 118.34   Q 78.07 116.42 80.28 109.02   Q 82.15 102.76 92.70 67.18   C 94.10 62.45 97.65 62.85 101.79 62.82   Q 121.47 62.71 140.97 62.87   Z   M 84.06 111.15   A 2.40 2.40 0.0 0 0 86.36 114.23   L 150.78 114.23   A 2.40 2.40 0.0 0 0 153.08 111.15   L 140.45 68.57   A 2.40 2.40 0.0 0 0 138.15 66.85   L 98.97 66.85   A 2.40 2.40 0.0 0 0 96.67 68.57   L 84.06 111.15   Z   M 124.4771 118.8995   A 0.27 0.27 0.0 0 0 124.2067 118.6300   L 112.7267 118.6500   A 0.27 0.27 0.0 0 0 112.4571 118.9205   L 112.4829 133.6605   A 0.27 0.27 0.0 0 0 112.7533 133.9300   L 124.2333 133.9100   A 0.27 0.27 0.0 0 0 124.5029 133.6395   L 124.4771 118.8995   Z   M 138.02 138.78   A 0.30 0.30 0.0 0 0 137.72 138.48   L 98.92 138.48   A 0.30 0.30 0.0 0 0 98.62 138.78   L 98.62 141.94   A 0.30 0.30 0.0 0 0 98.92 142.24   L 137.72 142.24   A 0.30 0.30 0.0 0 0 138.02 141.94   L 138.02 138.78   Z" fill="#030304"/>
<path class="icon-shape" d="   M 84.06 111.15   L 96.67 68.57   A 2.40 2.40 0.0 0 1 98.97 66.85   L 138.15 66.85   A 2.40 2.40 0.0 0 1 140.45 68.57   L 153.08 111.15   A 2.40 2.40 0.0 0 1 150.78 114.23   L 86.36 114.23   A 2.40 2.40 0.0 0 1 84.06 111.15   Z   M 134.7916 83.2665   A 7.35 7.35 0.0 0 0 127.4673 75.8909   L 109.8274 75.8293   A 7.35 7.35 0.0 0 0 102.4518 83.1536   L 102.4084 95.5735   A 7.35 7.35 0.0 0 0 109.7327 102.9491   L 127.3726 103.0107   A 7.35 7.35 0.0 0 0 134.7482 95.6864   L 134.7916 83.2665   Z" fill="#ffffff"/>
<path class="icon-shape" d="   M 134.7482 95.6864   A 7.35 7.35 0.0 0 1 127.3726 103.0107   L 109.7327 102.9491   A 7.35 7.35 0.0 0 1 102.4084 95.5735   L 102.4518 83.1536   A 7.35 7.35 0.0 0 1 109.8274 75.8293   L 127.4673 75.8909   A 7.35 7.35 0.0 0 1 134.7916 83.2665   L 134.7482 95.6864   Z   M 130.1602 83.7996   A 3.47 3.47 0.0 0 0 126.6841 80.3357   L 110.2841 80.3643   A 3.47 3.47 0.0 0 0 106.8202 83.8404   L 106.8398 95.1004   A 3.47 3.47 0.0 0 0 110.3159 98.5643   L 126.7159 98.5357   A 3.47 3.47 0.0 0 0 130.1798 95.0596   L 130.1602 83.7996   Z" fill="#030304"/>
<rect fill="#fdedec" height="18.20" rx="3.47" transform="translate(118.50,89.45) rotate(-0.1)" width="23.34" x="-11.67" y="-9.10"/>
<path class="icon-shape" d="   M 148.27 118.40   Q 147.23 121.85 145.91 123.91   Q 142.74 128.86 139.82 133.99   L 129.13 134.10   A 0.41 0.41 0.0 0 1 128.71 133.69   L 128.71 118.81   A 0.40 0.40 0.0 0 1 129.11 118.41   L 148.27 118.40   Z" fill="#fdedec"/>
<rect fill="#ffffff" height="15.28" rx="0.27" transform="translate(118.48,126.28) rotate(-0.1)" width="12.02" x="-6.01" y="-7.64"/>
<path class="icon-shape" d="   M 170.72 137.84   Q 192.89 141.99 194.47 142.38   Q 196.19 142.81 196.26 144.22   A 2.11 2.08 4.1 0 1 193.75 146.37   Q 183.70 144.44 169.97 141.87   Q 156.24 139.30 146.17 137.47   A 2.11 2.08 17.1 0 1 144.61 134.56   Q 145.18 133.27 146.94 133.49   Q 148.56 133.69 170.72 137.84   Z" fill="#030304"/>
<rect fill="#ffffff" height="3.76" rx="0.30" width="39.40" x="98.62" y="138.48"/>
</g></svg>