<?xml version="1.0" encoding="utf-8"?>
<svg version="1.1" viewBox="0.00 0.00 229.00 207.00" xmlns="http://www.w3.org/2000/svg"><g id="offState" style="display:inline"><g fill="none" stroke-linecap="butt" stroke-width="2.00">
<path class="icon-shape" d="   M 117.23 159.85   Q 117.23 160.76 117.13 162.55   C 116.69 170.61 121.86 173.84 129.09 173.86   Q 135.14 173.88 136.23 173.69   Q 144.94 172.16 144.95 163.27   Q 144.99 134.98 144.89 120.90   A 0.75 0.74 -6.6 0 1 145.48 120.16   C 149.88 119.22 151.22 116.32 151.30 111.85   C 151.38 107.92 151.11 103.86 147.31 103.19   Q 141.75 102.21 137.18 104.18   A 0.38 0.38 0.0 0 1 136.67 103.96   Q 134.67 98.67 130.81 92.46   Q 128.47 88.70 124.66 85.98   A 0.80 0.80 0.0 0 1 124.44 84.91   Q 130.32 75.11 134.58 67.07   C 136.26 63.91 136.37 60.29 131.98 59.66   Q 114.35 57.13 99.25 56.57   Q 94.63 56.40 72.34 56.46   C 60.87 56.50 48.03 57.73 36.89 59.57   C 30.08 60.69 33.64 66.83 35.49 70.29   Q 38.98 76.82 43.57 84.81   A 0.73 0.72 54.2 0 1 43.43 85.71   C 40.28 88.51 38.38 90.05 36.53 93.53   Q 33.54 99.17 31.42 103.39   A 0.53 0.53 0.0 0 1 30.78 103.66   Q 27.23 102.53 23.01 103.05   C 17.57 103.72 18.19 108.25 18.21 113.32   C 18.22 116.83 20.18 119.01 23.15 120.06   A 0.80 0.79 -80.1 0 1 23.67 120.81   Q 23.71 159.44 23.64 161.98   C 23.43 170.01 26.85 173.77 35.12 173.83   Q 40.81 173.87 42.25 173.53   C 48.26 172.08 50.65 168.26 50.60 162.35   Q 50.59 160.24 50.57 160.20   A 0.44 0.44 0.0 0 1 50.99 159.60   L 116.99 159.61   A 0.24 0.24 0.0 0 1 117.23 159.85" stroke="#d9d8da" vector-effect="non-scaling-stroke"/>
<path class="icon-shape" d="   M 84.12 82.31   C 101.91 82.32 112.20 81.70 119.29 83.15   A 0.61 0.60 -69.1 0 0 119.94 82.85   L 130.20 65.08   A 0.36 0.36 0.0 0 0 129.94 64.54   C 118.95 62.94 108.73 61.81 97.72 61.71   Q 94.38 61.68 84.13 61.67   Q 73.88 61.67 70.54 61.70   C 59.53 61.79 49.30 62.91 38.31 64.51   A 0.36 0.36 0.0 0 0 38.05 65.05   L 48.30 82.82   A 0.61 0.60 69.1 0 0 48.95 83.12   C 56.04 81.68 66.33 82.30 84.12 82.31" stroke="#d9d8da" vector-effect="non-scaling-stroke"/>
<path class="icon-shape" d="   M 84.13 130.79   Q 95.58 130.80 107.40 130.82   Q 110.90 130.83 112.41 130.06   C 117.90 127.26 115.57 119.54 118.78 115.15   C 122.54 110.00 128.22 110.94 133.70 111.01   A 0.53 0.53 0.0 0 0 134.23 110.42   Q 134.02 108.59 133.40 107.32   Q 132.48 105.42 127.15 95.50   Q 124.73 91.00 120.58 88.78   Q 118.10 87.45 111.71 87.38   Q 107.14 87.33 84.17 87.31   Q 61.20 87.29 56.63 87.33   Q 50.24 87.39 47.76 88.72   Q 43.61 90.93 41.18 95.43   Q 35.83 105.34 34.91 107.23   Q 34.29 108.50 34.07 110.33   A 0.53 0.53 0.0 0 0 34.60 110.92   C 40.08 110.86 45.76 109.93 49.51 115.09   C 52.72 119.49 50.37 127.20 55.86 130.01   Q 57.37 130.78 60.87 130.78   Q 72.69 130.78 84.13 130.79" stroke="#d9d8da" vector-effect="non-scaling-stroke"/>
<path class="icon-shape" d="   M 27.23 107.88   L 24.48 107.38   A 1.17 1.17 0.0 0 0 23.12 108.32   L 22.97 109.14   A 5.49 2.40 -79.6 0 0 24.34 114.98   L 24.67 115.04   A 5.49 2.40 -79.6 0 0 28.02 110.07   L 28.17 109.25   A 1.17 1.17 0.0 0 0 27.23 107.88" stroke="#d9d8da" vector-effect="non-scaling-stroke"/>
<path class="icon-shape" d="   M 144.70 107.35   L 141.48 107.97   A 1.29 1.29 0.0 0 0 140.46 109.49   L 140.51 109.71   A 6.20 2.77 79.0 0 0 144.41 115.27   L 144.72 115.21   A 6.20 2.77 79.0 0 0 146.26 108.59   L 146.22 108.37   A 1.29 1.29 0.0 0 0 144.70 107.35" stroke="#d9d8da" vector-effect="non-scaling-stroke"/>
<path class="icon-shape" d="   M 46.82 126.26   A 0.53 0.53 0.0 0 0 47.33 125.64   Q 46.92 123.00 46.16 119.58   Q 45.56 116.85 42.62 116.33   Q 41.08 116.05 33.23 116.15   A 2.48 2.38 32.2 0 0 32.26 116.35   Q 28.37 118.01 28.51 121.73   C 28.63 124.92 30.48 126.18 33.75 126.23   Q 41.83 126.37 46.82 126.26" stroke="#d9d8da" vector-effect="non-scaling-stroke"/>
<path class="icon-shape" d="   M 121.57 126.15   Q 126.55 126.35 134.60 126.35   C 137.86 126.35 139.73 125.13 139.90 121.95   Q 140.11 118.25 136.26 116.52   A 2.47 2.37 -31.2 0 0 135.30 116.31   Q 127.47 116.07 125.93 116.32   Q 122.99 116.79 122.35 119.50   Q 121.53 122.90 121.08 125.52   A 0.53 0.53 0.0 0 0 121.57 126.15" stroke="#d9d8da" vector-effect="non-scaling-stroke"/>
<path class="icon-shape" d="   M 84.07 154.55   Q 104.33 154.57 133.25 154.60   Q 137.61 154.61 139.57 149.57   A 2.50 2.39 57.0 0 0 139.74 148.67   L 139.74 131.19   A 0.51 0.50 84.8 0 0 139.15 130.69   C 138.08 130.89 137.25 131.48 136.01 131.49   Q 128.40 131.55 122.33 131.48   C 121.32 131.47 120.31 130.84 119.35 130.78   A 0.88 0.88 0.0 0 0 118.56 131.15   C 116.25 134.37 113.38 135.64 109.00 135.67   Q 104.40 135.71 84.08 135.69   Q 63.76 135.68 59.16 135.64   C 54.78 135.60 51.92 134.33 49.61 131.10   A 0.88 0.88 0.0 0 0 48.82 130.73   C 47.86 130.79 46.85 131.42 45.84 131.43   Q 39.77 131.49 32.16 131.42   C 30.92 131.41 30.09 130.82 29.02 130.61   A 0.51 0.50 -84.7 0 0 28.43 131.11   L 28.41 148.59   A 2.50 2.39 -56.9 0 0 28.58 149.49   Q 30.53 154.54 34.88 154.53   Q 63.81 154.54 84.07 154.55" stroke="#d9d8da" vector-effect="non-scaling-stroke"/>
<path class="icon-shape" d="   M 139.31 157.80   C 137.29 158.92 136.29 159.44 134.15 159.48   Q 126.07 159.62 122.98 159.48   A 0.66 0.65 1.3 0 0 122.30 160.12   C 122.18 164.49 121.86 168.57 126.70 168.61   Q 133.31 168.67 136.45 168.53   Q 138.25 168.45 139.67 165.96   A 0.78 0.76 -31.7 0 0 139.76 165.60   L 139.76 158.06   A 0.30 0.30 0.0 0 0 139.31 157.80" stroke="#d9d8da" vector-effect="non-scaling-stroke"/>
<path class="icon-shape" d="   M 28.51 158.72   C 28.51 161.69 27.60 166.94 31.26 168.44   A 2.44 2.37 55.3 0 0 32.17 168.62   L 40.70 168.60   A 3.04 2.97 -54.6 0 0 41.75 168.41   Q 47.17 166.42 45.90 159.97   A 0.59 0.59 0.0 0 0 45.32 159.49   L 32.35 159.49   A 2.76 2.67 -31.9 0 1 31.23 159.25   L 29.16 158.31   A 0.46 0.45 12.5 0 0 28.51 158.72" stroke="#d9d8da" vector-effect="non-scaling-stroke"/>
</g>
<path class="icon-shape" d="   M 229.00 0.00   L 229.00 207.00   L 0.00 207.00   L 0.00 0.00   L 229.00 0.00   Z   M 117.23 159.85   Q 117.23 160.76 117.13 162.55   C 116.69 170.61 121.86 173.84 129.09 173.86   Q 135.14 173.88 136.23 173.69   Q 144.94 172.16 144.95 163.27   Q 144.99 134.98 144.89 120.90   A 0.75 0.74 -6.6 0 1 145.48 120.16   C 149.88 119.22 151.22 116.32 151.30 111.85   C 151.38 107.92 151.11 103.86 147.31 103.19   Q 141.75 102.21 137.18 104.18   A 0.38 0.38 0.0 0 1 136.67 103.96   Q 134.67 98.67 130.81 92.46   Q 128.47 88.70 124.66 85.98   A 0.80 0.80 0.0 0 1 124.44 84.91   Q 130.32 75.11 134.58 67.07   C 136.26 63.91 136.37 60.29 131.98 59.66   Q 114.35 57.13 99.25 56.57   Q 94.63 56.40 72.34 56.46   C 60.87 56.50 48.03 57.73 36.89 59.57   C 30.08 60.69 33.64 66.83 35.49 70.29   Q 38.98 76.82 43.57 84.81   A 0.73 0.72 54.2 0 1 43.43 85.71   C 40.28 88.51 38.38 90.05 36.53 93.53   Q 33.54 99.17 31.42 103.39   A 0.53 0.53 0.0 0 1 30.78 103.66   Q 27.23 102.53 23.01 103.05   C 17.57 103.72 18.19 108.25 18.21 113.32   C 18.22 116.83 20.18 119.01 23.15 120.06   A 0.80 0.79 -80.1 0 1 23.67 120.81   Q 23.71 159.44 23.64 161.98   C 23.43 170.01 26.85 173.77 35.12 173.83   Q 40.81 173.87 42.25 173.53   C 48.26 172.08 50.65 168.26 50.60 162.35   Q 50.59 160.24 50.57 160.20   A 0.44 0.44 0.0 0 1 50.99 159.60   L 116.99 159.61   A 0.24 0.24 0.0 0 1 117.23 159.85   Z" fill="#ffffff"/>
<path class="icon-shape" d="   M 117.23 159.85   A 0.24 0.24 0.0 0 0 116.99 159.61   L 50.99 159.60   A 0.44 0.44 0.0 0 0 50.57 160.20   Q 50.59 160.24 50.60 162.35   C 50.65 168.26 48.26 172.08 42.25 173.53   Q 40.81 173.87 35.12 173.83   C 26.85 173.77 23.43 170.01 23.64 161.98   Q 23.71 159.44 23.67 120.81   A 0.80 0.79 -80.1 0 0 23.15 120.06   C 20.18 119.01 18.22 116.83 18.21 113.32   C 18.19 108.25 17.57 103.72 23.01 103.05   Q 27.23 102.53 30.78 103.66   A 0.53 0.53 0.0 0 0 31.42 103.39   Q 33.54 99.17 36.53 93.53   C 38.38 90.05 40.28 88.51 43.43 85.71   A 0.73 0.72 54.2 0 0 43.57 84.81   Q 38.98 76.82 35.49 70.29   C 33.64 66.83 30.08 60.69 36.89 59.57   C 48.03 57.73 60.87 56.50 72.34 56.46   Q 94.63 56.40 99.25 56.57   Q 114.35 57.13 131.98 59.66   C 136.37 60.29 136.26 63.91 134.58 67.07   Q 130.32 75.11 124.44 84.91   A 0.80 0.80 0.0 0 0 124.66 85.98   Q 128.47 88.70 130.81 92.46   Q 134.67 98.67 136.67 103.96   A 0.38 0.38 0.0 0 0 137.18 104.18   Q 141.75 102.21 147.31 103.19   C 151.11 103.86 151.38 107.92 151.30 111.85   C 151.22 116.32 149.88 119.22 145.48 120.16   A 0.75 0.74 -6.6 0 0 144.89 120.90   Q 144.99 134.98 144.95 163.27   Q 144.94 172.16 136.23 173.69   Q 135.14 173.88 129.09 173.86   C 121.86 173.84 116.69 170.61 117.13 162.55   Q 117.23 160.76 117.23 159.85   Z   M 84.12 82.31   C 101.91 82.32 112.20 81.70 119.29 83.15   A 0.61 0.60 -69.1 0 0 119.94 82.85   L 130.20 65.08   A 0.36 0.36 0.0 0 0 129.94 64.54   C 118.95 62.94 108.73 61.81 97.72 61.71   Q 94.38 61.68 84.13 61.67   Q 73.88 61.67 70.54 61.70   C 59.53 61.79 49.30 62.91 38.31 64.51   A 0.36 0.36 0.0 0 0 38.05 65.05   L 48.30 82.82   A 0.61 0.60 69.1 0 0 48.95 83.12   C 56.04 81.68 66.33 82.30 84.12 82.31   Z   M 84.13 130.79   Q 95.58 130.80 107.40 130.82   Q 110.90 130.83 112.41 130.06   C 117.90 127.26 115.57 119.54 118.78 115.15   C 122.54 110.00 128.22 110.94 133.70 111.01   A 0.53 0.53 0.0 0 0 134.23 110.42   Q 134.02 108.59 133.40 107.32   Q 132.48 105.42 127.15 95.50   Q 124.73 91.00 120.58 88.78   Q 118.10 87.45 111.71 87.38   Q 107.14 87.33 84.17 87.31   Q 61.20 87.29 56.63 87.33   Q 50.24 87.39 47.76 88.72   Q 43.61 90.93 41.18 95.43   Q 35.83 105.34 34.91 107.23   Q 34.29 108.50 34.07 110.33   A 0.53 0.53 0.0 0 0 34.60 110.92   C 40.08 110.86 45.76 109.93 49.51 115.09   C 52.72 119.49 50.37 127.20 55.86 130.01   Q 57.37 130.78 60.87 130.78   Q 72.69 130.78 84.13 130.79   Z   M 27.23 107.88   L 24.48 107.38   A 1.17 1.17 0.0 0 0 23.12 108.32   L 22.97 109.14   A 5.49 2.40 -79.6 0 0 24.34 114.98   L 24.67 115.04   A 5.49 2.40 -79.6 0 0 28.02 110.07   L 28.17 109.25   A 1.17 1.17 0.0 0 0 27.23 107.88   Z   M 144.70 107.35   L 141.48 107.97   A 1.29 1.29 0.0 0 0 140.46 109.49   L 140.51 109.71   A 6.20 2.77 79.0 0 0 144.41 115.27   L 144.72 115.21   A 6.20 2.77 79.0 0 0 146.26 108.59   L 146.22 108.37   A 1.29 1.29 0.0 0 0 144.70 107.35   Z   M 46.82 126.26   A 0.53 0.53 0.0 0 0 47.33 125.64   Q 46.92 123.00 46.16 119.58   Q 45.56 116.85 42.62 116.33   Q 41.08 116.05 33.23 116.15   A 2.48 2.38 32.2 0 0 32.26 116.35   Q 28.37 118.01 28.51 121.73   C 28.63 124.92 30.48 126.18 33.75 126.23   Q 41.83 126.37 46.82 126.26   Z   M 121.57 126.15   Q 126.55 126.35 134.60 126.35   C 137.86 126.35 139.73 125.13 139.90 121.95   Q 140.11 118.25 136.26 116.52   A 2.47 2.37 -31.2 0 0 135.30 116.31   Q 127.47 116.07 125.93 116.32   Q 122.99 116.79 122.35 119.50   Q 121.53 122.90 121.08 125.52   A 0.53 0.53 0.0 0 0 121.57 126.15   Z   M 84.07 154.55   Q 104.33 154.57 133.25 154.60   Q 137.61 154.61 139.57 149.57   A 2.50 2.39 57.0 0 0 139.74 148.67   L 139.74 131.19   A 0.51 0.50 84.8 0 0 139.15 130.69   C 138.08 130.89 137.25 131.48 136.01 131.49   Q 128.40 131.55 122.33 131.48   C 121.32 131.47 120.31 130.84 119.35 130.78   A 0.88 0.88 0.0 0 0 118.56 131.15   C 116.25 134.37 113.38 135.64 109.00 135.67   Q 104.40 135.71 84.08 135.69   Q 63.76 135.68 59.16 135.64   C 54.78 135.60 51.92 134.33 49.61 131.10   A 0.88 0.88 0.0 0 0 48.82 130.73   C 47.86 130.79 46.85 131.42 45.84 131.43   Q 39.77 131.49 32.16 131.42   C 30.92 131.41 30.09 130.82 29.02 130.61   A 0.51 0.50 -84.7 0 0 28.43 131.11   L 28.41 148.59   A 2.50 2.39 -56.9 0 0 28.58 149.49   Q 30.53 154.54 34.88 154.53   Q 63.81 154.54 84.07 154.55   Z   M 139.31 157.80   C 137.29 158.92 136.29 159.44 134.15 159.48   Q 126.07 159.62 122.98 159.48   A 0.66 0.65 1.3 0 0 122.30 160.12   C 122.18 164.49 121.86 168.57 126.70 168.61   Q 133.31 168.67 136.45 168.53   Q 138.25 168.45 139.67 165.96   A 0.78 0.76 -31.7 0 0 139.76 165.60   L 139.76 158.06   A 0.30 0.30 0.0 0 0 139.31 157.80   Z   M 28.51 158.72   C 28.51 161.69 27.60 166.94 31.26 168.44   A 2.44 2.37 55.3 0 0 32.17 168.62   L 40.70 168.60   A 3.04 2.97 -54.6 0 0 41.75 168.41   Q 47.17 166.42 45.90 159.97   A 0.59 0.59 0.0 0 0 45.32 159.49   L 32.35 159.49   A 2.76 2.67 -31.9 0 1 31.23 159.25   L 29.16 158.31   A 0.46 0.45 12.5 0 0 28.51 158.72   Z" fill="#b2b0b4"/>
<path class="icon-shape" d="   M 84.13 61.67   Q 94.38 61.68 97.72 61.71   C 108.73 61.81 118.95 62.94 129.94 64.54   A 0.36 0.36 0.0 0 1 130.20 65.08   L 119.94 82.85   A 0.61 0.60 -69.1 0 1 119.29 83.15   C 112.20 81.70 101.91 82.32 84.12 82.31   C 66.33 82.30 56.04 81.68 48.95 83.12   A 0.61 0.60 69.1 0 1 48.30 82.82   L 38.05 65.05   A 0.36 0.36 0.0 0 1 38.31 64.51   C 49.30 62.91 59.53 61.79 70.54 61.70   Q 73.88 61.67 84.13 61.67   Z" fill="#ffffff"/>
<path class="icon-shape" d="   M 84.17 87.31   Q 107.14 87.33 111.71 87.38   Q 118.10 87.45 120.58 88.78   Q 124.73 91.00 127.15 95.50   Q 132.48 105.42 133.40 107.32   Q 134.02 108.59 134.23 110.42   A 0.53 0.53 0.0 0 1 133.70 111.01   C 128.22 110.94 122.54 110.00 118.78 115.15   C 115.57 119.54 117.90 127.26 112.41 130.06   Q 110.90 130.83 107.40 130.82   Q 95.58 130.80 84.13 130.79   Q 72.69 130.78 60.87 130.78   Q 57.37 130.78 55.86 130.01   C 50.37 127.20 52.72 119.49 49.51 115.09   C 45.76 109.93 40.08 110.86 34.60 110.92   A 0.53 0.53 0.0 0 1 34.07 110.33   Q 34.29 108.50 34.91 107.23   Q 35.83 105.34 41.18 95.43   Q 43.61 90.93 47.76 88.72   Q 50.24 87.39 56.63 87.33   Q 61.20 87.29 84.17 87.31   Z" fill="#ffffff"/>
<path class="icon-shape" d="   M 27.23 107.88   A 1.17 1.17 0.0 0 1 28.17 109.25   L 28.02 110.07   A 5.49 2.40 -79.6 0 1 24.67 115.04   L 24.34 114.98   A 5.49 2.40 -79.6 0 1 22.97 109.14   L 23.12 108.32   A 1.17 1.17 0.0 0 1 24.48 107.38   L 27.23 107.88   Z" fill="#ffffff"/>
<path class="icon-shape" d="   M 144.70 107.35   A 1.29 1.29 0.0 0 1 146.22 108.37   L 146.26 108.59   A 6.20 2.77 79.0 0 1 144.72 115.21   L 144.41 115.27   A 6.20 2.77 79.0 0 1 140.51 109.71   L 140.46 109.49   A 1.29 1.29 0.0 0 1 141.48 107.97   L 144.70 107.35   Z" fill="#ffffff"/>
<path class="icon-shape" d="   M 46.82 126.26   Q 41.83 126.37 33.75 126.23   C 30.48 126.18 28.63 124.92 28.51 121.73   Q 28.37 118.01 32.26 116.35   A 2.48 2.38 32.2 0 1 33.23 116.15   Q 41.08 116.05 42.62 116.33   Q 45.56 116.85 46.16 119.58   Q 46.92 123.00 47.33 125.64   A 0.53 0.53 0.0 0 1 46.82 126.26   Z" fill="#ffffff"/>
<path class="icon-shape" d="   M 121.57 126.15   A 0.53 0.53 0.0 0 1 121.08 125.52   Q 121.53 122.90 122.35 119.50   Q 122.99 116.79 125.93 116.32   Q 127.47 116.07 135.30 116.31   A 2.47 2.37 -31.2 0 1 136.26 116.52   Q 140.11 118.25 139.90 121.95   C 139.73 125.13 137.86 126.35 134.60 126.35   Q 126.55 126.35 121.57 126.15   Z" fill="#ffffff"/>
<path class="icon-shape" d="   M 84.08 135.69   Q 104.40 135.71 109.00 135.67   C 113.38 135.64 116.25 134.37 118.56 131.15   A 0.88 0.88 0.0 0 1 119.35 130.78   C 120.31 130.84 121.32 131.47 122.33 131.48   Q 128.40 131.55 136.01 131.49   C 137.25 131.48 138.08 130.89 139.15 130.69   A 0.51 0.50 84.8 0 1 139.74 131.19   L 139.74 148.67   A 2.50 2.39 57.0 0 1 139.57 149.57   Q 137.61 154.61 133.25 154.60   Q 104.33 154.57 84.07 154.55   Q 63.81 154.54 34.88 154.53   Q 30.53 154.54 28.58 149.49   A 2.50 2.39 -56.9 0 1 28.41 148.59   L 28.43 131.11   A 0.51 0.50 -84.7 0 1 29.02 130.61   C 30.09 130.82 30.92 131.41 32.16 131.42   Q 39.77 131.49 45.84 131.43   C 46.85 131.42 47.86 130.79 48.82 130.73   A 0.88 0.88 0.0 0 1 49.61 131.10   C 51.92 134.33 54.78 135.60 59.16 135.64   Q 63.76 135.68 84.08 135.69   Z" fill="#ffffff"/>
<path class="icon-shape" d="   M 139.31 157.80   A 0.30 0.30 0.0 0 1 139.76 158.06   L 139.76 165.60   A 0.78 0.76 -31.7 0 1 139.67 165.96   Q 138.25 168.45 136.45 168.53   Q 133.31 168.67 126.70 168.61   C 121.86 168.57 122.18 164.49 122.30 160.12   A 0.66 0.65 1.3 0 1 122.98 159.48   Q 126.07 159.62 134.15 159.48   C 136.29 159.44 137.29 158.92 139.31 157.80   Z" fill="#ffffff"/>
<path class="icon-shape" d="   M 29.16 158.31   L 31.23 159.25   A 2.76 2.67 -31.9 0 0 32.35 159.49   L 45.32 159.49   A 0.59 0.59 0.0 0 1 45.90 159.97   Q 47.17 166.42 41.75 168.41   A 3.04 2.97 -54.6 0 1 40.70 168.60   L 32.17 168.62   A 2.44 2.37 55.3 0 1 31.26 168.44   C 27.60 166.94 28.51 161.69 28.51 158.72   A 0.46 0.45 12.5 0 1 29.16 158.31   Z" fill="#ffffff"/>
</g><g id="onState" style="display:none"><g fill="none" stroke-linecap="butt" stroke-width="2.00">
<path class="icon-shape" d="   M 23.52 127.30   Q 23.63 144.17 23.54 161.24   Q 23.51 166.39 24.30 168.16   C 26.33 172.71 30.29 173.94 35.40 173.89   Q 40.92 173.85 41.66 173.72   Q 48.68 172.52 50.65 165.56   A 0.61 0.51 -40.3 0 0 50.68 165.38   L 50.68 160.21   A 0.55 0.54 90.0 0 1 51.22 159.66   L 116.65 159.66   A 0.54 0.54 0.0 0 1 117.19 160.23   Q 116.92 165.11 117.35 166.71   C 118.76 172.10 123.66 173.98 129.17 173.90   Q 135.44 173.81 135.49 173.80   Q 141.29 173.19 143.49 169.49   Q 145.06 166.85 145.04 160.26   Q 144.94 127.11 144.92 120.82   A 0.68 0.68 0.0 0 1 145.48 120.15   C 149.82 119.45 151.32 116.27 151.37 111.96   C 151.42 107.99 151.34 104.17 147.74 103.26   Q 142.98 102.05 137.36 103.99   A 0.56 0.55 -16.9 0 1 136.64 103.61   Q 136.37 102.54 132.93 95.82   Q 129.72 89.56 124.67 85.85   A 0.65 0.64 -56.7 0 1 124.50 85.01   Q 129.78 76.08 134.40 67.64   Q 135.68 65.31 135.84 63.20   A 2.19 2.16 -54.9 0 0 135.68 62.24   Q 134.72 59.94 131.46 59.52   Q 116.16 57.58 110.45 57.13" stroke="#808080" vector-effect="non-scaling-stroke"/>
<path class="icon-shape" d="   M 110.45 57.13   Q 105.65 50.02 102.31 46.44   Q 86.15 29.16 62.65 28.15   C 32.37 26.86 5.82 50.34 4.09 80.90   Q 2.54 108.30 23.52 127.30" stroke="#fef6f6" vector-effect="non-scaling-stroke"/>
<path class="icon-shape" d="   M 110.45 57.13   C 105.78 57.07 100.70 56.38 96.51 56.39   C 81.33 56.42 70.95 55.89 58.31 57.01   Q 45.74 58.13 41.93 58.71   Q 37.37 59.40 35.84 59.74   A 3.42 3.30 -64.4 0 0 34.98 60.06   C 30.68 62.47 33.91 67.61 35.77 70.98   Q 40.78 80.09 43.52 84.91   A 0.69 0.68 55.9 0 1 43.36 85.78   Q 39.29 89.01 37.98 91.03   Q 36.55 93.25 31.43 103.18   A 0.67 0.67 0.0 0 1 30.68 103.52   Q 25.59 102.34 21.71 103.23   Q 19.84 103.66 18.44 106.30   A 2.18 2.14 59.6 0 0 18.18 107.33   L 18.18 114.72   A 3.03 2.85 35.5 0 0 18.40 115.83   Q 19.69 119.06 23.07 120.10   A 0.79 0.78 -81.3 0 1 23.63 120.87   L 23.52 127.30" stroke="#7f7777" vector-effect="non-scaling-stroke"/>
<path class="icon-shape" d="   M 84.11 82.28   Q 111.18 82.29 113.18 82.33   C 115.43 82.36 117.28 82.71 119.08 83.07   A 0.86 0.85 20.9 0 0 120.00 82.66   L 130.18 65.03   A 0.24 0.24 0.0 0 0 130.01 64.67   Q 120.49 63.21 111.58 62.43   C 102.49 61.64 93.54 61.69 84.12 61.69   C 74.70 61.68 65.75 61.61 56.66 62.40   Q 47.75 63.17 38.23 64.61   A 0.24 0.24 0.0 0 0 38.06 64.97   L 48.22 82.62   A 0.86 0.85 -20.9 0 0 49.14 83.03   C 50.94 82.67 52.79 82.32 55.04 82.29   Q 57.04 82.26 84.11 82.28" stroke="#808080" vector-effect="non-scaling-stroke"/>
<path class="icon-shape" d="   M 93.64 130.81   L 110.13 130.80   A 2.21 1.98 34.1 0 0 110.71 130.72   C 115.79 129.21 116.08 125.48 116.88 120.74   C 117.77 115.44 119.89 112.17 125.15 110.99   A 2.04 1.67 32.2 0 1 125.63 110.93   L 133.60 110.93   A 0.51 0.51 0.0 0 0 134.11 110.40   Q 134.06 108.56 133.66 107.83   Q 130.12 101.29 127.15 95.84   Q 123.58 89.29 116.79 87.53" stroke="#808080" vector-effect="non-scaling-stroke"/>
<path class="icon-shape" d="   M 116.79 87.53   C 93.78 86.99 72.37 87.30 54.01 87.32   Q 47.63 87.32 43.35 92.37   Q 41.44 94.62 40.99 95.52   Q 37.18 103.25 34.73 107.72   Q 34.44 108.24 34.20 110.33   A 0.55 0.54 -86.7 0 0 34.74 110.94   L 42.76 110.94   A 2.86 2.53 -34.5 0 1 43.42 111.02   C 55.06 114.13 48.75 125.98 55.77 129.87   Q 57.49 130.83 62.05 130.86   Q 78.00 130.97 93.64 130.81" stroke="#7f7777" vector-effect="non-scaling-stroke"/>
<path class="icon-shape" d="   M 116.79 87.53   Q 115.55 108.82 101.91 122.91   Q 100.15 124.72 93.64 130.81" stroke="#fef6f6" vector-effect="non-scaling-stroke"/>
<path class="icon-shape" d="   M 27.18 107.94   L 24.39 107.45   A 1.18 1.18 0.0 0 0 23.02 108.41   L 22.95 108.82   A 5.80 2.45 -80.1 0 0 24.37 114.96   L 24.66 115.01   A 5.80 2.45 -80.1 0 0 28.07 109.72   L 28.14 109.30   A 1.18 1.18 0.0 0 0 27.18 107.94" stroke="#808080" vector-effect="non-scaling-stroke"/>
<path class="icon-shape" d="   M 144.66 107.41   L 141.52 108.03   A 1.27 1.27 0.0 0 0 140.52 109.51   L 140.56 109.75   A 6.11 2.72 79.0 0 0 144.40 115.23   L 144.69 115.17   A 6.11 2.72 79.0 0 0 146.20 108.65   L 146.15 108.42   A 1.27 1.27 0.0 0 0 144.66 107.41" stroke="#808080" vector-effect="non-scaling-stroke"/>
<path class="icon-shape" d="   M 46.76 126.25   A 0.58 0.57 -6.3 0 0 47.33 125.55   Q 46.82 123.21 46.08 119.28   C 45.29 115.12 37.07 116.23 34.38 116.12   A 5.60 5.60 0.0 0 0 28.56 121.23   L 28.54 121.44   A 4.38 4.37 2.7 0 0 32.88 126.20   L 46.76 126.25" stroke="#808080" vector-effect="non-scaling-stroke"/>
<path class="icon-shape" d="   M 121.66 126.18   L 135.53 126.32   A 4.38 4.37 -1.9 0 0 139.93 121.62   L 139.91 121.41   A 5.60 5.60 0.0 0 0 134.17 116.22   C 131.48 116.30 123.28 115.07 122.43 119.22   Q 121.64 123.14 121.10 125.47   A 0.58 0.57 7.1 0 0 121.66 126.18" stroke="#808080" vector-effect="non-scaling-stroke"/>
<path class="icon-shape" d="   M 84.12 154.55   Q 130.04 154.56 133.49 154.53   Q 137.53 154.50 139.55 149.66   A 2.18 2.11 57.3 0 0 139.72 148.82   L 139.72 130.99   A 0.38 0.37 -10.3 0 0 139.21 130.64   L 136.98 131.48   A 1.15 1.11 -54.2 0 1 136.59 131.55   Q 127.77 131.57 122.28 131.55   C 121.16 131.54 120.50 130.78 119.46 130.77   A 1.05 1.03 18.3 0 0 118.63 131.18   Q 116.17 134.38 112.68 135.40   A 5.24 5.21 -55.2 0 1 111.58 135.60   Q 110.69 135.66 84.12 135.66   Q 57.55 135.65 56.66 135.59   A 5.24 5.21 55.2 0 1 55.56 135.39   Q 52.07 134.37 49.61 131.17   A 1.05 1.03 -18.3 0 0 48.78 130.76   C 47.74 130.77 47.08 131.53 45.96 131.54   Q 40.47 131.55 31.65 131.53   A 1.15 1.11 54.2 0 1 31.26 131.46   L 29.03 130.62   A 0.38 0.37 10.3 0 0 28.52 130.97   L 28.51 148.80   A 2.18 2.11 -57.3 0 0 28.68 149.64   Q 30.70 154.48 34.74 154.51   Q 38.19 154.54 84.12 154.55" stroke="#808080" vector-effect="non-scaling-stroke"/>
<path class="icon-shape" d="   M 139.72 158.08   A 0.30 0.30 0.0 0 0 139.24 157.84   Q 137.14 159.42 134.51 159.53   Q 130.27 159.71 122.95 159.55   A 0.60 0.59 0.5 0 0 122.34 160.14   L 122.34 165.40   A 1.56 1.55 -65.9 0 0 122.73 166.43   Q 124.52 168.47 125.76 168.50   Q 132.95 168.63 136.72 168.47   Q 137.82 168.43 139.46 166.31   A 1.21 1.21 0.0 0 0 139.72 165.56   L 139.72 158.08" stroke="#808080" vector-effect="non-scaling-stroke"/>
<path class="icon-shape" d="   M 28.63 158.41   L 28.63 165.30   A 1.51 1.44 31.7 0 0 28.82 166.02   Q 30.22 168.54 32.51 168.55   Q 40.05 168.57 40.99 168.52   A 3.26 3.24 -57.6 0 0 42.05 168.28   Q 47.07 166.19 45.93 160.04   A 0.59 0.59 0.0 0 0 45.35 159.56   L 31.73 159.56   A 1.32 1.28 59.1 0 1 31.09 159.39   L 29.01 158.19   A 0.25 0.25 0.0 0 0 28.63 158.41" stroke="#808080" vector-effect="non-scaling-stroke"/>
</g>
<path class="icon-shape" d="   M 229.00 0.00   L 229.00 207.00   L 0.00 207.00   L 0.00 0.00   L 229.00 0.00   Z   M 23.52 127.30   Q 23.63 144.17 23.54 161.24   Q 23.51 166.39 24.30 168.16   C 26.33 172.71 30.29 173.94 35.40 173.89   Q 40.92 173.85 41.66 173.72   Q 48.68 172.52 50.65 165.56   A 0.61 0.51 -40.3 0 0 50.68 165.38   L 50.68 160.21   A 0.55 0.54 90.0 0 1 51.22 159.66   L 116.65 159.66   A 0.54 0.54 0.0 0 1 117.19 160.23   Q 116.92 165.11 117.35 166.71   C 118.76 172.10 123.66 173.98 129.17 173.90   Q 135.44 173.81 135.49 173.80   Q 141.29 173.19 143.49 169.49   Q 145.06 166.85 145.04 160.26   Q 144.94 127.11 144.92 120.82   A 0.68 0.68 0.0 0 1 145.48 120.15   C 149.82 119.45 151.32 116.27 151.37 111.96   C 151.42 107.99 151.34 104.17 147.74 103.26   Q 142.98 102.05 137.36 103.99   A 0.56 0.55 -16.9 0 1 136.64 103.61   Q 136.37 102.54 132.93 95.82   Q 129.72 89.56 124.67 85.85   A 0.65 0.64 -56.7 0 1 124.50 85.01   Q 129.78 76.08 134.40 67.64   Q 135.68 65.31 135.84 63.20   A 2.19 2.16 -54.9 0 0 135.68 62.24   Q 134.72 59.94 131.46 59.52   Q 116.16 57.58 110.45 57.13   Q 105.65 50.02 102.31 46.44   Q 86.15 29.16 62.65 28.15   C 32.37 26.86 5.82 50.34 4.09 80.90   Q 2.54 108.30 23.52 127.30   Z" fill="#ffffff"/>
<path class="icon-shape" d="   M 110.45 57.13   C 105.78 57.07 100.70 56.38 96.51 56.39   C 81.33 56.42 70.95 55.89 58.31 57.01   Q 45.74 58.13 41.93 58.71   Q 37.37 59.40 35.84 59.74   A 3.42 3.30 -64.4 0 0 34.98 60.06   C 30.68 62.47 33.91 67.61 35.77 70.98   Q 40.78 80.09 43.52 84.91   A 0.69 0.68 55.9 0 1 43.36 85.78   Q 39.29 89.01 37.98 91.03   Q 36.55 93.25 31.43 103.18   A 0.67 0.67 0.0 0 1 30.68 103.52   Q 25.59 102.34 21.71 103.23   Q 19.84 103.66 18.44 106.30   A 2.18 2.14 59.6 0 0 18.18 107.33   L 18.18 114.72   A 3.03 2.85 35.5 0 0 18.40 115.83   Q 19.69 119.06 23.07 120.10   A 0.79 0.78 -81.3 0 1 23.63 120.87   L 23.52 127.30   Q 2.54 108.30 4.09 80.90   C 5.82 50.34 32.37 26.86 62.65 28.15   Q 86.15 29.16 102.31 46.44   Q 105.65 50.02 110.45 57.13   Z" fill="#fdedec"/>
<path class="icon-shape" d="   M 110.45 57.13   Q 116.16 57.58 131.46 59.52   Q 134.72 59.94 135.68 62.24   A 2.19 2.16 -54.9 0 1 135.84 63.20   Q 135.68 65.31 134.40 67.64   Q 129.78 76.08 124.50 85.01   A 0.65 0.64 -56.7 0 0 124.67 85.85   Q 129.72 89.56 132.93 95.82   Q 136.37 102.54 136.64 103.61   A 0.56 0.55 -16.9 0 0 137.36 103.99   Q 142.98 102.05 147.74 103.26   C 151.34 104.17 151.42 107.99 151.37 111.96   C 151.32 116.27 149.82 119.45 145.48 120.15   A 0.68 0.68 0.0 0 0 144.92 120.82   Q 144.94 127.11 145.04 160.26   Q 145.06 166.85 143.49 169.49   Q 141.29 173.19 135.49 173.80   Q 135.44 173.81 129.17 173.90   C 123.66 173.98 118.76 172.10 117.35 166.71   Q 116.92 165.11 117.19 160.23   A 0.54 0.54 0.0 0 0 116.65 159.66   L 51.22 159.66   A 0.55 0.54 90.0 0 0 50.68 160.21   L 50.68 165.38   A 0.61 0.51 -40.3 0 1 50.65 165.56   Q 48.68 172.52 41.66 173.72   Q 40.92 173.85 35.40 173.89   C 30.29 173.94 26.33 172.71 24.30 168.16   Q 23.51 166.39 23.54 161.24   Q 23.63 144.17 23.52 127.30   L 23.63 120.87   A 0.79 0.78 -81.3 0 0 23.07 120.10   Q 19.69 119.06 18.40 115.83   A 3.03 2.85 35.5 0 1 18.18 114.72   L 18.18 107.33   A 2.18 2.14 59.6 0 1 18.44 106.30   Q 19.84 103.66 21.71 103.23   Q 25.59 102.34 30.68 103.52   A 0.67 0.67 0.0 0 0 31.43 103.18   Q 36.55 93.25 37.98 91.03   Q 39.29 89.01 43.36 85.78   A 0.69 0.68 55.9 0 0 43.52 84.91   Q 40.78 80.09 35.77 70.98   C 33.91 67.61 30.68 62.47 34.98 60.06   A 3.42 3.30 -64.4 0 1 35.84 59.74   Q 37.37 59.40 41.93 58.71   Q 45.74 58.13 58.31 57.01   C 70.95 55.89 81.33 56.42 96.51 56.39   C 100.70 56.38 105.78 57.07 110.45 57.13   Z   M 84.11 82.28   Q 111.18 82.29 113.18 82.33   C 115.43 82.36 117.28 82.71 119.08 83.07   A 0.86 0.85 20.9 0 0 120.00 82.66   L 130.18 65.03   A 0.24 0.24 0.0 0 0 130.01 64.67   Q 120.49 63.21 111.58 62.43   C 102.49 61.64 93.54 61.69 84.12 61.69   C 74.70 61.68 65.75 61.61 56.66 62.40   Q 47.75 63.17 38.23 64.61   A 0.24 0.24 0.0 0 0 38.06 64.97   L 48.22 82.62   A 0.86 0.85 -20.9 0 0 49.14 83.03   C 50.94 82.67 52.79 82.32 55.04 82.29   Q 57.04 82.26 84.11 82.28   Z   M 93.64 130.81   L 110.13 130.80   A 2.21 1.98 34.1 0 0 110.71 130.72   C 115.79 129.21 116.08 125.48 116.88 120.74   C 117.77 115.44 119.89 112.17 125.15 110.99   A 2.04 1.67 32.2 0 1 125.63 110.93   L 133.60 110.93   A 0.51 0.51 0.0 0 0 134.11 110.40   Q 134.06 108.56 133.66 107.83   Q 130.12 101.29 127.15 95.84   Q 123.58 89.29 116.79 87.53   C 93.78 86.99 72.37 87.30 54.01 87.32   Q 47.63 87.32 43.35 92.37   Q 41.44 94.62 40.99 95.52   Q 37.18 103.25 34.73 107.72   Q 34.44 108.24 34.20 110.33   A 0.55 0.54 -86.7 0 0 34.74 110.94   L 42.76 110.94   A 2.86 2.53 -34.5 0 1 43.42 111.02   C 55.06 114.13 48.75 125.98 55.77 129.87   Q 57.49 130.83 62.05 130.86   Q 78.00 130.97 93.64 130.81   Z   M 27.18 107.94   L 24.39 107.45   A 1.18 1.18 0.0 0 0 23.02 108.41   L 22.95 108.82   A 5.80 2.45 -80.1 0 0 24.37 114.96   L 24.66 115.01   A 5.80 2.45 -80.1 0 0 28.07 109.72   L 28.14 109.30   A 1.18 1.18 0.0 0 0 27.18 107.94   Z   M 144.66 107.41   L 141.52 108.03   A 1.27 1.27 0.0 0 0 140.52 109.51   L 140.56 109.75   A 6.11 2.72 79.0 0 0 144.40 115.23   L 144.69 115.17   A 6.11 2.72 79.0 0 0 146.20 108.65   L 146.15 108.42   A 1.27 1.27 0.0 0 0 144.66 107.41   Z   M 46.76 126.25   A 0.58 0.57 -6.3 0 0 47.33 125.55   Q 46.82 123.21 46.08 119.28   C 45.29 115.12 37.07 116.23 34.38 116.12   A 5.60 5.60 0.0 0 0 28.56 121.23   L 28.54 121.44   A 4.38 4.37 2.7 0 0 32.88 126.20   L 46.76 126.25   Z   M 121.66 126.18   L 135.53 126.32   A 4.38 4.37 -1.9 0 0 139.93 121.62   L 139.91 121.41   A 5.60 5.60 0.0 0 0 134.17 116.22   C 131.48 116.30 123.28 115.07 122.43 119.22   Q 121.64 123.14 121.10 125.47   A 0.58 0.57 7.1 0 0 121.66 126.18   Z   M 84.12 154.55   Q 130.04 154.56 133.49 154.53   Q 137.53 154.50 139.55 149.66   A 2.18 2.11 57.3 0 0 139.72 148.82   L 139.72 130.99   A 0.38 0.37 -10.3 0 0 139.21 130.64   L 136.98 131.48   A 1.15 1.11 -54.2 0 1 136.59 131.55   Q 127.77 131.57 122.28 131.55   C 121.16 131.54 120.50 130.78 119.46 130.77   A 1.05 1.03 18.3 0 0 118.63 131.18   Q 116.17 134.38 112.68 135.40   A 5.24 5.21 -55.2 0 1 111.58 135.60   Q 110.69 135.66 84.12 135.66   Q 57.55 135.65 56.66 135.59   A 5.24 5.21 55.2 0 1 55.56 135.39   Q 52.07 134.37 49.61 131.17   A 1.05 1.03 -18.3 0 0 48.78 130.76   C 47.74 130.77 47.08 131.53 45.96 131.54   Q 40.47 131.55 31.65 131.53   A 1.15 1.11 54.2 0 1 31.26 131.46   L 29.03 130.62   A 0.38 0.37 10.3 0 0 28.52 130.97   L 28.51 148.80   A 2.18 2.11 -57.3 0 0 28.68 149.64   Q 30.70 154.48 34.74 154.51   Q 38.19 154.54 84.12 154.55   Z   M 139.72 158.08   A 0.30 0.30 0.0 0 0 139.24 157.84   Q 137.14 159.42 134.51 159.53   Q 130.27 159.71 122.95 159.55   A 0.60 0.59 0.5 0 0 122.34 160.14   L 122.34 165.40   A 1.56 1.55 -65.9 0 0 122.73 166.43   Q 124.52 168.47 125.76 168.50   Q 132.95 168.63 136.72 168.47   Q 137.82 168.43 139.46 166.31   A 1.21 1.21 0.0 0 0 139.72 165.56   L 139.72 158.08   Z   M 28.63 158.41   L 28.63 165.30   A 1.51 1.44 31.7 0 0 28.82 166.02   Q 30.22 168.54 32.51 168.55   Q 40.05 168.57 40.99 168.52   A 3.26 3.24 -57.6 0 0 42.05 168.28   Q 47.07 166.19 45.93 160.04   A 0.59 0.59 0.0 0 0 45.35 159.56   L 31.73 159.56   A 1.32 1.28 59.1 0 1 31.09 159.39   L 29.01 158.19   A 0.25 0.25 0.0 0 0 28.63 158.41   Z" fill="#010101"/>
<path class="icon-shape" d="   M 84.12 61.69   C 93.54 61.69 102.49 61.64 111.58 62.43   Q 120.49 63.21 130.01 64.67   A 0.24 0.24 0.0 0 1 130.18 65.03   L 120.00 82.66   A 0.86 0.85 20.9 0 1 119.08 83.07   C 117.28 82.71 115.43 82.36 113.18 82.33   Q 111.18 82.29 84.11 82.28   Q 57.04 82.26 55.04 82.29   C 52.79 82.32 50.94 82.67 49.14 83.03   A 0.86 0.85 -20.9 0 1 48.22 82.62   L 38.06 64.97   A 0.24 0.24 0.0 0 1 38.23 64.61   Q 47.75 63.17 56.66 62.40   C 65.75 61.61 74.70 61.68 84.12 61.69   Z" fill="#ffffff"/>
<path class="icon-shape" d="   M 116.79 87.53   Q 115.55 108.82 101.91 122.91   Q 100.15 124.72 93.64 130.81   Q 78.00 130.97 62.05 130.86   Q 57.49 130.83 55.77 129.87   C 48.75 125.98 55.06 114.13 43.42 111.02   A 2.86 2.53 -34.5 0 0 42.76 110.94   L 34.74 110.94   A 0.55 0.54 -86.7 0 1 34.20 110.33   Q 34.44 108.24 34.73 107.72   Q 37.18 103.25 40.99 95.52   Q 41.44 94.62 43.35 92.37   Q 47.63 87.32 54.01 87.32   C 72.37 87.30 93.78 86.99 116.79 87.53   Z" fill="#fdedec"/>
<path class="icon-shape" d="   M 93.64 130.81   Q 100.15 124.72 101.91 122.91   Q 115.55 108.82 116.79 87.53   Q 123.58 89.29 127.15 95.84   Q 130.12 101.29 133.66 107.83   Q 134.06 108.56 134.11 110.40   A 0.51 0.51 0.0 0 1 133.60 110.93   L 125.63 110.93   A 2.04 1.67 32.2 0 0 125.15 110.99   C 119.89 112.17 117.77 115.44 116.88 120.74   C 116.08 125.48 115.79 129.21 110.71 130.72   A 2.21 1.98 34.1 0 1 110.13 130.80   L 93.64 130.81   Z" fill="#ffffff"/>
<path class="icon-shape" d="   M 27.18 107.94   A 1.18 1.18 0.0 0 1 28.14 109.30   L 28.07 109.72   A 5.80 2.45 -80.1 0 1 24.66 115.01   L 24.37 114.96   A 5.80 2.45 -80.1 0 1 22.95 108.82   L 23.02 108.41   A 1.18 1.18 0.0 0 1 24.39 107.45   L 27.18 107.94   Z" fill="#ffffff"/>
<path class="icon-shape" d="   M 144.66 107.41   A 1.27 1.27 0.0 0 1 146.15 108.42   L 146.20 108.65   A 6.11 2.72 79.0 0 1 144.69 115.17   L 144.40 115.23   A 6.11 2.72 79.0 0 1 140.56 109.75   L 140.52 109.51   A 1.27 1.27 0.0 0 1 141.52 108.03   L 144.66 107.41   Z" fill="#ffffff"/>
<path class="icon-shape" d="   M 46.76 126.25   L 32.88 126.20   A 4.38 4.37 2.7 0 1 28.54 121.44   L 28.56 121.23   A 5.60 5.60 0.0 0 1 34.38 116.12   C 37.07 116.23 45.29 115.12 46.08 119.28   Q 46.82 123.21 47.33 125.55   A 0.58 0.57 -6.3 0 1 46.76 126.25   Z" fill="#ffffff"/>
<path class="icon-shape" d="   M 121.66 126.18   A 0.58 0.57 7.1 0 1 121.10 125.47   Q 121.64 123.14 122.43 119.22   C 123.28 115.07 131.48 116.30 134.17 116.22   A 5.60 5.60 0.0 0 1 139.91 121.41   L 139.93 121.62   A 4.38 4.37 -1.9 0 1 135.53 126.32   L 121.66 126.18   Z" fill="#ffffff"/>
<path class="icon-shape" d="   M 84.12 135.66   Q 110.69 135.66 111.58 135.60   A 5.24 5.21 -55.2 0 0 112.68 135.40   Q 116.17 134.38 118.63 131.18   A 1.05 1.03 18.3 0 1 119.46 130.77   C 120.50 130.78 121.16 131.54 122.28 131.55   Q 127.77 131.57 136.59 131.55   A 1.15 1.11 -54.2 0 0 136.98 131.48   L 139.21 130.64   A 0.38 0.37 -10.3 0 1 139.72 130.99   L 139.72 148.82   A 2.18 2.11 57.3 0 1 139.55 149.66   Q 137.53 154.50 133.49 154.53   Q 130.04 154.56 84.12 154.55   Q 38.19 154.54 34.74 154.51   Q 30.70 154.48 28.68 149.64   A 2.18 2.11 -57.3 0 1 28.51 148.80   L 28.52 130.97   A 0.38 0.37 10.3 0 1 29.03 130.62   L 31.26 131.46   A 1.15 1.11 54.2 0 0 31.65 131.53   Q 40.47 131.55 45.96 131.54   C 47.08 131.53 47.74 130.77 48.78 130.76   A 1.05 1.03 -18.3 0 1 49.61 131.17   Q 52.07 134.37 55.56 135.39   A 5.24 5.21 55.2 0 0 56.66 135.59   Q 57.55 135.65 84.12 135.66   Z" fill="#ffffff"/>
<path class="icon-shape" d="   M 139.72 158.08   L 139.72 165.56   A 1.21 1.21 0.0 0 1 139.46 166.31   Q 137.82 168.43 136.72 168.47   Q 132.95 168.63 125.76 168.50   Q 124.52 168.47 122.73 166.43   A 1.56 1.55 -65.9 0 1 122.34 165.40   L 122.34 160.14   A 0.60 0.59 0.5 0 1 122.95 159.55   Q 130.27 159.71 134.51 159.53   Q 137.14 159.42 139.24 157.84   A 0.30 0.30 0.0 0 1 139.72 158.08   Z" fill="#ffffff"/>
<path class="icon-shape" d="   M 29.01 158.19   L 31.09 159.39   A 1.32 1.28 59.1 0 0 31.73 159.56   L 45.35 159.56   A 0.59 0.59 0.0 0 1 45.93 160.04   Q 47.07 166.19 42.05 168.28   A 3.26 3.24 -57.6 0 1 40.99 168.52   Q 40.05 168.57 32.51 168.55   Q 30.22 168.54 28.82 166.02   A 1.51 1.44 31.7 0 1 28.63 165.30   L 28.63 158.41   A 0.25 0.25 0.0 0 1 29.01 158.19   Z" fill="#ffffff"/>
</g></svg>