<?xml version="1.0" encoding="UTF-8" standalone="no"?>
<!DOCTYPE svg PUBLIC "-//W3C//DTD SVG 1.1//EN" "http://www.w3.org/Graphics/SVG/1.1/DTD/svg11.dtd">
<svg xmlns="http://www.w3.org/2000/svg" version="1.1" viewBox="0.00 0.00 128.00 136.00">
<path fill="#000000" d="
  M 22.07 63.31
  Q 22.59 61.51 25.35 55.01
  C 28.03 48.68 30.93 42.80 37.32 41.46
  A 0.61 0.61 0.0 0 0 37.79 40.70
  Q 37.14 38.37 37.42 37.00
  Q 39.35 27.51 40.67 23.92
  C 42.12 19.96 45.27 19.14 49.46 19.16
  Q 62.78 19.22 76.03 19.15
  Q 82.26 19.11 84.02 24.97
  Q 85.42 29.60 86.61 35.38
  Q 87.21 38.33 86.27 40.79
  A 0.47 0.46 15.7 0 0 86.63 41.42
  C 92.39 42.41 95.43 46.53 97.65 51.63
  Q 99.83 56.62 102.41 63.56
  A 0.50 0.50 0.0 0 0 103.31 63.63
  Q 104.15 62.18 105.69 60.98
  A 1.50 1.48 -62.0 0 1 106.68 60.67
  C 111.60 60.91 116.41 59.34 118.29 65.50
  A 1.47 1.44 -44.4 0 1 118.27 66.44
  Q 116.91 70.28 113.35 71.41
  A 1.30 1.29 -52.4 0 1 112.90 71.47
  L 108.01 71.39
  A 0.37 0.37 0.0 0 0 107.73 72.01
  Q 109.96 74.42 111.35 78.44
  A 1.80 1.80 0.0 0 1 111.46 79.06
  L 111.46 114.42
  A 1.59 1.58 -34.5 0 1 111.35 115.00
  Q 110.04 118.49 106.56 119.55
  A 2.91 2.90 36.3 0 1 105.70 119.68
  L 97.47 119.68
  A 2.71 2.46 -36.5 0 1 96.96 119.63
  Q 91.04 118.41 91.58 111.14
  A 0.77 0.77 0.0 0 0 90.81 110.31
  L 33.10 110.31
  A 0.68 0.68 0.0 0 0 32.44 111.14
  Q 33.90 117.95 27.67 119.58
  A 3.00 2.81 35.6 0 1 26.91 119.68
  L 18.03 119.67
  A 0.65 0.34 35.5 0 1 17.88 119.65
  C 13.83 118.75 12.61 115.97 12.61 111.84
  Q 12.62 95.57 12.64 80.19
  A 3.90 3.66 55.7 0 1 12.82 79.03
  Q 14.17 74.86 16.58 72.10
  A 0.40 0.39 -69.1 0 0 16.29 71.44
  L 11.28 71.44
  A 1.46 1.40 53.4 0 1 10.81 71.36
  C 5.36 69.42 4.79 62.28 10.81 60.74
  A 1.90 1.89 37.0 0 1 11.32 60.67
  L 18.01 60.67
  A 0.92 0.92 0.0 0 1 18.66 60.94
  L 21.21 63.53
  A 0.52 0.51 -59.0 0 0 22.07 63.31
  Z
  M 41.33 37.20
  A 2.92 2.92 0.0 0 0 44.17 40.78
  L 80.23 40.78
  A 2.92 2.92 0.0 0 0 83.07 37.19
  L 80.29 25.29
  A 2.92 2.92 0.0 0 0 77.44 23.04
  L 46.92 23.04
  A 2.92 2.92 0.0 0 0 44.08 25.30
  L 41.33 37.20
  Z
  M 62.21 66.16
  Q 97.71 66.16 99.05 66.23
  A 0.34 0.33 -9.0 0 0 99.38 65.78
  Q 96.75 58.73 93.57 51.61
  C 92.28 48.74 89.15 45.24 85.77 45.14
  Q 85.44 45.13 62.21 45.13
  Q 38.98 45.13 38.64 45.14
  C 35.27 45.24 32.14 48.74 30.85 51.61
  Q 27.67 58.73 25.04 65.78
  A 0.34 0.33 9.0 0 0 25.37 66.23
  Q 26.70 66.16 62.21 66.16
  Z
  M 114.22 67.31
  L 114.11 64.79
  A 0.29 0.29 0.0 0 0 113.80 64.52
  L 109.23 64.73
  A 3.91 0.40 -2.7 0 0 105.34 65.32
  L 105.45 67.62
  A 3.91 0.40 -2.7 0 0 109.37 67.83
  L 113.95 67.62
  A 0.29 0.29 0.0 0 0 114.22 67.31
  Z
  M 18.9382 66.0568
  A 1.21 1.21 0.0 0 0 17.7646 64.8115
  L 11.6473 64.6299
  A 1.21 1.21 0.0 0 0 10.4020 65.8035
  L 10.3818 66.4832
  A 1.21 1.21 0.0 0 0 11.5554 67.7285
  L 17.6727 67.9101
  A 1.21 1.21 0.0 0 0 18.9180 66.7365
  L 18.9382 66.0568
  Z
  M 106.97 76.82
  L 102.55 71.56
  A 4.38 4.37 -20.0 0 0 99.20 70.00
  L 24.42 70.00
  A 3.57 3.55 -71.9 0 0 21.54 71.47
  L 17.25 77.34
  A 1.13 1.13 0.0 0 0 18.09 79.13
  Q 26.21 79.66 32.31 81.18
  C 36.14 82.14 38.99 86.74 37.02 90.68
  Q 35.47 93.77 31.59 94.65
  A 8.15 7.98 -49.3 0 1 29.37 94.84
  L 17.35 94.16
  A 0.61 0.60 1.4 0 0 16.71 94.76
  L 16.71 114.08
  A 1.70 1.69 90.0 0 0 18.40 115.78
  L 26.78 115.78
  A 1.95 1.95 0.0 0 0 28.73 113.83
  L 28.73 108.76
  A 2.41 2.40 -90.0 0 1 31.13 106.35
  L 92.61 106.35
  A 2.94 2.94 0.0 0 1 95.55 109.29
  L 95.55 113.72
  A 2.05 2.05 0.0 0 0 97.60 115.77
  L 105.57 115.77
  A 2.36 2.36 0.0 0 0 107.93 113.41
  L 107.93 94.57
  A 0.61 0.60 88.2 0 0 107.29 93.96
  L 94.31 94.79
  A 2.60 2.59 50.3 0 1 93.56 94.72
  Q 86.25 92.97 87.04 86.16
  A 3.21 3.18 61.5 0 1 87.36 85.06
  Q 89.36 80.89 95.24 80.29
  Q 96.49 80.16 106.09 79.05
  A 1.36 1.36 0.0 0 0 106.97 76.82
  Z
  M 16.75 83.28
  L 16.20 89.70
  A 0.30 0.30 0.0 0 0 16.47 90.02
  L 23.26 90.60
  A 10.04 2.50 4.9 0 0 33.48 88.97
  L 33.66 86.94
  A 10.04 2.50 4.9 0 0 23.87 83.59
  L 17.07 83.01
  A 0.30 0.30 0.0 0 0 16.75 83.28
  Z
  M 108.21 89.61
  L 107.71 83.27
  A 0.30 0.30 0.0 0 0 107.39 82.99
  L 97.99 83.73
  A 7.63 2.77 -4.5 0 0 90.60 87.09
  L 90.71 88.51
  A 7.63 2.77 -4.5 0 0 98.54 90.67
  L 107.94 89.93
  A 0.30 0.30 0.0 0 0 108.21 89.61
  Z"
/>
<rect fill="#000000" x="45.47" y="83.75" width="34.38" height="4.10" rx="2.00"/>
</svg>
