<?xml version="1.0" encoding="UTF-8" standalone="no"?>
<!DOCTYPE svg PUBLIC "-//W3C//DTD SVG 1.1//EN" "http://www.w3.org/Graphics/SVG/1.1/DTD/svg11.dtd">
<svg xmlns="http://www.w3.org/2000/svg" version="1.1" viewBox="0.00 0.00 130.00 136.00">
<path fill="#000000" d="
  M 116.70 58.55
  L 84.62 58.55
  A 5.35 5.35 0.0 0 1 79.98 50.53
  L 96.03 22.74
  A 5.35 5.35 0.0 0 1 105.29 22.74
  L 121.34 50.53
  A 5.35 5.35 0.0 0 1 116.70 58.55
  Z
  M 116.63 54.98
  A 1.73 1.73 0.0 0 0 118.11 52.38
  L 102.05 24.80
  A 1.73 1.73 0.0 0 0 99.06 24.80
  L 82.84 52.70
  A 1.73 1.73 0.0 0 0 84.36 55.30
  L 116.63 54.98
  Z"
/>
<path fill="#000000" d="
  M 12.65 35.04
  L 12.65 34.89
  A 1.79 1.78 -0.3 0 1 14.42 33.11
  Q 27.06 33.03 34.76 33.16
  C 36.22 33.19 39.30 35.08 40.69 36.50
  Q 44.48 40.40 47.15 43.05
  A 5.03 5.02 67.4 0 0 50.69 44.51
  L 63.99 44.51
  A 1.88 1.88 0.0 0 1 65.87 46.32
  L 65.88 46.62
  A 1.65 1.64 -1.4 0 1 64.19 48.39
  Q 60.60 48.30 51.49 48.40
  Q 46.91 48.45 43.84 45.19
  C 40.05 41.16 37.23 36.85 31.70 36.84
  Q 26.53 36.83 14.48 36.86
  A 1.82 1.82 0.0 0 1 12.65 35.04
  Z"
/>
<rect fill="#000000" x="-1.84" y="-5.86" transform="translate(100.15,39.60) rotate(0.2)" width="3.68" height="11.72" rx="1.77"/>
<ellipse fill="#000000" cx="0.00" cy="0.00" transform="translate(100.23,49.49) rotate(-91.5)" rx="2.27" ry="2.06"/>
<path fill="#000000" d="
  M 41.82 67.20
  A 0.75 0.74 -8.8 0 0 41.00 66.61
  Q 27.95 68.11 14.35 67.56
  A 1.69 1.68 -84.4 0 1 12.75 65.61
  L 12.76 65.50
  A 2.11 2.09 -84.1 0 1 14.92 63.73
  Q 28.10 64.25 40.50 62.84
  A 1.40 1.38 1.6 0 0 41.71 61.71
  C 42.52 57.12 45.38 53.70 50.27 53.46
  C 55.33 53.22 59.30 53.67 61.46 58.64
  Q 63.90 64.26 61.15 70.55
  C 59.35 74.66 56.40 75.06 51.82 75.04
  Q 48.54 75.03 46.84 74.04
  Q 42.69 71.63 41.82 67.20
  Z
  M 50.7843 56.9174
  A 7.43 6.91 -100.2 0 0 45.2992 65.4537
  A 7.43 6.91 -100.2 0 0 53.4157 71.5426
  A 7.43 6.91 -100.2 0 0 58.9008 63.0063
  A 7.43 6.91 -100.2 0 0 50.7843 56.9174
  Z"
/>
<path fill="#000000" d="
  M 77.08 94.58
  Q 77.08 94.71 77.08 94.75
  C 76.47 102.14 82.17 108.92 88.10 112.92
  Q 91.22 115.02 92.35 115.80
  A 1.59 1.59 0.0 0 1 92.63 118.18
  L 92.54 118.28
  A 2.12 2.12 0.0 0 1 89.86 118.66
  C 80.49 112.89 73.13 105.73 73.12 94.58
  C 73.12 83.43 80.47 76.26 89.83 70.48
  A 2.12 2.12 0.0 0 1 92.51 70.86
  L 92.60 70.96
  A 1.59 1.59 0.0 0 1 92.32 73.34
  Q 91.19 74.12 88.07 76.22
  C 82.15 80.23 76.46 87.02 77.08 94.40
  Q 77.08 94.45 77.08 94.58
  Z"
/>
<path fill="#000000" d="
  M 90.00 83.53
  C 90.78 85.13 89.07 87.09 87.38 90.36
  Q 84.09 96.71 89.40 102.49
  A 1.95 1.95 0.0 0 1 89.39 105.13
  L 89.31 105.20
  A 1.70 1.69 44.4 0 1 86.84 105.22
  C 80.04 98.07 81.63 90.01 87.51 83.07
  A 1.57 1.45 53.1 0 1 90.00 83.53
  Z"
/>
<path fill="#000000" d="
  M 120.38 102.03
  A 4.44 4.44 0.0 0 1 115.93 106.47
  L 101.27 106.44
  A 7.90 7.20 -89.9 0 1 94.08 98.53
  L 94.10 91.45
  A 7.90 7.20 -89.9 0 1 101.31 83.56
  L 115.97 83.59
  A 4.44 4.44 0.0 0 1 120.40 88.03
  L 120.38 102.03
  Z
  M 116.46 101.69
  L 116.48 88.27
  A 1.04 1.04 0.0 0 0 115.44 87.22
  L 102.14 87.20
  A 4.49 4.30 -89.9 0 0 97.84 91.68
  L 97.82 98.20
  A 4.49 4.30 -89.9 0 0 102.12 102.70
  L 115.42 102.72
  A 1.04 1.04 0.0 0 0 116.46 101.69
  Z"
/>
<path fill="#000000" d="
  M 67.99 101.66
  A 0.83 0.83 0.0 0 1 67.18 102.51
  L 66.45 102.53
  A 5.13 2.42 88.5 0 1 63.90 97.46
  L 63.74 91.52
  A 5.13 2.42 88.5 0 1 66.03 86.33
  L 66.76 86.31
  A 0.83 0.83 0.0 0 1 67.61 87.12
  L 67.99 101.66
  Z"
/>
</svg>
