<?xml version="1.0" encoding="UTF-8" standalone="no"?>
<!DOCTYPE svg PUBLIC "-//W3C//DTD SVG 1.1//EN" "http://www.w3.org/Graphics/SVG/1.1/DTD/svg11.dtd">
<svg xmlns="http://www.w3.org/2000/svg" version="1.1" viewBox="0.00 0.00 195.00 207.00">
<g stroke-width="2.00" fill="none" stroke-linecap="butt">
<path stroke="#fef6f6" vector-effect="non-scaling-stroke" d="
  M 0.00 112.81
  C 3.59 146.08 32.14 169.42 65.67 164.21
  Q 87.67 160.80 101.12 142.55"
/>
<path stroke="#808080" vector-effect="non-scaling-stroke" d="
  M 101.12 142.55
  Q 111.47 139.91 115.08 130.83
  Q 118.45 122.34 112.42 114.15
  A 0.96 0.96 0.0 0 1 112.49 112.93
  L 122.36 102.35
  A 2.38 2.37 -46.5 0 0 122.28 99.02
  L 122.19 98.93
  A 2.75 2.67 44.5 0 0 118.45 98.91
  L 113.00 104.17"
/>
<path stroke="#fef6f6" vector-effect="non-scaling-stroke" d="
  M 113.00 104.17
  C 111.97 94.99 108.49 82.15 101.79 75.45"
/>
<path stroke="#808080" vector-effect="non-scaling-stroke" d="
  M 101.79 75.45
  Q 101.57 74.89 101.69 74.52
  Q 101.83 74.13 102.44 74.18
  Q 116.90 75.29 128.07 84.53
  A 0.61 0.61 0.0 0 1 128.13 85.41
  L 124.55 89.25
  A 1.01 0.98 -25.9 0 0 124.28 90.00
  Q 124.38 91.50 124.86 92.05
  A 2.65 2.62 48.7 0 0 128.60 92.32
  Q 130.39 90.74 131.83 88.97
  A 0.54 0.53 -47.7 0 1 132.63 88.93
  Q 141.82 98.29 143.42 114.01
  A 0.84 0.83 87.2 0 1 142.59 114.93
  Q 139.51 114.95 138.31 114.91
  C 134.76 114.80 132.53 118.45 136.31 120.47
  A 1.28 1.28 0.0 0 0 136.95 120.62
  L 142.79 120.43
  A 0.50 0.49 -88.5 0 1 143.30 120.97
  Q 142.29 131.57 136.79 140.32
  Q 133.50 145.55 133.36 145.86
  Q 132.75 147.14 133.59 148.01
  A 2.75 2.51 47.3 0 0 137.17 148.32
  Q 138.50 147.19 139.68 145.43
  C 149.93 130.16 151.64 110.06 142.61 93.94
  C 133.17 77.12 115.54 68.05 96.15 68.99"
/>
<path stroke="#fef6f6" vector-effect="non-scaling-stroke" d="
  M 96.15 68.99
  L 89.23 61.71"
/>
<path stroke="#808080" vector-effect="non-scaling-stroke" d="
  M 89.23 61.71
  Q 101.60 59.66 111.99 62.02
  C 131.06 66.36 147.26 79.91 153.59 98.77
  C 160.64 119.76 155.14 141.27 140.15 157.44
  A 2.22 2.22 0.0 0 0 140.47 160.74
  L 140.55 160.80
  A 2.83 2.83 0.0 0 0 144.29 160.44
  C 170.53 132.23 166.91 88.85 135.18 66.62
  C 119.62 55.71 99.65 53.07 81.39 58.25"
/>
<path stroke="#fef6f6" vector-effect="non-scaling-stroke" d="
  M 81.39 58.25
  Q 78.26 56.07 74.55 54.93
  C 38.35 43.86 4.04 66.90 0.00 104.29"
/>
<path stroke="#7f7777" vector-effect="non-scaling-stroke" d="
  M 81.39 58.25
  C 58.31 65.74 41.95 84.21 38.28 108.02
  C 35.37 126.93 41.92 146.86 55.51 160.77
  A 2.57 2.56 47.0 0 0 59.04 160.90
  L 59.13 160.82
  A 2.38 2.38 0.0 0 0 59.27 157.39
  C 36.29 133.20 37.07 95.35 63.24 73.73
  Q 74.61 64.34 89.23 61.71"
/>
<path stroke="#7f7777" vector-effect="non-scaling-stroke" d="
  M 96.15 68.99
  Q 72.57 71.50 59.70 89.40
  C 47.37 106.56 48.05 129.81 60.72 146.50
  C 61.49 147.52 62.32 148.74 63.62 148.84
  A 3.54 2.98 -73.4 0 0 66.70 146.81
  Q 67.15 145.89 67.82 143.80
  A 2.80 2.53 58.8 0 0 67.96 143.07
  Q 68.04 141.59 66.25 139.80
  A 0.58 0.58 0.0 0 0 65.26 140.21
  L 65.26 142.05
  A 0.70 0.70 0.0 0 1 63.99 142.45
  Q 57.23 132.72 55.98 120.80
  A 0.40 0.40 0.0 0 1 56.42 120.36
  C 59.03 120.64 62.85 121.19 64.39 118.48
  A 1.19 1.17 49.4 0 0 64.46 117.48
  C 62.99 113.74 59.55 115.24 56.55 114.95
  A 0.65 0.65 0.0 0 1 55.96 114.25
  Q 57.10 99.72 66.37 89.30
  A 0.67 0.67 0.0 0 1 67.32 89.25
  L 70.49 92.21
  A 2.42 2.42 0.0 0 0 73.91 92.09
  L 74.20 91.78
  A 2.24 2.24 0.0 0 0 74.09 88.61
  L 71.20 85.91
  A 0.65 0.65 0.0 0 1 71.22 84.95
  Q 82.02 75.66 95.94 74.25
  A 0.64 0.64 0.0 0 1 96.64 74.91
  Q 96.47 78.28 96.58 80.26
  A 2.58 2.42 80.5 0 0 99.70 82.64
  Q 100.63 82.37 101.56 80.89
  A 1.48 1.44 61.9 0 0 101.77 80.17
  L 101.79 75.45"
/>
<path stroke="#7f7777" vector-effect="non-scaling-stroke" d="
  M 113.00 104.17
  L 108.26 109.25"
/>
<path stroke="#fef6f6" vector-effect="non-scaling-stroke" d="
  M 108.26 109.25
  L 106.75 108.46"
/>
<path stroke="#7f7777" vector-effect="non-scaling-stroke" d="
  M 106.75 108.46
  Q 107.56 107.60 107.87 106.81
  A 0.95 0.95 0.0 0 0 107.41 105.60
  C 96.81 100.38 83.39 110.23 86.32 122.04
  Q 88.27 129.88 96.49 127.62
  A 2.89 2.57 -65.1 0 0 97.18 127.32
  Q 101.58 124.68 102.45 123.68
  Q 105.92 119.70 108.05 117.53
  A 0.69 0.68 54.3 0 1 109.16 117.72
  C 113.03 125.72 109.75 134.01 101.25 136.68
  Q 93.59 139.09 87.34 132.64
  A 1.94 1.91 68.1 0 0 85.98 132.05
  Q 83.97 132.02 82.32 134.32
  A 0.96 0.96 0.0 0 0 82.32 135.44
  C 86.40 141.21 94.06 143.21 101.12 142.55"
/>
<path stroke="#808080" vector-effect="non-scaling-stroke" d="
  M 106.75 108.46
  Q 105.90 109.52 104.74 110.18
  A 1.52 1.50 33.9 0 1 103.75 110.37
  Q 94.65 109.07 91.63 117.27
  Q 90.73 119.68 92.45 122.00
  A 0.42 0.41 54.4 0 0 93.01 122.10
  L 97.86 118.99
  A 5.16 4.92 5.8 0 0 98.62 118.40
  L 108.26 109.25"
/>
</g>
<path fill="#ffffff" d="
  M 195.00 0.00
  L 195.00 207.00
  L 0.00 207.00
  L 0.00 112.81
  C 3.59 146.08 32.14 169.42 65.67 164.21
  Q 87.67 160.80 101.12 142.55
  Q 111.47 139.91 115.08 130.83
  Q 118.45 122.34 112.42 114.15
  A 0.96 0.96 0.0 0 1 112.49 112.93
  L 122.36 102.35
  A 2.38 2.37 -46.5 0 0 122.28 99.02
  L 122.19 98.93
  A 2.75 2.67 44.5 0 0 118.45 98.91
  L 113.00 104.17
  C 111.97 94.99 108.49 82.15 101.79 75.45
  Q 101.57 74.89 101.69 74.52
  Q 101.83 74.13 102.44 74.18
  Q 116.90 75.29 128.07 84.53
  A 0.61 0.61 0.0 0 1 128.13 85.41
  L 124.55 89.25
  A 1.01 0.98 -25.9 0 0 124.28 90.00
  Q 124.38 91.50 124.86 92.05
  A 2.65 2.62 48.7 0 0 128.60 92.32
  Q 130.39 90.74 131.83 88.97
  A 0.54 0.53 -47.7 0 1 132.63 88.93
  Q 141.82 98.29 143.42 114.01
  A 0.84 0.83 87.2 0 1 142.59 114.93
  Q 139.51 114.95 138.31 114.91
  C 134.76 114.80 132.53 118.45 136.31 120.47
  A 1.28 1.28 0.0 0 0 136.95 120.62
  L 142.79 120.43
  A 0.50 0.49 -88.5 0 1 143.30 120.97
  Q 142.29 131.57 136.79 140.32
  Q 133.50 145.55 133.36 145.86
  Q 132.75 147.14 133.59 148.01
  A 2.75 2.51 47.3 0 0 137.17 148.32
  Q 138.50 147.19 139.68 145.43
  C 149.93 130.16 151.64 110.06 142.61 93.94
  C 133.17 77.12 115.54 68.05 96.15 68.99
  L 89.23 61.71
  Q 101.60 59.66 111.99 62.02
  C 131.06 66.36 147.26 79.91 153.59 98.77
  C 160.64 119.76 155.14 141.27 140.15 157.44
  A 2.22 2.22 0.0 0 0 140.47 160.74
  L 140.55 160.80
  A 2.83 2.83 0.0 0 0 144.29 160.44
  C 170.53 132.23 166.91 88.85 135.18 66.62
  C 119.62 55.71 99.65 53.07 81.39 58.25
  Q 78.26 56.07 74.55 54.93
  C 38.35 43.86 4.04 66.90 0.00 104.29
  L 0.00 0.00
  L 195.00 0.00
  Z"
/>
<path fill="#fdedec" d="
  M 81.39 58.25
  C 58.31 65.74 41.95 84.21 38.28 108.02
  C 35.37 126.93 41.92 146.86 55.51 160.77
  A 2.57 2.56 47.0 0 0 59.04 160.90
  L 59.13 160.82
  A 2.38 2.38 0.0 0 0 59.27 157.39
  C 36.29 133.20 37.07 95.35 63.24 73.73
  Q 74.61 64.34 89.23 61.71
  L 96.15 68.99
  Q 72.57 71.50 59.70 89.40
  C 47.37 106.56 48.05 129.81 60.72 146.50
  C 61.49 147.52 62.32 148.74 63.62 148.84
  A 3.54 2.98 -73.4 0 0 66.70 146.81
  Q 67.15 145.89 67.82 143.80
  A 2.80 2.53 58.8 0 0 67.96 143.07
  Q 68.04 141.59 66.25 139.80
  A 0.58 0.58 0.0 0 0 65.26 140.21
  L 65.26 142.05
  A 0.70 0.70 0.0 0 1 63.99 142.45
  Q 57.23 132.72 55.98 120.80
  A 0.40 0.40 0.0 0 1 56.42 120.36
  C 59.03 120.64 62.85 121.19 64.39 118.48
  A 1.19 1.17 49.4 0 0 64.46 117.48
  C 62.99 113.74 59.55 115.24 56.55 114.95
  A 0.65 0.65 0.0 0 1 55.96 114.25
  Q 57.10 99.72 66.37 89.30
  A 0.67 0.67 0.0 0 1 67.32 89.25
  L 70.49 92.21
  A 2.42 2.42 0.0 0 0 73.91 92.09
  L 74.20 91.78
  A 2.24 2.24 0.0 0 0 74.09 88.61
  L 71.20 85.91
  A 0.65 0.65 0.0 0 1 71.22 84.95
  Q 82.02 75.66 95.94 74.25
  A 0.64 0.64 0.0 0 1 96.64 74.91
  Q 96.47 78.28 96.58 80.26
  A 2.58 2.42 80.5 0 0 99.70 82.64
  Q 100.63 82.37 101.56 80.89
  A 1.48 1.44 61.9 0 0 101.77 80.17
  L 101.79 75.45
  C 108.49 82.15 111.97 94.99 113.00 104.17
  L 108.26 109.25
  L 106.75 108.46
  Q 107.56 107.60 107.87 106.81
  A 0.95 0.95 0.0 0 0 107.41 105.60
  C 96.81 100.38 83.39 110.23 86.32 122.04
  Q 88.27 129.88 96.49 127.62
  A 2.89 2.57 -65.1 0 0 97.18 127.32
  Q 101.58 124.68 102.45 123.68
  Q 105.92 119.70 108.05 117.53
  A 0.69 0.68 54.3 0 1 109.16 117.72
  C 113.03 125.72 109.75 134.01 101.25 136.68
  Q 93.59 139.09 87.34 132.64
  A 1.94 1.91 68.1 0 0 85.98 132.05
  Q 83.97 132.02 82.32 134.32
  A 0.96 0.96 0.0 0 0 82.32 135.44
  C 86.40 141.21 94.06 143.21 101.12 142.55
  Q 87.67 160.80 65.67 164.21
  C 32.14 169.42 3.59 146.08 0.00 112.81
  L 0.00 104.29
  C 4.04 66.90 38.35 43.86 74.55 54.93
  Q 78.26 56.07 81.39 58.25
  Z"
/>
<path fill="#010101" d="
  M 89.23 61.71
  Q 74.61 64.34 63.24 73.73
  C 37.07 95.35 36.29 133.20 59.27 157.39
  A 2.38 2.38 0.0 0 1 59.13 160.82
  L 59.04 160.90
  A 2.57 2.56 47.0 0 1 55.51 160.77
  C 41.92 146.86 35.37 126.93 38.28 108.02
  C 41.95 84.21 58.31 65.74 81.39 58.25
  C 99.65 53.07 119.62 55.71 135.18 66.62
  C 166.91 88.85 170.53 132.23 144.29 160.44
  A 2.83 2.83 0.0 0 1 140.55 160.80
  L 140.47 160.74
  A 2.22 2.22 0.0 0 1 140.15 157.44
  C 155.14 141.27 160.64 119.76 153.59 98.77
  C 147.26 79.91 131.06 66.36 111.99 62.02
  Q 101.60 59.66 89.23 61.71
  Z"
/>
<path fill="#010101" d="
  M 96.15 68.99
  C 115.54 68.05 133.17 77.12 142.61 93.94
  C 151.64 110.06 149.93 130.16 139.68 145.43
  Q 138.50 147.19 137.17 148.32
  A 2.75 2.51 47.3 0 1 133.59 148.01
  Q 132.75 147.14 133.36 145.86
  Q 133.50 145.55 136.79 140.32
  Q 142.29 131.57 143.30 120.97
  A 0.50 0.49 -88.5 0 0 142.79 120.43
  L 136.95 120.62
  A 1.28 1.28 0.0 0 1 136.31 120.47
  C 132.53 118.45 134.76 114.80 138.31 114.91
  Q 139.51 114.95 142.59 114.93
  A 0.84 0.83 87.2 0 0 143.42 114.01
  Q 141.82 98.29 132.63 88.93
  A 0.54 0.53 -47.7 0 0 131.83 88.97
  Q 130.39 90.74 128.60 92.32
  A 2.65 2.62 48.7 0 1 124.86 92.05
  Q 124.38 91.50 124.28 90.00
  A 1.01 0.98 -25.9 0 1 124.55 89.25
  L 128.13 85.41
  A 0.61 0.61 0.0 0 0 128.07 84.53
  Q 116.90 75.29 102.44 74.18
  Q 101.83 74.13 101.69 74.52
  Q 101.57 74.89 101.79 75.45
  L 101.77 80.17
  A 1.48 1.44 61.9 0 1 101.56 80.89
  Q 100.63 82.37 99.70 82.64
  A 2.58 2.42 80.5 0 1 96.58 80.26
  Q 96.47 78.28 96.64 74.91
  A 0.64 0.64 0.0 0 0 95.94 74.25
  Q 82.02 75.66 71.22 84.95
  A 0.65 0.65 0.0 0 0 71.20 85.91
  L 74.09 88.61
  A 2.24 2.24 0.0 0 1 74.20 91.78
  L 73.91 92.09
  A 2.42 2.42 0.0 0 1 70.49 92.21
  L 67.32 89.25
  A 0.67 0.67 0.0 0 0 66.37 89.30
  Q 57.10 99.72 55.96 114.25
  A 0.65 0.65 0.0 0 0 56.55 114.95
  C 59.55 115.24 62.99 113.74 64.46 117.48
  A 1.19 1.17 49.4 0 1 64.39 118.48
  C 62.85 121.19 59.03 120.64 56.42 120.36
  A 0.40 0.40 0.0 0 0 55.98 120.80
  Q 57.23 132.72 63.99 142.45
  A 0.70 0.70 0.0 0 0 65.26 142.05
  L 65.26 140.21
  A 0.58 0.58 0.0 0 1 66.25 139.80
  Q 68.04 141.59 67.96 143.07
  A 2.80 2.53 58.8 0 1 67.82 143.80
  Q 67.15 145.89 66.70 146.81
  A 3.54 2.98 -73.4 0 1 63.62 148.84
  C 62.32 148.74 61.49 147.52 60.72 146.50
  C 48.05 129.81 47.37 106.56 59.70 89.40
  Q 72.57 71.50 96.15 68.99
  Z"
/>
<path fill="#010101" d="
  M 101.12 142.55
  C 94.06 143.21 86.40 141.21 82.32 135.44
  A 0.96 0.96 0.0 0 1 82.32 134.32
  Q 83.97 132.02 85.98 132.05
  A 1.94 1.91 68.1 0 1 87.34 132.64
  Q 93.59 139.09 101.25 136.68
  C 109.75 134.01 113.03 125.72 109.16 117.72
  A 0.69 0.68 54.3 0 0 108.05 117.53
  Q 105.92 119.70 102.45 123.68
  Q 101.58 124.68 97.18 127.32
  A 2.89 2.57 -65.1 0 1 96.49 127.62
  Q 88.27 129.88 86.32 122.04
  C 83.39 110.23 96.81 100.38 107.41 105.60
  A 0.95 0.95 0.0 0 1 107.87 106.81
  Q 107.56 107.60 106.75 108.46
  Q 105.90 109.52 104.74 110.18
  A 1.52 1.50 33.9 0 1 103.75 110.37
  Q 94.65 109.07 91.63 117.27
  Q 90.73 119.68 92.45 122.00
  A 0.42 0.41 54.4 0 0 93.01 122.10
  L 97.86 118.99
  A 5.16 4.92 5.8 0 0 98.62 118.40
  L 108.26 109.25
  L 113.00 104.17
  L 118.45 98.91
  A 2.75 2.67 44.5 0 1 122.19 98.93
  L 122.28 99.02
  A 2.38 2.37 -46.5 0 1 122.36 102.35
  L 112.49 112.93
  A 0.96 0.96 0.0 0 0 112.42 114.15
  Q 118.45 122.34 115.08 130.83
  Q 111.47 139.91 101.12 142.55
  Z"
/>
<path fill="#ffffff" d="
  M 106.75 108.46
  L 108.26 109.25
  L 98.62 118.40
  A 5.16 4.92 5.8 0 1 97.86 118.99
  L 93.01 122.10
  A 0.42 0.41 54.4 0 1 92.45 122.00
  Q 90.73 119.68 91.63 117.27
  Q 94.65 109.07 103.75 110.37
  A 1.52 1.50 33.9 0 0 104.74 110.18
  Q 105.90 109.52 106.75 108.46
  Z"
/>
</svg>
