<?xml version="1.0" encoding="UTF-8" standalone="no"?>
<!DOCTYPE svg PUBLIC "-//W3C//DTD SVG 1.1//EN" "http://www.w3.org/Graphics/SVG/1.1/DTD/svg11.dtd">
<svg xmlns="http://www.w3.org/2000/svg" version="1.1" viewBox="0.00 0.00 195.00 204.00">
<g stroke-width="2.00" fill="none" stroke-linecap="butt">
<path stroke="#d9d8da" vector-effect="non-scaling-stroke" d="
  M 102.09 162.23
  Q 151.44 162.17 153.50 162.14
  Q 156.82 162.08 157.58 161.41
  C 160.76 158.61 159.91 155.68 157.62 151.87
  Q 150.40 139.82 149.09 137.44
  C 146.72 133.13 144.50 130.47 139.72 130.41
  Q 125.58 130.22 115.97 130.39
  A 0.39 0.39 0.0 0 1 115.65 129.78
  Q 124.14 117.95 131.38 105.12
  C 138.21 93.03 143.81 80.13 140.43 65.90
  Q 136.12 47.72 119.81 39.28
  Q 111.35 34.90 101.94 34.91
  Q 92.52 34.92 84.07 39.32
  Q 67.79 47.80 63.52 65.99
  C 60.17 80.23 65.80 93.12 72.66 105.19
  Q 79.93 118.00 88.45 129.81
  A 0.39 0.39 0.0 0 1 88.13 130.42
  Q 78.52 130.28 64.38 130.50
  C 59.60 130.57 57.39 133.24 55.03 137.55
  Q 53.73 139.94 46.53 152.00
  C 44.25 155.82 43.41 158.75 46.60 161.54
  Q 47.36 162.21 50.68 162.26
  Q 52.74 162.29 102.09 162.23"
/>
<path stroke="#d9d8da" vector-effect="non-scaling-stroke" d="
  M 101.91 139.96
  Q 102.01 139.96 102.11 139.94
  Q 102.18 139.92 102.24 139.82
  C 113.93 123.22 121.25 113.21 129.35 98.31
  Q 133.84 90.05 135.27 84.28
  Q 139.75 66.15 127.96 52.03
  C 121.50 44.30 112.04 40.27 102.05 40.25
  C 92.05 40.24 82.58 44.25 76.10 51.96
  Q 64.27 66.05 68.70 84.19
  Q 70.12 89.96 74.58 98.24
  C 82.64 113.16 89.94 123.19 101.58 139.82
  Q 101.64 139.92 101.72 139.94
  Q 101.81 139.96 101.91 139.96"
/>
<path stroke="#d9d8da" vector-effect="non-scaling-stroke" d="
  M 102.09 145.93
  Q 99.96 145.93 98.68 144.32
  Q 97.64 143.01 92.01 135.08
  A 1.05 1.02 -20.0 0 0 91.08 134.66
  C 90.22 134.74 89.33 135.33 88.36 135.34
  Q 78.83 135.43 65.61 135.36
  C 63.70 135.35 62.05 135.19 60.95 136.99
  Q 57.21 143.11 49.32 156.80
  A 0.53 0.52 -75.2 0 0 49.78 157.59
  Q 53.74 157.57 102.10 157.54
  Q 150.45 157.52 154.42 157.53
  A 0.53 0.52 75.2 0 0 154.88 156.74
  Q 146.97 143.06 143.22 136.94
  C 142.12 135.15 140.47 135.31 138.56 135.32
  Q 125.34 135.40 115.81 135.32
  C 114.84 135.32 113.95 134.73 113.09 134.65
  A 1.05 1.02 19.9 0 0 112.16 135.07
  Q 106.54 143.01 105.50 144.32
  Q 104.22 145.93 102.09 145.93"
/>
<path stroke="#d9d8da" vector-effect="non-scaling-stroke" d="
  M 98.9991 54.3565
  A 21.18 20.86 -98.2 0 0 81.3733 78.2952
  A 21.18 20.86 -98.2 0 0 105.0409 96.2835
  A 21.18 20.86 -98.2 0 0 122.6667 72.3448
  A 21.18 20.86 -98.2 0 0 98.9991 54.3565"
/>
<path stroke="#d9d8da" vector-effect="non-scaling-stroke" d="
  M 105.3305 59.6520
  A 15.98 15.81 -78.3 0 0 86.6085 72.0939
  A 15.98 15.81 -78.3 0 0 98.8495 90.9480
  A 15.98 15.81 -78.3 0 0 117.5715 78.5061
  A 15.98 15.81 -78.3 0 0 105.3305 59.6520"
/>
</g>
<path fill="#ffffff" d="
  M 195.00 0.00
  L 195.00 204.00
  L 0.00 204.00
  L 0.00 0.00
  L 195.00 0.00
  Z
  M 102.09 162.23
  Q 151.44 162.17 153.50 162.14
  Q 156.82 162.08 157.58 161.41
  C 160.76 158.61 159.91 155.68 157.62 151.87
  Q 150.40 139.82 149.09 137.44
  C 146.72 133.13 144.50 130.47 139.72 130.41
  Q 125.58 130.22 115.97 130.39
  A 0.39 0.39 0.0 0 1 115.65 129.78
  Q 124.14 117.95 131.38 105.12
  C 138.21 93.03 143.81 80.13 140.43 65.90
  Q 136.12 47.72 119.81 39.28
  Q 111.35 34.90 101.94 34.91
  Q 92.52 34.92 84.07 39.32
  Q 67.79 47.80 63.52 65.99
  C 60.17 80.23 65.80 93.12 72.66 105.19
  Q 79.93 118.00 88.45 129.81
  A 0.39 0.39 0.0 0 1 88.13 130.42
  Q 78.52 130.28 64.38 130.50
  C 59.60 130.57 57.39 133.24 55.03 137.55
  Q 53.73 139.94 46.53 152.00
  C 44.25 155.82 43.41 158.75 46.60 161.54
  Q 47.36 162.21 50.68 162.26
  Q 52.74 162.29 102.09 162.23
  Z"
/>
<path fill="#b2b0b4" d="
  M 101.94 34.91
  Q 111.35 34.90 119.81 39.28
  Q 136.12 47.72 140.43 65.90
  C 143.81 80.13 138.21 93.03 131.38 105.12
  Q 124.14 117.95 115.65 129.78
  A 0.39 0.39 0.0 0 0 115.97 130.39
  Q 125.58 130.22 139.72 130.41
  C 144.50 130.47 146.72 133.13 149.09 137.44
  Q 150.40 139.82 157.62 151.87
  C 159.91 155.68 160.76 158.61 157.58 161.41
  Q 156.82 162.08 153.50 162.14
  Q 151.44 162.17 102.09 162.23
  Q 52.74 162.29 50.68 162.26
  Q 47.36 162.21 46.60 161.54
  C 43.41 158.75 44.25 155.82 46.53 152.00
  Q 53.73 139.94 55.03 137.55
  C 57.39 133.24 59.60 130.57 64.38 130.50
  Q 78.52 130.28 88.13 130.42
  A 0.39 0.39 0.0 0 0 88.45 129.81
  Q 79.93 118.00 72.66 105.19
  C 65.80 93.12 60.17 80.23 63.52 65.99
  Q 67.79 47.80 84.07 39.32
  Q 92.52 34.92 101.94 34.91
  Z
  M 101.91 139.96
  Q 102.01 139.96 102.11 139.94
  Q 102.18 139.92 102.24 139.82
  C 113.93 123.22 121.25 113.21 129.35 98.31
  Q 133.84 90.05 135.27 84.28
  Q 139.75 66.15 127.96 52.03
  C 121.50 44.30 112.04 40.27 102.05 40.25
  C 92.05 40.24 82.58 44.25 76.10 51.96
  Q 64.27 66.05 68.70 84.19
  Q 70.12 89.96 74.58 98.24
  C 82.64 113.16 89.94 123.19 101.58 139.82
  Q 101.64 139.92 101.72 139.94
  Q 101.81 139.96 101.91 139.96
  Z
  M 102.09 145.93
  Q 99.96 145.93 98.68 144.32
  Q 97.64 143.01 92.01 135.08
  A 1.05 1.02 -20.0 0 0 91.08 134.66
  C 90.22 134.74 89.33 135.33 88.36 135.34
  Q 78.83 135.43 65.61 135.36
  C 63.70 135.35 62.05 135.19 60.95 136.99
  Q 57.21 143.11 49.32 156.80
  A 0.53 0.52 -75.2 0 0 49.78 157.59
  Q 53.74 157.57 102.10 157.54
  Q 150.45 157.52 154.42 157.53
  A 0.53 0.52 75.2 0 0 154.88 156.74
  Q 146.97 143.06 143.22 136.94
  C 142.12 135.15 140.47 135.31 138.56 135.32
  Q 125.34 135.40 115.81 135.32
  C 114.84 135.32 113.95 134.73 113.09 134.65
  A 1.05 1.02 19.9 0 0 112.16 135.07
  Q 106.54 143.01 105.50 144.32
  Q 104.22 145.93 102.09 145.93
  Z"
/>
<path fill="#ffffff" d="
  M 102.05 40.25
  C 112.04 40.27 121.50 44.30 127.96 52.03
  Q 139.75 66.15 135.27 84.28
  Q 133.84 90.05 129.35 98.31
  C 121.25 113.21 113.93 123.22 102.24 139.82
  Q 102.18 139.92 102.11 139.94
  Q 102.01 139.96 101.91 139.96
  Q 101.81 139.96 101.72 139.94
  Q 101.64 139.92 101.58 139.82
  C 89.94 123.19 82.64 113.16 74.58 98.24
  Q 70.12 89.96 68.70 84.19
  Q 64.27 66.05 76.10 51.96
  C 82.58 44.25 92.05 40.24 102.05 40.25
  Z
  M 98.9991 54.3565
  A 21.18 20.86 -98.2 0 0 81.3733 78.2952
  A 21.18 20.86 -98.2 0 0 105.0409 96.2835
  A 21.18 20.86 -98.2 0 0 122.6667 72.3448
  A 21.18 20.86 -98.2 0 0 98.9991 54.3565
  Z"
/>
<path fill="#b2b0b4" d="
  M 98.9991 54.3565
  A 21.18 20.86 -98.2 0 1 122.6667 72.3448
  A 21.18 20.86 -98.2 0 1 105.0409 96.2835
  A 21.18 20.86 -98.2 0 1 81.3733 78.2952
  A 21.18 20.86 -98.2 0 1 98.9991 54.3565
  Z
  M 105.3305 59.6520
  A 15.98 15.81 -78.3 0 0 86.6085 72.0939
  A 15.98 15.81 -78.3 0 0 98.8495 90.9480
  A 15.98 15.81 -78.3 0 0 117.5715 78.5061
  A 15.98 15.81 -78.3 0 0 105.3305 59.6520
  Z"
/>
<ellipse fill="#ffffff" cx="0.00" cy="0.00" transform="translate(102.09,75.30) rotate(-78.3)" rx="15.98" ry="15.81"/>
<path fill="#ffffff" d="
  M 102.10 157.54
  Q 53.74 157.57 49.78 157.59
  A 0.53 0.52 -75.2 0 1 49.32 156.80
  Q 57.21 143.11 60.95 136.99
  C 62.05 135.19 63.70 135.35 65.61 135.36
  Q 78.83 135.43 88.36 135.34
  C 89.33 135.33 90.22 134.74 91.08 134.66
  A 1.05 1.02 -20.0 0 1 92.01 135.08
  Q 97.64 143.01 98.68 144.32
  Q 99.96 145.93 102.09 145.93
  Q 104.22 145.93 105.50 144.32
  Q 106.54 143.01 112.16 135.07
  A 1.05 1.02 19.9 0 1 113.09 134.65
  C 113.95 134.73 114.84 135.32 115.81 135.32
  Q 125.34 135.40 138.56 135.32
  C 140.47 135.31 142.12 135.15 143.22 136.94
  Q 146.97 143.06 154.88 156.74
  A 0.53 0.52 75.2 0 1 154.42 157.53
  Q 150.45 157.52 102.10 157.54
  Z"
/>
</svg>
