<svg width="264" height="177" version="1.1" xmlns="http://www.w3.org/2000/svg" desc="Created with imagetracer.js version 1.2.6" ><path fill="rgb(5,5,5)" stroke="rgb(5,5,5)" stroke-width="1" opacity="0.5411764705882353" d="M 91.5 14 L 175.5 14 L 180 16.5 L 178.5 16 L 175.5 15 L 91.5 15 L 91.5 14 Z " /><path fill="rgb(5,5,5)" stroke="rgb(5,5,5)" stroke-width="1" opacity="0.5411764705882353" d="M 88.5 15 L 90 15.5 L 82 21.5 L 80.5 26 L 80 23.5 L 86.5 16 L 88.5 15 Z " /><path fill="rgb(5,5,5)" stroke="rgb(5,5,5)" stroke-width="1" opacity="0.5411764705882353" d="M 181.5 17 L 187 24.5 L 187 125.5 L 186 125.5 L 186 24.5 L 181.5 17 Z " /><path fill="rgb(5,5,5)" stroke="rgb(5,5,5)" stroke-width="1" opacity="0.5411764705882353" d="M 94.5 21 L 172 21.5 L 94.5 22 L 94.5 21 Z " /><path fill="rgb(5,5,5)" stroke="rgb(5,5,5)" stroke-width="1" opacity="0.5411764705882353" d="M 173.5 22 L 176 23.5 L 174.5 23 L 173.5 22 Z " /><path fill="rgb(5,5,5)" stroke="rgb(5,5,5)" stroke-width="1" opacity="0.5411764705882353" d="M 90.5 23 L 89 25.5 L 88 27.5 L 88 148.5 L 90.5 152 L 92.5 153 L 174 153.5 L 92.5 154 L 88 150.5 L 87 148.5 L 87 27.5 L 90.5 23 Z " /><path fill="rgb(5,5,5)" stroke="rgb(5,5,5)" stroke-width="1" opacity="0.5411764705882353" d="M 177.5 24 L 179 26.5 L 177 25.5 L 177.5 24 Z " /><path fill="rgb(5,5,5)" stroke="rgb(5,5,5)" stroke-width="1" opacity="0.5411764705882353" d="M 79.5 27 L 80 147.5 L 79 147.5 L 79.5 27 Z " /><path fill="rgb(5,5,5)" stroke="rgb(5,5,5)" stroke-width="1" opacity="0.5411764705882353" d="M 179.5 29 L 180 147.5 L 175.5 153 L 178 149.5 L 179 147.5 L 179.5 29 Z " /><path fill="rgb(5,5,5)" stroke="rgb(5,5,5)" stroke-width="1" opacity="0.5411764705882353" d="M 127.5 55 L 139 55.5 L 127.5 56 L 127.5 55 Z " /><path fill="rgb(5,5,5)" stroke="rgb(5,5,5)" stroke-width="1" opacity="0.5411764705882353" d="M 122.5 56 L 125 56.5 L 122.5 57 L 122.5 56 Z " /><path fill="rgb(5,5,5)" stroke="rgb(5,5,5)" stroke-width="1" opacity="0.5411764705882353" d="M 142.5 56 L 145 56.5 L 142.5 57 L 142.5 56 Z " /><path fill="rgb(5,5,5)" stroke="rgb(5,5,5)" stroke-width="1" opacity="0.5411764705882353" d="M 118.5 57 L 121 57.5 L 118.5 58 L 118.5 57 Z " /><path fill="rgb(5,5,5)" stroke="rgb(5,5,5)" stroke-width="1" opacity="0.5411764705882353" d="M 146.5 57 L 149 57.5 L 146.5 58 L 146.5 57 Z " /><path fill="rgb(5,5,5)" stroke="rgb(5,5,5)" stroke-width="1" opacity="0.5411764705882353" d="M 115.5 58 L 117 58.5 L 113.5 60 L 113.5 59 L 115.5 58 Z " /><path fill="rgb(5,5,5)" stroke="rgb(5,5,5)" stroke-width="1" opacity="0.5411764705882353" d="M 150.5 58 L 154 59.5 L 152.5 60 L 150.5 58 Z " /><path fill="rgb(5,5,5)" stroke="rgb(5,5,5)" stroke-width="1" opacity="0.5411764705882353" d="M 126.5 62 L 140 62.5 L 126.5 63 L 126.5 62 Z " /><path fill="rgb(5,5,5)" stroke="rgb(5,5,5)" stroke-width="1" opacity="0.5411764705882353" d="M 159.5 62 L 160.5 64 L 159.5 62 Z " /><path fill="rgb(5,5,5)" stroke="rgb(5,5,5)" stroke-width="1" opacity="0.5411764705882353" d="M 105.5 63 L 104.5 65 L 105.5 63 Z " /><path fill="rgb(5,5,5)" stroke="rgb(5,5,5)" stroke-width="1" opacity="0.5411764705882353" d="M 122.5 63 L 125 63.5 L 120.5 65 L 120.5 64 L 122.5 63 Z " /><path fill="rgb(5,5,5)" stroke="rgb(5,5,5)" stroke-width="1" opacity="0.5411764705882353" d="M 142.5 63 L 145 63.5 L 142.5 64 L 142.5 63 Z " /><path fill="rgb(5,5,5)" stroke="rgb(5,5,5)" stroke-width="1" opacity="0.5411764705882353" d="M 162.5 64 L 167 68.5 L 167 71.5 L 165 72.5 L 166 68.5 L 162.5 64 Z " /><path fill="rgb(5,5,5)" stroke="rgb(5,5,5)" stroke-width="1" opacity="0.5411764705882353" d="M 102.5 65 L 101 67.5 L 100.5 69 L 100 67.5 L 102.5 65 Z " /><path fill="rgb(5,5,5)" stroke="rgb(5,5,5)" stroke-width="1" opacity="0.5411764705882353" d="M 117.5 65 L 119 65.5 L 115.5 67 L 115.5 66 L 117.5 65 Z " /><path fill="rgb(5,5,5)" stroke="rgb(5,5,5)" stroke-width="1" opacity="0.5411764705882353" d="M 148.5 65 L 152 66.5 L 150.5 67 L 148.5 65 Z " /><path fill="rgb(5,5,5)" stroke="rgb(5,5,5)" stroke-width="1" opacity="0.5411764705882353" d="M 111.5 68 L 110.5 70 L 107.5 72 L 109.5 69 L 111.5 68 Z " /><path fill="rgb(5,5,5)" stroke="rgb(5,5,5)" stroke-width="1" opacity="0.5411764705882353" d="M 155.5 68 L 162 72.5 L 160.5 73 L 155.5 68 Z " /><path fill="rgb(5,5,5)" stroke="rgb(5,5,5)" stroke-width="1" opacity="0.5411764705882353" d="M 100.5 71 L 101.5 73 L 100.5 71 Z " /><path fill="rgb(5,5,5)" stroke="rgb(5,5,5)" stroke-width="1" opacity="0.5411764705882353" d="M 126.5 75 L 130 75.5 L 126.5 76 L 126.5 75 Z " /><path fill="rgb(5,5,5)" stroke="rgb(5,5,5)" stroke-width="1" opacity="0.5411764705882353" d="M 136.5 75 L 141 75.5 L 136.5 76 L 136.5 75 Z " /><path fill="rgb(5,5,5)" stroke="rgb(5,5,5)" stroke-width="1" opacity="0.5411764705882353" d="M 122.5 76 L 125 76.5 Q 117.7 77.7 114 82.5 L 115 86.5 L 113 85.5 Q 112.3 79.8 116.5 79 L 122.5 76 Z " /><path fill="rgb(5,5,5)" stroke="rgb(5,5,5)" stroke-width="1" opacity="0.5411764705882353" d="M 145.5 77 L 148 78.5 L 146.5 78 L 145.5 77 Z " /><path fill="rgb(5,5,5)" stroke="rgb(5,5,5)" stroke-width="1" opacity="0.5411764705882353" d="M 149.5 79 L 152.5 83 L 149.5 79 Z " /><path fill="rgb(5,5,5)" stroke="rgb(5,5,5)" stroke-width="1" opacity="0.5411764705882353" d="M 152.5 84 L 153 85.5 L 151 86.5 L 152.5 84 Z " /><path fill="rgb(5,5,5)" stroke="rgb(5,5,5)" stroke-width="1" opacity="0.5411764705882353" d="M 145.5 85 L 150 87.5 L 148.5 88 L 145.5 85 Z " /><path fill="rgb(5,5,5)" stroke="rgb(5,5,5)" stroke-width="1" opacity="0.5411764705882353" d="M 130.5 93 L 137 93.5 Q 129.3 92.8 126.5 97 L 128.5 94 L 130.5 93 Z " /><path fill="rgb(5,5,5)" stroke="rgb(5,5,5)" stroke-width="1" opacity="0.5411764705882353" d="M 138.5 94 L 141.5 98 L 138.5 94 Z " /><path fill="rgb(5,5,5)" stroke="rgb(5,5,5)" stroke-width="1" opacity="0.5411764705882353" d="M 142.5 99 L 143 105.5 L 139.5 110 L 135.5 111 L 135.5 110 L 140 109 Q 143 106.2 142.5 99 Z " /><path fill="rgb(5,5,5)" stroke="rgb(5,5,5)" stroke-width="1" opacity="0.5411764705882353" d="M 125.5 104 L 129.5 110 L 132 110.5 L 129.5 111 L 125 106.5 L 125.5 104 Z " /><path fill="rgb(5,5,5)" stroke="rgb(5,5,5)" stroke-width="1" opacity="0.5411764705882353" d="M 186.5 127 L 187 150.5 L 186 150.5 L 186.5 127 Z " /><path fill="rgb(5,5,5)" stroke="rgb(5,5,5)" stroke-width="1" opacity="0.5411764705882353" d="M 80.5 149 L 83 154.5 L 81 153.5 L 80.5 149 Z " /><path fill="rgb(5,5,5)" stroke="rgb(5,5,5)" stroke-width="1" opacity="0.5411764705882353" d="M 184.5 154 L 179.5 160 L 174.5 162 L 93.5 162 L 93.5 161 L 174.5 161 Q 181.3 159.3 184.5 154 Z " /><path fill="rgb(5,5,5)" stroke="rgb(5,5,5)" stroke-width="1" opacity="0.5411764705882353" d="M 83.5 156 L 91 160.5 L 89.5 161 Q 84.5 159.5 83.5 156 Z " /><path fill="rgb(0,0,0)" stroke="rgb(0,0,0)" stroke-width="1" opacity="0" d="M 0 0 L 264 0 L 264 177 L 0 177 L 0 0 Z M 90 14 L 85 17 Q 80 20 79 27 L 79 150 L 81 155 Q 84 160 92 162 L 176 162 L 181 160 L 187 152 L 187 24 L 186 22 L 177 14 L 90 14 Z " /><path fill="rgb(0,0,0)" stroke="rgb(0,0,0)" stroke-width="1" opacity="0" d="M 96.5 22 L 170.5 22 L 174.5 23 L 178 26.5 L 179 29.5 L 179 146.5 L 175.5 152 L 173.5 153 L 93.5 153 L 89 149.5 L 88 147.5 L 88 28.5 L 92.5 23 L 96.5 22 Z M 126 55 Q 113 57 105 63 L 99 69 Q 98 73 102 74 L 106 74 Q 114 66 129 63 L 139 63 L 147 65 L 162 74 L 166 73 Q 168 74 167 68 Q 159 59 147 56 Q 138 53 126 55 Z M 129 74 L 115 80 L 112 84 L 115 88 L 120 88 L 130 83 L 138 83 L 148 88 L 152 87 Q 154 88 153 82 Q 145 73 129 74 Z M 130 93 L 124 100 L 125 108 L 133 112 Q 141 112 143 107 Q 144 100 142 97 Q 139 91 130 93 Z " /><path fill="rgb(58,58,58)" stroke="rgb(58,58,58)" stroke-width="1" opacity="0.984313725490196" d="M 90.5 14 L 91.5 15 L 175.5 15 L 177 14.5 L 176.5 16 L 179.5 17 L 181 16.5 L 184.5 22 L 186 21.5 L 185 23.5 L 186 24.5 L 186 125.5 L 187 126.5 L 186 127.5 L 186 150.5 L 186.5 152 L 185 152.5 L 185.5 154 L 184 154.5 L 185 155.5 L 181.5 159 L 179.5 159 L 178 159.5 L 178.5 161 L 175.5 160 L 175.5 162 L 174.5 161 L 93.5 161 L 91 162 Q 92.1 159.3 89.5 160 L 88 160.5 L 88.5 159 L 86.5 160 L 85.5 157 L 81 154.5 L 82 152.5 L 80 152.5 L 81 149.5 L 79 149.5 L 80 147.5 L 80 27.5 L 79.5 26 Q 82.1 26.8 81 23.5 L 84 19.5 Q 81.7 18.3 84.5 17 L 86.5 17 L 88 16.5 L 87.5 15 L 90 16 L 90.5 14 Z M 95 21 L 96 22 L 96 23 L 93 22 L 92 24 L 91 23 Q 88 24 90 26 L 89 25 L 87 28 L 87 149 L 89 149 L 88 151 L 90 150 Q 92 151 90 153 L 93 154 L 174 154 L 174 153 Q 177 154 179 150 L 178 148 L 180 148 L 180 30 L 178 29 L 179 27 L 178 25 L 177 25 L 175 22 L 172 23 L 172 22 L 95 21 Z " /><path fill="rgb(58,58,58)" stroke="rgb(58,58,58)" stroke-width="1" opacity="0.984313725490196" d="M 125 55 Q 128.9 57.4 138.5 56 L 142 55 Q 140.8 58 144.5 57 L 146.5 56 L 146.5 58 L 149.5 57 L 150 59 L 153.5 60 L 155 59.5 L 155.5 61 L 157 60.5 L 157.5 62 L 159 61.5 L 160.5 64 L 162 63.5 L 163.5 66 Q 165.3 63.3 167 67.5 L 164.5 74 L 162.5 74 L 161 73.5 L 161.5 72 L 159.5 71 L 158 71.5 L 158.5 70 L 156.5 69 Q 155.3 71.3 154 68.5 L 153.5 67 L 152 67.5 Q 152.8 65.3 150.5 66 L 148.5 65 L 147 65.5 L 146.5 64 L 144.5 65 L 144.5 63 L 140 64 L 139.5 62 L 126.5 62 L 126.5 64 L 122.5 63 L 122.5 65 L 120 64 L 119.5 66 L 117.5 65 L 115 66 L 114.5 68 L 113 67.5 L 112.5 69 L 110.5 69 L 109 69.5 L 109.5 71 Q 108.2 68.8 107 71.5 L 106.5 73 L 105 72.5 L 104.5 74 L 102 73.5 L 101.5 72 L 100 72.5 L 100.5 71 Q 97.9 71.8 99 68.5 L 101 68.5 L 103.5 64 Q 104.8 66.3 106 63.5 L 106.5 62 L 108 62.5 L 108.5 61 L 110 61.5 L 110.5 60 L 112 60.5 L 112.5 59 L 114.5 60 L 114.5 58 L 117 59 L 117.5 57 L 120.5 58 L 120.5 56 L 125 57 L 125 55 Z " /><path fill="rgb(58,58,58)" stroke="rgb(58,58,58)" stroke-width="1" opacity="0.984313725490196" d="M 129.5 74 L 137 74.5 L 136.5 76 L 141.5 75 L 142 77 L 144.5 76 L 145 78 L 147.5 79 L 149 78.5 L 149.5 80 Q 151.2 77.3 153 81.5 L 152 84.5 L 153 86.5 L 151 86.5 L 150.5 88 L 148.5 87 L 147 87.5 L 147.5 86 L 145.5 87 L 143.5 84 L 142 84.5 L 141.5 83 L 139.5 84 L 139.5 82 Q 136.3 84.3 129.5 83 L 127 82 L 126.5 84 L 124 83 L 122.5 86 L 121 85.5 L 120.5 87 L 119 86.5 L 118.5 88 L 116.5 87 L 115 87.5 L 114 82.5 L 118 79.5 L 117.5 78 L 119.5 79 L 119.5 77 L 121.5 78 L 125 77 L 125.5 75 L 129.5 76 L 129.5 74 Z " /><path fill="rgb(58,58,58)" stroke="rgb(58,58,58)" stroke-width="1" opacity="0.984313725490196" d="M 137.5 93 L 138.5 95 Q 140.3 92.3 142 96.5 L 141.5 98 L 143 98.5 L 141 106.5 L 141.5 108 L 140 107.5 Q 140.8 109.8 138.5 109 L 138.5 111 L 135.5 110 L 135.5 112 L 132 112 Q 133.3 109 129.5 110 L 126 108.5 L 126 106.5 L 125.5 104 L 124 104.5 L 125 101.5 L 124 99.5 L 126 99.5 L 125 97.5 L 130.5 94 Q 136 95.5 137.5 93 Z " /><path fill="rgb(145,145,145)" stroke="rgb(145,145,145)" stroke-width="1" opacity="0.44313725490196076" d="M 114.5 80 L 113.5 82 L 114.5 80 Z " /><path fill="rgb(145,145,145)" stroke="rgb(145,145,145)" stroke-width="1" opacity="0.44313725490196076" d="M 113.5 86 L 114.5 88 L 113.5 86 Z " /></svg>