<svg width="238" height="227" version="1.1" xmlns="http://www.w3.org/2000/svg" desc="Created with imagetracer.js version 1.2.6" ><path fill="rgb(191,191,191)" stroke="rgb(191,191,191)" stroke-width="1" opacity="0.050980392156862744" d="M 79.5 86 L 76.5 90 L 79.5 86 Z " /><path fill="rgb(191,191,191)" stroke="rgb(191,191,191)" stroke-width="1" opacity="0.050980392156862744" d="M 48.5 164 L 47.5 166 L 48.5 164 Z " /><path fill="rgb(191,191,191)" stroke="rgb(191,191,191)" stroke-width="1" opacity="0.050980392156862744" d="M 76.5 167 L 75.5 169 L 76.5 167 Z " /><path fill="rgb(191,191,191)" stroke="rgb(191,191,191)" stroke-width="1" opacity="0.050980392156862744" d="M 57.5 168 L 56.5 170 L 57.5 168 Z " /><path fill="rgb(191,191,191)" stroke="rgb(191,191,191)" stroke-width="1" opacity="0.050980392156862744" d="M 52.5 174 L 51.5 176 L 52.5 174 Z " /><path fill="rgb(191,191,191)" stroke="rgb(191,191,191)" stroke-width="1" opacity="0.050980392156862744" d="M 68.5 195 L 66.5 198 L 68.5 195 Z " /><path fill="rgb(67,67,67)" stroke="rgb(67,67,67)" stroke-width="1" opacity="0.9764705882352941" d="M 148.5 17 L 149.5 18 L 166.5 19 L 168.5 18 L 168.5 20 L 171.5 19 L 171.5 21 L 173.5 20 L 173.5 22 L 175.5 21 L 175.5 23 L 177.5 22 L 177.5 24 L 179.5 25 L 181 24.5 L 180.5 26 L 182.5 27 L 183.5 26 L 187 29.5 Q 184.5 31 188 32.5 L 188.5 34 L 190 33.5 L 190 35.5 L 190.5 37 L 192 36.5 L 192 38.5 L 192.5 41 L 194 40.5 L 193 42.5 L 195 42.5 L 194 45.5 L 196 45.5 L 195 50.5 L 196 50.5 L 196.5 49 L 197 50.5 L 196 51.5 L 196 62.5 L 196.5 64 L 195 63.5 L 196 68.5 L 194 68.5 L 195 72.5 L 193 72.5 L 194 74.5 L 192 74.5 L 193 77.5 L 191 77.5 L 192 79.5 L 190 79.5 L 188 83.5 L 188.5 85 Q 187.3 82.8 186 85.5 L 185 87.5 Q 187.3 88.7 184.5 90 L 183.5 89 L 178 94.5 Q 180.3 95.8 177.5 97 L 175.5 97 L 174 97.5 L 174.5 99 L 172.5 99 L 171 99.5 L 171.5 101 L 169.5 101 L 163 103.5 L 163.5 105 L 161.5 104 L 161.5 106 L 157.5 105 L 157.5 106 L 159 106.5 L 157.5 107 L 156 106.5 L 156.5 113 L 157.5 111 L 158 113.5 Q 155.5 115 157 120.5 L 158 123.5 L 157 123.5 L 156.5 121 L 156 127.5 L 156.5 129 L 155 128.5 L 156 131.5 L 154 131.5 L 155 134.5 L 153 134.5 L 150 141.5 L 150.5 143 L 149 142.5 L 148 144.5 Q 150.2 145.8 147.5 147 L 146 146.5 Q 146.8 148.8 144.5 148 L 140 152.5 L 140.5 154 L 138.5 154 L 134 156.5 L 134.5 158 L 132.5 157 L 132.5 159 L 130.5 158 L 127 159.5 L 127.5 161 L 123.5 160 L 123.5 162 Q 122.2 159.8 117.5 161 L 117.5 162 L 120 162.5 L 117.5 163 L 116.5 162 L 108.5 162 L 105.5 163 L 105.5 162 L 108 161.5 L 102.5 161 L 101 161.5 L 101.5 160 L 97.5 161 L 97.5 159 L 95.5 160 Q 94.3 157.8 93 160.5 Q 95.3 161.7 92.5 163 Q 91.3 160.8 90 163.5 L 88 166.5 Q 90.2 167.8 87.5 169 L 86 168.5 L 84 171.5 Q 86.3 172.8 83.5 174 Q 82.3 171.8 81 174.5 L 79 177.5 L 79.5 179 Q 77.8 176.3 76 180.5 L 75 182.5 Q 77.3 183.7 74.5 185 Q 73.3 182.8 72 185.5 L 73 187.5 L 71 187.5 L 72 190.5 L 70 190.5 L 71 192.5 L 68 193.5 L 65.5 197 L 60 199.5 L 60.5 201 L 55.5 200 L 53.5 201 Q 52.3 198.8 47.5 200 L 46 200.5 L 46.5 199 L 43.5 198 Q 42.3 200.3 41 197.5 Q 43.3 196.3 40.5 195 Q 39.3 197.3 38 194.5 L 39 191.5 L 38 190.5 L 38 180.5 L 37 179.5 L 39 179.5 L 40 176.5 Q 37.8 175.3 40.5 174 Q 41.8 176.3 43 173.5 L 45 170.5 Q 42.8 169.3 45.5 168 Q 46.8 170.3 48 167.5 L 50 164.5 Q 47.8 163.3 50.5 162 Q 52.3 164.8 54 160.5 L 53 158.5 Q 55 154.8 57 156.5 L 59 153.5 Q 56.8 152.3 59.5 151 Q 60.8 153.3 62 150.5 L 64 147.5 Q 61.3 145.8 65.5 144 L 67 144.5 L 69 141.5 L 69 139.5 L 70 135.5 L 68 135.5 L 69 131.5 L 68 131.5 L 67.5 133 L 67 131.5 L 68 126.5 L 67 126.5 L 66.5 128 L 66 126.5 L 67 125.5 L 68 107.5 L 67.5 106 L 69 106.5 L 68 103.5 L 70 103.5 L 69 100.5 L 71 100.5 L 70 98.5 L 72 98.5 L 73 96.5 L 72.5 95 L 75 93.5 L 74.5 92 Q 75.8 94.3 77 91.5 L 81.5 86 L 84 84.5 L 83.5 83 L 85.5 83 L 87 82.5 L 86.5 81 L 88.5 81 L 92 80 L 92.5 78 L 94.5 79 L 94.5 77 L 97.5 78 L 97.5 76 L 102.5 77 L 108 75.5 L 107.5 74 Q 111.3 75.3 110 71.5 L 109 71.5 L 108.5 73 L 108 71.5 L 109 70.5 L 109 61.5 L 108 59.5 L 109 59.5 L 109.5 61 L 110 55.5 L 109.5 54 L 111 54.5 L 110 51.5 L 112 51.5 L 111 48.5 L 113 48.5 L 117 39.5 Q 114.8 38.3 117.5 37 L 119 37.5 L 120 35.5 Q 117.8 34.3 120.5 33 L 121.5 34 L 126 29.5 Q 123.7 28.3 126.5 27 L 128.5 27 L 131 25.5 L 130.5 24 L 132.5 25 L 132.5 23 L 134.5 24 L 139 21.5 L 138.5 20 L 140.5 21 L 140.5 19 L 144.5 20 L 144.5 19 L 143 18.5 L 144.5 18 L 148.5 19 L 148.5 17 Z M 151 25 L 151 27 L 150 26 L 144 27 L 144 29 L 143 28 L 138 30 L 138 32 L 136 31 Q 133 32 135 34 L 134 33 L 132 34 L 132 36 L 128 40 L 127 39 L 126 41 Q 122 42 125 44 L 124 43 L 123 45 L 123 47 L 121 47 L 122 49 L 120 49 L 121 51 L 119 51 L 120 54 L 118 54 L 119 57 L 117 57 L 118 61 L 118 63 L 117 60 L 116 70 L 118 70 L 117 74 L 119 73 L 118 75 L 123 77 L 127 76 L 128 77 L 126 78 L 130 79 L 133 78 L 133 80 L 135 79 L 135 81 L 137 80 L 136 82 L 138 82 L 140 82 L 139 84 L 141 84 Q 142 87 144 85 L 147 89 L 146 90 L 148 93 L 151 94 L 150 96 L 152 95 L 151 97 Q 152 99 154 97 L 158 98 L 158 96 L 161 97 L 161 95 L 163 96 L 163 94 L 165 95 L 165 93 L 167 94 L 166 93 L 168 93 L 170 92 L 169 91 Q 170 88 172 90 L 175 88 Q 177 87 175 86 L 177 86 L 179 83 L 179 81 L 182 80 L 181 78 L 184 77 L 183 75 L 185 75 L 186 73 L 185 70 L 187 70 L 186 67 L 188 67 L 189 63 L 189 52 L 188 54 L 187 54 L 188 52 L 187 46 L 186 46 L 186 45 L 185 42 L 183 42 L 184 40 L 183 40 L 183 39 L 180 35 L 177 32 L 175 32 L 175 31 L 171 28 L 169 29 L 169 27 L 166 28 L 166 26 L 162 27 L 160 27 L 162 26 L 151 25 Z M 106 82 L 102 83 L 102 85 L 99 84 L 99 86 L 96 85 L 96 87 L 94 86 L 94 88 L 92 87 Q 89 88 91 90 L 90 89 L 88 90 L 88 92 L 83 97 L 82 96 L 81 98 L 81 100 L 80 99 L 79 101 L 79 103 L 77 103 L 78 105 L 76 105 L 77 108 L 75 108 L 76 111 L 74 111 L 75 116 Q 77 121 74 123 Q 73 129 76 132 L 76 131 L 77 131 L 76 133 L 77 137 Q 78 139 80 137 L 79 139 L 80 142 L 79 141 L 77 144 Q 73 145 76 147 Q 75 149 74 147 L 72 150 Q 68 151 71 153 Q 70 155 69 153 L 66 157 L 66 159 Q 65 161 64 159 L 62 162 Q 58 163 61 165 Q 60 167 59 165 L 57 168 Q 53 169 56 171 Q 55 173 54 171 L 53 173 L 50 176 L 51 177 L 50 176 L 47 180 L 47 182 L 46 181 L 45 190 L 47 189 Q 49 190 47 192 L 50 193 Q 56 194 60 192 L 63 189 L 62 188 L 64 188 L 65 185 L 64 183 L 66 183 L 68 180 L 68 178 Q 69 175 71 177 L 71 176 Q 74 174 72 173 Q 73 170 75 172 L 76 170 Q 79 168 77 167 Q 78 164 80 166 L 81 164 L 81 162 Q 82 159 84 161 L 85 159 Q 88 157 86 156 Q 87 153 89 155 L 90 153 L 90 151 Q 91 148 93 150 L 96 149 L 95 151 L 102 154 L 106 153 L 107 154 L 105 155 L 120 155 L 120 153 L 124 154 L 124 152 L 127 153 L 127 151 L 129 152 L 129 150 L 131 151 L 130 150 L 132 150 L 134 149 L 133 148 L 135 148 L 137 147 Q 139 146 137 145 L 139 145 L 142 141 L 142 139 L 145 138 L 144 136 L 146 136 L 145 134 L 147 134 L 148 131 L 147 128 L 149 128 L 148 125 L 149 122 L 150 124 L 150 113 L 148 113 L 149 109 L 146 108 L 136 108 L 135 109 L 135 108 L 131 107 Q 128 108 130 110 L 129 109 L 128 111 L 124 113 Q 117 111 116 114 L 116 112 L 114 113 L 114 112 Q 112 108 110 110 L 111 108 L 110 108 L 110 107 L 110 99 L 109 98 L 111 98 L 111 97 L 111 95 L 113 95 L 115 94 L 115 92 L 116 93 L 124 93 L 126 93 L 125 95 Q 127 99 129 96 L 130 99 L 132 98 L 132 100 L 136 99 L 138 100 L 135 101 L 143 101 L 144 99 L 142 96 Q 141 93 140 95 L 136 92 L 137 91 L 135 89 L 133 89 L 133 87 L 131 88 L 131 86 L 129 87 L 129 85 L 127 86 L 127 84 L 124 85 L 122 85 L 124 84 L 124 83 L 119 84 L 115 84 L 119 83 L 106 82 Z M 119 99 Q 116 100 118 102 L 117 101 L 116 104 L 118 104 L 117 106 L 119 105 L 119 107 Q 122 108 121 106 L 123 106 L 123 103 L 121 103 L 122 101 L 120 101 Q 121 98 119 99 Z M 74 115 L 73 122 L 74 122 L 74 115 Z " /><path fill="rgb(67,67,67)" stroke="rgb(67,67,67)" stroke-width="1" opacity="0.9764705882352941" d="M 106.5 83 L 110 83.5 L 106.5 84 L 106.5 83 Z " /><path fill="rgb(67,67,67)" stroke="rgb(67,67,67)" stroke-width="1" opacity="0.9764705882352941" d="M 117.5 91 L 121 91.5 L 117.5 92 L 117.5 91 Z " /><path fill="rgb(67,67,67)" stroke="rgb(67,67,67)" stroke-width="1" opacity="0.9764705882352941" d="M 118.5 114 L 123 114.5 L 118.5 115 L 118.5 114 Z " /><path fill="rgb(0,0,0)" stroke="rgb(0,0,0)" stroke-width="1" opacity="0" d="M 0 0 L 238 0 L 238 227 L 0 227 L 0 0 Z M 148 17 Q 136 20 128 26 Q 118 34 112 46 L 108 59 L 108 74 L 107 75 L 102 75 L 92 78 L 80 86 Q 70 95 66 110 Q 64 127 69 137 Q 70 141 67 143 L 37 179 L 37 193 L 38 195 Q 41 201 50 202 Q 61 203 67 198 Q 72 194 73 187 L 94 160 L 106 163 L 120 163 L 131 160 L 140 155 Q 155 145 158 124 Q 159 113 157 107 Q 169 105 178 97 Q 193 86 197 64 Q 198 53 196 46 Q 194 36 188 31 Q 181 22 169 18 Q 160 15 148 17 Z " /><path fill="rgb(0,0,0)" stroke="rgb(0,0,0)" stroke-width="1" opacity="0" d="M 151.5 26 Q 172.4 25.6 181 37.5 Q 188.5 45.5 188 61.5 Q 184.3 78.8 172.5 88 Q 165.6 95.1 153.5 97 L 142.5 84 L 130.5 77 L 120.5 75 L 119 73.5 Q 116.3 70.2 117 63.5 L 122 47.5 L 133.5 34 Q 140.8 28.3 151.5 26 Z " /><path fill="rgb(0,0,0)" stroke="rgb(0,0,0)" stroke-width="1" opacity="0" d="M 110.5 83 Q 133.9 83.6 143 98.5 Q 142.3 100.8 138.5 100 L 130.5 98 L 124.5 92 L 117.5 91 L 110 95.5 Q 107.3 99.3 109 107.5 L 114.5 114 L 122.5 115 Q 129 113.5 131.5 108 L 133.5 108 L 134.5 109 L 148 109 L 149 121.5 Q 146.4 137.9 135.5 146 L 122.5 153 L 107.5 154 L 95.5 149 L 91.5 149 L 63 183.5 Q 63.6 188.6 60.5 190 Q 57.5 193 50.5 192 L 46 188.5 Q 45.2 182.2 48 179.5 L 77 145.5 L 80 141.5 L 80 137.5 L 75 126.5 L 75 111.5 Q 78.5 98 88.5 91 L 99.5 85 L 110.5 83 Z " /><path fill="rgb(0,0,0)" stroke="rgb(0,0,0)" stroke-width="1" opacity="0" d="M 119.5 100 L 122 104.5 L 119.5 106 Q 117.3 105.3 118 101.5 L 119.5 100 Z " /><path fill="rgb(17,17,17)" stroke="rgb(17,17,17)" stroke-width="1" opacity="0.8705882352941177" d="M 149.5 17 Q 160.6 15.4 167 18.5 L 162.5 19 L 161.5 18 L 149.5 18 Q 129.4 22.4 119 36.5 Q 112.8 44.3 110 55.5 L 109 70.5 L 110 73.5 L 109 73.5 L 108 61.5 Q 110.3 60.3 109 55.5 L 115 40.5 L 124.5 29 Q 134 20 149.5 17 Z " /><path fill="rgb(17,17,17)" stroke="rgb(17,17,17)" stroke-width="1" opacity="0.8705882352941177" d="M 168.5 19 Q 182 22.5 189 32.5 L 196 46.5 L 197 62.5 Q 193.2 83.7 179.5 95 L 165.5 104 L 157 106 L 156.5 113 L 156 106.5 L 169.5 101 L 186 86.5 L 194 71.5 L 196 62.5 L 196 51.5 Q 193.2 34.3 181.5 26 L 168.5 20 L 168.5 19 Z " /><path fill="rgb(17,17,17)" stroke="rgb(17,17,17)" stroke-width="1" opacity="0.8705882352941177" d="M 150.5 25 Q 160.4 23.6 166 26.5 L 162.5 27 L 161.5 26 L 150.5 26 Q 135.6 29.6 127 39.5 Q 116.9 49.4 117 69.5 L 119.5 75 Q 139.5 78 149 91.5 L 153 97.5 L 150 95.5 Q 147 88 140.5 84 Q 132.3 77.7 119.5 76 L 117 73.5 L 116 60.5 Q 119.7 43.2 131.5 34 L 145.5 26 L 150.5 25 Z " /><path fill="rgb(17,17,17)" stroke="rgb(17,17,17)" stroke-width="1" opacity="0.8705882352941177" d="M 167.5 27 Q 175.3 29.3 180 34.5 L 188 47.5 L 189 62.5 Q 185.5 79 174.5 88 Q 167.2 95.7 154.5 98 L 154.5 97 L 157.5 97 L 166.5 93 L 176 86 L 183 76.5 L 186 69.5 L 188 61.5 L 188 52.5 Q 185.1 37.9 174.5 31 L 167.5 28 L 167.5 27 Z " /><path fill="rgb(17,17,17)" stroke="rgb(17,17,17)" stroke-width="1" opacity="0.8705882352941177" d="M 102.5 75 L 108 75.5 L 93.5 79 L 93.5 78 L 102.5 75 Z " /><path fill="rgb(17,17,17)" stroke="rgb(17,17,17)" stroke-width="1" opacity="0.8705882352941177" d="M 90.5 79 L 92 79.5 Q 83 83.5 77 90.5 L 73.5 95 L 75 92.5 L 82.5 84 L 90.5 79 Z " /><path fill="rgb(17,17,17)" stroke="rgb(17,17,17)" stroke-width="1" opacity="0.8705882352941177" d="M 105.5 82 Q 132.2 80.3 142 95.5 L 144 98.5 L 140 95.5 L 136.5 91 Q 127.1 81.4 106.5 83 Q 90.1 85.6 82 96.5 Q 73.9 104.9 74 121.5 L 76 131.5 L 80 140.5 L 46 181.5 L 46 189.5 Q 48.8 193.7 57.5 192 L 63 187.5 Q 62.4 182.9 65 181.5 L 92.5 149 L 105.5 154 L 119.5 154 L 126.5 152 L 138 145 L 145 135.5 L 147.5 129 L 148 130.5 Q 144.7 141.2 136.5 147 L 123.5 154 Q 116.4 156.4 105.5 155 L 92.5 150 L 71 175.5 L 65 183.5 L 64 187.5 L 59.5 192 Q 56.3 194.3 49.5 193 L 45 189.5 L 45 181.5 L 77 143.5 L 79 138.5 L 74 128.5 L 73 115.5 Q 75.8 98.3 87.5 90 Q 94.5 84 105.5 82 Z " /><path fill="rgb(17,17,17)" stroke="rgb(17,17,17)" stroke-width="1" opacity="0.8705882352941177" d="M 115.5 92 Q 125.3 90.3 128 95.5 L 129.5 98 L 131.5 99 L 133.5 99 L 143 100.5 L 135.5 101 Q 127 99.5 123.5 93 L 115.5 93 L 111 96.5 Q 108.7 99.7 110 106.5 L 114.5 112 L 123.5 113 L 128 111 L 130.5 107 L 145.5 108 L 147 107.5 L 145.5 109 L 135.5 109 L 130.5 108 L 126.5 113 Q 123.3 115.3 116.5 114 L 111 110.5 Q 107.7 106.8 109 98.5 L 113.5 93 L 115.5 92 Z " /><path fill="rgb(17,17,17)" stroke="rgb(17,17,17)" stroke-width="1" opacity="0.8705882352941177" d="M 72.5 96 L 72 97.5 L 67 112.5 L 67 125.5 L 70 136.5 L 69 136.5 L 66 125.5 L 66 111.5 Q 67.5 102 72.5 96 Z " /><path fill="rgb(17,17,17)" stroke="rgb(17,17,17)" stroke-width="1" opacity="0.8705882352941177" d="M 118.5 99 L 120 99.5 L 117 101.5 L 118 106 L 121 106.5 L 118.5 107 L 116 101.5 L 118.5 99 Z " /><path fill="rgb(17,17,17)" stroke="rgb(17,17,17)" stroke-width="1" opacity="0.8705882352941177" d="M 121.5 100 L 123 105.5 L 122 105.5 L 121.5 100 Z " /><path fill="rgb(17,17,17)" stroke="rgb(17,17,17)" stroke-width="1" opacity="0.8705882352941177" d="M 148.5 109 Q 151.7 113.8 150 123.5 L 149 123.5 Q 149.6 113.8 148.5 109 Z " /><path fill="rgb(17,17,17)" stroke="rgb(17,17,17)" stroke-width="1" opacity="0.8705882352941177" d="M 157.5 114 L 158 120.5 Q 155.5 122 157 127.5 L 152 140.5 L 141.5 153 Q 130.3 163.3 108.5 163 L 96 159.5 L 97.5 159 L 108.5 162 L 116.5 162 L 129.5 159 L 146 148 L 153 136.5 L 156 127.5 L 157.5 114 Z " /><path fill="rgb(17,17,17)" stroke="rgb(17,17,17)" stroke-width="1" opacity="0.8705882352941177" d="M 148.5 125 L 149 127.5 L 148 127.5 L 148.5 125 Z " /><path fill="rgb(17,17,17)" stroke="rgb(17,17,17)" stroke-width="1" opacity="0.8705882352941177" d="M 69.5 140 L 67 143.5 L 40 176.5 Q 36.3 180.8 38 190.5 L 43.5 198 L 47.5 200 L 54.5 201 L 62.5 199 L 68 194.5 L 72 185.5 L 94.5 159 L 92 162.5 L 74 184.5 L 70 193.5 L 64.5 199 L 52.5 202 L 44.5 200 L 40 197 L 37 191.5 L 37 180.5 L 41 173.5 L 69.5 140 Z " /></svg>