<svg width="254" height="227" version="1.1" xmlns="http://www.w3.org/2000/svg" desc="Created with imagetracer.js version 1.2.6" ><path fill="rgb(5,5,5)" stroke="rgb(5,5,5)" stroke-width="1" opacity="0.596078431372549" d="M 42.5 51 L 72 51.5 L 42.5 52 L 42.5 51 Z " /><path fill="rgb(5,5,5)" stroke="rgb(5,5,5)" stroke-width="1" opacity="0.596078431372549" d="M 73.5 51 L 131 51.5 L 73.5 52 L 73.5 51 Z " /><path fill="rgb(5,5,5)" stroke="rgb(5,5,5)" stroke-width="1" opacity="0.596078431372549" d="M 132.5 51 L 137 51.5 L 132.5 52 L 132.5 51 Z " /><path fill="rgb(5,5,5)" stroke="rgb(5,5,5)" stroke-width="1" opacity="0.596078431372549" d="M 138.5 51 L 144 51.5 L 138.5 52 L 138.5 51 Z " /><path fill="rgb(5,5,5)" stroke="rgb(5,5,5)" stroke-width="1" opacity="0.596078431372549" d="M 151.5 51 L 170 51.5 L 151.5 52 L 151.5 51 Z " /><path fill="rgb(5,5,5)" stroke="rgb(5,5,5)" stroke-width="1" opacity="0.596078431372549" d="M 171.5 51 L 204 51.5 L 171.5 52 L 171.5 51 Z " /><path fill="rgb(5,5,5)" stroke="rgb(5,5,5)" stroke-width="1" opacity="0.596078431372549" d="M 205.5 52 L 208 53.5 L 206.5 53 L 205.5 52 Z " /><path fill="rgb(5,5,5)" stroke="rgb(5,5,5)" stroke-width="1" opacity="0.596078431372549" d="M 38.5 53 L 37.5 55 L 38.5 53 Z " /><path fill="rgb(5,5,5)" stroke="rgb(5,5,5)" stroke-width="1" opacity="0.596078431372549" d="M 209.5 54 L 214 59.5 L 213 59.5 L 209.5 54 Z " /><path fill="rgb(5,5,5)" stroke="rgb(5,5,5)" stroke-width="1" opacity="0.596078431372549" d="M 34.5 57 L 33.5 59 L 34.5 57 Z " /><path fill="rgb(5,5,5)" stroke="rgb(5,5,5)" stroke-width="1" opacity="0.596078431372549" d="M 44.5 59 L 201.5 59 L 206 62.5 L 203.5 61 L 201.5 60 L 44.5 60 L 43 60.5 L 44.5 59 Z " /><path fill="rgb(5,5,5)" stroke="rgb(5,5,5)" stroke-width="1" opacity="0.596078431372549" d="M 31.5 62 L 32 64.5 L 31 64.5 L 31.5 62 Z " /><path fill="rgb(5,5,5)" stroke="rgb(5,5,5)" stroke-width="1" opacity="0.596078431372549" d="M 40.5 63 L 40 64.5 L 39.5 66 L 39 64.5 L 40.5 63 Z " /><path fill="rgb(5,5,5)" stroke="rgb(5,5,5)" stroke-width="1" opacity="0.596078431372549" d="M 215.5 64 L 216 147.5 L 215 147.5 L 215.5 64 Z " /><path fill="rgb(5,5,5)" stroke="rgb(5,5,5)" stroke-width="1" opacity="0.596078431372549" d="M 207.5 66 L 208 145.5 L 207 145.5 L 207.5 66 Z " /><path fill="rgb(5,5,5)" stroke="rgb(5,5,5)" stroke-width="1" opacity="0.596078431372549" d="M 38.5 69 L 39 71.5 L 38 71.5 L 38.5 69 Z " /><path fill="rgb(5,5,5)" stroke="rgb(5,5,5)" stroke-width="1" opacity="0.596078431372549" d="M 75.5 90 Q 82.3 88.3 84 91.5 L 83.5 111 L 83 91 L 75.5 91 L 75 91.5 L 75 141 L 83 141 L 83 122.5 L 84 122.5 L 84 142 L 75.5 142 L 74 140.5 L 74 91.5 L 75.5 90 Z " /><path fill="rgb(5,5,5)" stroke="rgb(5,5,5)" stroke-width="1" opacity="0.596078431372549" d="M 109.5 90 Q 116.3 88.3 118 91.5 L 118 141.5 L 117.5 142 L 109.5 142 L 108 139.5 L 109 139.5 L 109.5 141 L 117 141 L 117 91.5 L 116.5 91 L 109 91 L 108.5 94 L 108 91.5 L 109.5 90 Z " /><path fill="rgb(5,5,5)" stroke="rgb(5,5,5)" stroke-width="1" opacity="0.596078431372549" d="M 129.5 90 Q 136.3 88.3 138 91.5 Q 139.8 98.2 136.5 100 Q 129.8 101.8 128 98.5 Q 126.3 91.8 129.5 90 Z M 129 91 L 129 99 L 137 99 L 137 93 L 136 91 L 129 91 Z " /><path fill="rgb(5,5,5)" stroke="rgb(5,5,5)" stroke-width="1" opacity="0.596078431372549" d="M 128 107 L 136.5 107 L 138 108.5 L 138 140.5 L 136.5 142 L 128.5 142 L 128 141.5 L 128 107 Z M 129 108 L 129 141 L 130 141 L 137 141 L 137 109 L 137 108 L 129 108 Z " /><path fill="rgb(5,5,5)" stroke="rgb(5,5,5)" stroke-width="1" opacity="0.596078431372549" d="M 85.5 112 L 108 112.5 L 85.5 113 L 85.5 112 Z " /><path fill="rgb(5,5,5)" stroke="rgb(5,5,5)" stroke-width="1" opacity="0.596078431372549" d="M 85.5 120 L 108 120.5 L 85.5 121 L 85.5 120 Z " /><path fill="rgb(5,5,5)" stroke="rgb(5,5,5)" stroke-width="1" opacity="0.596078431372549" d="M 206.5 148 L 207 149.5 L 205 150.5 L 206.5 148 Z " /><path fill="rgb(5,5,5)" stroke="rgb(5,5,5)" stroke-width="1" opacity="0.596078431372549" d="M 204.5 152 L 185.5 172 L 204.5 152 Z " /><path fill="rgb(5,5,5)" stroke="rgb(5,5,5)" stroke-width="1" opacity="0.596078431372549" d="M 212.5 155 L 212 156.5 L 205.5 164 L 211 157.5 L 212.5 155 Z " /><path fill="rgb(5,5,5)" stroke="rgb(5,5,5)" stroke-width="1" opacity="0.596078431372549" d="M 38.5 164 L 39 166.5 L 38 166.5 L 38.5 164 Z " /><path fill="rgb(5,5,5)" stroke="rgb(5,5,5)" stroke-width="1" opacity="0.596078431372549" d="M 203.5 165 L 192.5 177 L 203.5 165 Z " /><path fill="rgb(5,5,5)" stroke="rgb(5,5,5)" stroke-width="1" opacity="0.596078431372549" d="M 31.5 169 Q 32.4 176.6 37.5 180 L 40 181.5 L 38.5 181 L 33 176.5 Q 30 173.8 31.5 169 Z " /><path fill="rgb(5,5,5)" stroke="rgb(5,5,5)" stroke-width="1" opacity="0.596078431372549" d="M 40.5 171 L 42.5 174 L 40.5 171 Z " /><path fill="rgb(5,5,5)" stroke="rgb(5,5,5)" stroke-width="1" opacity="0.596078431372549" d="M 182.5 173 L 181.5 175 L 179 174.5 L 182.5 173 Z " /><path fill="rgb(5,5,5)" stroke="rgb(5,5,5)" stroke-width="1" opacity="0.596078431372549" d="M 47.5 175 L 178 175.5 L 47.5 176 L 47.5 175 Z " /><path fill="rgb(5,5,5)" stroke="rgb(5,5,5)" stroke-width="1" opacity="0.596078431372549" d="M 189.5 178 L 187.5 181 L 189.5 178 Z " /><path fill="rgb(5,5,5)" stroke="rgb(5,5,5)" stroke-width="1" opacity="0.596078431372549" d="M 181.5 182 L 184 182.5 L 181.5 183 L 181.5 182 Z " /><path fill="rgb(5,5,5)" stroke="rgb(5,5,5)" stroke-width="1" opacity="0.596078431372549" d="M 45.5 183 L 180 183.5 L 45.5 184 L 45.5 183 Z " /><path fill="rgb(0,0,0)" stroke="rgb(0,0,0)" stroke-width="1" opacity="0" d="M 0 0 L 254 0 L 254 227 L 0 227 L 0 0 Z M 42 51 L 38 53 Q 32 57 30 65 L 30 171 L 35 180 L 43 184 L 182 184 L 189 181 L 214 156 L 216 150 L 216 63 L 213 57 L 206 51 L 42 51 Z " /><path fill="rgb(0,0,0)" stroke="rgb(0,0,0)" stroke-width="1" opacity="0" d="M 45.5 60 L 200.5 60 L 206 64.5 L 207 66.5 L 207 145.5 L 205 150.5 L 182.5 173 L 176.5 175 L 47.5 175 L 40 169.5 L 39 164.5 L 39 131.5 L 40 128.5 L 39 123.5 L 40 120.5 L 39 119.5 L 39 97.5 L 40 94.5 L 39 93.5 L 39 68.5 L 40 64.5 L 43.5 61 L 45.5 60 Z M 74 90 L 74 142 L 75 142 L 84 142 L 84 123 L 86 121 L 107 121 L 108 123 L 108 142 L 118 142 L 118 91 L 118 90 L 110 90 L 108 92 L 108 111 L 107 112 L 86 112 L 84 111 L 84 90 L 74 90 Z M 128 90 L 128 100 L 137 100 Q 140 98 138 92 L 137 90 L 128 90 Z M 128 107 L 128 142 L 129 142 L 138 142 L 138 108 L 138 107 L 128 107 Z " /><path fill="rgb(46,46,46)" stroke="rgb(46,46,46)" stroke-width="1" opacity="0.9568627450980393" d="M 36.5 54 L 37 55.5 L 36.5 58 L 34 56.5 L 36 56 L 36.5 54 Z " /><path fill="rgb(46,46,46)" stroke="rgb(46,46,46)" stroke-width="1" opacity="0.9568627450980393" d="M 42.5 60 L 43 62 L 39.5 64 L 42.5 60 Z " /><path fill="rgb(46,46,46)" stroke="rgb(46,46,46)" stroke-width="1" opacity="0.9568627450980393" d="M 31.5 65 L 32 169 L 30 168.5 L 30 66.5 L 31.5 65 Z " /><path fill="rgb(46,46,46)" stroke="rgb(46,46,46)" stroke-width="1" opacity="0.9568627450980393" d="M 38.5 65 L 39 68.5 L 38 68.5 L 38.5 65 Z " /><path fill="rgb(46,46,46)" stroke="rgb(46,46,46)" stroke-width="1" opacity="0.9568627450980393" d="M 38.5 72 L 39 77.5 L 38 77.5 L 38.5 72 Z " /><path fill="rgb(46,46,46)" stroke="rgb(46,46,46)" stroke-width="1" opacity="0.9568627450980393" d="M 38.5 79 L 39 88.5 L 38 88.5 L 38.5 79 Z " /><path fill="rgb(46,46,46)" stroke="rgb(46,46,46)" stroke-width="1" opacity="0.9568627450980393" d="M 38.5 90 L 39 98.5 L 38 98.5 L 38.5 90 Z " /><path fill="rgb(46,46,46)" stroke="rgb(46,46,46)" stroke-width="1" opacity="0.9568627450980393" d="M 109.5 91 L 110 110.5 L 108 111.5 L 109 109.5 L 108 108.5 L 108 100.5 L 109 98.5 L 108 94.5 L 109.5 91 Z " /><path fill="rgb(46,46,46)" stroke="rgb(46,46,46)" stroke-width="1" opacity="0.9568627450980393" d="M 38.5 100 L 39 111.5 L 38 111.5 L 38.5 100 Z " /><path fill="rgb(46,46,46)" stroke="rgb(46,46,46)" stroke-width="1" opacity="0.9568627450980393" d="M 83.5 111 L 84.5 113 L 83.5 111 Z " /><path fill="rgb(46,46,46)" stroke="rgb(46,46,46)" stroke-width="1" opacity="0.9568627450980393" d="M 38.5 113 L 39 117.5 L 38 117.5 L 38.5 113 Z " /><path fill="rgb(46,46,46)" stroke="rgb(46,46,46)" stroke-width="1" opacity="0.9568627450980393" d="M 38.5 119 L 39 121.5 L 38 121.5 L 38.5 119 Z " /><path fill="rgb(46,46,46)" stroke="rgb(46,46,46)" stroke-width="1" opacity="0.9568627450980393" d="M 83 120 L 85 120.5 L 83 121.5 L 83 120 Z " /><path fill="rgb(46,46,46)" stroke="rgb(46,46,46)" stroke-width="1" opacity="0.9568627450980393" d="M 75.5 121 L 76 123.5 L 75 123.5 L 75.5 121 Z " /><path fill="rgb(46,46,46)" stroke="rgb(46,46,46)" stroke-width="1" opacity="0.9568627450980393" d="M 108.5 121 L 110 124 Q 106.5 125.1 108.5 121 Z " /><path fill="rgb(46,46,46)" stroke="rgb(46,46,46)" stroke-width="1" opacity="0.9568627450980393" d="M 38.5 123 L 39 131.5 L 38 131.5 L 38.5 123 Z " /><path fill="rgb(46,46,46)" stroke="rgb(46,46,46)" stroke-width="1" opacity="0.9568627450980393" d="M 108 125 L 110 125.5 L 110 132 L 108 131.5 L 108 129.5 L 108 125 Z " /><path fill="rgb(46,46,46)" stroke="rgb(46,46,46)" stroke-width="1" opacity="0.9568627450980393" d="M 108.5 133 L 110 137.5 L 109.5 139 L 111 139.5 L 109 140.5 L 108 138.5 L 109 136.5 L 108.5 133 Z " /><path fill="rgb(46,46,46)" stroke="rgb(46,46,46)" stroke-width="1" opacity="0.9568627450980393" d="M 38.5 134 L 39 136.5 L 38 136.5 L 38.5 134 Z " /><path fill="rgb(46,46,46)" stroke="rgb(46,46,46)" stroke-width="1" opacity="0.9568627450980393" d="M 38.5 138 L 39 140.5 L 38 140.5 L 38.5 138 Z " /><path fill="rgb(46,46,46)" stroke="rgb(46,46,46)" stroke-width="1" opacity="0.9568627450980393" d="M 75.5 139 L 76 140.5 L 74 141.5 L 75.5 139 Z " /><path fill="rgb(46,46,46)" stroke="rgb(46,46,46)" stroke-width="1" opacity="0.9568627450980393" d="M 38.5 145 L 39 147.5 L 38 147.5 L 38.5 145 Z " /><path fill="rgb(46,46,46)" stroke="rgb(46,46,46)" stroke-width="1" opacity="0.9568627450980393" d="M 207.5 146 L 208 148 L 206 147.5 L 207.5 146 Z " /><path fill="rgb(46,46,46)" stroke="rgb(46,46,46)" stroke-width="1" opacity="0.9568627450980393" d="M 214 148 L 216 148.5 L 214 149.5 L 214 148 Z " /><path fill="rgb(46,46,46)" stroke="rgb(46,46,46)" stroke-width="1" opacity="0.9568627450980393" d="M 38.5 149 L 39 151.5 L 38 151.5 L 38.5 149 Z " /><path fill="rgb(46,46,46)" stroke="rgb(46,46,46)" stroke-width="1" opacity="0.9568627450980393" d="M 38.5 153 L 39 158.5 L 38 158.5 L 38.5 153 Z " /><path fill="rgb(46,46,46)" stroke="rgb(46,46,46)" stroke-width="1" opacity="0.9568627450980393" d="M 210.5 157 L 207.5 161 L 207.5 158 Q 209 160.5 210.5 157 Z " /><path fill="rgb(46,46,46)" stroke="rgb(46,46,46)" stroke-width="1" opacity="0.9568627450980393" d="M 38.5 160 L 39 163.5 L 38 163.5 L 38.5 160 Z " /><path fill="rgb(46,46,46)" stroke="rgb(46,46,46)" stroke-width="1" opacity="0.9568627450980393" d="M 205.5 162 L 205 163.5 Q 205.8 165.8 203.5 165 L 189.5 180 L 190 178.5 L 205.5 162 Z " /><path fill="rgb(46,46,46)" stroke="rgb(46,46,46)" stroke-width="1" opacity="0.9568627450980393" d="M 38.5 167 L 39.5 169 Q 36.7 169.7 38.5 167 Z " /><path fill="rgb(46,46,46)" stroke="rgb(46,46,46)" stroke-width="1" opacity="0.9568627450980393" d="M 194.5 167 L 195.5 169 L 194.5 167 Z " /><path fill="rgb(46,46,46)" stroke="rgb(46,46,46)" stroke-width="1" opacity="0.9568627450980393" d="M 184.5 171 L 185 172.5 L 184.5 175 L 183 172.5 L 184.5 171 Z " /><path fill="rgb(46,46,46)" stroke="rgb(46,46,46)" stroke-width="1" opacity="0.9568627450980393" d="M 45.5 174 L 46.5 176 L 44.5 177 L 45 175.5 L 45.5 174 Z " /><path fill="rgb(46,46,46)" stroke="rgb(46,46,46)" stroke-width="1" opacity="0.9568627450980393" d="M 35.5 175 Q 33.8 177 37.5 179 L 39 178.5 L 37.5 180 L 34 176.5 L 35.5 175 Z " /><path fill="rgb(46,46,46)" stroke="rgb(46,46,46)" stroke-width="1" opacity="0.9568627450980393" d="M 182.5 179 L 181.5 181 L 182.5 179 Z " /><path fill="rgb(46,46,46)" stroke="rgb(46,46,46)" stroke-width="1" opacity="0.9568627450980393" d="M 43.5 182 Q 45.8 181.3 45 183.5 L 43.5 182 Z " /><path fill="rgb(66,66,66)" stroke="rgb(66,66,66)" stroke-width="1" opacity="0.9921568627450981" d="M 43.5 52 L 203.5 52 L 209.5 55 Q 211.3 52.2 213 56.5 L 212 58.5 L 215 64.5 L 215 147.5 L 212 155.5 L 214 155.5 Q 212.8 158.3 211.5 156 L 207 160.5 Q 207.8 162.8 205.5 162 L 188 179.5 L 188.5 181 L 186.5 180 Q 179.3 185.3 164.5 183 L 162.5 183 L 45.5 183 L 41.5 182 L 40 182.5 L 40.5 181 L 38.5 182 L 39 180.5 L 34 175.5 L 32 171.5 L 32 62.5 L 34 58.5 L 33.5 57 L 34.5 58 L 38 54.5 L 37.5 53 L 39.5 54 L 43.5 52 Z M 45 59 L 45 61 L 43 60 Q 40 61 42 63 L 41 62 L 38 66 L 38 169 L 39 171 Q 42 169 44 174 L 43 173 L 42 175 L 46 176 L 180 176 L 182 175 L 182 173 L 184 174 Q 188 172 185 171 L 204 152 Q 205 154 206 152 L 205 150 L 207 150 L 208 148 L 208 66 L 206 66 L 207 64 L 206 64 Q 201 62 204 61 L 203 59 L 45 59 Z " /><path fill="rgb(66,66,66)" stroke="rgb(66,66,66)" stroke-width="1" opacity="0.9921568627450981" d="M 128.5 90 Q 130 92.5 135.5 91 L 137 92.5 Q 138.3 97.8 135.5 99 L 129 99 L 129 91.5 L 128.5 90 Z " /><path fill="rgb(66,66,66)" stroke="rgb(66,66,66)" stroke-width="1" opacity="0.9921568627450981" d="M 76.5 91 Q 82.8 90.3 83 91.5 L 83 111.5 L 85 111.5 L 84.5 113 L 108 112.5 L 107.5 111 Q 108.8 113.3 110 110.5 L 110 91 L 117 91 L 117 140.5 Q 116.8 141.8 110.5 141 L 110.5 139 L 109 138.5 L 110 135.5 L 109 132.5 Q 111.5 131 110 125.5 L 110 123.5 L 108.5 121 L 107 121.5 L 107.5 120 L 83 120 L 83 141 L 76 141 L 75 138.5 L 76 136.5 L 75 131.5 L 76 129.5 L 75 124.5 L 76 121.5 Q 73.8 120.2 75 115.5 L 76 112.5 L 75 110.5 L 76 107.5 L 75 100.5 L 75 98.5 L 76 93.5 Q 73.8 92.3 76.5 91 Z " /><path fill="rgb(66,66,66)" stroke="rgb(66,66,66)" stroke-width="1" opacity="0.9921568627450981" d="M 39.5 94 L 40 96.5 L 39 96.5 L 39.5 94 Z " /><path fill="rgb(66,66,66)" stroke="rgb(66,66,66)" stroke-width="1" opacity="0.9921568627450981" d="M 129 108 L 135.5 108 L 137 109.5 L 137 124.5 L 136 125.5 L 137 126.5 L 137 139.5 L 135.5 141 L 129 141 L 129 108 Z " /><path fill="rgb(66,66,66)" stroke="rgb(66,66,66)" stroke-width="1" opacity="0.9921568627450981" d="M 39.5 120 L 40 122.5 L 39 122.5 L 39.5 120 Z " /><path fill="rgb(66,66,66)" stroke="rgb(66,66,66)" stroke-width="1" opacity="0.9921568627450981" d="M 39.5 128 L 40 130.5 L 39 130.5 L 39.5 128 Z " /><path fill="rgb(66,66,66)" stroke="rgb(66,66,66)" stroke-width="1" opacity="0.9921568627450981" d="M 39.5 165 L 40 167.5 L 39 167.5 L 39.5 165 Z " /></svg>