<svg width="238" height="177" version="1.1" xmlns="http://www.w3.org/2000/svg" desc="Created with imagetracer.js version 1.2.6" ><path fill="rgb(53,53,53)" stroke="rgb(53,53,53)" stroke-width="1" opacity="0.9647058823529412" d="M 45 48 L 94.5 48 L 95.5 49 L 97.5 48 L 99.5 48 L 106.5 49 Q 108.3 46.3 114.5 48 L 116.5 48 L 203.5 48 L 205.5 50 L 209.5 49 L 213 50.5 L 212.5 52 L 214.5 51 Q 219.3 53.5 217.5 56 Q 219.8 55.3 219 57.5 L 220 60.5 L 220 62.5 L 220 74.5 L 218 78.5 L 219 83.5 L 217 87.5 L 218 91.5 L 216 95.5 L 217 99.5 L 215 104.5 L 216 108.5 Q 212.5 110 215 111.5 L 213 115.5 L 214 117.5 Q 210.9 125.9 204.5 131 L 202.5 132 L 201 131.5 Q 201.8 133.8 199.5 133 L 196.5 134 L 193.5 133 L 193.5 135 L 125.5 135 L 124.5 134 L 120.5 135 L 118.5 135 L 114.5 134 L 111.5 135 L 110.5 134 L 98.5 134 L 96.5 134 L 92.5 135 L 91.5 134 L 83.5 134 Q 82 136.5 76.5 135 L 74.5 134 Q 73.3 136.3 68.5 135 L 66.5 134 L 65.5 135 L 33 135 L 32.5 133 L 30 134 L 29.5 132 L 27.5 132 L 23 128.5 L 22 126.5 L 22.5 125 Q 20.3 125.8 21 123.5 L 21 121.5 Q 19.3 115.3 22 113.5 L 21 109.5 L 23 106.5 L 22 101.5 L 24 98.5 Q 21.7 97.3 23 92.5 L 25 87.5 L 24 82.5 L 26 78.5 L 25 74 Q 28 75.3 27 71.5 L 26 67.5 L 28 64.5 L 27 62.5 L 30.5 57 L 32 56.5 Q 29.3 54.8 33.5 53 L 39.5 50 L 41 50.5 Q 40.2 47.9 43.5 49 L 45 49.5 L 45 48 Z M 93 56 L 92 57 L 54 57 L 53 58 L 44 57 L 44 59 L 42 59 Q 40 62 39 60 Q 34 62 37 64 L 33 70 L 34 73 Q 36 79 32 78 L 33 84 Q 34 88 31 89 L 32 92 Q 33 96 30 97 L 31 99 Q 33 104 30 103 L 30 105 Q 31 111 28 114 L 30 123 L 34 125 L 54 125 L 55 126 L 122 126 L 123 125 L 195 125 L 196 126 L 196 124 L 199 125 L 205 117 Q 204 114 207 115 L 206 114 L 207 112 Q 205 105 209 106 L 208 102 Q 207 97 210 97 L 209 95 Q 207 89 211 90 L 210 87 L 212 83 L 211 79 L 213 72 Q 211 70 212 66 L 212 62 L 207 58 L 197 58 L 196 57 L 94 57 L 93 56 Z " /><path fill="rgb(53,53,53)" stroke="rgb(53,53,53)" stroke-width="1" opacity="0.9647058823529412" d="M 109.5 75 L 155.5 75 L 159.5 77 L 164.5 76 L 164.5 78 Q 167.3 77.4 166 83.5 Q 162.5 85 165 86.5 Q 165.8 88.8 163.5 88 L 164 89.5 L 160.5 96 L 159 96.5 L 160 97.5 L 153.5 104 L 152 103.5 Q 152.8 106.1 149.5 105 L 148.5 106 L 76.5 106 L 74 103.5 L 74 94.5 L 76.5 90 L 78 89.5 Q 75.5 88 79 86.5 L 82.5 82 L 84 82.5 L 85.5 80 L 88.5 79 L 90 79.5 Q 89.3 77.3 91.5 78 L 93 78.5 Q 92.1 75.5 96.5 77 L 97.5 76 L 108.5 76 L 109.5 75 Z M 101 84 L 89 89 L 84 96 L 85 97 L 136 97 L 139 98 L 147 97 L 148 98 Q 147 95 150 96 Q 155 92 156 84 L 109 84 L 108 85 L 101 84 Z " /><path fill="rgb(0,0,0)" stroke="rgb(0,0,0)" stroke-width="1" opacity="0" d="M 0 0 L 238 0 L 238 177 L 0 177 L 0 0 Z M 45 48 L 45 50 L 44 49 Q 40 48 41 51 L 40 50 L 34 53 Q 31 54 33 56 L 31 57 L 28 61 L 29 63 L 27 63 L 28 65 L 26 68 L 27 72 Q 28 75 25 74 L 26 79 L 24 83 L 25 88 L 23 93 Q 22 97 24 99 L 22 102 L 23 107 L 21 110 L 22 114 Q 19 115 21 122 L 21 124 Q 20 126 23 125 L 22 127 L 23 129 L 28 132 L 30 132 L 30 134 L 33 133 L 33 135 L 66 135 L 67 134 L 69 135 Q 73 136 75 134 L 77 135 Q 82 137 84 134 L 92 134 L 93 135 L 97 134 L 99 134 L 111 134 L 112 135 L 115 134 L 119 135 L 121 135 L 125 134 L 126 135 L 194 135 L 194 133 L 199 134 L 198 133 L 200 133 Q 202 134 201 132 L 203 132 L 205 131 L 204 130 Q 206 125 208 128 L 209 126 L 209 124 L 211 124 L 214 118 L 213 116 L 215 112 Q 212 110 216 109 L 215 105 L 217 100 L 216 96 L 218 92 L 217 88 L 219 84 L 218 79 L 220 75 L 220 63 L 220 61 L 219 58 Q 220 55 218 56 Q 215 55 217 54 Q 216 51 215 53 L 213 52 L 213 51 L 210 49 L 206 50 L 204 48 L 117 48 L 115 48 Q 108 46 107 49 L 100 48 L 98 48 L 96 49 L 95 48 L 45 48 Z " /><path fill="rgb(0,0,0)" stroke="rgb(0,0,0)" stroke-width="1" opacity="0" d="M 92.5 56 L 93.5 57 L 195.5 57 L 196.5 58 L 206.5 58 L 208 57.5 L 207.5 59 L 212 61.5 L 212 65.5 Q 210.7 70.3 213 71.5 L 211 78.5 L 212 82.5 L 210 86.5 L 211 90 Q 207.3 88.7 209 94.5 L 210 96.5 Q 207.3 97.3 208 101.5 L 209 106 Q 205 104.6 207 111.5 L 206 113.5 L 206.5 115 Q 204.3 114.3 205 116.5 L 203 119.5 L 203.5 121 Q 201.8 118.2 200 122.5 L 200.5 124 L 199 123.5 L 198.5 125 L 196 124 L 195.5 126 L 194.5 125 L 122.5 125 L 121.5 126 L 54.5 126 L 53.5 125 L 33.5 125 L 30 122.5 L 28 113.5 Q 30.6 110.6 30 104.5 L 29.5 103 Q 32.9 103.9 31 98.5 L 30 96.5 Q 32.7 95.8 32 91.5 L 31 88.5 Q 33.8 87.8 33 83.5 L 32 78 Q 36 79.4 34 72.5 L 33 69.5 L 35 66.5 L 34.5 65 L 36 65.5 L 37 63.5 Q 34.3 61.7 38.5 60 Q 40 62.5 41.5 59 L 44 58.5 L 43.5 57 L 52.5 58 L 53.5 57 L 91.5 57 L 92.5 56 Z M 110 75 L 109 76 L 98 76 L 97 77 Q 92 75 93 79 L 92 78 Q 89 77 90 80 L 89 79 L 86 80 L 86 82 L 85 81 L 84 83 L 81 86 L 80 85 L 79 87 Q 75 88 78 90 L 77 90 L 77 92 L 76 91 Q 73 95 74 104 L 76 103 L 77 106 L 149 106 L 150 105 Q 153 106 152 104 L 154 104 L 160 98 L 159 97 L 161 96 L 164 90 L 164 88 Q 166 89 165 87 Q 163 85 166 84 Q 167 77 165 78 L 165 76 L 160 77 L 156 75 L 110 75 Z " /><path fill="rgb(0,0,0)" stroke="rgb(0,0,0)" stroke-width="1" opacity="0" d="M 100.5 84 L 107.5 85 L 108.5 84 L 156 84 L 154 90.5 L 154.5 92 L 153 91.5 L 149.5 96 Q 147.3 95.3 148 97.5 L 146.5 97 L 138.5 98 L 135.5 97 L 84.5 97 L 84 95.5 L 88.5 89 L 90 88.5 L 89.5 87 L 91.5 87 Q 97.5 87 100.5 84 Z " /></svg>